G04*
G04 #@! TF.GenerationSoftware,Altium Limited,Altium Designer,20.2.6 (244)*
G04*
G04 Layer_Color=16711935*
%FSLAX24Y24*%
%MOIN*%
G70*
G04*
G04 #@! TF.SameCoordinates,7583AB6C-3689-415F-B137-6D089145A127*
G04*
G04*
G04 #@! TF.FilePolarity,Negative*
G04*
G01*
G75*
%ADD74C,0.0336*%
%ADD75O,0.0907X0.0493*%
%ADD76O,0.0867X0.0474*%
%ADD77C,0.0710*%
%ADD78R,0.0710X0.0710*%
%ADD79R,0.0710X0.0710*%
%ADD80C,0.0198*%
%ADD81C,0.0680*%
%ADD82C,0.1261*%
%ADD83C,0.0454*%
D74*
X2399Y18960D02*
D03*
Y16684D02*
D03*
D75*
X2596Y16121D02*
D03*
Y19523D02*
D03*
D76*
X950Y16121D02*
D03*
Y19523D02*
D03*
D77*
X29465Y22835D02*
D03*
X2071D02*
D03*
X3173Y4528D02*
D03*
X30787Y6165D02*
D03*
Y5165D02*
D03*
Y4165D02*
D03*
Y3165D02*
D03*
D78*
X28465Y22835D02*
D03*
X3071D02*
D03*
X4173Y4528D02*
D03*
D79*
X30787Y7165D02*
D03*
D80*
X16239Y11464D02*
D03*
Y12186D02*
D03*
X16600Y11102D02*
D03*
Y11825D02*
D03*
Y12547D02*
D03*
X16962Y11464D02*
D03*
Y12186D02*
D03*
X17323Y11102D02*
D03*
Y11825D02*
D03*
Y12547D02*
D03*
X17684Y11464D02*
D03*
Y12186D02*
D03*
D81*
X787Y22835D02*
D03*
X30709Y787D02*
D03*
Y22835D02*
D03*
D82*
X787Y787D02*
D03*
D83*
X25000Y1772D02*
D03*
X27677D02*
D03*
M02*
