G04*
G04 #@! TF.GenerationSoftware,Altium Limited,Altium Designer,20.2.6 (244)*
G04*
G04 Layer_Color=255*
%FSLAX24Y24*%
%MOIN*%
G70*
G04*
G04 #@! TF.SameCoordinates,7583AB6C-3689-415F-B137-6D089145A127*
G04*
G04*
G04 #@! TF.FilePolarity,Positive*
G04*
G01*
G75*
%ADD87C,0.0256*%
%ADD88O,0.0827X0.0413*%
%ADD89O,0.0787X0.0394*%
%ADD90C,0.0630*%
%ADD91R,0.0630X0.0630*%
%ADD92R,0.0630X0.0630*%
%ADD93C,0.0118*%
%ADD94C,0.0600*%
%ADD95C,0.1181*%
%ADD96C,0.0374*%
D87*
X2399Y18960D02*
D03*
Y16684D02*
D03*
D88*
X2596Y16121D02*
D03*
Y19523D02*
D03*
D89*
X950Y16121D02*
D03*
Y19523D02*
D03*
D90*
X29465Y22835D02*
D03*
X2071D02*
D03*
X3173Y4528D02*
D03*
X30787Y6165D02*
D03*
Y5165D02*
D03*
Y4165D02*
D03*
Y3165D02*
D03*
D91*
X28465Y22835D02*
D03*
X3071D02*
D03*
X4173Y4528D02*
D03*
D92*
X30787Y7165D02*
D03*
D93*
X16239Y11464D02*
D03*
Y12186D02*
D03*
X16600Y11102D02*
D03*
Y11825D02*
D03*
Y12547D02*
D03*
X16962Y11464D02*
D03*
Y12186D02*
D03*
X17323Y11102D02*
D03*
Y11825D02*
D03*
Y12547D02*
D03*
X17684Y11464D02*
D03*
Y12186D02*
D03*
D94*
X787Y22835D02*
D03*
X30709Y787D02*
D03*
Y22835D02*
D03*
D95*
X787Y787D02*
D03*
D96*
X25000Y1772D02*
D03*
X27677D02*
D03*
M02*
