M48
;Layer_Color=9474304
;FILE_FORMAT=2:4
INCH,LZ
;TYPE=PLATED
T1F00S00C0.0079
T2F00S00C0.0157
T4F00S00C0.0433
T5F00S00C0.1181
;TYPE=NON_PLATED
T6F00S00C0.0256
T7F00S00C0.0374
%
T01
X016239Y011464
Y012186
X0166Y011825
X016962Y012186
X0166Y012547
X017323
Y011825
X017684Y012186
Y011464
X017323Y011102
X0166
X016962Y011464
T02
X007362Y001142
X006378Y00252
X005748Y003425
X010246Y003003
X010984Y00252
X011929Y001142
X016496
X015551Y002441
X014764Y003071
X01938Y002835
X020079Y00248
X021102Y001142
X004879Y005629
X004869Y005972
X004488Y005906
X004485Y006281
X004152Y006356
X003346Y007205
Y007598
X002047Y011968
X0021Y014972
X00265Y015222
X003465Y015512
X003307Y014528
X00415Y014922
X00475Y016522
Y016972
X005512Y016929
X00545Y017572
X0055Y018022
X003345Y017701
X003425Y01878
X002155Y01792
X000512Y014685
X00689Y015551
X008583Y015472
X009173Y014961
X008937Y014685
X009449
X009961
X010472
X010236Y014961
X009724
X010748
X011299Y014764
X011614Y014449
X011299Y012913
X011654Y01248
X011732Y012087
Y011693
X012244Y011102
X012008Y010787
Y010039
Y009685
X010748Y008898
X014685Y009567
X014961Y009331
X015246Y009134
X015551Y008937
X015472Y007087
X014882Y00685
X014409Y007244
X015984Y006732
X016417Y006535
X019449Y006782
X019173Y005748
X018976Y009055
X019449Y009724
X018386Y009646
X017992
X017441Y010197
X014094Y010709
X01374Y013189
X014331Y013976
X013898Y015591
X013386
X014961Y015906
X015394Y016181
X015906Y016811
X016417Y015748
X018071Y015551
X018465
X018937Y01374
X014478Y016585
X008465Y017323
X008937Y018543
X009213Y018937
X009449Y019173
X009724Y01937
X01Y019606
X010236Y019921
X007913Y014094
X00815Y013465
X008425Y013268
X007953Y01189
X006063Y007756
X005748Y007992
X005669Y00748
X005984Y007244
X00626Y006789
X006614Y006827
X026067Y006815
X026102Y00752
X026181Y008937
X024606Y009449
X02748Y009724
X027874Y007913
X030118Y008622
X030472Y008701
X029488Y011299
X03Y013543
X028622Y014094
X028661Y014567
X02499Y014843
X025157Y016496
X025551Y016772
X025197Y017717
X025188Y019519
X026102Y019764
X028425Y019567
X028386Y020079
X03Y019134
X023504Y01752
X023543Y015709
X023071Y01563
X026063Y020472
X019646Y021063
X015049
X010472
X007362Y020472
X007047Y020709
X005925Y021063
T04
X030787Y003165
Y004165
X004173Y004528
X003173
X030787Y005165
Y006165
Y007165
X029465Y022835
X028465
X003071
X002071
T05
X030709Y000787
X000787
X030709Y022835
X000787
T06
X002399Y016684
Y01896
T07
X025Y001772
X027677
M30
