G04*
G04 #@! TF.GenerationSoftware,Altium Limited,Altium Designer,20.2.6 (244)*
G04*
G04 Layer_Color=8421504*
%FSLAX24Y24*%
%MOIN*%
G70*
G04*
G04 #@! TF.SameCoordinates,7583AB6C-3689-415F-B137-6D089145A127*
G04*
G04*
G04 #@! TF.FilePolarity,Positive*
G04*
G01*
G75*
%ADD22R,0.0610X0.0118*%
%ADD23R,0.0610X0.0118*%
%ADD24O,0.0800X0.0217*%
%ADD25R,0.0591X0.0157*%
%ADD26R,0.0630X0.0315*%
%ADD27R,0.1181X0.0827*%
%ADD28R,0.0394X0.0354*%
%ADD29R,0.0600X0.0650*%
%ADD30R,0.0236X0.0354*%
%ADD31R,0.0827X0.0610*%
%ADD32R,0.0453X0.0118*%
%ADD33R,0.0453X0.0236*%
%ADD34O,0.0787X0.0217*%
%ADD35R,0.0500X0.0550*%
%ADD36R,0.0700X0.0800*%
G04:AMPARAMS|DCode=37|XSize=61.8mil|YSize=16.1mil|CornerRadius=2mil|HoleSize=0mil|Usage=FLASHONLY|Rotation=90.000|XOffset=0mil|YOffset=0mil|HoleType=Round|Shape=RoundedRectangle|*
%AMROUNDEDRECTD37*
21,1,0.0618,0.0121,0,0,90.0*
21,1,0.0578,0.0161,0,0,90.0*
1,1,0.0040,0.0061,0.0289*
1,1,0.0040,0.0061,-0.0289*
1,1,0.0040,-0.0061,-0.0289*
1,1,0.0040,-0.0061,0.0289*
%
%ADD37ROUNDEDRECTD37*%
%ADD38R,0.0354X0.0236*%
%ADD39R,0.0650X0.0600*%
%ADD40R,0.0354X0.0315*%
%ADD41R,0.0866X0.0709*%
%ADD42R,0.0315X0.0630*%
%ADD43R,0.0827X0.1181*%
%ADD44R,0.0524X0.0524*%
%ADD45R,0.0354X0.0787*%
%ADD46R,0.0787X0.0354*%
%ADD47R,0.0244X0.0551*%
%ADD48R,0.0433X0.0945*%
G36*
X2224Y5620D02*
Y5718D01*
X2736D01*
Y5620D01*
X2224D01*
D02*
G37*
G36*
X2224Y5226D02*
Y5324D01*
X2736D01*
Y5226D01*
X2224D01*
D02*
G37*
G36*
X2224Y5423D02*
Y5521D01*
X2736D01*
Y5423D01*
X2224D01*
D02*
G37*
G36*
X2224Y6211D02*
Y6309D01*
X2736D01*
Y6211D01*
X2224D01*
D02*
G37*
G36*
X2224Y6014D02*
Y6112D01*
X2736D01*
Y6014D01*
X2224D01*
D02*
G37*
G36*
X2224Y5817D02*
Y5915D01*
X2736D01*
Y5817D01*
X2224D01*
D02*
G37*
G36*
X2224Y6407D02*
Y6506D01*
X2736D01*
Y6407D01*
X2224D01*
D02*
G37*
G36*
X2224Y6604D02*
Y6703D01*
X2736D01*
Y6604D01*
X2224D01*
D02*
G37*
G36*
X2224Y6801D02*
Y6900D01*
X2736D01*
Y6801D01*
X2224D01*
D02*
G37*
G36*
X2224Y7392D02*
Y7492D01*
X2736D01*
Y7392D01*
X2224D01*
D02*
G37*
G36*
X2224Y7195D02*
Y7294D01*
X2736D01*
Y7195D01*
X2224D01*
D02*
G37*
G36*
X2224Y6998D02*
Y7097D01*
X2736D01*
Y6998D01*
X2224D01*
D02*
G37*
G36*
X2736Y10344D02*
X2224D01*
Y10442D01*
X2736D01*
Y10344D01*
D02*
G37*
G36*
Y10148D02*
X2224D01*
Y10246D01*
X2736D01*
Y10148D01*
D02*
G37*
G36*
Y9951D02*
X2224D01*
Y10048D01*
X2736D01*
Y9951D01*
D02*
G37*
G36*
X2224Y10935D02*
Y11033D01*
X2736D01*
Y10935D01*
X2224D01*
D02*
G37*
G36*
X2224Y10738D02*
Y10836D01*
X2736D01*
Y10738D01*
X2224D01*
D02*
G37*
G36*
X2224Y10541D02*
Y10640D01*
X2736D01*
Y10541D01*
X2224D01*
D02*
G37*
G36*
X2224Y11132D02*
Y11230D01*
X2736D01*
Y11132D01*
X2224D01*
D02*
G37*
G36*
X2224Y11329D02*
Y11428D01*
X2736D01*
Y11329D01*
X2224D01*
D02*
G37*
G36*
X2224Y11526D02*
Y11624D01*
X2736D01*
Y11526D01*
X2224D01*
D02*
G37*
G36*
X2224Y12116D02*
Y12217D01*
X2736D01*
Y12116D01*
X2224D01*
D02*
G37*
G36*
X2224Y11919D02*
Y12018D01*
X2736D01*
Y11919D01*
X2224D01*
D02*
G37*
G36*
X2224Y11722D02*
Y11821D01*
X2736D01*
Y11722D01*
X2224D01*
D02*
G37*
D22*
X26772Y8169D02*
D03*
X26772Y8681D02*
D03*
X26772Y9193D02*
D03*
X26772Y9705D02*
D03*
X28976Y8169D02*
D03*
X28976Y8681D02*
D03*
X28976Y9193D02*
D03*
X28976Y9705D02*
D03*
D23*
X26772Y8425D02*
D03*
X26772Y8937D02*
D03*
X26772Y9449D02*
D03*
X28976Y8425D02*
D03*
X28976Y8937D02*
D03*
X28976Y9449D02*
D03*
D24*
X23533Y23010D02*
D03*
Y22510D02*
D03*
Y22010D02*
D03*
Y21510D02*
D03*
Y21010D02*
D03*
Y20510D02*
D03*
Y20010D02*
D03*
Y19510D02*
D03*
X27254Y23010D02*
D03*
Y22510D02*
D03*
Y22010D02*
D03*
Y21510D02*
D03*
Y21010D02*
D03*
Y20510D02*
D03*
Y20010D02*
D03*
Y19510D02*
D03*
D25*
X24163Y18022D02*
D03*
Y17766D02*
D03*
Y15207D02*
D03*
Y15463D02*
D03*
Y15718D02*
D03*
Y15974D02*
D03*
Y16230D02*
D03*
Y16486D02*
D03*
Y16742D02*
D03*
Y16998D02*
D03*
Y17254D02*
D03*
Y17510D02*
D03*
X27018Y18022D02*
D03*
Y17766D02*
D03*
Y17510D02*
D03*
Y17254D02*
D03*
Y16998D02*
D03*
Y16742D02*
D03*
Y16486D02*
D03*
Y16230D02*
D03*
Y15974D02*
D03*
Y15718D02*
D03*
Y15463D02*
D03*
Y15207D02*
D03*
D26*
X29370Y20561D02*
D03*
Y20069D02*
D03*
Y19577D02*
D03*
Y19085D02*
D03*
Y18593D02*
D03*
Y18100D02*
D03*
Y15059D02*
D03*
Y14567D02*
D03*
Y14075D02*
D03*
Y13583D02*
D03*
Y13091D02*
D03*
Y12598D02*
D03*
D27*
X30512Y21565D02*
D03*
Y17096D02*
D03*
Y16063D02*
D03*
Y11594D02*
D03*
D28*
X28228Y17992D02*
D03*
Y18622D02*
D03*
Y12598D02*
D03*
Y13228D02*
D03*
X6100Y12592D02*
D03*
Y13222D02*
D03*
X5400Y12607D02*
D03*
Y13237D02*
D03*
D29*
X25009Y14173D02*
D03*
X26309D02*
D03*
X28504Y10748D02*
D03*
X27204D02*
D03*
X20797Y16496D02*
D03*
X19497D02*
D03*
D30*
X30487Y9124D02*
D03*
X29772Y9124D02*
D03*
X30487Y8179D02*
D03*
X29772Y8179D02*
D03*
X24950Y9488D02*
D03*
X25665Y9488D02*
D03*
X24950Y8661D02*
D03*
X25665Y8661D02*
D03*
X1115Y20272D02*
D03*
X400Y20272D02*
D03*
X7930Y17572D02*
D03*
X7215Y17572D02*
D03*
X9615Y16772D02*
D03*
X8900Y16772D02*
D03*
X9600Y16022D02*
D03*
X8885Y16022D02*
D03*
X7930Y15222D02*
D03*
X7215Y15222D02*
D03*
X1115Y15472D02*
D03*
X400Y15472D02*
D03*
X12018Y9173D02*
D03*
X11304Y9173D02*
D03*
X11289Y8346D02*
D03*
X12004Y8346D02*
D03*
D31*
X787Y21339D02*
D03*
X2520D02*
D03*
D32*
X2822Y18511D02*
D03*
Y18314D02*
D03*
Y18117D02*
D03*
Y17133D02*
D03*
Y17330D02*
D03*
Y17527D02*
D03*
Y17920D02*
D03*
Y17724D02*
D03*
D33*
Y16877D02*
D03*
Y18767D02*
D03*
Y16562D02*
D03*
Y19082D02*
D03*
D34*
X6276Y15522D02*
D03*
Y16022D02*
D03*
Y16522D02*
D03*
Y17022D02*
D03*
Y17522D02*
D03*
Y18022D02*
D03*
Y18522D02*
D03*
Y19022D02*
D03*
X4150Y15522D02*
D03*
Y16022D02*
D03*
Y16522D02*
D03*
Y17022D02*
D03*
Y17522D02*
D03*
Y18022D02*
D03*
Y18522D02*
D03*
Y19022D02*
D03*
D35*
X7300Y16822D02*
D03*
X8200D02*
D03*
X7300Y16022D02*
D03*
X8200D02*
D03*
D36*
X4950Y14322D02*
D03*
X6650D02*
D03*
D37*
X7923Y10484D02*
D03*
X8179D02*
D03*
X8435D02*
D03*
X8691D02*
D03*
X8947D02*
D03*
X9203D02*
D03*
X9459D02*
D03*
X9715D02*
D03*
X9970D02*
D03*
X10226D02*
D03*
X10482D02*
D03*
X10738D02*
D03*
Y12744D02*
D03*
X10482D02*
D03*
X10226D02*
D03*
X9970D02*
D03*
X9715D02*
D03*
X9459D02*
D03*
X9203D02*
D03*
X8947D02*
D03*
X8691D02*
D03*
X8435D02*
D03*
X8179D02*
D03*
X7923D02*
D03*
D38*
X7087Y11861D02*
D03*
X7087Y11146D02*
D03*
X2650Y14614D02*
D03*
X2650Y13899D02*
D03*
X2059Y13884D02*
D03*
X2059Y14599D02*
D03*
X18622Y5737D02*
D03*
X18622Y6452D02*
D03*
X17953Y5737D02*
D03*
X17953Y6452D02*
D03*
D39*
X6142Y11723D02*
D03*
Y10423D02*
D03*
D40*
X4094Y14496D02*
D03*
Y13748D02*
D03*
X3306Y14122D02*
D03*
X506Y14172D02*
D03*
X1294Y13798D02*
D03*
Y14546D02*
D03*
D41*
X1201Y9252D02*
D03*
Y12913D02*
D03*
Y4528D02*
D03*
Y8189D02*
D03*
D42*
X19616Y1870D02*
D03*
X20108D02*
D03*
X20600D02*
D03*
X21093D02*
D03*
X15049D02*
D03*
X15541D02*
D03*
X16033D02*
D03*
X16526D02*
D03*
X10482D02*
D03*
X10974D02*
D03*
X11467D02*
D03*
X11959D02*
D03*
X5915D02*
D03*
X6407D02*
D03*
X6900D02*
D03*
X7392D02*
D03*
X21093Y21752D02*
D03*
X20600D02*
D03*
X20108D02*
D03*
X19616D02*
D03*
X16526D02*
D03*
X16033D02*
D03*
X15541D02*
D03*
X15049D02*
D03*
X11959D02*
D03*
X11467D02*
D03*
X10974D02*
D03*
X10482D02*
D03*
X7392D02*
D03*
X6900D02*
D03*
X6407D02*
D03*
X5915D02*
D03*
D43*
X18612Y728D02*
D03*
X22096D02*
D03*
X14045D02*
D03*
X17530D02*
D03*
X9478D02*
D03*
X12963D02*
D03*
X4911D02*
D03*
X8396D02*
D03*
X22096Y22894D02*
D03*
X18612D02*
D03*
X17530D02*
D03*
X14045D02*
D03*
X12963D02*
D03*
X9478D02*
D03*
X8396D02*
D03*
X4911D02*
D03*
D44*
X16239Y11102D02*
D03*
Y11825D02*
D03*
Y12547D02*
D03*
X16962Y11102D02*
D03*
Y11825D02*
D03*
Y12547D02*
D03*
X17684Y11102D02*
D03*
Y11825D02*
D03*
Y12547D02*
D03*
D45*
X19914Y8085D02*
D03*
X19414D02*
D03*
X18914D02*
D03*
X18414D02*
D03*
X17914D02*
D03*
X17414D02*
D03*
X16914D02*
D03*
X16414D02*
D03*
X15914D02*
D03*
X15414D02*
D03*
X14914D02*
D03*
X14414D02*
D03*
X13914D02*
D03*
X13414D02*
D03*
Y14778D02*
D03*
X13914D02*
D03*
X14414D02*
D03*
X14914D02*
D03*
X15414D02*
D03*
X15914D02*
D03*
X16414D02*
D03*
X16914D02*
D03*
X17414D02*
D03*
X17914D02*
D03*
X18414D02*
D03*
X18914D02*
D03*
X19414D02*
D03*
X19914D02*
D03*
D46*
X13021Y9181D02*
D03*
Y9681D02*
D03*
Y10181D02*
D03*
Y10681D02*
D03*
Y11181D02*
D03*
Y11681D02*
D03*
Y12181D02*
D03*
Y12681D02*
D03*
Y13181D02*
D03*
Y13681D02*
D03*
D47*
X27354Y6268D02*
D03*
X26921D02*
D03*
X26488D02*
D03*
X26055D02*
D03*
X25622D02*
D03*
X25189D02*
D03*
X24756D02*
D03*
X24323D02*
D03*
X23890D02*
D03*
D48*
X23346Y1937D02*
D03*
Y5480D02*
D03*
X29705D02*
D03*
Y1937D02*
D03*
M02*
