G04*
G04 #@! TF.GenerationSoftware,Altium Limited,Altium Designer,20.2.6 (244)*
G04*
G04 Layer_Physical_Order=1*
G04 Layer_Color=255*
%FSLAX24Y24*%
%MOIN*%
G70*
G04*
G04 #@! TF.SameCoordinates,7583AB6C-3689-415F-B137-6D089145A127*
G04*
G04*
G04 #@! TF.FilePolarity,Positive*
G04*
G01*
G75*
%ADD13C,0.0079*%
%ADD15C,0.0118*%
%ADD17C,0.0100*%
%ADD24O,0.0800X0.0217*%
%ADD25R,0.0591X0.0157*%
%ADD26R,0.0630X0.0315*%
%ADD27R,0.1181X0.0827*%
%ADD28R,0.0394X0.0354*%
%ADD29R,0.0600X0.0650*%
%ADD30R,0.0236X0.0354*%
%ADD31R,0.0827X0.0610*%
%ADD32R,0.0453X0.0118*%
%ADD33R,0.0453X0.0236*%
%ADD34O,0.0787X0.0217*%
%ADD35R,0.0500X0.0550*%
%ADD36R,0.0700X0.0800*%
G04:AMPARAMS|DCode=37|XSize=61.8mil|YSize=16.1mil|CornerRadius=2mil|HoleSize=0mil|Usage=FLASHONLY|Rotation=90.000|XOffset=0mil|YOffset=0mil|HoleType=Round|Shape=RoundedRectangle|*
%AMROUNDEDRECTD37*
21,1,0.0618,0.0121,0,0,90.0*
21,1,0.0578,0.0161,0,0,90.0*
1,1,0.0040,0.0061,0.0289*
1,1,0.0040,0.0061,-0.0289*
1,1,0.0040,-0.0061,-0.0289*
1,1,0.0040,-0.0061,0.0289*
%
%ADD37ROUNDEDRECTD37*%
%ADD38R,0.0354X0.0236*%
%ADD39R,0.0650X0.0600*%
%ADD40R,0.0354X0.0315*%
%ADD41R,0.0866X0.0709*%
%ADD42R,0.0315X0.0630*%
%ADD43R,0.0827X0.1181*%
%ADD44R,0.0524X0.0524*%
%ADD45R,0.0354X0.0787*%
%ADD46R,0.0787X0.0354*%
%ADD47R,0.0244X0.0551*%
%ADD48R,0.0433X0.0945*%
%ADD53R,0.0630X0.0138*%
%ADD84R,0.0512X0.0118*%
%ADD85C,0.0157*%
%ADD86C,0.0197*%
%ADD87C,0.0256*%
%ADD88O,0.0827X0.0413*%
%ADD89O,0.0787X0.0394*%
%ADD90C,0.0630*%
%ADD91R,0.0630X0.0630*%
%ADD92R,0.0630X0.0630*%
%ADD93C,0.0118*%
%ADD94C,0.0600*%
%ADD95C,0.1181*%
%ADD96C,0.0374*%
%ADD97C,0.0236*%
G36*
X30360Y23445D02*
X30362Y23412D01*
X30231Y23312D01*
X30124Y23172D01*
X30057Y23009D01*
X30034Y22835D01*
X30057Y22660D01*
X30124Y22497D01*
X30231Y22357D01*
X30371Y22250D01*
X30534Y22183D01*
X30709Y22160D01*
X30883Y22183D01*
X31046Y22250D01*
X31186Y22357D01*
X31286Y22488D01*
X31319Y22486D01*
X31365Y22466D01*
X31365Y1156D01*
X31319Y1136D01*
X31286Y1134D01*
X31186Y1265D01*
X31046Y1372D01*
X30883Y1439D01*
X30709Y1462D01*
X30534Y1439D01*
X30371Y1372D01*
X30231Y1265D01*
X30124Y1125D01*
X30057Y962D01*
X30034Y787D01*
X30057Y613D01*
X30124Y450D01*
X30231Y310D01*
X30362Y210D01*
X30360Y177D01*
X30340Y131D01*
X22589D01*
Y1398D01*
X21604D01*
Y131D01*
X19104D01*
Y1398D01*
X18120D01*
Y131D01*
X18022D01*
Y1398D01*
X17037D01*
Y131D01*
X14537D01*
Y1398D01*
X13553D01*
Y131D01*
X13455D01*
Y1398D01*
X12470D01*
Y131D01*
X9970D01*
Y1398D01*
X8986D01*
Y131D01*
X8888D01*
Y1398D01*
X7904D01*
Y131D01*
X5404D01*
Y1398D01*
X4419D01*
Y131D01*
X1156D01*
X1136Y177D01*
X1134Y210D01*
X1265Y310D01*
X1372Y450D01*
X1439Y613D01*
X1462Y787D01*
X1439Y962D01*
X1372Y1125D01*
X1265Y1265D01*
X1125Y1372D01*
X962Y1439D01*
X787Y1462D01*
X613Y1439D01*
X450Y1372D01*
X310Y1265D01*
X210Y1134D01*
X177Y1136D01*
X131Y1156D01*
Y1647D01*
X4488D01*
X4548Y1672D01*
X4573Y1732D01*
Y3937D01*
X4548Y3997D01*
X4488Y4022D01*
X1728D01*
X1713Y4094D01*
X1713Y4101D01*
Y4961D01*
X689D01*
Y4101D01*
X689Y4094D01*
X673Y4022D01*
X131D01*
Y22466D01*
X177Y22486D01*
X210Y22488D01*
X310Y22357D01*
X450Y22250D01*
X613Y22183D01*
X787Y22160D01*
X962Y22183D01*
X1125Y22250D01*
X1265Y22357D01*
X1372Y22497D01*
X1439Y22660D01*
X1462Y22835D01*
X1439Y23009D01*
X1372Y23172D01*
X1265Y23312D01*
X1134Y23412D01*
X1136Y23445D01*
X1156Y23491D01*
X4419D01*
Y22224D01*
X5404D01*
Y23491D01*
X7904D01*
Y22224D01*
X8888D01*
Y23491D01*
X8986D01*
Y22224D01*
X9970D01*
Y23491D01*
X12470D01*
Y22224D01*
X13455D01*
Y23491D01*
X13553D01*
Y22224D01*
X14537D01*
Y23491D01*
X17037D01*
Y22224D01*
X18022D01*
Y23491D01*
X18120D01*
Y22224D01*
X19104D01*
Y23491D01*
X21604D01*
Y22224D01*
X22589D01*
Y23491D01*
X30340D01*
X30360Y23445D01*
D02*
G37*
%LPC*%
G36*
X29465Y23220D02*
X29317Y23191D01*
X29192Y23107D01*
X29131Y23015D01*
X28843D01*
Y23213D01*
X28087D01*
Y22457D01*
X28843D01*
Y22654D01*
X29131D01*
X29192Y22562D01*
X29317Y22479D01*
X29465Y22449D01*
X29612Y22479D01*
X29737Y22562D01*
X29821Y22687D01*
X29850Y22835D01*
X29821Y22982D01*
X29737Y23107D01*
X29612Y23191D01*
X29465Y23220D01*
D02*
G37*
G36*
X23825Y23201D02*
X23242D01*
X23169Y23186D01*
X23107Y23145D01*
X23066Y23083D01*
X23051Y23010D01*
X23066Y22937D01*
X23107Y22875D01*
X23169Y22834D01*
X23242Y22819D01*
X23825D01*
X23898Y22834D01*
X23960Y22875D01*
X24001Y22937D01*
X24016Y23010D01*
X24001Y23083D01*
X23960Y23145D01*
X23898Y23186D01*
X23825Y23201D01*
D02*
G37*
G36*
X27546Y22701D02*
X26962D01*
X26889Y22686D01*
X26827Y22645D01*
X26800Y22604D01*
X26735D01*
X26735Y22604D01*
X26689Y22595D01*
X26650Y22569D01*
X26650Y22569D01*
X25427Y21345D01*
X25401Y21306D01*
X25391Y21260D01*
X25391Y21260D01*
Y19707D01*
X25373Y19693D01*
X25313Y19672D01*
X25265Y19704D01*
X25188Y19719D01*
X25111Y19704D01*
X25091Y19690D01*
X23876D01*
X23825Y19701D01*
X23242D01*
X23191Y19690D01*
X20691D01*
X20622Y19677D01*
X20563Y19638D01*
X19282Y18356D01*
X19243Y18297D01*
X19229Y18228D01*
Y16900D01*
X19119D01*
Y16092D01*
X19234D01*
Y15250D01*
X16538D01*
Y15592D01*
X16559Y15606D01*
X16603Y15671D01*
X16618Y15748D01*
X16603Y15825D01*
X16559Y15890D01*
X16494Y15933D01*
X16417Y15949D01*
X16341Y15933D01*
X16275Y15890D01*
X16232Y15825D01*
X16217Y15748D01*
X16232Y15671D01*
X16275Y15606D01*
X16297Y15592D01*
Y15250D01*
X16026D01*
Y16655D01*
X16047Y16669D01*
X16091Y16734D01*
X16106Y16811D01*
X16091Y16888D01*
X16047Y16953D01*
X15982Y16996D01*
X15906Y17012D01*
X15829Y16996D01*
X15764Y16953D01*
X15720Y16888D01*
X15705Y16811D01*
X15720Y16734D01*
X15764Y16669D01*
X15785Y16655D01*
Y15250D01*
X15514D01*
Y16025D01*
X15536Y16039D01*
X15579Y16104D01*
X15594Y16181D01*
X15579Y16258D01*
X15536Y16323D01*
X15471Y16367D01*
X15394Y16382D01*
X15317Y16367D01*
X15252Y16323D01*
X15208Y16258D01*
X15193Y16181D01*
X15208Y16104D01*
X15252Y16039D01*
X15273Y16025D01*
Y15250D01*
X15081D01*
Y15749D01*
X15103Y15764D01*
X15146Y15829D01*
X15161Y15906D01*
X15146Y15982D01*
X15103Y16047D01*
X15037Y16091D01*
X14961Y16106D01*
X14884Y16091D01*
X14819Y16047D01*
X14775Y15982D01*
X14760Y15906D01*
X14775Y15829D01*
X14819Y15764D01*
X14840Y15749D01*
Y15250D01*
X14599D01*
Y16428D01*
X14620Y16443D01*
X14664Y16508D01*
X14679Y16585D01*
X14664Y16661D01*
X14620Y16727D01*
X14555Y16770D01*
X14478Y16785D01*
X14402Y16770D01*
X14336Y16727D01*
X14293Y16661D01*
X14278Y16585D01*
X14293Y16508D01*
X14336Y16443D01*
X14358Y16428D01*
Y15250D01*
X14035D01*
Y15445D01*
X14040Y15449D01*
X14083Y15514D01*
X14098Y15591D01*
X14083Y15667D01*
X14040Y15732D01*
X13974Y15776D01*
X13898Y15791D01*
X13821Y15776D01*
X13756Y15732D01*
X13712Y15667D01*
X13697Y15591D01*
X13712Y15514D01*
X13756Y15449D01*
X13794Y15423D01*
Y15250D01*
X13506D01*
Y15434D01*
X13528Y15449D01*
X13571Y15514D01*
X13587Y15591D01*
X13571Y15667D01*
X13528Y15732D01*
X13463Y15776D01*
X13386Y15791D01*
X13309Y15776D01*
X13244Y15732D01*
X13200Y15667D01*
X13185Y15591D01*
X13200Y15514D01*
X13244Y15449D01*
X13265Y15434D01*
Y15250D01*
X13158D01*
Y14305D01*
X16794D01*
Y14052D01*
X16761Y14019D01*
X15658D01*
X15612Y14010D01*
X15573Y13984D01*
X15573Y13984D01*
X14797Y13208D01*
X14771Y13169D01*
X14761Y13123D01*
X14761Y13123D01*
Y9816D01*
X14703Y9764D01*
X14685Y9768D01*
X14608Y9752D01*
X14543Y9709D01*
X14530Y9689D01*
X14451Y9713D01*
Y13820D01*
X14473Y13834D01*
X14516Y13900D01*
X14531Y13976D01*
X14516Y14053D01*
X14473Y14118D01*
X14408Y14162D01*
X14331Y14177D01*
X14254Y14162D01*
X14189Y14118D01*
X14145Y14053D01*
X14130Y13976D01*
X14145Y13900D01*
X14189Y13834D01*
X14210Y13820D01*
Y10956D01*
X14132Y10902D01*
X14094Y10909D01*
X14018Y10894D01*
X13953Y10851D01*
X13909Y10785D01*
X13894Y10709D01*
X13909Y10632D01*
X13953Y10567D01*
X13974Y10552D01*
Y9420D01*
X13566Y9012D01*
X13493Y9042D01*
Y9425D01*
Y9925D01*
Y10425D01*
Y10925D01*
Y11425D01*
Y11925D01*
Y12425D01*
Y12925D01*
Y13061D01*
X13589D01*
X13598Y13047D01*
X13663Y13004D01*
X13740Y12988D01*
X13817Y13004D01*
X13882Y13047D01*
X13926Y13112D01*
X13941Y13189D01*
X13926Y13266D01*
X13882Y13331D01*
X13817Y13374D01*
X13740Y13390D01*
X13663Y13374D01*
X13598Y13331D01*
X13579Y13302D01*
X13493D01*
Y13437D01*
X12548D01*
Y12925D01*
Y12425D01*
Y11925D01*
Y11425D01*
Y10925D01*
Y10425D01*
Y9896D01*
X12469Y9866D01*
X12240Y10095D01*
X12201Y10121D01*
X12188Y10124D01*
X12150Y10181D01*
X12085Y10225D01*
X12008Y10240D01*
X11931Y10225D01*
X11866Y10181D01*
X11822Y10116D01*
X11807Y10039D01*
X11822Y9963D01*
X11855Y9914D01*
X11861Y9862D01*
X11855Y9810D01*
X11822Y9762D01*
X11807Y9685D01*
X11822Y9608D01*
X11866Y9543D01*
X11887Y9529D01*
Y9429D01*
X11822D01*
Y8917D01*
X12215D01*
Y9061D01*
X12548D01*
Y8925D01*
X13376D01*
X13407Y8852D01*
X13301Y8747D01*
X13275Y8708D01*
X13265Y8661D01*
X13265Y8661D01*
Y8557D01*
X13158D01*
Y8467D01*
X12200D01*
Y8602D01*
X11807D01*
X11807Y8150D01*
Y8148D01*
Y8148D01*
X11807Y8136D01*
X11787Y8128D01*
X11728Y8103D01*
X11486Y8346D01*
Y8602D01*
X11347D01*
X10932Y9018D01*
X10873Y9057D01*
X10860Y9060D01*
X10825Y9083D01*
X10748Y9098D01*
X10681Y9085D01*
X10657Y9093D01*
X10603Y9132D01*
Y10116D01*
X10614Y10124D01*
X10636Y10157D01*
X10644Y10195D01*
Y10773D01*
X10636Y10812D01*
X10614Y10844D01*
X10581Y10866D01*
X10543Y10874D01*
X10422D01*
X10383Y10866D01*
X10354Y10847D01*
X10326Y10866D01*
X10287Y10874D01*
X10166D01*
X10127Y10866D01*
X10098Y10847D01*
X10070Y10866D01*
X10031Y10874D01*
X9910D01*
X9871Y10866D01*
X9843Y10847D01*
X9814Y10866D01*
X9775Y10874D01*
X9654D01*
X9615Y10866D01*
X9587Y10847D01*
X9558Y10866D01*
X9519Y10874D01*
X9398D01*
X9360Y10866D01*
X9331Y10847D01*
X9302Y10866D01*
X9263Y10874D01*
X9142D01*
X9104Y10866D01*
X9075Y10847D01*
X9046Y10866D01*
X9007Y10874D01*
X8886D01*
X8848Y10866D01*
X8819Y10847D01*
X8790Y10866D01*
X8751Y10874D01*
X8630D01*
X8559Y10927D01*
X8555Y10933D01*
Y11053D01*
X8555Y11053D01*
X8546Y11099D01*
X8520Y11138D01*
X8427Y11231D01*
X8388Y11257D01*
X8342Y11266D01*
X8342Y11266D01*
X7343D01*
Y11343D01*
X6831D01*
Y10949D01*
X7343D01*
Y11026D01*
X8292D01*
X8315Y11003D01*
Y10852D01*
X8303Y10844D01*
X8281Y10812D01*
X8274Y10773D01*
Y10195D01*
X8281Y10157D01*
X8303Y10124D01*
X8336Y10102D01*
X8375Y10095D01*
X8496D01*
X8567Y10042D01*
X8571Y10035D01*
Y7546D01*
X5702Y4678D01*
X5676Y4639D01*
X5667Y4593D01*
X5667Y4593D01*
Y3608D01*
X5606Y3567D01*
X5563Y3502D01*
X5547Y3425D01*
X5563Y3348D01*
X5606Y3283D01*
X5671Y3240D01*
X5748Y3224D01*
X5785Y3232D01*
X5864Y3178D01*
Y2264D01*
X5679D01*
Y1476D01*
X6093D01*
X6152Y1476D01*
X6230Y1476D01*
X6644D01*
Y2264D01*
X6498D01*
Y2363D01*
X6520Y2378D01*
X6563Y2443D01*
X6579Y2520D01*
X6563Y2596D01*
X6520Y2662D01*
X6455Y2705D01*
X6378Y2720D01*
X6301Y2705D01*
X6236Y2662D01*
X6193Y2596D01*
X6186Y2564D01*
X6183Y2551D01*
X6105Y2558D01*
X6105Y2560D01*
Y4517D01*
X9004Y7416D01*
X9082Y7383D01*
Y4144D01*
X9082Y4144D01*
X9092Y4098D01*
X9118Y4059D01*
X10075Y3101D01*
X10061Y3079D01*
X10045Y3003D01*
X10061Y2926D01*
X10104Y2861D01*
X10169Y2817D01*
X10246Y2802D01*
X10283Y2809D01*
X10362Y2756D01*
Y2264D01*
X10246D01*
Y1476D01*
X10659D01*
X10718Y1476D01*
X10797Y1476D01*
X11211D01*
Y2264D01*
X11105D01*
Y2363D01*
X11126Y2378D01*
X11170Y2443D01*
X11185Y2520D01*
X11170Y2596D01*
X11126Y2662D01*
X11061Y2705D01*
X10984Y2720D01*
X10907Y2705D01*
X10842Y2662D01*
X10799Y2596D01*
X10784Y2520D01*
X10799Y2443D01*
X10842Y2378D01*
X10839Y2294D01*
X10808Y2264D01*
X10738Y2264D01*
X10658Y2264D01*
X10603Y2319D01*
Y3100D01*
X10594Y3146D01*
X10567Y3186D01*
X9579Y4174D01*
Y7974D01*
X9658Y8007D01*
X14568Y3096D01*
X14563Y3071D01*
X14578Y2994D01*
X14622Y2929D01*
X14687Y2885D01*
X14764Y2870D01*
X14841Y2885D01*
X14850Y2892D01*
X14929Y2850D01*
Y2264D01*
X14813D01*
Y1476D01*
X15226D01*
X15285Y1476D01*
X15364Y1476D01*
X15778D01*
Y2264D01*
X15764D01*
X15722Y2343D01*
X15737Y2364D01*
X15752Y2441D01*
X15737Y2518D01*
X15693Y2583D01*
X15628Y2626D01*
X15551Y2642D01*
X15474Y2626D01*
X15409Y2583D01*
X15366Y2518D01*
X15350Y2441D01*
X15366Y2364D01*
X15380Y2343D01*
X15338Y2264D01*
X15225Y2264D01*
X15170Y2319D01*
Y3140D01*
X15170Y3140D01*
X15160Y3186D01*
X15134Y3225D01*
X10091Y8268D01*
Y8460D01*
X10170Y8492D01*
X15519Y3143D01*
X15519Y3143D01*
X15558Y3117D01*
X15604Y3108D01*
X15604Y3108D01*
X18936D01*
X19184Y2860D01*
X19179Y2835D01*
X19194Y2758D01*
X19238Y2693D01*
X19303Y2649D01*
X19380Y2634D01*
X19417Y2641D01*
X19496Y2588D01*
Y2264D01*
X19380D01*
Y1476D01*
X19793D01*
X19852Y1476D01*
X19931Y1476D01*
X20344D01*
Y2264D01*
X20251D01*
X20228Y2320D01*
X20223Y2343D01*
X20264Y2404D01*
X20279Y2480D01*
X20264Y2557D01*
X20221Y2622D01*
X20156Y2666D01*
X20079Y2681D01*
X20002Y2666D01*
X19937Y2622D01*
X19893Y2557D01*
X19878Y2480D01*
X19893Y2404D01*
X19934Y2343D01*
X19929Y2320D01*
X19907Y2264D01*
X19792Y2264D01*
X19737Y2319D01*
Y2943D01*
X19737Y2943D01*
X19727Y2989D01*
X19701Y3028D01*
X19258Y3471D01*
X19219Y3497D01*
X19173Y3506D01*
X19173Y3506D01*
X15719D01*
X13699Y5526D01*
X13749Y5588D01*
X13759Y5581D01*
X13828Y5567D01*
X17697D01*
Y5541D01*
X18209D01*
Y5567D01*
X18366D01*
Y5541D01*
X18878D01*
Y5562D01*
X19099D01*
X19173Y5547D01*
X19250Y5563D01*
X19315Y5606D01*
X19359Y5671D01*
X19374Y5748D01*
X19359Y5825D01*
X19315Y5890D01*
X19250Y5933D01*
X19173Y5949D01*
X19096Y5933D01*
X19081Y5923D01*
X18878D01*
Y5934D01*
X18366D01*
Y5929D01*
X18209D01*
Y5934D01*
X17697D01*
Y5929D01*
X13903D01*
X11820Y8012D01*
X11852Y8091D01*
X11864Y8091D01*
X11864Y8091D01*
X11867Y8091D01*
X12200D01*
Y8226D01*
X13158D01*
Y7612D01*
X14289D01*
Y7400D01*
X14268Y7386D01*
X14224Y7321D01*
X14209Y7244D01*
X14224Y7167D01*
X14268Y7102D01*
X14333Y7059D01*
X14409Y7043D01*
X14486Y7059D01*
X14551Y7102D01*
X14595Y7167D01*
X14610Y7244D01*
X14595Y7321D01*
X14551Y7386D01*
X14530Y7400D01*
Y7612D01*
X14794D01*
Y7028D01*
X14740Y6992D01*
X14696Y6927D01*
X14681Y6850D01*
X14696Y6774D01*
X14740Y6708D01*
X14805Y6665D01*
X14882Y6650D01*
X14959Y6665D01*
X15024Y6708D01*
X15067Y6774D01*
X15083Y6850D01*
X15067Y6927D01*
X15035Y6976D01*
Y7612D01*
X15341D01*
Y7236D01*
X15331Y7229D01*
X15287Y7163D01*
X15272Y7087D01*
X15287Y7010D01*
X15331Y6945D01*
X15396Y6901D01*
X15472Y6886D01*
X15549Y6901D01*
X15614Y6945D01*
X15658Y7010D01*
X15673Y7087D01*
X15658Y7163D01*
X15614Y7229D01*
X15604Y7236D01*
Y7612D01*
X15853D01*
Y6881D01*
X15842Y6874D01*
X15799Y6809D01*
X15784Y6732D01*
X15799Y6655D01*
X15842Y6590D01*
X15907Y6547D01*
X15984Y6532D01*
X16061Y6547D01*
X16126Y6590D01*
X16165Y6648D01*
X16232Y6612D01*
X16217Y6535D01*
X16232Y6459D01*
X16275Y6394D01*
X16341Y6350D01*
X16417Y6335D01*
X16494Y6350D01*
X16559Y6394D01*
X16603Y6459D01*
X16618Y6535D01*
X16603Y6612D01*
X16559Y6677D01*
X16549Y6684D01*
Y7612D01*
X17294D01*
Y7349D01*
X17294Y7349D01*
X17303Y7303D01*
X17329Y7264D01*
X17832Y6761D01*
Y6649D01*
X17697D01*
Y6256D01*
X18209D01*
Y6649D01*
X18073D01*
Y6811D01*
X18073Y6811D01*
X18064Y6857D01*
X18038Y6896D01*
X18038Y6896D01*
X17535Y7399D01*
Y7612D01*
X18794D01*
Y7350D01*
X18537Y7093D01*
X18511Y7054D01*
X18502Y7008D01*
X18502Y7008D01*
Y6649D01*
X18366D01*
Y6256D01*
X18878D01*
Y6649D01*
X18742D01*
Y6958D01*
X19000Y7215D01*
X19026Y7254D01*
X19035Y7300D01*
Y7612D01*
X19318D01*
Y6931D01*
X19307Y6924D01*
X19263Y6859D01*
X19248Y6782D01*
X19263Y6705D01*
X19307Y6640D01*
X19372Y6597D01*
X19449Y6582D01*
X19526Y6597D01*
X19591Y6640D01*
X19634Y6705D01*
X19650Y6782D01*
X19634Y6859D01*
X19591Y6924D01*
X19580Y6931D01*
Y7612D01*
X19670D01*
Y8557D01*
X19097D01*
Y8899D01*
X19118Y8913D01*
X19162Y8978D01*
X19177Y9055D01*
X19162Y9132D01*
X19118Y9197D01*
X19053Y9241D01*
X18976Y9256D01*
X18900Y9241D01*
X18834Y9197D01*
X18791Y9132D01*
X18776Y9055D01*
X18791Y8978D01*
X18834Y8913D01*
X18856Y8899D01*
Y8557D01*
X18506D01*
Y9489D01*
X18528Y9504D01*
X18565Y9559D01*
X18588Y9572D01*
X18655Y9587D01*
X18674Y9574D01*
X18720Y9565D01*
X19324D01*
X19324Y9565D01*
X19331Y9566D01*
X19372Y9539D01*
X19449Y9524D01*
X19526Y9539D01*
X19591Y9582D01*
X19634Y9648D01*
X19650Y9724D01*
X19634Y9801D01*
X19591Y9866D01*
X19526Y9910D01*
X19449Y9925D01*
X19372Y9910D01*
X19307Y9866D01*
X19266Y9805D01*
X18770D01*
X18294Y10282D01*
X18255Y10308D01*
X18209Y10317D01*
X18209Y10317D01*
X17597D01*
X17583Y10339D01*
X17518Y10382D01*
X17441Y10398D01*
X17364Y10382D01*
X17299Y10339D01*
X17256Y10274D01*
X17240Y10197D01*
X17256Y10120D01*
X17299Y10055D01*
X17321Y10041D01*
Y8557D01*
X14035D01*
Y8786D01*
X14416Y9167D01*
X14442Y9206D01*
X14451Y9252D01*
X14451Y9252D01*
Y9421D01*
X14530Y9445D01*
X14543Y9425D01*
X14608Y9381D01*
X14685Y9366D01*
X14687Y9367D01*
X14760Y9331D01*
X14775Y9254D01*
X14819Y9189D01*
X14884Y9145D01*
X14961Y9130D01*
X14971Y9132D01*
X15041Y9134D01*
X15057Y9075D01*
X15060Y9057D01*
X15104Y8992D01*
X15169Y8948D01*
X15246Y8933D01*
X15276Y8939D01*
X15329Y8938D01*
X15361Y8882D01*
X15366Y8860D01*
X15409Y8795D01*
X15474Y8752D01*
X15551Y8736D01*
X15628Y8752D01*
X15693Y8795D01*
X15737Y8860D01*
X15752Y8937D01*
X15737Y9014D01*
X15693Y9079D01*
X15672Y9093D01*
Y9331D01*
X15672Y9331D01*
X15662Y9377D01*
X15636Y9416D01*
X15475Y9577D01*
Y12877D01*
X15903Y13305D01*
X17913D01*
X17913Y13305D01*
X17959Y13314D01*
X17999Y13340D01*
X18500Y13841D01*
X18500Y13841D01*
X18526Y13880D01*
X18535Y13926D01*
Y14305D01*
X18817D01*
Y13896D01*
X18795Y13882D01*
X18752Y13817D01*
X18736Y13740D01*
X18752Y13663D01*
X18795Y13598D01*
X18860Y13555D01*
X18937Y13539D01*
X19014Y13555D01*
X19079Y13598D01*
X19122Y13663D01*
X19138Y13740D01*
X19122Y13817D01*
X19079Y13882D01*
X19057Y13896D01*
Y14305D01*
X19670D01*
Y15250D01*
X19595D01*
Y16092D01*
X19876D01*
Y16900D01*
X19590D01*
Y18154D01*
X20766Y19329D01*
X23191D01*
X23242Y19319D01*
X23825D01*
X23876Y19329D01*
X25016D01*
Y17801D01*
X25011Y17793D01*
X24996Y17717D01*
X25011Y17640D01*
X25055Y17575D01*
X25110Y17538D01*
X25124Y17501D01*
X25132Y17448D01*
X25058Y17374D01*
X24537D01*
Y17864D01*
Y18179D01*
X24179D01*
X24163Y18182D01*
X23163D01*
X23102Y18170D01*
X23050Y18135D01*
X23050Y18135D01*
X22957Y18043D01*
X22923Y17991D01*
X22910Y17929D01*
X22910Y17929D01*
Y16230D01*
Y15744D01*
X22885Y15707D01*
X22870Y15630D01*
X22885Y15553D01*
X22929Y15488D01*
X22994Y15444D01*
X23071Y15429D01*
X23148Y15444D01*
X23213Y15488D01*
X23256Y15553D01*
X23272Y15630D01*
X23256Y15707D01*
X23231Y15744D01*
Y16070D01*
X23789D01*
Y15836D01*
X23736Y15814D01*
X23711Y15813D01*
X23685Y15851D01*
X23620Y15894D01*
X23543Y15909D01*
X23466Y15894D01*
X23401Y15851D01*
X23358Y15785D01*
X23343Y15709D01*
X23358Y15632D01*
X23401Y15567D01*
X23466Y15523D01*
X23543Y15508D01*
X23602Y15520D01*
X23744Y15377D01*
X23744Y15377D01*
X23783Y15351D01*
X23789Y15350D01*
Y15049D01*
X24080D01*
X24094Y15040D01*
X24163Y15026D01*
X24800D01*
X24810Y15017D01*
Y14927D01*
X24805Y14919D01*
X24789Y14843D01*
X24805Y14766D01*
X24810Y14759D01*
Y14577D01*
X24631D01*
Y13769D01*
X25388D01*
Y14577D01*
X25171D01*
Y14759D01*
X25176Y14766D01*
X25191Y14843D01*
X25176Y14919D01*
X25171Y14927D01*
Y15091D01*
X25157Y15161D01*
X25118Y15219D01*
X25003Y15334D01*
X24944Y15374D01*
X24875Y15387D01*
X24537D01*
Y15598D01*
X25114D01*
X25114Y15598D01*
X25161Y15607D01*
X25200Y15633D01*
X26069Y16503D01*
X26096Y16542D01*
X26098Y16553D01*
X26178Y16585D01*
X26182Y16584D01*
X26220Y16568D01*
X26529D01*
X26608Y16568D01*
Y16142D01*
X26633Y16081D01*
X26644Y16077D01*
Y16073D01*
X26693Y16056D01*
X26716Y16056D01*
X27946Y16056D01*
Y12992D01*
X27953Y12972D01*
X27931Y12903D01*
X27920Y12881D01*
X27841D01*
X27841Y15551D01*
X27816Y15611D01*
X27756Y15636D01*
X26693Y15636D01*
X26653Y15620D01*
X26644D01*
Y15616D01*
X26633Y15611D01*
X26608Y15551D01*
X26608Y15039D01*
X26633Y14979D01*
X26693Y14954D01*
X27434Y14954D01*
Y12559D01*
X27459Y12499D01*
X27617Y12341D01*
X27677Y12316D01*
X29724D01*
X29785Y12341D01*
X29810Y12402D01*
Y12795D01*
X29785Y12854D01*
X29810Y12913D01*
Y13268D01*
X29803Y13284D01*
X29843Y13367D01*
X29891Y13379D01*
X29923Y13358D01*
X30000Y13343D01*
X30077Y13358D01*
X30142Y13401D01*
X30185Y13467D01*
X30201Y13543D01*
X30185Y13620D01*
X30142Y13685D01*
X30077Y13729D01*
X30000Y13744D01*
X29923Y13729D01*
X29909Y13719D01*
X29764D01*
Y13819D01*
X29764D01*
Y13839D01*
X29764D01*
Y14311D01*
X29764D01*
Y14331D01*
X29764D01*
Y14803D01*
X28976D01*
Y14687D01*
X28818D01*
X28803Y14709D01*
X28738Y14752D01*
X28661Y14768D01*
X28589Y14753D01*
X28583Y14753D01*
X28510Y14797D01*
Y16512D01*
X28485Y16573D01*
X28423Y16635D01*
X28363Y16660D01*
X27408Y16660D01*
X27408Y17024D01*
X27392Y17064D01*
Y17156D01*
X27300D01*
X27260Y17172D01*
X26621D01*
Y17538D01*
X26693Y17592D01*
X27441D01*
X27501Y17617D01*
X27594Y17710D01*
X29724D01*
X29785Y17735D01*
X29810Y17795D01*
X29810Y18268D01*
X29802Y18287D01*
X29789Y18346D01*
X29802Y18406D01*
X29810Y18425D01*
Y18819D01*
X29807Y18825D01*
X29860Y18904D01*
X29940D01*
X30009Y18918D01*
X30046Y18942D01*
X30077Y18948D01*
X30142Y18992D01*
X30185Y19057D01*
X30201Y19134D01*
X30185Y19211D01*
X30142Y19276D01*
X30077Y19319D01*
X30000Y19335D01*
X29923Y19319D01*
X29858Y19276D01*
X29851Y19265D01*
X29772D01*
X29764Y19341D01*
X29764Y19400D01*
Y19754D01*
X29764Y19813D01*
X29764Y19892D01*
Y20305D01*
X28976D01*
Y20189D01*
X28549D01*
X28528Y20221D01*
X28463Y20264D01*
X28386Y20279D01*
X28309Y20264D01*
X28244Y20221D01*
X28200Y20156D01*
X28185Y20079D01*
X28200Y20002D01*
X28244Y19937D01*
X28309Y19893D01*
X28386Y19878D01*
X28463Y19893D01*
X28528Y19937D01*
X28536Y19948D01*
X28921D01*
X28976Y19893D01*
X28976Y19833D01*
X28976Y19753D01*
X28921Y19697D01*
X28575D01*
X28567Y19709D01*
X28502Y19752D01*
X28425Y19768D01*
X28348Y19752D01*
X28283Y19709D01*
X28240Y19644D01*
X28224Y19567D01*
X28240Y19490D01*
X28283Y19425D01*
X28348Y19382D01*
X28425Y19366D01*
X28502Y19382D01*
X28567Y19425D01*
X28588Y19456D01*
X28921D01*
X28976Y19401D01*
X28976Y19341D01*
X28976Y19262D01*
Y18904D01*
X26220Y18904D01*
X26183Y18889D01*
X26105Y18927D01*
Y19510D01*
X26157Y19563D01*
X26157Y19563D01*
X26166Y19576D01*
X26179Y19578D01*
X26244Y19622D01*
X26288Y19687D01*
X26303Y19764D01*
X26288Y19841D01*
X26244Y19906D01*
X26182Y19948D01*
X26179Y19950D01*
X26157Y20034D01*
X26945Y20823D01*
X26962Y20819D01*
X27546D01*
X27619Y20834D01*
X27680Y20875D01*
X27722Y20937D01*
X27736Y21010D01*
X27722Y21083D01*
X27680Y21145D01*
X27619Y21186D01*
X27546Y21201D01*
X26962D01*
X26889Y21186D01*
X26827Y21145D01*
X26786Y21083D01*
X26772Y21010D01*
X26775Y20993D01*
X26324Y20542D01*
X26237Y20566D01*
X26205Y20614D01*
X26183Y20629D01*
Y20974D01*
X26599Y21389D01*
X26818D01*
X26827Y21375D01*
X26889Y21334D01*
X26962Y21319D01*
X27546D01*
X27619Y21334D01*
X27680Y21375D01*
X27722Y21437D01*
X27736Y21510D01*
X27722Y21583D01*
X27680Y21645D01*
X27619Y21686D01*
X27546Y21701D01*
X26962D01*
X26889Y21686D01*
X26827Y21645D01*
X26818Y21630D01*
X26558D01*
X26542Y21650D01*
X26521Y21705D01*
X26705Y21889D01*
X26818D01*
X26827Y21875D01*
X26889Y21834D01*
X26962Y21819D01*
X27546D01*
X27619Y21834D01*
X27680Y21875D01*
X27722Y21937D01*
X27736Y22010D01*
X27722Y22083D01*
X27680Y22145D01*
X27619Y22186D01*
X27546Y22201D01*
X26962D01*
X26889Y22186D01*
X26827Y22145D01*
X26818Y22130D01*
X26664D01*
X26648Y22150D01*
X26627Y22205D01*
X26785Y22363D01*
X26845D01*
X26889Y22334D01*
X26962Y22319D01*
X27546D01*
X27619Y22334D01*
X27680Y22375D01*
X27722Y22437D01*
X27736Y22510D01*
X27722Y22583D01*
X27680Y22645D01*
X27619Y22686D01*
X27546Y22701D01*
D02*
G37*
G36*
X23825D02*
X23242D01*
X23169Y22686D01*
X23107Y22645D01*
X23066Y22583D01*
X23051Y22510D01*
X23066Y22437D01*
X23107Y22375D01*
X23169Y22334D01*
X23242Y22319D01*
X23825D01*
X23898Y22334D01*
X23960Y22375D01*
X24001Y22437D01*
X24016Y22510D01*
X24001Y22583D01*
X23960Y22645D01*
X23898Y22686D01*
X23825Y22701D01*
D02*
G37*
G36*
Y22201D02*
X23242D01*
X23169Y22186D01*
X23107Y22145D01*
X23066Y22083D01*
X23051Y22010D01*
X23066Y21937D01*
X23107Y21875D01*
X23169Y21834D01*
X23242Y21819D01*
X23825D01*
X23898Y21834D01*
X23960Y21875D01*
X24001Y21937D01*
X24016Y22010D01*
X24001Y22083D01*
X23960Y22145D01*
X23898Y22186D01*
X23825Y22201D01*
D02*
G37*
G36*
X2071Y23220D02*
X1923Y23191D01*
X1798Y23107D01*
X1715Y22982D01*
X1686Y22835D01*
X1715Y22687D01*
X1798Y22562D01*
X1923Y22479D01*
X2071Y22449D01*
X2218Y22479D01*
X2343Y22562D01*
X2405Y22654D01*
X2693D01*
Y22457D01*
X3193D01*
X3205Y22445D01*
Y21519D01*
X3012D01*
Y21722D01*
X2028D01*
Y20955D01*
X3012D01*
Y21158D01*
X4610D01*
X4833Y20935D01*
X4892Y20896D01*
X4961Y20882D01*
X5841D01*
X5848Y20878D01*
X5925Y20862D01*
X6002Y20878D01*
X6067Y20921D01*
X6111Y20986D01*
X6126Y21063D01*
X6111Y21140D01*
X6096Y21162D01*
Y21358D01*
X6152D01*
Y22146D01*
X5679D01*
Y21358D01*
X5735D01*
Y21244D01*
X5035D01*
X4813Y21466D01*
X4754Y21505D01*
X4685Y21519D01*
X3566D01*
Y22520D01*
X3553Y22589D01*
X3514Y22647D01*
X3449Y22712D01*
Y23213D01*
X2693D01*
Y23015D01*
X2405D01*
X2343Y23107D01*
X2218Y23191D01*
X2071Y23220D01*
D02*
G37*
G36*
X23825Y21701D02*
X23242D01*
X23169Y21686D01*
X23107Y21645D01*
X23066Y21583D01*
X23051Y21510D01*
X23066Y21437D01*
X23107Y21375D01*
X23169Y21334D01*
X23242Y21319D01*
X23825D01*
X23898Y21334D01*
X23960Y21375D01*
X24001Y21437D01*
X24016Y21510D01*
X24001Y21583D01*
X23960Y21645D01*
X23898Y21686D01*
X23825Y21701D01*
D02*
G37*
G36*
X31181Y22057D02*
X29843D01*
Y21073D01*
X31181D01*
Y22057D01*
D02*
G37*
G36*
X19852Y22146D02*
X19380D01*
Y21358D01*
X19457D01*
Y21126D01*
X19445Y21063D01*
X19460Y20986D01*
X19504Y20921D01*
X19569Y20878D01*
X19646Y20862D01*
X19722Y20878D01*
X19788Y20921D01*
X19831Y20986D01*
X19846Y21063D01*
X19831Y21140D01*
X19819Y21158D01*
Y21358D01*
X19852D01*
Y22146D01*
D02*
G37*
G36*
X15285D02*
X14813D01*
Y21358D01*
X14869D01*
Y21147D01*
X14864Y21140D01*
X14849Y21063D01*
X14864Y20986D01*
X14907Y20921D01*
X14972Y20878D01*
X15049Y20862D01*
X15126Y20878D01*
X15191Y20921D01*
X15235Y20986D01*
X15250Y21063D01*
X15235Y21140D01*
X15230Y21147D01*
Y21358D01*
X15285D01*
Y22146D01*
D02*
G37*
G36*
X10718D02*
X10246D01*
Y21358D01*
X10302D01*
Y21162D01*
X10287Y21140D01*
X10272Y21063D01*
X10287Y20986D01*
X10331Y20921D01*
X10396Y20878D01*
X10472Y20862D01*
X10549Y20878D01*
X10614Y20921D01*
X10658Y20986D01*
X10673Y21063D01*
X10663Y21114D01*
Y21358D01*
X10718D01*
Y22146D01*
D02*
G37*
G36*
X23825Y21201D02*
X23242D01*
X23169Y21186D01*
X23107Y21145D01*
X23066Y21083D01*
X23051Y21010D01*
X23066Y20937D01*
X23107Y20875D01*
X23169Y20834D01*
X23242Y20819D01*
X23825D01*
X23898Y20834D01*
X23960Y20875D01*
X24001Y20937D01*
X24016Y21010D01*
X24001Y21083D01*
X23960Y21145D01*
X23898Y21186D01*
X23825Y21201D01*
D02*
G37*
G36*
Y20701D02*
X23242D01*
X23169Y20686D01*
X23107Y20645D01*
X23097Y20630D01*
X20799D01*
X20753Y20621D01*
X20714Y20595D01*
X20714Y20595D01*
X20371Y20252D01*
X20371Y20252D01*
X18222Y18103D01*
X18196Y18064D01*
X18187Y18018D01*
X18187Y18018D01*
Y15837D01*
X18096Y15747D01*
X18071Y15752D01*
X17994Y15737D01*
X17929Y15693D01*
X17885Y15628D01*
X17870Y15551D01*
X17885Y15474D01*
X17929Y15409D01*
X17994Y15366D01*
X18071Y15350D01*
X18148Y15366D01*
X18213Y15409D01*
X18220Y15421D01*
X18315D01*
X18323Y15409D01*
X18388Y15366D01*
X18465Y15350D01*
X18541Y15366D01*
X18606Y15409D01*
X18650Y15474D01*
X18665Y15551D01*
X18650Y15628D01*
X18606Y15693D01*
X18585Y15707D01*
Y17903D01*
X20572Y19889D01*
X23097D01*
X23107Y19875D01*
X23169Y19834D01*
X23242Y19819D01*
X23825D01*
X23898Y19834D01*
X23960Y19875D01*
X24001Y19937D01*
X24016Y20010D01*
X24001Y20083D01*
X23960Y20145D01*
X23898Y20186D01*
X23825Y20201D01*
X23242D01*
X23169Y20186D01*
X23107Y20145D01*
X23097Y20130D01*
X20693D01*
X20662Y20203D01*
X20849Y20389D01*
X23097D01*
X23107Y20375D01*
X23169Y20334D01*
X23242Y20319D01*
X23825D01*
X23898Y20334D01*
X23960Y20375D01*
X24001Y20437D01*
X24016Y20510D01*
X24001Y20583D01*
X23960Y20645D01*
X23898Y20686D01*
X23825Y20701D01*
D02*
G37*
G36*
X7136Y22146D02*
Y22146D01*
X7079Y22146D01*
X6663D01*
Y21358D01*
X6809D01*
Y20834D01*
X6809Y20834D01*
X6818Y20787D01*
X6844Y20748D01*
X6853Y20740D01*
X6847Y20709D01*
X6862Y20632D01*
X6905Y20567D01*
X6970Y20523D01*
X7047Y20508D01*
X7090Y20516D01*
X7151Y20479D01*
X7165Y20457D01*
X7177Y20396D01*
X7220Y20331D01*
X7285Y20287D01*
X7362Y20272D01*
X7439Y20287D01*
X7504Y20331D01*
X7548Y20396D01*
X7563Y20472D01*
X7548Y20549D01*
X7504Y20614D01*
X7483Y20629D01*
Y21358D01*
X7628D01*
Y22146D01*
X7212D01*
X7156Y22146D01*
Y22146D01*
X7136D01*
D02*
G37*
G36*
X11703D02*
Y22146D01*
X11230D01*
Y21358D01*
X11346D01*
Y21201D01*
X10262Y20117D01*
X10236Y20122D01*
X10159Y20107D01*
X10094Y20063D01*
X10051Y19998D01*
X10036Y19921D01*
X10044Y19879D01*
X10006Y19817D01*
X9985Y19804D01*
X9923Y19792D01*
X9858Y19748D01*
X9815Y19683D01*
X9799Y19606D01*
X9726Y19570D01*
X9724Y19571D01*
X9648Y19556D01*
X9582Y19512D01*
X9539Y19447D01*
X9524Y19370D01*
X9450Y19374D01*
X9449Y19374D01*
X9372Y19359D01*
X9307Y19315D01*
X9263Y19250D01*
X9255Y19210D01*
X9226Y19160D01*
X9176Y19131D01*
X9136Y19122D01*
X9071Y19079D01*
X9027Y19014D01*
X9012Y18937D01*
X9027Y18860D01*
X9071Y18795D01*
X9055Y18711D01*
X9048Y18706D01*
X9014Y18729D01*
X8937Y18744D01*
X8860Y18729D01*
X8795Y18685D01*
X8752Y18620D01*
X8736Y18543D01*
X8752Y18467D01*
X8795Y18401D01*
X8860Y18358D01*
X8937Y18343D01*
X9014Y18358D01*
X9079Y18401D01*
X9093Y18423D01*
X9173D01*
X9173Y18423D01*
X9219Y18432D01*
X9258Y18458D01*
X9459Y18659D01*
X18509D01*
X18509Y18659D01*
X18555Y18668D01*
X18594Y18694D01*
X21178Y21278D01*
X21178Y21278D01*
X21204Y21317D01*
X21212Y21358D01*
X21329D01*
Y22146D01*
X20913D01*
X20856Y22146D01*
Y22146D01*
X20837D01*
X20837Y22146D01*
X20780Y22146D01*
X20364D01*
Y21358D01*
X20480D01*
Y21144D01*
X18394Y19057D01*
X14567D01*
X14537Y19130D01*
X16611Y21204D01*
X16611Y21204D01*
X16637Y21243D01*
X16646Y21289D01*
Y21358D01*
X16762D01*
Y22146D01*
X16289D01*
Y22146D01*
X16270D01*
Y22146D01*
X15797D01*
Y21358D01*
X15840D01*
X15873Y21280D01*
X14084Y19490D01*
X10421D01*
X10389Y19569D01*
X12044Y21224D01*
X12044Y21224D01*
X12070Y21264D01*
X12079Y21310D01*
X12134Y21358D01*
X12195D01*
Y22146D01*
X11722D01*
Y22146D01*
X11703D01*
D02*
G37*
G36*
X1280Y21722D02*
X295D01*
Y20955D01*
X656D01*
Y20767D01*
X666Y20717D01*
X695Y20674D01*
X753Y20616D01*
X796Y20587D01*
X846Y20577D01*
X860D01*
X918Y20528D01*
Y20016D01*
X1312D01*
Y20141D01*
X1596D01*
X1619Y20118D01*
Y18472D01*
X1629Y18422D01*
X1657Y18379D01*
X1815Y18221D01*
X1858Y18193D01*
X1908Y18183D01*
X1993D01*
X2016Y18153D01*
X2041Y18104D01*
X2036Y18078D01*
X2013Y18062D01*
X1969Y17997D01*
X1954Y17920D01*
X1969Y17844D01*
X2013Y17779D01*
X2036Y17763D01*
X2043Y17724D01*
X2070Y17685D01*
X2116Y17638D01*
X2116Y17638D01*
X2155Y17612D01*
X2201Y17603D01*
X2201Y17603D01*
X2517D01*
Y17264D01*
X1861D01*
X1811Y17254D01*
X1768Y17226D01*
X1557Y17015D01*
X1529Y16972D01*
X1519Y16922D01*
Y15676D01*
X1446Y15603D01*
X1312D01*
Y15728D01*
X918D01*
Y15216D01*
X1212D01*
X1245Y15137D01*
X1209Y15101D01*
X1182Y15062D01*
X1173Y15016D01*
X1173Y15016D01*
Y14782D01*
X1038D01*
Y14310D01*
X1550D01*
Y14782D01*
X1414D01*
Y14966D01*
X1550Y15102D01*
X1862D01*
X1909Y15023D01*
X1899Y14972D01*
X1915Y14895D01*
X1928Y14875D01*
X1886Y14796D01*
X1803D01*
Y14402D01*
X2315D01*
Y14796D01*
X2314D01*
X2272Y14875D01*
X2285Y14895D01*
X2301Y14972D01*
X2291Y15023D01*
X2338Y15102D01*
X2494D01*
X2508Y15080D01*
X2530Y15066D01*
Y14811D01*
X2394D01*
Y14417D01*
X2906D01*
Y14811D01*
X2770D01*
Y15066D01*
X2792Y15080D01*
X2835Y15145D01*
X2851Y15222D01*
X2835Y15299D01*
X2792Y15364D01*
X2727Y15407D01*
X2650Y15423D01*
X2573Y15407D01*
X2508Y15364D01*
X2494Y15342D01*
X1667D01*
X1635Y15421D01*
X1743Y15529D01*
X1771Y15572D01*
X1781Y15622D01*
Y16868D01*
X1915Y17002D01*
X2466D01*
X2484Y16944D01*
X2423Y16890D01*
X2399Y16895D01*
X2318Y16879D01*
X2250Y16833D01*
X2204Y16765D01*
X2188Y16684D01*
X2204Y16604D01*
X2250Y16535D01*
X2318Y16490D01*
X2399Y16474D01*
X2479Y16490D01*
X2548Y16535D01*
X2594Y16604D01*
X2609Y16680D01*
X3127D01*
Y16746D01*
X3334D01*
X3384Y16756D01*
X3427Y16784D01*
X3605Y16963D01*
X3671Y16952D01*
X3694Y16940D01*
X3730Y16887D01*
X3792Y16846D01*
X3865Y16831D01*
X4435D01*
X4508Y16846D01*
X4570Y16887D01*
X4608Y16830D01*
X4672Y16788D01*
X4673Y16780D01*
Y16714D01*
X4672Y16707D01*
X4644Y16688D01*
X4570Y16657D01*
X4508Y16698D01*
X4435Y16713D01*
X3865D01*
X3792Y16698D01*
X3730Y16657D01*
X3688Y16595D01*
X3674Y16522D01*
X3688Y16449D01*
X3730Y16387D01*
X3792Y16346D01*
X3865Y16331D01*
X4435D01*
X4508Y16346D01*
X4570Y16387D01*
X4644Y16356D01*
X4673Y16337D01*
X4750Y16321D01*
X4827Y16337D01*
X4843Y16348D01*
X4922Y16306D01*
Y15257D01*
X4922Y15257D01*
X4931Y15211D01*
X4957Y15172D01*
X5030Y15099D01*
Y14801D01*
X4521D01*
Y13843D01*
X5208D01*
X5280Y13772D01*
Y13493D01*
X5124D01*
Y12981D01*
X5676D01*
Y13493D01*
X5520D01*
Y13822D01*
X5511Y13868D01*
X5485Y13907D01*
X5379Y14014D01*
Y14801D01*
X5270D01*
Y14972D01*
X5349Y15014D01*
X5354Y15011D01*
X5400Y15002D01*
X5400Y15002D01*
X6500D01*
X6530Y14972D01*
Y14801D01*
X6221D01*
Y14014D01*
X6015Y13807D01*
X5989Y13768D01*
X5980Y13722D01*
X5980Y13722D01*
Y13478D01*
X5824D01*
Y12966D01*
X6376D01*
Y13478D01*
X6220D01*
Y13672D01*
X6392Y13843D01*
X7079D01*
Y14801D01*
X6770D01*
Y15022D01*
X6761Y15068D01*
X6735Y15107D01*
X6735Y15107D01*
X6635Y15207D01*
X6596Y15233D01*
X6550Y15242D01*
X6550Y15242D01*
X5450D01*
X5320Y15372D01*
Y16730D01*
X5399Y16768D01*
X5435Y16744D01*
X5512Y16728D01*
X5589Y16744D01*
X5654Y16787D01*
X5694Y16847D01*
X5827D01*
X5827Y16847D01*
X5841Y16850D01*
X5911D01*
X5918Y16846D01*
X5991Y16831D01*
X6561D01*
X6634Y16846D01*
X6696Y16887D01*
X6738Y16949D01*
X6752Y17022D01*
X6738Y17095D01*
X6696Y17157D01*
X6634Y17198D01*
X6561Y17213D01*
X5991D01*
X5918Y17198D01*
X5877Y17171D01*
X5830D01*
X5815Y17168D01*
X5612D01*
X5550Y17156D01*
X5511Y17130D01*
X5435Y17115D01*
X5399Y17091D01*
X5320Y17128D01*
Y17334D01*
X5399Y17381D01*
X5450Y17371D01*
X5527Y17387D01*
X5587Y17427D01*
X5829D01*
X5856Y17387D01*
X5918Y17346D01*
X5991Y17331D01*
X6561D01*
X6634Y17346D01*
X6696Y17387D01*
X6738Y17449D01*
X6752Y17522D01*
X6738Y17595D01*
X6696Y17657D01*
X6634Y17698D01*
X6561Y17713D01*
X5991D01*
X5918Y17698D01*
X5872Y17667D01*
X5623D01*
X5592Y17714D01*
X5540Y17749D01*
X5539Y17801D01*
X5548Y17831D01*
X5577Y17837D01*
X5642Y17880D01*
X5656Y17902D01*
X5846D01*
X5856Y17887D01*
X5918Y17846D01*
X5991Y17831D01*
X6561D01*
X6634Y17846D01*
X6696Y17887D01*
X6738Y17949D01*
X6752Y18022D01*
X6738Y18095D01*
X6696Y18157D01*
X6634Y18198D01*
X6561Y18213D01*
X5991D01*
X5918Y18198D01*
X5856Y18157D01*
X5846Y18142D01*
X5656D01*
X5642Y18164D01*
X5577Y18207D01*
X5500Y18223D01*
X5452Y18213D01*
X5379Y18252D01*
X5366Y18264D01*
X5361Y18301D01*
X5462Y18402D01*
X5846D01*
X5856Y18387D01*
X5918Y18346D01*
X5991Y18331D01*
X6561D01*
X6634Y18346D01*
X6696Y18387D01*
X6738Y18449D01*
X6752Y18522D01*
X6738Y18595D01*
X6696Y18657D01*
X6634Y18698D01*
X6561Y18713D01*
X5991D01*
X5918Y18698D01*
X5856Y18657D01*
X5846Y18642D01*
X5412D01*
X5412Y18642D01*
X5366Y18633D01*
X5327Y18607D01*
X5236Y18516D01*
X5163Y18546D01*
Y18851D01*
X5214Y18902D01*
X5846D01*
X5856Y18887D01*
X5918Y18846D01*
X5991Y18831D01*
X6561D01*
X6634Y18846D01*
X6696Y18887D01*
X6738Y18949D01*
X6752Y19022D01*
X6738Y19095D01*
X6696Y19157D01*
X6634Y19198D01*
X6561Y19213D01*
X5991D01*
X5918Y19198D01*
X5856Y19157D01*
X5846Y19142D01*
X5164D01*
X5118Y19133D01*
X5079Y19107D01*
X4957Y18986D01*
X4931Y18947D01*
X4922Y18901D01*
X4922Y18901D01*
Y17189D01*
X4843Y17146D01*
X4827Y17157D01*
X4750Y17173D01*
X4673Y17157D01*
X4654Y17144D01*
X4575Y17150D01*
X4570Y17157D01*
X4508Y17198D01*
X4435Y17213D01*
X3865D01*
X3818Y17204D01*
X3750Y17253D01*
Y17291D01*
X3818Y17341D01*
X3865Y17331D01*
X4435D01*
X4508Y17346D01*
X4570Y17387D01*
X4612Y17449D01*
X4626Y17522D01*
X4612Y17595D01*
X4570Y17657D01*
X4508Y17698D01*
X4435Y17713D01*
X3865D01*
X3818Y17704D01*
X3750Y17753D01*
Y17791D01*
X3818Y17841D01*
X3865Y17831D01*
X4435D01*
X4508Y17846D01*
X4570Y17887D01*
X4612Y17949D01*
X4626Y18022D01*
X4612Y18095D01*
X4570Y18157D01*
X4508Y18198D01*
X4435Y18213D01*
X3865D01*
X3792Y18198D01*
X3730Y18157D01*
X3664Y18201D01*
X3556Y18308D01*
Y18630D01*
X3567Y18638D01*
X3611Y18703D01*
X3626Y18780D01*
X3611Y18856D01*
X3567Y18921D01*
X3556Y18929D01*
Y20472D01*
X3546Y20523D01*
X3518Y20565D01*
X3282Y20801D01*
X3239Y20830D01*
X3189Y20840D01*
X919D01*
Y20955D01*
X1280D01*
Y21722D01*
D02*
G37*
G36*
X4435Y19213D02*
X3865D01*
X3792Y19198D01*
X3730Y19157D01*
X3688Y19095D01*
X3674Y19022D01*
X3688Y18949D01*
X3730Y18887D01*
X3792Y18846D01*
X3865Y18831D01*
X4435D01*
X4508Y18846D01*
X4570Y18887D01*
X4612Y18949D01*
X4626Y19022D01*
X4612Y19095D01*
X4570Y19157D01*
X4508Y19198D01*
X4435Y19213D01*
D02*
G37*
G36*
Y18713D02*
X3865D01*
X3792Y18698D01*
X3730Y18657D01*
X3688Y18595D01*
X3674Y18522D01*
X3688Y18449D01*
X3730Y18387D01*
X3792Y18346D01*
X3865Y18331D01*
X4435D01*
X4508Y18346D01*
X4570Y18387D01*
X4612Y18449D01*
X4626Y18522D01*
X4612Y18595D01*
X4570Y18657D01*
X4508Y18698D01*
X4435Y18713D01*
D02*
G37*
G36*
X7412Y17828D02*
X7018D01*
Y17316D01*
X7094D01*
Y17176D01*
X6971D01*
Y16642D01*
X6706D01*
X6696Y16657D01*
X6634Y16698D01*
X6561Y16713D01*
X5991D01*
X5918Y16698D01*
X5856Y16657D01*
X5814Y16595D01*
X5800Y16522D01*
X5814Y16449D01*
X5856Y16387D01*
X5918Y16346D01*
X5991Y16331D01*
X6561D01*
X6634Y16346D01*
X6696Y16387D01*
X6706Y16402D01*
X6903D01*
X6971Y16376D01*
X6971Y16323D01*
Y16142D01*
X6706D01*
X6696Y16157D01*
X6634Y16198D01*
X6561Y16213D01*
X5991D01*
X5918Y16198D01*
X5856Y16157D01*
X5814Y16095D01*
X5800Y16022D01*
X5814Y15949D01*
X5856Y15887D01*
X5918Y15846D01*
X5991Y15831D01*
X6561D01*
X6634Y15846D01*
X6696Y15887D01*
X6706Y15902D01*
X6971D01*
Y15668D01*
X7094D01*
Y15478D01*
X7018D01*
Y14966D01*
X7412D01*
Y15478D01*
X7335D01*
Y15668D01*
X7629D01*
Y16376D01*
X7236D01*
X7196Y16455D01*
X7206Y16468D01*
X7629D01*
Y17176D01*
X7335D01*
Y17316D01*
X7412D01*
Y17828D01*
D02*
G37*
G36*
X4435Y16213D02*
X3865D01*
X3792Y16198D01*
X3730Y16157D01*
X3688Y16095D01*
X3674Y16022D01*
X3688Y15949D01*
X3730Y15887D01*
X3792Y15846D01*
X3865Y15831D01*
X4435D01*
X4508Y15846D01*
X4570Y15887D01*
X4612Y15949D01*
X4626Y16022D01*
X4612Y16095D01*
X4570Y16157D01*
X4508Y16198D01*
X4435Y16213D01*
D02*
G37*
G36*
X8127Y17828D02*
X7733D01*
Y17316D01*
X8127D01*
Y17452D01*
X8226D01*
X8274Y17373D01*
X8264Y17323D01*
X8277Y17255D01*
X8274Y17238D01*
X8231Y17176D01*
X7871D01*
Y16468D01*
X8529D01*
Y16691D01*
X8703D01*
Y16516D01*
X9097D01*
Y17028D01*
X8703D01*
Y16953D01*
X8529D01*
Y17135D01*
X8541Y17137D01*
X8606Y17181D01*
X8607Y17182D01*
X9469D01*
X9474Y17177D01*
Y17028D01*
X9418D01*
Y16516D01*
X9467D01*
Y16278D01*
X9403D01*
Y15766D01*
X9460D01*
Y15613D01*
X8726D01*
X8725Y15614D01*
X8659Y15658D01*
X8607Y15668D01*
X8583Y15673D01*
X8529Y15743D01*
Y15891D01*
X8688D01*
Y15766D01*
X9082D01*
Y16278D01*
X8688D01*
Y16153D01*
X8529D01*
Y16376D01*
X7871D01*
Y15668D01*
X8389D01*
X8392Y15666D01*
X8424Y15590D01*
X8397Y15549D01*
X8382Y15472D01*
X8392Y15421D01*
X8345Y15342D01*
X8127D01*
Y15478D01*
X7733D01*
Y14966D01*
X8127D01*
Y15102D01*
X8943D01*
X8985Y15023D01*
X8973Y14961D01*
X8973Y14959D01*
X8937Y14886D01*
X8860Y14870D01*
X8795Y14827D01*
X8752Y14762D01*
X8736Y14685D01*
X8752Y14608D01*
X8795Y14543D01*
X8826Y14522D01*
Y13112D01*
X8815Y13104D01*
X8793Y13072D01*
X8785Y13033D01*
Y12455D01*
X8793Y12417D01*
X8815Y12384D01*
X8848Y12362D01*
X8886Y12354D01*
X9007D01*
X9046Y12362D01*
X9075Y12381D01*
X9104Y12362D01*
X9142Y12354D01*
X9263D01*
X9302Y12362D01*
X9331Y12381D01*
X9360Y12362D01*
X9398Y12354D01*
X9519D01*
X9558Y12362D01*
X9587Y12381D01*
X9615Y12362D01*
X9654Y12354D01*
X9775D01*
X9814Y12362D01*
X9843Y12381D01*
X9871Y12362D01*
X9910Y12354D01*
X10031D01*
X10070Y12362D01*
X10098Y12381D01*
X10127Y12362D01*
X10166Y12354D01*
X10287D01*
X10326Y12362D01*
X10354Y12381D01*
X10383Y12362D01*
X10422Y12354D01*
X10543D01*
X10581Y12362D01*
X10610Y12381D01*
X10639Y12362D01*
X10678Y12354D01*
X10799D01*
X10837Y12362D01*
X10870Y12384D01*
X10892Y12417D01*
X10900Y12455D01*
Y13033D01*
X10892Y13072D01*
X10870Y13104D01*
X10859Y13112D01*
Y14798D01*
X10890Y14819D01*
X10933Y14884D01*
X10949Y14961D01*
X10936Y15023D01*
X10978Y15102D01*
X11486D01*
X11887Y14700D01*
Y14489D01*
X11887Y14488D01*
X11809Y14480D01*
X11806Y14493D01*
X11800Y14526D01*
X11756Y14591D01*
X11691Y14634D01*
X11614Y14650D01*
X11545Y14636D01*
X11513Y14662D01*
X11486Y14695D01*
X11500Y14764D01*
X11485Y14841D01*
X11441Y14906D01*
X11376Y14949D01*
X11299Y14964D01*
X11222Y14949D01*
X11157Y14906D01*
X11114Y14841D01*
X11099Y14764D01*
X11114Y14687D01*
X11157Y14622D01*
X11179Y14607D01*
Y13070D01*
X11157Y13055D01*
X11114Y12990D01*
X11099Y12913D01*
X11114Y12837D01*
X11157Y12771D01*
X11222Y12728D01*
X11299Y12713D01*
X11376Y12728D01*
X11441Y12771D01*
X11454Y12791D01*
X11533Y12767D01*
Y12637D01*
X11512Y12622D01*
X11468Y12557D01*
X11453Y12480D01*
X11468Y12404D01*
X11512Y12338D01*
X11550Y12313D01*
X11541Y12234D01*
X11503Y12207D01*
X8555D01*
Y12376D01*
X8567Y12384D01*
X8589Y12417D01*
X8596Y12455D01*
Y13033D01*
X8589Y13072D01*
X8567Y13126D01*
X8611Y13191D01*
X8626Y13268D01*
X8611Y13345D01*
X8567Y13410D01*
X8502Y13453D01*
X8425Y13468D01*
X8424Y13468D01*
X8350Y13465D01*
X8335Y13541D01*
X8292Y13606D01*
X8226Y13650D01*
X8150Y13665D01*
X8093Y13654D01*
X8015Y13699D01*
Y13925D01*
X8055Y13953D01*
X8099Y14018D01*
X8114Y14094D01*
X8099Y14171D01*
X8055Y14236D01*
X7990Y14280D01*
X7913Y14295D01*
X7837Y14280D01*
X7771Y14236D01*
X7728Y14171D01*
X7713Y14094D01*
X7728Y14018D01*
X7739Y14001D01*
X7734Y13972D01*
Y13386D01*
X7744Y13332D01*
X7775Y13286D01*
X7783Y13278D01*
Y13091D01*
X7770Y13072D01*
X7762Y13033D01*
Y12905D01*
X7246D01*
X7184Y12892D01*
X7132Y12858D01*
X7132Y12858D01*
X6973Y12698D01*
X6938Y12646D01*
X6926Y12585D01*
X6926Y12585D01*
Y12058D01*
X6831D01*
Y12022D01*
X6545D01*
Y12102D01*
X5738D01*
Y11543D01*
X5517Y11322D01*
X2815D01*
Y11831D01*
Y12303D01*
X2494D01*
X2480Y12306D01*
X2467Y12303D01*
X2146D01*
Y12227D01*
X2067Y12165D01*
X2047Y12169D01*
X1970Y12154D01*
X1905Y12110D01*
X1862Y12045D01*
X1847Y11968D01*
X1862Y11892D01*
X1905Y11827D01*
X1970Y11783D01*
X2047Y11768D01*
X2067Y11772D01*
X2146Y11710D01*
Y11437D01*
Y11043D01*
Y10650D01*
X2815D01*
Y11041D01*
X5575D01*
X5629Y11051D01*
X5674Y11082D01*
X5937Y11344D01*
X6545D01*
Y11700D01*
X6831D01*
Y11664D01*
X7342D01*
Y12058D01*
X7247D01*
Y12518D01*
X7312Y12584D01*
X7762D01*
Y12455D01*
X7770Y12417D01*
X7791Y12384D01*
X7797Y12380D01*
Y12012D01*
X7767Y11967D01*
X7752Y11890D01*
X7767Y11813D01*
X7811Y11748D01*
X7876Y11704D01*
X7953Y11689D01*
X8030Y11704D01*
X8095Y11748D01*
X8138Y11813D01*
X8153Y11890D01*
X8146Y11927D01*
X8219Y11965D01*
X8340Y11844D01*
X8340Y11844D01*
X8379Y11818D01*
X8425Y11809D01*
X11446D01*
X11537Y11718D01*
X11532Y11693D01*
X11547Y11616D01*
X11590Y11551D01*
X11655Y11507D01*
X11732Y11492D01*
X11809Y11507D01*
X11887Y11465D01*
Y10944D01*
X11866Y10929D01*
X11822Y10864D01*
X11807Y10787D01*
X11822Y10711D01*
X11866Y10645D01*
X11931Y10602D01*
X12008Y10587D01*
X12085Y10602D01*
X12150Y10645D01*
X12193Y10711D01*
X12209Y10787D01*
X12200Y10830D01*
X12238Y10891D01*
X12259Y10905D01*
X12321Y10917D01*
X12386Y10960D01*
X12430Y11026D01*
X12445Y11102D01*
X12430Y11179D01*
X12386Y11244D01*
X12321Y11288D01*
X12286Y11295D01*
Y14815D01*
X12277Y14861D01*
X12251Y14900D01*
X11639Y15511D01*
X11600Y15537D01*
X11554Y15547D01*
X11554Y15547D01*
X10254D01*
X10199Y15601D01*
Y17283D01*
X10199Y17283D01*
X10190Y17330D01*
X10164Y17369D01*
X10164Y17369D01*
X9875Y17657D01*
X9836Y17683D01*
X9790Y17692D01*
X9790Y17692D01*
X8127D01*
Y17828D01*
D02*
G37*
G36*
X4435Y15713D02*
X3865D01*
X3814Y15703D01*
X3514D01*
X3465Y15713D01*
X3388Y15697D01*
X3323Y15654D01*
X3279Y15589D01*
X3264Y15512D01*
X3279Y15435D01*
X3323Y15370D01*
X3388Y15326D01*
X3465Y15311D01*
X3541Y15326D01*
X3564Y15341D01*
X3814D01*
X3865Y15331D01*
X4435D01*
X4508Y15346D01*
X4570Y15387D01*
X4612Y15449D01*
X4626Y15522D01*
X4612Y15595D01*
X4570Y15657D01*
X4508Y15698D01*
X4435Y15713D01*
D02*
G37*
G36*
X31181Y17589D02*
X29843D01*
Y16634D01*
X29843Y16555D01*
X29843Y16526D01*
Y15571D01*
X31181D01*
Y16526D01*
X31181Y16604D01*
X31181Y16634D01*
Y17589D01*
D02*
G37*
G36*
X4150Y15123D02*
X4073Y15107D01*
X4008Y15064D01*
X3965Y14999D01*
X3949Y14922D01*
X3965Y14845D01*
X3987Y14811D01*
X3949Y14732D01*
X3838D01*
Y14260D01*
X4350D01*
Y14732D01*
X4350D01*
X4313Y14811D01*
X4335Y14845D01*
X4351Y14922D01*
X4335Y14999D01*
X4292Y15064D01*
X4227Y15107D01*
X4150Y15123D01*
D02*
G37*
G36*
X2315Y14081D02*
X1803D01*
Y13942D01*
X1550D01*
Y14034D01*
X1038D01*
Y13562D01*
X1550D01*
Y13702D01*
X1803D01*
Y13687D01*
X2315D01*
Y14081D01*
D02*
G37*
G36*
X3307Y14728D02*
X3230Y14713D01*
X3165Y14669D01*
X3122Y14604D01*
X3106Y14528D01*
X3122Y14451D01*
X3131Y14437D01*
X3089Y14358D01*
X3050D01*
X3050Y13898D01*
X2978Y13870D01*
X2906Y13873D01*
Y14096D01*
X2394D01*
Y13702D01*
X2736D01*
X2775Y13663D01*
X2775Y13663D01*
X2814Y13637D01*
X2860Y13628D01*
X3838D01*
Y13512D01*
X4350D01*
Y13984D01*
X3838D01*
Y13868D01*
X3634D01*
X3562Y13886D01*
X3562Y13947D01*
Y14358D01*
X3525D01*
X3483Y14437D01*
X3493Y14451D01*
X3508Y14528D01*
X3493Y14604D01*
X3449Y14669D01*
X3384Y14713D01*
X3307Y14728D01*
D02*
G37*
G36*
X31181Y12087D02*
X29843D01*
Y11102D01*
X31181D01*
Y12087D01*
D02*
G37*
G36*
X29488Y11500D02*
X29411Y11485D01*
X29346Y11441D01*
X29303Y11376D01*
X29294Y11332D01*
X28955Y10994D01*
X28883Y11024D01*
Y11152D01*
X28125D01*
Y10344D01*
X28343D01*
Y10101D01*
X27879Y9636D01*
X27844Y9584D01*
X27832Y9523D01*
X27832Y9523D01*
Y8978D01*
X27220Y8366D01*
X27165Y8317D01*
Y8317D01*
X27165Y8317D01*
X26378D01*
Y8310D01*
X26172D01*
X26118Y8299D01*
X26072Y8269D01*
X26003Y8199D01*
X25973Y8154D01*
X25962Y8100D01*
Y7663D01*
X25960Y7662D01*
X25917Y7596D01*
X25902Y7520D01*
X25917Y7443D01*
X25960Y7378D01*
X26026Y7334D01*
X26058Y7328D01*
X26071Y7325D01*
X26064Y7247D01*
X26062Y7246D01*
X25906D01*
X25859Y7237D01*
X25820Y7211D01*
X25537Y6928D01*
X25511Y6889D01*
X25502Y6843D01*
X25502Y6843D01*
Y6622D01*
X25421D01*
Y5913D01*
X25823D01*
Y5913D01*
X25854D01*
Y5913D01*
X26256D01*
Y5913D01*
X26287D01*
Y5913D01*
X26689D01*
Y5913D01*
X26720D01*
Y5913D01*
X27075D01*
X27122Y5913D01*
X27201Y5913D01*
X27555D01*
Y6622D01*
X27201D01*
X27154Y6622D01*
X27097Y6622D01*
X27044Y6675D01*
Y6756D01*
X27959Y7671D01*
X27985Y7710D01*
X27994Y7756D01*
X27994Y7756D01*
Y7757D01*
X28016Y7771D01*
X28059Y7837D01*
X28075Y7913D01*
X28059Y7990D01*
X28016Y8055D01*
X27951Y8099D01*
X27948Y8099D01*
X27922Y8185D01*
X28298Y8561D01*
X28583D01*
Y8278D01*
X29370D01*
Y8294D01*
X29531D01*
X29576Y8249D01*
Y7923D01*
X29969D01*
X29969Y8387D01*
X29969Y8390D01*
X29983Y8399D01*
X30046Y8435D01*
X30048Y8435D01*
X30118Y8421D01*
X30182Y8434D01*
X30288Y8328D01*
Y8317D01*
X30288Y8317D01*
X30290Y8305D01*
Y7923D01*
X30684D01*
Y8435D01*
X30575D01*
X30546Y8512D01*
X30549Y8515D01*
X30550Y8516D01*
X30614Y8559D01*
X30658Y8624D01*
X30673Y8701D01*
X30658Y8778D01*
X30650Y8789D01*
X30684Y8868D01*
X30684D01*
Y9380D01*
X30290D01*
Y8868D01*
X30290D01*
X30291Y8858D01*
X30216Y8795D01*
X30212Y8796D01*
X30195Y8807D01*
X30118Y8823D01*
X30041Y8807D01*
X29976Y8764D01*
X29933Y8699D01*
X29917Y8622D01*
X29933Y8545D01*
X29954Y8514D01*
X29913Y8435D01*
X29912Y8435D01*
X29912Y8435D01*
X29909Y8435D01*
X29761D01*
X29678Y8518D01*
X29636Y8546D01*
X29585Y8556D01*
X29370D01*
Y8829D01*
X28583D01*
Y8802D01*
X28378D01*
X28309Y8858D01*
Y9163D01*
X28475Y9328D01*
X28583D01*
Y9045D01*
X29370D01*
Y9062D01*
X29576D01*
Y8868D01*
X29969D01*
Y9380D01*
X29576D01*
Y9324D01*
X29370D01*
Y9596D01*
X28583D01*
Y9569D01*
X28425D01*
X28425Y9569D01*
X28379Y9560D01*
X28340Y9534D01*
X28288Y9591D01*
X28617Y9921D01*
X28652Y9973D01*
X28665Y10034D01*
X28665Y10034D01*
Y10344D01*
X28883D01*
Y10536D01*
X28937Y10587D01*
X28998Y10600D01*
X29051Y10634D01*
X29521Y11105D01*
X29565Y11114D01*
X29630Y11157D01*
X29674Y11222D01*
X29689Y11299D01*
X29674Y11376D01*
X29630Y11441D01*
X29565Y11485D01*
X29488Y11500D01*
D02*
G37*
G36*
X27480Y9925D02*
X27404Y9910D01*
X27338Y9866D01*
X27317Y9835D01*
X27165D01*
Y9852D01*
X26378D01*
Y9569D01*
X25862D01*
Y9744D01*
X25468D01*
Y9232D01*
X25862D01*
Y9328D01*
X26378D01*
Y9301D01*
X27165D01*
Y9594D01*
X27331D01*
X27338Y9582D01*
X27404Y9539D01*
X27480Y9524D01*
X27557Y9539D01*
X27622Y9582D01*
X27666Y9648D01*
X27681Y9724D01*
X27666Y9801D01*
X27622Y9866D01*
X27557Y9910D01*
X27480Y9925D01*
D02*
G37*
G36*
X25147Y9744D02*
X24753D01*
Y9682D01*
X24692Y9640D01*
X24674Y9636D01*
X24606Y9650D01*
X24529Y9634D01*
X24464Y9591D01*
X24421Y9526D01*
X24406Y9449D01*
X24421Y9372D01*
X24464Y9307D01*
X24529Y9263D01*
X24606Y9248D01*
X24674Y9262D01*
X24685Y9259D01*
X24753Y9232D01*
X24753Y9232D01*
X24753Y9232D01*
X25147D01*
Y9744D01*
D02*
G37*
G36*
X26181Y9138D02*
X26104Y9122D01*
X26039Y9079D01*
X25996Y9014D01*
X25980Y8937D01*
X25992Y8880D01*
X25947Y8802D01*
X25862D01*
Y8917D01*
X25468D01*
Y8406D01*
X25862D01*
Y8561D01*
X26378D01*
Y8533D01*
X27165D01*
Y8789D01*
Y9085D01*
X26378D01*
X26378Y9085D01*
X26303Y9093D01*
X26258Y9122D01*
X26181Y9138D01*
D02*
G37*
G36*
X23189Y15203D02*
X20394D01*
X20333Y15178D01*
X20308Y15118D01*
Y15001D01*
X20298Y14974D01*
Y7888D01*
X20308Y7862D01*
Y7677D01*
X20333Y7617D01*
X20394Y7592D01*
X23189D01*
X23249Y7617D01*
X23274Y7677D01*
X23274Y15118D01*
X23249Y15178D01*
X23189Y15203D01*
D02*
G37*
G36*
X512Y14886D02*
X435Y14870D01*
X370Y14827D01*
X326Y14762D01*
X311Y14685D01*
X326Y14608D01*
X370Y14543D01*
X386Y14532D01*
Y14408D01*
X250D01*
Y13936D01*
X386D01*
Y7565D01*
X386Y7565D01*
X395Y7518D01*
X421Y7479D01*
X545Y7356D01*
X545Y7356D01*
X584Y7330D01*
X630Y7321D01*
X2146D01*
Y7106D01*
Y6713D01*
Y6319D01*
Y5925D01*
Y5531D01*
Y5138D01*
X2815D01*
Y5155D01*
X3528D01*
X3558Y5082D01*
X3344Y4868D01*
X3321Y4884D01*
X3173Y4913D01*
X3026Y4884D01*
X2901Y4800D01*
X2817Y4675D01*
X2788Y4528D01*
X2817Y4380D01*
X2901Y4255D01*
X3026Y4172D01*
X3173Y4142D01*
X3321Y4172D01*
X3446Y4255D01*
X3529Y4380D01*
X3559Y4528D01*
X3529Y4675D01*
X3514Y4698D01*
X3717Y4901D01*
X3795Y4868D01*
Y4150D01*
X4551D01*
Y4609D01*
X4595Y4667D01*
X4641Y4676D01*
X4680Y4702D01*
X6606Y6628D01*
X6614Y6627D01*
X6691Y6642D01*
X6756Y6685D01*
X6800Y6751D01*
X6815Y6827D01*
X6800Y6904D01*
X6756Y6969D01*
X6691Y7013D01*
X6614Y7028D01*
X6537Y7013D01*
X6472Y6969D01*
X6472Y6968D01*
X6402Y6931D01*
X6337Y6975D01*
X6260Y6990D01*
X6183Y6975D01*
X6118Y6931D01*
X6074Y6866D01*
X6059Y6789D01*
X6074Y6713D01*
X6096Y6681D01*
X5136Y5721D01*
X5042Y5739D01*
X5034Y5751D01*
X5011Y5830D01*
X5054Y5895D01*
X5069Y5972D01*
X5054Y6048D01*
X5011Y6114D01*
X4945Y6157D01*
X4869Y6172D01*
X4792Y6157D01*
X4727Y6114D01*
X4641Y6122D01*
X4627Y6132D01*
X4627Y6139D01*
X4670Y6204D01*
X4685Y6281D01*
X4670Y6357D01*
X4627Y6422D01*
X4561Y6466D01*
X4485Y6481D01*
X4408Y6466D01*
X4404Y6464D01*
X4337Y6433D01*
X4293Y6498D01*
X4250Y6527D01*
X4227Y6616D01*
X4735Y7124D01*
X5828D01*
X5842Y7102D01*
X5907Y7059D01*
X5984Y7043D01*
X6061Y7059D01*
X6126Y7102D01*
X6170Y7167D01*
X6185Y7244D01*
X6170Y7321D01*
X6126Y7386D01*
X6061Y7430D01*
X5984Y7445D01*
X5942Y7436D01*
X5880Y7474D01*
X5867Y7496D01*
X5867Y7497D01*
X5926Y7582D01*
X5961Y7588D01*
X5986Y7570D01*
X6063Y7555D01*
X6140Y7570D01*
X6205Y7614D01*
X6248Y7679D01*
X6264Y7756D01*
X6248Y7833D01*
X6205Y7898D01*
X6140Y7941D01*
X6063Y7957D01*
X6020Y7948D01*
X5959Y7986D01*
X5946Y8007D01*
X5933Y8069D01*
X5890Y8134D01*
X5825Y8178D01*
X5748Y8193D01*
X5671Y8178D01*
X5606Y8134D01*
X5592Y8113D01*
X4468D01*
X4422Y8103D01*
X4383Y8077D01*
X4383Y8077D01*
X3603Y7297D01*
X3509Y7315D01*
X3488Y7347D01*
X3477Y7354D01*
Y7449D01*
X3488Y7456D01*
X3532Y7522D01*
X3547Y7598D01*
X3532Y7675D01*
X3488Y7740D01*
X3423Y7784D01*
X3346Y7799D01*
X3270Y7784D01*
X3205Y7740D01*
X3161Y7675D01*
X3146Y7598D01*
X3151Y7573D01*
X2942Y7365D01*
X2815D01*
Y7579D01*
X2146D01*
Y7561D01*
X680D01*
X627Y7614D01*
Y7716D01*
X689Y7756D01*
X705Y7756D01*
X1713D01*
Y8622D01*
X705D01*
X689Y8622D01*
X627Y8662D01*
Y8779D01*
X689Y8819D01*
X705Y8819D01*
X1713D01*
Y9685D01*
X705D01*
X689Y9685D01*
X627Y9725D01*
Y12441D01*
X689Y12480D01*
X705Y12480D01*
X1713D01*
Y13346D01*
X705D01*
X689Y13346D01*
X627Y13386D01*
Y13936D01*
X762D01*
Y14408D01*
X627D01*
Y14525D01*
X654Y14543D01*
X697Y14608D01*
X713Y14685D01*
X697Y14762D01*
X654Y14827D01*
X589Y14870D01*
X512Y14886D01*
D02*
G37*
G36*
X31181Y7559D02*
X30394D01*
Y6772D01*
X31181D01*
Y7559D01*
D02*
G37*
G36*
X25147Y8917D02*
X24753D01*
Y8405D01*
X24830D01*
Y8268D01*
X24671Y8109D01*
X24645Y8070D01*
X24635Y8024D01*
X24635Y8024D01*
Y6678D01*
X24580Y6622D01*
X24476Y6622D01*
X24169D01*
X24122Y6622D01*
X24043Y6622D01*
X23689D01*
Y5913D01*
X24043D01*
X24091Y5913D01*
X24169Y5913D01*
X24476D01*
X24524Y5913D01*
X24602Y5913D01*
X24957D01*
Y6622D01*
X24876D01*
Y7974D01*
X25035Y8133D01*
X25035Y8133D01*
X25061Y8172D01*
X25071Y8218D01*
X25071Y8218D01*
Y8405D01*
X25147D01*
Y8917D01*
D02*
G37*
G36*
X30787Y6567D02*
X30634Y6536D01*
X30504Y6449D01*
X30417Y6319D01*
X30386Y6165D01*
X30417Y6012D01*
X30504Y5882D01*
X30634Y5795D01*
X30787Y5764D01*
X30941Y5795D01*
X31071Y5882D01*
X31158Y6012D01*
X31189Y6165D01*
X31158Y6319D01*
X31071Y6449D01*
X30941Y6536D01*
X30787Y6567D01*
D02*
G37*
G36*
X27579Y4975D02*
X23563D01*
X23503Y4950D01*
X23478Y4890D01*
Y3295D01*
X23503Y3235D01*
X23563Y3210D01*
X27579D01*
X27639Y3235D01*
X27664Y3295D01*
Y4890D01*
X27639Y4950D01*
X27579Y4975D01*
D02*
G37*
G36*
X27677Y2043D02*
X27573Y2022D01*
X27486Y1963D01*
X27427Y1875D01*
X27406Y1772D01*
X27427Y1668D01*
X27486Y1580D01*
X27573Y1521D01*
X27677Y1501D01*
X27781Y1521D01*
X27869Y1580D01*
X27927Y1668D01*
X27948Y1772D01*
X27927Y1875D01*
X27869Y1963D01*
X27781Y2022D01*
X27677Y2043D01*
D02*
G37*
G36*
X25000D02*
X24896Y2022D01*
X24808Y1963D01*
X24750Y1875D01*
X24729Y1772D01*
X24750Y1668D01*
X24808Y1580D01*
X24896Y1521D01*
X25000Y1501D01*
X25104Y1521D01*
X25192Y1580D01*
X25250Y1668D01*
X25271Y1772D01*
X25250Y1875D01*
X25192Y1963D01*
X25104Y2022D01*
X25000Y2043D01*
D02*
G37*
G36*
X21329Y2264D02*
X20856D01*
Y1476D01*
X20922D01*
Y1299D01*
X20933Y1243D01*
X20917Y1219D01*
X20902Y1142D01*
X20917Y1065D01*
X20960Y1000D01*
X21026Y956D01*
X21102Y941D01*
X21179Y956D01*
X21244Y1000D01*
X21288Y1065D01*
X21303Y1142D01*
X21288Y1219D01*
X21272Y1243D01*
X21283Y1299D01*
Y1476D01*
X21329D01*
Y2264D01*
D02*
G37*
G36*
X16762D02*
X16289D01*
Y1476D01*
X16315D01*
Y1299D01*
X16327Y1243D01*
X16311Y1219D01*
X16295Y1142D01*
X16311Y1065D01*
X16354Y1000D01*
X16419Y956D01*
X16496Y941D01*
X16573Y956D01*
X16638Y1000D01*
X16681Y1065D01*
X16697Y1142D01*
X16681Y1219D01*
X16665Y1243D01*
X16677Y1299D01*
Y1476D01*
X16762D01*
Y2264D01*
D02*
G37*
G36*
X12195D02*
X11722D01*
Y1476D01*
X11748D01*
Y1226D01*
X11744Y1219D01*
X11728Y1142D01*
X11744Y1065D01*
X11787Y1000D01*
X11852Y956D01*
X11929Y941D01*
X12006Y956D01*
X12071Y1000D01*
X12115Y1065D01*
X12130Y1142D01*
X12115Y1219D01*
X12110Y1226D01*
Y1476D01*
X12195D01*
Y2264D01*
D02*
G37*
G36*
X7628D02*
X7156D01*
Y1476D01*
X7182D01*
Y1226D01*
X7177Y1219D01*
X7161Y1142D01*
X7177Y1065D01*
X7220Y1000D01*
X7285Y956D01*
X7362Y941D01*
X7439Y956D01*
X7504Y1000D01*
X7548Y1065D01*
X7563Y1142D01*
X7548Y1219D01*
X7543Y1226D01*
Y1476D01*
X7628D01*
Y2264D01*
D02*
G37*
%LPD*%
G36*
X28779Y23013D02*
X28785Y22996D01*
X28795Y22981D01*
X28809Y22968D01*
X28827Y22958D01*
X28848Y22949D01*
X28874Y22942D01*
X28904Y22937D01*
X28938Y22934D01*
X28975Y22933D01*
Y22736D01*
X28938Y22735D01*
X28904Y22732D01*
X28874Y22727D01*
X28848Y22720D01*
X28827Y22712D01*
X28809Y22701D01*
X28795Y22688D01*
X28785Y22673D01*
X28779Y22657D01*
X28777Y22638D01*
Y23031D01*
X28779Y23013D01*
D02*
G37*
G36*
X29240Y22614D02*
X29215Y22637D01*
X29191Y22658D01*
X29166Y22676D01*
X29140Y22692D01*
X29114Y22706D01*
X29087Y22717D01*
X29060Y22725D01*
X29033Y22731D01*
X29005Y22735D01*
X28976Y22736D01*
Y22933D01*
X29005Y22934D01*
X29033Y22938D01*
X29060Y22944D01*
X29087Y22953D01*
X29114Y22964D01*
X29140Y22977D01*
X29166Y22993D01*
X29191Y23011D01*
X29215Y23032D01*
X29240Y23055D01*
Y22614D01*
D02*
G37*
G36*
X26908Y22416D02*
X26901Y22422D01*
X26892Y22426D01*
X26883Y22430D01*
X26873Y22434D01*
X26863Y22437D01*
X26851Y22440D01*
X26839Y22442D01*
X26813Y22444D01*
X26799Y22444D01*
X26777Y22523D01*
X26797Y22523D01*
X26828Y22526D01*
X26841Y22529D01*
X26851Y22533D01*
X26859Y22537D01*
X26865Y22542D01*
X26869Y22548D01*
X26870Y22554D01*
X26869Y22562D01*
X26908Y22416D01*
D02*
G37*
G36*
X26890Y21932D02*
X26889Y21939D01*
X26885Y21946D01*
X26880Y21952D01*
X26873Y21957D01*
X26863Y21961D01*
X26852Y21964D01*
X26838Y21967D01*
X26822Y21969D01*
X26804Y21970D01*
X26784Y21970D01*
Y22049D01*
X26804Y22050D01*
X26838Y22053D01*
X26852Y22055D01*
X26863Y22059D01*
X26873Y22063D01*
X26880Y22068D01*
X26885Y22074D01*
X26889Y22080D01*
X26890Y22088D01*
Y21932D01*
D02*
G37*
G36*
Y21432D02*
X26889Y21439D01*
X26885Y21446D01*
X26880Y21452D01*
X26873Y21457D01*
X26863Y21461D01*
X26852Y21464D01*
X26838Y21467D01*
X26822Y21469D01*
X26804Y21470D01*
X26784Y21470D01*
Y21549D01*
X26804Y21550D01*
X26838Y21553D01*
X26852Y21555D01*
X26863Y21559D01*
X26873Y21563D01*
X26880Y21568D01*
X26885Y21574D01*
X26889Y21580D01*
X26890Y21588D01*
Y21432D01*
D02*
G37*
G36*
X26966Y20903D02*
X26960Y20907D01*
X26953Y20910D01*
X26945Y20910D01*
X26936Y20909D01*
X26927Y20905D01*
X26916Y20899D01*
X26904Y20891D01*
X26892Y20882D01*
X26878Y20870D01*
X26864Y20856D01*
X26808Y20912D01*
X26822Y20926D01*
X26844Y20952D01*
X26852Y20964D01*
X26858Y20974D01*
X26861Y20984D01*
X26863Y20993D01*
X26863Y21001D01*
X26860Y21008D01*
X26856Y21014D01*
X26966Y20903D01*
D02*
G37*
G36*
X26103Y20644D02*
X26104Y20633D01*
X26106Y20623D01*
X26109Y20612D01*
X26113Y20602D01*
X26118Y20593D01*
X26124Y20583D01*
X26130Y20574D01*
X26137Y20565D01*
X26146Y20557D01*
X25980D01*
X25989Y20565D01*
X25996Y20574D01*
X26002Y20583D01*
X26008Y20593D01*
X26013Y20602D01*
X26017Y20612D01*
X26020Y20623D01*
X26022Y20633D01*
X26023Y20644D01*
X26024Y20655D01*
X26102D01*
X26103Y20644D01*
D02*
G37*
G36*
X29058Y19990D02*
X29057Y19998D01*
X29054Y20004D01*
X29050Y20010D01*
X29045Y20015D01*
X29038Y20020D01*
X29029Y20023D01*
X29018Y20026D01*
X29006Y20028D01*
X28993Y20029D01*
X28978Y20030D01*
Y20108D01*
X28993Y20109D01*
X29006Y20110D01*
X29018Y20112D01*
X29029Y20115D01*
X29038Y20118D01*
X29045Y20122D01*
X29050Y20128D01*
X29054Y20133D01*
X29057Y20140D01*
X29058Y20148D01*
Y19990D01*
D02*
G37*
G36*
X28485Y20145D02*
X28493Y20138D01*
X28501Y20131D01*
X28510Y20125D01*
X28519Y20120D01*
X28529Y20116D01*
X28539Y20112D01*
X28549Y20110D01*
X28560Y20109D01*
X28571Y20108D01*
X28564Y20030D01*
X28553Y20029D01*
X28543Y20028D01*
X28532Y20026D01*
X28522Y20023D01*
X28512Y20019D01*
X28502Y20015D01*
X28492Y20010D01*
X28482Y20004D01*
X28472Y19997D01*
X28463Y19989D01*
X28477Y20154D01*
X28485Y20145D01*
D02*
G37*
G36*
X29058Y19498D02*
X29057Y19506D01*
X29054Y19512D01*
X29050Y19518D01*
X29045Y19523D01*
X29038Y19528D01*
X29029Y19531D01*
X29018Y19534D01*
X29006Y19536D01*
X28993Y19537D01*
X28978Y19537D01*
Y19616D01*
X28993Y19617D01*
X29006Y19618D01*
X29018Y19620D01*
X29029Y19622D01*
X29038Y19626D01*
X29045Y19630D01*
X29050Y19635D01*
X29054Y19641D01*
X29057Y19648D01*
X29058Y19656D01*
Y19498D01*
D02*
G37*
G36*
X28512Y19649D02*
X28521Y19642D01*
X28531Y19636D01*
X28541Y19631D01*
X28551Y19626D01*
X28561Y19623D01*
X28571Y19620D01*
X28582Y19618D01*
X28593Y19617D01*
X28603Y19616D01*
X28610Y19537D01*
X28599Y19537D01*
X28589Y19536D01*
X28578Y19533D01*
X28568Y19530D01*
X28559Y19526D01*
X28549Y19521D01*
X28541Y19515D01*
X28532Y19508D01*
X28524Y19500D01*
X28516Y19492D01*
X28502Y19656D01*
X28512Y19649D01*
D02*
G37*
G36*
X23858Y19613D02*
X23866Y19612D01*
X23894Y19610D01*
X24064Y19608D01*
Y19411D01*
X23853Y19406D01*
Y19614D01*
X23858Y19613D01*
D02*
G37*
G36*
X23214Y19406D02*
X23209Y19407D01*
X23201Y19408D01*
X23173Y19409D01*
X23003Y19411D01*
Y19608D01*
X23214Y19614D01*
Y19406D01*
D02*
G37*
G36*
X29686Y19230D02*
X29692Y19220D01*
X29702Y19211D01*
X29715Y19204D01*
X29733Y19198D01*
X29755Y19192D01*
X29780Y19188D01*
X29810Y19185D01*
X29881Y19183D01*
Y18986D01*
X29843Y18986D01*
X29780Y18981D01*
X29755Y18977D01*
X29733Y18972D01*
X29715Y18965D01*
X29702Y18958D01*
X29692Y18949D01*
X29686Y18939D01*
X29684Y18928D01*
Y19241D01*
X29686Y19230D01*
D02*
G37*
G36*
X24243Y17971D02*
X24245Y17945D01*
X24321D01*
X24306Y17944D01*
X24293Y17939D01*
X24281Y17931D01*
X24270Y17920D01*
X24262Y17906D01*
X24257Y17894D01*
X24262Y17882D01*
X24270Y17867D01*
X24281Y17856D01*
X24293Y17848D01*
X24306Y17844D01*
X24321Y17842D01*
X24245D01*
X24243Y17817D01*
X24242Y17787D01*
X24085D01*
X24084Y17817D01*
X24082Y17842D01*
X24006D01*
X24021Y17844D01*
X24034Y17848D01*
X24046Y17856D01*
X24056Y17867D01*
X24065Y17882D01*
X24070Y17894D01*
X24065Y17906D01*
X24056Y17920D01*
X24046Y17931D01*
X24034Y17939D01*
X24021Y17944D01*
X24006Y17945D01*
X24082D01*
X24084Y17971D01*
X24085Y18001D01*
X24242D01*
X24243Y17971D01*
D02*
G37*
G36*
X29724Y17795D02*
X27559D01*
X27441Y17677D01*
X26693D01*
Y18268D01*
X29724D01*
X29724Y17795D01*
D02*
G37*
G36*
X23871Y17441D02*
X23870Y17448D01*
X23867Y17455D01*
X23863Y17461D01*
X23858Y17466D01*
X23850Y17470D01*
X23842Y17474D01*
X23831Y17477D01*
X23819Y17479D01*
X23806Y17480D01*
X23791Y17480D01*
Y17559D01*
X23806Y17559D01*
X23831Y17562D01*
X23841Y17564D01*
X23850Y17566D01*
X23857Y17569D01*
X23862Y17573D01*
X23866Y17577D01*
X23869Y17582D01*
X23869Y17587D01*
X23871Y17441D01*
D02*
G37*
G36*
X23597Y17594D02*
X23606Y17587D01*
X23615Y17580D01*
X23624Y17575D01*
X23634Y17570D01*
X23644Y17566D01*
X23654Y17563D01*
X23665Y17561D01*
X23675Y17559D01*
X23686Y17559D01*
Y17480D01*
X23675Y17480D01*
X23665Y17479D01*
X23654Y17476D01*
X23644Y17473D01*
X23634Y17469D01*
X23624Y17465D01*
X23615Y17459D01*
X23606Y17453D01*
X23597Y17445D01*
X23588Y17437D01*
Y17602D01*
X23597Y17594D01*
D02*
G37*
G36*
X24458Y17324D02*
X24461Y17318D01*
X24465Y17312D01*
X24470Y17307D01*
X24477Y17303D01*
X24486Y17299D01*
X24496Y17297D01*
X24508Y17295D01*
X24521Y17294D01*
X24536Y17293D01*
Y17215D01*
X24521Y17214D01*
X24508Y17213D01*
X24496Y17211D01*
X24486Y17208D01*
X24477Y17205D01*
X24470Y17201D01*
X24465Y17196D01*
X24461Y17190D01*
X24458Y17184D01*
X24457Y17176D01*
Y17331D01*
X24458Y17324D01*
D02*
G37*
G36*
Y17070D02*
X24461Y17065D01*
X24465Y17061D01*
X24470Y17057D01*
X24477Y17054D01*
X24486Y17052D01*
X24496Y17050D01*
X24508Y17048D01*
X24521Y17048D01*
X24536Y17047D01*
Y16968D01*
X24521Y16968D01*
X24508Y16967D01*
X24496Y16965D01*
X24486Y16962D01*
X24477Y16959D01*
X24470Y16954D01*
X24465Y16949D01*
X24461Y16943D01*
X24458Y16937D01*
X24457Y16929D01*
Y17076D01*
X24458Y17070D01*
D02*
G37*
G36*
X19509Y16979D02*
X19512Y16946D01*
X19517Y16916D01*
X19524Y16891D01*
X19532Y16869D01*
X19543Y16851D01*
X19556Y16838D01*
X19571Y16828D01*
X19588Y16822D01*
X19606Y16820D01*
X19213D01*
X19231Y16822D01*
X19248Y16828D01*
X19263Y16838D01*
X19276Y16851D01*
X19286Y16869D01*
X19295Y16891D01*
X19302Y16916D01*
X19307Y16946D01*
X19310Y16979D01*
X19311Y17017D01*
X19508D01*
X19509Y16979D01*
D02*
G37*
G36*
X29724Y18819D02*
Y18425D01*
X26535D01*
Y17087D01*
X27260D01*
X27323Y17024D01*
X27323Y16654D01*
X26220Y16654D01*
X26220Y18819D01*
X29724Y18819D01*
D02*
G37*
G36*
X15980Y16718D02*
X15973Y16709D01*
X15966Y16700D01*
X15960Y16691D01*
X15956Y16681D01*
X15952Y16671D01*
X15949Y16661D01*
X15947Y16650D01*
X15945Y16640D01*
X15945Y16629D01*
X15866D01*
X15866Y16640D01*
X15864Y16650D01*
X15862Y16661D01*
X15859Y16671D01*
X15855Y16681D01*
X15851Y16691D01*
X15845Y16700D01*
X15838Y16709D01*
X15831Y16718D01*
X15823Y16727D01*
X15988D01*
X15980Y16718D01*
D02*
G37*
G36*
X23319Y17443D02*
X23362Y17378D01*
X23427Y17334D01*
X23504Y17319D01*
X23581Y17334D01*
X23646Y17378D01*
X23660Y17399D01*
X23789D01*
Y17096D01*
Y16841D01*
X24537D01*
Y16887D01*
X25223D01*
X25223Y16887D01*
X25269Y16897D01*
X25308Y16923D01*
X25634Y17248D01*
X25706Y17218D01*
Y16703D01*
X25423Y16421D01*
X25351Y16459D01*
X25358Y16496D01*
X25343Y16573D01*
X25299Y16638D01*
X25234Y16681D01*
X25157Y16697D01*
X25081Y16681D01*
X25029Y16647D01*
X24163D01*
X24148Y16644D01*
X23789D01*
Y16391D01*
X23231D01*
Y17477D01*
X23310Y17485D01*
X23319Y17443D01*
D02*
G37*
G36*
X25080Y16407D02*
X25079Y16407D01*
X25077Y16407D01*
X25022Y16407D01*
X25008Y16407D01*
X24991Y16565D01*
X25004Y16565D01*
X25057Y16568D01*
X25062Y16569D01*
X25065Y16570D01*
X25067Y16571D01*
X25080Y16407D01*
D02*
G37*
G36*
X14553Y16492D02*
X14545Y16483D01*
X14539Y16474D01*
X14533Y16464D01*
X14529Y16455D01*
X14525Y16445D01*
X14522Y16435D01*
X14519Y16424D01*
X14518Y16413D01*
X14518Y16402D01*
X14439D01*
X14439Y16413D01*
X14437Y16424D01*
X14435Y16435D01*
X14432Y16445D01*
X14428Y16455D01*
X14423Y16464D01*
X14418Y16474D01*
X14411Y16483D01*
X14404Y16492D01*
X14396Y16500D01*
X14561D01*
X14553Y16492D01*
D02*
G37*
G36*
X15468Y16088D02*
X15461Y16079D01*
X15454Y16070D01*
X15449Y16061D01*
X15444Y16051D01*
X15440Y16041D01*
X15437Y16031D01*
X15435Y16021D01*
X15433Y16010D01*
X15433Y15999D01*
X15354D01*
X15354Y16010D01*
X15353Y16021D01*
X15350Y16031D01*
X15347Y16041D01*
X15344Y16051D01*
X15339Y16061D01*
X15333Y16070D01*
X15327Y16079D01*
X15319Y16088D01*
X15311Y16097D01*
X15476D01*
X15468Y16088D01*
D02*
G37*
G36*
X23151Y16437D02*
X23156Y16410D01*
X23164Y16386D01*
X23175Y16366D01*
X23189Y16348D01*
X23206Y16334D01*
X23227Y16323D01*
X23250Y16315D01*
X23277Y16311D01*
X23307Y16309D01*
Y16152D01*
X23277Y16150D01*
X23250Y16145D01*
X23227Y16137D01*
X23206Y16126D01*
X23189Y16112D01*
X23175Y16095D01*
X23164Y16074D01*
X23156Y16051D01*
X23151Y16024D01*
X23150Y15994D01*
X22992Y16230D01*
X23150Y16467D01*
X23151Y16437D01*
D02*
G37*
G36*
X19593Y16171D02*
X19576Y16166D01*
X19561Y16156D01*
X19548Y16142D01*
X19537Y16124D01*
X19529Y16102D01*
X19522Y16076D01*
X19517Y16047D01*
X19514Y16013D01*
X19513Y15975D01*
X19316D01*
X19315Y16013D01*
X19312Y16047D01*
X19307Y16076D01*
X19300Y16102D01*
X19291Y16124D01*
X19281Y16142D01*
X19268Y16156D01*
X19253Y16166D01*
X19236Y16171D01*
X19218Y16173D01*
X19611D01*
X19593Y16171D01*
D02*
G37*
G36*
X24458Y16045D02*
X24461Y16038D01*
X24465Y16032D01*
X24470Y16028D01*
X24477Y16023D01*
X24486Y16020D01*
X24496Y16017D01*
X24508Y16015D01*
X24521Y16014D01*
X24536Y16014D01*
Y15935D01*
X24521Y15935D01*
X24508Y15934D01*
X24496Y15932D01*
X24486Y15929D01*
X24477Y15926D01*
X24470Y15921D01*
X24465Y15916D01*
X24461Y15911D01*
X24458Y15904D01*
X24457Y15897D01*
Y16052D01*
X24458Y16045D01*
D02*
G37*
G36*
X15035Y15813D02*
X15028Y15804D01*
X15021Y15795D01*
X15016Y15785D01*
X15011Y15775D01*
X15007Y15766D01*
X15004Y15755D01*
X15002Y15745D01*
X15000Y15734D01*
X15000Y15723D01*
X14921D01*
X14921Y15734D01*
X14920Y15745D01*
X14917Y15755D01*
X14914Y15766D01*
X14910Y15775D01*
X14906Y15785D01*
X14900Y15795D01*
X14894Y15804D01*
X14886Y15813D01*
X14878Y15821D01*
X15043D01*
X15035Y15813D01*
D02*
G37*
G36*
X23154Y15714D02*
X22988D01*
X22989Y15716D01*
X22990Y15718D01*
X22990Y15723D01*
X22991Y15735D01*
X22992Y15775D01*
X22992Y15789D01*
X23150D01*
X23154Y15714D01*
D02*
G37*
G36*
X24458Y15789D02*
X24461Y15782D01*
X24465Y15777D01*
X24470Y15772D01*
X24477Y15767D01*
X24486Y15764D01*
X24496Y15761D01*
X24508Y15759D01*
X24521Y15758D01*
X24536Y15758D01*
Y15679D01*
X24521Y15679D01*
X24508Y15678D01*
X24496Y15676D01*
X24486Y15673D01*
X24477Y15670D01*
X24470Y15665D01*
X24465Y15660D01*
X24461Y15655D01*
X24458Y15648D01*
X24457Y15641D01*
Y15796D01*
X24458Y15789D01*
D02*
G37*
G36*
X23661Y15723D02*
X23669Y15701D01*
X23673Y15690D01*
X23678Y15680D01*
X23684Y15671D01*
X23689Y15662D01*
X23696Y15653D01*
X23702Y15645D01*
X23710Y15637D01*
X23668Y15567D01*
X23660Y15575D01*
X23651Y15581D01*
X23643Y15587D01*
X23633Y15591D01*
X23624Y15594D01*
X23614Y15597D01*
X23604Y15598D01*
X23594Y15598D01*
X23583Y15596D01*
X23572Y15594D01*
X23658Y15735D01*
X23661Y15723D01*
D02*
G37*
G36*
X16492Y15655D02*
X16484Y15646D01*
X16478Y15637D01*
X16472Y15628D01*
X16468Y15618D01*
X16464Y15608D01*
X16461Y15598D01*
X16458Y15587D01*
X16457Y15577D01*
X16457Y15566D01*
X16378D01*
X16378Y15577D01*
X16376Y15587D01*
X16374Y15598D01*
X16371Y15608D01*
X16367Y15618D01*
X16362Y15628D01*
X16357Y15637D01*
X16350Y15646D01*
X16343Y15655D01*
X16335Y15664D01*
X16500D01*
X16492Y15655D01*
D02*
G37*
G36*
X23871Y15422D02*
X23870Y15422D01*
X23869Y15422D01*
X23867Y15423D01*
X23850Y15423D01*
X23829Y15423D01*
Y15502D01*
X23871Y15503D01*
Y15422D01*
D02*
G37*
G36*
X13460Y15498D02*
X13453Y15489D01*
X13446Y15480D01*
X13441Y15470D01*
X13436Y15461D01*
X13432Y15451D01*
X13429Y15440D01*
X13427Y15430D01*
X13426Y15419D01*
X13425Y15408D01*
X13346D01*
X13346Y15419D01*
X13345Y15430D01*
X13343Y15440D01*
X13340Y15451D01*
X13336Y15461D01*
X13331Y15470D01*
X13325Y15480D01*
X13319Y15489D01*
X13311Y15498D01*
X13303Y15506D01*
X13469D01*
X13460Y15498D01*
D02*
G37*
G36*
X13984Y15509D02*
X13978Y15499D01*
X13972Y15489D01*
X13967Y15479D01*
X13963Y15468D01*
X13960Y15458D01*
X13957Y15448D01*
X13955Y15437D01*
X13954Y15426D01*
X13954Y15416D01*
X13875Y15404D01*
X13875Y15415D01*
X13873Y15426D01*
X13871Y15436D01*
X13867Y15446D01*
X13863Y15455D01*
X13858Y15464D01*
X13852Y15473D01*
X13845Y15481D01*
X13837Y15488D01*
X13828Y15495D01*
X13991Y15519D01*
X13984Y15509D01*
D02*
G37*
G36*
X19514Y15330D02*
X19520Y15267D01*
X19525Y15241D01*
X19532Y15219D01*
X19541Y15202D01*
X19551Y15188D01*
X19562Y15178D01*
X19576Y15172D01*
X19590Y15170D01*
X19238D01*
X19253Y15172D01*
X19266Y15178D01*
X19278Y15188D01*
X19288Y15202D01*
X19297Y15219D01*
X19304Y15241D01*
X19309Y15267D01*
X19313Y15296D01*
X19315Y15330D01*
X19316Y15367D01*
X19513D01*
X19514Y15330D01*
D02*
G37*
G36*
X16457Y15234D02*
X16458Y15220D01*
X16460Y15208D01*
X16463Y15198D01*
X16467Y15189D01*
X16471Y15182D01*
X16476Y15176D01*
X16482Y15172D01*
X16489Y15170D01*
X16496Y15169D01*
X16339D01*
X16346Y15170D01*
X16353Y15172D01*
X16359Y15176D01*
X16364Y15182D01*
X16368Y15189D01*
X16372Y15198D01*
X16374Y15208D01*
X16376Y15220D01*
X16378Y15234D01*
X16378Y15249D01*
X16457D01*
X16457Y15234D01*
D02*
G37*
G36*
X15945D02*
X15946Y15220D01*
X15948Y15208D01*
X15951Y15198D01*
X15955Y15189D01*
X15959Y15182D01*
X15964Y15176D01*
X15970Y15172D01*
X15977Y15170D01*
X15984Y15169D01*
X15827D01*
X15834Y15170D01*
X15841Y15172D01*
X15847Y15176D01*
X15852Y15182D01*
X15856Y15189D01*
X15860Y15198D01*
X15863Y15208D01*
X15865Y15220D01*
X15866Y15234D01*
X15866Y15249D01*
X15945D01*
X15945Y15234D01*
D02*
G37*
G36*
X15433D02*
X15435Y15220D01*
X15437Y15208D01*
X15439Y15198D01*
X15443Y15189D01*
X15447Y15182D01*
X15452Y15176D01*
X15458Y15172D01*
X15465Y15170D01*
X15472Y15169D01*
X15315D01*
X15322Y15170D01*
X15329Y15172D01*
X15335Y15176D01*
X15340Y15182D01*
X15344Y15189D01*
X15348Y15198D01*
X15351Y15208D01*
X15353Y15220D01*
X15354Y15234D01*
X15354Y15249D01*
X15433D01*
X15433Y15234D01*
D02*
G37*
G36*
X15000D02*
X15002Y15220D01*
X15004Y15208D01*
X15006Y15198D01*
X15010Y15189D01*
X15014Y15182D01*
X15019Y15176D01*
X15025Y15172D01*
X15032Y15170D01*
X15039Y15169D01*
X14882D01*
X14889Y15170D01*
X14896Y15172D01*
X14902Y15176D01*
X14907Y15182D01*
X14911Y15189D01*
X14915Y15198D01*
X14918Y15208D01*
X14920Y15220D01*
X14921Y15234D01*
X14921Y15249D01*
X15000D01*
X15000Y15234D01*
D02*
G37*
G36*
X14518D02*
X14519Y15220D01*
X14521Y15208D01*
X14524Y15198D01*
X14528Y15189D01*
X14532Y15182D01*
X14537Y15176D01*
X14543Y15172D01*
X14550Y15170D01*
X14557Y15169D01*
X14400D01*
X14407Y15170D01*
X14414Y15172D01*
X14420Y15176D01*
X14425Y15182D01*
X14429Y15189D01*
X14433Y15198D01*
X14435Y15208D01*
X14437Y15220D01*
X14439Y15234D01*
X14439Y15249D01*
X14518D01*
X14518Y15234D01*
D02*
G37*
G36*
X13954D02*
X13955Y15220D01*
X13957Y15208D01*
X13960Y15198D01*
X13964Y15189D01*
X13968Y15182D01*
X13973Y15176D01*
X13979Y15172D01*
X13986Y15170D01*
X13993Y15169D01*
X13836D01*
X13843Y15170D01*
X13850Y15172D01*
X13856Y15176D01*
X13861Y15182D01*
X13865Y15189D01*
X13869Y15198D01*
X13871Y15208D01*
X13873Y15220D01*
X13875Y15234D01*
X13875Y15249D01*
X13954D01*
X13954Y15234D01*
D02*
G37*
G36*
X13426D02*
X13427Y15220D01*
X13429Y15208D01*
X13432Y15198D01*
X13435Y15189D01*
X13439Y15182D01*
X13444Y15176D01*
X13450Y15172D01*
X13457Y15170D01*
X13465Y15169D01*
X13307D01*
X13315Y15170D01*
X13321Y15172D01*
X13327Y15176D01*
X13332Y15182D01*
X13337Y15189D01*
X13340Y15198D01*
X13343Y15208D01*
X13345Y15220D01*
X13346Y15234D01*
X13346Y15249D01*
X13425D01*
X13426Y15234D01*
D02*
G37*
G36*
X25090Y14656D02*
X25093Y14623D01*
X25097Y14593D01*
X25104Y14568D01*
X25113Y14546D01*
X25124Y14529D01*
X25137Y14515D01*
X25152Y14505D01*
X25168Y14499D01*
X25187Y14497D01*
X24793D01*
X24812Y14499D01*
X24829Y14505D01*
X24843Y14515D01*
X24856Y14529D01*
X24867Y14546D01*
X24876Y14568D01*
X24883Y14593D01*
X24888Y14623D01*
X24891Y14656D01*
X24892Y14694D01*
X25089D01*
X25090Y14656D01*
D02*
G37*
G36*
X29058Y14488D02*
X29057Y14496D01*
X29054Y14502D01*
X29050Y14508D01*
X29045Y14513D01*
X29038Y14518D01*
X29029Y14521D01*
X29018Y14524D01*
X29006Y14526D01*
X28993Y14527D01*
X28978Y14528D01*
Y14606D01*
X28993Y14607D01*
X29006Y14608D01*
X29018Y14610D01*
X29029Y14613D01*
X29038Y14616D01*
X29045Y14620D01*
X29050Y14626D01*
X29054Y14632D01*
X29057Y14638D01*
X29058Y14646D01*
Y14488D01*
D02*
G37*
G36*
X28754Y14641D02*
X28763Y14634D01*
X28772Y14628D01*
X28782Y14622D01*
X28791Y14617D01*
X28801Y14613D01*
X28812Y14610D01*
X28822Y14608D01*
X28833Y14607D01*
X28844Y14606D01*
Y14528D01*
X28833Y14527D01*
X28822Y14526D01*
X28812Y14524D01*
X28801Y14521D01*
X28791Y14517D01*
X28782Y14512D01*
X28772Y14506D01*
X28763Y14500D01*
X28754Y14492D01*
X28746Y14484D01*
Y14650D01*
X28754Y14641D01*
D02*
G37*
G36*
X19008Y14385D02*
X19002Y14383D01*
X18996Y14379D01*
X18991Y14373D01*
X18986Y14366D01*
X18983Y14357D01*
X18980Y14347D01*
X18978Y14335D01*
X18977Y14322D01*
X18976Y14306D01*
X18898D01*
X18897Y14322D01*
X18896Y14335D01*
X18894Y14347D01*
X18891Y14357D01*
X18888Y14366D01*
X18883Y14373D01*
X18878Y14379D01*
X18872Y14383D01*
X18866Y14385D01*
X18858Y14386D01*
X19016D01*
X19008Y14385D01*
D02*
G37*
G36*
X18486D02*
X18479Y14383D01*
X18473Y14379D01*
X18468Y14373D01*
X18464Y14366D01*
X18460Y14357D01*
X18457Y14347D01*
X18455Y14335D01*
X18454Y14322D01*
X18454Y14306D01*
X18375D01*
X18375Y14322D01*
X18373Y14335D01*
X18371Y14347D01*
X18369Y14357D01*
X18365Y14366D01*
X18361Y14373D01*
X18356Y14379D01*
X18350Y14383D01*
X18343Y14385D01*
X18336Y14386D01*
X18493D01*
X18486Y14385D01*
D02*
G37*
G36*
X17986D02*
X17979Y14383D01*
X17973Y14379D01*
X17968Y14373D01*
X17964Y14366D01*
X17960Y14357D01*
X17957Y14347D01*
X17955Y14335D01*
X17954Y14322D01*
X17954Y14306D01*
X17875D01*
X17875Y14322D01*
X17873Y14335D01*
X17871Y14347D01*
X17869Y14357D01*
X17865Y14366D01*
X17861Y14373D01*
X17856Y14379D01*
X17850Y14383D01*
X17843Y14385D01*
X17836Y14386D01*
X17993D01*
X17986Y14385D01*
D02*
G37*
G36*
X17486D02*
X17479Y14383D01*
X17473Y14379D01*
X17468Y14373D01*
X17464Y14366D01*
X17460Y14357D01*
X17457Y14347D01*
X17455Y14335D01*
X17454Y14322D01*
X17454Y14306D01*
X17375D01*
X17375Y14322D01*
X17373Y14335D01*
X17371Y14347D01*
X17369Y14357D01*
X17365Y14366D01*
X17361Y14373D01*
X17356Y14379D01*
X17350Y14383D01*
X17343Y14385D01*
X17336Y14386D01*
X17493D01*
X17486Y14385D01*
D02*
G37*
G36*
X16986D02*
X16979Y14383D01*
X16973Y14379D01*
X16968Y14373D01*
X16964Y14366D01*
X16960Y14357D01*
X16957Y14347D01*
X16955Y14335D01*
X16954Y14322D01*
X16954Y14306D01*
X16875D01*
X16875Y14322D01*
X16873Y14335D01*
X16871Y14347D01*
X16869Y14357D01*
X16865Y14366D01*
X16861Y14373D01*
X16856Y14379D01*
X16850Y14383D01*
X16843Y14385D01*
X16836Y14386D01*
X16993D01*
X16986Y14385D01*
D02*
G37*
G36*
X28726Y14153D02*
X28733Y14145D01*
X28741Y14138D01*
X28749Y14131D01*
X28758Y14126D01*
X28767Y14122D01*
X28777Y14118D01*
X28787Y14116D01*
X28798Y14115D01*
X28809Y14114D01*
X28795Y14035D01*
X28785Y14035D01*
X28774Y14034D01*
X28763Y14032D01*
X28753Y14030D01*
X28743Y14026D01*
X28732Y14022D01*
X28722Y14018D01*
X28712Y14012D01*
X28702Y14006D01*
X28691Y13999D01*
X28719Y14162D01*
X28726Y14153D01*
D02*
G37*
G36*
X29058Y13996D02*
X29057Y14004D01*
X29054Y14010D01*
X29050Y14016D01*
X29045Y14021D01*
X29038Y14026D01*
X29029Y14029D01*
X29018Y14032D01*
X29006Y14034D01*
X28993Y14035D01*
X28978Y14035D01*
Y14114D01*
X28993Y14115D01*
X29006Y14116D01*
X29018Y14118D01*
X29029Y14120D01*
X29038Y14124D01*
X29045Y14128D01*
X29050Y14133D01*
X29054Y14139D01*
X29057Y14146D01*
X29058Y14154D01*
Y13996D01*
D02*
G37*
G36*
X18977Y13911D02*
X18978Y13901D01*
X18980Y13890D01*
X18983Y13880D01*
X18987Y13870D01*
X18992Y13861D01*
X18998Y13851D01*
X19004Y13842D01*
X19011Y13833D01*
X19020Y13824D01*
X18854D01*
X18863Y13833D01*
X18870Y13842D01*
X18876Y13851D01*
X18882Y13861D01*
X18887Y13870D01*
X18891Y13880D01*
X18894Y13890D01*
X18896Y13901D01*
X18897Y13911D01*
X18898Y13922D01*
X18976D01*
X18977Y13911D01*
D02*
G37*
G36*
X14405Y13883D02*
X14398Y13875D01*
X14391Y13865D01*
X14386Y13856D01*
X14381Y13846D01*
X14377Y13836D01*
X14374Y13826D01*
X14372Y13816D01*
X14371Y13805D01*
X14370Y13794D01*
X14291D01*
X14291Y13805D01*
X14290Y13816D01*
X14287Y13826D01*
X14284Y13836D01*
X14281Y13846D01*
X14276Y13856D01*
X14270Y13865D01*
X14264Y13875D01*
X14256Y13883D01*
X14248Y13892D01*
X14413D01*
X14405Y13883D01*
D02*
G37*
G36*
X29685Y13701D02*
X29690Y13688D01*
X29698Y13676D01*
X29709Y13665D01*
X29723Y13657D01*
X29741Y13650D01*
X29761Y13644D01*
X29785Y13640D01*
X29811Y13638D01*
X29841Y13637D01*
Y13546D01*
X29857Y13637D01*
X29927Y13636D01*
X29906Y13472D01*
X29904Y13474D01*
X29901Y13475D01*
X29897Y13476D01*
X29891Y13477D01*
X29884Y13478D01*
X29855Y13479D01*
X29837Y13480D01*
X29811Y13479D01*
X29761Y13475D01*
X29741Y13471D01*
X29723Y13466D01*
X29709Y13460D01*
X29698Y13454D01*
X29690Y13446D01*
X29685Y13437D01*
X29684Y13426D01*
Y13716D01*
X29685Y13701D01*
D02*
G37*
G36*
X13413Y13252D02*
X13415Y13246D01*
X13419Y13240D01*
X13425Y13235D01*
X13432Y13230D01*
X13441Y13227D01*
X13451Y13224D01*
X13463Y13222D01*
X13477Y13221D01*
X13492Y13220D01*
Y13142D01*
X13477Y13141D01*
X13463Y13140D01*
X13451Y13138D01*
X13441Y13135D01*
X13432Y13132D01*
X13425Y13128D01*
X13419Y13122D01*
X13415Y13117D01*
X13413Y13110D01*
X13412Y13102D01*
Y13260D01*
X13413Y13252D01*
D02*
G37*
G36*
X13662Y13101D02*
X13652Y13109D01*
X13643Y13116D01*
X13633Y13122D01*
X13623Y13127D01*
X13614Y13132D01*
X13603Y13135D01*
X13593Y13138D01*
X13583Y13140D01*
X13572Y13141D01*
X13561Y13142D01*
X13555Y13220D01*
X13567Y13221D01*
X13577Y13222D01*
X13588Y13225D01*
X13598Y13228D01*
X13607Y13232D01*
X13617Y13237D01*
X13626Y13243D01*
X13634Y13250D01*
X13643Y13257D01*
X13650Y13266D01*
X13662Y13101D01*
D02*
G37*
G36*
X28425Y16512D02*
Y14114D01*
X28421Y14094D01*
X28425Y14075D01*
Y13504D01*
X28780D01*
Y13268D01*
X29724Y13268D01*
Y12913D01*
X28110D01*
X28031Y12992D01*
Y16079D01*
X28031Y16102D01*
X27992Y16142D01*
X27969Y16142D01*
X26693Y16142D01*
Y16568D01*
X27323Y16568D01*
X27339Y16575D01*
X28363Y16575D01*
X28425Y16512D01*
D02*
G37*
G36*
X27756Y12835D02*
X27795Y12795D01*
X29724D01*
Y12402D01*
X27677D01*
X27520Y12559D01*
Y15039D01*
X26693Y15039D01*
X26693Y15551D01*
X27756Y15551D01*
X27756Y12835D01*
D02*
G37*
G36*
X7263Y11217D02*
X7266Y11211D01*
X7270Y11205D01*
X7275Y11200D01*
X7282Y11195D01*
X7291Y11192D01*
X7301Y11189D01*
X7313Y11187D01*
X7326Y11186D01*
X7341Y11185D01*
Y11107D01*
X7326Y11106D01*
X7313Y11105D01*
X7301Y11103D01*
X7291Y11100D01*
X7282Y11097D01*
X7275Y11092D01*
X7270Y11087D01*
X7266Y11081D01*
X7263Y11075D01*
X7263Y11067D01*
Y11225D01*
X7263Y11217D01*
D02*
G37*
G36*
X8475Y10859D02*
X8476Y10847D01*
X8478Y10835D01*
X8480Y10825D01*
X8483Y10816D01*
X8487Y10808D01*
X8492Y10801D01*
X8497Y10796D01*
X8503Y10791D01*
X8510Y10788D01*
X8360D01*
X8367Y10791D01*
X8373Y10796D01*
X8378Y10801D01*
X8383Y10808D01*
X8387Y10816D01*
X8390Y10825D01*
X8392Y10835D01*
X8394Y10847D01*
X8395Y10859D01*
X8396Y10872D01*
X8474D01*
X8475Y10859D01*
D02*
G37*
G36*
X14169Y10616D02*
X14162Y10607D01*
X14155Y10598D01*
X14149Y10588D01*
X14145Y10579D01*
X14141Y10569D01*
X14138Y10559D01*
X14136Y10548D01*
X14134Y10537D01*
X14134Y10526D01*
X14055D01*
X14055Y10537D01*
X14053Y10548D01*
X14051Y10559D01*
X14048Y10569D01*
X14044Y10579D01*
X14040Y10588D01*
X14034Y10598D01*
X14027Y10607D01*
X14020Y10616D01*
X14012Y10624D01*
X14177D01*
X14169Y10616D01*
D02*
G37*
G36*
X17534Y10271D02*
X17543Y10264D01*
X17552Y10257D01*
X17561Y10252D01*
X17571Y10247D01*
X17581Y10243D01*
X17591Y10240D01*
X17602Y10238D01*
X17612Y10237D01*
X17623Y10236D01*
Y10157D01*
X17612Y10157D01*
X17602Y10156D01*
X17591Y10154D01*
X17581Y10151D01*
X17571Y10147D01*
X17561Y10142D01*
X17552Y10136D01*
X17543Y10130D01*
X17534Y10122D01*
X17525Y10114D01*
Y10280D01*
X17534Y10271D01*
D02*
G37*
G36*
X10551Y10177D02*
X10544Y10173D01*
X10539Y10167D01*
X10534Y10160D01*
X10531Y10152D01*
X10527Y10143D01*
X10525Y10133D01*
X10523Y10122D01*
X10522Y10110D01*
X10522Y10096D01*
X10443D01*
X10443Y10110D01*
X10441Y10122D01*
X10440Y10133D01*
X10437Y10143D01*
X10434Y10152D01*
X10430Y10160D01*
X10425Y10167D01*
X10420Y10173D01*
X10414Y10177D01*
X10407Y10181D01*
X10557D01*
X10551Y10177D01*
D02*
G37*
G36*
X10295D02*
X10289Y10173D01*
X10283Y10167D01*
X10279Y10160D01*
X10275Y10152D01*
X10271Y10143D01*
X10269Y10133D01*
X10267Y10122D01*
X10266Y10110D01*
X10266Y10096D01*
X10187D01*
X10187Y10110D01*
X10186Y10122D01*
X10184Y10133D01*
X10181Y10143D01*
X10178Y10152D01*
X10174Y10160D01*
X10170Y10167D01*
X10164Y10173D01*
X10158Y10177D01*
X10151Y10181D01*
X10301D01*
X10295Y10177D01*
D02*
G37*
G36*
X10039D02*
X10033Y10173D01*
X10027Y10167D01*
X10023Y10160D01*
X10019Y10152D01*
X10016Y10143D01*
X10013Y10133D01*
X10011Y10122D01*
X10010Y10110D01*
X10010Y10096D01*
X9931D01*
X9931Y10110D01*
X9930Y10122D01*
X9928Y10133D01*
X9925Y10143D01*
X9922Y10152D01*
X9918Y10160D01*
X9914Y10167D01*
X9908Y10173D01*
X9902Y10177D01*
X9895Y10181D01*
X10046D01*
X10039Y10177D01*
D02*
G37*
G36*
X9783D02*
X9777Y10173D01*
X9771Y10167D01*
X9767Y10160D01*
X9763Y10152D01*
X9760Y10143D01*
X9757Y10133D01*
X9755Y10122D01*
X9754Y10110D01*
X9754Y10096D01*
X9675D01*
X9675Y10110D01*
X9674Y10122D01*
X9672Y10133D01*
X9669Y10143D01*
X9666Y10152D01*
X9662Y10160D01*
X9658Y10167D01*
X9652Y10173D01*
X9646Y10177D01*
X9640Y10181D01*
X9790D01*
X9783Y10177D01*
D02*
G37*
G36*
X9527D02*
X9521Y10173D01*
X9516Y10167D01*
X9511Y10160D01*
X9507Y10152D01*
X9504Y10143D01*
X9501Y10133D01*
X9499Y10122D01*
X9498Y10110D01*
X9498Y10096D01*
X9419D01*
X9419Y10110D01*
X9418Y10122D01*
X9416Y10133D01*
X9414Y10143D01*
X9410Y10152D01*
X9406Y10160D01*
X9402Y10167D01*
X9396Y10173D01*
X9390Y10177D01*
X9384Y10181D01*
X9534D01*
X9527Y10177D01*
D02*
G37*
G36*
X9271D02*
X9265Y10173D01*
X9260Y10167D01*
X9255Y10160D01*
X9251Y10152D01*
X9248Y10143D01*
X9245Y10133D01*
X9244Y10122D01*
X9242Y10110D01*
X9242Y10096D01*
X9163D01*
X9163Y10110D01*
X9162Y10122D01*
X9160Y10133D01*
X9158Y10143D01*
X9154Y10152D01*
X9151Y10160D01*
X9146Y10167D01*
X9141Y10173D01*
X9134Y10177D01*
X9128Y10181D01*
X9278D01*
X9271Y10177D01*
D02*
G37*
G36*
X9015D02*
X9009Y10173D01*
X9004Y10167D01*
X8999Y10160D01*
X8995Y10152D01*
X8992Y10143D01*
X8989Y10133D01*
X8988Y10122D01*
X8987Y10110D01*
X8986Y10096D01*
X8907D01*
X8907Y10110D01*
X8906Y10122D01*
X8904Y10133D01*
X8902Y10143D01*
X8899Y10152D01*
X8895Y10160D01*
X8890Y10167D01*
X8885Y10173D01*
X8879Y10177D01*
X8872Y10181D01*
X9022D01*
X9015Y10177D01*
D02*
G37*
G36*
X8759D02*
X8753Y10173D01*
X8748Y10167D01*
X8743Y10160D01*
X8739Y10152D01*
X8736Y10143D01*
X8734Y10133D01*
X8732Y10122D01*
X8731Y10110D01*
X8730Y10096D01*
X8652D01*
X8651Y10110D01*
X8650Y10122D01*
X8648Y10133D01*
X8646Y10143D01*
X8643Y10152D01*
X8639Y10160D01*
X8634Y10167D01*
X8629Y10173D01*
X8623Y10177D01*
X8616Y10181D01*
X8766D01*
X8759Y10177D01*
D02*
G37*
G36*
X17515Y10104D02*
X17508Y10095D01*
X17502Y10086D01*
X17496Y10076D01*
X17491Y10067D01*
X17487Y10057D01*
X17484Y10047D01*
X17482Y10036D01*
X17481Y10026D01*
X17480Y10015D01*
X17402D01*
X17401Y10026D01*
X17400Y10036D01*
X17398Y10047D01*
X17395Y10057D01*
X17391Y10067D01*
X17386Y10076D01*
X17380Y10086D01*
X17374Y10095D01*
X17366Y10104D01*
X17358Y10113D01*
X17524D01*
X17515Y10104D01*
D02*
G37*
G36*
X12628Y9646D02*
X12627Y9653D01*
X12625Y9660D01*
X12621Y9666D01*
X12616Y9671D01*
X12608Y9675D01*
X12600Y9679D01*
X12590Y9682D01*
X12578Y9683D01*
X12564Y9685D01*
X12549Y9685D01*
Y9764D01*
X12564Y9764D01*
X12578Y9765D01*
X12590Y9767D01*
X12600Y9770D01*
X12608Y9774D01*
X12616Y9778D01*
X12621Y9783D01*
X12625Y9789D01*
X12627Y9796D01*
X12628Y9803D01*
Y9646D01*
D02*
G37*
G36*
X14842Y9668D02*
X14834Y9660D01*
X14828Y9651D01*
X14822Y9643D01*
X14817Y9633D01*
X14812Y9623D01*
X14809Y9613D01*
X14806Y9603D01*
X14804Y9592D01*
X14803Y9580D01*
X14803Y9568D01*
X14686Y9685D01*
X14698Y9685D01*
X14710Y9686D01*
X14721Y9688D01*
X14731Y9691D01*
X14741Y9694D01*
X14751Y9699D01*
X14761Y9704D01*
X14770Y9710D01*
X14778Y9716D01*
X14786Y9724D01*
X14842Y9668D01*
D02*
G37*
G36*
X12082Y9592D02*
X12075Y9583D01*
X12068Y9574D01*
X12063Y9565D01*
X12058Y9555D01*
X12054Y9545D01*
X12051Y9535D01*
X12049Y9524D01*
X12048Y9514D01*
X12047Y9503D01*
X11968D01*
X11968Y9514D01*
X11967Y9524D01*
X11965Y9535D01*
X11962Y9545D01*
X11958Y9555D01*
X11953Y9565D01*
X11947Y9574D01*
X11941Y9583D01*
X11933Y9592D01*
X11925Y9601D01*
X12091D01*
X12082Y9592D01*
D02*
G37*
G36*
X18460Y9553D02*
X18453Y9544D01*
X18446Y9535D01*
X18441Y9525D01*
X18436Y9516D01*
X18432Y9506D01*
X18429Y9496D01*
X18427Y9485D01*
X18426Y9474D01*
X18425Y9463D01*
X18346D01*
X18346Y9474D01*
X18345Y9485D01*
X18343Y9496D01*
X18340Y9506D01*
X18336Y9516D01*
X18331Y9525D01*
X18325Y9535D01*
X18319Y9544D01*
X18311Y9553D01*
X18303Y9561D01*
X18469D01*
X18460Y9553D01*
D02*
G37*
G36*
X18067D02*
X18059Y9544D01*
X18053Y9535D01*
X18047Y9525D01*
X18042Y9516D01*
X18038Y9506D01*
X18035Y9496D01*
X18033Y9485D01*
X18032Y9474D01*
X18032Y9463D01*
X17953D01*
X17952Y9474D01*
X17951Y9485D01*
X17949Y9496D01*
X17946Y9506D01*
X17942Y9516D01*
X17937Y9525D01*
X17932Y9535D01*
X17925Y9544D01*
X17918Y9553D01*
X17909Y9561D01*
X18075D01*
X18067Y9553D01*
D02*
G37*
G36*
X12048Y9413D02*
X12049Y9399D01*
X12051Y9387D01*
X12054Y9377D01*
X12057Y9368D01*
X12061Y9361D01*
X12067Y9355D01*
X12072Y9351D01*
X12079Y9349D01*
X12087Y9348D01*
X11929D01*
X11937Y9349D01*
X11943Y9351D01*
X11949Y9355D01*
X11954Y9361D01*
X11959Y9368D01*
X11962Y9377D01*
X11965Y9387D01*
X11967Y9399D01*
X11968Y9413D01*
X11968Y9428D01*
X12047D01*
X12048Y9413D01*
D02*
G37*
G36*
X12628Y9102D02*
X12627Y9110D01*
X12625Y9117D01*
X12621Y9122D01*
X12616Y9128D01*
X12608Y9132D01*
X12600Y9135D01*
X12590Y9138D01*
X12578Y9140D01*
X12564Y9141D01*
X12549Y9142D01*
Y9220D01*
X12564Y9221D01*
X12578Y9222D01*
X12590Y9224D01*
X12600Y9227D01*
X12608Y9230D01*
X12616Y9235D01*
X12621Y9240D01*
X12625Y9246D01*
X12627Y9252D01*
X12628Y9260D01*
Y9102D01*
D02*
G37*
G36*
X12135Y9252D02*
X12137Y9246D01*
X12141Y9240D01*
X12147Y9235D01*
X12154Y9230D01*
X12163Y9227D01*
X12173Y9224D01*
X12185Y9222D01*
X12199Y9221D01*
X12214Y9220D01*
Y9142D01*
X12199Y9141D01*
X12185Y9140D01*
X12173Y9138D01*
X12163Y9135D01*
X12154Y9132D01*
X12147Y9128D01*
X12141Y9122D01*
X12137Y9117D01*
X12135Y9110D01*
X12134Y9102D01*
Y9260D01*
X12135Y9252D01*
D02*
G37*
G36*
X15591Y9108D02*
X15592Y9098D01*
X15594Y9087D01*
X15597Y9077D01*
X15601Y9067D01*
X15606Y9057D01*
X15612Y9048D01*
X15618Y9039D01*
X15626Y9030D01*
X15634Y9021D01*
X15468D01*
X15477Y9030D01*
X15484Y9039D01*
X15491Y9048D01*
X15496Y9057D01*
X15501Y9067D01*
X15505Y9077D01*
X15508Y9087D01*
X15510Y9098D01*
X15511Y9108D01*
X15512Y9119D01*
X15591D01*
X15591Y9108D01*
D02*
G37*
G36*
X19051Y8962D02*
X19043Y8953D01*
X19037Y8944D01*
X19031Y8935D01*
X19027Y8925D01*
X19023Y8915D01*
X19020Y8905D01*
X19017Y8895D01*
X19016Y8884D01*
X19016Y8873D01*
X18937D01*
X18937Y8884D01*
X18935Y8895D01*
X18933Y8905D01*
X18930Y8915D01*
X18926Y8925D01*
X18921Y8935D01*
X18916Y8944D01*
X18909Y8953D01*
X18902Y8962D01*
X18894Y8971D01*
X19059D01*
X19051Y8962D01*
D02*
G37*
G36*
X19016Y8541D02*
X19017Y8527D01*
X19019Y8515D01*
X19022Y8505D01*
X19026Y8496D01*
X19030Y8489D01*
X19035Y8483D01*
X19041Y8479D01*
X19048Y8477D01*
X19055Y8476D01*
X18898D01*
X18905Y8477D01*
X18912Y8479D01*
X18918Y8483D01*
X18923Y8489D01*
X18927Y8496D01*
X18931Y8505D01*
X18933Y8515D01*
X18935Y8527D01*
X18937Y8541D01*
X18937Y8556D01*
X19016D01*
X19016Y8541D01*
D02*
G37*
G36*
X18426D02*
X18427Y8527D01*
X18429Y8515D01*
X18432Y8505D01*
X18435Y8496D01*
X18439Y8489D01*
X18444Y8483D01*
X18450Y8479D01*
X18457Y8477D01*
X18465Y8476D01*
X18307D01*
X18315Y8477D01*
X18321Y8479D01*
X18327Y8483D01*
X18332Y8489D01*
X18337Y8496D01*
X18340Y8505D01*
X18343Y8515D01*
X18345Y8527D01*
X18346Y8541D01*
X18346Y8556D01*
X18425D01*
X18426Y8541D01*
D02*
G37*
G36*
X18032D02*
X18033Y8527D01*
X18035Y8515D01*
X18038Y8505D01*
X18041Y8496D01*
X18046Y8489D01*
X18051Y8483D01*
X18057Y8479D01*
X18063Y8477D01*
X18071Y8476D01*
X17913D01*
X17921Y8477D01*
X17928Y8479D01*
X17933Y8483D01*
X17939Y8489D01*
X17943Y8496D01*
X17946Y8505D01*
X17949Y8515D01*
X17951Y8527D01*
X17952Y8541D01*
X17953Y8556D01*
X18032D01*
X18032Y8541D01*
D02*
G37*
G36*
X17481D02*
X17482Y8527D01*
X17484Y8515D01*
X17487Y8505D01*
X17490Y8496D01*
X17494Y8489D01*
X17500Y8483D01*
X17506Y8479D01*
X17512Y8477D01*
X17520Y8476D01*
X17362D01*
X17370Y8477D01*
X17376Y8479D01*
X17382Y8483D01*
X17387Y8489D01*
X17392Y8496D01*
X17395Y8505D01*
X17398Y8515D01*
X17400Y8527D01*
X17401Y8541D01*
X17402Y8556D01*
X17480D01*
X17481Y8541D01*
D02*
G37*
G36*
X13954D02*
X13955Y8527D01*
X13957Y8515D01*
X13960Y8505D01*
X13964Y8496D01*
X13968Y8489D01*
X13973Y8483D01*
X13979Y8479D01*
X13986Y8477D01*
X13993Y8476D01*
X13836D01*
X13843Y8477D01*
X13850Y8479D01*
X13856Y8483D01*
X13861Y8489D01*
X13865Y8496D01*
X13869Y8505D01*
X13871Y8515D01*
X13873Y8527D01*
X13875Y8541D01*
X13875Y8556D01*
X13954D01*
X13954Y8541D01*
D02*
G37*
G36*
X13426D02*
X13427Y8527D01*
X13429Y8515D01*
X13432Y8505D01*
X13435Y8496D01*
X13439Y8489D01*
X13444Y8483D01*
X13450Y8479D01*
X13457Y8477D01*
X13465Y8476D01*
X13307D01*
X13315Y8477D01*
X13321Y8479D01*
X13327Y8483D01*
X13332Y8489D01*
X13337Y8496D01*
X13340Y8505D01*
X13343Y8515D01*
X13345Y8527D01*
X13346Y8541D01*
X13346Y8556D01*
X13425D01*
X13426Y8541D01*
D02*
G37*
G36*
X13238Y8268D02*
X13238Y8275D01*
X13235Y8282D01*
X13231Y8288D01*
X13226Y8293D01*
X13219Y8297D01*
X13210Y8301D01*
X13200Y8304D01*
X13188Y8306D01*
X13175Y8307D01*
X13160Y8307D01*
Y8386D01*
X13175Y8386D01*
X13188Y8387D01*
X13200Y8389D01*
X13210Y8392D01*
X13219Y8396D01*
X13226Y8400D01*
X13231Y8405D01*
X13235Y8411D01*
X13238Y8418D01*
X13238Y8425D01*
Y8268D01*
D02*
G37*
G36*
X12120Y8418D02*
X12122Y8411D01*
X12126Y8405D01*
X12132Y8400D01*
X12139Y8396D01*
X12148Y8392D01*
X12158Y8389D01*
X12170Y8387D01*
X12184Y8386D01*
X12199Y8386D01*
Y8307D01*
X12184Y8307D01*
X12170Y8306D01*
X12158Y8304D01*
X12148Y8301D01*
X12139Y8297D01*
X12132Y8293D01*
X12126Y8288D01*
X12122Y8282D01*
X12120Y8275D01*
X12119Y8268D01*
Y8425D01*
X12120Y8418D01*
D02*
G37*
G36*
X11199Y8635D02*
X11251Y8591D01*
X11276Y8572D01*
X11300Y8557D01*
X11323Y8545D01*
X11345Y8535D01*
X11366Y8528D01*
X11386Y8524D01*
X11406Y8522D01*
X11172Y8244D01*
X11182Y8260D01*
X11187Y8279D01*
X11186Y8301D01*
X11180Y8325D01*
X11169Y8351D01*
X11152Y8381D01*
X11130Y8412D01*
X11103Y8446D01*
X11070Y8483D01*
X11033Y8522D01*
X11172Y8662D01*
X11199Y8635D01*
D02*
G37*
G36*
X11394Y8433D02*
X11390Y8414D01*
X11391Y8392D01*
X11397Y8368D01*
X11408Y8342D01*
X11425Y8313D01*
X11447Y8281D01*
X11474Y8247D01*
X11545Y8170D01*
X11406Y8031D01*
X11378Y8058D01*
X11326Y8102D01*
X11301Y8120D01*
X11278Y8136D01*
X11255Y8148D01*
X11233Y8158D01*
X11211Y8165D01*
X11191Y8169D01*
X11172Y8170D01*
X11404Y8449D01*
X11394Y8433D01*
D02*
G37*
G36*
X18986Y7693D02*
X18979Y7690D01*
X18973Y7686D01*
X18968Y7681D01*
X18964Y7673D01*
X18960Y7665D01*
X18957Y7654D01*
X18955Y7642D01*
X18954Y7629D01*
X18954Y7613D01*
X18875D01*
X18875Y7629D01*
X18873Y7642D01*
X18871Y7654D01*
X18869Y7665D01*
X18865Y7673D01*
X18861Y7681D01*
X18856Y7686D01*
X18850Y7690D01*
X18843Y7693D01*
X18836Y7693D01*
X18993D01*
X18986Y7693D01*
D02*
G37*
G36*
X17486D02*
X17479Y7690D01*
X17473Y7686D01*
X17468Y7681D01*
X17464Y7673D01*
X17460Y7665D01*
X17457Y7654D01*
X17455Y7642D01*
X17454Y7629D01*
X17454Y7613D01*
X17375D01*
X17375Y7629D01*
X17373Y7642D01*
X17371Y7654D01*
X17369Y7665D01*
X17365Y7673D01*
X17361Y7681D01*
X17356Y7686D01*
X17350Y7690D01*
X17343Y7693D01*
X17336Y7693D01*
X17493D01*
X17486Y7693D01*
D02*
G37*
G36*
X14986D02*
X14979Y7690D01*
X14973Y7686D01*
X14968Y7681D01*
X14964Y7673D01*
X14960Y7665D01*
X14957Y7654D01*
X14955Y7642D01*
X14954Y7629D01*
X14954Y7613D01*
X14875D01*
X14875Y7629D01*
X14873Y7642D01*
X14871Y7654D01*
X14869Y7665D01*
X14865Y7673D01*
X14861Y7681D01*
X14856Y7686D01*
X14850Y7690D01*
X14843Y7693D01*
X14836Y7693D01*
X14993D01*
X14986Y7693D01*
D02*
G37*
G36*
X14481D02*
X14474Y7690D01*
X14468Y7686D01*
X14463Y7681D01*
X14459Y7673D01*
X14455Y7665D01*
X14452Y7654D01*
X14450Y7642D01*
X14449Y7629D01*
X14449Y7613D01*
X14370D01*
X14370Y7629D01*
X14368Y7642D01*
X14367Y7654D01*
X14364Y7665D01*
X14360Y7673D01*
X14356Y7681D01*
X14351Y7686D01*
X14345Y7690D01*
X14338Y7693D01*
X14331Y7693D01*
X14488D01*
X14481Y7693D01*
D02*
G37*
G36*
X19539Y7692D02*
X19531Y7689D01*
X19523Y7684D01*
X19517Y7677D01*
X19511Y7668D01*
X19507Y7657D01*
X19503Y7644D01*
X19501Y7629D01*
X19499Y7611D01*
X19499Y7592D01*
X19399D01*
X19398Y7611D01*
X19397Y7629D01*
X19394Y7644D01*
X19391Y7657D01*
X19386Y7668D01*
X19381Y7677D01*
X19374Y7684D01*
X19367Y7689D01*
X19358Y7692D01*
X19349Y7693D01*
X19549D01*
X19539Y7692D01*
D02*
G37*
G36*
X16508D02*
X16499Y7689D01*
X16492Y7684D01*
X16485Y7677D01*
X16480Y7668D01*
X16475Y7657D01*
X16472Y7644D01*
X16469Y7629D01*
X16468Y7611D01*
X16467Y7592D01*
X16367D01*
X16367Y7611D01*
X16365Y7629D01*
X16363Y7644D01*
X16359Y7657D01*
X16355Y7668D01*
X16349Y7677D01*
X16343Y7684D01*
X16335Y7689D01*
X16327Y7692D01*
X16317Y7693D01*
X16517D01*
X16508Y7692D01*
D02*
G37*
G36*
X16075D02*
X16066Y7689D01*
X16059Y7684D01*
X16052Y7677D01*
X16047Y7668D01*
X16042Y7657D01*
X16039Y7644D01*
X16036Y7629D01*
X16035Y7611D01*
X16034Y7592D01*
X15934D01*
X15934Y7611D01*
X15932Y7629D01*
X15930Y7644D01*
X15926Y7657D01*
X15922Y7668D01*
X15916Y7677D01*
X15910Y7684D01*
X15902Y7689D01*
X15894Y7692D01*
X15884Y7693D01*
X16084D01*
X16075Y7692D01*
D02*
G37*
G36*
X15563D02*
X15554Y7689D01*
X15547Y7684D01*
X15540Y7677D01*
X15535Y7668D01*
X15530Y7657D01*
X15527Y7644D01*
X15524Y7629D01*
X15523Y7611D01*
X15522Y7592D01*
X15422D01*
X15422Y7611D01*
X15420Y7629D01*
X15418Y7644D01*
X15414Y7657D01*
X15410Y7668D01*
X15404Y7677D01*
X15398Y7684D01*
X15390Y7689D01*
X15382Y7692D01*
X15372Y7693D01*
X15572D01*
X15563Y7692D01*
D02*
G37*
G36*
X14449Y7415D02*
X14451Y7405D01*
X14453Y7394D01*
X14456Y7384D01*
X14460Y7374D01*
X14464Y7364D01*
X14470Y7355D01*
X14477Y7346D01*
X14484Y7337D01*
X14492Y7328D01*
X14327D01*
X14335Y7337D01*
X14342Y7346D01*
X14349Y7355D01*
X14354Y7364D01*
X14359Y7374D01*
X14363Y7384D01*
X14366Y7394D01*
X14368Y7405D01*
X14370Y7415D01*
X14370Y7426D01*
X14449D01*
X14449Y7415D01*
D02*
G37*
G36*
X15523Y7252D02*
X15524Y7241D01*
X15525Y7230D01*
X15528Y7220D01*
X15531Y7210D01*
X15534Y7201D01*
X15538Y7193D01*
X15543Y7185D01*
X15549Y7178D01*
X15555Y7171D01*
X15390D01*
X15396Y7178D01*
X15402Y7185D01*
X15406Y7193D01*
X15411Y7201D01*
X15414Y7210D01*
X15417Y7220D01*
X15419Y7230D01*
X15421Y7241D01*
X15422Y7252D01*
X15422Y7264D01*
X15522D01*
X15523Y7252D01*
D02*
G37*
G36*
X14954Y7015D02*
X14954Y7005D01*
X14955Y6994D01*
X14957Y6984D01*
X14959Y6973D01*
X14961Y6962D01*
X14965Y6952D01*
X14973Y6930D01*
X14979Y6920D01*
X14985Y6909D01*
X14826Y6954D01*
X14835Y6960D01*
X14843Y6966D01*
X14851Y6973D01*
X14857Y6981D01*
X14863Y6989D01*
X14867Y6998D01*
X14871Y7007D01*
X14873Y7017D01*
X14875Y7028D01*
X14875Y7039D01*
X14954Y7015D01*
D02*
G37*
G36*
X19499Y6948D02*
X19500Y6937D01*
X19502Y6926D01*
X19504Y6916D01*
X19507Y6906D01*
X19511Y6897D01*
X19515Y6888D01*
X19520Y6881D01*
X19525Y6873D01*
X19532Y6867D01*
X19366D01*
X19372Y6873D01*
X19378Y6881D01*
X19383Y6888D01*
X19387Y6897D01*
X19391Y6906D01*
X19394Y6916D01*
X19396Y6926D01*
X19398Y6937D01*
X19398Y6948D01*
X19399Y6960D01*
X19499D01*
X19499Y6948D01*
D02*
G37*
G36*
X16035Y6898D02*
X16036Y6887D01*
X16037Y6876D01*
X16039Y6866D01*
X16042Y6856D01*
X16046Y6847D01*
X16050Y6838D01*
X16055Y6831D01*
X16061Y6823D01*
X16067Y6817D01*
X15902D01*
X15908Y6823D01*
X15913Y6831D01*
X15918Y6838D01*
X15922Y6847D01*
X15926Y6856D01*
X15929Y6866D01*
X15931Y6876D01*
X15933Y6887D01*
X15934Y6898D01*
X15934Y6910D01*
X16034D01*
X16035Y6898D01*
D02*
G37*
G36*
X16468Y6701D02*
X16469Y6690D01*
X16470Y6679D01*
X16473Y6669D01*
X16475Y6659D01*
X16479Y6650D01*
X16483Y6642D01*
X16488Y6634D01*
X16494Y6626D01*
X16500Y6620D01*
X16335D01*
X16341Y6626D01*
X16346Y6634D01*
X16351Y6642D01*
X16356Y6650D01*
X16359Y6659D01*
X16362Y6669D01*
X16364Y6679D01*
X16366Y6690D01*
X16367Y6701D01*
X16367Y6713D01*
X16467D01*
X16468Y6701D01*
D02*
G37*
G36*
X18662Y6633D02*
X18663Y6619D01*
X18665Y6607D01*
X18668Y6597D01*
X18671Y6588D01*
X18676Y6581D01*
X18681Y6575D01*
X18687Y6571D01*
X18693Y6569D01*
X18701Y6568D01*
X18543D01*
X18551Y6569D01*
X18557Y6571D01*
X18563Y6575D01*
X18569Y6581D01*
X18573Y6588D01*
X18576Y6597D01*
X18579Y6607D01*
X18581Y6619D01*
X18582Y6633D01*
X18583Y6648D01*
X18661D01*
X18662Y6633D01*
D02*
G37*
G36*
X17993D02*
X17994Y6619D01*
X17996Y6607D01*
X17998Y6597D01*
X18002Y6588D01*
X18006Y6581D01*
X18011Y6575D01*
X18017Y6571D01*
X18024Y6569D01*
X18032Y6568D01*
X17874D01*
X17881Y6569D01*
X17888Y6571D01*
X17894Y6575D01*
X17899Y6581D01*
X17904Y6588D01*
X17907Y6597D01*
X17910Y6607D01*
X17912Y6619D01*
X17913Y6633D01*
X17913Y6648D01*
X17992D01*
X17993Y6633D01*
D02*
G37*
G36*
X18446Y5621D02*
X18444Y5626D01*
X18438Y5631D01*
X18428Y5635D01*
X18415Y5639D01*
X18397Y5642D01*
X18375Y5645D01*
X18320Y5648D01*
X18284Y5649D01*
X18178Y5642D01*
X18160Y5639D01*
X18146Y5635D01*
X18137Y5631D01*
X18131Y5626D01*
X18129Y5621D01*
Y5854D01*
X18131Y5853D01*
X18137Y5852D01*
X18146Y5850D01*
X18178Y5848D01*
X18268Y5847D01*
X18446Y5854D01*
Y5621D01*
D02*
G37*
G36*
X18800Y5852D02*
X18806Y5850D01*
X18816Y5848D01*
X18830Y5846D01*
X18869Y5843D01*
X18995Y5841D01*
Y5644D01*
X18958Y5644D01*
X18830Y5636D01*
X18816Y5633D01*
X18806Y5629D01*
X18800Y5625D01*
X18798Y5621D01*
Y5854D01*
X18800Y5852D01*
D02*
G37*
G36*
X17777Y5621D02*
X17775Y5626D01*
X17769Y5631D01*
X17759Y5635D01*
X17745Y5639D01*
X17728Y5642D01*
X17706Y5645D01*
X17651Y5648D01*
X17580Y5650D01*
Y5846D01*
X17777Y5854D01*
Y5621D01*
D02*
G37*
G36*
X14671Y3220D02*
X14679Y3213D01*
X14688Y3208D01*
X14698Y3203D01*
X14707Y3198D01*
X14718Y3195D01*
X14728Y3192D01*
X14739Y3190D01*
X14751Y3189D01*
X14763Y3189D01*
X14646Y3072D01*
X14645Y3084D01*
X14644Y3095D01*
X14642Y3106D01*
X14640Y3117D01*
X14636Y3127D01*
X14632Y3137D01*
X14627Y3146D01*
X14621Y3155D01*
X14615Y3164D01*
X14607Y3172D01*
X14663Y3228D01*
X14671Y3220D01*
D02*
G37*
G36*
X19287Y2984D02*
X19295Y2977D01*
X19304Y2971D01*
X19314Y2966D01*
X19323Y2962D01*
X19334Y2959D01*
X19344Y2956D01*
X19355Y2954D01*
X19367Y2953D01*
X19379Y2953D01*
X19262Y2836D01*
X19262Y2848D01*
X19260Y2859D01*
X19259Y2870D01*
X19256Y2881D01*
X19252Y2891D01*
X19248Y2901D01*
X19243Y2910D01*
X19237Y2919D01*
X19231Y2928D01*
X19223Y2936D01*
X19279Y2991D01*
X19287Y2984D01*
D02*
G37*
G36*
X11059Y2427D02*
X11051Y2418D01*
X11045Y2409D01*
X11039Y2399D01*
X11034Y2390D01*
X11031Y2380D01*
X11028Y2370D01*
X11025Y2359D01*
X11024Y2348D01*
X11024Y2337D01*
X10945D01*
X10944Y2348D01*
X10943Y2359D01*
X10941Y2370D01*
X10938Y2380D01*
X10934Y2390D01*
X10929Y2399D01*
X10924Y2409D01*
X10917Y2418D01*
X10910Y2427D01*
X10902Y2435D01*
X11067D01*
X11059Y2427D01*
D02*
G37*
G36*
X6452D02*
X6445Y2418D01*
X6439Y2409D01*
X6433Y2399D01*
X6428Y2390D01*
X6424Y2380D01*
X6421Y2370D01*
X6419Y2359D01*
X6418Y2348D01*
X6417Y2337D01*
X6339D01*
X6338Y2348D01*
X6337Y2359D01*
X6335Y2370D01*
X6332Y2380D01*
X6328Y2390D01*
X6323Y2399D01*
X6317Y2409D01*
X6311Y2418D01*
X6303Y2427D01*
X6295Y2435D01*
X6461D01*
X6452Y2427D01*
D02*
G37*
G36*
X20153Y2387D02*
X20146Y2378D01*
X20139Y2369D01*
X20134Y2360D01*
X20129Y2350D01*
X20125Y2340D01*
X20122Y2330D01*
X20120Y2320D01*
X20119Y2309D01*
X20118Y2298D01*
X20039D01*
X20039Y2309D01*
X20038Y2320D01*
X20035Y2330D01*
X20032Y2340D01*
X20029Y2350D01*
X20024Y2360D01*
X20018Y2369D01*
X20012Y2378D01*
X20004Y2387D01*
X19996Y2396D01*
X20161D01*
X20153Y2387D01*
D02*
G37*
G36*
X20119Y2248D02*
X20120Y2234D01*
X20122Y2222D01*
X20124Y2212D01*
X20128Y2204D01*
X20132Y2196D01*
X20137Y2191D01*
X20143Y2187D01*
X20150Y2185D01*
X20157Y2184D01*
X20000D01*
X20007Y2185D01*
X20014Y2187D01*
X20020Y2191D01*
X20025Y2196D01*
X20030Y2204D01*
X20033Y2212D01*
X20036Y2222D01*
X20038Y2234D01*
X20039Y2248D01*
X20039Y2263D01*
X20118D01*
X20119Y2248D01*
D02*
G37*
G36*
X19656D02*
X19657Y2234D01*
X19659Y2222D01*
X19662Y2212D01*
X19665Y2204D01*
X19670Y2196D01*
X19675Y2191D01*
X19681Y2187D01*
X19687Y2185D01*
X19695Y2184D01*
X19537D01*
X19545Y2185D01*
X19552Y2187D01*
X19557Y2191D01*
X19563Y2196D01*
X19567Y2204D01*
X19570Y2212D01*
X19573Y2222D01*
X19575Y2234D01*
X19576Y2248D01*
X19577Y2263D01*
X19656D01*
X19656Y2248D01*
D02*
G37*
G36*
X15626Y2348D02*
X15618Y2339D01*
X15612Y2330D01*
X15606Y2321D01*
X15601Y2311D01*
X15597Y2301D01*
X15594Y2291D01*
X15592Y2280D01*
X15591Y2270D01*
X15591Y2260D01*
X15591Y2248D01*
X15592Y2234D01*
X15594Y2222D01*
X15597Y2212D01*
X15600Y2204D01*
X15605Y2196D01*
X15610Y2191D01*
X15616Y2187D01*
X15622Y2185D01*
X15630Y2184D01*
X15472D01*
X15480Y2185D01*
X15487Y2187D01*
X15493Y2191D01*
X15498Y2196D01*
X15502Y2204D01*
X15506Y2212D01*
X15508Y2222D01*
X15510Y2234D01*
X15511Y2248D01*
X15512Y2260D01*
X15511Y2270D01*
X15510Y2280D01*
X15508Y2291D01*
X15505Y2301D01*
X15501Y2311D01*
X15496Y2321D01*
X15491Y2330D01*
X15484Y2339D01*
X15477Y2348D01*
X15468Y2357D01*
X15634D01*
X15626Y2348D01*
D02*
G37*
G36*
X15089Y2248D02*
X15090Y2234D01*
X15092Y2222D01*
X15095Y2212D01*
X15098Y2204D01*
X15103Y2196D01*
X15108Y2191D01*
X15114Y2187D01*
X15120Y2185D01*
X15128Y2184D01*
X14970D01*
X14978Y2185D01*
X14985Y2187D01*
X14991Y2191D01*
X14996Y2196D01*
X15000Y2204D01*
X15004Y2212D01*
X15006Y2222D01*
X15008Y2234D01*
X15009Y2248D01*
X15010Y2263D01*
X15089D01*
X15089Y2248D01*
D02*
G37*
G36*
X11024D02*
X11025Y2234D01*
X11027Y2222D01*
X11030Y2212D01*
X11033Y2204D01*
X11038Y2196D01*
X11043Y2191D01*
X11049Y2187D01*
X11056Y2185D01*
X11063Y2184D01*
X10906D01*
X10913Y2185D01*
X10920Y2187D01*
X10926Y2191D01*
X10931Y2196D01*
X10935Y2204D01*
X10939Y2212D01*
X10941Y2222D01*
X10943Y2234D01*
X10944Y2248D01*
X10945Y2263D01*
X11024D01*
X11024Y2248D01*
D02*
G37*
G36*
X10522D02*
X10523Y2234D01*
X10525Y2222D01*
X10528Y2212D01*
X10532Y2204D01*
X10536Y2196D01*
X10541Y2191D01*
X10547Y2187D01*
X10554Y2185D01*
X10561Y2184D01*
X10404D01*
X10411Y2185D01*
X10418Y2187D01*
X10424Y2191D01*
X10429Y2196D01*
X10433Y2204D01*
X10437Y2212D01*
X10439Y2222D01*
X10441Y2234D01*
X10443Y2248D01*
X10443Y2263D01*
X10522D01*
X10522Y2248D01*
D02*
G37*
G36*
X6418D02*
X6419Y2234D01*
X6421Y2222D01*
X6424Y2212D01*
X6427Y2204D01*
X6431Y2196D01*
X6437Y2191D01*
X6443Y2187D01*
X6449Y2185D01*
X6457Y2184D01*
X6299D01*
X6307Y2185D01*
X6313Y2187D01*
X6319Y2191D01*
X6324Y2196D01*
X6329Y2204D01*
X6332Y2212D01*
X6335Y2222D01*
X6337Y2234D01*
X6338Y2248D01*
X6339Y2263D01*
X6417D01*
X6418Y2248D01*
D02*
G37*
G36*
X6024D02*
X6025Y2234D01*
X6027Y2222D01*
X6030Y2212D01*
X6033Y2204D01*
X6038Y2196D01*
X6043Y2191D01*
X6049Y2187D01*
X6056Y2185D01*
X6063Y2184D01*
X5906D01*
X5913Y2185D01*
X5920Y2187D01*
X5926Y2191D01*
X5931Y2196D01*
X5935Y2204D01*
X5939Y2212D01*
X5941Y2222D01*
X5943Y2234D01*
X5944Y2248D01*
X5945Y2263D01*
X6024D01*
X6024Y2248D01*
D02*
G37*
G36*
X2758Y22638D02*
X2756Y22657D01*
X2750Y22673D01*
X2740Y22688D01*
X2727Y22701D01*
X2709Y22712D01*
X2687Y22720D01*
X2661Y22727D01*
X2632Y22732D01*
X2598Y22735D01*
X2560Y22736D01*
Y22933D01*
X2598Y22934D01*
X2632Y22937D01*
X2661Y22942D01*
X2687Y22949D01*
X2709Y22958D01*
X2727Y22968D01*
X2740Y22981D01*
X2750Y22996D01*
X2756Y23013D01*
X2758Y23031D01*
Y22638D01*
D02*
G37*
G36*
X2320Y23032D02*
X2345Y23011D01*
X2370Y22993D01*
X2395Y22977D01*
X2421Y22964D01*
X2448Y22953D01*
X2475Y22944D01*
X2503Y22938D01*
X2531Y22934D01*
X2559Y22933D01*
Y22736D01*
X2531Y22735D01*
X2503Y22731D01*
X2475Y22725D01*
X2448Y22717D01*
X2421Y22706D01*
X2395Y22692D01*
X2370Y22676D01*
X2345Y22658D01*
X2320Y22637D01*
X2296Y22614D01*
Y23055D01*
X2320Y23032D01*
D02*
G37*
G36*
X3486Y21596D02*
X3492Y21563D01*
X3502Y21533D01*
X3516Y21508D01*
X3533Y21486D01*
X3555Y21469D01*
X3581Y21455D01*
X3610Y21445D01*
X3644Y21439D01*
X3681Y21437D01*
X3386Y21240D01*
X3129Y21412D01*
Y21240D01*
X3091Y21239D01*
X3058Y21236D01*
X3028Y21231D01*
X3003Y21224D01*
X2981Y21216D01*
X2963Y21205D01*
X2950Y21192D01*
X2940Y21177D01*
X2934Y21160D01*
X2932Y21142D01*
Y21535D01*
X2934Y21517D01*
X2940Y21500D01*
X2950Y21485D01*
X2963Y21472D01*
X2981Y21462D01*
X3003Y21453D01*
X3028Y21446D01*
X3058Y21441D01*
X3091Y21438D01*
X3103Y21438D01*
X3128Y21439D01*
X3161Y21445D01*
X3191Y21455D01*
X3217Y21469D01*
X3238Y21486D01*
X3256Y21508D01*
X3270Y21533D01*
X3280Y21563D01*
X3285Y21596D01*
X3287Y21634D01*
X3484D01*
X3486Y21596D01*
D02*
G37*
G36*
X6061Y21436D02*
X6051Y21430D01*
X6042Y21420D01*
X6035Y21407D01*
X6028Y21389D01*
X6023Y21367D01*
X6019Y21342D01*
X6016Y21312D01*
X6014Y21241D01*
X5817D01*
X5816Y21279D01*
X5812Y21342D01*
X5808Y21367D01*
X5802Y21389D01*
X5796Y21407D01*
X5789Y21420D01*
X5780Y21430D01*
X5770Y21436D01*
X5759Y21438D01*
X6072D01*
X6061Y21436D01*
D02*
G37*
G36*
X19766D02*
X19760Y21430D01*
X19754Y21420D01*
X19749Y21407D01*
X19746Y21389D01*
X19742Y21367D01*
X19738Y21312D01*
X19737Y21241D01*
X19540D01*
X19539Y21279D01*
X19533Y21342D01*
X19527Y21367D01*
X19520Y21389D01*
X19511Y21407D01*
X19501Y21420D01*
X19489Y21430D01*
X19475Y21436D01*
X19460Y21438D01*
X19772D01*
X19766Y21436D01*
D02*
G37*
G36*
X15194D02*
X15185Y21430D01*
X15176Y21420D01*
X15168Y21407D01*
X15162Y21389D01*
X15157Y21367D01*
X15153Y21342D01*
X15150Y21312D01*
X15148Y21241D01*
X14951D01*
X14950Y21279D01*
X14946Y21342D01*
X14942Y21367D01*
X14936Y21389D01*
X14930Y21407D01*
X14922Y21420D01*
X14914Y21430D01*
X14904Y21436D01*
X14893Y21438D01*
X15205D01*
X15194Y21436D01*
D02*
G37*
G36*
X10628D02*
X10618Y21430D01*
X10609Y21420D01*
X10602Y21407D01*
X10595Y21389D01*
X10590Y21367D01*
X10586Y21342D01*
X10583Y21312D01*
X10581Y21241D01*
X10384D01*
X10383Y21279D01*
X10379Y21342D01*
X10375Y21367D01*
X10369Y21389D01*
X10363Y21407D01*
X10356Y21420D01*
X10347Y21430D01*
X10337Y21436D01*
X10326Y21438D01*
X10639D01*
X10628Y21436D01*
D02*
G37*
G36*
X23169Y20432D02*
X23168Y20439D01*
X23165Y20446D01*
X23160Y20452D01*
X23152Y20457D01*
X23143Y20461D01*
X23131Y20464D01*
X23117Y20467D01*
X23101Y20469D01*
X23084Y20470D01*
X23063Y20470D01*
Y20549D01*
X23084Y20550D01*
X23117Y20553D01*
X23131Y20555D01*
X23143Y20559D01*
X23152Y20563D01*
X23160Y20568D01*
X23165Y20574D01*
X23168Y20580D01*
X23169Y20588D01*
Y20432D01*
D02*
G37*
G36*
Y19932D02*
X23168Y19939D01*
X23165Y19946D01*
X23160Y19952D01*
X23152Y19957D01*
X23143Y19961D01*
X23131Y19964D01*
X23117Y19967D01*
X23101Y19969D01*
X23084Y19970D01*
X23063Y19970D01*
Y20049D01*
X23084Y20050D01*
X23117Y20053D01*
X23131Y20055D01*
X23143Y20059D01*
X23152Y20063D01*
X23160Y20068D01*
X23165Y20074D01*
X23168Y20080D01*
X23169Y20088D01*
Y19932D01*
D02*
G37*
G36*
X18504Y15722D02*
X18506Y15712D01*
X18508Y15701D01*
X18511Y15691D01*
X18515Y15681D01*
X18520Y15672D01*
X18525Y15662D01*
X18532Y15653D01*
X18539Y15644D01*
X18547Y15636D01*
X18382D01*
X18390Y15644D01*
X18397Y15653D01*
X18404Y15662D01*
X18410Y15672D01*
X18414Y15681D01*
X18418Y15691D01*
X18421Y15701D01*
X18423Y15712D01*
X18425Y15722D01*
X18425Y15733D01*
X18504D01*
X18504Y15722D01*
D02*
G37*
G36*
X18228Y15652D02*
X18220Y15644D01*
X18213Y15636D01*
X18208Y15627D01*
X18203Y15617D01*
X18198Y15608D01*
X18195Y15597D01*
X18192Y15587D01*
X18190Y15576D01*
X18189Y15564D01*
X18189Y15552D01*
X18072Y15669D01*
X18084Y15670D01*
X18095Y15671D01*
X18106Y15673D01*
X18117Y15675D01*
X18127Y15679D01*
X18137Y15683D01*
X18146Y15688D01*
X18155Y15694D01*
X18164Y15700D01*
X18172Y15708D01*
X18228Y15652D01*
D02*
G37*
G36*
X7433Y21437D02*
X7427Y21435D01*
X7421Y21431D01*
X7416Y21426D01*
X7411Y21419D01*
X7408Y21410D01*
X7405Y21400D01*
X7403Y21388D01*
X7402Y21374D01*
X7402Y21359D01*
X7323D01*
X7322Y21374D01*
X7321Y21388D01*
X7319Y21400D01*
X7317Y21410D01*
X7313Y21419D01*
X7309Y21426D01*
X7304Y21431D01*
X7298Y21435D01*
X7291Y21437D01*
X7283Y21438D01*
X7441D01*
X7433Y21437D01*
D02*
G37*
G36*
X7000D02*
X6994Y21435D01*
X6988Y21431D01*
X6983Y21426D01*
X6978Y21419D01*
X6975Y21410D01*
X6972Y21400D01*
X6970Y21388D01*
X6969Y21374D01*
X6969Y21359D01*
X6890D01*
X6889Y21374D01*
X6888Y21388D01*
X6886Y21400D01*
X6883Y21410D01*
X6880Y21419D01*
X6876Y21426D01*
X6870Y21431D01*
X6865Y21435D01*
X6858Y21437D01*
X6850Y21438D01*
X7008D01*
X7000Y21437D01*
D02*
G37*
G36*
X6965Y20854D02*
X6981Y20841D01*
X6988Y20836D01*
X6995Y20831D01*
X7002Y20828D01*
X7008Y20826D01*
X7014Y20825D01*
X7020Y20824D01*
X7026Y20825D01*
X6933Y20740D01*
X6934Y20745D01*
X6934Y20751D01*
X6933Y20757D01*
X6932Y20763D01*
X6929Y20770D01*
X6925Y20776D01*
X6921Y20783D01*
X6915Y20790D01*
X6909Y20798D01*
X6901Y20806D01*
X6957Y20861D01*
X6965Y20854D01*
D02*
G37*
G36*
X7402Y20644D02*
X7403Y20633D01*
X7405Y20623D01*
X7408Y20612D01*
X7412Y20602D01*
X7417Y20593D01*
X7423Y20583D01*
X7429Y20574D01*
X7437Y20565D01*
X7445Y20557D01*
X7280D01*
X7288Y20565D01*
X7295Y20574D01*
X7302Y20583D01*
X7307Y20593D01*
X7312Y20602D01*
X7316Y20612D01*
X7319Y20623D01*
X7321Y20633D01*
X7322Y20644D01*
X7323Y20655D01*
X7402D01*
X7402Y20644D01*
D02*
G37*
G36*
X21161Y21437D02*
X21155Y21435D01*
X21149Y21431D01*
X21145Y21426D01*
X21141Y21419D01*
X21138Y21411D01*
X21135Y21402D01*
X21133Y21390D01*
X21132Y21378D01*
X21132Y21363D01*
X21053D01*
X21053Y21378D01*
X21052Y21390D01*
X21050Y21402D01*
X21047Y21411D01*
X21044Y21419D01*
X21040Y21426D01*
X21036Y21431D01*
X21030Y21435D01*
X21024Y21437D01*
X21018Y21438D01*
X21167D01*
X21161Y21437D01*
D02*
G37*
G36*
X20672Y21437D02*
X20665Y21435D01*
X20659Y21431D01*
X20654Y21426D01*
X20650Y21419D01*
X20646Y21410D01*
X20643Y21400D01*
X20641Y21388D01*
X20640Y21374D01*
X20640Y21359D01*
X20561D01*
X20561Y21374D01*
X20559Y21388D01*
X20557Y21400D01*
X20555Y21410D01*
X20551Y21419D01*
X20547Y21426D01*
X20542Y21431D01*
X20536Y21435D01*
X20529Y21437D01*
X20522Y21438D01*
X20679D01*
X20672Y21437D01*
D02*
G37*
G36*
X16597D02*
X16590Y21435D01*
X16584Y21431D01*
X16579Y21426D01*
X16575Y21419D01*
X16571Y21410D01*
X16568Y21400D01*
X16567Y21388D01*
X16565Y21374D01*
X16565Y21359D01*
X16486D01*
X16486Y21374D01*
X16485Y21388D01*
X16483Y21400D01*
X16480Y21410D01*
X16476Y21419D01*
X16472Y21426D01*
X16467Y21431D01*
X16461Y21435D01*
X16454Y21437D01*
X16447Y21438D01*
X16604D01*
X16597Y21437D01*
D02*
G37*
G36*
X16105D02*
X16098Y21435D01*
X16092Y21431D01*
X16087Y21426D01*
X16083Y21419D01*
X16079Y21410D01*
X16076Y21400D01*
X16074Y21388D01*
X16073Y21374D01*
X16073Y21359D01*
X15994D01*
X15994Y21374D01*
X15993Y21388D01*
X15991Y21400D01*
X15988Y21410D01*
X15984Y21419D01*
X15980Y21426D01*
X15975Y21431D01*
X15969Y21435D01*
X15962Y21437D01*
X15955Y21438D01*
X16112D01*
X16105Y21437D01*
D02*
G37*
G36*
X12030D02*
X12023Y21435D01*
X12017Y21431D01*
X12012Y21426D01*
X12008Y21419D01*
X12004Y21410D01*
X12002Y21400D01*
X12000Y21388D01*
X11998Y21374D01*
X11998Y21359D01*
X11919D01*
X11919Y21374D01*
X11918Y21388D01*
X11916Y21400D01*
X11913Y21410D01*
X11909Y21419D01*
X11905Y21426D01*
X11900Y21431D01*
X11894Y21435D01*
X11887Y21437D01*
X11880Y21438D01*
X12037D01*
X12030Y21437D01*
D02*
G37*
G36*
X11538D02*
X11531Y21435D01*
X11525Y21431D01*
X11520Y21426D01*
X11516Y21419D01*
X11512Y21410D01*
X11509Y21400D01*
X11507Y21388D01*
X11506Y21374D01*
X11506Y21359D01*
X11427D01*
X11427Y21374D01*
X11426Y21388D01*
X11424Y21400D01*
X11421Y21410D01*
X11417Y21419D01*
X11413Y21426D01*
X11408Y21431D01*
X11402Y21435D01*
X11395Y21437D01*
X11388Y21438D01*
X11545D01*
X11538Y21437D01*
D02*
G37*
G36*
X10393Y20022D02*
X10385Y20014D01*
X10379Y20006D01*
X10373Y19997D01*
X10368Y19987D01*
X10364Y19978D01*
X10360Y19968D01*
X10358Y19957D01*
X10356Y19946D01*
X10355Y19934D01*
X10354Y19922D01*
X10237Y20039D01*
X10249Y20040D01*
X10261Y20041D01*
X10272Y20043D01*
X10282Y20045D01*
X10293Y20049D01*
X10302Y20053D01*
X10312Y20058D01*
X10321Y20064D01*
X10329Y20071D01*
X10337Y20078D01*
X10393Y20022D01*
D02*
G37*
G36*
X10093Y19681D02*
X10102Y19673D01*
X10111Y19667D01*
X10120Y19661D01*
X10130Y19656D01*
X10140Y19653D01*
X10150Y19650D01*
X10161Y19647D01*
X10171Y19646D01*
X10182Y19646D01*
Y19567D01*
X10171Y19567D01*
X10161Y19565D01*
X10150Y19563D01*
X10140Y19560D01*
X10130Y19556D01*
X10120Y19551D01*
X10111Y19546D01*
X10102Y19539D01*
X10093Y19532D01*
X10084Y19524D01*
Y19689D01*
X10093Y19681D01*
D02*
G37*
G36*
X9817Y19445D02*
X9826Y19437D01*
X9835Y19431D01*
X9845Y19425D01*
X9854Y19420D01*
X9864Y19416D01*
X9875Y19413D01*
X9885Y19411D01*
X9896Y19410D01*
X9907Y19409D01*
Y19331D01*
X9896Y19330D01*
X9885Y19329D01*
X9875Y19327D01*
X9864Y19324D01*
X9854Y19320D01*
X9845Y19315D01*
X9835Y19309D01*
X9826Y19303D01*
X9817Y19296D01*
X9809Y19287D01*
Y19453D01*
X9817Y19445D01*
D02*
G37*
G36*
X9561Y19214D02*
X9567Y19205D01*
X9573Y19198D01*
X9580Y19191D01*
X9588Y19186D01*
X9597Y19181D01*
X9606Y19178D01*
X9616Y19175D01*
X9626Y19174D01*
X9638Y19173D01*
X9608Y19094D01*
X9597Y19094D01*
X9577Y19092D01*
X9566Y19090D01*
X9545Y19085D01*
X9534Y19081D01*
X9512Y19072D01*
X9501Y19067D01*
X9556Y19223D01*
X9561Y19214D01*
D02*
G37*
G36*
X9306Y19011D02*
X9314Y19004D01*
X9324Y18998D01*
X9333Y18992D01*
X9343Y18987D01*
X9353Y18983D01*
X9363Y18980D01*
X9373Y18978D01*
X9384Y18977D01*
X9395Y18976D01*
Y18898D01*
X9384Y18897D01*
X9373Y18896D01*
X9363Y18894D01*
X9353Y18891D01*
X9343Y18887D01*
X9333Y18882D01*
X9324Y18876D01*
X9314Y18870D01*
X9306Y18863D01*
X9297Y18854D01*
Y19020D01*
X9306Y19011D01*
D02*
G37*
G36*
X9030Y18618D02*
X9039Y18610D01*
X9048Y18604D01*
X9057Y18598D01*
X9067Y18593D01*
X9077Y18590D01*
X9087Y18587D01*
X9098Y18584D01*
X9108Y18583D01*
X9119Y18583D01*
Y18504D01*
X9108Y18504D01*
X9098Y18502D01*
X9087Y18500D01*
X9077Y18497D01*
X9067Y18493D01*
X9057Y18488D01*
X9048Y18483D01*
X9039Y18476D01*
X9030Y18469D01*
X9021Y18461D01*
Y18626D01*
X9030Y18618D01*
D02*
G37*
G36*
X878Y21035D02*
X869Y21032D01*
X862Y21027D01*
X855Y21020D01*
X850Y21011D01*
X845Y20999D01*
X842Y20986D01*
X839Y20971D01*
X838Y20954D01*
X837Y20935D01*
X737D01*
X737Y20954D01*
X735Y20971D01*
X733Y20986D01*
X729Y20999D01*
X725Y21011D01*
X719Y21020D01*
X713Y21027D01*
X705Y21032D01*
X697Y21035D01*
X687Y21036D01*
X887D01*
X878Y21035D01*
D02*
G37*
G36*
X1232Y20363D02*
X1235Y20354D01*
X1240Y20347D01*
X1247Y20340D01*
X1256Y20335D01*
X1267Y20330D01*
X1280Y20327D01*
X1295Y20324D01*
X1313Y20323D01*
X1332Y20322D01*
Y20222D01*
X1313Y20222D01*
X1295Y20220D01*
X1280Y20218D01*
X1267Y20214D01*
X1256Y20210D01*
X1247Y20204D01*
X1240Y20198D01*
X1235Y20190D01*
X1232Y20182D01*
X1231Y20172D01*
Y20372D01*
X1232Y20363D01*
D02*
G37*
G36*
X5918Y18944D02*
X5917Y18952D01*
X5914Y18958D01*
X5908Y18964D01*
X5901Y18969D01*
X5892Y18973D01*
X5880Y18977D01*
X5866Y18979D01*
X5850Y18981D01*
X5832Y18982D01*
X5812Y18983D01*
Y19061D01*
X5832Y19062D01*
X5866Y19065D01*
X5880Y19068D01*
X5892Y19071D01*
X5901Y19075D01*
X5908Y19080D01*
X5914Y19086D01*
X5917Y19093D01*
X5918Y19100D01*
Y18944D01*
D02*
G37*
G36*
X3294Y20418D02*
Y18929D01*
X3283Y18921D01*
X3268Y18898D01*
X3127D01*
Y18964D01*
X2609D01*
X2594Y19040D01*
X2548Y19109D01*
X2479Y19155D01*
X2399Y19171D01*
X2318Y19155D01*
X2250Y19109D01*
X2204Y19040D01*
X2188Y18960D01*
X2204Y18879D01*
X2250Y18811D01*
X2318Y18765D01*
X2399Y18749D01*
X2438Y18757D01*
X2517Y18703D01*
Y18445D01*
X1962D01*
X1881Y18526D01*
Y20172D01*
X1871Y20222D01*
X1843Y20265D01*
X1743Y20365D01*
X1700Y20393D01*
X1650Y20403D01*
X1312D01*
Y20528D01*
X1370Y20577D01*
X3135D01*
X3294Y20418D01*
D02*
G37*
G36*
X3476Y18945D02*
X3476Y18934D01*
X3478Y18923D01*
X3480Y18913D01*
X3483Y18903D01*
X3487Y18894D01*
X3491Y18886D01*
X3496Y18878D01*
X3502Y18871D01*
X3508Y18864D01*
X3343D01*
X3349Y18871D01*
X3354Y18878D01*
X3359Y18886D01*
X3363Y18894D01*
X3367Y18903D01*
X3370Y18913D01*
X3372Y18923D01*
X3374Y18934D01*
X3375Y18945D01*
X3375Y18957D01*
X3475D01*
X3476Y18945D01*
D02*
G37*
G36*
X3047Y18857D02*
X3050Y18849D01*
X3055Y18841D01*
X3062Y18835D01*
X3071Y18829D01*
X3082Y18825D01*
X3096Y18821D01*
X3111Y18819D01*
X3128Y18817D01*
X3147Y18817D01*
Y18717D01*
X3128Y18716D01*
X3111Y18715D01*
X3096Y18712D01*
X3082Y18709D01*
X3071Y18704D01*
X3062Y18699D01*
X3055Y18692D01*
X3050Y18685D01*
X3047Y18676D01*
X3046Y18667D01*
Y18867D01*
X3047Y18857D01*
D02*
G37*
G36*
X3349Y18695D02*
X3508D01*
X3502Y18688D01*
X3496Y18681D01*
X3491Y18673D01*
X3487Y18665D01*
X3483Y18656D01*
X3480Y18646D01*
X3478Y18636D01*
X3476Y18625D01*
X3476Y18614D01*
X3475Y18602D01*
X3375D01*
X3375Y18614D01*
X3374Y18625D01*
X3372Y18636D01*
X3370Y18646D01*
X3367Y18656D01*
X3363Y18665D01*
X3359Y18673D01*
X3354Y18681D01*
X3349Y18688D01*
X3346Y18692D01*
X3343Y18694D01*
X3335Y18699D01*
X3327Y18703D01*
X3318Y18707D01*
X3309Y18710D01*
X3299Y18712D01*
X3289Y18714D01*
X3278Y18716D01*
X3266Y18717D01*
X3254Y18717D01*
X3242Y18817D01*
X3254Y18817D01*
X3266Y18818D01*
X3276Y18820D01*
X3286Y18823D01*
X3296Y18826D01*
X3304Y18830D01*
X3313Y18834D01*
X3320Y18840D01*
X3327Y18846D01*
X3333Y18853D01*
X3349Y18695D01*
D02*
G37*
G36*
X5918Y18444D02*
X5917Y18452D01*
X5914Y18458D01*
X5908Y18464D01*
X5901Y18469D01*
X5892Y18473D01*
X5880Y18477D01*
X5866Y18479D01*
X5850Y18481D01*
X5832Y18482D01*
X5812Y18483D01*
Y18561D01*
X5832Y18562D01*
X5866Y18565D01*
X5880Y18568D01*
X5892Y18571D01*
X5901Y18575D01*
X5908Y18580D01*
X5914Y18586D01*
X5917Y18593D01*
X5918Y18600D01*
Y18444D01*
D02*
G37*
G36*
X2597Y18256D02*
X2596Y18258D01*
X2593Y18259D01*
X2588Y18260D01*
X2581Y18261D01*
X2561Y18263D01*
X2497Y18264D01*
Y18364D01*
X2516Y18364D01*
X2593Y18369D01*
X2596Y18371D01*
X2597Y18372D01*
Y18256D01*
D02*
G37*
G36*
Y18059D02*
X2596Y18063D01*
X2594Y18066D01*
X2590Y18069D01*
X2584Y18071D01*
X2577Y18073D01*
X2569Y18075D01*
X2558Y18076D01*
X2533Y18078D01*
X2518Y18078D01*
Y18157D01*
X2533Y18157D01*
X2569Y18160D01*
X2577Y18161D01*
X2584Y18163D01*
X2590Y18166D01*
X2594Y18169D01*
X2596Y18172D01*
X2597Y18175D01*
Y18059D01*
D02*
G37*
G36*
X5918Y17944D02*
X5917Y17952D01*
X5914Y17958D01*
X5908Y17964D01*
X5901Y17969D01*
X5892Y17973D01*
X5880Y17977D01*
X5866Y17979D01*
X5850Y17981D01*
X5832Y17982D01*
X5812Y17983D01*
Y18061D01*
X5832Y18062D01*
X5866Y18065D01*
X5880Y18068D01*
X5892Y18071D01*
X5901Y18075D01*
X5908Y18080D01*
X5914Y18086D01*
X5917Y18093D01*
X5918Y18100D01*
Y17944D01*
D02*
G37*
G36*
X5593Y18096D02*
X5602Y18089D01*
X5611Y18083D01*
X5620Y18077D01*
X5630Y18072D01*
X5640Y18068D01*
X5650Y18065D01*
X5661Y18063D01*
X5671Y18062D01*
X5682Y18061D01*
Y17983D01*
X5671Y17982D01*
X5661Y17981D01*
X5650Y17979D01*
X5640Y17976D01*
X5630Y17972D01*
X5620Y17967D01*
X5611Y17961D01*
X5602Y17955D01*
X5593Y17948D01*
X5584Y17939D01*
Y18105D01*
X5593Y18096D01*
D02*
G37*
G36*
X3048Y17975D02*
X3050Y17972D01*
X3054Y17969D01*
X3060Y17967D01*
X3067Y17964D01*
X3076Y17963D01*
X3086Y17962D01*
X3111Y17960D01*
X3126Y17960D01*
Y17881D01*
X3111Y17881D01*
X3076Y17878D01*
X3067Y17876D01*
X3060Y17874D01*
X3054Y17872D01*
X3050Y17869D01*
X3048Y17866D01*
X3047Y17863D01*
Y17978D01*
X3048Y17975D01*
D02*
G37*
G36*
X3385Y17863D02*
X3387Y17843D01*
X3389Y17834D01*
X3391Y17826D01*
X3394Y17819D01*
X3397Y17813D01*
X3401Y17808D01*
X3405Y17803D01*
X3410Y17799D01*
X3280D01*
X3285Y17803D01*
X3290Y17808D01*
X3293Y17813D01*
X3297Y17819D01*
X3300Y17826D01*
X3302Y17834D01*
X3304Y17843D01*
X3305Y17853D01*
X3306Y17863D01*
X3306Y17874D01*
X3385D01*
X3385Y17863D01*
D02*
G37*
G36*
X2597Y17666D02*
X2596Y17669D01*
X2594Y17672D01*
X2590Y17675D01*
X2584Y17678D01*
X2577Y17680D01*
X2569Y17681D01*
X2558Y17683D01*
X2533Y17684D01*
X2518Y17684D01*
Y17763D01*
X2533Y17763D01*
X2569Y17766D01*
X2577Y17768D01*
X2584Y17770D01*
X2590Y17772D01*
X2594Y17775D01*
X2596Y17778D01*
X2597Y17781D01*
Y17666D01*
D02*
G37*
G36*
X3405Y17598D02*
X3401Y17594D01*
X3397Y17588D01*
X3394Y17582D01*
X3391Y17575D01*
X3389Y17567D01*
X3387Y17558D01*
X3386Y17548D01*
X3385Y17538D01*
X3385Y17527D01*
X3306D01*
X3306Y17538D01*
X3304Y17558D01*
X3302Y17567D01*
X3300Y17575D01*
X3297Y17582D01*
X3293Y17588D01*
X3290Y17594D01*
X3285Y17598D01*
X3280Y17602D01*
X3410D01*
X3405Y17598D01*
D02*
G37*
G36*
X5556Y17626D02*
X5563Y17618D01*
X5571Y17610D01*
X5579Y17604D01*
X5587Y17599D01*
X5596Y17594D01*
X5606Y17591D01*
X5616Y17588D01*
X5627Y17587D01*
X5638Y17586D01*
X5620Y17508D01*
X5609Y17507D01*
X5599Y17506D01*
X5588Y17505D01*
X5578Y17502D01*
X5567Y17499D01*
X5557Y17495D01*
X5546Y17491D01*
X5536Y17486D01*
X5515Y17473D01*
X5550Y17635D01*
X5556Y17626D01*
D02*
G37*
G36*
X3048Y17581D02*
X3050Y17578D01*
X3054Y17575D01*
X3060Y17573D01*
X3067Y17571D01*
X3076Y17569D01*
X3086Y17568D01*
X3111Y17566D01*
X3126Y17566D01*
Y17487D01*
X3111Y17487D01*
X3076Y17484D01*
X3067Y17483D01*
X3060Y17481D01*
X3054Y17478D01*
X3050Y17476D01*
X3048Y17472D01*
X3047Y17469D01*
Y17585D01*
X3048Y17581D01*
D02*
G37*
G36*
X5898Y17469D02*
X5899Y17476D01*
X5898Y17483D01*
X5894Y17489D01*
X5888Y17494D01*
X5880Y17498D01*
X5870Y17501D01*
X5857Y17504D01*
X5842Y17506D01*
X5825Y17507D01*
X5806Y17508D01*
X5826Y17586D01*
X5840Y17587D01*
X5867Y17589D01*
X5879Y17591D01*
X5890Y17594D01*
X5901Y17597D01*
X5911Y17601D01*
X5920Y17605D01*
X5929Y17610D01*
X5937Y17616D01*
X5898Y17469D01*
D02*
G37*
G36*
X2597Y17075D02*
X2596Y17077D01*
X2593Y17078D01*
X2588Y17079D01*
X2581Y17080D01*
X2561Y17082D01*
X2497Y17083D01*
Y17183D01*
X2516Y17183D01*
X2593Y17188D01*
X2596Y17189D01*
X2597Y17191D01*
Y17075D01*
D02*
G37*
G36*
X4509Y17093D02*
X4512Y17086D01*
X4517Y17080D01*
X4525Y17075D01*
X4534Y17071D01*
X4546Y17068D01*
X4560Y17065D01*
X4576Y17063D01*
X4594Y17062D01*
X4608Y17062D01*
X4612Y17062D01*
X4633Y17063D01*
X4644Y17065D01*
X4665Y17069D01*
X4675Y17072D01*
X4697Y17078D01*
X4707Y17082D01*
X4639Y16933D01*
X4635Y16942D01*
X4630Y16951D01*
X4624Y16958D01*
X4618Y16965D01*
X4611Y16970D01*
X4602Y16975D01*
X4593Y16978D01*
X4584Y16981D01*
X4581Y16981D01*
X4560Y16979D01*
X4546Y16977D01*
X4534Y16973D01*
X4525Y16969D01*
X4517Y16964D01*
X4512Y16958D01*
X4509Y16952D01*
X4508Y16944D01*
Y17100D01*
X4509Y17093D01*
D02*
G37*
G36*
X3047Y16968D02*
X3050Y16959D01*
X3055Y16952D01*
X3062Y16945D01*
X3071Y16940D01*
X3082Y16935D01*
X3096Y16932D01*
X3111Y16929D01*
X3128Y16928D01*
X3147Y16927D01*
Y16827D01*
X3128Y16827D01*
X3111Y16825D01*
X3096Y16823D01*
X3082Y16819D01*
X3071Y16815D01*
X3062Y16809D01*
X3055Y16803D01*
X3050Y16795D01*
X3047Y16787D01*
X3046Y16777D01*
Y16977D01*
X3047Y16968D01*
D02*
G37*
G36*
X4666Y16439D02*
X4657Y16448D01*
X4648Y16455D01*
X4639Y16461D01*
X4630Y16467D01*
X4620Y16472D01*
X4610Y16476D01*
X4600Y16479D01*
X4589Y16481D01*
X4585Y16481D01*
X4560Y16479D01*
X4546Y16477D01*
X4534Y16473D01*
X4525Y16469D01*
X4517Y16464D01*
X4512Y16458D01*
X4509Y16452D01*
X4508Y16444D01*
Y16600D01*
X4509Y16593D01*
X4512Y16586D01*
X4517Y16580D01*
X4525Y16575D01*
X4534Y16571D01*
X4546Y16568D01*
X4560Y16565D01*
X4576Y16563D01*
X4584Y16562D01*
X4589Y16563D01*
X4600Y16565D01*
X4610Y16568D01*
X4620Y16572D01*
X4630Y16577D01*
X4639Y16583D01*
X4648Y16589D01*
X4657Y16596D01*
X4666Y16605D01*
Y16439D01*
D02*
G37*
G36*
X1232Y15563D02*
X1235Y15554D01*
X1240Y15547D01*
X1247Y15540D01*
X1256Y15535D01*
X1267Y15530D01*
X1280Y15527D01*
X1295Y15524D01*
X1313Y15523D01*
X1332Y15522D01*
Y15422D01*
X1313Y15422D01*
X1295Y15420D01*
X1280Y15418D01*
X1267Y15414D01*
X1256Y15410D01*
X1247Y15404D01*
X1240Y15398D01*
X1235Y15390D01*
X1232Y15382D01*
X1231Y15372D01*
Y15572D01*
X1232Y15563D01*
D02*
G37*
G36*
X2566Y15139D02*
X2557Y15148D01*
X2548Y15155D01*
X2539Y15161D01*
X2530Y15167D01*
X2520Y15172D01*
X2510Y15176D01*
X2500Y15179D01*
X2489Y15181D01*
X2479Y15182D01*
X2468Y15183D01*
Y15261D01*
X2479Y15262D01*
X2489Y15263D01*
X2500Y15265D01*
X2510Y15268D01*
X2520Y15272D01*
X2530Y15277D01*
X2539Y15283D01*
X2548Y15289D01*
X2557Y15296D01*
X2566Y15305D01*
Y15139D01*
D02*
G37*
G36*
X2724Y15129D02*
X2717Y15120D01*
X2711Y15111D01*
X2705Y15102D01*
X2700Y15092D01*
X2696Y15082D01*
X2693Y15072D01*
X2691Y15061D01*
X2690Y15051D01*
X2689Y15040D01*
X2611D01*
X2610Y15051D01*
X2609Y15061D01*
X2607Y15072D01*
X2604Y15082D01*
X2600Y15092D01*
X2595Y15102D01*
X2589Y15111D01*
X2583Y15120D01*
X2576Y15129D01*
X2567Y15138D01*
X2733D01*
X2724Y15129D01*
D02*
G37*
G36*
X2690Y14794D02*
X2691Y14781D01*
X2693Y14769D01*
X2696Y14758D01*
X2699Y14750D01*
X2704Y14742D01*
X2709Y14737D01*
X2715Y14733D01*
X2721Y14730D01*
X2729Y14730D01*
X2571D01*
X2579Y14730D01*
X2585Y14733D01*
X2591Y14737D01*
X2596Y14742D01*
X2601Y14750D01*
X2604Y14758D01*
X2607Y14769D01*
X2609Y14781D01*
X2610Y14794D01*
X2611Y14809D01*
X2689D01*
X2690Y14794D01*
D02*
G37*
G36*
X6690Y14784D02*
X6691Y14771D01*
X6693Y14759D01*
X6696Y14748D01*
X6699Y14740D01*
X6704Y14732D01*
X6709Y14727D01*
X6715Y14723D01*
X6721Y14720D01*
X6729Y14720D01*
X6571D01*
X6579Y14720D01*
X6585Y14723D01*
X6591Y14727D01*
X6596Y14732D01*
X6601Y14740D01*
X6604Y14748D01*
X6607Y14759D01*
X6609Y14771D01*
X6610Y14784D01*
X6611Y14800D01*
X6689D01*
X6690Y14784D01*
D02*
G37*
G36*
X5190D02*
X5191Y14771D01*
X5193Y14759D01*
X5196Y14748D01*
X5199Y14740D01*
X5204Y14732D01*
X5209Y14727D01*
X5215Y14723D01*
X5221Y14720D01*
X5229Y14720D01*
X5071D01*
X5079Y14720D01*
X5085Y14723D01*
X5091Y14727D01*
X5096Y14732D01*
X5101Y14740D01*
X5104Y14748D01*
X5107Y14759D01*
X5109Y14771D01*
X5110Y14784D01*
X5111Y14800D01*
X5189D01*
X5190Y14784D01*
D02*
G37*
G36*
X2174Y14879D02*
X2167Y14870D01*
X2161Y14861D01*
X2155Y14852D01*
X2150Y14842D01*
X2146Y14832D01*
X2143Y14822D01*
X2141Y14811D01*
X2140Y14801D01*
X2139Y14792D01*
X2140Y14779D01*
X2141Y14766D01*
X2143Y14754D01*
X2146Y14743D01*
X2149Y14735D01*
X2154Y14727D01*
X2159Y14722D01*
X2165Y14718D01*
X2171Y14715D01*
X2179Y14715D01*
X2021D01*
X2029Y14715D01*
X2035Y14718D01*
X2041Y14722D01*
X2046Y14727D01*
X2051Y14735D01*
X2054Y14743D01*
X2057Y14754D01*
X2059Y14766D01*
X2060Y14779D01*
X2061Y14792D01*
X2060Y14801D01*
X2059Y14811D01*
X2057Y14822D01*
X2054Y14832D01*
X2050Y14842D01*
X2045Y14852D01*
X2039Y14861D01*
X2033Y14870D01*
X2026Y14879D01*
X2017Y14888D01*
X2183D01*
X2174Y14879D01*
D02*
G37*
G36*
X1333Y14766D02*
X1335Y14752D01*
X1337Y14740D01*
X1339Y14730D01*
X1343Y14721D01*
X1347Y14714D01*
X1352Y14708D01*
X1358Y14704D01*
X1365Y14702D01*
X1372Y14701D01*
X1215D01*
X1222Y14702D01*
X1229Y14704D01*
X1235Y14708D01*
X1240Y14714D01*
X1244Y14721D01*
X1248Y14730D01*
X1251Y14740D01*
X1253Y14752D01*
X1254Y14766D01*
X1254Y14781D01*
X1333D01*
X1333Y14766D01*
D02*
G37*
G36*
X6413Y13923D02*
X6406Y13928D01*
X6399Y13930D01*
X6391D01*
X6381Y13928D01*
X6371Y13923D01*
X6359Y13917D01*
X6346Y13908D01*
X6332Y13897D01*
X6301Y13868D01*
X6246Y13923D01*
X6261Y13939D01*
X6286Y13968D01*
X6295Y13981D01*
X6301Y13993D01*
X6306Y14003D01*
X6308Y14013D01*
Y14021D01*
X6306Y14028D01*
X6301Y14035D01*
X6413Y13923D01*
D02*
G37*
G36*
X5294Y14028D02*
X5292Y14021D01*
Y14013D01*
X5294Y14003D01*
X5299Y13993D01*
X5305Y13981D01*
X5314Y13968D01*
X5326Y13954D01*
X5354Y13923D01*
X5299Y13868D01*
X5283Y13883D01*
X5254Y13908D01*
X5241Y13917D01*
X5229Y13923D01*
X5219Y13928D01*
X5209Y13930D01*
X5201D01*
X5194Y13928D01*
X5187Y13923D01*
X5299Y14035D01*
X5294Y14028D01*
D02*
G37*
G36*
X5440Y13477D02*
X5441Y13463D01*
X5443Y13451D01*
X5446Y13441D01*
X5449Y13432D01*
X5454Y13425D01*
X5459Y13419D01*
X5465Y13415D01*
X5471Y13413D01*
X5479Y13412D01*
X5321D01*
X5329Y13413D01*
X5335Y13415D01*
X5341Y13419D01*
X5346Y13425D01*
X5351Y13432D01*
X5354Y13441D01*
X5357Y13451D01*
X5359Y13463D01*
X5360Y13477D01*
X5361Y13492D01*
X5439D01*
X5440Y13477D01*
D02*
G37*
G36*
X6140Y13462D02*
X6141Y13448D01*
X6143Y13436D01*
X6146Y13426D01*
X6149Y13417D01*
X6154Y13410D01*
X6159Y13404D01*
X6165Y13400D01*
X6171Y13398D01*
X6179Y13397D01*
X6021D01*
X6029Y13398D01*
X6035Y13400D01*
X6041Y13404D01*
X6046Y13410D01*
X6051Y13417D01*
X6054Y13426D01*
X6057Y13436D01*
X6059Y13448D01*
X6060Y13462D01*
X6061Y13477D01*
X6139D01*
X6140Y13462D01*
D02*
G37*
G36*
X7286Y17396D02*
X7279Y17394D01*
X7273Y17390D01*
X7268Y17384D01*
X7264Y17377D01*
X7260Y17368D01*
X7258Y17358D01*
X7256Y17346D01*
X7255Y17332D01*
X7254Y17317D01*
X7175D01*
X7175Y17332D01*
X7174Y17346D01*
X7172Y17358D01*
X7169Y17368D01*
X7166Y17377D01*
X7161Y17384D01*
X7156Y17390D01*
X7150Y17394D01*
X7144Y17396D01*
X7136Y17397D01*
X7294D01*
X7286Y17396D01*
D02*
G37*
G36*
X7255Y17160D02*
X7256Y17146D01*
X7258Y17134D01*
X7260Y17124D01*
X7264Y17116D01*
X7268Y17108D01*
X7273Y17103D01*
X7279Y17099D01*
X7286Y17097D01*
X7294Y17096D01*
X7136D01*
X7144Y17097D01*
X7150Y17099D01*
X7156Y17103D01*
X7161Y17108D01*
X7166Y17116D01*
X7169Y17124D01*
X7172Y17134D01*
X7174Y17146D01*
X7175Y17160D01*
X7175Y17175D01*
X7254D01*
X7255Y17160D01*
D02*
G37*
G36*
X6635Y16593D02*
X6638Y16586D01*
X6643Y16580D01*
X6651Y16575D01*
X6660Y16571D01*
X6672Y16568D01*
X6686Y16565D01*
X6702Y16563D01*
X6720Y16562D01*
X6740Y16561D01*
Y16483D01*
X6720Y16482D01*
X6686Y16479D01*
X6672Y16477D01*
X6660Y16473D01*
X6651Y16469D01*
X6643Y16464D01*
X6638Y16458D01*
X6635Y16452D01*
X6634Y16444D01*
Y16600D01*
X6635Y16593D01*
D02*
G37*
G36*
Y16093D02*
X6638Y16086D01*
X6643Y16080D01*
X6651Y16075D01*
X6660Y16071D01*
X6672Y16068D01*
X6686Y16065D01*
X6702Y16063D01*
X6720Y16062D01*
X6740Y16061D01*
Y15983D01*
X6720Y15982D01*
X6686Y15979D01*
X6672Y15977D01*
X6660Y15973D01*
X6651Y15969D01*
X6643Y15964D01*
X6638Y15958D01*
X6635Y15952D01*
X6634Y15944D01*
Y16100D01*
X6635Y16093D01*
D02*
G37*
G36*
X7052Y15943D02*
X7052Y15951D01*
X7049Y15957D01*
X7045Y15963D01*
X7040Y15969D01*
X7032Y15973D01*
X7024Y15976D01*
X7013Y15979D01*
X7001Y15981D01*
X6988Y15982D01*
X6972Y15983D01*
Y16061D01*
X6988Y16062D01*
X7001Y16063D01*
X7013Y16065D01*
X7024Y16068D01*
X7032Y16071D01*
X7040Y16076D01*
X7045Y16081D01*
X7049Y16087D01*
X7052Y16093D01*
X7052Y16101D01*
Y15943D01*
D02*
G37*
G36*
X7286Y15749D02*
X7279Y15746D01*
X7273Y15742D01*
X7268Y15737D01*
X7264Y15729D01*
X7260Y15721D01*
X7258Y15710D01*
X7256Y15698D01*
X7255Y15685D01*
X7254Y15670D01*
X7175D01*
X7175Y15685D01*
X7174Y15698D01*
X7172Y15710D01*
X7169Y15721D01*
X7166Y15729D01*
X7161Y15737D01*
X7156Y15742D01*
X7150Y15746D01*
X7144Y15749D01*
X7136Y15749D01*
X7294D01*
X7286Y15749D01*
D02*
G37*
G36*
X7255Y15462D02*
X7256Y15448D01*
X7258Y15437D01*
X7260Y15426D01*
X7264Y15418D01*
X7268Y15411D01*
X7273Y15405D01*
X7279Y15401D01*
X7286Y15399D01*
X7294Y15398D01*
X7136D01*
X7144Y15399D01*
X7150Y15401D01*
X7156Y15405D01*
X7161Y15411D01*
X7166Y15418D01*
X7169Y15426D01*
X7172Y15437D01*
X7174Y15448D01*
X7175Y15462D01*
X7175Y15477D01*
X7254D01*
X7255Y15462D01*
D02*
G37*
G36*
X8046Y17643D02*
X8049Y17637D01*
X8053Y17631D01*
X8058Y17626D01*
X8065Y17621D01*
X8074Y17618D01*
X8085Y17615D01*
X8097Y17613D01*
X8110Y17612D01*
X8125Y17611D01*
Y17533D01*
X8110Y17532D01*
X8097Y17531D01*
X8085Y17529D01*
X8074Y17526D01*
X8065Y17523D01*
X8058Y17519D01*
X8053Y17513D01*
X8049Y17507D01*
X8046Y17501D01*
X8045Y17493D01*
Y17651D01*
X8046Y17643D01*
D02*
G37*
G36*
X8554Y17401D02*
X8560Y17397D01*
X8567Y17393D01*
X8574Y17390D01*
X8583Y17388D01*
X8592Y17386D01*
X8602Y17384D01*
X8613Y17383D01*
X8638Y17382D01*
Y17264D01*
X8625Y17264D01*
X8602Y17262D01*
X8592Y17260D01*
X8583Y17258D01*
X8574Y17255D01*
X8567Y17252D01*
X8560Y17249D01*
X8554Y17245D01*
X8549Y17240D01*
Y17406D01*
X8554Y17401D01*
D02*
G37*
G36*
X9675Y17044D02*
X9676Y17024D01*
X9679Y17006D01*
X9683Y16991D01*
X9688Y16978D01*
X9695Y16967D01*
X9702Y16959D01*
X9711Y16953D01*
X9721Y16949D01*
X9732Y16948D01*
X9498D01*
X9509Y16949D01*
X9519Y16953D01*
X9527Y16959D01*
X9535Y16967D01*
X9541Y16978D01*
X9547Y16991D01*
X9551Y17006D01*
X9554Y17024D01*
X9555Y17044D01*
X9556Y17066D01*
X9674D01*
X9675Y17044D01*
D02*
G37*
G36*
X8784Y16722D02*
X8783Y16732D01*
X8780Y16740D01*
X8775Y16748D01*
X8768Y16754D01*
X8759Y16760D01*
X8748Y16764D01*
X8735Y16768D01*
X8719Y16770D01*
X8702Y16772D01*
X8683Y16772D01*
Y16872D01*
X8702Y16873D01*
X8719Y16874D01*
X8735Y16877D01*
X8748Y16880D01*
X8759Y16885D01*
X8768Y16890D01*
X8775Y16897D01*
X8780Y16904D01*
X8783Y16913D01*
X8784Y16922D01*
Y16722D01*
D02*
G37*
G36*
X8449Y16913D02*
X8452Y16904D01*
X8457Y16897D01*
X8464Y16890D01*
X8473Y16885D01*
X8484Y16880D01*
X8497Y16877D01*
X8512Y16874D01*
X8530Y16873D01*
X8549Y16872D01*
Y16772D01*
X8530Y16772D01*
X8512Y16770D01*
X8497Y16768D01*
X8484Y16764D01*
X8473Y16760D01*
X8464Y16754D01*
X8457Y16748D01*
X8452Y16740D01*
X8449Y16732D01*
X8448Y16722D01*
Y16922D01*
X8449Y16913D01*
D02*
G37*
G36*
X9714Y16595D02*
X9704Y16591D01*
X9695Y16586D01*
X9688Y16577D01*
X9681Y16567D01*
X9676Y16554D01*
X9672Y16538D01*
X9669Y16521D01*
X9667Y16500D01*
X9667Y16478D01*
X9548D01*
X9548Y16500D01*
X9546Y16521D01*
X9544Y16538D01*
X9540Y16554D01*
X9536Y16567D01*
X9530Y16577D01*
X9524Y16586D01*
X9516Y16591D01*
X9508Y16595D01*
X9498Y16596D01*
X9726D01*
X9714Y16595D01*
D02*
G37*
G36*
X9667Y16294D02*
X9669Y16274D01*
X9671Y16256D01*
X9675Y16241D01*
X9679Y16228D01*
X9685Y16217D01*
X9691Y16209D01*
X9699Y16203D01*
X9707Y16199D01*
X9717Y16198D01*
X9489Y16197D01*
X9501Y16198D01*
X9511Y16202D01*
X9519Y16208D01*
X9527Y16216D01*
X9534Y16227D01*
X9539Y16240D01*
X9543Y16255D01*
X9546Y16273D01*
X9548Y16294D01*
X9548Y16316D01*
X9667D01*
X9667Y16294D01*
D02*
G37*
G36*
X8769Y15922D02*
X8768Y15932D01*
X8765Y15940D01*
X8760Y15948D01*
X8753Y15954D01*
X8744Y15960D01*
X8733Y15964D01*
X8720Y15968D01*
X8705Y15970D01*
X8687Y15972D01*
X8668Y15972D01*
Y16072D01*
X8687Y16073D01*
X8705Y16074D01*
X8720Y16077D01*
X8733Y16080D01*
X8744Y16085D01*
X8753Y16090D01*
X8760Y16097D01*
X8765Y16104D01*
X8768Y16113D01*
X8769Y16122D01*
Y15922D01*
D02*
G37*
G36*
X8449Y16113D02*
X8452Y16104D01*
X8457Y16097D01*
X8464Y16090D01*
X8473Y16085D01*
X8484Y16080D01*
X8497Y16077D01*
X8512Y16074D01*
X8530Y16073D01*
X8549Y16072D01*
Y15972D01*
X8530Y15972D01*
X8512Y15970D01*
X8497Y15968D01*
X8484Y15964D01*
X8473Y15960D01*
X8464Y15954D01*
X8457Y15948D01*
X8452Y15940D01*
X8449Y15932D01*
X8448Y15922D01*
Y16122D01*
X8449Y16113D01*
D02*
G37*
G36*
X9706Y15845D02*
X9696Y15841D01*
X9687Y15835D01*
X9680Y15827D01*
X9674Y15817D01*
X9668Y15804D01*
X9664Y15788D01*
X9661Y15770D01*
X9660Y15750D01*
X9659Y15728D01*
X9541D01*
X9540Y15750D01*
X9539Y15770D01*
X9536Y15788D01*
X9532Y15804D01*
X9526Y15817D01*
X9520Y15827D01*
X9513Y15835D01*
X9504Y15841D01*
X9494Y15845D01*
X9483Y15846D01*
X9717D01*
X9706Y15845D01*
D02*
G37*
G36*
X8672Y15551D02*
X8678Y15547D01*
X8685Y15543D01*
X8692Y15540D01*
X8701Y15537D01*
X8710Y15535D01*
X8720Y15534D01*
X8731Y15532D01*
X8756Y15532D01*
Y15413D01*
X8743Y15413D01*
X8720Y15411D01*
X8710Y15410D01*
X8701Y15407D01*
X8692Y15405D01*
X8685Y15402D01*
X8678Y15398D01*
X8672Y15394D01*
X8667Y15390D01*
Y15555D01*
X8672Y15551D01*
D02*
G37*
G36*
X8046Y15293D02*
X8049Y15287D01*
X8053Y15281D01*
X8058Y15276D01*
X8065Y15271D01*
X8074Y15268D01*
X8085Y15265D01*
X8097Y15263D01*
X8110Y15262D01*
X8125Y15261D01*
Y15183D01*
X8110Y15182D01*
X8097Y15181D01*
X8085Y15179D01*
X8074Y15176D01*
X8065Y15173D01*
X8058Y15168D01*
X8053Y15163D01*
X8049Y15157D01*
X8046Y15151D01*
X8045Y15143D01*
Y15301D01*
X8046Y15293D01*
D02*
G37*
G36*
X10823Y14870D02*
X10815Y14862D01*
X10807Y14854D01*
X10800Y14845D01*
X10794Y14836D01*
X10789Y14827D01*
X10785Y14818D01*
X10782Y14808D01*
X10779Y14797D01*
X10778Y14786D01*
X10778Y14775D01*
X10699Y14782D01*
X10698Y14793D01*
X10697Y14804D01*
X10695Y14814D01*
X10692Y14825D01*
X10689Y14835D01*
X10684Y14845D01*
X10679Y14855D01*
X10673Y14865D01*
X10666Y14874D01*
X10659Y14883D01*
X10823Y14870D01*
D02*
G37*
G36*
X10312D02*
X10303Y14862D01*
X10295Y14854D01*
X10288Y14845D01*
X10282Y14836D01*
X10277Y14827D01*
X10273Y14818D01*
X10270Y14808D01*
X10268Y14797D01*
X10266Y14786D01*
X10266Y14775D01*
X10187Y14782D01*
X10187Y14793D01*
X10185Y14804D01*
X10183Y14814D01*
X10181Y14825D01*
X10177Y14835D01*
X10173Y14845D01*
X10167Y14855D01*
X10161Y14865D01*
X10154Y14874D01*
X10147Y14883D01*
X10312Y14870D01*
D02*
G37*
G36*
X9800D02*
X9791Y14862D01*
X9783Y14854D01*
X9776Y14845D01*
X9770Y14836D01*
X9765Y14827D01*
X9761Y14818D01*
X9758Y14808D01*
X9756Y14797D01*
X9754Y14786D01*
X9754Y14775D01*
X9675Y14782D01*
X9675Y14793D01*
X9674Y14804D01*
X9672Y14814D01*
X9669Y14825D01*
X9665Y14835D01*
X9661Y14845D01*
X9656Y14855D01*
X9649Y14865D01*
X9643Y14874D01*
X9635Y14883D01*
X9800Y14870D01*
D02*
G37*
G36*
X9268Y14889D02*
X9263Y14878D01*
X9258Y14866D01*
X9254Y14854D01*
X9250Y14842D01*
X9247Y14829D01*
X9245Y14816D01*
X9242Y14789D01*
X9242Y14775D01*
X9163Y14772D01*
X9163Y14783D01*
X9161Y14794D01*
X9159Y14804D01*
X9156Y14814D01*
X9151Y14823D01*
X9146Y14831D01*
X9139Y14839D01*
X9132Y14846D01*
X9124Y14852D01*
X9114Y14858D01*
X9274Y14900D01*
X9268Y14889D01*
D02*
G37*
G36*
X11374Y14671D02*
X11366Y14662D01*
X11360Y14653D01*
X11354Y14643D01*
X11349Y14634D01*
X11346Y14624D01*
X11342Y14614D01*
X11340Y14603D01*
X11339Y14593D01*
X11339Y14582D01*
X11260D01*
X11259Y14593D01*
X11258Y14603D01*
X11256Y14614D01*
X11253Y14624D01*
X11249Y14634D01*
X11244Y14643D01*
X11239Y14653D01*
X11232Y14662D01*
X11225Y14671D01*
X11217Y14679D01*
X11382D01*
X11374Y14671D01*
D02*
G37*
G36*
X10554Y14598D02*
X10547Y14589D01*
X10541Y14579D01*
X10536Y14569D01*
X10532Y14559D01*
X10528Y14549D01*
X10525Y14539D01*
X10523Y14528D01*
X10522Y14518D01*
X10522Y14507D01*
X10443Y14500D01*
X10442Y14511D01*
X10441Y14522D01*
X10439Y14532D01*
X10436Y14542D01*
X10431Y14552D01*
X10426Y14561D01*
X10420Y14570D01*
X10414Y14578D01*
X10406Y14586D01*
X10397Y14594D01*
X10562Y14608D01*
X10554Y14598D01*
D02*
G37*
G36*
X10042D02*
X10036Y14589D01*
X10030Y14579D01*
X10024Y14569D01*
X10020Y14559D01*
X10016Y14549D01*
X10013Y14539D01*
X10011Y14528D01*
X10010Y14518D01*
X10010Y14507D01*
X9931Y14500D01*
X9931Y14511D01*
X9929Y14522D01*
X9927Y14532D01*
X9924Y14542D01*
X9920Y14552D01*
X9915Y14561D01*
X9909Y14570D01*
X9902Y14578D01*
X9894Y14586D01*
X9885Y14594D01*
X10050Y14608D01*
X10042Y14598D01*
D02*
G37*
G36*
X9531D02*
X9524Y14589D01*
X9518Y14579D01*
X9513Y14569D01*
X9508Y14559D01*
X9504Y14549D01*
X9502Y14539D01*
X9500Y14528D01*
X9498Y14518D01*
X9498Y14507D01*
X9419Y14500D01*
X9419Y14511D01*
X9417Y14522D01*
X9415Y14532D01*
X9412Y14542D01*
X9408Y14552D01*
X9403Y14561D01*
X9397Y14570D01*
X9390Y14578D01*
X9382Y14586D01*
X9373Y14594D01*
X9538Y14608D01*
X9531Y14598D01*
D02*
G37*
G36*
X9019D02*
X9012Y14589D01*
X9006Y14579D01*
X9001Y14569D01*
X8996Y14559D01*
X8993Y14549D01*
X8990Y14539D01*
X8988Y14528D01*
X8987Y14518D01*
X8986Y14507D01*
X8907Y14500D01*
X8907Y14511D01*
X8906Y14522D01*
X8903Y14532D01*
X8900Y14542D01*
X8896Y14552D01*
X8891Y14561D01*
X8885Y14570D01*
X8878Y14578D01*
X8870Y14586D01*
X8862Y14594D01*
X9026Y14608D01*
X9019Y14598D01*
D02*
G37*
G36*
X11715Y14386D02*
X11706Y14364D01*
X11703Y14353D01*
X11697Y14332D01*
X11695Y14321D01*
X11693Y14300D01*
X11693Y14290D01*
X11614Y14260D01*
X11614Y14271D01*
X11612Y14282D01*
X11610Y14292D01*
X11606Y14301D01*
X11602Y14310D01*
X11596Y14318D01*
X11590Y14325D01*
X11582Y14331D01*
X11574Y14337D01*
X11564Y14342D01*
X11720Y14397D01*
X11715Y14386D01*
D02*
G37*
G36*
X8224Y13372D02*
X8217Y13362D01*
X8210Y13353D01*
X8205Y13343D01*
X8200Y13333D01*
X8196Y13322D01*
X8193Y13311D01*
X8191Y13300D01*
X8189Y13288D01*
X8189Y13276D01*
X8110D01*
X8110Y13288D01*
X8109Y13300D01*
X8106Y13311D01*
X8103Y13322D01*
X8099Y13333D01*
X8095Y13343D01*
X8089Y13353D01*
X8083Y13362D01*
X8075Y13371D01*
X8067Y13380D01*
X8232Y13380D01*
X8224Y13372D01*
D02*
G37*
G36*
X10778Y13119D02*
X10779Y13106D01*
X10781Y13095D01*
X10783Y13085D01*
X10786Y13076D01*
X10790Y13068D01*
X10795Y13061D01*
X10800Y13056D01*
X10806Y13051D01*
X10813Y13047D01*
X10663D01*
X10670Y13051D01*
X10676Y13056D01*
X10681Y13061D01*
X10686Y13068D01*
X10690Y13076D01*
X10693Y13085D01*
X10696Y13095D01*
X10697Y13106D01*
X10698Y13119D01*
X10699Y13132D01*
X10778D01*
X10778Y13119D01*
D02*
G37*
G36*
X10522D02*
X10523Y13106D01*
X10525Y13095D01*
X10527Y13085D01*
X10531Y13076D01*
X10534Y13068D01*
X10539Y13061D01*
X10544Y13056D01*
X10551Y13051D01*
X10557Y13047D01*
X10407D01*
X10414Y13051D01*
X10420Y13056D01*
X10425Y13061D01*
X10430Y13068D01*
X10434Y13076D01*
X10437Y13085D01*
X10440Y13095D01*
X10441Y13106D01*
X10443Y13119D01*
X10443Y13132D01*
X10522D01*
X10522Y13119D01*
D02*
G37*
G36*
X10266D02*
X10267Y13106D01*
X10269Y13095D01*
X10271Y13085D01*
X10275Y13076D01*
X10279Y13068D01*
X10283Y13061D01*
X10289Y13056D01*
X10295Y13051D01*
X10301Y13047D01*
X10151D01*
X10158Y13051D01*
X10164Y13056D01*
X10170Y13061D01*
X10174Y13068D01*
X10178Y13076D01*
X10181Y13085D01*
X10184Y13095D01*
X10186Y13106D01*
X10187Y13119D01*
X10187Y13132D01*
X10266D01*
X10266Y13119D01*
D02*
G37*
G36*
X10010D02*
X10011Y13106D01*
X10013Y13095D01*
X10016Y13085D01*
X10019Y13076D01*
X10023Y13068D01*
X10027Y13061D01*
X10033Y13056D01*
X10039Y13051D01*
X10046Y13047D01*
X9895D01*
X9902Y13051D01*
X9908Y13056D01*
X9914Y13061D01*
X9918Y13068D01*
X9922Y13076D01*
X9925Y13085D01*
X9928Y13095D01*
X9930Y13106D01*
X9931Y13119D01*
X9931Y13132D01*
X10010D01*
X10010Y13119D01*
D02*
G37*
G36*
X9754D02*
X9755Y13106D01*
X9757Y13095D01*
X9760Y13085D01*
X9763Y13076D01*
X9767Y13068D01*
X9771Y13061D01*
X9777Y13056D01*
X9783Y13051D01*
X9790Y13047D01*
X9640D01*
X9646Y13051D01*
X9652Y13056D01*
X9658Y13061D01*
X9662Y13068D01*
X9666Y13076D01*
X9669Y13085D01*
X9672Y13095D01*
X9674Y13106D01*
X9675Y13119D01*
X9675Y13132D01*
X9754D01*
X9754Y13119D01*
D02*
G37*
G36*
X9498D02*
X9499Y13106D01*
X9501Y13095D01*
X9504Y13085D01*
X9507Y13076D01*
X9511Y13068D01*
X9516Y13061D01*
X9521Y13056D01*
X9527Y13051D01*
X9534Y13047D01*
X9384D01*
X9390Y13051D01*
X9396Y13056D01*
X9402Y13061D01*
X9406Y13068D01*
X9410Y13076D01*
X9414Y13085D01*
X9416Y13095D01*
X9418Y13106D01*
X9419Y13119D01*
X9419Y13132D01*
X9498D01*
X9498Y13119D01*
D02*
G37*
G36*
X9242D02*
X9244Y13106D01*
X9245Y13095D01*
X9248Y13085D01*
X9251Y13076D01*
X9255Y13068D01*
X9260Y13061D01*
X9265Y13056D01*
X9271Y13051D01*
X9278Y13047D01*
X9128D01*
X9134Y13051D01*
X9141Y13056D01*
X9146Y13061D01*
X9151Y13068D01*
X9154Y13076D01*
X9158Y13085D01*
X9160Y13095D01*
X9162Y13106D01*
X9163Y13119D01*
X9163Y13132D01*
X9242D01*
X9242Y13119D01*
D02*
G37*
G36*
X8987D02*
X8988Y13106D01*
X8989Y13095D01*
X8992Y13085D01*
X8995Y13076D01*
X8999Y13068D01*
X9004Y13061D01*
X9009Y13056D01*
X9015Y13051D01*
X9022Y13047D01*
X8872D01*
X8879Y13051D01*
X8885Y13056D01*
X8890Y13061D01*
X8895Y13068D01*
X8899Y13076D01*
X8902Y13085D01*
X8904Y13095D01*
X8906Y13106D01*
X8907Y13119D01*
X8907Y13132D01*
X8986D01*
X8987Y13119D01*
D02*
G37*
G36*
X8507Y13181D02*
X8500Y13172D01*
X8494Y13162D01*
X8489Y13152D01*
X8484Y13142D01*
X8481Y13132D01*
X8478Y13121D01*
X8476Y13111D01*
X8476Y13108D01*
X8476Y13106D01*
X8478Y13095D01*
X8480Y13085D01*
X8483Y13076D01*
X8487Y13068D01*
X8492Y13061D01*
X8497Y13056D01*
X8503Y13051D01*
X8510Y13047D01*
X8360D01*
X8367Y13051D01*
X8373Y13056D01*
X8378Y13061D01*
X8383Y13068D01*
X8387Y13076D01*
X8390Y13085D01*
X8392Y13095D01*
X8394Y13104D01*
X8394Y13104D01*
X8392Y13115D01*
X8388Y13125D01*
X8384Y13134D01*
X8379Y13143D01*
X8373Y13152D01*
X8366Y13161D01*
X8359Y13169D01*
X8350Y13177D01*
X8515Y13191D01*
X8507Y13181D01*
D02*
G37*
G36*
X8189Y13117D02*
X8191Y13103D01*
X8193Y13091D01*
X8195Y13080D01*
X8199Y13072D01*
X8203Y13064D01*
X8208Y13059D01*
X8214Y13055D01*
X8221Y13053D01*
X8228Y13052D01*
X8104Y13047D01*
X8105Y13049D01*
X8106Y13052D01*
X8107Y13056D01*
X8108Y13062D01*
X8109Y13078D01*
X8110Y13129D01*
X8189Y13132D01*
X8189Y13117D01*
D02*
G37*
G36*
X7982Y13149D02*
X7988Y13071D01*
X7990Y13061D01*
X7993Y13055D01*
X7995Y13050D01*
X7998Y13047D01*
X7848D01*
X7851Y13050D01*
X7854Y13055D01*
X7856Y13061D01*
X7858Y13071D01*
X7860Y13082D01*
X7863Y13111D01*
X7864Y13149D01*
X7864Y13172D01*
X7982D01*
X7982Y13149D01*
D02*
G37*
G36*
X11339Y13085D02*
X11340Y13074D01*
X11342Y13064D01*
X11346Y13053D01*
X11349Y13043D01*
X11354Y13034D01*
X11360Y13024D01*
X11366Y13015D01*
X11374Y13006D01*
X11382Y12998D01*
X11217D01*
X11225Y13006D01*
X11232Y13015D01*
X11239Y13024D01*
X11244Y13034D01*
X11249Y13043D01*
X11253Y13053D01*
X11256Y13064D01*
X11258Y13074D01*
X11259Y13085D01*
X11260Y13096D01*
X11339D01*
X11339Y13085D01*
D02*
G37*
G36*
X7843Y12587D02*
X7842Y12602D01*
X7837Y12615D01*
X7829Y12627D01*
X7818Y12637D01*
X7804Y12646D01*
X7786Y12653D01*
X7766Y12658D01*
X7742Y12662D01*
X7715Y12665D01*
X7685Y12665D01*
Y12823D01*
X7715Y12824D01*
X7742Y12826D01*
X7766Y12830D01*
X7786Y12835D01*
X7804Y12843D01*
X7818Y12851D01*
X7829Y12861D01*
X7837Y12873D01*
X7842Y12887D01*
X7843Y12902D01*
Y12587D01*
D02*
G37*
G36*
X11693Y12652D02*
X11695Y12641D01*
X11697Y12630D01*
X11700Y12620D01*
X11704Y12610D01*
X11709Y12601D01*
X11714Y12591D01*
X11721Y12582D01*
X11728Y12573D01*
X11736Y12565D01*
X11571D01*
X11579Y12573D01*
X11586Y12582D01*
X11593Y12591D01*
X11599Y12601D01*
X11603Y12610D01*
X11607Y12620D01*
X11610Y12630D01*
X11612Y12641D01*
X11614Y12652D01*
X11614Y12663D01*
X11693D01*
X11693Y12652D01*
D02*
G37*
G36*
X8503Y12437D02*
X8497Y12433D01*
X8492Y12427D01*
X8487Y12420D01*
X8483Y12412D01*
X8480Y12403D01*
X8478Y12393D01*
X8476Y12382D01*
X8475Y12369D01*
X8474Y12356D01*
X8396D01*
X8395Y12369D01*
X8394Y12382D01*
X8392Y12393D01*
X8390Y12403D01*
X8387Y12412D01*
X8383Y12420D01*
X8378Y12427D01*
X8373Y12433D01*
X8367Y12437D01*
X8360Y12441D01*
X8510D01*
X8503Y12437D01*
D02*
G37*
G36*
X8247D02*
X8241Y12433D01*
X8236Y12427D01*
X8231Y12420D01*
X8227Y12412D01*
X8224Y12403D01*
X8222Y12393D01*
X8220Y12382D01*
X8219Y12369D01*
X8219Y12356D01*
X8140D01*
X8139Y12369D01*
X8138Y12382D01*
X8137Y12393D01*
X8134Y12403D01*
X8131Y12412D01*
X8127Y12420D01*
X8122Y12427D01*
X8117Y12433D01*
X8111Y12437D01*
X8104Y12441D01*
X8254D01*
X8247Y12437D01*
D02*
G37*
G36*
X7998Y12439D02*
X7998Y12436D01*
X7997Y12322D01*
X7879Y12317D01*
X7879Y12338D01*
X7876Y12375D01*
X7874Y12390D01*
X7871Y12403D01*
X7868Y12415D01*
X7864Y12424D01*
X7859Y12432D01*
X7854Y12437D01*
X7848Y12441D01*
X7998D01*
X7998Y12439D01*
D02*
G37*
G36*
X11648Y12004D02*
X11639Y12012D01*
X11630Y12020D01*
X11621Y12026D01*
X11612Y12032D01*
X11602Y12036D01*
X11592Y12040D01*
X11582Y12043D01*
X11572Y12046D01*
X11561Y12047D01*
X11550Y12047D01*
Y12126D01*
X11561Y12126D01*
X11572Y12128D01*
X11582Y12130D01*
X11592Y12133D01*
X11602Y12137D01*
X11612Y12142D01*
X11621Y12147D01*
X11630Y12154D01*
X11639Y12161D01*
X11648Y12169D01*
Y12004D01*
D02*
G37*
G36*
X2540Y12122D02*
X2541Y12107D01*
X2598D01*
X2587Y12106D01*
X2577Y12103D01*
X2568Y12097D01*
X2561Y12089D01*
X2554Y12078D01*
X2549Y12067D01*
X2554Y12055D01*
X2561Y12044D01*
X2568Y12036D01*
X2577Y12030D01*
X2587Y12026D01*
X2598Y12025D01*
X2541D01*
X2540Y12012D01*
X2539Y11989D01*
X2421D01*
X2421Y12012D01*
X2419Y12025D01*
X2362D01*
X2373Y12026D01*
X2383Y12030D01*
X2392Y12036D01*
X2400Y12044D01*
X2406Y12055D01*
X2411Y12067D01*
X2406Y12078D01*
X2400Y12089D01*
X2392Y12097D01*
X2383Y12103D01*
X2373Y12106D01*
X2362Y12107D01*
X2419D01*
X2421Y12122D01*
X2421Y12144D01*
X2539D01*
X2540Y12122D01*
D02*
G37*
G36*
X7166Y12105D02*
X7168Y12078D01*
X7172Y12054D01*
X7178Y12034D01*
X7185Y12016D01*
X7194Y12002D01*
X7204Y11991D01*
X7216Y11983D01*
X7229Y11978D01*
X7244Y11977D01*
X6929D01*
X6944Y11978D01*
X6957Y11983D01*
X6969Y11991D01*
X6979Y12002D01*
X6988Y12016D01*
X6995Y12034D01*
X7001Y12054D01*
X7005Y12078D01*
X7007Y12105D01*
X7008Y12135D01*
X7165D01*
X7166Y12105D01*
D02*
G37*
G36*
X7997Y12057D02*
X7999Y12035D01*
X8001Y12025D01*
X8004Y12016D01*
X8007Y12008D01*
X8010Y12000D01*
X8014Y11994D01*
X8019Y11988D01*
X8024Y11984D01*
X7860Y11963D01*
X7864Y11968D01*
X7867Y11974D01*
X7870Y11981D01*
X7872Y11989D01*
X7874Y11997D01*
X7876Y12007D01*
X7878Y12028D01*
X7879Y12040D01*
X7879Y12053D01*
X7997Y12070D01*
X7997Y12057D01*
D02*
G37*
G36*
X2137Y12047D02*
X2143Y12043D01*
X2149Y12039D01*
X2157Y12036D01*
X2165Y12033D01*
X2175Y12031D01*
X2185Y12030D01*
X2196Y12028D01*
X2220Y12028D01*
Y11909D01*
X2208Y11909D01*
X2185Y11907D01*
X2175Y11906D01*
X2165Y11904D01*
X2157Y11901D01*
X2149Y11898D01*
X2143Y11894D01*
X2137Y11890D01*
X2132Y11886D01*
Y12051D01*
X2137Y12047D01*
D02*
G37*
G36*
X2540Y11925D02*
X2541Y11911D01*
X2598D01*
X2587Y11909D01*
X2577Y11906D01*
X2568Y11900D01*
X2561Y11892D01*
X2554Y11881D01*
X2549Y11870D01*
X2554Y11858D01*
X2561Y11847D01*
X2568Y11839D01*
X2577Y11833D01*
X2587Y11830D01*
X2598Y11828D01*
X2541D01*
X2540Y11815D01*
X2539Y11793D01*
X2421D01*
X2421Y11815D01*
X2419Y11828D01*
X2362D01*
X2373Y11830D01*
X2383Y11833D01*
X2392Y11839D01*
X2400Y11847D01*
X2406Y11858D01*
X2411Y11870D01*
X2406Y11881D01*
X2400Y11892D01*
X2392Y11900D01*
X2383Y11906D01*
X2373Y11909D01*
X2362Y11911D01*
X2419D01*
X2421Y11925D01*
X2421Y11948D01*
X2539D01*
X2540Y11925D01*
D02*
G37*
G36*
X6911Y11744D02*
X6909Y11751D01*
X6904Y11758D01*
X6896Y11763D01*
X6885Y11768D01*
X6871Y11773D01*
X6854Y11776D01*
X6833Y11779D01*
X6783Y11782D01*
X6753Y11782D01*
Y11940D01*
X6783Y11940D01*
X6854Y11946D01*
X6871Y11949D01*
X6885Y11953D01*
X6896Y11958D01*
X6904Y11964D01*
X6909Y11971D01*
X6911Y11978D01*
Y11744D01*
D02*
G37*
G36*
X6467Y12003D02*
X6472Y11990D01*
X6480Y11978D01*
X6491Y11968D01*
X6505Y11959D01*
X6522Y11952D01*
X6543Y11947D01*
X6566Y11943D01*
X6593Y11940D01*
X6623Y11940D01*
Y11782D01*
X6593Y11781D01*
X6566Y11779D01*
X6543Y11775D01*
X6522Y11770D01*
X6505Y11763D01*
X6491Y11754D01*
X6480Y11744D01*
X6472Y11732D01*
X6467Y11718D01*
X6466Y11703D01*
Y12018D01*
X6467Y12003D01*
D02*
G37*
G36*
X11639Y11842D02*
X11648Y11836D01*
X11657Y11830D01*
X11666Y11825D01*
X11676Y11820D01*
X11686Y11817D01*
X11697Y11814D01*
X11708Y11812D01*
X11719Y11811D01*
X11731Y11811D01*
X11614Y11694D01*
X11614Y11706D01*
X11613Y11717D01*
X11611Y11729D01*
X11608Y11739D01*
X11605Y11749D01*
X11601Y11759D01*
X11596Y11768D01*
X11590Y11777D01*
X11583Y11786D01*
X11576Y11794D01*
X11631Y11850D01*
X11639Y11842D01*
D02*
G37*
G36*
X5985Y11425D02*
X5976Y11432D01*
X5965Y11435D01*
X5953Y11435D01*
X5938Y11432D01*
X5923Y11425D01*
X5905Y11415D01*
X5886Y11401D01*
X5865Y11384D01*
X5818Y11341D01*
X5734Y11424D01*
X5758Y11449D01*
X5795Y11492D01*
X5808Y11511D01*
X5819Y11529D01*
X5825Y11545D01*
X5829Y11559D01*
X5829Y11571D01*
X5826Y11582D01*
X5819Y11591D01*
X5985Y11425D01*
D02*
G37*
G36*
X2540Y11334D02*
X2541Y11320D01*
X2598D01*
X2587Y11319D01*
X2577Y11315D01*
X2568Y11309D01*
X2561Y11301D01*
X2554Y11291D01*
X2549Y11279D01*
X2554Y11268D01*
X2561Y11257D01*
X2568Y11249D01*
X2577Y11243D01*
X2587Y11239D01*
X2598Y11238D01*
X2541D01*
X2540Y11224D01*
X2539Y11202D01*
X2421D01*
X2421Y11224D01*
X2419Y11238D01*
X2362D01*
X2373Y11239D01*
X2383Y11243D01*
X2392Y11249D01*
X2400Y11257D01*
X2406Y11268D01*
X2411Y11279D01*
X2406Y11291D01*
X2400Y11301D01*
X2392Y11309D01*
X2383Y11315D01*
X2373Y11319D01*
X2362Y11320D01*
X2419D01*
X2421Y11334D01*
X2421Y11357D01*
X2539D01*
X2540Y11334D01*
D02*
G37*
G36*
Y11138D02*
X2541Y11123D01*
X2598D01*
X2587Y11122D01*
X2577Y11119D01*
X2568Y11113D01*
X2561Y11104D01*
X2554Y11094D01*
X2549Y11082D01*
X2554Y11071D01*
X2561Y11060D01*
X2568Y11052D01*
X2577Y11046D01*
X2587Y11042D01*
X2598Y11041D01*
X2541D01*
X2540Y11028D01*
X2539Y11005D01*
X2421D01*
X2421Y11028D01*
X2419Y11041D01*
X2362D01*
X2373Y11042D01*
X2383Y11046D01*
X2392Y11052D01*
X2400Y11060D01*
X2406Y11071D01*
X2411Y11082D01*
X2406Y11094D01*
X2400Y11104D01*
X2392Y11113D01*
X2383Y11119D01*
X2373Y11122D01*
X2362Y11123D01*
X2419D01*
X2421Y11138D01*
X2421Y11160D01*
X2539D01*
X2540Y11138D01*
D02*
G37*
G36*
X12048Y10959D02*
X12049Y10948D01*
X12051Y10938D01*
X12054Y10927D01*
X12058Y10917D01*
X12063Y10908D01*
X12068Y10898D01*
X12075Y10889D01*
X12082Y10880D01*
X12091Y10872D01*
X11925D01*
X11933Y10880D01*
X11941Y10889D01*
X11947Y10898D01*
X11953Y10908D01*
X11958Y10917D01*
X11962Y10927D01*
X11965Y10938D01*
X11967Y10948D01*
X11968Y10959D01*
X11968Y10970D01*
X12047D01*
X12048Y10959D01*
D02*
G37*
G36*
X3837Y15418D02*
X3832Y15419D01*
X3824Y15420D01*
X3796Y15422D01*
X3626Y15424D01*
Y15620D01*
X3837Y15626D01*
Y15418D01*
D02*
G37*
G36*
X4224Y14829D02*
X4217Y14820D01*
X4211Y14811D01*
X4205Y14802D01*
X4200Y14792D01*
X4196Y14782D01*
X4193Y14772D01*
X4191Y14761D01*
X4190Y14751D01*
X4189Y14740D01*
X4111D01*
X4110Y14751D01*
X4109Y14761D01*
X4107Y14772D01*
X4104Y14782D01*
X4100Y14792D01*
X4095Y14802D01*
X4089Y14811D01*
X4083Y14820D01*
X4076Y14829D01*
X4067Y14838D01*
X4233D01*
X4224Y14829D01*
D02*
G37*
G36*
X4190Y14716D02*
X4191Y14702D01*
X4193Y14690D01*
X4196Y14680D01*
X4199Y14671D01*
X4204Y14664D01*
X4209Y14658D01*
X4215Y14654D01*
X4221Y14652D01*
X4229Y14651D01*
X4071D01*
X4079Y14652D01*
X4085Y14654D01*
X4091Y14658D01*
X4096Y14664D01*
X4101Y14671D01*
X4104Y14680D01*
X4107Y14690D01*
X4109Y14702D01*
X4110Y14716D01*
X4111Y14731D01*
X4189D01*
X4190Y14716D01*
D02*
G37*
G36*
X1883Y13767D02*
X1882Y13770D01*
X1880Y13773D01*
X1876Y13775D01*
X1870Y13777D01*
X1863Y13779D01*
X1854Y13780D01*
X1844Y13781D01*
X1819Y13783D01*
X1804Y13783D01*
Y13861D01*
X1819Y13862D01*
X1832Y13863D01*
X1844Y13865D01*
X1854Y13868D01*
X1863Y13871D01*
X1870Y13876D01*
X1876Y13881D01*
X1880Y13887D01*
X1882Y13893D01*
X1883Y13901D01*
Y13767D01*
D02*
G37*
G36*
X1470Y13893D02*
X1473Y13887D01*
X1477Y13881D01*
X1482Y13876D01*
X1489Y13871D01*
X1498Y13868D01*
X1508Y13865D01*
X1520Y13863D01*
X1533Y13862D01*
X1548Y13861D01*
Y13783D01*
X1533Y13782D01*
X1520Y13781D01*
X1508Y13779D01*
X1498Y13776D01*
X1489Y13773D01*
X1482Y13769D01*
X1477Y13763D01*
X1473Y13757D01*
X1470Y13751D01*
X1470Y13743D01*
Y13901D01*
X1470Y13893D01*
D02*
G37*
G36*
X3389Y14443D02*
X3381Y14434D01*
X3374Y14425D01*
X3367Y14416D01*
X3361Y14407D01*
X3357Y14397D01*
X3353Y14387D01*
X3350Y14377D01*
X3347Y14367D01*
X3346Y14356D01*
X3346Y14350D01*
X3346Y14342D01*
X3347Y14328D01*
X3349Y14316D01*
X3352Y14306D01*
X3356Y14297D01*
X3360Y14290D01*
X3365Y14284D01*
X3371Y14280D01*
X3378Y14278D01*
X3385Y14277D01*
X3228D01*
X3235Y14278D01*
X3242Y14280D01*
X3248Y14284D01*
X3253Y14290D01*
X3257Y14297D01*
X3261Y14306D01*
X3263Y14316D01*
X3265Y14328D01*
X3267Y14342D01*
X3267Y14350D01*
X3266Y14357D01*
X3265Y14367D01*
X3263Y14378D01*
X3260Y14388D01*
X3256Y14398D01*
X3251Y14408D01*
X3246Y14417D01*
X3239Y14426D01*
X3232Y14435D01*
X3224Y14444D01*
X3389Y14443D01*
D02*
G37*
G36*
X2825Y13848D02*
X2826Y13845D01*
X2828Y13841D01*
X2832Y13836D01*
X2837Y13830D01*
X2851Y13814D01*
X2882Y13782D01*
X2826Y13726D01*
X2814Y13738D01*
X2767Y13780D01*
X2763Y13782D01*
X2760Y13783D01*
X2758Y13782D01*
X2826Y13850D01*
X2825Y13848D01*
D02*
G37*
G36*
X3919Y13669D02*
X3918Y13677D01*
X3916Y13683D01*
X3912Y13689D01*
X3906Y13694D01*
X3899Y13699D01*
X3890Y13702D01*
X3880Y13705D01*
X3868Y13707D01*
X3854Y13708D01*
X3839Y13709D01*
Y13787D01*
X3854Y13788D01*
X3868Y13789D01*
X3880Y13791D01*
X3890Y13794D01*
X3899Y13797D01*
X3906Y13802D01*
X3912Y13807D01*
X3916Y13813D01*
X3918Y13819D01*
X3919Y13827D01*
Y13669D01*
D02*
G37*
G36*
X29487Y11181D02*
X29485Y11181D01*
X29483Y11179D01*
X29480Y11177D01*
X29470Y11169D01*
X29441Y11141D01*
X29432Y11131D01*
X29320Y11243D01*
X29370Y11298D01*
X29487Y11181D01*
D02*
G37*
G36*
X28803Y10872D02*
X28807Y10862D01*
X28814Y10854D01*
X28823Y10847D01*
X28835Y10841D01*
X28850Y10836D01*
X28868Y10832D01*
X28888Y10829D01*
X28911Y10827D01*
X28937Y10827D01*
Y10669D01*
X28911Y10669D01*
X28868Y10664D01*
X28850Y10660D01*
X28835Y10655D01*
X28823Y10649D01*
X28814Y10642D01*
X28807Y10634D01*
X28803Y10624D01*
X28802Y10614D01*
Y10882D01*
X28803Y10872D01*
D02*
G37*
G36*
X28646Y10423D02*
X28633Y10418D01*
X28621Y10410D01*
X28611Y10399D01*
X28602Y10385D01*
X28595Y10368D01*
X28590Y10347D01*
X28586Y10323D01*
X28583Y10297D01*
X28583Y10267D01*
X28425D01*
X28424Y10297D01*
X28422Y10323D01*
X28418Y10347D01*
X28413Y10368D01*
X28406Y10385D01*
X28397Y10399D01*
X28387Y10410D01*
X28375Y10418D01*
X28361Y10423D01*
X28346Y10424D01*
X28661D01*
X28646Y10423D01*
D02*
G37*
G36*
X28663Y9381D02*
X28662Y9387D01*
X28659Y9391D01*
X28656Y9396D01*
X28650Y9399D01*
X28643Y9402D01*
X28634Y9405D01*
X28624Y9407D01*
X28612Y9408D01*
X28599Y9409D01*
X28584Y9409D01*
Y9488D01*
X28599Y9488D01*
X28624Y9491D01*
X28634Y9493D01*
X28643Y9495D01*
X28650Y9498D01*
X28656Y9502D01*
X28659Y9506D01*
X28662Y9511D01*
X28663Y9517D01*
Y9381D01*
D02*
G37*
G36*
X29291Y9257D02*
X29294Y9254D01*
X29299Y9252D01*
X29306Y9249D01*
X29315Y9247D01*
X29326Y9246D01*
X29354Y9244D01*
X29390Y9243D01*
Y9143D01*
X29371Y9143D01*
X29315Y9138D01*
X29306Y9137D01*
X29299Y9134D01*
X29294Y9132D01*
X29291Y9129D01*
X29290Y9125D01*
Y9261D01*
X29291Y9257D01*
D02*
G37*
G36*
X29657Y9093D02*
X29656Y9102D01*
X29653Y9111D01*
X29648Y9118D01*
X29640Y9125D01*
X29631Y9130D01*
X29620Y9135D01*
X29607Y9138D01*
X29592Y9141D01*
X29575Y9142D01*
X29555Y9143D01*
Y9243D01*
X29575Y9243D01*
X29592Y9245D01*
X29607Y9247D01*
X29620Y9251D01*
X29631Y9255D01*
X29640Y9261D01*
X29648Y9267D01*
X29653Y9275D01*
X29656Y9283D01*
X29657Y9293D01*
Y9093D01*
D02*
G37*
G36*
X30544Y8947D02*
X30537Y8945D01*
X30531Y8941D01*
X30526Y8935D01*
X30522Y8928D01*
X30518Y8920D01*
X30515Y8910D01*
X30513Y8898D01*
X30512Y8884D01*
X30512Y8878D01*
X30512Y8872D01*
X30514Y8861D01*
X30516Y8851D01*
X30519Y8841D01*
X30523Y8831D01*
X30527Y8821D01*
X30533Y8812D01*
X30540Y8803D01*
X30547Y8794D01*
X30555Y8785D01*
X30390D01*
X30398Y8794D01*
X30405Y8803D01*
X30412Y8812D01*
X30417Y8821D01*
X30422Y8831D01*
X30426Y8841D01*
X30429Y8851D01*
X30431Y8861D01*
X30433Y8872D01*
X30433Y8878D01*
X30433Y8884D01*
X30431Y8898D01*
X30430Y8910D01*
X30427Y8920D01*
X30423Y8928D01*
X30419Y8935D01*
X30414Y8941D01*
X30408Y8945D01*
X30401Y8947D01*
X30394Y8948D01*
X30551D01*
X30544Y8947D01*
D02*
G37*
G36*
X28663Y8613D02*
X28662Y8619D01*
X28659Y8624D01*
X28656Y8628D01*
X28650Y8632D01*
X28643Y8635D01*
X28634Y8637D01*
X28624Y8639D01*
X28612Y8641D01*
X28599Y8641D01*
X28584Y8642D01*
Y8720D01*
X28599Y8721D01*
X28624Y8723D01*
X28634Y8725D01*
X28643Y8728D01*
X28650Y8731D01*
X28656Y8734D01*
X28659Y8739D01*
X28662Y8743D01*
X28663Y8749D01*
Y8613D01*
D02*
G37*
G36*
X30235Y8642D02*
X30244Y8620D01*
X30248Y8609D01*
X30259Y8590D01*
X30265Y8581D01*
X30271Y8572D01*
X30278Y8564D01*
X30285Y8557D01*
X30247Y8484D01*
X30238Y8491D01*
X30230Y8498D01*
X30221Y8503D01*
X30212Y8508D01*
X30203Y8511D01*
X30193Y8513D01*
X30183Y8513D01*
X30173Y8513D01*
X30163Y8511D01*
X30152Y8509D01*
X30232Y8654D01*
X30235Y8642D01*
D02*
G37*
G36*
X29291Y8490D02*
X29294Y8487D01*
X29299Y8484D01*
X29306Y8482D01*
X29315Y8480D01*
X29326Y8478D01*
X29354Y8476D01*
X29390Y8475D01*
Y8375D01*
X29371Y8375D01*
X29315Y8371D01*
X29306Y8369D01*
X29299Y8367D01*
X29294Y8364D01*
X29291Y8361D01*
X29290Y8357D01*
Y8493D01*
X29291Y8490D01*
D02*
G37*
G36*
X29676Y8406D02*
X29713Y8375D01*
X29729Y8363D01*
X29744Y8355D01*
X29757Y8349D01*
X29769Y8346D01*
X29779Y8346D01*
X29788Y8348D01*
X29796Y8354D01*
X29657Y8215D01*
X29662Y8222D01*
X29665Y8231D01*
X29665Y8242D01*
X29662Y8254D01*
X29656Y8267D01*
X29647Y8282D01*
X29636Y8298D01*
X29622Y8316D01*
X29585Y8355D01*
X29655Y8426D01*
X29676Y8406D01*
D02*
G37*
G36*
X27087Y8235D02*
X27090Y8234D01*
X27096Y8233D01*
X27104Y8231D01*
X27128Y8230D01*
X27204Y8228D01*
Y8110D01*
X27181Y8110D01*
X27090Y8105D01*
X27087Y8103D01*
X27085Y8102D01*
Y8237D01*
X27087Y8235D01*
D02*
G37*
G36*
X26458Y8102D02*
X26457Y8103D01*
X26453Y8105D01*
X26447Y8106D01*
X26439Y8107D01*
X26415Y8109D01*
X26340Y8110D01*
Y8228D01*
X26362Y8228D01*
X26453Y8234D01*
X26457Y8235D01*
X26458Y8237D01*
Y8102D01*
D02*
G37*
G36*
X27919Y7804D02*
X27918Y7802D01*
X27917Y7799D01*
X27916Y7795D01*
X27915Y7791D01*
X27914Y7780D01*
X27913Y7765D01*
X27913Y7756D01*
X27835D01*
X27835Y7765D01*
X27832Y7795D01*
X27831Y7799D01*
X27830Y7802D01*
X27829Y7804D01*
X27828Y7805D01*
X27920D01*
X27919Y7804D01*
D02*
G37*
G36*
X26162Y7680D02*
X26164Y7657D01*
X26165Y7647D01*
X26167Y7638D01*
X26170Y7629D01*
X26173Y7622D01*
X26177Y7615D01*
X26181Y7609D01*
X26185Y7604D01*
X26020D01*
X26024Y7609D01*
X26028Y7615D01*
X26032Y7622D01*
X26035Y7629D01*
X26037Y7638D01*
X26040Y7647D01*
X26041Y7657D01*
X26042Y7668D01*
X26043Y7693D01*
X26161D01*
X26162Y7680D01*
D02*
G37*
G36*
X26141Y6723D02*
X26139Y6721D01*
X26138Y6718D01*
X26137Y6714D01*
X26136Y6708D01*
X26135Y6693D01*
X26134Y6671D01*
X26134Y6670D01*
X26138Y6619D01*
X26141Y6599D01*
X26144Y6581D01*
X26149Y6567D01*
X26154Y6556D01*
X26161Y6548D01*
X26168Y6544D01*
X26176Y6542D01*
X25934D01*
X25942Y6544D01*
X25949Y6548D01*
X25956Y6556D01*
X25961Y6567D01*
X25966Y6581D01*
X25970Y6599D01*
X25973Y6619D01*
X25975Y6643D01*
X25976Y6698D01*
X25976Y6739D01*
X26141Y6723D01*
D02*
G37*
G36*
X26961Y6606D02*
X26962Y6592D01*
X26964Y6580D01*
X26967Y6570D01*
X26970Y6561D01*
X26975Y6554D01*
X26980Y6548D01*
X26986Y6544D01*
X26993Y6542D01*
X27000Y6541D01*
X26843D01*
X26850Y6542D01*
X26857Y6544D01*
X26863Y6548D01*
X26868Y6554D01*
X26872Y6561D01*
X26876Y6570D01*
X26878Y6580D01*
X26880Y6592D01*
X26881Y6606D01*
X26882Y6621D01*
X26961D01*
X26961Y6606D01*
D02*
G37*
G36*
X26528D02*
X26529Y6592D01*
X26531Y6580D01*
X26534Y6570D01*
X26537Y6561D01*
X26542Y6554D01*
X26547Y6548D01*
X26553Y6544D01*
X26559Y6542D01*
X26567Y6541D01*
X26409D01*
X26417Y6542D01*
X26424Y6544D01*
X26430Y6548D01*
X26435Y6554D01*
X26439Y6561D01*
X26443Y6570D01*
X26445Y6580D01*
X26447Y6592D01*
X26448Y6606D01*
X26449Y6621D01*
X26528D01*
X26528Y6606D01*
D02*
G37*
G36*
X25662D02*
X25663Y6592D01*
X25665Y6580D01*
X25668Y6570D01*
X25671Y6561D01*
X25676Y6554D01*
X25681Y6548D01*
X25687Y6544D01*
X25693Y6542D01*
X25701Y6541D01*
X25543D01*
X25551Y6542D01*
X25557Y6544D01*
X25563Y6548D01*
X25568Y6554D01*
X25573Y6561D01*
X25576Y6570D01*
X25579Y6580D01*
X25581Y6592D01*
X25582Y6606D01*
X25583Y6621D01*
X25661D01*
X25662Y6606D01*
D02*
G37*
G36*
X27086Y9769D02*
X27089Y9766D01*
X27093Y9763D01*
X27098Y9761D01*
X27105Y9759D01*
X27114Y9757D01*
X27124Y9756D01*
X27149Y9754D01*
X27164Y9754D01*
Y9675D01*
X27149Y9675D01*
X27136Y9674D01*
X27124Y9672D01*
X27114Y9669D01*
X27105Y9666D01*
X27098Y9661D01*
X27093Y9656D01*
X27089Y9651D01*
X27086Y9644D01*
X27085Y9637D01*
Y9772D01*
X27086Y9769D01*
D02*
G37*
G36*
X27403Y9635D02*
X27394Y9643D01*
X27384Y9649D01*
X27374Y9656D01*
X27365Y9661D01*
X27355Y9665D01*
X27344Y9669D01*
X27334Y9672D01*
X27324Y9674D01*
X27313Y9675D01*
X27302Y9675D01*
X27295Y9754D01*
X27306Y9754D01*
X27317Y9756D01*
X27327Y9758D01*
X27337Y9761D01*
X27347Y9765D01*
X27356Y9770D01*
X27365Y9776D01*
X27373Y9783D01*
X27382Y9791D01*
X27389Y9800D01*
X27403Y9635D01*
D02*
G37*
G36*
X26458Y9381D02*
X26457Y9387D01*
X26455Y9391D01*
X26451Y9396D01*
X26445Y9399D01*
X26438Y9402D01*
X26430Y9405D01*
X26419Y9407D01*
X26408Y9408D01*
X26394Y9409D01*
X26379Y9409D01*
Y9488D01*
X26394Y9488D01*
X26419Y9491D01*
X26430Y9493D01*
X26438Y9495D01*
X26445Y9498D01*
X26451Y9502D01*
X26455Y9506D01*
X26457Y9511D01*
X26458Y9517D01*
Y9381D01*
D02*
G37*
G36*
X25782Y9520D02*
X25784Y9513D01*
X25788Y9507D01*
X25793Y9502D01*
X25801Y9498D01*
X25809Y9494D01*
X25820Y9492D01*
X25832Y9490D01*
X25845Y9489D01*
X25861Y9488D01*
Y9409D01*
X25845Y9409D01*
X25832Y9408D01*
X25820Y9406D01*
X25809Y9403D01*
X25801Y9400D01*
X25793Y9395D01*
X25788Y9390D01*
X25784Y9384D01*
X25782Y9378D01*
X25781Y9370D01*
Y9528D01*
X25782Y9520D01*
D02*
G37*
G36*
X24699Y9523D02*
X24708Y9516D01*
X24717Y9509D01*
X24727Y9504D01*
X24736Y9499D01*
X24746Y9495D01*
X24756Y9492D01*
X24767Y9490D01*
X24774Y9489D01*
X24783Y9490D01*
X24795Y9492D01*
X24806Y9494D01*
X24814Y9498D01*
X24822Y9502D01*
X24827Y9507D01*
X24831Y9513D01*
X24834Y9520D01*
X24834Y9528D01*
Y9370D01*
X24834Y9378D01*
X24831Y9384D01*
X24827Y9390D01*
X24822Y9395D01*
X24814Y9400D01*
X24806Y9403D01*
X24795Y9406D01*
X24783Y9408D01*
X24774Y9409D01*
X24767Y9408D01*
X24756Y9406D01*
X24746Y9403D01*
X24736Y9399D01*
X24727Y9394D01*
X24717Y9388D01*
X24708Y9382D01*
X24699Y9374D01*
X24691Y9366D01*
Y9531D01*
X24699Y9523D01*
D02*
G37*
G36*
X26458Y8869D02*
X26457Y8875D01*
X26455Y8880D01*
X26451Y8884D01*
X26445Y8887D01*
X26438Y8891D01*
X26430Y8893D01*
X26419Y8895D01*
X26408Y8896D01*
X26394Y8897D01*
X26379Y8898D01*
Y8976D01*
X26394Y8977D01*
X26419Y8979D01*
X26430Y8981D01*
X26438Y8983D01*
X26445Y8987D01*
X26451Y8990D01*
X26455Y8995D01*
X26457Y8999D01*
X26458Y9005D01*
Y8869D01*
D02*
G37*
G36*
X26274Y9011D02*
X26283Y9004D01*
X26292Y8998D01*
X26301Y8992D01*
X26311Y8987D01*
X26321Y8983D01*
X26331Y8980D01*
X26342Y8978D01*
X26352Y8977D01*
X26363Y8976D01*
Y8898D01*
X26352Y8897D01*
X26342Y8896D01*
X26331Y8894D01*
X26321Y8891D01*
X26311Y8887D01*
X26301Y8882D01*
X26292Y8876D01*
X26283Y8870D01*
X26274Y8863D01*
X26265Y8854D01*
Y9020D01*
X26274Y9011D01*
D02*
G37*
G36*
X26458Y8613D02*
X26457Y8619D01*
X26455Y8624D01*
X26451Y8628D01*
X26445Y8632D01*
X26438Y8635D01*
X26430Y8637D01*
X26419Y8639D01*
X26408Y8641D01*
X26394Y8641D01*
X26379Y8642D01*
Y8720D01*
X26394Y8721D01*
X26419Y8723D01*
X26430Y8725D01*
X26438Y8728D01*
X26445Y8731D01*
X26451Y8734D01*
X26455Y8739D01*
X26457Y8743D01*
X26458Y8749D01*
Y8613D01*
D02*
G37*
G36*
X25782Y8752D02*
X25784Y8746D01*
X25788Y8740D01*
X25793Y8735D01*
X25801Y8730D01*
X25809Y8727D01*
X25820Y8724D01*
X25832Y8722D01*
X25845Y8721D01*
X25861Y8720D01*
Y8642D01*
X25845Y8641D01*
X25832Y8640D01*
X25820Y8638D01*
X25809Y8635D01*
X25801Y8632D01*
X25793Y8628D01*
X25788Y8622D01*
X25784Y8617D01*
X25782Y8610D01*
X25781Y8602D01*
Y8760D01*
X25782Y8752D01*
D02*
G37*
G36*
X590Y14597D02*
X582Y14589D01*
X574Y14580D01*
X568Y14571D01*
X562Y14562D01*
X557Y14553D01*
X553Y14543D01*
X550Y14533D01*
X547Y14523D01*
X546Y14512D01*
X546Y14501D01*
X467Y14505D01*
X467Y14516D01*
X465Y14526D01*
X463Y14537D01*
X460Y14547D01*
X457Y14557D01*
X452Y14567D01*
X447Y14577D01*
X440Y14586D01*
X433Y14596D01*
X425Y14605D01*
X590Y14597D01*
D02*
G37*
G36*
X546Y14392D02*
X547Y14378D01*
X549Y14366D01*
X552Y14356D01*
X556Y14347D01*
X560Y14340D01*
X565Y14334D01*
X571Y14330D01*
X578Y14328D01*
X585Y14327D01*
X428D01*
X435Y14328D01*
X442Y14330D01*
X448Y14334D01*
X453Y14340D01*
X457Y14347D01*
X461Y14356D01*
X463Y14366D01*
X465Y14378D01*
X467Y14392D01*
X467Y14407D01*
X546D01*
X546Y14392D01*
D02*
G37*
G36*
X578Y14016D02*
X571Y14014D01*
X565Y14010D01*
X560Y14004D01*
X556Y13997D01*
X552Y13988D01*
X549Y13978D01*
X547Y13966D01*
X546Y13952D01*
X546Y13937D01*
X467D01*
X467Y13952D01*
X465Y13966D01*
X463Y13978D01*
X461Y13988D01*
X457Y13997D01*
X453Y14004D01*
X448Y14010D01*
X442Y14014D01*
X435Y14016D01*
X428Y14017D01*
X585D01*
X578Y14016D01*
D02*
G37*
G36*
X5664Y7909D02*
X5655Y7918D01*
X5646Y7925D01*
X5637Y7932D01*
X5628Y7937D01*
X5618Y7942D01*
X5608Y7946D01*
X5598Y7949D01*
X5587Y7951D01*
X5577Y7952D01*
X5566Y7953D01*
Y8031D01*
X5577Y8032D01*
X5587Y8033D01*
X5598Y8035D01*
X5608Y8038D01*
X5618Y8042D01*
X5628Y8047D01*
X5637Y8053D01*
X5646Y8059D01*
X5655Y8067D01*
X5664Y8075D01*
Y7909D01*
D02*
G37*
G36*
X5979Y7673D02*
X5970Y7681D01*
X5961Y7689D01*
X5952Y7695D01*
X5943Y7701D01*
X5933Y7706D01*
X5923Y7710D01*
X5913Y7713D01*
X5902Y7715D01*
X5892Y7716D01*
X5881Y7717D01*
Y7795D01*
X5892Y7796D01*
X5902Y7797D01*
X5913Y7799D01*
X5923Y7802D01*
X5933Y7806D01*
X5943Y7811D01*
X5952Y7817D01*
X5961Y7823D01*
X5970Y7830D01*
X5979Y7839D01*
Y7673D01*
D02*
G37*
G36*
X3345Y7480D02*
X3333Y7480D01*
X3322Y7479D01*
X3311Y7477D01*
X3300Y7474D01*
X3290Y7471D01*
X3280Y7467D01*
X3271Y7462D01*
X3262Y7456D01*
X3253Y7449D01*
X3245Y7442D01*
X3190Y7497D01*
X3197Y7505D01*
X3204Y7514D01*
X3210Y7523D01*
X3215Y7532D01*
X3219Y7542D01*
X3222Y7552D01*
X3225Y7563D01*
X3227Y7574D01*
X3228Y7585D01*
X3228Y7597D01*
X3345Y7480D01*
D02*
G37*
G36*
X5585Y7398D02*
X5576Y7406D01*
X5567Y7413D01*
X5558Y7420D01*
X5549Y7425D01*
X5539Y7430D01*
X5529Y7434D01*
X5519Y7437D01*
X5509Y7439D01*
X5498Y7441D01*
X5487Y7441D01*
Y7520D01*
X5498Y7520D01*
X5509Y7521D01*
X5519Y7524D01*
X5529Y7527D01*
X5539Y7531D01*
X5549Y7535D01*
X5558Y7541D01*
X5567Y7547D01*
X5576Y7555D01*
X5585Y7563D01*
Y7398D01*
D02*
G37*
G36*
X2226Y7383D02*
X2225Y7387D01*
X2222Y7390D01*
X2219Y7393D01*
X2213Y7395D01*
X2206Y7397D01*
X2197Y7399D01*
X2187Y7400D01*
X2162Y7401D01*
X2147Y7402D01*
Y7480D01*
X2162Y7480D01*
X2197Y7483D01*
X2206Y7485D01*
X2213Y7487D01*
X2219Y7489D01*
X2222Y7492D01*
X2225Y7495D01*
X2226Y7499D01*
Y7383D01*
D02*
G37*
G36*
X2736Y7298D02*
X2738Y7295D01*
X2742Y7293D01*
X2748Y7290D01*
X2755Y7288D01*
X2763Y7286D01*
X2774Y7285D01*
X2799Y7284D01*
X2814Y7283D01*
Y7205D01*
X2799Y7205D01*
X2763Y7202D01*
X2755Y7200D01*
X2748Y7198D01*
X2742Y7196D01*
X2738Y7193D01*
X2736Y7190D01*
X2735Y7186D01*
Y7302D01*
X2736Y7298D01*
D02*
G37*
G36*
X5900Y7161D02*
X5891Y7170D01*
X5882Y7177D01*
X5873Y7183D01*
X5864Y7189D01*
X5854Y7194D01*
X5844Y7198D01*
X5834Y7201D01*
X5824Y7203D01*
X5813Y7204D01*
X5802Y7205D01*
Y7283D01*
X5813Y7284D01*
X5824Y7285D01*
X5834Y7287D01*
X5844Y7290D01*
X5854Y7294D01*
X5864Y7299D01*
X5873Y7305D01*
X5882Y7311D01*
X5891Y7319D01*
X5900Y7327D01*
Y7161D01*
D02*
G37*
G36*
X3332Y7088D02*
X3320Y7089D01*
X3309Y7089D01*
X3298Y7088D01*
X3288Y7086D01*
X3278Y7083D01*
X3268Y7079D01*
X3259Y7075D01*
X3250Y7069D01*
X3241Y7062D01*
X3233Y7055D01*
X3184Y7117D01*
X3192Y7125D01*
X3198Y7134D01*
X3204Y7142D01*
X3210Y7152D01*
X3215Y7161D01*
X3219Y7172D01*
X3222Y7182D01*
X3225Y7193D01*
X3227Y7205D01*
X3229Y7217D01*
X3332Y7088D01*
D02*
G37*
G36*
X2736Y7102D02*
X2738Y7098D01*
X2742Y7096D01*
X2748Y7093D01*
X2755Y7091D01*
X2763Y7090D01*
X2774Y7088D01*
X2799Y7087D01*
X2814Y7087D01*
Y7008D01*
X2799Y7008D01*
X2763Y7005D01*
X2755Y7003D01*
X2748Y7001D01*
X2742Y6999D01*
X2738Y6996D01*
X2736Y6993D01*
X2735Y6989D01*
Y7105D01*
X2736Y7102D01*
D02*
G37*
G36*
Y6905D02*
X2738Y6902D01*
X2742Y6899D01*
X2748Y6896D01*
X2755Y6894D01*
X2763Y6893D01*
X2774Y6891D01*
X2799Y6890D01*
X2814Y6890D01*
Y6811D01*
X2799Y6811D01*
X2763Y6808D01*
X2755Y6806D01*
X2748Y6804D01*
X2742Y6802D01*
X2738Y6799D01*
X2736Y6796D01*
X2735Y6793D01*
Y6908D01*
X2736Y6905D01*
D02*
G37*
G36*
X6628Y6710D02*
X6616Y6708D01*
X6604Y6706D01*
X6593Y6703D01*
X6582Y6699D01*
X6572Y6695D01*
X6562Y6690D01*
X6553Y6685D01*
X6544Y6679D01*
X6536Y6672D01*
X6528Y6665D01*
X6465Y6713D01*
X6472Y6721D01*
X6479Y6730D01*
X6485Y6739D01*
X6489Y6748D01*
X6493Y6758D01*
X6496Y6768D01*
X6498Y6778D01*
X6498Y6789D01*
X6498Y6800D01*
X6497Y6812D01*
X6628Y6710D01*
D02*
G37*
G36*
X2736Y6708D02*
X2738Y6705D01*
X2742Y6702D01*
X2748Y6700D01*
X2755Y6698D01*
X2763Y6696D01*
X2774Y6695D01*
X2799Y6693D01*
X2814Y6693D01*
Y6614D01*
X2799Y6614D01*
X2763Y6611D01*
X2755Y6610D01*
X2748Y6608D01*
X2742Y6605D01*
X2738Y6602D01*
X2736Y6599D01*
X2735Y6596D01*
Y6711D01*
X2736Y6708D01*
D02*
G37*
G36*
Y6511D02*
X2738Y6508D01*
X2742Y6505D01*
X2748Y6503D01*
X2755Y6501D01*
X2763Y6499D01*
X2774Y6498D01*
X2799Y6496D01*
X2814Y6496D01*
Y6417D01*
X2799Y6417D01*
X2763Y6414D01*
X2755Y6413D01*
X2748Y6411D01*
X2742Y6408D01*
X2738Y6405D01*
X2736Y6402D01*
X2735Y6399D01*
Y6515D01*
X2736Y6511D01*
D02*
G37*
G36*
Y6314D02*
X2738Y6311D01*
X2742Y6308D01*
X2748Y6306D01*
X2755Y6304D01*
X2763Y6302D01*
X2774Y6301D01*
X2799Y6299D01*
X2814Y6299D01*
Y6220D01*
X2799Y6220D01*
X2763Y6218D01*
X2755Y6216D01*
X2748Y6214D01*
X2742Y6211D01*
X2738Y6209D01*
X2736Y6205D01*
X2735Y6202D01*
Y6318D01*
X2736Y6314D01*
D02*
G37*
G36*
X4150Y6238D02*
X4138Y6238D01*
X4127Y6237D01*
X4116Y6235D01*
X4105Y6232D01*
X4095Y6229D01*
X4085Y6225D01*
X4076Y6220D01*
X4067Y6214D01*
X4059Y6207D01*
X4051Y6200D01*
X3995Y6255D01*
X4002Y6263D01*
X4009Y6272D01*
X4015Y6281D01*
X4020Y6290D01*
X4024Y6300D01*
X4028Y6310D01*
X4030Y6321D01*
X4032Y6332D01*
X4033Y6343D01*
X4033Y6355D01*
X4150Y6238D01*
D02*
G37*
G36*
X4501Y6164D02*
X4489Y6162D01*
X4477Y6159D01*
X4466Y6156D01*
X4455Y6152D01*
X4445Y6148D01*
X4435Y6143D01*
X4426Y6137D01*
X4417Y6131D01*
X4409Y6124D01*
X4401Y6117D01*
X4337Y6164D01*
X4344Y6172D01*
X4351Y6181D01*
X4357Y6190D01*
X4361Y6199D01*
X4365Y6209D01*
X4367Y6219D01*
X4369Y6229D01*
X4370Y6240D01*
X4369Y6251D01*
X4368Y6262D01*
X4501Y6164D01*
D02*
G37*
G36*
X2736Y6117D02*
X2738Y6114D01*
X2742Y6111D01*
X2748Y6109D01*
X2755Y6107D01*
X2763Y6105D01*
X2774Y6104D01*
X2799Y6103D01*
X2814Y6102D01*
Y6024D01*
X2799Y6023D01*
X2763Y6021D01*
X2755Y6019D01*
X2748Y6017D01*
X2742Y6015D01*
X2738Y6012D01*
X2736Y6009D01*
X2735Y6005D01*
Y6121D01*
X2736Y6117D01*
D02*
G37*
G36*
X4881Y5854D02*
X4869Y5853D01*
X4858Y5850D01*
X4847Y5847D01*
X4836Y5844D01*
X4826Y5840D01*
X4816Y5835D01*
X4807Y5829D01*
X4798Y5823D01*
X4790Y5817D01*
X4782Y5809D01*
X4719Y5858D01*
X4727Y5866D01*
X4733Y5875D01*
X4739Y5884D01*
X4743Y5893D01*
X4747Y5903D01*
X4750Y5913D01*
X4752Y5923D01*
X4753Y5934D01*
X4753Y5945D01*
X4752Y5957D01*
X4881Y5854D01*
D02*
G37*
G36*
X2736Y5920D02*
X2738Y5917D01*
X2742Y5915D01*
X2748Y5912D01*
X2755Y5910D01*
X2763Y5908D01*
X2774Y5907D01*
X2799Y5906D01*
X2814Y5906D01*
Y5827D01*
X2799Y5827D01*
X2763Y5824D01*
X2755Y5822D01*
X2748Y5820D01*
X2742Y5818D01*
X2738Y5815D01*
X2736Y5812D01*
X2735Y5808D01*
Y5924D01*
X2736Y5920D01*
D02*
G37*
G36*
X4459Y5791D02*
X4448Y5793D01*
X4438Y5794D01*
X4427Y5794D01*
X4417Y5793D01*
X4408Y5791D01*
X4398Y5788D01*
X4389Y5784D01*
X4380Y5778D01*
X4371Y5772D01*
X4363Y5764D01*
X4322Y5834D01*
X4329Y5842D01*
X4336Y5850D01*
X4342Y5859D01*
X4348Y5868D01*
X4353Y5877D01*
X4358Y5887D01*
X4363Y5898D01*
X4370Y5920D01*
X4373Y5932D01*
X4459Y5791D01*
D02*
G37*
G36*
X2736Y5724D02*
X2738Y5720D01*
X2742Y5718D01*
X2748Y5715D01*
X2755Y5713D01*
X2763Y5712D01*
X2774Y5710D01*
X2799Y5709D01*
X2814Y5709D01*
Y5630D01*
X2799Y5630D01*
X2763Y5627D01*
X2755Y5625D01*
X2748Y5623D01*
X2742Y5621D01*
X2738Y5618D01*
X2736Y5615D01*
X2735Y5611D01*
Y5727D01*
X2736Y5724D01*
D02*
G37*
G36*
X4879Y5510D02*
X4867Y5510D01*
X4856Y5509D01*
X4844Y5507D01*
X4834Y5504D01*
X4824Y5501D01*
X4814Y5496D01*
X4805Y5491D01*
X4796Y5486D01*
X4787Y5479D01*
X4779Y5471D01*
X4723Y5527D01*
X4730Y5535D01*
X4737Y5543D01*
X4743Y5552D01*
X4748Y5562D01*
X4752Y5571D01*
X4756Y5581D01*
X4758Y5592D01*
X4760Y5603D01*
X4761Y5615D01*
X4761Y5627D01*
X4879Y5510D01*
D02*
G37*
G36*
X2736Y5527D02*
X2738Y5524D01*
X2742Y5521D01*
X2748Y5518D01*
X2755Y5516D01*
X2763Y5515D01*
X2774Y5513D01*
X2799Y5512D01*
X2814Y5512D01*
Y5433D01*
X2799Y5433D01*
X2763Y5430D01*
X2755Y5428D01*
X2748Y5426D01*
X2742Y5424D01*
X2738Y5421D01*
X2736Y5418D01*
X2735Y5415D01*
Y5530D01*
X2736Y5527D01*
D02*
G37*
G36*
Y5330D02*
X2738Y5327D01*
X2742Y5324D01*
X2748Y5322D01*
X2755Y5320D01*
X2763Y5318D01*
X2774Y5317D01*
X2799Y5315D01*
X2814Y5315D01*
Y5236D01*
X2799Y5236D01*
X2763Y5233D01*
X2755Y5232D01*
X2748Y5230D01*
X2742Y5227D01*
X2738Y5224D01*
X2736Y5221D01*
X2735Y5218D01*
Y5333D01*
X2736Y5330D01*
D02*
G37*
G36*
X4488Y4839D02*
X4490Y4836D01*
X4494Y4834D01*
X4500Y4832D01*
X4507Y4830D01*
X4515Y4829D01*
X4537Y4827D01*
X4566Y4827D01*
Y4748D01*
X4551Y4748D01*
X4537Y4746D01*
X4525Y4744D01*
X4515Y4742D01*
X4506Y4738D01*
X4499Y4734D01*
X4493Y4729D01*
X4489Y4723D01*
X4487Y4716D01*
X4486Y4709D01*
X4487Y4841D01*
X4488Y4839D01*
D02*
G37*
G36*
X3556Y4854D02*
X3542Y4838D01*
X3531Y4819D01*
X3520Y4796D01*
X3511Y4769D01*
X3504Y4738D01*
X3498Y4704D01*
X3493Y4666D01*
X3488Y4580D01*
X3488Y4531D01*
X3176Y4843D01*
X3225Y4843D01*
X3350Y4852D01*
X3384Y4858D01*
X3415Y4866D01*
X3441Y4875D01*
X3465Y4885D01*
X3484Y4897D01*
X3500Y4910D01*
X3556Y4854D01*
D02*
G37*
G36*
X25021Y8486D02*
X25015Y8483D01*
X25009Y8479D01*
X25004Y8474D01*
X24999Y8467D01*
X24996Y8458D01*
X24993Y8447D01*
X24991Y8435D01*
X24990Y8422D01*
X24989Y8407D01*
X24911D01*
X24910Y8422D01*
X24909Y8435D01*
X24907Y8447D01*
X24904Y8458D01*
X24901Y8467D01*
X24897Y8474D01*
X24891Y8479D01*
X24886Y8483D01*
X24879Y8486D01*
X24871Y8487D01*
X25029D01*
X25021Y8486D01*
D02*
G37*
G36*
X24796Y6606D02*
X24797Y6592D01*
X24799Y6580D01*
X24802Y6570D01*
X24805Y6561D01*
X24809Y6554D01*
X24815Y6548D01*
X24820Y6544D01*
X24827Y6542D01*
X24835Y6541D01*
X24677D01*
X24685Y6542D01*
X24691Y6544D01*
X24697Y6548D01*
X24702Y6554D01*
X24707Y6561D01*
X24710Y6570D01*
X24713Y6580D01*
X24715Y6592D01*
X24716Y6606D01*
X24717Y6621D01*
X24795D01*
X24796Y6606D01*
D02*
G37*
G36*
X21240Y1554D02*
X21232Y1548D01*
X21224Y1539D01*
X21218Y1525D01*
X21213Y1507D01*
X21208Y1485D01*
X21205Y1460D01*
X21201Y1397D01*
X21201Y1359D01*
X21004D01*
X21003Y1397D01*
X20998Y1460D01*
X20993Y1485D01*
X20987Y1507D01*
X20980Y1525D01*
X20971Y1539D01*
X20961Y1548D01*
X20949Y1554D01*
X20936Y1556D01*
X21249D01*
X21240Y1554D01*
D02*
G37*
G36*
X16665D02*
X16650Y1548D01*
X16637Y1539D01*
X16626Y1525D01*
X16616Y1507D01*
X16608Y1485D01*
X16602Y1460D01*
X16598Y1430D01*
X16595Y1397D01*
X16594Y1359D01*
X16398D01*
X16397Y1397D01*
X16391Y1507D01*
X16387Y1525D01*
X16384Y1539D01*
X16380Y1548D01*
X16375Y1554D01*
X16369Y1556D01*
X16682D01*
X16665Y1554D01*
D02*
G37*
G36*
X12098D02*
X12083Y1548D01*
X12070Y1539D01*
X12059Y1525D01*
X12049Y1507D01*
X12042Y1485D01*
X12035Y1460D01*
X12031Y1430D01*
X12028Y1397D01*
X12028Y1359D01*
X11831D01*
X11830Y1397D01*
X11824Y1507D01*
X11821Y1525D01*
X11817Y1539D01*
X11813Y1548D01*
X11808Y1554D01*
X11802Y1556D01*
X12115D01*
X12098Y1554D01*
D02*
G37*
G36*
X7531D02*
X7517Y1548D01*
X7503Y1539D01*
X7492Y1525D01*
X7482Y1507D01*
X7475Y1485D01*
X7468Y1460D01*
X7464Y1430D01*
X7462Y1397D01*
X7461Y1359D01*
X7264D01*
X7264Y1397D01*
X7257Y1507D01*
X7254Y1525D01*
X7250Y1539D01*
X7246Y1548D01*
X7241Y1554D01*
X7235Y1556D01*
X7548D01*
X7531Y1554D01*
D02*
G37*
D13*
X7300Y16797D02*
Y16822D01*
X7025Y16522D02*
X7300Y16797D01*
X7215Y16907D02*
Y17572D01*
Y16907D02*
X7300Y16822D01*
X6900Y21752D02*
X6929Y21722D01*
Y20834D02*
Y21722D01*
Y20834D02*
X7047Y20715D01*
Y20709D02*
Y20715D01*
X2480Y10394D02*
Y10591D01*
Y10197D02*
Y10394D01*
Y10000D02*
Y10197D01*
X18937Y14738D02*
X18945Y14747D01*
X18937Y13740D02*
Y14738D01*
X30472Y8701D02*
Y9100D01*
X30492Y9119D01*
X30413Y8313D02*
X30517D01*
X30118Y8622D02*
X30148Y8592D01*
X30409Y8317D02*
Y8378D01*
Y8317D02*
X30413Y8313D01*
X30148Y8592D02*
X30194D01*
X30409Y8378D01*
X30487Y9124D02*
X30492Y9119D01*
X11554Y15426D02*
X12165Y14815D01*
X12244Y11102D02*
Y11145D01*
X12165Y11224D02*
X12244Y11145D01*
X12165Y11224D02*
Y14815D01*
X12008Y10787D02*
Y14750D01*
X11535Y15222D02*
X12008Y14750D01*
X506Y7565D02*
Y14172D01*
X630Y7441D02*
X2480D01*
X506Y7565D02*
X630Y7441D01*
X6230Y6759D02*
X6260Y6789D01*
X6230Y6645D02*
Y6759D01*
X4977Y5392D02*
X6230Y6645D01*
X4595Y4787D02*
X6614Y6807D01*
X4433Y4787D02*
X4595D01*
X6614Y6807D02*
Y6827D01*
X14409Y7244D02*
Y8080D01*
X14414Y8085D01*
X3724Y5079D02*
X4663D01*
X4977Y5392D01*
X4977D01*
X4173Y4528D02*
X4433Y4787D01*
X3173Y4528D02*
X3724Y5079D01*
X4528Y5276D02*
X4879Y5627D01*
X4869Y5952D02*
Y5972D01*
X4879Y5627D02*
Y5629D01*
X2480Y7244D02*
X2992D01*
X3346Y7598D01*
X2480Y7047D02*
X3170D01*
X3327Y7205D01*
X3346D01*
X4468Y7992D02*
X5748D01*
X3326Y6850D02*
X4468Y7992D01*
X2480Y6850D02*
X3326D01*
X2480Y6654D02*
X3425D01*
X4685Y7244D02*
X5984D01*
X2480Y6063D02*
X3858D01*
X4094Y6299D02*
X4094D01*
X4389Y5472D02*
X4869Y5952D01*
X4528Y7756D02*
X6063D01*
X3701Y6260D02*
X4685Y7244D01*
X4094Y6299D02*
X4152Y6356D01*
X4094Y5866D02*
X4485Y6256D01*
X2480Y5669D02*
X4213D01*
X4449Y5906D01*
X2480Y5472D02*
X4389D01*
X2480Y6457D02*
X3504D01*
X4528Y7480D02*
X5669D01*
X4485Y6256D02*
Y6281D01*
X4449Y5906D02*
X4488D01*
X2480Y5276D02*
X4528D01*
X3425Y6654D02*
X4528Y7756D01*
X3504Y6457D02*
X4528Y7480D01*
X2480Y6260D02*
X3701D01*
X3858Y6063D02*
X4094Y6299D01*
X2480Y5866D02*
X4094D01*
X2480Y5472D02*
X2480Y5472D01*
X5740Y3434D02*
X5748Y3425D01*
X5740Y3499D02*
X5787Y3547D01*
X5915Y1870D02*
X5984Y1939D01*
Y4567D02*
X8947Y7530D01*
X5740Y3434D02*
Y3499D01*
X5984Y1939D02*
Y4567D01*
X5200Y15322D02*
Y18310D01*
X5412Y18522D02*
X6276D01*
X5200Y18310D02*
X5412Y18522D01*
X5043Y15257D02*
Y18901D01*
X5164Y19022D02*
X6276D01*
X5043Y18901D02*
X5164Y19022D01*
X10079Y15551D02*
Y17283D01*
X7930Y17572D02*
X9790D01*
X10079Y17283D01*
Y15551D02*
X10204Y15426D01*
X11554D01*
X25622Y6843D02*
X25906Y7126D01*
X26457D01*
X28189Y8858D01*
X506Y14680D02*
X512Y14685D01*
X506Y14172D02*
Y14680D01*
X2100Y14640D02*
Y14972D01*
X1500Y15222D02*
X2650D01*
X9970Y8219D02*
X15049Y3140D01*
X9970Y8219D02*
Y10484D01*
X15049Y1870D02*
Y3140D01*
X9715Y8120D02*
X14764Y3071D01*
X14764D01*
X9715Y8120D02*
Y10484D01*
X18986Y3228D02*
X19380Y2835D01*
X19616Y1870D02*
Y2943D01*
X15669Y3386D02*
X19173D01*
X19616Y2943D01*
X24606Y9449D02*
X24911D01*
X24950Y9488D01*
X6861Y15522D02*
X6890Y15551D01*
X6276Y15522D02*
X6861D01*
X17953Y6452D02*
Y6811D01*
X17414Y7349D02*
Y8085D01*
Y7349D02*
X17953Y6811D01*
X18622Y6452D02*
Y7008D01*
X18914Y7300D02*
Y8085D01*
X18622Y7008D02*
X18914Y7300D01*
Y8085D02*
X18976Y8147D01*
X25669Y17454D02*
Y21024D01*
X26656Y22010D02*
X27254D01*
X25669Y21024D02*
X26656Y22010D01*
X25512Y17658D02*
Y21260D01*
X26735Y22483D02*
X27228D01*
X25512Y21260D02*
X26735Y22483D01*
X27228D02*
X27254Y22510D01*
X26063Y20472D02*
Y21024D01*
X26549Y21510D02*
X27254D01*
X26063Y21024D02*
X26549Y21510D01*
X14882Y9764D02*
Y13123D01*
X14685Y9567D02*
X14882Y9764D01*
Y13123D02*
X15658Y13899D01*
X14941Y9350D02*
Y9354D01*
X15039Y9452D01*
Y13057D02*
X15723Y13741D01*
X15039Y9452D02*
Y13057D01*
X15551Y8937D02*
Y9331D01*
X15354Y9528D02*
Y12927D01*
Y9528D02*
X15551Y9331D01*
X15354Y12927D02*
X15853Y13425D01*
X15197Y9259D02*
X15216Y9240D01*
Y9164D02*
Y9240D01*
Y9164D02*
X15246Y9134D01*
X15197Y9259D02*
Y12992D01*
X25984Y16588D02*
Y19560D01*
X26072Y19648D01*
X25114Y15718D02*
X25984Y16588D01*
X26072Y19648D02*
Y19734D01*
X26102Y19764D01*
X24163Y16742D02*
X24193Y16772D01*
X25551D01*
X23543Y15709D02*
X23583D01*
X23829Y15463D01*
X24163D01*
X25108Y17254D02*
X25512Y17658D01*
X24163Y17254D02*
X25108D01*
X25223Y17008D02*
X25669Y17454D01*
X5787Y3547D02*
Y4593D01*
X8691Y7496D02*
Y10484D01*
X5787Y4593D02*
X8691Y7496D01*
X8947Y7530D02*
Y10484D01*
X14914Y6883D02*
Y8085D01*
X14882Y6850D02*
X14914Y6883D01*
X8150Y12774D02*
X8179Y12744D01*
X8150Y12774D02*
Y13346D01*
X8425Y13268D02*
X8435Y13258D01*
Y12744D02*
Y13258D01*
X15853Y13425D02*
X17913D01*
X18414Y13926D02*
Y14778D01*
X17913Y13425D02*
X18414Y13926D01*
X15658Y13899D02*
X16811D01*
X15723Y13741D02*
X17368D01*
X17414Y13787D01*
Y14778D01*
X15197Y12992D02*
X15788Y13584D01*
X17677D02*
X17914Y13821D01*
X15788Y13584D02*
X17677D01*
X14478Y14861D02*
Y16585D01*
X18386Y8113D02*
Y9567D01*
X13914Y8085D02*
Y8836D01*
X12037Y10010D02*
X12155D01*
X17441Y8111D02*
Y10197D01*
X17835Y8164D02*
X17914Y8085D01*
X18209Y10197D02*
X18720Y9685D01*
X13386Y14806D02*
Y15591D01*
X13914Y14778D02*
Y15534D01*
X15394Y14798D02*
Y16181D01*
X14414Y14778D02*
X14488Y14851D01*
X14331Y9252D02*
Y13976D01*
X14961Y14824D02*
Y15906D01*
X13386Y8346D02*
X13552D01*
X15906Y14786D02*
Y16811D01*
X13021Y13181D02*
X13732D01*
X16417Y14781D02*
Y15748D01*
X17835Y8164D02*
X17992Y8322D01*
X16414Y14778D02*
X16417Y14781D01*
X14094Y9370D02*
Y10709D01*
X17914Y13821D02*
Y14778D01*
X12441Y9724D02*
X12977D01*
X19333Y9694D02*
X19419D01*
X18720Y9685D02*
X19324D01*
X12977Y9724D02*
X13021Y9681D01*
X14478Y14861D02*
X14488Y14851D01*
X17441Y10197D02*
X18209D01*
X15906Y14786D02*
X15914Y14778D01*
X12008Y10039D02*
X12037Y10010D01*
X19419Y9694D02*
X19449Y9724D01*
X16811Y13899D02*
X16914Y14002D01*
X13386Y8661D02*
X14094Y9370D01*
X13386Y8113D02*
X13414Y8085D01*
X19324Y9685D02*
X19333Y9694D01*
X14914Y14778D02*
X14961Y14824D01*
X12155Y10010D02*
X12441Y9724D01*
X15394Y14798D02*
X15414Y14778D01*
X16914Y14002D02*
Y14778D01*
X13386Y14806D02*
X13414Y14778D01*
X13386Y8346D02*
Y8661D01*
X18386Y8113D02*
X18414Y8085D01*
X13732Y13181D02*
X13740Y13189D01*
X13386Y8113D02*
Y8346D01*
X17414Y8085D02*
X17441Y8111D01*
X13914Y8836D02*
X14331Y9252D01*
X17992Y8322D02*
Y9646D01*
X18976Y8147D02*
Y9055D01*
X11299Y12913D02*
Y14764D01*
X12008Y9184D02*
X12018Y9173D01*
X12008Y9184D02*
Y9685D01*
X12026Y9181D02*
X13021D01*
X12018Y9173D02*
X12026Y9181D01*
X11614Y14449D02*
X11654Y14409D01*
Y12480D02*
Y14409D01*
X12004Y8346D02*
X13386D01*
X7930Y15222D02*
X11535D01*
X8504Y12087D02*
X11732D01*
X8435Y12156D02*
Y12744D01*
Y12156D02*
X8504Y12087D01*
X8425Y11929D02*
X11496D01*
X8179Y12175D02*
Y12744D01*
Y12175D02*
X8425Y11929D01*
X7362Y20472D02*
Y21644D01*
X7323Y21683D02*
X7362Y21644D01*
X11496Y11929D02*
X11732Y11693D01*
X20456Y20167D02*
X20456D01*
X20799Y20510D02*
X23533D01*
X20456Y20167D02*
X20799Y20510D01*
X18307Y18018D02*
X20456Y20167D01*
X18307Y15787D02*
Y18018D01*
X18071Y15551D02*
X18307Y15787D01*
X18465Y15551D02*
Y17953D01*
X20522Y20010D02*
X23533D01*
X18465Y17953D02*
X20522Y20010D01*
X24173Y17008D02*
X25223D01*
X24163Y16998D02*
X24173Y17008D01*
X27254Y20510D02*
X29319D01*
X29370Y20561D01*
X23504Y17520D02*
X24154D01*
X24163Y17510D01*
X28622Y14094D02*
X28642Y14075D01*
X29370D01*
X28661Y14567D02*
X29370D01*
X27018Y16742D02*
Y16998D01*
Y17766D02*
Y18022D01*
X28425Y19567D02*
X28435Y19577D01*
X29370D01*
X28386Y20079D02*
X28396Y20069D01*
X29370D01*
X10945Y9173D02*
X11304D01*
X10738Y9380D02*
X10945Y9173D01*
X10738Y9380D02*
Y10484D01*
X27254Y20010D02*
Y20510D01*
Y19510D02*
Y20010D01*
X24163Y15718D02*
X25114D01*
X24163Y15974D02*
X25148D01*
X25827Y16654D01*
Y19874D01*
X26962Y21010D02*
X27254D01*
X25827Y19874D02*
X26962Y21010D01*
X27018Y16230D02*
Y16486D01*
Y15207D02*
Y15463D01*
X26181Y8937D02*
X26772D01*
X24950Y8218D02*
Y8661D01*
X24756Y8024D02*
X24950Y8218D01*
X24756Y6268D02*
Y8024D01*
X28189Y9213D02*
X28425Y9449D01*
X28189Y8858D02*
Y9213D01*
X28425Y9449D02*
X28976D01*
X26488Y6268D02*
Y6921D01*
X28248Y8681D01*
X26772Y9705D02*
X26781Y9715D01*
X27470D01*
X27480Y9724D01*
X28248Y8681D02*
X28976D01*
X25622Y6268D02*
Y6843D01*
X26921Y6803D02*
X27874Y7756D01*
Y7913D01*
X26921Y6268D02*
Y6803D01*
X25704Y9449D02*
X26772D01*
X25665Y9488D02*
X25704Y9449D01*
X25665Y8661D02*
X25685Y8681D01*
X26772D01*
X9213Y18937D02*
X18443D01*
X20600Y21094D02*
Y21752D01*
X18443Y18937D02*
X20600Y21094D01*
X18509Y18780D02*
X21093Y21363D01*
X9409Y18780D02*
X18509D01*
X21093Y21363D02*
Y21752D01*
X9173Y18543D02*
X9409Y18780D01*
X8937Y18543D02*
X9173D01*
X9724Y19370D02*
X14134D01*
X16033Y21270D02*
Y21752D01*
X14134Y19370D02*
X16033Y21270D01*
X9531Y19134D02*
X14370D01*
X16526Y21289D02*
Y21752D01*
X14370Y19134D02*
X16526Y21289D01*
X9449Y19173D02*
X9491D01*
X9531Y19134D01*
X10255Y19606D02*
X11959Y21310D01*
Y21752D01*
X10000Y19606D02*
X10255D01*
X11467Y21152D02*
Y21752D01*
X10236Y19921D02*
X11467Y21152D01*
X7323Y21683D02*
X7392Y21752D01*
X8937Y14646D02*
X8947Y14636D01*
Y12744D02*
Y14636D01*
X9173Y14882D02*
X9203Y14852D01*
Y12744D02*
Y14852D01*
X9459Y12744D02*
Y14636D01*
X9715Y14911D02*
X9724Y14921D01*
X9715Y12744D02*
Y14911D01*
X9961Y14646D02*
X9970Y14636D01*
Y12744D02*
Y14636D01*
X10226Y14911D02*
X10236Y14921D01*
X10226Y12744D02*
Y14911D01*
X10472Y14685D02*
X10482Y14675D01*
Y12744D02*
Y14675D01*
X10738Y14951D02*
X10748Y14961D01*
X10738Y12744D02*
Y14951D01*
X20079Y1900D02*
X20108Y1870D01*
X20079Y1900D02*
Y2480D01*
X15541Y1870D02*
X15551Y1880D01*
Y2441D01*
X10226Y8606D02*
X15604Y3228D01*
X18986D01*
X10226Y8606D02*
Y10484D01*
X10482Y8573D02*
X15669Y3386D01*
X10482Y8573D02*
Y10484D01*
X9203Y4144D02*
Y10484D01*
X10216Y3033D02*
X10246Y3003D01*
X10216Y3033D02*
Y3131D01*
X9203Y4144D02*
X10216Y3131D01*
X10974Y1870D02*
X10984Y1880D01*
Y2520D01*
X10482Y1870D02*
Y3100D01*
X9459Y4124D02*
X10482Y3100D01*
X9459Y4124D02*
Y10484D01*
X6378Y1900D02*
X6407Y1870D01*
X6378Y1900D02*
Y2520D01*
X8435Y10484D02*
Y11053D01*
X8342Y11146D02*
X8435Y11053D01*
X7087Y11146D02*
X8342D01*
X3306Y14527D02*
X3307Y14528D01*
X3306Y14122D02*
Y14527D01*
X380Y16121D02*
X950D01*
X334Y15538D02*
X400Y15472D01*
X334Y15538D02*
Y16075D01*
X380Y16121D01*
X2822Y19082D02*
Y19368D01*
X2667Y19523D02*
X2822Y19368D01*
X2596Y19523D02*
X2667D01*
X400Y19569D02*
Y20272D01*
X446Y19523D02*
X950D01*
X400Y19569D02*
X446Y19523D01*
X6100Y13722D02*
X6650Y14272D01*
Y14322D01*
X6100Y13222D02*
Y13722D01*
X5400Y13237D02*
Y13822D01*
X4950Y14272D02*
X5400Y13822D01*
X4950Y14272D02*
Y14322D01*
X1997Y13822D02*
X2059Y13884D01*
X1294Y13798D02*
X1318Y13822D01*
X1997D01*
X2860Y13748D02*
X4094D01*
X2709Y13899D02*
X2860Y13748D01*
X2650Y13899D02*
X2709D01*
X1294Y14546D02*
Y15016D01*
X1500Y15222D01*
X2650Y14714D02*
Y15222D01*
Y14714D02*
X2700Y14664D01*
X2059Y14599D02*
X2100Y14640D01*
X4094Y14496D02*
X4150Y14552D01*
Y14922D01*
X2650Y14614D02*
X2700Y14664D01*
X4150Y17022D02*
X4750D01*
X4800Y16972D01*
X4950Y14322D02*
X5150Y14522D01*
Y15149D01*
X5043Y15257D02*
X5150Y15149D01*
X5200Y15322D02*
X5400Y15122D01*
X6550D01*
X4150Y16522D02*
X4750D01*
X6550Y15122D02*
X6650Y15022D01*
Y14322D02*
Y15022D01*
X7215Y15222D02*
Y15937D01*
X7300Y16022D01*
X6276D02*
X7300D01*
X6276Y16522D02*
X7025D01*
X2155Y17920D02*
Y18071D01*
Y17770D02*
Y17920D01*
Y17770D02*
X2201Y17724D01*
X2822D01*
X2201Y18117D02*
X2822D01*
X2155Y18071D02*
X2201Y18117D01*
X5500Y18022D02*
X6276D01*
X6251Y17547D02*
X6276Y17522D01*
X5475Y17547D02*
X6251D01*
X5450Y17572D02*
X5475Y17547D01*
X3345Y17701D02*
Y17874D01*
Y17527D02*
Y17701D01*
X2822Y17920D02*
X3299D01*
X3345Y17874D01*
X2822Y17527D02*
X3345D01*
D15*
X2047Y11968D02*
X2480D01*
Y11181D02*
X5575D01*
X6117Y11723D01*
X6142D01*
X2480Y11968D02*
Y12165D01*
Y11772D02*
Y11968D01*
Y11181D02*
Y11378D01*
Y10984D02*
Y11181D01*
X7891Y14072D02*
X7913Y14094D01*
X7891Y13988D02*
Y14072D01*
X9528Y17323D02*
X9615Y17236D01*
Y16772D02*
Y17236D01*
X8465Y17323D02*
X8504Y17283D01*
X8465Y17323D02*
X9528D01*
X7874Y13386D02*
X7923Y13337D01*
X7874Y13972D02*
X7891Y13988D01*
X7874Y13386D02*
Y13972D01*
X7923Y12744D02*
Y13337D01*
X8583Y15472D02*
X9528D01*
X9600Y15545D01*
Y16022D01*
X7938Y11905D02*
X7953Y11890D01*
X7923Y12744D02*
X7938Y12729D01*
Y11905D02*
Y12729D01*
X9607Y16765D02*
X9615Y16772D01*
X9607Y16029D02*
Y16765D01*
X9600Y16022D02*
X9607Y16029D01*
X27222Y8169D02*
X27992Y8940D01*
X26102Y7520D02*
Y8100D01*
X26172Y8169D02*
X26772D01*
X26102Y8100D02*
X26172Y8169D01*
X26772D02*
X27222D01*
D17*
X787Y20767D02*
X846Y20709D01*
X3189D01*
X3425Y20472D01*
X787Y20767D02*
Y21339D01*
X3425Y18780D02*
Y20472D01*
X28976Y9193D02*
X29704D01*
X29772Y9125D01*
Y9124D02*
Y9125D01*
X28976Y8425D02*
X29585D01*
X29772Y8238D01*
Y8179D02*
Y8238D01*
X16417Y8003D02*
X16457Y8042D01*
X16414Y8085D02*
X16457Y8042D01*
X15472Y7087D02*
Y7985D01*
X16417Y6535D02*
Y8003D01*
X13898Y15551D02*
X13914Y15534D01*
X19449Y6782D02*
Y8050D01*
X15984Y6732D02*
Y7997D01*
X15906Y8076D02*
X15914Y8085D01*
X15906Y8076D02*
X15984Y7997D01*
X15394Y8064D02*
X15472Y7985D01*
X15394Y8064D02*
X15414Y8085D01*
X19414D02*
X19449Y8050D01*
X24950Y9488D02*
X24950Y9488D01*
X3425Y18254D02*
X3592Y18087D01*
X3334Y16877D02*
X3592Y17135D01*
Y18087D01*
X3413Y18767D02*
X3425Y18754D01*
Y18254D02*
Y18754D01*
X2822Y16877D02*
X3334D01*
X3413Y18767D02*
X3425Y18780D01*
X2822Y18767D02*
X3413D01*
X5415Y12592D02*
X6100D01*
X5400Y12607D02*
X5415Y12592D01*
X1750Y18472D02*
Y20172D01*
Y18472D02*
X1908Y18314D01*
X2822D01*
X8200Y16822D02*
X8850D01*
X8900Y16772D01*
X8200Y16022D02*
X8885D01*
X8885Y16022D01*
X1115Y15472D02*
X1500D01*
X1650Y15622D01*
Y16922D01*
X1861Y17133D01*
X2822D01*
X2714Y16562D02*
X2822D01*
X2646Y16494D02*
X2714Y16562D01*
X2646Y16171D02*
Y16494D01*
X2596Y16121D02*
X2646Y16171D01*
X1115Y20272D02*
X1650D01*
X1750Y20172D01*
D24*
X23533Y23010D02*
D03*
Y22510D02*
D03*
Y22010D02*
D03*
Y21510D02*
D03*
Y21010D02*
D03*
Y20510D02*
D03*
Y20010D02*
D03*
Y19510D02*
D03*
X27254Y23010D02*
D03*
Y22510D02*
D03*
Y22010D02*
D03*
Y21510D02*
D03*
Y21010D02*
D03*
Y20510D02*
D03*
Y20010D02*
D03*
Y19510D02*
D03*
D25*
X24163Y18022D02*
D03*
Y17766D02*
D03*
Y15207D02*
D03*
Y15463D02*
D03*
Y15718D02*
D03*
Y15974D02*
D03*
Y16230D02*
D03*
Y16486D02*
D03*
Y16742D02*
D03*
Y16998D02*
D03*
Y17254D02*
D03*
Y17510D02*
D03*
X27018Y18022D02*
D03*
Y17766D02*
D03*
Y17510D02*
D03*
Y17254D02*
D03*
Y16998D02*
D03*
Y16742D02*
D03*
Y16486D02*
D03*
Y16230D02*
D03*
Y15974D02*
D03*
Y15718D02*
D03*
Y15463D02*
D03*
Y15207D02*
D03*
D26*
X29370Y20561D02*
D03*
Y20069D02*
D03*
Y19577D02*
D03*
Y19085D02*
D03*
Y18593D02*
D03*
Y18100D02*
D03*
Y15059D02*
D03*
Y14567D02*
D03*
Y14075D02*
D03*
Y13583D02*
D03*
Y13091D02*
D03*
Y12598D02*
D03*
D27*
X30512Y21565D02*
D03*
Y17096D02*
D03*
Y16063D02*
D03*
Y11594D02*
D03*
D28*
X28228Y17992D02*
D03*
Y18622D02*
D03*
Y12598D02*
D03*
Y13228D02*
D03*
X6100Y12592D02*
D03*
Y13222D02*
D03*
X5400Y12607D02*
D03*
Y13237D02*
D03*
D29*
X25009Y14173D02*
D03*
X26309D02*
D03*
X28504Y10748D02*
D03*
X27204D02*
D03*
X20797Y16496D02*
D03*
X19497D02*
D03*
D30*
X30487Y9124D02*
D03*
X29772Y9124D02*
D03*
X30487Y8179D02*
D03*
X29772Y8179D02*
D03*
X24950Y9488D02*
D03*
X25665Y9488D02*
D03*
X24950Y8661D02*
D03*
X25665Y8661D02*
D03*
X1115Y20272D02*
D03*
X400Y20272D02*
D03*
X7930Y17572D02*
D03*
X7215Y17572D02*
D03*
X9615Y16772D02*
D03*
X8900Y16772D02*
D03*
X9600Y16022D02*
D03*
X8885Y16022D02*
D03*
X7930Y15222D02*
D03*
X7215Y15222D02*
D03*
X1115Y15472D02*
D03*
X400Y15472D02*
D03*
X12018Y9173D02*
D03*
X11304Y9173D02*
D03*
X11289Y8346D02*
D03*
X12004Y8346D02*
D03*
D31*
X787Y21339D02*
D03*
X2520D02*
D03*
D32*
X2822Y18511D02*
D03*
Y18314D02*
D03*
Y18117D02*
D03*
Y17133D02*
D03*
Y17330D02*
D03*
Y17527D02*
D03*
Y17920D02*
D03*
Y17724D02*
D03*
D33*
Y16877D02*
D03*
Y18767D02*
D03*
Y16562D02*
D03*
Y19082D02*
D03*
D34*
X6276Y15522D02*
D03*
Y16022D02*
D03*
Y16522D02*
D03*
Y17022D02*
D03*
Y17522D02*
D03*
Y18022D02*
D03*
Y18522D02*
D03*
Y19022D02*
D03*
X4150Y15522D02*
D03*
Y16022D02*
D03*
Y16522D02*
D03*
Y17022D02*
D03*
Y17522D02*
D03*
Y18022D02*
D03*
Y18522D02*
D03*
Y19022D02*
D03*
D35*
X7300Y16822D02*
D03*
X8200D02*
D03*
X7300Y16022D02*
D03*
X8200D02*
D03*
D36*
X4950Y14322D02*
D03*
X6650D02*
D03*
D37*
X7923Y10484D02*
D03*
X8179D02*
D03*
X8435D02*
D03*
X8691D02*
D03*
X8947D02*
D03*
X9203D02*
D03*
X9459D02*
D03*
X9715D02*
D03*
X9970D02*
D03*
X10226D02*
D03*
X10482D02*
D03*
X10738D02*
D03*
Y12744D02*
D03*
X10482D02*
D03*
X10226D02*
D03*
X9970D02*
D03*
X9715D02*
D03*
X9459D02*
D03*
X9203D02*
D03*
X8947D02*
D03*
X8691D02*
D03*
X8435D02*
D03*
X8179D02*
D03*
X7923D02*
D03*
D38*
X7087Y11861D02*
D03*
X7087Y11146D02*
D03*
X2650Y14614D02*
D03*
X2650Y13899D02*
D03*
X2059Y13884D02*
D03*
X2059Y14599D02*
D03*
X18622Y5737D02*
D03*
X18622Y6452D02*
D03*
X17953Y5737D02*
D03*
X17953Y6452D02*
D03*
D39*
X6142Y11723D02*
D03*
Y10423D02*
D03*
D40*
X4094Y14496D02*
D03*
Y13748D02*
D03*
X3306Y14122D02*
D03*
X506Y14172D02*
D03*
X1294Y13798D02*
D03*
Y14546D02*
D03*
D41*
X1201Y9252D02*
D03*
Y12913D02*
D03*
Y4528D02*
D03*
Y8189D02*
D03*
D42*
X19616Y1870D02*
D03*
X20108D02*
D03*
X20600D02*
D03*
X21093D02*
D03*
X15049D02*
D03*
X15541D02*
D03*
X16033D02*
D03*
X16526D02*
D03*
X10482D02*
D03*
X10974D02*
D03*
X11467D02*
D03*
X11959D02*
D03*
X5915D02*
D03*
X6407D02*
D03*
X6900D02*
D03*
X7392D02*
D03*
X21093Y21752D02*
D03*
X20600D02*
D03*
X20108D02*
D03*
X19616D02*
D03*
X16526D02*
D03*
X16033D02*
D03*
X15541D02*
D03*
X15049D02*
D03*
X11959D02*
D03*
X11467D02*
D03*
X10974D02*
D03*
X10482D02*
D03*
X7392D02*
D03*
X6900D02*
D03*
X6407D02*
D03*
X5915D02*
D03*
D43*
X18612Y728D02*
D03*
X22096D02*
D03*
X14045D02*
D03*
X17530D02*
D03*
X9478D02*
D03*
X12963D02*
D03*
X4911D02*
D03*
X8396D02*
D03*
X22096Y22894D02*
D03*
X18612D02*
D03*
X17530D02*
D03*
X14045D02*
D03*
X12963D02*
D03*
X9478D02*
D03*
X8396D02*
D03*
X4911D02*
D03*
D44*
X16239Y11102D02*
D03*
Y11825D02*
D03*
Y12547D02*
D03*
X16962Y11102D02*
D03*
Y11825D02*
D03*
Y12547D02*
D03*
X17684Y11102D02*
D03*
Y11825D02*
D03*
Y12547D02*
D03*
D45*
X19914Y8085D02*
D03*
X19414D02*
D03*
X18914D02*
D03*
X18414D02*
D03*
X17914D02*
D03*
X17414D02*
D03*
X16914D02*
D03*
X16414D02*
D03*
X15914D02*
D03*
X15414D02*
D03*
X14914D02*
D03*
X14414D02*
D03*
X13914D02*
D03*
X13414D02*
D03*
Y14778D02*
D03*
X13914D02*
D03*
X14414D02*
D03*
X14914D02*
D03*
X15414D02*
D03*
X15914D02*
D03*
X16414D02*
D03*
X16914D02*
D03*
X17414D02*
D03*
X17914D02*
D03*
X18414D02*
D03*
X18914D02*
D03*
X19414D02*
D03*
X19914D02*
D03*
D46*
X13021Y9181D02*
D03*
Y9681D02*
D03*
Y10181D02*
D03*
Y10681D02*
D03*
Y11181D02*
D03*
Y11681D02*
D03*
Y12181D02*
D03*
Y12681D02*
D03*
Y13181D02*
D03*
Y13681D02*
D03*
D47*
X27354Y6268D02*
D03*
X26921D02*
D03*
X26488D02*
D03*
X26055D02*
D03*
X25622D02*
D03*
X25189D02*
D03*
X24756D02*
D03*
X24323D02*
D03*
X23890D02*
D03*
D48*
X23346Y1937D02*
D03*
Y5480D02*
D03*
X29705D02*
D03*
Y1937D02*
D03*
D53*
X28976Y8169D02*
D03*
Y8425D02*
D03*
Y8681D02*
D03*
Y8937D02*
D03*
Y9193D02*
D03*
Y9449D02*
D03*
Y9705D02*
D03*
X26772D02*
D03*
Y9449D02*
D03*
Y9193D02*
D03*
Y8937D02*
D03*
Y8681D02*
D03*
Y8425D02*
D03*
Y8169D02*
D03*
D84*
X2480Y10000D02*
D03*
Y10197D02*
D03*
Y10394D02*
D03*
Y10591D02*
D03*
Y10787D02*
D03*
Y10984D02*
D03*
Y11181D02*
D03*
Y11378D02*
D03*
Y11575D02*
D03*
Y11772D02*
D03*
Y11968D02*
D03*
Y12165D02*
D03*
Y5276D02*
D03*
Y5472D02*
D03*
Y5669D02*
D03*
Y5866D02*
D03*
Y6063D02*
D03*
Y6260D02*
D03*
Y6457D02*
D03*
Y6654D02*
D03*
Y6850D02*
D03*
Y7047D02*
D03*
Y7244D02*
D03*
Y7441D02*
D03*
D85*
X28937Y10748D02*
X29488Y11299D01*
X28504Y10748D02*
X28937D01*
X28504Y10034D02*
Y10748D01*
X25148Y16486D02*
X25157Y16496D01*
X24163Y16486D02*
X25148D01*
X23071Y15630D02*
Y16230D01*
X24163D01*
X23163Y18022D02*
X24163D01*
X23071Y16230D02*
Y17929D01*
X23163Y18022D01*
X24163Y17766D02*
Y18022D01*
X5533Y16929D02*
X5612Y17008D01*
X5830Y17011D02*
X6265D01*
X5612Y17008D02*
X5827D01*
X6265Y17011D02*
X6276Y17022D01*
X5827Y17008D02*
X5830Y17011D01*
X5512Y16929D02*
X5533D01*
X29370Y13583D02*
X29394Y13558D01*
X29985D01*
X30000Y13543D01*
X27992Y9523D02*
X28504Y10034D01*
X27992Y8940D02*
Y9523D01*
X26055Y6803D02*
X26067Y6815D01*
X26055Y6268D02*
Y6803D01*
X6280Y11861D02*
X7087D01*
X6142Y11723D02*
X6280Y11861D01*
X7246Y12744D02*
X7923D01*
X7087Y11861D02*
Y12585D01*
X7246Y12744D01*
D86*
X24990Y14192D02*
X25009Y14173D01*
X24990Y14192D02*
Y14843D01*
X25197Y17717D02*
Y19528D01*
X29370Y19085D02*
X29940D01*
X29989Y19134D01*
X30000D01*
X23533Y19510D02*
X25179D01*
X25197Y19528D01*
X20691Y19510D02*
X23533D01*
X28465Y22835D02*
X29465D01*
X3386Y21339D02*
X4685D01*
X3071Y22835D02*
X3386Y22520D01*
Y21339D02*
Y22520D01*
X2520Y21339D02*
X3386D01*
X2071Y22835D02*
X3071D01*
X19409Y18228D02*
X20691Y19510D01*
X19409Y16584D02*
Y18228D01*
X17953Y5748D02*
X18622D01*
X11289Y8287D02*
X13828Y5748D01*
X17942D02*
X17953Y5737D01*
X13828Y5748D02*
X17942D01*
X19409Y16584D02*
X19497Y16496D01*
X3465Y15512D02*
X3475Y15522D01*
X4150D01*
X5907Y21063D02*
X5915Y21071D01*
X4961Y21063D02*
X5907D01*
X4685Y21339D02*
X4961Y21063D01*
X19638Y21715D02*
X19646Y21722D01*
X19638Y21110D02*
Y21715D01*
Y21110D02*
X19646Y21102D01*
X19616Y21752D02*
X19646Y21722D01*
X15049Y21112D02*
Y21752D01*
X10472Y21063D02*
X10482Y21073D01*
Y21752D01*
X5915Y21071D02*
Y21752D01*
X16496Y1299D02*
Y1870D01*
X11929Y1181D02*
Y1870D01*
X21102Y1299D02*
Y1860D01*
X21093Y1870D02*
X21102Y1860D01*
X7362Y1142D02*
Y1841D01*
X7392Y1870D01*
X24990Y14843D02*
Y15091D01*
X24163Y15207D02*
X24875D01*
X24990Y15091D01*
X10804Y8890D02*
X11289Y8405D01*
Y8346D02*
Y8405D01*
X10756Y8890D02*
X10804D01*
X10748Y8898D02*
X10756Y8890D01*
X18622Y5737D02*
X18627Y5743D01*
X19168D01*
X11289Y8287D02*
Y8346D01*
X27300Y16250D02*
X27310Y16260D01*
X28189Y13268D02*
Y16145D01*
X27310Y16260D02*
X28074D01*
X28189Y16145D01*
X27037Y16250D02*
X27300D01*
X27753Y12598D02*
X29331D01*
X26735Y16978D02*
X26998D01*
X26726Y16968D02*
X26735Y16978D01*
X26454Y16968D02*
X26726D01*
X26339Y17084D02*
Y18465D01*
Y17084D02*
X26454Y16968D01*
X28228Y18622D02*
X28243Y18607D01*
X29355D01*
X29370Y18593D01*
X26496Y18622D02*
X28228D01*
X26339Y18465D02*
X26496Y18622D01*
X28228Y17992D02*
X28268Y18032D01*
X28169Y17933D02*
X28228Y17992D01*
X27018Y18022D02*
X28130D01*
X28169Y17982D01*
Y17933D02*
Y17982D01*
X28268Y18032D02*
X29144D01*
X29213Y18100D01*
X29370D01*
X27018Y15207D02*
X27522D01*
X27638Y15091D01*
Y12714D02*
Y15091D01*
Y12714D02*
X27753Y12598D01*
X28189Y13268D02*
X28228Y13228D01*
X28839Y13091D02*
X29370D01*
X28701Y13228D02*
X28839Y13091D01*
X28228Y13228D02*
X28701D01*
X29331Y12598D02*
X29350Y12618D01*
X29370Y12598D01*
X19414Y16413D02*
X19497Y16496D01*
X19414Y14778D02*
Y16413D01*
D87*
X2399Y18960D02*
D03*
Y16684D02*
D03*
D88*
X2596Y16121D02*
D03*
Y19523D02*
D03*
D89*
X950Y16121D02*
D03*
Y19523D02*
D03*
D90*
X29465Y22835D02*
D03*
X2071D02*
D03*
X3173Y4528D02*
D03*
X30787Y6165D02*
D03*
Y5165D02*
D03*
Y4165D02*
D03*
Y3165D02*
D03*
D91*
X28465Y22835D02*
D03*
X3071D02*
D03*
X4173Y4528D02*
D03*
D92*
X30787Y7165D02*
D03*
D93*
X16239Y11464D02*
D03*
Y12186D02*
D03*
X16600Y11102D02*
D03*
Y11825D02*
D03*
Y12547D02*
D03*
X16962Y11464D02*
D03*
Y12186D02*
D03*
X17323Y11102D02*
D03*
Y11825D02*
D03*
Y12547D02*
D03*
X17684Y11464D02*
D03*
Y12186D02*
D03*
D94*
X787Y22835D02*
D03*
X30709Y787D02*
D03*
Y22835D02*
D03*
D95*
X787Y787D02*
D03*
D96*
X25000Y1772D02*
D03*
X27677D02*
D03*
D97*
X2047Y11968D02*
D03*
X8150Y13465D02*
D03*
X7913Y14094D02*
D03*
X29488Y11299D02*
D03*
X30472Y8701D02*
D03*
X30118Y8622D02*
D03*
X30000Y19134D02*
D03*
X25188Y19519D02*
D03*
X18937Y13740D02*
D03*
X6260Y6789D02*
D03*
X14409Y7244D02*
D03*
X6614Y6827D02*
D03*
X4879Y5629D02*
D03*
X4869Y5972D02*
D03*
X3346Y7598D02*
D03*
Y7205D02*
D03*
X6063Y7756D02*
D03*
X4488Y5906D02*
D03*
X5984Y7244D02*
D03*
X4485Y6281D02*
D03*
X5748Y7992D02*
D03*
X5669Y7480D02*
D03*
X4152Y6356D02*
D03*
X5748Y3425D02*
D03*
X25157Y16496D02*
D03*
X25197Y17717D02*
D03*
X512Y14685D02*
D03*
X2100Y14972D02*
D03*
X2650Y15222D02*
D03*
X14764Y3071D02*
D03*
X19380Y2835D02*
D03*
X24606Y9449D02*
D03*
X6890Y15551D02*
D03*
X3465Y15512D02*
D03*
X19646Y21063D02*
D03*
X15049D02*
D03*
X10472D02*
D03*
X5925D02*
D03*
X21102Y1142D02*
D03*
X16496D02*
D03*
X11929D02*
D03*
X7362D02*
D03*
X23071Y15630D02*
D03*
X24990Y14843D02*
D03*
X25551Y16772D02*
D03*
X23543Y15709D02*
D03*
X14882Y6850D02*
D03*
X8425Y13268D02*
D03*
X14961Y15906D02*
D03*
X13740Y13189D02*
D03*
X15906Y16811D02*
D03*
X13898Y15591D02*
D03*
X15984Y6732D02*
D03*
X14331Y13976D02*
D03*
X14094Y10709D02*
D03*
X18976Y9055D02*
D03*
X15394Y16181D02*
D03*
X16417Y15748D02*
D03*
X14478Y16585D02*
D03*
X17441Y10197D02*
D03*
X18386Y9646D02*
D03*
X13386Y15591D02*
D03*
X17992Y9646D02*
D03*
X12008Y10039D02*
D03*
X16417Y6535D02*
D03*
X15472Y7087D02*
D03*
X19449Y9724D02*
D03*
Y6782D02*
D03*
X14961Y9331D02*
D03*
X14685Y9567D02*
D03*
X15551Y8937D02*
D03*
X15246Y9134D02*
D03*
X11299Y14764D02*
D03*
Y12913D02*
D03*
X11614Y14449D02*
D03*
X11654Y12480D02*
D03*
X12008Y9685D02*
D03*
X19173Y5748D02*
D03*
X7047Y20709D02*
D03*
X7362Y20472D02*
D03*
X5512Y16929D02*
D03*
X3425Y18780D02*
D03*
X11732Y11693D02*
D03*
Y12087D02*
D03*
X18071Y15551D02*
D03*
X18465D02*
D03*
X23504Y17520D02*
D03*
X30000Y13543D02*
D03*
X28622Y14094D02*
D03*
X28661Y14567D02*
D03*
X28425Y19567D02*
D03*
X28386Y20079D02*
D03*
X8583Y15472D02*
D03*
X7953Y11890D02*
D03*
X10748Y8898D02*
D03*
X8465Y17323D02*
D03*
X26063Y20472D02*
D03*
X26102Y19764D02*
D03*
Y7520D02*
D03*
X26181Y8937D02*
D03*
X26067Y6815D02*
D03*
X27480Y9724D02*
D03*
X27874Y7913D02*
D03*
X8937Y18543D02*
D03*
X9173Y14961D02*
D03*
X9213Y18937D02*
D03*
X9449Y19173D02*
D03*
X9724Y19370D02*
D03*
X10000Y19606D02*
D03*
X10236Y19921D02*
D03*
X9961Y14685D02*
D03*
X8937D02*
D03*
X9449D02*
D03*
X9724Y14961D02*
D03*
X10236D02*
D03*
X10472Y14685D02*
D03*
X10748Y14961D02*
D03*
X12008Y10787D02*
D03*
X20079Y2480D02*
D03*
X15551Y2441D02*
D03*
X10984Y2520D02*
D03*
X10246Y3003D02*
D03*
X6378Y2520D02*
D03*
X3307Y14528D02*
D03*
X12244Y11102D02*
D03*
X4150Y14922D02*
D03*
X4750Y16972D02*
D03*
Y16522D02*
D03*
X2155Y17920D02*
D03*
X5500Y18022D02*
D03*
X5450Y17572D02*
D03*
X3345Y17701D02*
D03*
M02*
