G04*
G04 #@! TF.GenerationSoftware,Altium Limited,Altium Designer,20.2.6 (244)*
G04*
G04 Layer_Color=32896*
%FSLAX24Y24*%
%MOIN*%
G70*
G04*
G04 #@! TF.SameCoordinates,7583AB6C-3689-415F-B137-6D089145A127*
G04*
G04*
G04 #@! TF.FilePolarity,Positive*
G04*
G01*
G75*
%ADD13C,0.0079*%
G36*
X30603Y2218D02*
X30613Y2218D01*
X30632Y2214D01*
X30641Y2211D01*
X30650Y2208D01*
X30657Y2205D01*
X30664Y2203D01*
X30670Y2200D01*
X30676Y2197D01*
X30680Y2194D01*
X30684Y2192D01*
X30688Y2189D01*
X30690Y2188D01*
X30691Y2187D01*
X30692Y2186D01*
X30699Y2180D01*
X30706Y2173D01*
X30718Y2158D01*
X30728Y2143D01*
X30735Y2127D01*
X30739Y2120D01*
X30741Y2114D01*
X30743Y2108D01*
X30746Y2103D01*
X30747Y2098D01*
X30748Y2095D01*
X30749Y2093D01*
Y2093D01*
X30699Y2080D01*
X30694Y2097D01*
X30688Y2112D01*
X30681Y2124D01*
X30675Y2134D01*
X30669Y2142D01*
X30663Y2147D01*
X30660Y2151D01*
X30659Y2151D01*
X30659Y2152D01*
X30647Y2160D01*
X30636Y2166D01*
X30624Y2170D01*
X30613Y2173D01*
X30603Y2175D01*
X30598Y2176D01*
X30595D01*
X30592Y2176D01*
X30588D01*
X30575Y2176D01*
X30563Y2173D01*
X30552Y2170D01*
X30543Y2167D01*
X30535Y2164D01*
X30529Y2162D01*
X30526Y2161D01*
X30525Y2159D01*
X30524Y2159D01*
X30523D01*
X30513Y2151D01*
X30504Y2143D01*
X30497Y2134D01*
X30491Y2125D01*
X30486Y2117D01*
X30483Y2110D01*
X30482Y2108D01*
X30481Y2106D01*
X30480Y2105D01*
Y2105D01*
X30476Y2091D01*
X30472Y2076D01*
X30470Y2062D01*
X30468Y2049D01*
X30468Y2043D01*
X30467Y2038D01*
Y2033D01*
X30466Y2029D01*
Y2025D01*
Y2023D01*
Y2021D01*
Y2021D01*
X30467Y2007D01*
X30468Y1994D01*
X30470Y1981D01*
X30472Y1970D01*
X30475Y1961D01*
X30475Y1957D01*
X30476Y1954D01*
X30477Y1951D01*
X30477Y1950D01*
X30478Y1949D01*
Y1948D01*
X30483Y1935D01*
X30489Y1924D01*
X30496Y1915D01*
X30503Y1907D01*
X30509Y1900D01*
X30514Y1896D01*
X30518Y1893D01*
X30518Y1892D01*
X30519D01*
X30530Y1885D01*
X30542Y1879D01*
X30555Y1875D01*
X30566Y1873D01*
X30576Y1871D01*
X30580Y1871D01*
X30585D01*
X30587Y1870D01*
X30591D01*
X30605Y1871D01*
X30617Y1873D01*
X30628Y1876D01*
X30637Y1879D01*
X30644Y1884D01*
X30650Y1886D01*
X30653Y1889D01*
X30654Y1889D01*
X30663Y1897D01*
X30671Y1907D01*
X30678Y1917D01*
X30683Y1927D01*
X30687Y1935D01*
X30689Y1939D01*
X30691Y1943D01*
X30692Y1946D01*
X30692Y1948D01*
X30693Y1949D01*
Y1950D01*
X30742Y1938D01*
X30735Y1920D01*
X30731Y1911D01*
X30727Y1904D01*
X30723Y1896D01*
X30718Y1889D01*
X30714Y1884D01*
X30710Y1878D01*
X30705Y1873D01*
X30701Y1869D01*
X30697Y1865D01*
X30695Y1862D01*
X30692Y1860D01*
X30690Y1858D01*
X30689Y1858D01*
X30688Y1857D01*
X30681Y1852D01*
X30673Y1847D01*
X30665Y1843D01*
X30657Y1840D01*
X30641Y1835D01*
X30626Y1831D01*
X30619Y1830D01*
X30613Y1829D01*
X30607Y1829D01*
X30602Y1828D01*
X30598Y1828D01*
X30593D01*
X30574Y1829D01*
X30557Y1831D01*
X30541Y1835D01*
X30534Y1837D01*
X30528Y1839D01*
X30522Y1841D01*
X30517Y1843D01*
X30512Y1845D01*
X30508Y1847D01*
X30505Y1848D01*
X30503Y1850D01*
X30502Y1851D01*
X30501D01*
X30487Y1860D01*
X30473Y1871D01*
X30462Y1882D01*
X30454Y1893D01*
X30446Y1903D01*
X30443Y1907D01*
X30441Y1910D01*
X30439Y1913D01*
X30438Y1916D01*
X30437Y1917D01*
Y1918D01*
X30430Y1934D01*
X30424Y1952D01*
X30420Y1969D01*
X30417Y1985D01*
X30416Y1993D01*
X30416Y1999D01*
X30415Y2006D01*
Y2011D01*
X30415Y2015D01*
Y2018D01*
Y2020D01*
Y2021D01*
X30415Y2041D01*
X30417Y2059D01*
X30421Y2076D01*
X30423Y2085D01*
X30424Y2091D01*
X30426Y2098D01*
X30428Y2104D01*
X30430Y2109D01*
X30431Y2114D01*
X30432Y2117D01*
X30434Y2120D01*
X30434Y2121D01*
Y2122D01*
X30442Y2139D01*
X30452Y2153D01*
X30461Y2166D01*
X30471Y2176D01*
X30479Y2184D01*
X30486Y2189D01*
X30489Y2191D01*
X30491Y2193D01*
X30492Y2193D01*
X30492Y2194D01*
X30500Y2199D01*
X30508Y2202D01*
X30524Y2208D01*
X30541Y2212D01*
X30557Y2216D01*
X30564Y2216D01*
X30571Y2218D01*
X30576Y2218D01*
X30582D01*
X30586Y2219D01*
X30592D01*
X30603Y2218D01*
D02*
G37*
G36*
X30987Y2122D02*
X31038D01*
Y2079D01*
X30987D01*
Y1835D01*
X30949D01*
X30776Y2079D01*
Y2122D01*
X30940D01*
Y2212D01*
X30987D01*
Y2122D01*
D02*
G37*
G36*
X29840Y23966D02*
X29858Y23963D01*
X29873Y23959D01*
X29880Y23958D01*
X29887Y23955D01*
X29892Y23953D01*
X29898Y23951D01*
X29903Y23949D01*
X29906Y23947D01*
X29910Y23946D01*
X29912Y23945D01*
X29913Y23944D01*
X29914D01*
X29928Y23935D01*
X29941Y23924D01*
X29952Y23913D01*
X29961Y23902D01*
X29968Y23892D01*
X29971Y23888D01*
X29973Y23884D01*
X29975Y23881D01*
X29976Y23879D01*
X29978Y23878D01*
Y23877D01*
X29985Y23860D01*
X29991Y23842D01*
X29994Y23825D01*
X29997Y23809D01*
X29998Y23802D01*
X29999Y23795D01*
X29999Y23789D01*
Y23784D01*
X30000Y23780D01*
Y23777D01*
Y23774D01*
Y23774D01*
X29999Y23754D01*
X29997Y23735D01*
X29994Y23718D01*
X29992Y23710D01*
X29990Y23703D01*
X29988Y23696D01*
X29987Y23690D01*
X29985Y23685D01*
X29983Y23681D01*
X29982Y23677D01*
X29981Y23675D01*
X29980Y23673D01*
Y23672D01*
X29972Y23656D01*
X29963Y23641D01*
X29953Y23629D01*
X29944Y23619D01*
X29935Y23611D01*
X29929Y23605D01*
X29926Y23603D01*
X29924Y23602D01*
X29923Y23601D01*
X29922Y23600D01*
X29915Y23596D01*
X29907Y23592D01*
X29891Y23586D01*
X29874Y23582D01*
X29858Y23579D01*
X29851Y23578D01*
X29844Y23577D01*
X29838Y23576D01*
X29833D01*
X29828Y23576D01*
X29823D01*
X29812Y23576D01*
X29801Y23577D01*
X29782Y23581D01*
X29774Y23583D01*
X29765Y23586D01*
X29757Y23589D01*
X29751Y23592D01*
X29744Y23595D01*
X29739Y23598D01*
X29734Y23600D01*
X29730Y23603D01*
X29727Y23605D01*
X29725Y23607D01*
X29724Y23607D01*
X29723Y23608D01*
X29715Y23614D01*
X29709Y23621D01*
X29697Y23636D01*
X29687Y23652D01*
X29679Y23667D01*
X29676Y23674D01*
X29673Y23681D01*
X29671Y23687D01*
X29669Y23691D01*
X29668Y23696D01*
X29667Y23699D01*
X29666Y23701D01*
Y23702D01*
X29716Y23715D01*
X29721Y23698D01*
X29726Y23683D01*
X29733Y23671D01*
X29740Y23660D01*
X29746Y23653D01*
X29751Y23647D01*
X29755Y23644D01*
X29755Y23643D01*
X29756Y23643D01*
X29767Y23634D01*
X29779Y23629D01*
X29791Y23624D01*
X29802Y23621D01*
X29812Y23619D01*
X29816Y23619D01*
X29820D01*
X29823Y23618D01*
X29827D01*
X29839Y23619D01*
X29851Y23621D01*
X29862Y23624D01*
X29872Y23627D01*
X29880Y23630D01*
X29886Y23633D01*
X29888Y23634D01*
X29890Y23635D01*
X29891Y23636D01*
X29891D01*
X29901Y23643D01*
X29910Y23652D01*
X29918Y23660D01*
X29924Y23670D01*
X29929Y23677D01*
X29931Y23684D01*
X29933Y23686D01*
X29934Y23688D01*
X29934Y23689D01*
Y23690D01*
X29939Y23704D01*
X29942Y23718D01*
X29945Y23732D01*
X29946Y23746D01*
X29947Y23751D01*
X29948Y23757D01*
Y23762D01*
X29948Y23766D01*
Y23769D01*
Y23772D01*
Y23773D01*
Y23774D01*
X29948Y23788D01*
X29946Y23801D01*
X29945Y23813D01*
X29942Y23824D01*
X29940Y23833D01*
X29940Y23837D01*
X29938Y23840D01*
X29938Y23843D01*
X29937Y23845D01*
X29937Y23846D01*
Y23846D01*
X29931Y23859D01*
X29925Y23871D01*
X29918Y23880D01*
X29912Y23888D01*
X29906Y23894D01*
X29900Y23899D01*
X29897Y23902D01*
X29896Y23903D01*
X29896D01*
X29884Y23910D01*
X29872Y23915D01*
X29860Y23919D01*
X29849Y23921D01*
X29838Y23923D01*
X29834Y23924D01*
X29830D01*
X29827Y23924D01*
X29823D01*
X29809Y23924D01*
X29797Y23921D01*
X29786Y23918D01*
X29778Y23915D01*
X29770Y23911D01*
X29765Y23908D01*
X29762Y23906D01*
X29760Y23905D01*
X29751Y23897D01*
X29744Y23888D01*
X29737Y23878D01*
X29732Y23868D01*
X29728Y23859D01*
X29726Y23855D01*
X29724Y23852D01*
X29723Y23849D01*
X29722Y23846D01*
X29722Y23845D01*
Y23845D01*
X29672Y23856D01*
X29679Y23875D01*
X29683Y23883D01*
X29687Y23891D01*
X29692Y23898D01*
X29696Y23905D01*
X29700Y23911D01*
X29705Y23917D01*
X29709Y23921D01*
X29713Y23925D01*
X29717Y23929D01*
X29720Y23932D01*
X29723Y23935D01*
X29725Y23936D01*
X29726Y23937D01*
X29726Y23937D01*
X29734Y23943D01*
X29741Y23947D01*
X29749Y23951D01*
X29757Y23955D01*
X29774Y23960D01*
X29789Y23963D01*
X29796Y23965D01*
X29802Y23965D01*
X29808Y23966D01*
X29812Y23966D01*
X29816Y23967D01*
X29822D01*
X29840Y23966D01*
D02*
G37*
G36*
X29620Y23912D02*
X29435D01*
X29448Y23895D01*
X29460Y23879D01*
X29472Y23862D01*
X29482Y23846D01*
X29486Y23839D01*
X29490Y23833D01*
X29494Y23827D01*
X29497Y23822D01*
X29499Y23818D01*
X29501Y23815D01*
X29502Y23812D01*
X29502Y23812D01*
X29513Y23790D01*
X29523Y23768D01*
X29531Y23747D01*
X29535Y23738D01*
X29538Y23729D01*
X29541Y23720D01*
X29543Y23713D01*
X29546Y23706D01*
X29547Y23701D01*
X29548Y23696D01*
X29550Y23693D01*
X29550Y23690D01*
Y23690D01*
X29556Y23667D01*
X29558Y23656D01*
X29560Y23646D01*
X29562Y23637D01*
X29563Y23628D01*
X29564Y23619D01*
X29565Y23612D01*
X29566Y23606D01*
X29566Y23599D01*
X29567Y23594D01*
Y23590D01*
X29567Y23587D01*
Y23584D01*
Y23583D01*
Y23582D01*
X29520D01*
X29518Y23603D01*
X29516Y23622D01*
X29513Y23640D01*
X29511Y23648D01*
X29510Y23655D01*
X29508Y23662D01*
X29507Y23668D01*
X29506Y23673D01*
X29505Y23678D01*
X29503Y23681D01*
X29503Y23683D01*
X29502Y23685D01*
Y23686D01*
X29494Y23711D01*
X29486Y23735D01*
X29481Y23746D01*
X29476Y23757D01*
X29472Y23768D01*
X29468Y23777D01*
X29464Y23785D01*
X29460Y23793D01*
X29456Y23800D01*
X29453Y23806D01*
X29451Y23811D01*
X29449Y23814D01*
X29448Y23816D01*
X29448Y23817D01*
X29441Y23829D01*
X29434Y23840D01*
X29427Y23850D01*
X29421Y23860D01*
X29415Y23869D01*
X29409Y23878D01*
X29403Y23886D01*
X29398Y23893D01*
X29393Y23898D01*
X29389Y23904D01*
X29385Y23909D01*
X29382Y23913D01*
X29379Y23916D01*
X29377Y23918D01*
X29376Y23919D01*
X29376Y23920D01*
Y23956D01*
X29620D01*
Y23912D01*
D02*
G37*
G36*
X3111Y23962D02*
X3121Y23960D01*
X3131Y23958D01*
X3140Y23955D01*
X3149Y23952D01*
X3156Y23948D01*
X3164Y23944D01*
X3170Y23940D01*
X3176Y23936D01*
X3181Y23932D01*
X3185Y23929D01*
X3189Y23925D01*
X3192Y23922D01*
X3194Y23920D01*
X3195Y23919D01*
X3195Y23918D01*
X3202Y23909D01*
X3209Y23897D01*
X3214Y23886D01*
X3218Y23872D01*
X3222Y23860D01*
X3226Y23846D01*
X3229Y23833D01*
X3230Y23820D01*
X3232Y23808D01*
X3233Y23796D01*
X3234Y23786D01*
X3235Y23777D01*
X3236Y23769D01*
Y23763D01*
Y23762D01*
Y23760D01*
Y23759D01*
Y23759D01*
X3235Y23741D01*
X3234Y23725D01*
X3232Y23709D01*
X3230Y23696D01*
X3227Y23683D01*
X3224Y23671D01*
X3221Y23661D01*
X3217Y23652D01*
X3214Y23644D01*
X3211Y23637D01*
X3208Y23631D01*
X3205Y23626D01*
X3203Y23623D01*
X3201Y23621D01*
X3200Y23619D01*
X3199Y23618D01*
X3192Y23611D01*
X3185Y23605D01*
X3177Y23599D01*
X3169Y23594D01*
X3161Y23590D01*
X3153Y23586D01*
X3145Y23583D01*
X3138Y23581D01*
X3131Y23579D01*
X3124Y23578D01*
X3119Y23577D01*
X3114Y23576D01*
X3110D01*
X3107Y23576D01*
X3104D01*
X3092Y23576D01*
X3081Y23578D01*
X3070Y23581D01*
X3061Y23584D01*
X3054Y23587D01*
X3048Y23590D01*
X3045Y23591D01*
X3044Y23592D01*
X3034Y23599D01*
X3026Y23606D01*
X3018Y23614D01*
X3012Y23621D01*
X3007Y23628D01*
X3004Y23633D01*
X3003Y23636D01*
X3002Y23637D01*
X3001Y23638D01*
Y23638D01*
X2996Y23650D01*
X2992Y23662D01*
X2990Y23673D01*
X2987Y23683D01*
X2986Y23692D01*
Y23696D01*
X2986Y23699D01*
Y23701D01*
Y23703D01*
Y23704D01*
Y23705D01*
X2986Y23715D01*
X2987Y23724D01*
X2988Y23733D01*
X2991Y23742D01*
X2993Y23749D01*
X2996Y23757D01*
X2999Y23763D01*
X3002Y23769D01*
X3005Y23774D01*
X3008Y23779D01*
X3011Y23783D01*
X3013Y23787D01*
X3016Y23789D01*
X3017Y23791D01*
X3018Y23792D01*
X3018Y23793D01*
X3025Y23799D01*
X3031Y23804D01*
X3038Y23809D01*
X3045Y23813D01*
X3051Y23816D01*
X3058Y23819D01*
X3070Y23823D01*
X3081Y23826D01*
X3086Y23826D01*
X3090Y23827D01*
X3093Y23827D01*
X3098D01*
X3108Y23827D01*
X3117Y23826D01*
X3126Y23823D01*
X3133Y23821D01*
X3139Y23819D01*
X3145Y23816D01*
X3147Y23815D01*
X3149Y23815D01*
X3157Y23810D01*
X3165Y23804D01*
X3172Y23797D01*
X3178Y23791D01*
X3183Y23785D01*
X3187Y23781D01*
X3189Y23778D01*
X3190Y23777D01*
Y23787D01*
X3189Y23797D01*
X3188Y23806D01*
X3188Y23815D01*
X3187Y23822D01*
X3185Y23830D01*
X3184Y23836D01*
X3183Y23842D01*
X3182Y23847D01*
X3181Y23852D01*
X3180Y23856D01*
X3179Y23859D01*
X3178Y23861D01*
X3177Y23863D01*
X3177Y23864D01*
Y23864D01*
X3172Y23875D01*
X3166Y23885D01*
X3160Y23893D01*
X3154Y23899D01*
X3150Y23905D01*
X3146Y23909D01*
X3143Y23911D01*
X3142Y23912D01*
X3135Y23916D01*
X3129Y23919D01*
X3122Y23921D01*
X3116Y23922D01*
X3111Y23924D01*
X3107Y23924D01*
X3103D01*
X3093Y23924D01*
X3084Y23921D01*
X3075Y23918D01*
X3069Y23914D01*
X3063Y23910D01*
X3059Y23907D01*
X3056Y23905D01*
X3056Y23904D01*
X3052Y23899D01*
X3048Y23893D01*
X3043Y23880D01*
X3041Y23874D01*
X3039Y23869D01*
X3038Y23866D01*
Y23865D01*
Y23865D01*
X2992Y23868D01*
X2995Y23884D01*
X3000Y23898D01*
X3005Y23909D01*
X3012Y23919D01*
X3017Y23926D01*
X3022Y23932D01*
X3025Y23936D01*
X3026Y23937D01*
X3027D01*
X3032Y23941D01*
X3038Y23946D01*
X3050Y23951D01*
X3062Y23956D01*
X3074Y23959D01*
X3084Y23961D01*
X3089Y23962D01*
X3092D01*
X3096Y23962D01*
X3100D01*
X3111Y23962D01*
D02*
G37*
G36*
X3450Y23966D02*
X3468Y23963D01*
X3483Y23959D01*
X3490Y23958D01*
X3497Y23955D01*
X3502Y23953D01*
X3508Y23951D01*
X3513Y23949D01*
X3516Y23947D01*
X3520Y23946D01*
X3522Y23945D01*
X3523Y23944D01*
X3524D01*
X3538Y23935D01*
X3551Y23924D01*
X3562Y23913D01*
X3571Y23902D01*
X3578Y23892D01*
X3581Y23888D01*
X3584Y23884D01*
X3585Y23881D01*
X3586Y23879D01*
X3588Y23878D01*
Y23877D01*
X3595Y23860D01*
X3601Y23842D01*
X3604Y23825D01*
X3607Y23809D01*
X3608Y23802D01*
X3609Y23795D01*
X3609Y23789D01*
Y23784D01*
X3610Y23780D01*
Y23777D01*
Y23774D01*
Y23774D01*
X3609Y23754D01*
X3607Y23735D01*
X3604Y23718D01*
X3602Y23710D01*
X3600Y23703D01*
X3598Y23696D01*
X3597Y23690D01*
X3595Y23685D01*
X3593Y23681D01*
X3592Y23677D01*
X3591Y23675D01*
X3590Y23673D01*
Y23672D01*
X3582Y23656D01*
X3573Y23641D01*
X3563Y23629D01*
X3554Y23619D01*
X3545Y23611D01*
X3539Y23605D01*
X3536Y23603D01*
X3534Y23602D01*
X3533Y23601D01*
X3532Y23600D01*
X3525Y23596D01*
X3517Y23592D01*
X3501Y23586D01*
X3484Y23582D01*
X3468Y23579D01*
X3461Y23578D01*
X3454Y23577D01*
X3448Y23576D01*
X3443D01*
X3438Y23576D01*
X3433D01*
X3422Y23576D01*
X3411Y23577D01*
X3392Y23581D01*
X3384Y23583D01*
X3375Y23586D01*
X3368Y23589D01*
X3361Y23592D01*
X3354Y23595D01*
X3349Y23598D01*
X3344Y23600D01*
X3340Y23603D01*
X3337Y23605D01*
X3335Y23607D01*
X3334Y23607D01*
X3333Y23608D01*
X3325Y23614D01*
X3319Y23621D01*
X3307Y23636D01*
X3297Y23652D01*
X3289Y23667D01*
X3286Y23674D01*
X3283Y23681D01*
X3281Y23687D01*
X3279Y23691D01*
X3278Y23696D01*
X3277Y23699D01*
X3276Y23701D01*
Y23702D01*
X3326Y23715D01*
X3331Y23698D01*
X3336Y23683D01*
X3343Y23671D01*
X3350Y23660D01*
X3356Y23653D01*
X3361Y23647D01*
X3365Y23644D01*
X3365Y23643D01*
X3366Y23643D01*
X3377Y23634D01*
X3389Y23629D01*
X3401Y23624D01*
X3412Y23621D01*
X3422Y23619D01*
X3426Y23619D01*
X3430D01*
X3433Y23618D01*
X3437D01*
X3449Y23619D01*
X3461Y23621D01*
X3472Y23624D01*
X3482Y23627D01*
X3490Y23630D01*
X3496Y23633D01*
X3498Y23634D01*
X3500Y23635D01*
X3501Y23636D01*
X3501D01*
X3512Y23643D01*
X3520Y23652D01*
X3528Y23660D01*
X3534Y23670D01*
X3539Y23677D01*
X3541Y23684D01*
X3543Y23686D01*
X3544Y23688D01*
X3544Y23689D01*
Y23690D01*
X3549Y23704D01*
X3552Y23718D01*
X3555Y23732D01*
X3556Y23746D01*
X3557Y23751D01*
X3558Y23757D01*
Y23762D01*
X3558Y23766D01*
Y23769D01*
Y23772D01*
Y23773D01*
Y23774D01*
X3558Y23788D01*
X3556Y23801D01*
X3555Y23813D01*
X3552Y23824D01*
X3550Y23833D01*
X3550Y23837D01*
X3548Y23840D01*
X3548Y23843D01*
X3547Y23845D01*
X3547Y23846D01*
Y23846D01*
X3541Y23859D01*
X3535Y23871D01*
X3528Y23880D01*
X3522Y23888D01*
X3516Y23894D01*
X3510Y23899D01*
X3507Y23902D01*
X3506Y23903D01*
X3506D01*
X3494Y23910D01*
X3482Y23915D01*
X3470Y23919D01*
X3459Y23921D01*
X3448Y23923D01*
X3444Y23924D01*
X3440D01*
X3437Y23924D01*
X3433D01*
X3419Y23924D01*
X3407Y23921D01*
X3396Y23918D01*
X3388Y23915D01*
X3380Y23911D01*
X3375Y23908D01*
X3372Y23906D01*
X3370Y23905D01*
X3361Y23897D01*
X3354Y23888D01*
X3347Y23878D01*
X3342Y23868D01*
X3338Y23859D01*
X3336Y23855D01*
X3334Y23852D01*
X3333Y23849D01*
X3332Y23846D01*
X3332Y23845D01*
Y23845D01*
X3282Y23856D01*
X3289Y23875D01*
X3293Y23883D01*
X3297Y23891D01*
X3302Y23898D01*
X3306Y23905D01*
X3310Y23911D01*
X3315Y23917D01*
X3319Y23921D01*
X3323Y23925D01*
X3327Y23929D01*
X3330Y23932D01*
X3333Y23935D01*
X3335Y23936D01*
X3336Y23937D01*
X3336Y23937D01*
X3344Y23943D01*
X3351Y23947D01*
X3359Y23951D01*
X3368Y23955D01*
X3384Y23960D01*
X3399Y23963D01*
X3406Y23965D01*
X3412Y23965D01*
X3418Y23966D01*
X3422Y23966D01*
X3426Y23967D01*
X3432D01*
X3450Y23966D01*
D02*
G37*
G36*
X4325Y5451D02*
X4281Y5444D01*
X4277Y5450D01*
X4273Y5455D01*
X4268Y5460D01*
X4264Y5464D01*
X4260Y5467D01*
X4257Y5469D01*
X4254Y5470D01*
X4254Y5471D01*
X4247Y5474D01*
X4240Y5477D01*
X4233Y5479D01*
X4227Y5481D01*
X4221Y5481D01*
X4217Y5482D01*
X4213D01*
X4200Y5481D01*
X4189Y5478D01*
X4178Y5474D01*
X4170Y5470D01*
X4163Y5466D01*
X4159Y5462D01*
X4156Y5460D01*
X4155Y5459D01*
X4147Y5449D01*
X4141Y5439D01*
X4137Y5429D01*
X4135Y5419D01*
X4133Y5410D01*
X4133Y5406D01*
Y5402D01*
X4132Y5400D01*
Y5398D01*
Y5396D01*
Y5396D01*
X4133Y5381D01*
X4136Y5368D01*
X4140Y5356D01*
X4144Y5346D01*
X4148Y5339D01*
X4152Y5333D01*
X4154Y5330D01*
X4155Y5329D01*
Y5329D01*
X4160Y5324D01*
X4165Y5320D01*
X4174Y5314D01*
X4184Y5310D01*
X4192Y5307D01*
X4200Y5305D01*
X4207Y5304D01*
X4209Y5304D01*
X4212D01*
X4222Y5304D01*
X4231Y5307D01*
X4239Y5309D01*
X4246Y5312D01*
X4252Y5316D01*
X4256Y5318D01*
X4258Y5320D01*
X4260Y5321D01*
X4266Y5329D01*
X4272Y5337D01*
X4276Y5346D01*
X4279Y5354D01*
X4281Y5362D01*
X4283Y5369D01*
X4284Y5371D01*
X4284Y5373D01*
Y5374D01*
Y5375D01*
X4333Y5371D01*
X4332Y5362D01*
X4330Y5354D01*
X4326Y5339D01*
X4319Y5326D01*
X4313Y5315D01*
X4310Y5310D01*
X4307Y5306D01*
X4304Y5303D01*
X4302Y5300D01*
X4299Y5297D01*
X4298Y5296D01*
X4297Y5295D01*
X4296Y5295D01*
X4290Y5289D01*
X4283Y5285D01*
X4276Y5281D01*
X4269Y5278D01*
X4256Y5273D01*
X4242Y5269D01*
X4236Y5268D01*
X4230Y5267D01*
X4225Y5267D01*
X4221Y5266D01*
X4218Y5266D01*
X4212D01*
X4201Y5266D01*
X4190Y5267D01*
X4180Y5270D01*
X4170Y5273D01*
X4162Y5276D01*
X4153Y5280D01*
X4146Y5284D01*
X4139Y5289D01*
X4133Y5293D01*
X4128Y5297D01*
X4123Y5301D01*
X4120Y5304D01*
X4117Y5307D01*
X4114Y5309D01*
X4113Y5311D01*
X4113Y5311D01*
X4108Y5318D01*
X4103Y5326D01*
X4099Y5333D01*
X4095Y5341D01*
X4090Y5356D01*
X4086Y5369D01*
X4085Y5376D01*
X4084Y5381D01*
X4084Y5387D01*
X4083Y5391D01*
X4083Y5395D01*
Y5398D01*
Y5399D01*
Y5400D01*
X4083Y5410D01*
X4084Y5419D01*
X4086Y5428D01*
X4088Y5437D01*
X4091Y5444D01*
X4094Y5452D01*
X4097Y5458D01*
X4100Y5464D01*
X4103Y5470D01*
X4106Y5474D01*
X4109Y5478D01*
X4112Y5482D01*
X4114Y5485D01*
X4116Y5486D01*
X4117Y5487D01*
X4117Y5488D01*
X4124Y5494D01*
X4131Y5500D01*
X4137Y5504D01*
X4145Y5508D01*
X4152Y5512D01*
X4159Y5514D01*
X4172Y5519D01*
X4178Y5520D01*
X4184Y5521D01*
X4188Y5521D01*
X4193Y5522D01*
X4196Y5523D01*
X4201D01*
X4215Y5521D01*
X4228Y5519D01*
X4240Y5515D01*
X4250Y5511D01*
X4260Y5506D01*
X4263Y5504D01*
X4266Y5502D01*
X4269Y5501D01*
X4271Y5500D01*
X4272Y5499D01*
X4272Y5498D01*
X4252Y5600D01*
X4101D01*
Y5645D01*
X4288D01*
X4325Y5451D01*
D02*
G37*
G36*
X4550Y5656D02*
X4568Y5653D01*
X4583Y5649D01*
X4590Y5648D01*
X4597Y5645D01*
X4602Y5643D01*
X4608Y5641D01*
X4613Y5639D01*
X4616Y5637D01*
X4620Y5636D01*
X4622Y5635D01*
X4623Y5634D01*
X4624D01*
X4638Y5625D01*
X4651Y5614D01*
X4662Y5603D01*
X4671Y5592D01*
X4678Y5582D01*
X4681Y5578D01*
X4683Y5574D01*
X4685Y5571D01*
X4686Y5569D01*
X4688Y5568D01*
Y5567D01*
X4695Y5550D01*
X4701Y5532D01*
X4704Y5515D01*
X4707Y5499D01*
X4708Y5491D01*
X4709Y5485D01*
X4709Y5479D01*
Y5474D01*
X4710Y5470D01*
Y5467D01*
Y5464D01*
Y5464D01*
X4709Y5444D01*
X4707Y5425D01*
X4704Y5408D01*
X4702Y5400D01*
X4700Y5393D01*
X4698Y5386D01*
X4697Y5380D01*
X4695Y5375D01*
X4693Y5371D01*
X4692Y5367D01*
X4691Y5365D01*
X4690Y5363D01*
Y5362D01*
X4682Y5346D01*
X4673Y5331D01*
X4663Y5319D01*
X4654Y5309D01*
X4645Y5301D01*
X4639Y5295D01*
X4636Y5293D01*
X4634Y5292D01*
X4633Y5291D01*
X4632Y5290D01*
X4625Y5286D01*
X4617Y5282D01*
X4601Y5276D01*
X4584Y5272D01*
X4568Y5269D01*
X4561Y5268D01*
X4554Y5267D01*
X4548Y5266D01*
X4543D01*
X4538Y5266D01*
X4533D01*
X4522Y5266D01*
X4511Y5267D01*
X4492Y5271D01*
X4484Y5273D01*
X4475Y5276D01*
X4467Y5279D01*
X4461Y5282D01*
X4454Y5285D01*
X4449Y5288D01*
X4444Y5290D01*
X4440Y5293D01*
X4437Y5295D01*
X4435Y5297D01*
X4434Y5297D01*
X4433Y5298D01*
X4425Y5304D01*
X4419Y5311D01*
X4407Y5326D01*
X4397Y5342D01*
X4389Y5357D01*
X4386Y5364D01*
X4383Y5371D01*
X4381Y5377D01*
X4379Y5381D01*
X4378Y5386D01*
X4376Y5389D01*
X4376Y5391D01*
Y5392D01*
X4426Y5405D01*
X4431Y5388D01*
X4436Y5373D01*
X4443Y5361D01*
X4450Y5350D01*
X4456Y5343D01*
X4461Y5337D01*
X4465Y5334D01*
X4465Y5333D01*
X4466Y5333D01*
X4477Y5324D01*
X4489Y5319D01*
X4501Y5314D01*
X4512Y5311D01*
X4522Y5309D01*
X4526Y5309D01*
X4530D01*
X4533Y5308D01*
X4537D01*
X4549Y5309D01*
X4561Y5311D01*
X4572Y5314D01*
X4582Y5317D01*
X4590Y5320D01*
X4596Y5323D01*
X4598Y5324D01*
X4600Y5325D01*
X4601Y5326D01*
X4601D01*
X4611Y5333D01*
X4620Y5342D01*
X4628Y5350D01*
X4634Y5360D01*
X4639Y5367D01*
X4641Y5374D01*
X4643Y5376D01*
X4644Y5378D01*
X4644Y5379D01*
Y5380D01*
X4649Y5394D01*
X4652Y5408D01*
X4655Y5422D01*
X4656Y5436D01*
X4657Y5441D01*
X4658Y5447D01*
Y5452D01*
X4658Y5456D01*
Y5459D01*
Y5462D01*
Y5463D01*
Y5464D01*
X4658Y5478D01*
X4656Y5491D01*
X4655Y5503D01*
X4652Y5514D01*
X4650Y5523D01*
X4650Y5527D01*
X4648Y5530D01*
X4648Y5533D01*
X4647Y5535D01*
X4647Y5536D01*
Y5536D01*
X4641Y5549D01*
X4635Y5561D01*
X4628Y5570D01*
X4622Y5578D01*
X4616Y5584D01*
X4610Y5589D01*
X4607Y5592D01*
X4606Y5593D01*
X4606D01*
X4594Y5600D01*
X4582Y5605D01*
X4570Y5609D01*
X4559Y5611D01*
X4548Y5613D01*
X4544Y5614D01*
X4540D01*
X4537Y5614D01*
X4533D01*
X4519Y5614D01*
X4507Y5611D01*
X4496Y5608D01*
X4488Y5605D01*
X4480Y5601D01*
X4475Y5598D01*
X4472Y5596D01*
X4470Y5595D01*
X4461Y5587D01*
X4454Y5578D01*
X4447Y5568D01*
X4442Y5558D01*
X4438Y5549D01*
X4436Y5545D01*
X4434Y5542D01*
X4433Y5539D01*
X4432Y5536D01*
X4432Y5535D01*
Y5535D01*
X4382Y5546D01*
X4389Y5565D01*
X4393Y5573D01*
X4397Y5581D01*
X4402Y5588D01*
X4406Y5595D01*
X4410Y5601D01*
X4415Y5607D01*
X4419Y5611D01*
X4423Y5615D01*
X4427Y5619D01*
X4430Y5622D01*
X4433Y5625D01*
X4435Y5626D01*
X4436Y5627D01*
X4436Y5627D01*
X4444Y5633D01*
X4451Y5637D01*
X4459Y5641D01*
X4467Y5645D01*
X4484Y5650D01*
X4499Y5653D01*
X4506Y5655D01*
X4512Y5655D01*
X4518Y5656D01*
X4522Y5656D01*
X4526Y5657D01*
X4532D01*
X4550Y5656D01*
D02*
G37*
%LPC*%
G36*
X30940Y2079D02*
X30821D01*
X30940Y1910D01*
Y2079D01*
D02*
G37*
G36*
X3110Y23787D02*
X3107D01*
X3096Y23785D01*
X3085Y23783D01*
X3076Y23779D01*
X3069Y23775D01*
X3062Y23771D01*
X3058Y23767D01*
X3055Y23765D01*
X3054Y23763D01*
X3047Y23754D01*
X3042Y23744D01*
X3039Y23734D01*
X3036Y23724D01*
X3035Y23716D01*
X3034Y23712D01*
Y23708D01*
X3033Y23706D01*
Y23704D01*
Y23702D01*
Y23702D01*
X3035Y23687D01*
X3037Y23675D01*
X3040Y23663D01*
X3044Y23654D01*
X3048Y23647D01*
X3051Y23642D01*
X3054Y23638D01*
X3055Y23637D01*
X3063Y23629D01*
X3071Y23624D01*
X3080Y23619D01*
X3088Y23617D01*
X3095Y23615D01*
X3100Y23614D01*
X3103Y23614D01*
X3105D01*
X3113Y23614D01*
X3120Y23615D01*
X3127Y23617D01*
X3133Y23619D01*
X3137Y23621D01*
X3141Y23623D01*
X3143Y23624D01*
X3144Y23625D01*
X3150Y23629D01*
X3156Y23635D01*
X3161Y23640D01*
X3165Y23646D01*
X3168Y23651D01*
X3171Y23655D01*
X3172Y23657D01*
X3172Y23658D01*
X3176Y23667D01*
X3178Y23675D01*
X3180Y23682D01*
X3181Y23690D01*
X3181Y23696D01*
X3182Y23700D01*
Y23703D01*
Y23704D01*
X3181Y23717D01*
X3179Y23729D01*
X3175Y23739D01*
X3171Y23748D01*
X3167Y23754D01*
X3164Y23759D01*
X3161Y23762D01*
X3160Y23763D01*
X3151Y23771D01*
X3143Y23777D01*
X3134Y23781D01*
X3126Y23784D01*
X3118Y23785D01*
X3112Y23786D01*
X3110Y23787D01*
D02*
G37*
%LPD*%
D13*
X27965Y22335D02*
X29965D01*
X27965D02*
Y23335D01*
X29965D01*
Y22335D02*
Y23335D01*
X1571D02*
X3571D01*
Y22335D02*
Y23335D01*
X1571Y22335D02*
X3571D01*
X1571D02*
Y23335D01*
X2673Y5028D02*
X4673D01*
Y4028D02*
Y5028D01*
X2673Y4028D02*
X4673D01*
X2673D02*
Y5028D01*
X30287Y6665D02*
X31287D01*
X30287Y2665D02*
X31287D01*
Y7665D01*
X30287Y2665D02*
Y7665D01*
X31287D01*
M02*
