G04*
G04 #@! TF.GenerationSoftware,Altium Limited,Altium Designer,20.2.6 (244)*
G04*
G04 Layer_Color=32768*
%FSLAX24Y24*%
%MOIN*%
G70*
G04*
G04 #@! TF.SameCoordinates,7583AB6C-3689-415F-B137-6D089145A127*
G04*
G04*
G04 #@! TF.FilePolarity,Positive*
G04*
G01*
G75*
%ADD13C,0.0079*%
%ADD19C,0.0050*%
%ADD21C,0.0039*%
%ADD99C,0.0020*%
G36*
X6800Y13671D02*
X4798D01*
Y14972D01*
X6800D01*
Y13671D01*
D02*
G37*
D13*
X29016Y16644D02*
X31417D01*
Y22018D01*
X29016D02*
X31417D01*
X29016Y16644D02*
Y22018D01*
Y11142D02*
X31417D01*
Y16516D01*
X29016D02*
X31417D01*
X29016Y11142D02*
Y16516D01*
X26417Y7835D02*
X29331D01*
X26417D02*
Y10039D01*
X29331D01*
Y7835D02*
Y10039D01*
D19*
X27461Y14843D02*
Y18386D01*
X23720D02*
X27461D01*
X23720Y14843D02*
Y18386D01*
Y14843D02*
X27461D01*
D21*
X25394Y21063D02*
Y21457D01*
X25197Y21260D02*
X25591D01*
X30315Y19331D02*
X30709D01*
X30512Y19134D02*
Y19528D01*
X30315Y13829D02*
X30709D01*
X30512Y13632D02*
Y14026D01*
X27677Y8937D02*
X28071D01*
X27874Y8740D02*
Y9134D01*
X5016Y17272D02*
X5410D01*
X5213Y17075D02*
Y17469D01*
D99*
X23061Y23386D02*
X27726D01*
X23061Y19134D02*
X27726D01*
X23061D02*
Y23386D01*
X27726Y19134D02*
Y23386D01*
X28041Y18307D02*
X28415D01*
X28228Y18120D02*
Y18494D01*
X27933Y17757D02*
Y18857D01*
X28524Y17757D02*
Y18857D01*
X27933Y17757D02*
X28524D01*
X27933Y18857D02*
X28524D01*
X28041Y12913D02*
X28415D01*
X28228Y12726D02*
Y13100D01*
X27933Y12363D02*
Y13463D01*
X28524Y12363D02*
Y13463D01*
X27933Y12363D02*
X28524D01*
X27933Y13463D02*
X28524D01*
X276Y20689D02*
Y21988D01*
X3031Y20689D02*
Y21988D01*
X276D02*
X3031D01*
X276Y20689D02*
X3031D01*
X1457Y21339D02*
X1850D01*
X1654Y21142D02*
Y21535D01*
X3147Y15814D02*
Y19830D01*
X-172Y15814D02*
X3147D01*
X-172D02*
Y19830D01*
X3147D01*
X6713Y15225D02*
Y19319D01*
X3713Y15225D02*
Y19319D01*
Y15225D02*
X6713D01*
X3713Y19319D02*
X6713D01*
X7697Y10077D02*
Y13152D01*
X10965Y10077D02*
Y13152D01*
X7697Y10077D02*
X10965D01*
X7697Y13152D02*
X10965D01*
X5913Y12907D02*
X6287D01*
X6100Y12720D02*
Y13094D01*
X5805Y12357D02*
Y13457D01*
X6395Y12357D02*
Y13457D01*
X5805Y12357D02*
X6395D01*
X5805Y13457D02*
X6395D01*
X5213Y12922D02*
X5587D01*
X5400Y12735D02*
Y13109D01*
X5105Y12372D02*
Y13472D01*
X5695Y12372D02*
Y13472D01*
X5105Y12372D02*
X5695D01*
X5105Y13472D02*
X5695D01*
X4369Y13425D02*
Y14819D01*
X3031D02*
X4369D01*
X3031Y13425D02*
Y14819D01*
Y13425D02*
X4369D01*
X2402Y12323D02*
Y13012D01*
X1713D02*
X2402D01*
X1713D02*
Y13366D01*
X689D02*
X1713D01*
X689Y13012D02*
Y13366D01*
X-20Y13012D02*
X689D01*
X-20Y9154D02*
Y13012D01*
Y9154D02*
X689D01*
Y8799D02*
Y9154D01*
Y8799D02*
X1713D01*
Y9154D01*
X2402D01*
Y9843D01*
X2835D01*
Y12323D01*
X2402D02*
X2835D01*
X2402Y7598D02*
Y8287D01*
X1713D02*
X2402D01*
X1713D02*
Y8642D01*
X689D02*
X1713D01*
X689Y8287D02*
Y8642D01*
X-20Y8287D02*
X689D01*
X-20Y4429D02*
Y8287D01*
Y4429D02*
X689D01*
Y4075D02*
Y4429D01*
Y4075D02*
X1713D01*
Y4429D01*
X2402D01*
Y5118D01*
X2835D01*
Y7598D01*
X2402D02*
X2835D01*
X18100Y39D02*
X22608D01*
X18100D02*
Y2283D01*
X22608D01*
Y39D02*
Y2283D01*
X13533Y39D02*
X18041D01*
X13533D02*
Y2283D01*
X18041D01*
Y39D02*
Y2283D01*
X8967Y39D02*
X13474D01*
X8967D02*
Y2283D01*
X13474D01*
Y39D02*
Y2283D01*
X4400Y39D02*
X8907D01*
X4400D02*
Y2283D01*
X8907D01*
Y39D02*
Y2283D01*
X18100Y23583D02*
X22608D01*
Y21339D02*
Y23583D01*
X18100Y21339D02*
X22608D01*
X18100D02*
Y23583D01*
X13533D02*
X18041D01*
Y21339D02*
Y23583D01*
X13533Y21339D02*
X18041D01*
X13533D02*
Y23583D01*
X8967D02*
X13474D01*
Y21339D02*
Y23583D01*
X8967Y21339D02*
X13474D01*
X8967D02*
Y23583D01*
X4400D02*
X8907D01*
Y21339D02*
Y23583D01*
X4400Y21339D02*
X8907D01*
X4400D02*
Y23583D01*
X20206Y15073D02*
X22962D01*
X20206D02*
Y15270D01*
X12529D02*
X20206D01*
X12529Y7593D02*
Y15270D01*
Y7593D02*
X20206D01*
Y7789D01*
X22962D01*
Y15073D01*
X231Y13475D02*
X1569D01*
X231D02*
Y14869D01*
X1569D01*
Y13475D02*
Y14869D01*
X23031Y6642D02*
X30020D01*
Y106D02*
Y6642D01*
X23031Y106D02*
Y6642D01*
Y106D02*
X28681D01*
Y8D02*
Y106D01*
Y8D02*
X29311D01*
Y106D01*
X30020D01*
M02*
