G04*
G04 #@! TF.GenerationSoftware,Altium Limited,Altium Designer,20.2.6 (244)*
G04*
G04 Layer_Color=16711935*
%FSLAX24Y24*%
%MOIN*%
G70*
G04*
G04 #@! TF.SameCoordinates,7583AB6C-3689-415F-B137-6D089145A127*
G04*
G04*
G04 #@! TF.FilePolarity,Positive*
G04*
G01*
G75*
%ADD13C,0.0079*%
%ADD15C,0.0118*%
%ADD16C,0.0094*%
%ADD18C,0.0080*%
%ADD19C,0.0050*%
%ADD21C,0.0039*%
%ADD98C,0.0060*%
G36*
X27090Y17963D02*
X26693D01*
Y18084D01*
X27090D01*
Y17963D01*
D02*
G37*
G36*
X24486D02*
X24094D01*
Y18083D01*
X24486D01*
Y17963D01*
D02*
G37*
G36*
X27090Y17707D02*
X26693D01*
Y17827D01*
X27090D01*
Y17707D01*
D02*
G37*
G36*
X24485D02*
X24094D01*
Y17828D01*
X24485D01*
Y17707D01*
D02*
G37*
G36*
X27091Y17451D02*
X26693D01*
Y17572D01*
X27091D01*
Y17451D01*
D02*
G37*
G36*
X24487D02*
X24094D01*
Y17570D01*
X24487D01*
Y17451D01*
D02*
G37*
G36*
X27091Y17195D02*
X26693D01*
Y17315D01*
X27091D01*
Y17195D01*
D02*
G37*
G36*
X24487D02*
X24094D01*
Y17314D01*
X24487D01*
Y17195D01*
D02*
G37*
G36*
X27090Y16939D02*
X26693D01*
Y17058D01*
X27090D01*
Y16939D01*
D02*
G37*
G36*
X24485D02*
X24094D01*
Y17058D01*
X24485D01*
Y16939D01*
D02*
G37*
G36*
X27091Y16683D02*
X26693D01*
Y16802D01*
X27091D01*
Y16683D01*
D02*
G37*
G36*
X24486D02*
X24094D01*
Y16802D01*
X24486D01*
Y16683D01*
D02*
G37*
G36*
X27089Y16427D02*
X26693D01*
Y16545D01*
X27089D01*
Y16427D01*
D02*
G37*
G36*
X24485D02*
X24094D01*
Y16545D01*
X24485D01*
Y16427D01*
D02*
G37*
G36*
X27090Y16171D02*
X26693D01*
Y16289D01*
X27090D01*
Y16171D01*
D02*
G37*
G36*
X24486D02*
X24094D01*
Y16289D01*
X24486D01*
Y16171D01*
D02*
G37*
G36*
X27089Y15915D02*
X26693D01*
Y16032D01*
X27089D01*
Y15915D01*
D02*
G37*
G36*
X24486D02*
X24094D01*
Y16032D01*
X24486D01*
Y15915D01*
D02*
G37*
G36*
X27091Y15659D02*
X26693D01*
Y15775D01*
X27091D01*
Y15659D01*
D02*
G37*
G36*
X24488D02*
X24094D01*
Y15777D01*
X24488D01*
Y15659D01*
D02*
G37*
G36*
X27089Y15404D02*
X26693D01*
Y15520D01*
X27089D01*
Y15404D01*
D02*
G37*
G36*
X24486D02*
X24094D01*
Y15519D01*
X24486D01*
Y15404D01*
D02*
G37*
G36*
X27091Y15148D02*
X26693D01*
Y15262D01*
X27091D01*
Y15148D01*
D02*
G37*
G36*
X24486D02*
X24094D01*
Y15263D01*
X24486D01*
Y15148D01*
D02*
G37*
G36*
X6800Y13922D02*
X6301D01*
Y14722D01*
X6800D01*
Y13922D01*
D02*
G37*
G36*
X5300Y13921D02*
X4798D01*
Y14722D01*
X5300D01*
Y13921D01*
D02*
G37*
G36*
X21800Y13646D02*
Y13566D01*
X21422Y13414D01*
Y13497D01*
X21508Y13529D01*
Y13682D01*
X21422Y13713D01*
Y13793D01*
X21800Y13646D01*
D02*
G37*
G36*
Y13300D02*
X21546Y13144D01*
X21800D01*
Y13073D01*
X21422D01*
Y13149D01*
X21670Y13303D01*
X21422D01*
Y13373D01*
X21800D01*
Y13300D01*
D02*
G37*
G36*
Y12720D02*
X21736D01*
Y12831D01*
X21422D01*
Y12907D01*
X21736D01*
Y13019D01*
X21800D01*
Y12720D01*
D02*
G37*
G36*
Y12390D02*
X21736D01*
Y12593D01*
X21652D01*
Y12404D01*
X21588D01*
Y12593D01*
X21486D01*
Y12382D01*
X21422D01*
Y12670D01*
X21800D01*
Y12390D01*
D02*
G37*
G36*
Y12243D02*
X21546Y12087D01*
X21800D01*
Y12016D01*
X21422D01*
Y12093D01*
X21670Y12246D01*
X21422D01*
Y12317D01*
X21800D01*
Y12243D01*
D02*
G37*
G36*
Y11862D02*
X21546Y11706D01*
X21800D01*
Y11635D01*
X21422D01*
Y11712D01*
X21670Y11865D01*
X21422D01*
Y11936D01*
X21800D01*
Y11862D01*
D02*
G37*
G36*
Y11446D02*
Y11365D01*
X21422Y11213D01*
Y11296D01*
X21508Y11329D01*
Y11481D01*
X21422Y11512D01*
Y11593D01*
X21800Y11446D01*
D02*
G37*
%LPC*%
G36*
X21572Y13658D02*
Y13554D01*
X21712Y13607D01*
X21572Y13658D01*
D02*
G37*
G36*
Y11458D02*
Y11353D01*
X21712Y11406D01*
X21572Y11458D01*
D02*
G37*
%LPD*%
D13*
X7801Y9866D02*
X7722D01*
X7801D01*
X4527Y13728D02*
X4448D01*
X4527D01*
X19950Y15368D02*
X19871D01*
X19950D01*
X1727Y13778D02*
X1648D01*
X1727D01*
D15*
X19638Y1711D02*
X19559D01*
X19638D01*
X15071D02*
X14993D01*
X15071D01*
X10504D02*
X10426D01*
X10504D01*
X5937D02*
X5859D01*
X5937D01*
X21149Y21911D02*
X21070D01*
X21149D01*
X16582D02*
X16504D01*
X16582D01*
X12015D02*
X11937D01*
X12015D01*
X7448D02*
X7370D01*
X7448D01*
D16*
X27646Y6693D02*
X27575Y6734D01*
Y6652D01*
X27646Y6693D01*
D18*
X24488Y14961D02*
Y18268D01*
X26693Y14961D02*
Y18268D01*
D19*
X7795Y10748D02*
Y12480D01*
X10866Y10748D02*
Y12480D01*
X7795Y10748D02*
X10866D01*
X7795Y12480D02*
X10866D01*
X3976Y13524D02*
Y14720D01*
X3424Y13524D02*
Y14720D01*
Y13524D02*
X3976D01*
X3424Y14720D02*
X3976D01*
X2283Y9291D02*
Y12874D01*
X79Y9291D02*
X2283D01*
X79D02*
Y12874D01*
X2283D01*
Y4567D02*
Y8150D01*
X79Y4567D02*
X2283D01*
X79D02*
Y8150D01*
X2283D01*
X18329Y138D02*
X22380D01*
X18329D02*
Y1988D01*
X22380D01*
Y138D02*
Y1988D01*
X13762Y138D02*
X17813D01*
X13762D02*
Y1988D01*
X17813D01*
Y138D02*
Y1988D01*
X9195Y138D02*
X13246D01*
X9195D02*
Y1988D01*
X13246D01*
Y138D02*
Y1988D01*
X4628Y138D02*
X8679D01*
X4628D02*
Y1988D01*
X8679D01*
Y138D02*
Y1988D01*
X18329Y23484D02*
X22380D01*
Y21634D02*
Y23484D01*
X18329Y21634D02*
X22380D01*
X18329D02*
Y23484D01*
X13762D02*
X17813D01*
Y21634D02*
Y23484D01*
X13762Y21634D02*
X17813D01*
X13762D02*
Y23484D01*
X9195D02*
X13246D01*
Y21634D02*
Y23484D01*
X9195Y21634D02*
X13246D01*
X9195D02*
Y23484D01*
X4628D02*
X8679D01*
Y21634D02*
Y23484D01*
X4628Y21634D02*
X8679D01*
X4628D02*
Y23484D01*
X20383Y7888D02*
Y14974D01*
X22863D01*
X12824D02*
X20383D01*
X12824Y7888D02*
Y14974D01*
Y7888D02*
X20383D01*
X22863D01*
Y14974D01*
X624Y14770D02*
X1176D01*
X624Y13574D02*
X1176D01*
X624D02*
Y14770D01*
X1176Y13574D02*
Y14770D01*
D21*
X26713Y19587D02*
X26686Y19685D01*
X26614Y19757D01*
X26516Y19783D01*
X26417Y19757D01*
X26345Y19685D01*
X26319Y19587D01*
X26345Y19488D01*
X26417Y19416D01*
X26516Y19390D01*
X26614Y19416D01*
X26686Y19488D01*
X26713Y19587D01*
X5823Y15678D02*
X5797Y15776D01*
X5725Y15848D01*
X5626Y15874D01*
X5528Y15848D01*
X5456Y15776D01*
X5430Y15678D01*
X5456Y15579D01*
X5528Y15507D01*
X5626Y15481D01*
X5725Y15507D01*
X5797Y15579D01*
X5823Y15678D01*
X23917Y23287D02*
X26870D01*
X23917Y19232D02*
X26870D01*
X23917D02*
Y23287D01*
X26870Y19232D02*
Y23287D01*
X28041Y17963D02*
Y18652D01*
X28415Y17963D02*
Y18652D01*
X28041Y17963D02*
X28415D01*
X28041Y18652D02*
X28415D01*
X28041Y12569D02*
Y13258D01*
X28415Y12569D02*
Y13258D01*
X28041Y12569D02*
X28415D01*
X28041Y13258D02*
X28415D01*
X-74Y14515D02*
Y15932D01*
Y19708D02*
X2891D01*
X-74Y15936D02*
Y19708D01*
Y15936D02*
X2891D01*
Y19708D01*
X5981Y15323D02*
Y19221D01*
X4445Y15323D02*
Y19221D01*
Y15323D02*
X5981D01*
X4445Y19221D02*
X5981D01*
X5913Y12563D02*
Y13252D01*
X6287Y12563D02*
Y13252D01*
X5913Y12563D02*
X6287D01*
X5913Y13252D02*
X6287D01*
X5213Y12578D02*
Y13267D01*
X5587Y12578D02*
Y13267D01*
X5213Y12578D02*
X5587D01*
X5213Y13267D02*
X5587D01*
X23563Y205D02*
X28780D01*
X23563D02*
Y6012D01*
X29488D01*
X28780Y106D02*
Y205D01*
Y106D02*
X29213D01*
Y205D01*
X29488D01*
Y6012D01*
D98*
X26470Y15273D02*
X26434Y15358D01*
X26350Y15393D01*
X26265Y15358D01*
X26230Y15273D01*
X26265Y15188D01*
X26350Y15153D01*
X26434Y15188D01*
X26470Y15273D01*
M02*
