M48
;Layer_Color=9474304
;FILE_FORMAT=2:4
INCH,LZ
;TYPE=PLATED
T1F00S00C0.0157
T2F00S00C0.0394
T4F00S00C0.0402
T5F00S00C0.0512
T6F00S00C0.0571
T7F00S00C0.0921
T8F00S00C0.1181
%
T01
X0032Y00905
X0038Y01155
X00465Y01385
X00575Y01445
X00865Y01315
X0098Y01215
X00975Y01165
X0104
X01185Y01215
X011734Y009194
X01005Y0092
X01045Y00965
X0085Y009603
X0075Y010143
X0069Y010142
X0063
X0057Y010142
X008125Y010925
X01135Y0162
Y01655
X01175
Y0162
Y01695
X01135
X0032Y01665
X0142Y0135
Y0131
X0148
Y0135
X01495Y0121
X014625Y011475
X01465Y011
X016Y0121
X01595Y0125
X016456Y010065
X016209Y00955
X01585Y0094
X018083Y009817
X017525Y010575
X0178Y011
X01825Y0116
X0196Y011
X01955Y0106
X02405Y01355
X0244
X0273Y01585
Y01625
X0277Y01585
X0251Y01985
X0247
X0243
X02425Y02035
X0247
X0251
X01935Y02125
X0139Y0199
X0089Y0185
Y01815
X00705Y019
X0076Y02075
X0065Y021836
X0049Y02175
X00425Y01995
T02
X02126Y009449
X022244
Y010449
X02126
Y011449
X022244
X000916Y018494
Y020462
T04
X003173Y004567
X004173
X030787Y004165
Y005165
Y006165
Y007165
Y003165
X029465Y022835
X028465
X003071
X002071
T05
X0019Y0181
Y020856
T06
X0014Y009582
Y010566
Y01155
Y012534
Y014503
T07
X001321Y008184
Y0159
T08
X030709Y000787
X000787
X030709Y022835
X000787
M30
