G04*
G04 #@! TF.GenerationSoftware,Altium Limited,Altium Designer,20.2.6 (244)*
G04*
G04 Layer_Color=255*
%FSLAX24Y24*%
%MOIN*%
G70*
G04*
G04 #@! TF.SameCoordinates,138FFB06-442B-41CF-B478-29EAC48853A1*
G04*
G04*
G04 #@! TF.FilePolarity,Positive*
G04*
G01*
G75*
%ADD71R,0.0598X0.0598*%
%ADD72C,0.0598*%
%ADD73R,0.0598X0.0598*%
%ADD74C,0.0768*%
%ADD75C,0.0591*%
%ADD76O,0.0787X0.0984*%
%ADD77O,0.0984X0.0787*%
%ADD78C,0.0600*%
%ADD79C,0.0856*%
%ADD80C,0.1382*%
%ADD81C,0.1181*%
D71*
X30787Y7165D02*
D03*
D72*
Y6165D02*
D03*
Y5165D02*
D03*
Y4165D02*
D03*
Y3165D02*
D03*
X28465Y22835D02*
D03*
X2071D02*
D03*
X4173Y4567D02*
D03*
D73*
X29465Y22835D02*
D03*
X3071D02*
D03*
X3173Y4567D02*
D03*
D74*
X1900Y18100D02*
D03*
Y20856D02*
D03*
D75*
X916Y18494D02*
D03*
Y20462D02*
D03*
D76*
X2402Y2913D02*
D03*
X4331D02*
D03*
D77*
X3307Y1811D02*
D03*
D78*
X22244Y11449D02*
D03*
X21260D02*
D03*
X22244Y9449D02*
D03*
Y10449D02*
D03*
X21260Y9449D02*
D03*
Y10449D02*
D03*
D79*
X1400Y9582D02*
D03*
Y10566D02*
D03*
Y11550D02*
D03*
Y12534D02*
D03*
Y14503D02*
D03*
D80*
X1321Y8184D02*
D03*
Y15900D02*
D03*
D81*
X30709Y787D02*
D03*
Y22835D02*
D03*
X787D02*
D03*
Y787D02*
D03*
M02*
