G04*
G04 #@! TF.GenerationSoftware,Altium Limited,Altium Designer,20.2.6 (244)*
G04*
G04 Layer_Color=32768*
%FSLAX24Y24*%
%MOIN*%
G70*
G04*
G04 #@! TF.SameCoordinates,138FFB06-442B-41CF-B478-29EAC48853A1*
G04*
G04*
G04 #@! TF.FilePolarity,Positive*
G04*
G01*
G75*
%ADD12C,0.0039*%
%ADD83C,0.0020*%
D12*
X8467Y16871D02*
Y18229D01*
X10633D01*
Y16871D02*
Y18229D01*
X8467Y16871D02*
X10633D01*
X-943Y21633D02*
X2739D01*
X-943Y17322D02*
Y21633D01*
Y17322D02*
X2739D01*
Y21633D01*
X6253Y19750D02*
X6647D01*
X6450Y19553D02*
Y19947D01*
X4746Y7099D02*
Y16985D01*
X-293D02*
X4746D01*
X-293Y7099D02*
Y16985D01*
Y7099D02*
X4746D01*
Y16985D01*
X-293D02*
X4746D01*
X-293Y7099D02*
Y16985D01*
Y7099D02*
X4746D01*
Y16985D01*
X-293D02*
X4746D01*
X-293Y7099D02*
Y16985D01*
Y7099D02*
X4746D01*
D83*
X23969Y18071D02*
X25631D01*
X23969Y17835D02*
Y18071D01*
X23127Y17835D02*
X23969D01*
X23127Y15465D02*
Y17835D01*
Y15465D02*
X23969D01*
Y15229D02*
Y15465D01*
Y15229D02*
X25631D01*
Y15914D01*
X26473D01*
Y17386D01*
X25631D02*
X26473D01*
X25631D02*
Y18071D01*
X23969Y14971D02*
X25631D01*
X23969Y14735D02*
Y14971D01*
X23127Y14735D02*
X23969D01*
X23127Y12365D02*
Y14735D01*
Y12365D02*
X23969D01*
Y12129D02*
Y12365D01*
Y12129D02*
X25631D01*
Y12814D01*
X26473D01*
Y14286D01*
X25631D02*
X26473D01*
X25631D02*
Y14971D01*
X19339Y8762D02*
Y12364D01*
X16461Y8762D02*
Y12364D01*
Y8762D02*
X19339D01*
X16461Y12364D02*
X19339D01*
X23246Y22202D02*
X25254D01*
X23246Y18639D02*
Y22202D01*
Y18639D02*
X25254D01*
Y22202D01*
X18604Y17645D02*
X22896D01*
Y22055D01*
X18604D02*
X22896D01*
X18604Y17645D02*
Y22055D01*
X11804Y18254D02*
Y21546D01*
Y18254D02*
X13785D01*
Y17727D02*
Y18254D01*
Y17727D02*
X18092D01*
Y22073D01*
X13785D02*
X18092D01*
X13785Y21546D02*
Y22073D01*
X11804Y21546D02*
X13785D01*
X16378Y16250D02*
Y17550D01*
X13622Y16250D02*
Y17550D01*
Y16250D02*
X16378D01*
X13622Y17550D02*
X16378D01*
X14803Y16900D02*
X15197D01*
X15000Y16703D02*
Y17097D01*
X7889Y14817D02*
Y16983D01*
X10811Y14817D02*
Y16983D01*
X7889D02*
X10811D01*
X7889Y14817D02*
X10811D01*
X9346Y18639D02*
X11354D01*
Y22202D01*
X9346D02*
X11354D01*
X9346Y18639D02*
Y22202D01*
X4900Y18628D02*
Y20872D01*
X8000Y18628D02*
Y20872D01*
X4900D02*
X8000D01*
X4900Y18628D02*
X8000D01*
X2988Y17150D02*
Y18450D01*
X5744Y17150D02*
Y18450D01*
X2988D02*
X5744D01*
X2988Y17150D02*
X5744D01*
X4169Y17800D02*
X4563D01*
X4366Y17603D02*
Y17997D01*
X7211Y14817D02*
Y16983D01*
X4289Y14817D02*
Y16983D01*
Y14817D02*
X7211D01*
X4289Y16983D02*
X7211D01*
X5709Y12969D02*
Y14631D01*
X4291D02*
X5709D01*
X4291Y12969D02*
Y14631D01*
Y12969D02*
X5709D01*
X8639Y8849D02*
Y12451D01*
Y8849D02*
X11561D01*
Y12451D01*
X8639D02*
X11561D01*
X2550Y12062D02*
X3850D01*
X2550Y9306D02*
X3850D01*
Y12062D01*
X2550Y9306D02*
Y12062D01*
X3200Y10487D02*
Y10881D01*
X3003Y10684D02*
X3397D01*
X803Y5500D02*
X1197D01*
X1000Y5303D02*
Y5697D01*
X1650Y4122D02*
Y6878D01*
X350Y4122D02*
Y6878D01*
X1650D01*
X350Y4122D02*
X1650D01*
M02*
