G04*
G04 #@! TF.GenerationSoftware,Altium Limited,Altium Designer,20.2.6 (244)*
G04*
G04 Layer_Color=255*
%FSLAX24Y24*%
%MOIN*%
G70*
G04*
G04 #@! TF.SameCoordinates,138FFB06-442B-41CF-B478-29EAC48853A1*
G04*
G04*
G04 #@! TF.FilePolarity,Positive*
G04*
G01*
G75*
%ADD17R,0.0650X0.0600*%
%ADD18R,0.0550X0.0433*%
G04:AMPARAMS|DCode=19|XSize=36.6mil|YSize=51.6mil|CornerRadius=2.7mil|HoleSize=0mil|Usage=FLASHONLY|Rotation=270.000|XOffset=0mil|YOffset=0mil|HoleType=Round|Shape=RoundedRectangle|*
%AMROUNDEDRECTD19*
21,1,0.0366,0.0461,0,0,270.0*
21,1,0.0311,0.0516,0,0,270.0*
1,1,0.0055,-0.0230,-0.0156*
1,1,0.0055,-0.0230,0.0156*
1,1,0.0055,0.0230,0.0156*
1,1,0.0055,0.0230,-0.0156*
%
%ADD19ROUNDEDRECTD19*%
G04:AMPARAMS|DCode=20|XSize=127.6mil|YSize=51.6mil|CornerRadius=3.9mil|HoleSize=0mil|Usage=FLASHONLY|Rotation=270.000|XOffset=0mil|YOffset=0mil|HoleType=Round|Shape=RoundedRectangle|*
%AMROUNDEDRECTD20*
21,1,0.1276,0.0438,0,0,270.0*
21,1,0.1198,0.0516,0,0,270.0*
1,1,0.0077,-0.0219,-0.0599*
1,1,0.0077,-0.0219,0.0599*
1,1,0.0077,0.0219,0.0599*
1,1,0.0077,0.0219,-0.0599*
%
%ADD20ROUNDEDRECTD20*%
G04:AMPARAMS|DCode=21|XSize=74.8mil|YSize=23.6mil|CornerRadius=3mil|HoleSize=0mil|Usage=FLASHONLY|Rotation=0.000|XOffset=0mil|YOffset=0mil|HoleType=Round|Shape=RoundedRectangle|*
%AMROUNDEDRECTD21*
21,1,0.0748,0.0177,0,0,0.0*
21,1,0.0689,0.0236,0,0,0.0*
1,1,0.0059,0.0344,-0.0089*
1,1,0.0059,-0.0344,-0.0089*
1,1,0.0059,-0.0344,0.0089*
1,1,0.0059,0.0344,0.0089*
%
%ADD21ROUNDEDRECTD21*%
%ADD22R,0.0600X0.0650*%
%ADD23R,0.0354X0.0236*%
%ADD24R,0.0965X0.0925*%
%ADD25R,0.1417X0.1043*%
%ADD26R,0.1264X0.0413*%
%ADD27R,0.0827X0.0610*%
%ADD28R,0.0236X0.0354*%
G04:AMPARAMS|DCode=29|XSize=77.6mil|YSize=23.6mil|CornerRadius=3mil|HoleSize=0mil|Usage=FLASHONLY|Rotation=180.000|XOffset=0mil|YOffset=0mil|HoleType=Round|Shape=RoundedRectangle|*
%AMROUNDEDRECTD29*
21,1,0.0776,0.0177,0,0,180.0*
21,1,0.0717,0.0236,0,0,180.0*
1,1,0.0059,-0.0358,0.0089*
1,1,0.0059,0.0358,0.0089*
1,1,0.0059,0.0358,-0.0089*
1,1,0.0059,-0.0358,-0.0089*
%
%ADD29ROUNDEDRECTD29*%
%ADD30R,0.0154X0.0571*%
%ADD31R,0.0550X0.0500*%
%ADD32O,0.0709X0.0236*%
G04:AMPARAMS|DCode=33|XSize=47.6mil|YSize=23.2mil|CornerRadius=5.8mil|HoleSize=0mil|Usage=FLASHONLY|Rotation=90.000|XOffset=0mil|YOffset=0mil|HoleType=Round|Shape=RoundedRectangle|*
%AMROUNDEDRECTD33*
21,1,0.0476,0.0116,0,0,90.0*
21,1,0.0360,0.0232,0,0,90.0*
1,1,0.0116,0.0058,0.0180*
1,1,0.0116,0.0058,-0.0180*
1,1,0.0116,-0.0058,-0.0180*
1,1,0.0116,-0.0058,0.0180*
%
%ADD33ROUNDEDRECTD33*%
G04:AMPARAMS|DCode=34|XSize=77.6mil|YSize=23.6mil|CornerRadius=5.9mil|HoleSize=0mil|Usage=FLASHONLY|Rotation=0.000|XOffset=0mil|YOffset=0mil|HoleType=Round|Shape=RoundedRectangle|*
%AMROUNDEDRECTD34*
21,1,0.0776,0.0118,0,0,0.0*
21,1,0.0657,0.0236,0,0,0.0*
1,1,0.0118,0.0329,-0.0059*
1,1,0.0118,-0.0329,-0.0059*
1,1,0.0118,-0.0329,0.0059*
1,1,0.0118,0.0329,0.0059*
%
%ADD34ROUNDEDRECTD34*%
%ADD35R,0.0610X0.0827*%
%ADD67R,0.3331X0.4146*%
%ADD71R,0.0598X0.0598*%
%ADD72C,0.0598*%
%ADD73R,0.0598X0.0598*%
%ADD74C,0.0768*%
%ADD75C,0.0591*%
%ADD76O,0.0787X0.0984*%
%ADD77O,0.0984X0.0787*%
%ADD78C,0.0600*%
%ADD79C,0.0856*%
%ADD80C,0.1382*%
%ADD81C,0.1181*%
D17*
X22350Y15790D02*
D03*
Y17090D02*
D03*
X22250Y13100D02*
D03*
Y14400D02*
D03*
D18*
X21400Y15756D02*
D03*
Y16544D02*
D03*
X21250Y13050D02*
D03*
Y13837D02*
D03*
X25850Y21106D02*
D03*
Y21894D02*
D03*
X8800Y19200D02*
D03*
Y19987D02*
D03*
D19*
X23483Y17552D02*
D03*
Y16650D02*
D03*
Y15748D02*
D03*
Y14452D02*
D03*
Y13550D02*
D03*
Y12648D02*
D03*
D20*
X26117Y16650D02*
D03*
Y13550D02*
D03*
D21*
X18867Y12063D02*
D03*
Y11563D02*
D03*
Y11063D02*
D03*
Y10563D02*
D03*
Y10063D02*
D03*
Y9563D02*
D03*
Y9063D02*
D03*
X16933D02*
D03*
Y9563D02*
D03*
Y10063D02*
D03*
Y10563D02*
D03*
Y11063D02*
D03*
Y11563D02*
D03*
Y12063D02*
D03*
D22*
X17190Y13210D02*
D03*
X18490D02*
D03*
X10660Y13200D02*
D03*
X9360D02*
D03*
D23*
X26700Y21290D02*
D03*
X26700Y22005D02*
D03*
X12800Y16985D02*
D03*
X12800Y17700D02*
D03*
X12150Y16985D02*
D03*
X12150Y17700D02*
D03*
X8900Y21250D02*
D03*
X8900Y21965D02*
D03*
X8300Y21950D02*
D03*
X8300Y21235D02*
D03*
X6450Y22900D02*
D03*
X6450Y22185D02*
D03*
X4900Y22900D02*
D03*
X4900Y22185D02*
D03*
X4200Y20915D02*
D03*
X4200Y20200D02*
D03*
X3550Y20185D02*
D03*
X3550Y20900D02*
D03*
X6800Y14450D02*
D03*
X6800Y13735D02*
D03*
X6150Y14450D02*
D03*
X6150Y13735D02*
D03*
X7500Y10485D02*
D03*
X7500Y11200D02*
D03*
X6900Y10484D02*
D03*
X6900Y11199D02*
D03*
X6300Y10484D02*
D03*
X6300Y11199D02*
D03*
X5700Y10484D02*
D03*
X5700Y11199D02*
D03*
X6900Y9085D02*
D03*
X6900Y9800D02*
D03*
X6300Y9085D02*
D03*
X6300Y9800D02*
D03*
X7500Y9085D02*
D03*
X7500Y9800D02*
D03*
X5700Y9085D02*
D03*
X5700Y9800D02*
D03*
X3600Y15335D02*
D03*
X3600Y16050D02*
D03*
D24*
X24250Y19200D02*
D03*
Y21641D02*
D03*
X10350D02*
D03*
Y19200D02*
D03*
D25*
X20750Y21435D02*
D03*
Y18265D02*
D03*
D26*
X12537Y21239D02*
D03*
Y20569D02*
D03*
Y19900D02*
D03*
Y19231D02*
D03*
Y18561D02*
D03*
D27*
X15866Y16900D02*
D03*
X14134D02*
D03*
X3500Y17800D02*
D03*
X5232D02*
D03*
D28*
X11365Y17500D02*
D03*
X10650Y17500D02*
D03*
X3485Y19500D02*
D03*
X4200Y19500D02*
D03*
X3500Y18850D02*
D03*
X4215Y18850D02*
D03*
D29*
X8376Y15150D02*
D03*
Y15650D02*
D03*
Y16150D02*
D03*
Y16650D02*
D03*
X10324D02*
D03*
Y16150D02*
D03*
Y15650D02*
D03*
Y15150D02*
D03*
X6724Y16650D02*
D03*
Y16150D02*
D03*
Y15650D02*
D03*
Y15150D02*
D03*
X4776D02*
D03*
Y15650D02*
D03*
Y16150D02*
D03*
Y16650D02*
D03*
D30*
X10162Y17550D02*
D03*
X8938D02*
D03*
D31*
X5650Y22900D02*
D03*
Y22000D02*
D03*
X4150Y22900D02*
D03*
Y22000D02*
D03*
D32*
X5338Y20500D02*
D03*
Y20000D02*
D03*
Y19500D02*
D03*
Y19000D02*
D03*
X7562Y20500D02*
D03*
Y20000D02*
D03*
Y19500D02*
D03*
Y19000D02*
D03*
D33*
X5374Y13306D02*
D03*
X5000Y14294D02*
D03*
X4626Y13306D02*
D03*
D34*
X11074Y12150D02*
D03*
Y11650D02*
D03*
Y11150D02*
D03*
Y10650D02*
D03*
Y10150D02*
D03*
Y9650D02*
D03*
Y9150D02*
D03*
X9126D02*
D03*
Y9650D02*
D03*
Y10150D02*
D03*
Y10650D02*
D03*
Y11150D02*
D03*
Y11650D02*
D03*
Y12150D02*
D03*
D35*
X3200Y11550D02*
D03*
Y9818D02*
D03*
X1000Y6366D02*
D03*
Y4634D02*
D03*
D67*
X16328Y19900D02*
D03*
D71*
X30787Y7165D02*
D03*
D72*
Y6165D02*
D03*
Y5165D02*
D03*
Y4165D02*
D03*
Y3165D02*
D03*
X28465Y22835D02*
D03*
X2071D02*
D03*
X4173Y4567D02*
D03*
D73*
X29465Y22835D02*
D03*
X3071D02*
D03*
X3173Y4567D02*
D03*
D74*
X1900Y18100D02*
D03*
Y20856D02*
D03*
D75*
X916Y18494D02*
D03*
Y20462D02*
D03*
D76*
X2402Y2913D02*
D03*
X4331D02*
D03*
D77*
X3307Y1811D02*
D03*
D78*
X22244Y11449D02*
D03*
X21260D02*
D03*
X22244Y9449D02*
D03*
Y10449D02*
D03*
X21260Y9449D02*
D03*
Y10449D02*
D03*
D79*
X1400Y9582D02*
D03*
Y10566D02*
D03*
Y11550D02*
D03*
Y12534D02*
D03*
Y14503D02*
D03*
D80*
X1321Y8184D02*
D03*
Y15900D02*
D03*
D81*
X30709Y787D02*
D03*
Y22835D02*
D03*
X787D02*
D03*
Y787D02*
D03*
M02*
