G04*
G04 #@! TF.GenerationSoftware,Altium Limited,Altium Designer,20.2.6 (244)*
G04*
G04 Layer_Color=16711935*
%FSLAX24Y24*%
%MOIN*%
G70*
G04*
G04 #@! TF.SameCoordinates,138FFB06-442B-41CF-B478-29EAC48853A1*
G04*
G04*
G04 #@! TF.FilePolarity,Negative*
G04*
G01*
G75*
%ADD56R,0.0678X0.0678*%
%ADD57C,0.0678*%
%ADD58R,0.0678X0.0678*%
%ADD59C,0.0848*%
%ADD60C,0.0671*%
%ADD61O,0.0867X0.1064*%
%ADD62O,0.1064X0.0867*%
%ADD63C,0.0680*%
%ADD64C,0.0936*%
%ADD65C,0.1462*%
%ADD66C,0.1261*%
D56*
X30787Y7165D02*
D03*
D57*
Y6165D02*
D03*
Y5165D02*
D03*
Y4165D02*
D03*
Y3165D02*
D03*
X28465Y22835D02*
D03*
X2071D02*
D03*
X4173Y4567D02*
D03*
D58*
X29465Y22835D02*
D03*
X3071D02*
D03*
X3173Y4567D02*
D03*
D59*
X1900Y18100D02*
D03*
Y20856D02*
D03*
D60*
X916Y18494D02*
D03*
Y20462D02*
D03*
D61*
X2402Y2913D02*
D03*
X4331D02*
D03*
D62*
X3307Y1811D02*
D03*
D63*
X22244Y11449D02*
D03*
X21260D02*
D03*
X22244Y9449D02*
D03*
Y10449D02*
D03*
X21260Y9449D02*
D03*
Y10449D02*
D03*
D64*
X1400Y9582D02*
D03*
Y10566D02*
D03*
Y11550D02*
D03*
Y12534D02*
D03*
Y14503D02*
D03*
D65*
X1321Y8184D02*
D03*
Y15900D02*
D03*
D66*
X30709Y787D02*
D03*
Y22835D02*
D03*
X787D02*
D03*
Y787D02*
D03*
M02*
