G04*
G04 #@! TF.GenerationSoftware,Altium Limited,Altium Designer,20.2.6 (244)*
G04*
G04 Layer_Color=8388736*
%FSLAX24Y24*%
%MOIN*%
G70*
G04*
G04 #@! TF.SameCoordinates,138FFB06-442B-41CF-B478-29EAC48853A1*
G04*
G04*
G04 #@! TF.FilePolarity,Negative*
G04*
G01*
G75*
%ADD36R,0.0730X0.0680*%
%ADD37R,0.0630X0.0513*%
G04:AMPARAMS|DCode=38|XSize=44.6mil|YSize=59.6mil|CornerRadius=6.7mil|HoleSize=0mil|Usage=FLASHONLY|Rotation=270.000|XOffset=0mil|YOffset=0mil|HoleType=Round|Shape=RoundedRectangle|*
%AMROUNDEDRECTD38*
21,1,0.0446,0.0461,0,0,270.0*
21,1,0.0311,0.0596,0,0,270.0*
1,1,0.0135,-0.0230,-0.0156*
1,1,0.0135,-0.0230,0.0156*
1,1,0.0135,0.0230,0.0156*
1,1,0.0135,0.0230,-0.0156*
%
%ADD38ROUNDEDRECTD38*%
G04:AMPARAMS|DCode=39|XSize=135.6mil|YSize=59.6mil|CornerRadius=7.9mil|HoleSize=0mil|Usage=FLASHONLY|Rotation=270.000|XOffset=0mil|YOffset=0mil|HoleType=Round|Shape=RoundedRectangle|*
%AMROUNDEDRECTD39*
21,1,0.1356,0.0438,0,0,270.0*
21,1,0.1198,0.0596,0,0,270.0*
1,1,0.0157,-0.0219,-0.0599*
1,1,0.0157,-0.0219,0.0599*
1,1,0.0157,0.0219,0.0599*
1,1,0.0157,0.0219,-0.0599*
%
%ADD39ROUNDEDRECTD39*%
G04:AMPARAMS|DCode=40|XSize=82.8mil|YSize=31.6mil|CornerRadius=7mil|HoleSize=0mil|Usage=FLASHONLY|Rotation=0.000|XOffset=0mil|YOffset=0mil|HoleType=Round|Shape=RoundedRectangle|*
%AMROUNDEDRECTD40*
21,1,0.0828,0.0177,0,0,0.0*
21,1,0.0689,0.0316,0,0,0.0*
1,1,0.0139,0.0344,-0.0089*
1,1,0.0139,-0.0344,-0.0089*
1,1,0.0139,-0.0344,0.0089*
1,1,0.0139,0.0344,0.0089*
%
%ADD40ROUNDEDRECTD40*%
%ADD41R,0.0680X0.0730*%
%ADD42R,0.0434X0.0316*%
%ADD43R,0.1045X0.1005*%
%ADD44R,0.1497X0.1123*%
%ADD45R,0.1344X0.0493*%
%ADD46R,0.3411X0.4226*%
%ADD47R,0.0907X0.0690*%
%ADD48R,0.0316X0.0434*%
G04:AMPARAMS|DCode=49|XSize=85.6mil|YSize=31.6mil|CornerRadius=7mil|HoleSize=0mil|Usage=FLASHONLY|Rotation=180.000|XOffset=0mil|YOffset=0mil|HoleType=Round|Shape=RoundedRectangle|*
%AMROUNDEDRECTD49*
21,1,0.0856,0.0177,0,0,180.0*
21,1,0.0717,0.0316,0,0,180.0*
1,1,0.0139,-0.0358,0.0089*
1,1,0.0139,0.0358,0.0089*
1,1,0.0139,0.0358,-0.0089*
1,1,0.0139,-0.0358,-0.0089*
%
%ADD49ROUNDEDRECTD49*%
%ADD50R,0.0234X0.0651*%
%ADD51R,0.0630X0.0580*%
%ADD52O,0.0789X0.0316*%
G04:AMPARAMS|DCode=53|XSize=55.6mil|YSize=31.2mil|CornerRadius=9.8mil|HoleSize=0mil|Usage=FLASHONLY|Rotation=90.000|XOffset=0mil|YOffset=0mil|HoleType=Round|Shape=RoundedRectangle|*
%AMROUNDEDRECTD53*
21,1,0.0556,0.0116,0,0,90.0*
21,1,0.0360,0.0312,0,0,90.0*
1,1,0.0196,0.0058,0.0180*
1,1,0.0196,0.0058,-0.0180*
1,1,0.0196,-0.0058,-0.0180*
1,1,0.0196,-0.0058,0.0180*
%
%ADD53ROUNDEDRECTD53*%
G04:AMPARAMS|DCode=54|XSize=85.6mil|YSize=31.6mil|CornerRadius=9.9mil|HoleSize=0mil|Usage=FLASHONLY|Rotation=0.000|XOffset=0mil|YOffset=0mil|HoleType=Round|Shape=RoundedRectangle|*
%AMROUNDEDRECTD54*
21,1,0.0856,0.0118,0,0,0.0*
21,1,0.0657,0.0316,0,0,0.0*
1,1,0.0198,0.0329,-0.0059*
1,1,0.0198,-0.0329,-0.0059*
1,1,0.0198,-0.0329,0.0059*
1,1,0.0198,0.0329,0.0059*
%
%ADD54ROUNDEDRECTD54*%
%ADD55R,0.0690X0.0907*%
%ADD56R,0.0678X0.0678*%
%ADD57C,0.0678*%
%ADD58R,0.0678X0.0678*%
%ADD59C,0.0848*%
%ADD60C,0.0671*%
%ADD61O,0.0867X0.1064*%
%ADD62O,0.1064X0.0867*%
%ADD63C,0.0680*%
%ADD64C,0.0936*%
%ADD65C,0.1462*%
%ADD66C,0.1261*%
D36*
X22350Y15790D02*
D03*
Y17090D02*
D03*
X22250Y13100D02*
D03*
Y14400D02*
D03*
D37*
X21400Y15756D02*
D03*
Y16544D02*
D03*
X21250Y13050D02*
D03*
Y13837D02*
D03*
X25850Y21106D02*
D03*
Y21894D02*
D03*
X8800Y19200D02*
D03*
Y19987D02*
D03*
D38*
X23483Y17552D02*
D03*
Y16650D02*
D03*
Y15748D02*
D03*
Y14452D02*
D03*
Y13550D02*
D03*
Y12648D02*
D03*
D39*
X26117Y16650D02*
D03*
Y13550D02*
D03*
D40*
X18867Y12063D02*
D03*
Y11563D02*
D03*
Y11063D02*
D03*
Y10563D02*
D03*
Y10063D02*
D03*
Y9563D02*
D03*
Y9063D02*
D03*
X16933D02*
D03*
Y9563D02*
D03*
Y10063D02*
D03*
Y10563D02*
D03*
Y11063D02*
D03*
Y11563D02*
D03*
Y12063D02*
D03*
D41*
X17190Y13210D02*
D03*
X18490D02*
D03*
X10660Y13200D02*
D03*
X9360D02*
D03*
D42*
X26700Y21290D02*
D03*
X26700Y22005D02*
D03*
X12800Y16985D02*
D03*
X12800Y17700D02*
D03*
X12150Y16985D02*
D03*
X12150Y17700D02*
D03*
X8900Y21250D02*
D03*
X8900Y21965D02*
D03*
X8300Y21950D02*
D03*
X8300Y21235D02*
D03*
X6450Y22900D02*
D03*
X6450Y22185D02*
D03*
X4900Y22900D02*
D03*
X4900Y22185D02*
D03*
X4200Y20915D02*
D03*
X4200Y20200D02*
D03*
X3550Y20185D02*
D03*
X3550Y20900D02*
D03*
X6800Y14450D02*
D03*
X6800Y13735D02*
D03*
X6150Y14450D02*
D03*
X6150Y13735D02*
D03*
X7500Y10485D02*
D03*
X7500Y11200D02*
D03*
X6900Y10484D02*
D03*
X6900Y11199D02*
D03*
X6300Y10484D02*
D03*
X6300Y11199D02*
D03*
X5700Y10484D02*
D03*
X5700Y11199D02*
D03*
X6900Y9085D02*
D03*
X6900Y9800D02*
D03*
X6300Y9085D02*
D03*
X6300Y9800D02*
D03*
X7500Y9085D02*
D03*
X7500Y9800D02*
D03*
X5700Y9085D02*
D03*
X5700Y9800D02*
D03*
X3600Y15335D02*
D03*
X3600Y16050D02*
D03*
D43*
X24250Y19200D02*
D03*
Y21641D02*
D03*
X10350D02*
D03*
Y19200D02*
D03*
D44*
X20750Y21435D02*
D03*
Y18265D02*
D03*
D45*
X12537Y21239D02*
D03*
Y20569D02*
D03*
Y19900D02*
D03*
Y19231D02*
D03*
Y18561D02*
D03*
D46*
X16328Y19900D02*
D03*
D47*
X15866Y16900D02*
D03*
X14134D02*
D03*
X3500Y17800D02*
D03*
X5232D02*
D03*
D48*
X11365Y17500D02*
D03*
X10650Y17500D02*
D03*
X3485Y19500D02*
D03*
X4200Y19500D02*
D03*
X3500Y18850D02*
D03*
X4215Y18850D02*
D03*
D49*
X8376Y15150D02*
D03*
Y15650D02*
D03*
Y16150D02*
D03*
Y16650D02*
D03*
X10324D02*
D03*
Y16150D02*
D03*
Y15650D02*
D03*
Y15150D02*
D03*
X6724Y16650D02*
D03*
Y16150D02*
D03*
Y15650D02*
D03*
Y15150D02*
D03*
X4776D02*
D03*
Y15650D02*
D03*
Y16150D02*
D03*
Y16650D02*
D03*
D50*
X10162Y17550D02*
D03*
X8938D02*
D03*
D51*
X5650Y22900D02*
D03*
Y22000D02*
D03*
X4150Y22900D02*
D03*
Y22000D02*
D03*
D52*
X5338Y20500D02*
D03*
Y20000D02*
D03*
Y19500D02*
D03*
Y19000D02*
D03*
X7562Y20500D02*
D03*
Y20000D02*
D03*
Y19500D02*
D03*
Y19000D02*
D03*
D53*
X5374Y13306D02*
D03*
X5000Y14294D02*
D03*
X4626Y13306D02*
D03*
D54*
X11074Y12150D02*
D03*
Y11650D02*
D03*
Y11150D02*
D03*
Y10650D02*
D03*
Y10150D02*
D03*
Y9650D02*
D03*
Y9150D02*
D03*
X9126D02*
D03*
Y9650D02*
D03*
Y10150D02*
D03*
Y10650D02*
D03*
Y11150D02*
D03*
Y11650D02*
D03*
Y12150D02*
D03*
D55*
X3200Y11550D02*
D03*
Y9818D02*
D03*
X1000Y6366D02*
D03*
Y4634D02*
D03*
D56*
X30787Y7165D02*
D03*
D57*
Y6165D02*
D03*
Y5165D02*
D03*
Y4165D02*
D03*
Y3165D02*
D03*
X28465Y22835D02*
D03*
X2071D02*
D03*
X4173Y4567D02*
D03*
D58*
X29465Y22835D02*
D03*
X3071D02*
D03*
X3173Y4567D02*
D03*
D59*
X1900Y18100D02*
D03*
Y20856D02*
D03*
D60*
X916Y18494D02*
D03*
Y20462D02*
D03*
D61*
X2402Y2913D02*
D03*
X4331D02*
D03*
D62*
X3307Y1811D02*
D03*
D63*
X22244Y11449D02*
D03*
X21260D02*
D03*
X22244Y9449D02*
D03*
Y10449D02*
D03*
X21260Y9449D02*
D03*
Y10449D02*
D03*
D64*
X1400Y9582D02*
D03*
Y10566D02*
D03*
Y11550D02*
D03*
Y12534D02*
D03*
Y14503D02*
D03*
D65*
X1321Y8184D02*
D03*
Y15900D02*
D03*
D66*
X30709Y787D02*
D03*
Y22835D02*
D03*
X787D02*
D03*
Y787D02*
D03*
M02*
