G04*
G04 #@! TF.GenerationSoftware,Altium Limited,Altium Designer,20.2.6 (244)*
G04*
G04 Layer_Color=32896*
%FSLAX24Y24*%
%MOIN*%
G70*
G04*
G04 #@! TF.SameCoordinates,138FFB06-442B-41CF-B478-29EAC48853A1*
G04*
G04*
G04 #@! TF.FilePolarity,Positive*
G04*
G01*
G75*
%ADD12C,0.0039*%
G36*
X4341Y17577D02*
X4348Y17565D01*
X4356Y17555D01*
X4363Y17546D01*
X4371Y17539D01*
X4377Y17534D01*
X4378Y17532D01*
X4380Y17530D01*
X4381Y17530D01*
X4382Y17529D01*
X4394Y17520D01*
X4405Y17513D01*
X4416Y17507D01*
X4425Y17502D01*
X4432Y17498D01*
X4438Y17496D01*
X4441Y17495D01*
X4442Y17495D01*
X4443Y17494D01*
X4443D01*
Y17428D01*
X4424Y17436D01*
X4406Y17444D01*
X4390Y17453D01*
X4383Y17458D01*
X4377Y17462D01*
X4370Y17466D01*
X4365Y17470D01*
X4360Y17474D01*
X4356Y17477D01*
X4354Y17480D01*
X4351Y17481D01*
X4350Y17482D01*
X4350Y17483D01*
Y17210D01*
X4277D01*
Y17590D01*
X4336D01*
X4341Y17577D01*
D02*
G37*
G36*
X4605Y17343D02*
Y17335D01*
X4605Y17328D01*
X4606Y17321D01*
X4606Y17314D01*
X4607Y17308D01*
X4608Y17304D01*
X4609Y17299D01*
X4610Y17296D01*
X4612Y17289D01*
X4614Y17285D01*
X4615Y17283D01*
X4616Y17283D01*
X4620Y17278D01*
X4625Y17275D01*
X4631Y17272D01*
X4638Y17270D01*
X4643Y17269D01*
X4647Y17268D01*
X4651D01*
X4660Y17269D01*
X4667Y17272D01*
X4674Y17275D01*
X4679Y17279D01*
X4683Y17282D01*
X4686Y17285D01*
X4688Y17288D01*
X4688Y17288D01*
X4691Y17294D01*
X4693Y17301D01*
X4695Y17308D01*
X4696Y17317D01*
X4697Y17323D01*
Y17329D01*
X4697Y17332D01*
Y17333D01*
Y17334D01*
Y17334D01*
X4770Y17326D01*
X4769Y17315D01*
X4769Y17305D01*
X4767Y17295D01*
X4765Y17286D01*
X4763Y17278D01*
X4761Y17270D01*
X4758Y17264D01*
X4755Y17257D01*
X4752Y17252D01*
X4749Y17247D01*
X4747Y17243D01*
X4745Y17240D01*
X4743Y17238D01*
X4741Y17236D01*
X4741Y17235D01*
X4740Y17234D01*
X4734Y17229D01*
X4727Y17224D01*
X4720Y17220D01*
X4714Y17216D01*
X4699Y17211D01*
X4685Y17207D01*
X4679Y17206D01*
X4673Y17205D01*
X4667Y17204D01*
X4663Y17204D01*
X4659Y17203D01*
X4654D01*
X4636Y17204D01*
X4621Y17206D01*
X4608Y17209D01*
X4597Y17213D01*
X4593Y17215D01*
X4589Y17216D01*
X4585Y17218D01*
X4582Y17220D01*
X4580Y17221D01*
X4578Y17222D01*
X4578Y17223D01*
X4577D01*
X4567Y17231D01*
X4559Y17239D01*
X4551Y17249D01*
X4546Y17257D01*
X4542Y17264D01*
X4539Y17270D01*
X4538Y17273D01*
X4537Y17275D01*
X4537Y17275D01*
Y17276D01*
X4534Y17286D01*
X4532Y17298D01*
X4530Y17310D01*
X4529Y17322D01*
X4529Y17332D01*
X4528Y17337D01*
Y17341D01*
Y17344D01*
Y17346D01*
Y17348D01*
Y17348D01*
Y17588D01*
X4605D01*
Y17343D01*
D02*
G37*
D12*
X2306Y7790D02*
Y16294D01*
X101Y8026D02*
Y16294D01*
M02*
