G04*
G04 #@! TF.GenerationSoftware,Altium Limited,Altium Designer,20.2.6 (244)*
G04*
G04 Layer_Color=8388736*
%FSLAX24Y24*%
%MOIN*%
G70*
G04*
G04 #@! TF.SameCoordinates,138FFB06-442B-41CF-B478-29EAC48853A1*
G04*
G04*
G04 #@! TF.FilePolarity,Positive*
G04*
G01*
G75*
%ADD12C,0.0039*%
D12*
X16083Y16349D02*
Y17451D01*
X13917Y16349D02*
Y17451D01*
Y16349D02*
X16083D01*
X13917Y17451D02*
X16083D01*
X15791Y16349D02*
Y17451D01*
X15821Y16349D02*
Y17451D01*
X15850Y16349D02*
Y17451D01*
X15880Y16349D02*
Y17451D01*
X15939Y16349D02*
Y17451D01*
X15969Y16349D02*
Y17451D01*
X15998Y16349D02*
Y17451D01*
X16028Y16349D02*
Y17451D01*
X16047Y16349D02*
Y17451D01*
X15910Y16349D02*
Y17451D01*
X3283Y17249D02*
Y18351D01*
X5449Y17249D02*
Y18351D01*
X3283D02*
X5449D01*
X3283Y17249D02*
X5449D01*
X3575D02*
Y18351D01*
X3545Y17249D02*
Y18351D01*
X3516Y17249D02*
Y18351D01*
X3486Y17249D02*
Y18351D01*
X3427Y17249D02*
Y18351D01*
X3398Y17249D02*
Y18351D01*
X3368Y17249D02*
Y18351D01*
X3338Y17249D02*
Y18351D01*
X3319Y17249D02*
Y18351D01*
X3457Y17249D02*
Y18351D01*
X2649Y11767D02*
X3751D01*
X2649Y9601D02*
X3751D01*
Y11767D01*
X2649Y9601D02*
Y11767D01*
Y11475D02*
X3751D01*
X2649Y11505D02*
X3751D01*
X2649Y11534D02*
X3751D01*
X2649Y11564D02*
X3751D01*
X2649Y11623D02*
X3751D01*
X2649Y11652D02*
X3751D01*
X2649Y11682D02*
X3751D01*
X2649Y11712D02*
X3751D01*
X2649Y11731D02*
X3751D01*
X2649Y11593D02*
X3751D01*
X449Y4590D02*
X1551D01*
X449Y4453D02*
X1551D01*
X449Y4472D02*
X1551D01*
X449Y4502D02*
X1551D01*
X449Y4531D02*
X1551D01*
X449Y4561D02*
X1551D01*
X449Y4620D02*
X1551D01*
X449Y4650D02*
X1551D01*
X449Y4679D02*
X1551D01*
X449Y4709D02*
X1551D01*
Y4417D02*
Y6583D01*
X449Y4417D02*
Y6583D01*
X1551D01*
X449Y4417D02*
X1551D01*
M02*
