M48
;Layer_Color=9474304
;FILE_FORMAT=2:4
INCH,TZ
;TYPE=PLATED
T1F00S00C0.0079
T2F00S00C0.0157
T3F00S00C0.0300
T4F00S00C0.0315
T5F00S00C0.0340
T6F00S00C0.0350
T7F00S00C0.0394
T9F00S00C0.0402
T10F00S00C0.1181
;TYPE=NON_PLATED
T11F00S00C0.0354
%
T01
X22231Y13543
X22954
X22592Y13182
X23315
X23676Y13543
Y14265
X23315Y13904
Y14626
X22592
X22954Y14265
X22592Y13904
X22231Y14265
T02
X22150Y5750
X22100Y6200
X21900Y8950
X22406
X25477Y5664
X25050Y5150
X26729Y5421
X27000Y5701
X26650Y5900
X31500Y4153
X35500Y5300
X35373Y5889
X35673Y6189
X35950Y6650
X35189Y6623
X35316Y6996
X35200Y8850
X33050Y9000
X21400Y8950
X20950
X20400
X19900
X17554Y8604
X17100Y8864
X16650
X16300Y8600
X16800Y8000
X17000Y6300
X16950Y5900
X17400Y6600
X16200Y6650
X15300Y5200
X12522Y6828
X10150Y6800
X9535Y8160
X7535Y8960
X19700Y6450
X6100Y6700
X5150
X5100Y8400
X4700Y8750
X4165Y9440
X4235Y13210
X6085Y15960
X4485Y17610
X7800Y16900
X6885Y15710
X7035Y15110
X9500Y14050
X11128Y12500
X11085Y10410
X7000Y10450
X7035Y9010
X11050Y15700
X15350Y15750
X16400Y16050
X16600Y16600
X16650Y17800
X16500Y18400
X17450Y20200
X18350Y15750
X18100Y14550
X17850Y14200
X17875Y12475
X17935Y11646
X17531Y11369
X18500Y10450
X19000Y10150
X17550Y9350
X15550Y14200
X14950Y13800
X13300Y18400
X11500Y19900
X11739Y20420
X11250Y23100
X8100Y19400
X8985Y18260
X19800Y15700
X21425Y13950
Y12950
X22353Y12500
X23650Y11350
X24150Y11300
X24525Y12225
X25800Y10950
X25400Y9150
X24918Y15960
X24406Y17550
X25430Y17630
X22450Y17600
X22150Y19100
X23700
X28066Y19966
X30813Y19375
X30832Y19032
X30838Y18676
X30819Y18344
X30850Y16500
X30500Y16100
X30644Y15600
X30597Y15200
X30250Y14300
X33400Y14700
X34350Y14300
X34450Y13800
X33950Y13850
X34850Y14162
X34900Y12550
X34500Y12400
X34000
X33494Y12394
X33100Y12400
X32400
X33950Y10100
X35750Y10750
X37150Y12650
X35350Y16150
X33650Y16100
X31950Y17100
X31894Y19150
Y19550
Y20000
Y20406
X32100Y21150
Y21550
X31800Y22050
X33500Y22100
X33766Y19534
X34000Y19300
X34250Y19050
X34543Y18793
X22050Y23650
X37850Y23550
X37610Y20092
X38150Y11750
X39850Y9750
T03
X22250Y4650
T04
X500Y11550
Y14550
Y15200
Y15900
X38300Y15560
Y16350
Y14770
Y13980
Y13190
Y12400
Y18250
Y19040
Y19830
Y20620
Y21410
Y22200
T05
X37485Y2910
X38485
X39485
X36485
X34485
X33485
X32485
X31485
X29485
X28485
X27485
X26485
X24485
X23485
X22485
X21485
X19485
X18485
X17485
X16485
X14485
X13485
X12485
X11485
X9485
X8485
X7485
X6485
X4485
X3485
X2485
X1485
X37521Y24810
X38521
X39521
X36521
X34521
X33521
X32521
X31521
X29550
X28550
X27550
X26550
X24500
X23500
X22500
X21500
X19521
X18521
X17521
X16521
X14521
X13521
X12521
X11521
X9521
X8521
X7521
X6521
X4521
X3521
X2521
X1521
T06
X1285Y17260
Y18260
Y19260
X3785
Y18260
Y17260
T07
X11700Y4650
X12700
X13735
X14700
X17250
X18250
X19250
X20250
X21250
T09
X20250Y22600
X21250
X22250
X23250
T10
X600Y4400
X850Y23500
X40200Y23600
Y11000
T11
X2500Y7550
Y9282
M30
