G04*
G04 #@! TF.GenerationSoftware,Altium Limited,Altium Designer,20.2.6 (244)*
G04*
G04 Layer_Color=255*
%FSLAX24Y24*%
%MOIN*%
G70*
G04*
G04 #@! TF.SameCoordinates,3AFE1146-FA95-4E81-A996-3AB7B898703E*
G04*
G04*
G04 #@! TF.FilePolarity,Positive*
G04*
G01*
G75*
%ADD25R,0.0354X0.0236*%
%ADD31R,0.0236X0.0354*%
%ADD34R,0.0650X0.0600*%
%ADD39R,0.0550X0.0433*%
%ADD47R,0.0394X0.0354*%
%ADD48R,0.0800X0.0700*%
%ADD52R,0.0600X0.0650*%
%ADD125C,0.0236*%
%ADD126C,0.1260*%
%ADD127R,0.0750X0.0900*%
%ADD128O,0.0750X0.0900*%
%ADD129C,0.0598*%
%ADD130R,0.0598X0.0598*%
%ADD131C,0.0515*%
%ADD132R,0.0515X0.0515*%
%ADD133C,0.0118*%
%ADD134O,0.0800X0.0700*%
%ADD135C,0.0394*%
%ADD136R,0.0600X0.0600*%
%ADD137C,0.0600*%
%ADD138O,0.0984X0.0787*%
%ADD139O,0.0787X0.0984*%
%ADD140O,0.0217X0.0800*%
G04:AMPARAMS|DCode=141|XSize=61.8mil|YSize=16.1mil|CornerRadius=2mil|HoleSize=0mil|Usage=FLASHONLY|Rotation=90.000|XOffset=0mil|YOffset=0mil|HoleType=Round|Shape=RoundedRectangle|*
%AMROUNDEDRECTD141*
21,1,0.0618,0.0121,0,0,90.0*
21,1,0.0578,0.0161,0,0,90.0*
1,1,0.0040,0.0061,0.0289*
1,1,0.0040,0.0061,-0.0289*
1,1,0.0040,-0.0061,-0.0289*
1,1,0.0040,-0.0061,0.0289*
%
%ADD141ROUNDEDRECTD141*%
%ADD142R,0.3201X0.2000*%
%ADD143R,0.0670X0.0210*%
D25*
X34250Y17050D02*
D03*
X34250Y17765D02*
D03*
X35150Y17050D02*
D03*
X35150Y17765D02*
D03*
D31*
X36650Y10950D02*
D03*
X37365Y10950D02*
D03*
X36650Y11700D02*
D03*
X37365Y11700D02*
D03*
X16385Y14410D02*
D03*
X17100Y14410D02*
D03*
X16385Y13510D02*
D03*
X17100Y13510D02*
D03*
X16385Y12610D02*
D03*
X17100Y12610D02*
D03*
X18165Y10500D02*
D03*
X17450Y10500D02*
D03*
X17435Y9750D02*
D03*
X18150Y9750D02*
D03*
D34*
X36150Y18350D02*
D03*
Y17050D02*
D03*
X33850Y7650D02*
D03*
Y8950D02*
D03*
D39*
X39100Y18206D02*
D03*
Y18994D02*
D03*
Y12406D02*
D03*
Y13194D02*
D03*
D47*
X24450Y18565D02*
D03*
Y17935D02*
D03*
D48*
X1285Y19260D02*
D03*
D52*
X27590Y18000D02*
D03*
X26290D02*
D03*
X17675Y15360D02*
D03*
X16375D02*
D03*
X4640Y4250D02*
D03*
X3340D02*
D03*
D125*
X2500Y7550D02*
D03*
Y9282D02*
D03*
D126*
X600Y4400D02*
D03*
X850Y23500D02*
D03*
X40200Y11000D02*
D03*
Y23600D02*
D03*
D127*
X36521Y24810D02*
D03*
X31521D02*
D03*
X26550D02*
D03*
X21500D02*
D03*
X16521D02*
D03*
X11521D02*
D03*
X6521D02*
D03*
X1521D02*
D03*
X39485Y2910D02*
D03*
X34485D02*
D03*
X29485D02*
D03*
X24485D02*
D03*
X19485D02*
D03*
X14485D02*
D03*
X9485D02*
D03*
X4485D02*
D03*
D128*
X37521Y24810D02*
D03*
X38521D02*
D03*
X39521D02*
D03*
X32521D02*
D03*
X33521D02*
D03*
X34521D02*
D03*
X29550D02*
D03*
X28550D02*
D03*
X27550D02*
D03*
X24500D02*
D03*
X23500D02*
D03*
X22500D02*
D03*
X19521D02*
D03*
X18521D02*
D03*
X17521D02*
D03*
X14521D02*
D03*
X13521D02*
D03*
X12521D02*
D03*
X9521D02*
D03*
X8521D02*
D03*
X7521D02*
D03*
X4521D02*
D03*
X3521D02*
D03*
X2521D02*
D03*
X36485Y2910D02*
D03*
X37485D02*
D03*
X38485D02*
D03*
X31485D02*
D03*
X32485D02*
D03*
X33485D02*
D03*
X28485D02*
D03*
X27485D02*
D03*
X26485D02*
D03*
X23485D02*
D03*
X22485D02*
D03*
X21485D02*
D03*
X18485D02*
D03*
X17485D02*
D03*
X16485D02*
D03*
X13485D02*
D03*
X12485D02*
D03*
X11485D02*
D03*
X6485D02*
D03*
X7485D02*
D03*
X8485D02*
D03*
X1485D02*
D03*
X2485D02*
D03*
X3485D02*
D03*
D129*
X20250Y22600D02*
D03*
X21250D02*
D03*
X22250D02*
D03*
D130*
X23250D02*
D03*
D131*
X38300Y16350D02*
D03*
Y15560D02*
D03*
Y14770D02*
D03*
Y13980D02*
D03*
Y13190D02*
D03*
Y22200D02*
D03*
Y21410D02*
D03*
Y20620D02*
D03*
Y19830D02*
D03*
Y19040D02*
D03*
D132*
Y12400D02*
D03*
Y18250D02*
D03*
D133*
X23676Y14265D02*
D03*
Y13543D02*
D03*
X23315Y14626D02*
D03*
Y13904D02*
D03*
Y13182D02*
D03*
X22954Y14265D02*
D03*
Y13543D02*
D03*
X22592Y14626D02*
D03*
Y13904D02*
D03*
Y13182D02*
D03*
X22231Y14265D02*
D03*
Y13543D02*
D03*
D134*
X3785Y19260D02*
D03*
Y18260D02*
D03*
Y17260D02*
D03*
X1285D02*
D03*
Y18260D02*
D03*
D135*
X500Y11550D02*
D03*
Y14550D02*
D03*
Y15200D02*
D03*
Y15900D02*
D03*
D136*
X11700Y4650D02*
D03*
X17250D02*
D03*
D137*
X12700D02*
D03*
X13735D02*
D03*
X22250D02*
D03*
X14700D02*
D03*
X18250D02*
D03*
X19250D02*
D03*
X20250D02*
D03*
X21250D02*
D03*
D138*
X3306Y20398D02*
D03*
D139*
X4329Y21500D02*
D03*
X2400D02*
D03*
D140*
X35350Y11640D02*
D03*
X34850D02*
D03*
X34350D02*
D03*
X33850D02*
D03*
X33350D02*
D03*
X32850D02*
D03*
X32350D02*
D03*
X31850D02*
D03*
X35350Y15360D02*
D03*
X34850D02*
D03*
X34350D02*
D03*
X33850D02*
D03*
X33350D02*
D03*
X32850D02*
D03*
X32350D02*
D03*
X31850D02*
D03*
D141*
X15383Y12610D02*
D03*
X15127D02*
D03*
X14871D02*
D03*
X14615D02*
D03*
X14359D02*
D03*
X14103D02*
D03*
X13847D02*
D03*
X13591D02*
D03*
X13335D02*
D03*
X13080D02*
D03*
X12824D02*
D03*
X12568D02*
D03*
Y14870D02*
D03*
X12824D02*
D03*
X13080D02*
D03*
X13335D02*
D03*
X13591D02*
D03*
X13847D02*
D03*
X14103D02*
D03*
X14359D02*
D03*
X14615D02*
D03*
X14871D02*
D03*
X15127D02*
D03*
X15383D02*
D03*
D142*
X1850Y12500D02*
D03*
Y15200D02*
D03*
D143*
X31050Y8100D02*
D03*
Y7600D02*
D03*
Y7100D02*
D03*
Y6600D02*
D03*
Y6100D02*
D03*
Y5600D02*
D03*
Y5100D02*
D03*
Y4600D02*
D03*
X29010D02*
D03*
Y5100D02*
D03*
Y5600D02*
D03*
Y6100D02*
D03*
Y6600D02*
D03*
Y7100D02*
D03*
Y7600D02*
D03*
Y8100D02*
D03*
M02*
