G04*
G04 #@! TF.GenerationSoftware,Altium Limited,Altium Designer,20.2.6 (244)*
G04*
G04 Layer_Physical_Order=1*
G04 Layer_Color=255*
%FSLAX24Y24*%
%MOIN*%
G70*
G04*
G04 #@! TF.SameCoordinates,3AFE1146-FA95-4E81-A996-3AB7B898703E*
G04*
G04*
G04 #@! TF.FilePolarity,Positive*
G04*
G01*
G75*
%ADD10C,0.0079*%
%ADD16C,0.0236*%
%ADD25R,0.0354X0.0236*%
%ADD26R,0.0472X0.0276*%
%ADD27R,0.0472X0.0394*%
%ADD28R,0.0315X0.0394*%
%ADD29R,0.1102X0.0394*%
%ADD30R,0.0748X0.0512*%
%ADD31R,0.0236X0.0354*%
%ADD32R,0.0984X0.0787*%
%ADD33R,0.0906X0.0197*%
%ADD34R,0.0650X0.0600*%
%ADD35R,0.0354X0.0394*%
%ADD36R,0.0945X0.0394*%
%ADD37R,0.0945X0.1299*%
%ADD38R,0.0354X0.0315*%
%ADD39R,0.0550X0.0433*%
%ADD40R,0.0157X0.0591*%
%ADD41R,0.0140X0.0580*%
%ADD42R,0.0354X0.0787*%
%ADD43R,0.0787X0.0354*%
%ADD44R,0.0524X0.0524*%
%ADD45R,0.0591X0.0394*%
%ADD46R,0.0610X0.0512*%
%ADD47R,0.0394X0.0354*%
%ADD48R,0.0800X0.0700*%
%ADD49R,0.0550X0.0500*%
%ADD50R,0.0394X0.0945*%
%ADD51R,0.1299X0.0945*%
%ADD52R,0.0600X0.0650*%
%ADD53R,0.0315X0.0354*%
%ADD54O,0.0709X0.0236*%
%ADD55O,0.0276X0.0787*%
%ADD56R,0.0276X0.0787*%
%ADD57R,0.0354X0.0472*%
%ADD58R,0.0354X0.0472*%
%ADD59R,0.0374X0.0354*%
G04:AMPARAMS|DCode=60|XSize=177.2mil|YSize=82.7mil|CornerRadius=20.7mil|HoleSize=0mil|Usage=FLASHONLY|Rotation=90.000|XOffset=0mil|YOffset=0mil|HoleType=Round|Shape=RoundedRectangle|*
%AMROUNDEDRECTD60*
21,1,0.1772,0.0413,0,0,90.0*
21,1,0.1358,0.0827,0,0,90.0*
1,1,0.0413,0.0207,0.0679*
1,1,0.0413,0.0207,-0.0679*
1,1,0.0413,-0.0207,-0.0679*
1,1,0.0413,-0.0207,0.0679*
%
%ADD60ROUNDEDRECTD60*%
G04:AMPARAMS|DCode=61|XSize=90.2mil|YSize=83.5mil|CornerRadius=10.4mil|HoleSize=0mil|Usage=FLASHONLY|Rotation=0.000|XOffset=0mil|YOffset=0mil|HoleType=Round|Shape=RoundedRectangle|*
%AMROUNDEDRECTD61*
21,1,0.0902,0.0626,0,0,0.0*
21,1,0.0693,0.0835,0,0,0.0*
1,1,0.0209,0.0346,-0.0313*
1,1,0.0209,-0.0346,-0.0313*
1,1,0.0209,-0.0346,0.0313*
1,1,0.0209,0.0346,0.0313*
%
%ADD61ROUNDEDRECTD61*%
%ADD62R,0.0866X0.0236*%
%ADD63O,0.0217X0.0787*%
%ADD64R,0.0472X0.0315*%
%ADD65R,0.0500X0.0550*%
%ADD122C,0.0118*%
%ADD123C,0.0197*%
%ADD124C,0.0157*%
%ADD125C,0.0236*%
%ADD126C,0.1260*%
%ADD127R,0.0750X0.0900*%
%ADD128O,0.0750X0.0900*%
%ADD129C,0.0598*%
%ADD130R,0.0598X0.0598*%
%ADD131C,0.0515*%
%ADD132R,0.0515X0.0515*%
%ADD133C,0.0118*%
%ADD134O,0.0800X0.0700*%
%ADD135C,0.0394*%
%ADD136R,0.0600X0.0600*%
%ADD137C,0.0600*%
%ADD138O,0.0984X0.0787*%
%ADD139O,0.0787X0.0984*%
G36*
X40369Y27569D02*
Y24650D01*
X40379Y24600D01*
X40407Y24557D01*
X40919Y24046D01*
Y23922D01*
X40840Y23907D01*
X40819Y23957D01*
X40705Y24105D01*
X40557Y24219D01*
X40385Y24290D01*
X40200Y24315D01*
X40015Y24290D01*
X39843Y24219D01*
X39695Y24105D01*
X39581Y23957D01*
X39510Y23785D01*
X39485Y23600D01*
X39510Y23415D01*
X39581Y23243D01*
X39695Y23095D01*
X39843Y22981D01*
X40015Y22910D01*
X40200Y22885D01*
X40385Y22910D01*
X40557Y22981D01*
X40705Y23095D01*
X40819Y23243D01*
X40840Y23293D01*
X40919Y23278D01*
X40919Y11322D01*
X40840Y11307D01*
X40819Y11357D01*
X40705Y11505D01*
X40557Y11619D01*
X40385Y11690D01*
X40200Y11715D01*
X40015Y11690D01*
X39843Y11619D01*
X39695Y11505D01*
X39581Y11357D01*
X39510Y11185D01*
X39485Y11000D01*
X39510Y10815D01*
X39581Y10643D01*
X39695Y10495D01*
X39843Y10381D01*
X40015Y10310D01*
X40200Y10285D01*
X40385Y10310D01*
X40557Y10381D01*
X40705Y10495D01*
X40819Y10643D01*
X40841Y10697D01*
X40879Y10698D01*
X40922Y10685D01*
X40929Y10650D01*
X40957Y10607D01*
X40957Y10607D01*
X41169Y10396D01*
Y9385D01*
X41090Y9356D01*
X41038Y9378D01*
X40504D01*
X40443Y9353D01*
X40418Y9293D01*
Y8289D01*
X40443Y8229D01*
X40504Y8204D01*
X41038D01*
X41090Y8226D01*
X41169Y8197D01*
Y4004D01*
X40357Y3193D01*
X40329Y3150D01*
X40319Y3100D01*
Y2950D01*
Y81D01*
X631Y81D01*
Y3000D01*
X621Y3050D01*
X593Y3093D01*
X-33Y3719D01*
Y3932D01*
X45Y3959D01*
X95Y3895D01*
X243Y3781D01*
X415Y3710D01*
X600Y3685D01*
X785Y3710D01*
X957Y3781D01*
X1105Y3895D01*
X1219Y4043D01*
X1290Y4215D01*
X1315Y4400D01*
X1290Y4585D01*
X1219Y4757D01*
X1105Y4905D01*
X957Y5019D01*
X785Y5090D01*
X600Y5115D01*
X415Y5090D01*
X243Y5019D01*
X95Y4905D01*
X45Y4841D01*
X-33Y4868D01*
X-33Y23581D01*
X82Y23697D01*
X156Y23659D01*
X135Y23500D01*
X160Y23315D01*
X231Y23143D01*
X345Y22995D01*
X493Y22881D01*
X665Y22810D01*
X850Y22785D01*
X1035Y22810D01*
X1207Y22881D01*
X1355Y22995D01*
X1469Y23143D01*
X1540Y23315D01*
X1565Y23500D01*
X1540Y23685D01*
X1469Y23857D01*
X1355Y24005D01*
X1207Y24119D01*
X1035Y24190D01*
X850Y24215D01*
X691Y24194D01*
X659Y24236D01*
X648Y24264D01*
X671Y24300D01*
X681Y24350D01*
Y27569D01*
X40369Y27569D01*
D02*
G37*
%LPC*%
G36*
X39521Y25343D02*
X39403Y25327D01*
X39292Y25282D01*
X39198Y25209D01*
X39125Y25114D01*
X39079Y25004D01*
X39064Y24885D01*
Y24735D01*
X39079Y24617D01*
X39125Y24506D01*
X39198Y24412D01*
X39292Y24339D01*
X39403Y24293D01*
X39521Y24278D01*
X39640Y24293D01*
X39750Y24339D01*
X39845Y24412D01*
X39918Y24506D01*
X39963Y24617D01*
X39979Y24735D01*
Y24885D01*
X39963Y25004D01*
X39918Y25114D01*
X39845Y25209D01*
X39750Y25282D01*
X39640Y25327D01*
X39521Y25343D01*
D02*
G37*
G36*
X34521D02*
X34403Y25327D01*
X34292Y25282D01*
X34198Y25209D01*
X34125Y25114D01*
X34079Y25004D01*
X34064Y24885D01*
Y24735D01*
X34079Y24617D01*
X34125Y24506D01*
X34198Y24412D01*
X34292Y24339D01*
X34403Y24293D01*
X34521Y24278D01*
X34640Y24293D01*
X34750Y24339D01*
X34845Y24412D01*
X34918Y24506D01*
X34963Y24617D01*
X34979Y24735D01*
Y24885D01*
X34963Y25004D01*
X34918Y25114D01*
X34845Y25209D01*
X34750Y25282D01*
X34640Y25327D01*
X34521Y25343D01*
D02*
G37*
G36*
X19521D02*
X19403Y25327D01*
X19292Y25282D01*
X19198Y25209D01*
X19125Y25114D01*
X19079Y25004D01*
X19064Y24885D01*
Y24735D01*
X19079Y24617D01*
X19125Y24506D01*
X19198Y24412D01*
X19292Y24339D01*
X19403Y24293D01*
X19521Y24278D01*
X19640Y24293D01*
X19750Y24339D01*
X19845Y24412D01*
X19918Y24506D01*
X19963Y24617D01*
X19979Y24735D01*
Y24885D01*
X19963Y25004D01*
X19918Y25114D01*
X19845Y25209D01*
X19750Y25282D01*
X19640Y25327D01*
X19521Y25343D01*
D02*
G37*
G36*
X18521D02*
X18403Y25327D01*
X18292Y25282D01*
X18198Y25209D01*
X18125Y25114D01*
X18079Y25004D01*
X18064Y24885D01*
Y24735D01*
X18079Y24617D01*
X18125Y24506D01*
X18198Y24412D01*
X18292Y24339D01*
X18403Y24293D01*
X18521Y24278D01*
X18640Y24293D01*
X18750Y24339D01*
X18845Y24412D01*
X18918Y24506D01*
X18963Y24617D01*
X18979Y24735D01*
Y24885D01*
X18963Y25004D01*
X18918Y25114D01*
X18845Y25209D01*
X18750Y25282D01*
X18640Y25327D01*
X18521Y25343D01*
D02*
G37*
G36*
X14521D02*
X14403Y25327D01*
X14292Y25282D01*
X14198Y25209D01*
X14125Y25114D01*
X14079Y25004D01*
X14064Y24885D01*
Y24735D01*
X14079Y24617D01*
X14125Y24506D01*
X14198Y24412D01*
X14292Y24339D01*
X14403Y24293D01*
X14521Y24278D01*
X14640Y24293D01*
X14750Y24339D01*
X14845Y24412D01*
X14918Y24506D01*
X14963Y24617D01*
X14979Y24735D01*
Y24885D01*
X14963Y25004D01*
X14918Y25114D01*
X14845Y25209D01*
X14750Y25282D01*
X14640Y25327D01*
X14521Y25343D01*
D02*
G37*
G36*
X13521D02*
X13403Y25327D01*
X13292Y25282D01*
X13198Y25209D01*
X13125Y25114D01*
X13079Y25004D01*
X13064Y24885D01*
Y24735D01*
X13079Y24617D01*
X13125Y24506D01*
X13198Y24412D01*
X13292Y24339D01*
X13403Y24293D01*
X13521Y24278D01*
X13640Y24293D01*
X13750Y24339D01*
X13845Y24412D01*
X13918Y24506D01*
X13963Y24617D01*
X13979Y24735D01*
Y24885D01*
X13963Y25004D01*
X13918Y25114D01*
X13845Y25209D01*
X13750Y25282D01*
X13640Y25327D01*
X13521Y25343D01*
D02*
G37*
G36*
X9521D02*
X9403Y25327D01*
X9292Y25282D01*
X9198Y25209D01*
X9125Y25114D01*
X9079Y25004D01*
X9064Y24885D01*
Y24735D01*
X9079Y24617D01*
X9125Y24506D01*
X9198Y24412D01*
X9292Y24339D01*
X9403Y24293D01*
X9521Y24278D01*
X9640Y24293D01*
X9750Y24339D01*
X9845Y24412D01*
X9918Y24506D01*
X9963Y24617D01*
X9979Y24735D01*
Y24885D01*
X9963Y25004D01*
X9918Y25114D01*
X9845Y25209D01*
X9750Y25282D01*
X9640Y25327D01*
X9521Y25343D01*
D02*
G37*
G36*
X8521D02*
X8403Y25327D01*
X8292Y25282D01*
X8198Y25209D01*
X8125Y25114D01*
X8079Y25004D01*
X8064Y24885D01*
Y24735D01*
X8079Y24617D01*
X8125Y24506D01*
X8198Y24412D01*
X8292Y24339D01*
X8403Y24293D01*
X8521Y24278D01*
X8640Y24293D01*
X8750Y24339D01*
X8845Y24412D01*
X8918Y24506D01*
X8963Y24617D01*
X8979Y24735D01*
Y24885D01*
X8963Y25004D01*
X8918Y25114D01*
X8845Y25209D01*
X8750Y25282D01*
X8640Y25327D01*
X8521Y25343D01*
D02*
G37*
G36*
X4521D02*
X4403Y25327D01*
X4292Y25282D01*
X4198Y25209D01*
X4125Y25114D01*
X4079Y25004D01*
X4064Y24885D01*
Y24735D01*
X4079Y24617D01*
X4125Y24506D01*
X4198Y24412D01*
X4292Y24339D01*
X4403Y24293D01*
X4521Y24278D01*
X4640Y24293D01*
X4750Y24339D01*
X4845Y24412D01*
X4918Y24506D01*
X4963Y24617D01*
X4979Y24735D01*
Y24885D01*
X4963Y25004D01*
X4918Y25114D01*
X4845Y25209D01*
X4750Y25282D01*
X4640Y25327D01*
X4521Y25343D01*
D02*
G37*
G36*
X3521D02*
X3403Y25327D01*
X3292Y25282D01*
X3198Y25209D01*
X3125Y25114D01*
X3079Y25004D01*
X3064Y24885D01*
Y24735D01*
X3079Y24617D01*
X3125Y24506D01*
X3198Y24412D01*
X3292Y24339D01*
X3403Y24293D01*
X3521Y24278D01*
X3640Y24293D01*
X3750Y24339D01*
X3845Y24412D01*
X3918Y24506D01*
X3963Y24617D01*
X3979Y24735D01*
Y24885D01*
X3963Y25004D01*
X3918Y25114D01*
X3845Y25209D01*
X3750Y25282D01*
X3640Y25327D01*
X3521Y25343D01*
D02*
G37*
G36*
X29550D02*
X29432Y25327D01*
X29321Y25282D01*
X29226Y25209D01*
X29154Y25114D01*
X29108Y25004D01*
X29092Y24885D01*
Y24735D01*
X29108Y24617D01*
X29154Y24506D01*
X29226Y24412D01*
X29321Y24339D01*
X29376Y24316D01*
X29361Y24237D01*
X28785D01*
X28776Y24252D01*
X28779Y24339D01*
X28874Y24412D01*
X28946Y24506D01*
X28992Y24617D01*
X29008Y24735D01*
Y24885D01*
X28992Y25004D01*
X28946Y25114D01*
X28874Y25209D01*
X28779Y25282D01*
X28668Y25327D01*
X28550Y25343D01*
X28432Y25327D01*
X28321Y25282D01*
X28226Y25209D01*
X28154Y25114D01*
X28108Y25004D01*
X28092Y24885D01*
Y24735D01*
X28108Y24617D01*
X28154Y24506D01*
X28226Y24412D01*
X28321Y24339D01*
X28381Y24314D01*
Y24233D01*
X28391Y24179D01*
X28422Y24134D01*
X28442Y24113D01*
X28412Y24041D01*
X24515D01*
X24323Y24232D01*
X24368Y24299D01*
X24382Y24293D01*
X24500Y24278D01*
X24618Y24293D01*
X24729Y24339D01*
X24824Y24412D01*
X24896Y24506D01*
X24942Y24617D01*
X24958Y24735D01*
Y24885D01*
X24942Y25004D01*
X24896Y25114D01*
X24824Y25209D01*
X24729Y25282D01*
X24618Y25327D01*
X24500Y25343D01*
X24382Y25327D01*
X24271Y25282D01*
X24176Y25209D01*
X24104Y25114D01*
X24058Y25004D01*
X24042Y24885D01*
Y24735D01*
X24058Y24617D01*
X24064Y24603D01*
X23997Y24558D01*
X23941Y24614D01*
X23942Y24617D01*
X23958Y24735D01*
Y24885D01*
X23942Y25004D01*
X23896Y25114D01*
X23824Y25209D01*
X23729Y25282D01*
X23618Y25327D01*
X23500Y25343D01*
X23382Y25327D01*
X23271Y25282D01*
X23176Y25209D01*
X23104Y25114D01*
X23058Y25004D01*
X23042Y24885D01*
Y24735D01*
X23058Y24617D01*
X23104Y24506D01*
X23176Y24412D01*
X23271Y24339D01*
X23382Y24293D01*
X23500Y24278D01*
X23618Y24293D01*
X23729Y24339D01*
X23780Y24378D01*
X24357Y23801D01*
X24403Y23770D01*
X24456Y23760D01*
X29692D01*
X31057Y22395D01*
Y21565D01*
X30324D01*
Y21410D01*
X29990D01*
X29944Y21401D01*
X29905Y21375D01*
X29905Y21375D01*
X29350Y20820D01*
X24420D01*
X24398Y20816D01*
X24359Y20889D01*
X24640Y21169D01*
X25206D01*
Y21014D01*
X25954D01*
Y21561D01*
X25954Y21565D01*
X25966Y21639D01*
X28094D01*
X28395Y21338D01*
Y21014D01*
X29143D01*
Y21565D01*
X28622D01*
X28274Y21914D01*
X28222Y21948D01*
X28161Y21961D01*
X28161Y21961D01*
X13980D01*
X13980Y21961D01*
X13918Y21948D01*
X13866Y21914D01*
X13866Y21914D01*
X13518Y21565D01*
X12997D01*
Y21411D01*
X12754D01*
Y21429D01*
X11946D01*
Y20845D01*
X11718Y20616D01*
X11663Y20605D01*
X11597Y20562D01*
X11554Y20497D01*
X11539Y20420D01*
X11554Y20343D01*
X11597Y20278D01*
X11615Y20266D01*
Y20147D01*
X11537Y20093D01*
X11500Y20101D01*
X11423Y20085D01*
X11371Y20051D01*
X11277D01*
X11276Y20052D01*
X11211Y20096D01*
X11134Y20111D01*
X10661D01*
X10585Y20096D01*
X10519Y20052D01*
X10476Y19987D01*
X10461Y19910D01*
X10476Y19833D01*
X10519Y19768D01*
X10585Y19725D01*
X10661Y19710D01*
X10757D01*
Y19611D01*
X10661D01*
X10585Y19596D01*
X10519Y19552D01*
X10476Y19487D01*
X10461Y19410D01*
X10476Y19333D01*
X10519Y19268D01*
X10585Y19225D01*
X10661Y19210D01*
X11134D01*
X11211Y19225D01*
X11276Y19268D01*
X11319Y19333D01*
X11335Y19410D01*
X11319Y19487D01*
X11276Y19552D01*
X11211Y19596D01*
X11134Y19611D01*
X11038D01*
Y19710D01*
X11134D01*
X11211Y19725D01*
X11276Y19768D01*
X11276Y19769D01*
X11351D01*
X11358Y19758D01*
X11423Y19715D01*
X11500Y19699D01*
X11531Y19705D01*
X11609Y19649D01*
Y16965D01*
X11602Y16954D01*
X11589Y16892D01*
X11602Y16831D01*
X11636Y16779D01*
X11729Y16686D01*
X11729Y16686D01*
X11781Y16652D01*
X11842Y16639D01*
X15639D01*
Y15361D01*
X15327D01*
X15295Y15439D01*
X15418Y15563D01*
X15427Y15565D01*
X15492Y15608D01*
X15535Y15673D01*
X15551Y15750D01*
X15535Y15827D01*
X15492Y15892D01*
X15427Y15935D01*
X15350Y15951D01*
X15273Y15935D01*
X15208Y15892D01*
X15165Y15827D01*
X15163Y15818D01*
X15025Y15681D01*
X13015D01*
X12946Y15667D01*
X12902Y15638D01*
X12712Y15828D01*
X12656Y15865D01*
X12655Y15871D01*
X12669Y15944D01*
X12797D01*
Y16039D01*
X13021D01*
Y15846D01*
X13679D01*
Y16554D01*
X13021D01*
Y16361D01*
X12797D01*
Y16456D01*
X12403D01*
Y15959D01*
X12403Y15944D01*
X12366Y15881D01*
X12119D01*
X12082Y15944D01*
Y16456D01*
X11688D01*
Y16341D01*
X11471D01*
Y16476D01*
X10959D01*
Y16117D01*
X10956Y16102D01*
X10956Y16102D01*
Y15874D01*
X10908Y15842D01*
X10865Y15777D01*
X10849Y15700D01*
X10865Y15623D01*
X10908Y15558D01*
X10973Y15515D01*
X11050Y15499D01*
X11127Y15515D01*
X11192Y15558D01*
X11235Y15623D01*
X11251Y15700D01*
X11250Y15704D01*
X11265Y15726D01*
X11277Y15788D01*
X11277Y15788D01*
Y15924D01*
X11471D01*
Y16059D01*
X11688D01*
Y15944D01*
X11704D01*
Y15815D01*
X11718Y15746D01*
X11757Y15688D01*
X11873Y15572D01*
X11931Y15533D01*
X12000Y15519D01*
X12510D01*
X12719Y15310D01*
Y14440D01*
X12710Y14431D01*
X12463D01*
Y14432D01*
X12459Y14450D01*
Y14576D01*
X12387D01*
X12351Y14599D01*
X12282Y14613D01*
X12213Y14599D01*
X12178Y14576D01*
X11357D01*
Y14024D01*
X12459D01*
Y14069D01*
X12785D01*
X12854Y14083D01*
X12912Y14122D01*
X13028Y14238D01*
X13036Y14250D01*
X13114Y14226D01*
Y12961D01*
X12845D01*
X12459Y13346D01*
Y13670D01*
X11357D01*
Y13555D01*
X11104D01*
Y13829D01*
X10296D01*
Y13561D01*
X10167D01*
X9697Y14030D01*
X9701Y14050D01*
X9685Y14127D01*
X9642Y14192D01*
X9577Y14235D01*
X9500Y14251D01*
X9480Y14247D01*
X9043Y14684D01*
X9011Y14751D01*
X9011D01*
X9011Y14751D01*
Y15853D01*
X8460D01*
Y14751D01*
X8604D01*
X8650Y14689D01*
X8663Y14628D01*
X8697Y14576D01*
X9344Y13928D01*
X9358Y13908D01*
X9378Y13894D01*
X9986Y13286D01*
X10039Y13252D01*
X10100Y13239D01*
X10100Y13239D01*
X10296D01*
Y13071D01*
X11104D01*
Y13234D01*
X11357D01*
Y13119D01*
X12232D01*
X12592Y12759D01*
X12559Y12681D01*
X11212D01*
X11204Y12685D01*
X11128Y12701D01*
X11051Y12685D01*
X10986Y12642D01*
X10942Y12577D01*
X10927Y12500D01*
X10935Y12457D01*
X10885Y12378D01*
X10788D01*
X10788Y12378D01*
X10742Y12369D01*
X10703Y12343D01*
X10703Y12343D01*
X10631Y12270D01*
X9432D01*
X9432Y12270D01*
X9385Y12261D01*
X9346Y12235D01*
X9346Y12235D01*
X9300Y12189D01*
X9274Y12150D01*
X9265Y12104D01*
X9265Y12104D01*
Y11772D01*
X9130D01*
Y11378D01*
X9641D01*
Y11772D01*
X9506D01*
Y12030D01*
X9820D01*
X9882Y11989D01*
X9882Y11951D01*
Y11331D01*
X10589D01*
Y11540D01*
X10830D01*
Y11378D01*
X11341D01*
Y11772D01*
X11113D01*
X11070Y11781D01*
X10589D01*
X10589Y11989D01*
X10651Y12030D01*
X10681D01*
X10681Y12030D01*
X10727Y12039D01*
X10766Y12065D01*
X10838Y12137D01*
X12124D01*
X12154Y12064D01*
X11862Y11772D01*
X11680D01*
Y11378D01*
X12191D01*
Y11761D01*
X12410Y11980D01*
X17050D01*
X17380Y11650D01*
Y11496D01*
X17346Y11446D01*
X17331Y11369D01*
X17346Y11292D01*
X17389Y11227D01*
X17454Y11183D01*
X17531Y11168D01*
X17608Y11183D01*
X17673Y11227D01*
X17717Y11292D01*
X17732Y11369D01*
X17717Y11446D01*
X17715Y11448D01*
X17761Y11521D01*
X17785Y11518D01*
X17794Y11505D01*
X17859Y11461D01*
X17935Y11446D01*
X18012Y11461D01*
X18077Y11505D01*
X18081Y11510D01*
X18160Y11486D01*
Y10958D01*
X18092Y10891D01*
X17658D01*
X17562Y10987D01*
X17516Y11018D01*
X17462Y11028D01*
X17220D01*
X16999Y11250D01*
Y11720D01*
X16231D01*
Y11526D01*
X13869D01*
Y11720D01*
X13101D01*
Y11329D01*
X13009D01*
X12955Y11319D01*
X12909Y11288D01*
X12777Y11156D01*
X12424D01*
Y10644D01*
X12976D01*
Y10957D01*
X13067Y11048D01*
X13288D01*
X13302Y11051D01*
X13869D01*
Y11245D01*
X16231D01*
Y11051D01*
X16800D01*
X17063Y10788D01*
X17108Y10758D01*
X17162Y10747D01*
X17344D01*
Y10453D01*
X17856D01*
Y10610D01*
X18150D01*
X18204Y10620D01*
X18249Y10651D01*
X18399Y10801D01*
X18430Y10846D01*
X18441Y10900D01*
Y11541D01*
X18461Y11560D01*
X18540Y11525D01*
Y11004D01*
X18744D01*
X18777Y10926D01*
X18502Y10650D01*
X18500Y10651D01*
X18423Y10635D01*
X18358Y10592D01*
X18315Y10527D01*
X18299Y10450D01*
X18315Y10373D01*
X18358Y10308D01*
X18423Y10265D01*
X18500Y10249D01*
X18577Y10265D01*
X18642Y10308D01*
X18685Y10373D01*
X18701Y10450D01*
X18700Y10452D01*
X19049Y10801D01*
X19080Y10846D01*
X19090Y10900D01*
Y11004D01*
X19485D01*
Y11504D01*
Y12004D01*
Y12504D01*
Y13004D01*
Y13504D01*
Y14004D01*
Y14504D01*
Y15004D01*
Y15516D01*
X18540D01*
Y15004D01*
Y14504D01*
Y14004D01*
Y13504D01*
Y13004D01*
Y12504D01*
Y11901D01*
X18410D01*
X18356Y11890D01*
X18311Y11860D01*
X18201Y11749D01*
X18196Y11742D01*
X18181Y11738D01*
X18105Y11747D01*
X18077Y11788D01*
X18012Y11832D01*
X17935Y11847D01*
X17859Y11832D01*
X17817Y11804D01*
X17374Y12247D01*
X17404Y12319D01*
X17754D01*
X17798Y12290D01*
X17875Y12274D01*
X17952Y12290D01*
X18017Y12333D01*
X18060Y12398D01*
X18076Y12475D01*
X18060Y12552D01*
X18017Y12617D01*
X17952Y12660D01*
X17875Y12676D01*
X17875Y12676D01*
X17850Y12681D01*
X15887D01*
X15854Y12759D01*
X15874Y12779D01*
X15874Y12779D01*
X15908Y12831D01*
X15921Y12892D01*
Y13146D01*
X16139D01*
Y13954D01*
X15737D01*
X15702Y14032D01*
X15726Y14059D01*
X17707D01*
X17708Y14058D01*
X17773Y14015D01*
X17850Y13999D01*
X17927Y14015D01*
X17992Y14058D01*
X18035Y14123D01*
X18051Y14200D01*
X18035Y14277D01*
X18032Y14283D01*
X18079Y14353D01*
X18100Y14349D01*
X18177Y14365D01*
X18242Y14408D01*
X18285Y14473D01*
X18301Y14550D01*
X18285Y14627D01*
X18242Y14692D01*
X18177Y14735D01*
X18100Y14751D01*
X18023Y14735D01*
X17958Y14692D01*
X17957Y14691D01*
X15050D01*
X14996Y14680D01*
X14951Y14649D01*
X14851Y14549D01*
X14820Y14504D01*
X14743Y14519D01*
X14743Y15028D01*
X14817Y15039D01*
X15708D01*
X15708Y15039D01*
X15769Y15052D01*
X15821Y15086D01*
X15914Y15179D01*
X15914Y15179D01*
X15948Y15231D01*
X15961Y15292D01*
Y16708D01*
X15948Y16769D01*
X15914Y16821D01*
X15914Y16821D01*
X15821Y16914D01*
X15769Y16948D01*
X15708Y16961D01*
X15708Y16961D01*
X11909D01*
X11890Y16979D01*
Y19764D01*
X11896Y19794D01*
Y20301D01*
X11925Y20343D01*
X11940Y20420D01*
X11937Y20438D01*
X12151Y20653D01*
X12165Y20655D01*
X12189Y20671D01*
X12754D01*
Y21090D01*
X12997D01*
Y21014D01*
X13745D01*
Y21338D01*
X14046Y21639D01*
X14915D01*
X14926Y21565D01*
X14926Y21561D01*
Y21014D01*
X15674D01*
Y21169D01*
X16144D01*
Y21018D01*
X16656D01*
Y21412D01*
X16444D01*
X16400Y21420D01*
X16356Y21412D01*
X16144D01*
Y21410D01*
X15674D01*
Y21561D01*
X15674Y21565D01*
X15685Y21639D01*
X18148D01*
X18159Y21565D01*
X18159D01*
Y21014D01*
X18907D01*
Y21565D01*
X18907D01*
X18918Y21639D01*
X20077D01*
X20088Y21565D01*
X20088Y21561D01*
Y21184D01*
X19774Y20870D01*
X18400D01*
X18354Y20861D01*
X18315Y20835D01*
X18315Y20835D01*
X17722Y20243D01*
X17637Y20269D01*
X17635Y20277D01*
X17592Y20342D01*
X17527Y20385D01*
X17450Y20401D01*
X17373Y20385D01*
X17308Y20342D01*
X17270Y20284D01*
X16764D01*
X16656Y20393D01*
Y20697D01*
X16144D01*
Y20303D01*
X16332D01*
X16354Y20289D01*
X16400Y20280D01*
X16428D01*
X16629Y20079D01*
X16629Y20079D01*
X16668Y20053D01*
X16714Y20043D01*
X16714Y20043D01*
X17330D01*
X17373Y20015D01*
X17381Y20013D01*
X17407Y19928D01*
X17300Y19820D01*
X13849D01*
X13745Y19925D01*
Y20306D01*
X12997D01*
Y19754D01*
X13575D01*
X13714Y19615D01*
X13753Y19589D01*
X13799Y19580D01*
X17350D01*
X17350Y19580D01*
X17396Y19589D01*
X17435Y19615D01*
X18080Y20260D01*
X18159Y20227D01*
Y19754D01*
X18907D01*
Y20152D01*
X18920Y20165D01*
X18920Y20165D01*
X19185Y20430D01*
X23850D01*
X23850Y20430D01*
X23872Y20434D01*
X23911Y20361D01*
X23855Y20306D01*
X23277D01*
Y19754D01*
X24025D01*
Y20135D01*
X24470Y20580D01*
X29400D01*
X29400Y20580D01*
X29446Y20589D01*
X29485Y20615D01*
X30040Y21169D01*
X30324D01*
Y21014D01*
X31057D01*
Y19506D01*
X30978Y19483D01*
X30955Y19517D01*
X30890Y19560D01*
X30813Y19576D01*
X30736Y19560D01*
X30671Y19517D01*
X30628Y19452D01*
X30612Y19375D01*
X30613Y19373D01*
X30130Y18891D01*
X23883D01*
X23862Y18925D01*
X23849Y18969D01*
X23885Y19023D01*
X23901Y19100D01*
X23885Y19177D01*
X23842Y19242D01*
X23777Y19285D01*
X23700Y19301D01*
X23623Y19285D01*
X23558Y19242D01*
X23557Y19240D01*
X22293D01*
X22292Y19242D01*
X22227Y19285D01*
X22150Y19301D01*
X22073Y19285D01*
X22008Y19242D01*
X21965Y19177D01*
X21949Y19100D01*
X21965Y19023D01*
X22001Y18969D01*
X21988Y18925D01*
X21967Y18891D01*
X21250D01*
X21196Y18880D01*
X21151Y18849D01*
X19801Y17499D01*
X19770Y17454D01*
X19760Y17400D01*
Y17329D01*
X19547D01*
Y18294D01*
X19536Y18347D01*
X19506Y18393D01*
X19049Y18849D01*
X19004Y18880D01*
X18950Y18891D01*
X17580D01*
X17300Y19171D01*
X17254Y19201D01*
X17200Y19212D01*
X16999D01*
Y19406D01*
X16231D01*
Y19212D01*
X13869D01*
Y19406D01*
X13101D01*
Y18891D01*
X12954Y18744D01*
X12876Y18777D01*
Y18821D01*
X12324D01*
Y18309D01*
X12876D01*
Y18424D01*
X12974D01*
X13028Y18435D01*
X13059Y18420D01*
X13101Y18390D01*
X13115Y18323D01*
X13158Y18258D01*
X13223Y18215D01*
X13300Y18199D01*
X13377Y18215D01*
X13442Y18258D01*
X13443Y18260D01*
X16357D01*
X16358Y18258D01*
X16423Y18215D01*
X16500Y18199D01*
X16577Y18215D01*
X16642Y18258D01*
X16685Y18323D01*
X16701Y18400D01*
X16685Y18477D01*
X16642Y18542D01*
X16577Y18585D01*
X16500Y18601D01*
X16423Y18585D01*
X16358Y18542D01*
X16357Y18541D01*
X13443D01*
X13442Y18542D01*
X13377Y18585D01*
X13317Y18597D01*
X13292Y18645D01*
X13286Y18678D01*
X13338Y18731D01*
X13343Y18737D01*
X13869D01*
Y18931D01*
X16231D01*
Y18737D01*
X16999D01*
Y18931D01*
X17142D01*
X17344Y18729D01*
Y18453D01*
X17856D01*
Y18610D01*
X18892D01*
X19266Y18236D01*
Y17329D01*
X19150D01*
Y16384D01*
X24797D01*
Y16117D01*
X24776Y16102D01*
X24732Y16037D01*
X24717Y15960D01*
X24732Y15883D01*
X24776Y15818D01*
X24841Y15775D01*
X24918Y15760D01*
X24995Y15775D01*
X25060Y15818D01*
X25103Y15883D01*
X25119Y15960D01*
X25103Y16037D01*
X25060Y16102D01*
X25038Y16117D01*
Y16384D01*
X25662D01*
Y17329D01*
X25587D01*
Y17511D01*
X25615Y17553D01*
X25630Y17630D01*
X25615Y17707D01*
X25572Y17772D01*
X25507Y17815D01*
X25430Y17830D01*
X25353Y17815D01*
X25288Y17772D01*
X25244Y17707D01*
X25229Y17630D01*
X25230Y17626D01*
X25226Y17606D01*
Y17329D01*
X24572D01*
X24548Y17408D01*
X24548Y17408D01*
X24592Y17473D01*
X24607Y17550D01*
X24592Y17627D01*
X24548Y17692D01*
X24483Y17735D01*
X24406Y17751D01*
X24329Y17735D01*
X24264Y17692D01*
X24221Y17627D01*
X24206Y17550D01*
X24221Y17473D01*
X24264Y17408D01*
X24265Y17408D01*
X24241Y17329D01*
X22570D01*
Y17444D01*
X22592Y17458D01*
X22635Y17523D01*
X22651Y17600D01*
X22635Y17677D01*
X22592Y17742D01*
X22527Y17785D01*
X22450Y17801D01*
X22373Y17785D01*
X22308Y17742D01*
X22265Y17677D01*
X22249Y17600D01*
X22265Y17523D01*
X22308Y17458D01*
X22330Y17444D01*
Y17329D01*
X21547D01*
Y17598D01*
X21968Y18019D01*
X30602D01*
X30656Y18030D01*
X30702Y18060D01*
X30791Y18149D01*
X30819Y18143D01*
X30896Y18159D01*
X30961Y18202D01*
X30978Y18228D01*
X31057Y18204D01*
Y15522D01*
X31026Y15512D01*
X30978Y15509D01*
X30955Y15543D01*
X30831Y15667D01*
X30830Y15677D01*
X30786Y15742D01*
X30721Y15785D01*
X30644Y15801D01*
X30567Y15785D01*
X30539Y15767D01*
X30451Y15796D01*
X30445Y15818D01*
X30533Y15906D01*
X30577Y15915D01*
X30642Y15958D01*
X30685Y16023D01*
X30701Y16100D01*
X30685Y16177D01*
X30642Y16242D01*
X30577Y16285D01*
X30500Y16301D01*
X30423Y16285D01*
X30358Y16242D01*
X30315Y16177D01*
X30306Y16133D01*
X30136Y15964D01*
X30102Y15911D01*
X30089Y15850D01*
X30089Y15850D01*
Y14414D01*
X30065Y14377D01*
X30049Y14300D01*
X30065Y14223D01*
X30108Y14158D01*
X30173Y14115D01*
X30250Y14099D01*
X30327Y14115D01*
X30381Y14151D01*
X30425Y14138D01*
X30459Y14117D01*
Y9358D01*
X30061Y8960D01*
X25600D01*
X25562Y9038D01*
X25585Y9073D01*
X25601Y9150D01*
X25585Y9227D01*
X25542Y9292D01*
X25527Y9302D01*
Y9691D01*
X25662D01*
Y10636D01*
X25047D01*
Y11444D01*
X25036Y11497D01*
X25006Y11543D01*
X24799Y11749D01*
X24754Y11780D01*
X24700Y11790D01*
X23261D01*
X22553Y12498D01*
X22554Y12500D01*
X22538Y12577D01*
X22495Y12642D01*
X22430Y12685D01*
X22353Y12701D01*
X22276Y12685D01*
X22211Y12642D01*
X22168Y12577D01*
X22154Y12506D01*
X22129Y12491D01*
X22078Y12471D01*
X21621Y12927D01*
X21626Y12950D01*
X21610Y13027D01*
X21590Y13057D01*
Y13843D01*
X21610Y13873D01*
X21626Y13950D01*
X21610Y14027D01*
X21567Y14092D01*
X21502Y14135D01*
X21425Y14151D01*
X21348Y14135D01*
X21283Y14092D01*
X21240Y14027D01*
X21224Y13950D01*
X21240Y13873D01*
X21283Y13808D01*
X21309Y13790D01*
Y13110D01*
X21283Y13092D01*
X21240Y13027D01*
X21224Y12950D01*
X21240Y12873D01*
X21283Y12808D01*
X21348Y12765D01*
X21396Y12755D01*
X23266Y10886D01*
Y10636D01*
X19150D01*
Y10381D01*
X19079Y10337D01*
X19072Y10336D01*
X19000Y10351D01*
X18923Y10335D01*
X18858Y10292D01*
X18815Y10227D01*
X18799Y10150D01*
X18804Y10125D01*
X17900Y9220D01*
X17788D01*
X17741Y9299D01*
X17751Y9350D01*
X17735Y9427D01*
X17692Y9492D01*
X17691Y9493D01*
Y9738D01*
X17856D01*
Y10132D01*
X17344D01*
Y9738D01*
X17409D01*
Y9493D01*
X17408Y9492D01*
X17365Y9427D01*
X17349Y9350D01*
X17359Y9299D01*
X17312Y9220D01*
X16000D01*
X16000Y9220D01*
X15954Y9211D01*
X15915Y9185D01*
X15915Y9185D01*
X15504Y8775D01*
X13554D01*
X13508Y8766D01*
X13469Y8739D01*
X10714Y5984D01*
X10635Y5996D01*
Y5996D01*
X10156D01*
Y6301D01*
X10471Y6617D01*
X10471Y6617D01*
X10497Y6656D01*
X10507Y6702D01*
X10507Y6702D01*
Y6898D01*
X10497Y6944D01*
X10471Y6983D01*
X10370Y7084D01*
Y7318D01*
X10407Y7382D01*
X11364D01*
Y8109D01*
X11366Y8121D01*
Y8296D01*
X11550Y8480D01*
X11729D01*
Y8324D01*
X12241D01*
Y8876D01*
X12241D01*
Y8924D01*
X12241D01*
Y9476D01*
X11729D01*
Y9220D01*
X11396D01*
X11364Y9252D01*
Y9939D01*
X10407D01*
Y9252D01*
X10001Y8846D01*
X7951D01*
X7951Y8846D01*
X7945Y8844D01*
X7782D01*
X7729Y8923D01*
X7736Y8960D01*
X7721Y9037D01*
X7677Y9102D01*
X7656Y9117D01*
Y9193D01*
X7670Y9203D01*
X7712Y9265D01*
X7726Y9338D01*
Y9909D01*
X7712Y9982D01*
X7670Y10043D01*
X7608Y10085D01*
X7535Y10099D01*
X7462Y10085D01*
X7401Y10043D01*
X7359Y9982D01*
X7345Y9909D01*
Y9338D01*
X7359Y9265D01*
X7401Y9203D01*
X7415Y9193D01*
Y9117D01*
X7394Y9102D01*
X7350Y9037D01*
X7335Y8960D01*
X7278Y8898D01*
X7278Y8898D01*
X7229Y8973D01*
X7236Y9010D01*
X7221Y9087D01*
X7194Y9127D01*
X7170Y9203D01*
X7212Y9265D01*
X7226Y9338D01*
Y9909D01*
X7212Y9982D01*
X7170Y10043D01*
X7108Y10085D01*
X7035Y10099D01*
X6962Y10085D01*
X6901Y10043D01*
X6859Y9982D01*
X6845Y9909D01*
Y9338D01*
X6859Y9265D01*
X6901Y9203D01*
X6877Y9127D01*
X6850Y9087D01*
X6835Y9010D01*
X6846Y8954D01*
X6807Y8890D01*
X6795Y8877D01*
X6744Y8872D01*
X6656Y8960D01*
Y9193D01*
X6670Y9203D01*
X6712Y9265D01*
X6726Y9338D01*
Y9909D01*
X6712Y9982D01*
X6670Y10043D01*
X6608Y10085D01*
X6535Y10099D01*
X6462Y10085D01*
X6401Y10043D01*
X6359Y9982D01*
X6345Y9909D01*
Y9338D01*
X6359Y9265D01*
X6401Y9203D01*
X6415Y9193D01*
Y8962D01*
X6336Y8930D01*
X6156Y9110D01*
Y9193D01*
X6170Y9203D01*
X6212Y9265D01*
X6226Y9338D01*
Y9909D01*
X6212Y9982D01*
X6170Y10043D01*
X6108Y10085D01*
X6035Y10099D01*
X5962Y10085D01*
X5919Y10056D01*
X5855Y10079D01*
X5840Y10091D01*
Y10192D01*
X5958Y10309D01*
X6857D01*
X6858Y10308D01*
X6923Y10265D01*
X7000Y10249D01*
X7077Y10265D01*
X7125Y10297D01*
X7882D01*
Y10016D01*
X7859Y9982D01*
X7845Y9909D01*
Y9338D01*
X7859Y9265D01*
X7901Y9203D01*
X7962Y9162D01*
X8035Y9147D01*
X8108Y9162D01*
X8170Y9203D01*
X8212Y9265D01*
X8226Y9338D01*
Y9909D01*
X8212Y9982D01*
X8170Y10043D01*
X8163Y10048D01*
Y10368D01*
X8153Y10422D01*
X8122Y10468D01*
X8053Y10537D01*
X8007Y10567D01*
X7954Y10578D01*
X7876D01*
Y10664D01*
X7991D01*
Y11057D01*
X7480D01*
Y10664D01*
X7595D01*
Y10578D01*
X7151D01*
X7142Y10592D01*
X7077Y10635D01*
X7000Y10651D01*
X6923Y10635D01*
X6858Y10592D01*
X6857Y10590D01*
X5900D01*
X5846Y10580D01*
X5801Y10549D01*
X5601Y10349D01*
X5570Y10304D01*
X5560Y10250D01*
Y9100D01*
X5570Y9046D01*
X5601Y9001D01*
X5660Y8942D01*
Y8208D01*
X5601Y8149D01*
X5570Y8104D01*
X5560Y8050D01*
Y6208D01*
X5392Y6040D01*
X3550D01*
X3496Y6030D01*
X3451Y5999D01*
X3251Y5799D01*
X3220Y5754D01*
X3210Y5700D01*
Y4200D01*
X3220Y4146D01*
X3251Y4101D01*
X3501Y3851D01*
X3546Y3820D01*
X3600Y3810D01*
X5450D01*
X5504Y3820D01*
X5549Y3851D01*
X5727Y4028D01*
X5757Y4073D01*
X5768Y4127D01*
Y4469D01*
X5776Y4510D01*
X5765Y4564D01*
X5747Y4591D01*
Y4766D01*
X5353D01*
Y4254D01*
X5463D01*
X5477Y4176D01*
X5392Y4090D01*
X3658D01*
X3490Y4258D01*
Y5044D01*
X3513Y5114D01*
X3723D01*
X3793Y5060D01*
X3802Y5014D01*
X3828Y4975D01*
X3878Y4925D01*
X3878Y4925D01*
X3917Y4899D01*
X3963Y4890D01*
X3963Y4890D01*
X4650D01*
Y4766D01*
X4639D01*
Y4578D01*
X4624Y4556D01*
X4615Y4510D01*
X4624Y4464D01*
X4639Y4443D01*
Y4254D01*
X5032D01*
Y4766D01*
X4891D01*
Y4909D01*
X5629D01*
X5643Y4899D01*
X5689Y4890D01*
X6589D01*
X6589Y4890D01*
X6589Y4890D01*
X10360D01*
X10360Y4890D01*
X10406Y4899D01*
X10445Y4925D01*
X11035Y5515D01*
X11061Y5554D01*
X11070Y5600D01*
X11070Y5600D01*
Y5777D01*
X12924Y7631D01*
X12993Y7602D01*
X12996Y7528D01*
X12991Y7525D01*
X12991Y7525D01*
X12489Y7023D01*
X12445Y7014D01*
X12380Y6970D01*
X12336Y6905D01*
X12321Y6828D01*
X12336Y6752D01*
X12380Y6686D01*
X12445Y6643D01*
X12522Y6628D01*
X12598Y6643D01*
X12664Y6686D01*
X12707Y6752D01*
X12716Y6795D01*
X13172Y7251D01*
X13253D01*
X13253Y7251D01*
X13268Y7254D01*
X13745D01*
Y7578D01*
X14306Y8139D01*
X16569D01*
X16611Y8061D01*
X16606Y8033D01*
X16263Y7690D01*
X15674D01*
Y7806D01*
X14926D01*
Y7254D01*
X15674D01*
Y7369D01*
X16330D01*
X16330Y7369D01*
X16391Y7382D01*
X16443Y7416D01*
X16833Y7806D01*
X16877Y7815D01*
X16942Y7858D01*
X16985Y7923D01*
X17001Y8000D01*
X16989Y8061D01*
X17031Y8139D01*
X18373D01*
Y7806D01*
X18159D01*
Y7254D01*
X18907D01*
Y7806D01*
X18694D01*
Y8139D01*
X23491D01*
Y7806D01*
X23277D01*
Y7254D01*
X24025D01*
Y7806D01*
X23812D01*
Y8139D01*
X27834D01*
X28395Y7578D01*
Y7254D01*
X29143D01*
Y7806D01*
X28622D01*
X28091Y8337D01*
X28121Y8410D01*
X30128D01*
X30182Y8420D01*
X30228Y8451D01*
X30955Y9178D01*
X30986Y9224D01*
X30996Y9278D01*
Y12748D01*
X31027Y12759D01*
X31075Y12761D01*
X31098Y12727D01*
X32518Y11308D01*
X32485Y11229D01*
X31577D01*
Y10491D01*
X31615D01*
Y5116D01*
X31537Y5084D01*
X31385Y5235D01*
X31346Y5261D01*
X31300Y5270D01*
X31300Y5270D01*
X26960D01*
X26916Y5342D01*
X26916Y5349D01*
X26930Y5421D01*
X26927Y5435D01*
X26994Y5502D01*
X27000Y5500D01*
X27077Y5516D01*
X27142Y5559D01*
X27185Y5624D01*
X27201Y5701D01*
X27185Y5778D01*
X27142Y5843D01*
X27077Y5887D01*
X27000Y5902D01*
X26923Y5887D01*
X26920Y5887D01*
X26845Y5929D01*
X26835Y5977D01*
X26792Y6042D01*
X26727Y6085D01*
X26650Y6101D01*
X26573Y6085D01*
X26508Y6042D01*
X26494Y6020D01*
X24025D01*
Y6150D01*
X24714D01*
X24714Y6150D01*
X24760Y6159D01*
X24799Y6185D01*
X25393Y6780D01*
X29970D01*
X29970Y6780D01*
X30016Y6789D01*
X30055Y6815D01*
X30495Y7254D01*
X31072D01*
Y7806D01*
X30324D01*
Y7425D01*
X29920Y7020D01*
X25344D01*
X25343Y7020D01*
X25297Y7011D01*
X25258Y6985D01*
X24664Y6391D01*
X24025D01*
Y6546D01*
X23277D01*
Y6020D01*
X22450D01*
X22296Y6175D01*
X22301Y6200D01*
X22285Y6277D01*
X22242Y6342D01*
X22177Y6385D01*
X22100Y6401D01*
X22023Y6385D01*
X21958Y6342D01*
X21944Y6320D01*
X21900D01*
X21900Y6320D01*
X21854Y6311D01*
X21815Y6285D01*
X20481Y4951D01*
X20398Y5007D01*
X20250Y5036D01*
X20102Y5007D01*
X19977Y4923D01*
X19893Y4798D01*
X19864Y4650D01*
X19893Y4502D01*
X19977Y4377D01*
X20102Y4293D01*
X20250Y4264D01*
X20398Y4293D01*
X20523Y4377D01*
X20607Y4502D01*
X20636Y4650D01*
X20617Y4747D01*
X21067Y5196D01*
X21135Y5153D01*
X21130Y5127D01*
X21130Y5127D01*
Y5012D01*
X21102Y5007D01*
X20977Y4923D01*
X20893Y4798D01*
X20864Y4650D01*
X20893Y4502D01*
X20977Y4377D01*
X21102Y4293D01*
X21250Y4264D01*
X21398Y4293D01*
X21523Y4377D01*
X21607Y4502D01*
X21636Y4650D01*
X21607Y4798D01*
X21523Y4923D01*
X21398Y5007D01*
X21393Y5008D01*
X21382Y5089D01*
X21623Y5330D01*
X24700D01*
X24854Y5175D01*
X24849Y5150D01*
X24865Y5073D01*
X24908Y5008D01*
X24973Y4965D01*
X25050Y4949D01*
X25127Y4965D01*
X25192Y5008D01*
X25206Y5030D01*
X31250D01*
X31380Y4900D01*
Y4309D01*
X31358Y4295D01*
X31315Y4230D01*
X31299Y4153D01*
X31315Y4076D01*
X31358Y4011D01*
X31333Y3933D01*
X22740D01*
X22686Y3922D01*
X22641Y3891D01*
X22386Y3637D01*
X22356Y3591D01*
X22345Y3537D01*
Y3418D01*
X22257Y3382D01*
X22162Y3309D01*
X22089Y3214D01*
X22043Y3104D01*
X22028Y2985D01*
Y2835D01*
X22043Y2717D01*
X22089Y2606D01*
X22162Y2512D01*
X22257Y2439D01*
X22367Y2393D01*
X22485Y2378D01*
X22604Y2393D01*
X22714Y2439D01*
X22809Y2512D01*
X22882Y2606D01*
X22927Y2717D01*
X22943Y2835D01*
Y2985D01*
X22927Y3104D01*
X22882Y3214D01*
X22809Y3309D01*
X22714Y3382D01*
X22647Y3409D01*
X22638Y3491D01*
X22798Y3652D01*
X27850D01*
X27880Y3579D01*
X27692Y3391D01*
X27604Y3427D01*
X27485Y3443D01*
X27367Y3427D01*
X27257Y3382D01*
X27162Y3309D01*
X27089Y3214D01*
X27043Y3104D01*
X27028Y2985D01*
Y2835D01*
X27043Y2717D01*
X27089Y2606D01*
X27162Y2512D01*
X27257Y2439D01*
X27367Y2393D01*
X27485Y2378D01*
X27604Y2393D01*
X27714Y2439D01*
X27809Y2512D01*
X27882Y2606D01*
X27927Y2717D01*
X27943Y2835D01*
Y2985D01*
X27927Y3104D01*
X27891Y3192D01*
X28148Y3449D01*
X28957D01*
X29032Y3439D01*
X29032Y3371D01*
Y2382D01*
X29285D01*
Y1751D01*
X24686D01*
Y2382D01*
X24939D01*
Y3439D01*
X24032D01*
Y2382D01*
X24285D01*
Y1751D01*
X19686D01*
Y2382D01*
X19939D01*
Y3439D01*
X19032D01*
Y2382D01*
X19285D01*
Y1751D01*
X14686D01*
Y2382D01*
X14939D01*
Y3439D01*
X14032D01*
Y2382D01*
X14285D01*
Y1751D01*
X9686D01*
Y2382D01*
X9939D01*
Y3439D01*
X9032D01*
Y2382D01*
X9285D01*
Y1751D01*
X4707D01*
X4686Y1772D01*
Y2382D01*
X4939D01*
Y3439D01*
X4032D01*
Y2382D01*
X4285D01*
Y1688D01*
X4300Y1612D01*
X4344Y1546D01*
X4482Y1408D01*
X4547Y1365D01*
X4624Y1349D01*
X39200D01*
X39277Y1365D01*
X39342Y1408D01*
X39627Y1694D01*
X39671Y1759D01*
X39686Y1835D01*
Y2382D01*
X39939D01*
Y3439D01*
X39032D01*
Y2382D01*
X39285D01*
Y1919D01*
X39117Y1751D01*
X34686D01*
Y2382D01*
X34939D01*
Y3439D01*
X34032D01*
Y2382D01*
X34285D01*
Y1751D01*
X29686D01*
Y2382D01*
X29939D01*
Y3371D01*
X29939Y3439D01*
X30014Y3449D01*
X31221D01*
X31232Y3429D01*
X31242Y3371D01*
X31162Y3309D01*
X31089Y3214D01*
X31043Y3104D01*
X31028Y2985D01*
Y2835D01*
X31043Y2717D01*
X31089Y2606D01*
X31162Y2512D01*
X31257Y2439D01*
X31367Y2393D01*
X31485Y2378D01*
X31604Y2393D01*
X31714Y2439D01*
X31809Y2512D01*
X31882Y2606D01*
X31927Y2717D01*
X31943Y2835D01*
Y2985D01*
X31927Y3104D01*
X31882Y3214D01*
X31809Y3309D01*
X31729Y3371D01*
X31739Y3429D01*
X31749Y3449D01*
X31790D01*
X31844Y3460D01*
X31889Y3490D01*
X32075Y3676D01*
X32105Y3722D01*
X32116Y3775D01*
Y4554D01*
X32195Y4587D01*
X32345Y4437D01*
Y3418D01*
X32257Y3382D01*
X32162Y3309D01*
X32089Y3214D01*
X32043Y3104D01*
X32028Y2985D01*
Y2835D01*
X32043Y2717D01*
X32089Y2606D01*
X32162Y2512D01*
X32257Y2439D01*
X32367Y2393D01*
X32485Y2378D01*
X32604Y2393D01*
X32714Y2439D01*
X32809Y2512D01*
X32882Y2606D01*
X32927Y2717D01*
X32943Y2835D01*
Y2985D01*
X32927Y3104D01*
X32882Y3214D01*
X32809Y3309D01*
X32714Y3382D01*
X32626Y3418D01*
Y4331D01*
X32699Y4361D01*
X33259Y3801D01*
X33305Y3770D01*
X33359Y3760D01*
X37065D01*
X37333Y3491D01*
X37324Y3409D01*
X37257Y3382D01*
X37162Y3309D01*
X37089Y3214D01*
X37043Y3104D01*
X37028Y2985D01*
Y2835D01*
X37043Y2717D01*
X37089Y2606D01*
X37162Y2512D01*
X37257Y2439D01*
X37367Y2393D01*
X37485Y2378D01*
X37604Y2393D01*
X37714Y2439D01*
X37809Y2512D01*
X37882Y2606D01*
X37927Y2717D01*
X37943Y2835D01*
Y2985D01*
X37927Y3104D01*
X37882Y3214D01*
X37809Y3309D01*
X37714Y3382D01*
X37626Y3418D01*
Y3537D01*
X37615Y3591D01*
X37585Y3637D01*
X37222Y3999D01*
X37177Y4030D01*
X37123Y4040D01*
X33417D01*
X32626Y4831D01*
Y10491D01*
X33664D01*
Y11229D01*
X33645D01*
Y12266D01*
X33679Y12317D01*
X33695Y12394D01*
X33679Y12471D01*
X33636Y12536D01*
X33571Y12579D01*
X33494Y12595D01*
X33417Y12579D01*
X33352Y12536D01*
X33346Y12527D01*
X33252D01*
X33242Y12542D01*
X33177Y12585D01*
X33100Y12601D01*
X33023Y12585D01*
X32958Y12542D01*
X32915Y12477D01*
X32899Y12400D01*
X32915Y12323D01*
X32958Y12258D01*
X33023Y12215D01*
X33040Y12211D01*
X33115Y12136D01*
Y11498D01*
X33036Y11465D01*
X32284Y12217D01*
X32284Y12217D01*
X31535Y12967D01*
Y21972D01*
X31613Y21979D01*
X31615Y21973D01*
X31658Y21908D01*
X31723Y21865D01*
X31800Y21849D01*
X31877Y21865D01*
X31884Y21869D01*
X33439D01*
X33508Y21883D01*
X33547Y21909D01*
X33577Y21915D01*
X33642Y21958D01*
X33685Y22023D01*
X33701Y22100D01*
X33685Y22177D01*
X33642Y22242D01*
X33577Y22285D01*
X33500Y22301D01*
X33423Y22285D01*
X33358Y22242D01*
X33351Y22231D01*
X31884D01*
X31877Y22235D01*
X31800Y22251D01*
X31723Y22235D01*
X31658Y22192D01*
X31615Y22127D01*
X31613Y22121D01*
X31535Y22128D01*
Y22534D01*
X31524Y22588D01*
X31493Y22634D01*
X29931Y24196D01*
X29885Y24227D01*
X29832Y24237D01*
X29739D01*
X29724Y24316D01*
X29779Y24339D01*
X29874Y24412D01*
X29946Y24506D01*
X29992Y24617D01*
X30008Y24735D01*
Y24885D01*
X29992Y25004D01*
X29946Y25114D01*
X29874Y25209D01*
X29779Y25282D01*
X29668Y25327D01*
X29550Y25343D01*
D02*
G37*
G36*
X22882Y23906D02*
X22488D01*
Y23791D01*
X22193D01*
X22192Y23792D01*
X22127Y23835D01*
X22050Y23851D01*
X21973Y23835D01*
X21908Y23792D01*
X21865Y23727D01*
X21849Y23650D01*
X21865Y23573D01*
X21908Y23508D01*
X21973Y23465D01*
X22050Y23449D01*
X22127Y23465D01*
X22192Y23508D01*
X22193Y23510D01*
X22488D01*
Y23394D01*
X22882D01*
Y23906D01*
D02*
G37*
G36*
X23597Y23906D02*
X23203D01*
Y23394D01*
X23360D01*
Y23208D01*
X23151Y22999D01*
X23136Y22978D01*
X22872D01*
Y22222D01*
X23628D01*
Y22978D01*
X23628D01*
X23606Y23047D01*
X23603Y23057D01*
X23630Y23096D01*
X23641Y23150D01*
Y23650D01*
X23630Y23704D01*
X23599Y23749D01*
X23597Y23751D01*
Y23906D01*
D02*
G37*
G36*
X21397D02*
X21003D01*
Y23394D01*
X21279D01*
X21907Y22766D01*
X21894Y22747D01*
X21865Y22600D01*
X21894Y22453D01*
X21978Y22328D01*
X22103Y22244D01*
X22250Y22215D01*
X22397Y22244D01*
X22522Y22328D01*
X22606Y22453D01*
X22635Y22600D01*
X22606Y22747D01*
X22522Y22872D01*
X22397Y22956D01*
X22250Y22985D01*
X22113Y22958D01*
X21441Y23630D01*
Y23650D01*
X21430Y23704D01*
X21399Y23749D01*
X21397Y23751D01*
Y23906D01*
D02*
G37*
G36*
X20682Y23906D02*
X20288D01*
Y23737D01*
X20163Y23612D01*
X20132Y23566D01*
X20122Y23512D01*
Y22960D01*
X20103Y22956D01*
X19978Y22872D01*
X19894Y22747D01*
X19865Y22600D01*
X19894Y22453D01*
X19978Y22328D01*
X20103Y22244D01*
X20250Y22215D01*
X20397Y22244D01*
X20522Y22328D01*
X20606Y22453D01*
X20635Y22600D01*
X20606Y22747D01*
X20522Y22872D01*
X20403Y22953D01*
Y23394D01*
X20682D01*
Y23906D01*
D02*
G37*
G36*
X38300Y22542D02*
X38169Y22516D01*
X38058Y22442D01*
X37983Y22331D01*
X37957Y22200D01*
X37981Y22079D01*
X36436Y20535D01*
X32045D01*
X32036Y20548D01*
X31971Y20591D01*
X31894Y20607D01*
X31817Y20591D01*
X31752Y20548D01*
X31709Y20483D01*
X31693Y20406D01*
X31709Y20329D01*
X31752Y20264D01*
X31773Y20250D01*
Y20156D01*
X31752Y20142D01*
X31709Y20077D01*
X31693Y20000D01*
X31709Y19923D01*
X31752Y19858D01*
X31816Y19815D01*
X31817Y19808D01*
Y19742D01*
X31816Y19735D01*
X31752Y19692D01*
X31709Y19627D01*
X31693Y19550D01*
X31709Y19473D01*
X31752Y19408D01*
X31768Y19397D01*
Y19303D01*
X31752Y19292D01*
X31709Y19227D01*
X31693Y19150D01*
X31709Y19073D01*
X31752Y19008D01*
X31817Y18965D01*
X31894Y18949D01*
X31965Y18963D01*
X31974Y18962D01*
X32043Y18918D01*
Y18511D01*
X31770D01*
Y17763D01*
X32341D01*
Y18511D01*
X32324D01*
Y19026D01*
X32692Y19393D01*
X33623D01*
X33624Y19392D01*
X33689Y19348D01*
X33727Y19341D01*
X33731Y19339D01*
X33759Y19257D01*
X33642Y19140D01*
X33382D01*
X33329Y19130D01*
X33283Y19099D01*
X32852Y18669D01*
X32822Y18623D01*
X32811Y18569D01*
Y18511D01*
X32794D01*
Y17763D01*
X33877D01*
Y18511D01*
X33690D01*
X33657Y18590D01*
X33730Y18663D01*
X34003D01*
X34057Y18673D01*
X34102Y18704D01*
X34248Y18850D01*
X34250Y18849D01*
X34275Y18854D01*
X34341Y18795D01*
X34344Y18788D01*
X34350Y18756D01*
X34347Y18737D01*
Y18511D01*
X34330D01*
Y17763D01*
X34900D01*
Y18511D01*
X34627D01*
Y18613D01*
X34685Y18652D01*
X34729Y18717D01*
X34744Y18793D01*
X34729Y18870D01*
X34685Y18935D01*
X34620Y18979D01*
X34543Y18994D01*
X34519Y18989D01*
X34451Y19050D01*
X34435Y19127D01*
X34392Y19192D01*
X34327Y19235D01*
X34270Y19247D01*
X34229Y19279D01*
X34197Y19320D01*
X34185Y19377D01*
X34142Y19442D01*
X34077Y19485D01*
X34039Y19493D01*
X34004Y19513D01*
X33981Y19584D01*
X34028Y19649D01*
X36702D01*
X36937Y19414D01*
Y16972D01*
X36948Y16918D01*
X36978Y16873D01*
X38054Y15797D01*
X37983Y15691D01*
X37957Y15560D01*
X37983Y15429D01*
X38058Y15318D01*
X38169Y15244D01*
X38300Y15217D01*
X38431Y15244D01*
X38542Y15318D01*
X38617Y15429D01*
X38643Y15560D01*
X38617Y15691D01*
X38542Y15803D01*
X38431Y15877D01*
X38377Y15888D01*
X38343Y15942D01*
X38375Y16022D01*
X38431Y16033D01*
X38542Y16108D01*
X38617Y16219D01*
X38643Y16350D01*
X38617Y16481D01*
X38542Y16592D01*
X38431Y16667D01*
X38300Y16693D01*
X38169Y16667D01*
X38058Y16592D01*
X38052Y16583D01*
X37973Y16576D01*
X37415Y17134D01*
Y18771D01*
X37444Y18790D01*
X37494Y18801D01*
X37964Y18331D01*
Y17914D01*
X38636D01*
Y18586D01*
X38219D01*
X38161Y18644D01*
X38200Y18717D01*
X38300Y18697D01*
X38431Y18723D01*
X38542Y18797D01*
X38617Y18909D01*
X38643Y19040D01*
X38617Y19171D01*
X38542Y19282D01*
X38431Y19356D01*
X38300Y19383D01*
X38169Y19356D01*
X38058Y19282D01*
X37983Y19171D01*
X37957Y19040D01*
X37977Y18940D01*
X37905Y18901D01*
X37790Y19016D01*
Y20007D01*
X37795Y20015D01*
X37810Y20092D01*
X37795Y20169D01*
X37752Y20234D01*
X37686Y20278D01*
X37610Y20293D01*
X37533Y20278D01*
X37468Y20234D01*
X37424Y20169D01*
X37409Y20092D01*
X37424Y20015D01*
X37428Y20009D01*
Y19732D01*
X37350Y19699D01*
X37072Y19976D01*
X37106Y20054D01*
X37134Y20060D01*
X37179Y20090D01*
X38180Y21091D01*
X38300Y21067D01*
X38431Y21093D01*
X38542Y21167D01*
X38617Y21279D01*
X38643Y21410D01*
X38617Y21541D01*
X38542Y21652D01*
X38431Y21727D01*
X38300Y21753D01*
X38169Y21727D01*
X38112Y21689D01*
X38087Y21699D01*
X38041Y21736D01*
X38042Y21743D01*
X38180Y21881D01*
X38300Y21857D01*
X38431Y21883D01*
X38542Y21957D01*
X38617Y22068D01*
X38643Y22200D01*
X38617Y22331D01*
X38542Y22442D01*
X38431Y22516D01*
X38300Y22542D01*
D02*
G37*
G36*
X36383Y26251D02*
X1700D01*
X1623Y26235D01*
X1558Y26192D01*
X1379Y26013D01*
X1336Y25948D01*
X1321Y25871D01*
Y25339D01*
X1067D01*
Y24281D01*
X1975D01*
Y25339D01*
X1722D01*
Y25788D01*
X1783Y25849D01*
X6321D01*
Y25339D01*
X6068D01*
Y24281D01*
X6975D01*
Y25339D01*
X6722D01*
Y25849D01*
X11321D01*
Y25339D01*
X11067D01*
Y24281D01*
X11463D01*
Y23277D01*
X11419Y23255D01*
X11385Y23247D01*
X11327Y23285D01*
X11250Y23301D01*
X11173Y23285D01*
X11108Y23242D01*
X11065Y23177D01*
X11049Y23100D01*
X11065Y23023D01*
X11068Y23018D01*
X11029Y22939D01*
X11014D01*
Y22427D01*
X11463D01*
Y22112D01*
X11388D01*
Y21600D01*
X11860D01*
Y22112D01*
X11785D01*
Y22268D01*
X11981D01*
Y21996D01*
X12739D01*
Y22804D01*
X11981D01*
Y22589D01*
X11785D01*
Y24281D01*
X11975D01*
Y25339D01*
X11722D01*
Y25849D01*
X16321D01*
Y25339D01*
X16067D01*
Y24281D01*
X16975D01*
Y25339D01*
X16722D01*
Y25849D01*
X21321D01*
Y25339D01*
X21046D01*
Y24281D01*
X21954D01*
Y25339D01*
X21722D01*
Y25849D01*
X26285D01*
Y25339D01*
X26096D01*
Y24281D01*
X27004D01*
Y25339D01*
X26686D01*
Y25849D01*
X31249D01*
Y25339D01*
X31067D01*
Y24281D01*
X31975D01*
Y25339D01*
X31651D01*
Y25849D01*
X36300D01*
X36321Y25828D01*
Y25339D01*
X36067D01*
Y24281D01*
X36341D01*
Y23979D01*
X36354Y23910D01*
X36394Y23851D01*
X36851Y23394D01*
X36910Y23354D01*
X36979Y23341D01*
X37821D01*
X37833Y23343D01*
X37872Y23270D01*
X36092Y21490D01*
X34303D01*
X34267Y21569D01*
X34280Y21588D01*
X34290Y21642D01*
Y23500D01*
X34280Y23554D01*
X34249Y23599D01*
X33662Y24187D01*
Y24302D01*
X33750Y24339D01*
X33845Y24412D01*
X33918Y24506D01*
X33963Y24617D01*
X33979Y24735D01*
Y24885D01*
X33963Y25004D01*
X33918Y25114D01*
X33845Y25209D01*
X33750Y25282D01*
X33640Y25327D01*
X33521Y25343D01*
X33403Y25327D01*
X33292Y25282D01*
X33198Y25209D01*
X33125Y25114D01*
X33079Y25004D01*
X33064Y24885D01*
Y24735D01*
X33079Y24617D01*
X33125Y24506D01*
X33198Y24412D01*
X33292Y24339D01*
X33381Y24302D01*
Y24129D01*
X33391Y24075D01*
X33422Y24029D01*
X34009Y23442D01*
Y21713D01*
X32210D01*
X32177Y21735D01*
X32100Y21751D01*
X32023Y21735D01*
X31958Y21692D01*
X31915Y21627D01*
X31899Y21550D01*
X31915Y21473D01*
X31958Y21408D01*
X31974Y21397D01*
Y21303D01*
X31958Y21292D01*
X31915Y21227D01*
X31899Y21150D01*
X31915Y21073D01*
X31958Y21008D01*
X32023Y20965D01*
X32100Y20949D01*
X32177Y20965D01*
X32242Y21008D01*
X32285Y21073D01*
X32294Y21117D01*
X32386Y21209D01*
X36150D01*
X36204Y21220D01*
X36249Y21251D01*
X38621Y23622D01*
X38651Y23667D01*
X38662Y23721D01*
Y24302D01*
X38750Y24339D01*
X38845Y24412D01*
X38918Y24506D01*
X38963Y24617D01*
X38979Y24735D01*
Y24885D01*
X38963Y25004D01*
X38918Y25114D01*
X38845Y25209D01*
X38750Y25282D01*
X38640Y25327D01*
X38521Y25343D01*
X38403Y25327D01*
X38292Y25282D01*
X38198Y25209D01*
X38125Y25114D01*
X38079Y25004D01*
X38064Y24885D01*
Y24735D01*
X38079Y24617D01*
X38125Y24506D01*
X38198Y24412D01*
X38292Y24339D01*
X38381Y24302D01*
Y23779D01*
X38126Y23525D01*
X38080Y23540D01*
X38049Y23559D01*
X38035Y23627D01*
X37992Y23692D01*
X37927Y23735D01*
X37850Y23751D01*
X37773Y23735D01*
X37723Y23702D01*
X37054D01*
X36702Y24054D01*
Y24281D01*
X36975D01*
Y25339D01*
X36722D01*
Y25912D01*
X36707Y25988D01*
X36663Y26054D01*
X36525Y26192D01*
X36460Y26235D01*
X36383Y26251D01*
D02*
G37*
G36*
X4262Y22861D02*
X1688D01*
X1612Y22846D01*
X1546Y22802D01*
X1408Y22664D01*
X1365Y22599D01*
X1349Y22522D01*
Y21146D01*
X1365Y21069D01*
X1408Y21004D01*
X2435Y19977D01*
Y18482D01*
X2414Y18461D01*
X1716D01*
X1710Y18476D01*
X1641Y18566D01*
X1552Y18635D01*
X1447Y18678D01*
X1335Y18693D01*
X1235D01*
X1124Y18678D01*
X1019Y18635D01*
X930Y18566D01*
X861Y18476D01*
X818Y18372D01*
X803Y18260D01*
X818Y18148D01*
X824Y18133D01*
X358Y17667D01*
X315Y17602D01*
X299Y17525D01*
Y16096D01*
X240Y16008D01*
X219Y15900D01*
X240Y15792D01*
X299Y15704D01*
Y15396D01*
X240Y15308D01*
X219Y15200D01*
X240Y15092D01*
X299Y15004D01*
Y14746D01*
X240Y14658D01*
X219Y14550D01*
X240Y14442D01*
X301Y14351D01*
X392Y14290D01*
X500Y14269D01*
X608Y14290D01*
X699Y14351D01*
X760Y14442D01*
X781Y14550D01*
X760Y14658D01*
X701Y14746D01*
Y15004D01*
X760Y15092D01*
X781Y15200D01*
X760Y15308D01*
X701Y15396D01*
Y15704D01*
X760Y15792D01*
X781Y15900D01*
X760Y16008D01*
X701Y16096D01*
Y17442D01*
X848Y17589D01*
X907Y17537D01*
X905Y17534D01*
X861Y17476D01*
X818Y17372D01*
X803Y17260D01*
X818Y17148D01*
X861Y17044D01*
X930Y16954D01*
X1019Y16886D01*
X1124Y16843D01*
X1235Y16828D01*
X1335D01*
X1447Y16843D01*
X1552Y16886D01*
X1641Y16954D01*
X1710Y17044D01*
X1733Y17100D01*
X2269D01*
X2972Y16397D01*
X2972Y16397D01*
X3024Y16362D01*
X3085Y16350D01*
X4537D01*
X4537Y16350D01*
X4599Y16362D01*
X4651Y16397D01*
X4952Y16698D01*
X5198D01*
Y17210D01*
X5127D01*
Y17354D01*
X5167D01*
Y17866D01*
X4774D01*
Y17771D01*
X4599D01*
X4562Y17796D01*
X4485Y17811D01*
X4409Y17796D01*
X4344Y17752D01*
X4300Y17687D01*
X4285Y17610D01*
X4300Y17533D01*
X4344Y17468D01*
X4409Y17425D01*
X4485Y17410D01*
X4562Y17425D01*
X4599Y17450D01*
X4774D01*
Y17354D01*
X4805D01*
Y17210D01*
X4725D01*
Y16925D01*
X4471Y16671D01*
X3152D01*
X2449Y17374D01*
X2397Y17409D01*
X2335Y17421D01*
X2335Y17421D01*
X1733D01*
X1710Y17476D01*
X1641Y17566D01*
X1552Y17635D01*
X1447Y17678D01*
X1335Y17693D01*
X1235D01*
X1124Y17678D01*
X1019Y17635D01*
X962Y17591D01*
X959Y17588D01*
X907Y17648D01*
X1108Y17849D01*
X1124Y17843D01*
X1235Y17828D01*
X1335D01*
X1447Y17843D01*
X1552Y17886D01*
X1641Y17954D01*
X1710Y18044D01*
X1716Y18060D01*
X2497D01*
X2574Y18075D01*
X2639Y18118D01*
X2777Y18257D01*
X2821Y18322D01*
X2836Y18399D01*
Y19988D01*
X2915Y20026D01*
X2969Y19985D01*
X3084Y19937D01*
X3207Y19921D01*
X3404D01*
X3527Y19937D01*
X3642Y19985D01*
X3741Y20061D01*
X3817Y20159D01*
X3864Y20274D01*
X3880Y20398D01*
X3864Y20521D01*
X3817Y20636D01*
X3741Y20735D01*
X3642Y20810D01*
X3527Y20858D01*
X3404Y20874D01*
X3207D01*
X3084Y20858D01*
X2969Y20810D01*
X2870Y20735D01*
X2794Y20636D01*
X2747Y20521D01*
X2731Y20398D01*
X2736Y20355D01*
X2662Y20318D01*
X1751Y21229D01*
Y22439D01*
X1772Y22460D01*
X4178D01*
X4199Y22439D01*
Y22056D01*
X4091Y22011D01*
X3992Y21935D01*
X3916Y21837D01*
X3869Y21722D01*
X3853Y21598D01*
Y21402D01*
X3869Y21278D01*
X3916Y21163D01*
X3992Y21065D01*
X4091Y20989D01*
X4206Y20941D01*
X4329Y20925D01*
X4452Y20941D01*
X4567Y20989D01*
X4666Y21065D01*
X4742Y21163D01*
X4789Y21278D01*
X4806Y21402D01*
Y21598D01*
X4789Y21722D01*
X4742Y21837D01*
X4666Y21935D01*
X4601Y21986D01*
Y22522D01*
X4585Y22599D01*
X4542Y22664D01*
X4404Y22802D01*
X4338Y22846D01*
X4262Y22861D01*
D02*
G37*
G36*
X11112Y22112D02*
X10640D01*
Y21600D01*
X10720D01*
Y21416D01*
X10688D01*
Y20904D01*
X11082D01*
Y21416D01*
X11041D01*
Y21600D01*
X11112D01*
Y22112D01*
D02*
G37*
G36*
X8066Y23251D02*
X6640D01*
X6586Y23240D01*
X6540Y23210D01*
X6471Y23140D01*
X6441Y23095D01*
X6430Y23041D01*
Y22916D01*
X6374D01*
Y22404D01*
X6767D01*
Y22916D01*
X6824Y22970D01*
X7032D01*
X7089Y22916D01*
Y22404D01*
X7312D01*
X7505Y22211D01*
Y22125D01*
X7330D01*
Y21495D01*
X7505D01*
Y21314D01*
X7247D01*
Y20506D01*
X8004D01*
Y20790D01*
X9086D01*
X9165Y20710D01*
Y20513D01*
X9144Y20505D01*
X9086Y20500D01*
X9051Y20552D01*
X8986Y20596D01*
X8909Y20611D01*
X8437D01*
X8360Y20596D01*
X8295Y20552D01*
X8281Y20531D01*
X8235D01*
X8189Y20521D01*
X8150Y20495D01*
X8150Y20495D01*
X7936Y20281D01*
X6100D01*
X6054Y20271D01*
X6015Y20245D01*
X6015Y20245D01*
X5788Y20018D01*
X5779D01*
X5767Y20016D01*
X5503D01*
Y19504D01*
X5897D01*
Y19795D01*
X5923Y19813D01*
X6150Y20040D01*
X7985D01*
X7985Y20040D01*
X8032Y20049D01*
X8071Y20075D01*
X8267Y20271D01*
X8295Y20268D01*
X8360Y20225D01*
X8437Y20210D01*
X8909D01*
X8986Y20225D01*
X9051Y20268D01*
X9086Y20321D01*
X9144Y20315D01*
X9165Y20307D01*
Y20031D01*
X9066D01*
X9051Y20052D01*
X8986Y20096D01*
X8909Y20111D01*
X8437D01*
X8360Y20096D01*
X8295Y20052D01*
X8252Y19987D01*
X8236Y19910D01*
X8252Y19833D01*
X8295Y19768D01*
X8360Y19725D01*
X8437Y19710D01*
X8909D01*
X8986Y19725D01*
X9051Y19768D01*
X9066Y19790D01*
X9239D01*
X9239Y19790D01*
X9285Y19799D01*
X9324Y19825D01*
X9366Y19867D01*
X9385Y19865D01*
X9445Y19841D01*
Y19551D01*
X9052D01*
X9051Y19552D01*
X8986Y19596D01*
X8909Y19611D01*
X8437D01*
X8360Y19596D01*
X8323Y19571D01*
X8199D01*
X8177Y19585D01*
X8100Y19601D01*
X8023Y19585D01*
X7958Y19542D01*
X7915Y19477D01*
X7899Y19400D01*
X7915Y19323D01*
X7958Y19258D01*
X8023Y19215D01*
X8100Y19199D01*
X8177Y19215D01*
X8229Y19250D01*
X8323D01*
X8360Y19225D01*
X8437Y19210D01*
X8909D01*
X8986Y19225D01*
X9051Y19268D01*
X9052Y19270D01*
X9445D01*
Y18710D01*
X9456Y18657D01*
X9486Y18611D01*
X10029Y18068D01*
X10026Y18039D01*
X10002Y17989D01*
X9482D01*
Y17861D01*
X9151D01*
Y18154D01*
X9171Y18183D01*
X9186Y18260D01*
X9171Y18337D01*
X9127Y18402D01*
X9062Y18446D01*
X8985Y18461D01*
X8909Y18446D01*
X8844Y18402D01*
X8808Y18367D01*
X8765Y18302D01*
X8750Y18225D01*
Y17660D01*
X8753Y17641D01*
Y17404D01*
X9147D01*
Y17460D01*
X9482D01*
Y17332D01*
X10189D01*
Y17941D01*
X10189Y17989D01*
X10255Y18020D01*
X10389D01*
Y17904D01*
X10782D01*
Y18416D01*
X10389D01*
Y18301D01*
X10194D01*
X9726Y18768D01*
Y19400D01*
Y20904D01*
X9782D01*
Y21416D01*
X9389D01*
Y21301D01*
X8394D01*
X8276Y21418D01*
Y23041D01*
X8265Y23095D01*
X8235Y23140D01*
X8166Y23210D01*
X8120Y23240D01*
X8066Y23251D01*
D02*
G37*
G36*
X10506Y22686D02*
X9994D01*
Y22135D01*
X10130D01*
Y22048D01*
X10089D01*
Y21537D01*
X10130D01*
Y21416D01*
X10103D01*
Y20904D01*
X10180D01*
Y20771D01*
X10180Y20771D01*
X10189Y20725D01*
X10215Y20686D01*
X10466Y20436D01*
X10461Y20410D01*
X10476Y20333D01*
X10519Y20268D01*
X10585Y20225D01*
X10661Y20210D01*
X11134D01*
X11211Y20225D01*
X11276Y20268D01*
X11319Y20333D01*
X11335Y20410D01*
X11319Y20487D01*
X11276Y20552D01*
X11211Y20596D01*
X11134Y20611D01*
X10661D01*
X10636Y20606D01*
X10421Y20821D01*
Y20904D01*
X10497D01*
Y21416D01*
X10371D01*
Y21537D01*
X10482D01*
Y22048D01*
X10371D01*
Y22135D01*
X10506D01*
Y22686D01*
D02*
G37*
G36*
X29143Y20306D02*
X28395D01*
Y20141D01*
X28160D01*
X28143Y20152D01*
X28066Y20167D01*
X27989Y20152D01*
X27924Y20108D01*
X27881Y20043D01*
X27866Y19966D01*
X27881Y19889D01*
X27924Y19824D01*
X27989Y19781D01*
X28066Y19765D01*
X28143Y19781D01*
X28208Y19824D01*
X28232Y19859D01*
X28395D01*
Y19754D01*
X29143D01*
Y20306D01*
D02*
G37*
G36*
X38300Y20173D02*
X38169Y20147D01*
X38058Y20072D01*
X37983Y19961D01*
X37957Y19830D01*
X37983Y19699D01*
X38058Y19588D01*
X38169Y19513D01*
X38300Y19487D01*
X38431Y19513D01*
X38542Y19588D01*
X38617Y19699D01*
X38643Y19830D01*
X38617Y19961D01*
X38542Y20072D01*
X38431Y20147D01*
X38300Y20173D01*
D02*
G37*
G36*
X1764Y19689D02*
X807D01*
Y18831D01*
X1764D01*
Y19689D01*
D02*
G37*
G36*
X3835Y19693D02*
X3735D01*
X3624Y19678D01*
X3519Y19635D01*
X3430Y19566D01*
X3361Y19476D01*
X3318Y19372D01*
X3303Y19260D01*
X3318Y19148D01*
X3361Y19044D01*
X3430Y18954D01*
X3519Y18886D01*
X3624Y18843D01*
X3735Y18828D01*
X3835D01*
X3947Y18843D01*
X4052Y18886D01*
X4141Y18954D01*
X4210Y19044D01*
X4253Y19148D01*
X4268Y19260D01*
X4253Y19372D01*
X4210Y19476D01*
X4141Y19566D01*
X4052Y19635D01*
X3947Y19678D01*
X3835Y19693D01*
D02*
G37*
G36*
X5182Y20016D02*
X4789D01*
Y19731D01*
X4724Y19667D01*
X4689Y19615D01*
X4677Y19553D01*
X4677Y19553D01*
Y19290D01*
X4572D01*
Y18778D01*
X5103D01*
Y19290D01*
X4998D01*
Y19487D01*
X5016Y19504D01*
X5182D01*
Y20016D01*
D02*
G37*
G36*
X3835Y18693D02*
X3735D01*
X3624Y18678D01*
X3519Y18635D01*
X3430Y18566D01*
X3361Y18476D01*
X3318Y18372D01*
X3303Y18260D01*
X3318Y18148D01*
X3361Y18044D01*
X3430Y17954D01*
X3519Y17886D01*
X3624Y17843D01*
X3735Y17828D01*
X3835D01*
X3947Y17843D01*
X4052Y17886D01*
X4141Y17954D01*
X4210Y18044D01*
X4253Y18148D01*
X4268Y18260D01*
X4253Y18372D01*
X4210Y18476D01*
X4141Y18566D01*
X4052Y18635D01*
X3947Y18678D01*
X3835Y18693D01*
D02*
G37*
G36*
X11134Y19111D02*
X10661D01*
X10585Y19096D01*
X10519Y19052D01*
X10476Y18987D01*
X10461Y18910D01*
X10476Y18833D01*
X10519Y18768D01*
X10585Y18725D01*
X10661Y18710D01*
X11104D01*
X11176Y18638D01*
Y18416D01*
X11103D01*
Y17904D01*
X11152D01*
Y17766D01*
X11089D01*
Y17254D01*
X11482D01*
Y17766D01*
X11433D01*
Y17904D01*
X11497D01*
Y18416D01*
X11457D01*
Y18696D01*
X11446Y18750D01*
X11416Y18795D01*
X11329Y18882D01*
X11335Y18910D01*
X11319Y18987D01*
X11276Y19052D01*
X11211Y19096D01*
X11134Y19111D01*
D02*
G37*
G36*
X36754Y17689D02*
X35946D01*
Y16932D01*
X32169D01*
X32127Y17011D01*
X32135Y17023D01*
X32151Y17100D01*
X32135Y17177D01*
X32092Y17242D01*
X32027Y17285D01*
X31950Y17301D01*
X31873Y17285D01*
X31808Y17242D01*
X31765Y17177D01*
X31749Y17100D01*
X31765Y17023D01*
X31767Y17019D01*
Y16772D01*
X31767Y16772D01*
X31767Y16772D01*
Y15283D01*
X31770Y15268D01*
Y14909D01*
X32299D01*
Y14509D01*
X31876Y14086D01*
X31846Y14041D01*
X31835Y13987D01*
Y13529D01*
X31827D01*
Y12792D01*
X33914D01*
Y13529D01*
X33519D01*
X33489Y13602D01*
X33680Y13793D01*
X33763Y13774D01*
X33767Y13769D01*
X33808Y13708D01*
X33873Y13665D01*
X33950Y13649D01*
X34027Y13665D01*
X34092Y13708D01*
X34135Y13773D01*
X34151Y13850D01*
X34142Y13893D01*
X34348Y14099D01*
X34350Y14099D01*
X34427Y14114D01*
X34492Y14158D01*
X34535Y14223D01*
X34551Y14300D01*
X34535Y14376D01*
X34492Y14442D01*
X34461Y14462D01*
X34443Y14556D01*
X34586Y14700D01*
X34617Y14745D01*
X34627Y14799D01*
Y14909D01*
X34900D01*
Y15268D01*
X34903Y15283D01*
Y16611D01*
X35867D01*
X35936Y16589D01*
Y15998D01*
X36644D01*
Y16589D01*
X36471D01*
Y16931D01*
X36754D01*
Y17689D01*
D02*
G37*
G36*
X3835Y17693D02*
X3735D01*
X3624Y17678D01*
X3519Y17635D01*
X3430Y17566D01*
X3361Y17476D01*
X3318Y17372D01*
X3303Y17260D01*
X3318Y17148D01*
X3361Y17044D01*
X3430Y16954D01*
X3519Y16886D01*
X3624Y16843D01*
X3735Y16828D01*
X3835D01*
X3947Y16843D01*
X4052Y16886D01*
X4141Y16954D01*
X4210Y17044D01*
X4253Y17148D01*
X4268Y17260D01*
X4253Y17372D01*
X4210Y17476D01*
X4141Y17566D01*
X4052Y17635D01*
X3947Y17678D01*
X3835Y17693D01*
D02*
G37*
G36*
X6087Y18916D02*
X5556D01*
Y18404D01*
X5661D01*
Y17872D01*
X5655Y17866D01*
X5489D01*
Y17354D01*
X5537D01*
Y17210D01*
X5473D01*
Y16698D01*
X5946D01*
Y17210D01*
X5858D01*
Y17354D01*
X5882D01*
Y17639D01*
X5935Y17692D01*
X5935Y17692D01*
X5970Y17744D01*
X5982Y17806D01*
Y18404D01*
X6087D01*
Y18916D01*
D02*
G37*
G36*
X7302Y18583D02*
X6869D01*
Y17638D01*
X7075D01*
X7225Y17488D01*
Y17322D01*
X7129D01*
Y16928D01*
X7414D01*
X7581Y16762D01*
X7633Y16727D01*
X7694Y16715D01*
X7717Y16719D01*
X7723Y16715D01*
X7800Y16699D01*
X7877Y16715D01*
X7877Y16715D01*
X7904D01*
X7932Y16687D01*
X7928Y16593D01*
X7901Y16571D01*
X7641D01*
Y16607D01*
X7130D01*
Y16563D01*
X6841D01*
Y16592D01*
X6330D01*
Y16426D01*
X6060Y16156D01*
X6009Y16146D01*
X5944Y16102D01*
X5900Y16037D01*
X5885Y15960D01*
X5900Y15883D01*
X5944Y15818D01*
X6009Y15775D01*
X6085Y15760D01*
X6162Y15775D01*
X6227Y15818D01*
X6271Y15883D01*
X6278Y15920D01*
X6557Y16199D01*
X6841D01*
Y16242D01*
X7130D01*
Y16213D01*
X7641D01*
Y16250D01*
X7960D01*
Y15989D01*
X8511D01*
Y16501D01*
X8201D01*
X8166Y16541D01*
X8197Y16619D01*
X8511D01*
Y16715D01*
X8710D01*
Y16619D01*
X9261D01*
Y17131D01*
X8710D01*
Y17036D01*
X8511D01*
Y17131D01*
X8396D01*
Y17404D01*
X8432D01*
Y17916D01*
X8039D01*
Y17404D01*
X8075D01*
Y17131D01*
X7960D01*
Y17125D01*
X7881Y17083D01*
X7877Y17085D01*
X7800Y17101D01*
X7723Y17085D01*
X7716Y17081D01*
X7641Y17155D01*
Y17322D01*
X7546D01*
Y17554D01*
X7546Y17554D01*
X7534Y17616D01*
X7499Y17668D01*
X7302Y17865D01*
Y18583D01*
D02*
G37*
G36*
X10767Y17766D02*
X10374D01*
Y17254D01*
X10437D01*
Y17116D01*
X10389D01*
Y16604D01*
X10782D01*
Y17116D01*
X10718D01*
Y17254D01*
X10767D01*
Y17766D01*
D02*
G37*
G36*
X17856Y18132D02*
X17344D01*
Y17738D01*
X17439D01*
Y16667D01*
X16983Y16211D01*
X16514D01*
X16477Y16235D01*
X16400Y16251D01*
X16323Y16235D01*
X16258Y16192D01*
X16215Y16127D01*
X16199Y16050D01*
X16215Y15973D01*
X16258Y15908D01*
X16323Y15865D01*
X16400Y15849D01*
X16477Y15865D01*
X16514Y15889D01*
X17050D01*
X17050Y15889D01*
X17111Y15902D01*
X17164Y15936D01*
X17714Y16486D01*
X17714Y16486D01*
X17748Y16539D01*
X17761Y16600D01*
Y17738D01*
X17856D01*
Y18132D01*
D02*
G37*
G36*
X2002Y16483D02*
X1569D01*
Y15538D01*
X2002D01*
Y15850D01*
X2375D01*
Y12202D01*
X2375Y12202D01*
X2387Y12141D01*
X2422Y12089D01*
X2514Y11997D01*
X2514Y11997D01*
X2566Y11962D01*
X2628Y11950D01*
X2874D01*
Y11913D01*
X3897D01*
Y12307D01*
X2874D01*
Y12271D01*
X2696D01*
Y15850D01*
X2989D01*
X3060Y15831D01*
Y15319D01*
X3611D01*
Y15831D01*
X3682Y15850D01*
X5218D01*
X5218Y15850D01*
X5280Y15862D01*
X5294Y15871D01*
X5572D01*
Y16383D01*
X5099D01*
Y16171D01*
X3385D01*
X3385Y16171D01*
X3385Y16171D01*
X2002D01*
Y16483D01*
D02*
G37*
G36*
X6885Y15911D02*
X6809Y15896D01*
X6744Y15852D01*
X6700Y15787D01*
X6698Y15779D01*
X6482Y15562D01*
X6449Y15556D01*
X6445Y15558D01*
X6334Y15580D01*
X5920D01*
X5809Y15558D01*
X5715Y15495D01*
X5652Y15401D01*
X5629Y15289D01*
Y13931D01*
X5652Y13820D01*
X5715Y13725D01*
X5809Y13662D01*
X5920Y13640D01*
X6334D01*
X6445Y13662D01*
X6540Y13725D01*
X6603Y13820D01*
X6625Y13931D01*
Y15215D01*
X6626Y15215D01*
X6685Y15254D01*
X6954Y15523D01*
X6962Y15525D01*
X7027Y15568D01*
X7071Y15633D01*
X7086Y15710D01*
X7071Y15787D01*
X7027Y15852D01*
X6962Y15896D01*
X6885Y15911D01*
D02*
G37*
G36*
X8106Y15853D02*
X7554D01*
Y15503D01*
X7227D01*
X7150Y15487D01*
X7085Y15444D01*
X6894Y15252D01*
X6850Y15187D01*
X6835Y15110D01*
X6850Y15033D01*
X6894Y14968D01*
X6959Y14925D01*
X7035Y14910D01*
X7112Y14925D01*
X7177Y14968D01*
X7310Y15101D01*
X7554D01*
Y14751D01*
X8106D01*
Y15853D01*
D02*
G37*
G36*
X34850Y14362D02*
X34773Y14347D01*
X34708Y14303D01*
X34665Y14238D01*
X34649Y14162D01*
X34650Y14160D01*
X34484Y13994D01*
X34450Y14001D01*
X34373Y13985D01*
X34308Y13942D01*
X34265Y13877D01*
X34249Y13800D01*
X34265Y13723D01*
X34308Y13658D01*
X34373Y13615D01*
X34450Y13599D01*
X34527Y13615D01*
X34592Y13658D01*
X34635Y13723D01*
X34642Y13754D01*
X34848Y13961D01*
X34850Y13961D01*
X34927Y13976D01*
X34992Y14020D01*
X35035Y14085D01*
X35051Y14162D01*
X35035Y14238D01*
X34992Y14303D01*
X34927Y14347D01*
X34850Y14362D01*
D02*
G37*
G36*
X35350Y16351D02*
X35273Y16335D01*
X35208Y16292D01*
X35165Y16227D01*
X35149Y16150D01*
X35165Y16073D01*
X35169Y16066D01*
Y15425D01*
X35183Y15356D01*
X35222Y15297D01*
X35946Y14573D01*
Y14245D01*
X35401Y13699D01*
X35370Y13654D01*
X35359Y13600D01*
Y12054D01*
X35015Y11709D01*
X34936Y11741D01*
Y12187D01*
X34999Y12251D01*
X35030Y12296D01*
X35041Y12350D01*
Y12407D01*
X35042Y12408D01*
X35085Y12473D01*
X35101Y12550D01*
X35085Y12627D01*
X35042Y12692D01*
X34977Y12735D01*
X34900Y12751D01*
X34823Y12735D01*
X34758Y12692D01*
X34715Y12627D01*
X34707Y12586D01*
X34687Y12573D01*
X34624Y12554D01*
X34577Y12585D01*
X34500Y12601D01*
X34423Y12585D01*
X34358Y12542D01*
X34315Y12477D01*
X34299Y12400D01*
X34315Y12323D01*
X34358Y12258D01*
X34395Y12233D01*
Y11229D01*
X34387D01*
Y10491D01*
X34680D01*
X34710Y10419D01*
X34532Y10240D01*
X34093D01*
X34092Y10242D01*
X34027Y10285D01*
X33950Y10301D01*
X33873Y10285D01*
X33808Y10242D01*
X33765Y10177D01*
X33749Y10100D01*
X33765Y10023D01*
X33808Y9958D01*
X33873Y9915D01*
X33950Y9899D01*
X34027Y9915D01*
X34092Y9958D01*
X34093Y9960D01*
X34590D01*
X34644Y9970D01*
X34689Y10001D01*
X35134Y10445D01*
X35164Y10491D01*
X35164Y10491D01*
X35194D01*
Y11229D01*
X35186D01*
Y11483D01*
X35558Y11855D01*
X35946D01*
Y11621D01*
X36754D01*
Y11810D01*
X37892D01*
X37950Y11752D01*
X37949Y11750D01*
X37965Y11673D01*
X38008Y11608D01*
X38073Y11565D01*
X38150Y11549D01*
X38227Y11565D01*
X38292Y11608D01*
X38335Y11673D01*
X38351Y11750D01*
X38335Y11827D01*
X38292Y11892D01*
X38227Y11935D01*
X38176Y11946D01*
X38150Y11985D01*
X38181Y12054D01*
X38192Y12064D01*
X38636D01*
Y12737D01*
X37964D01*
X37964Y12102D01*
X37950Y12091D01*
X36754D01*
Y12379D01*
X35946D01*
Y12136D01*
X35640D01*
Y13542D01*
X36170Y14071D01*
X36473D01*
X36692Y13853D01*
X36751Y13813D01*
X36820Y13800D01*
X38016D01*
X38058Y13738D01*
X38169Y13664D01*
X38300Y13638D01*
X38431Y13664D01*
X38542Y13738D01*
X38617Y13849D01*
X38643Y13980D01*
X38617Y14111D01*
X38542Y14223D01*
X38431Y14297D01*
X38300Y14323D01*
X38169Y14297D01*
X38058Y14223D01*
X38016Y14161D01*
X36895D01*
X36754Y14302D01*
Y14829D01*
X36202D01*
X35531Y15500D01*
Y16066D01*
X35535Y16073D01*
X35551Y16150D01*
X35535Y16227D01*
X35492Y16292D01*
X35427Y16335D01*
X35350Y16351D01*
D02*
G37*
G36*
X3897Y13807D02*
X2874D01*
Y13413D01*
X3897D01*
Y13807D01*
D02*
G37*
G36*
X4235Y13411D02*
X4159Y13396D01*
X4094Y13352D01*
X4050Y13287D01*
X4047Y13271D01*
X3897D01*
Y13307D01*
X2874D01*
Y12913D01*
X3897D01*
Y12950D01*
X4114D01*
X4114Y12950D01*
X4176Y12962D01*
X4228Y12997D01*
X4242Y13011D01*
X4312Y13025D01*
X4377Y13068D01*
X4421Y13133D01*
X4436Y13210D01*
X4421Y13287D01*
X4377Y13352D01*
X4312Y13396D01*
X4235Y13411D01*
D02*
G37*
G36*
X38300Y13533D02*
X38169Y13507D01*
X38058Y13433D01*
X37983Y13321D01*
X37957Y13190D01*
X37983Y13059D01*
X38058Y12948D01*
X38169Y12873D01*
X38300Y12847D01*
X38431Y12873D01*
X38542Y12948D01*
X38617Y13059D01*
X38643Y13190D01*
X38617Y13321D01*
X38542Y13433D01*
X38431Y13507D01*
X38300Y13533D01*
D02*
G37*
G36*
X5192Y15580D02*
X4779D01*
X4667Y15558D01*
X4573Y15495D01*
X4510Y15401D01*
X4488Y15289D01*
Y13931D01*
X4510Y13820D01*
X4573Y13725D01*
X4667Y13662D01*
X4710Y13654D01*
Y12771D01*
X3897D01*
Y12807D01*
X2874D01*
Y12413D01*
X3897D01*
Y12450D01*
X4302D01*
Y11847D01*
X4316Y11776D01*
X4357Y11715D01*
X4417Y11675D01*
X4489Y11661D01*
X5181D01*
X5253Y11675D01*
X5313Y11715D01*
X5354Y11776D01*
X5368Y11847D01*
Y12473D01*
X5354Y12545D01*
X5313Y12605D01*
X5253Y12646D01*
X5181Y12660D01*
X5111D01*
Y13640D01*
X5192D01*
X5304Y13662D01*
X5398Y13725D01*
X5461Y13820D01*
X5483Y13931D01*
Y15289D01*
X5461Y15401D01*
X5398Y15495D01*
X5304Y15558D01*
X5192Y15580D01*
D02*
G37*
G36*
X9464Y13570D02*
X8007D01*
Y12467D01*
X9464D01*
Y13570D01*
D02*
G37*
G36*
X8939Y11989D02*
X8232D01*
Y11770D01*
X7991D01*
Y11772D01*
X7480D01*
Y11378D01*
X7991D01*
Y11530D01*
X8232D01*
Y11331D01*
X8939D01*
Y11989D01*
D02*
G37*
G36*
X24525Y12426D02*
X24448Y12410D01*
X24383Y12367D01*
X24340Y12302D01*
X24324Y12225D01*
X24340Y12148D01*
X24383Y12083D01*
X24448Y12040D01*
X24525Y12024D01*
X24602Y12040D01*
X24639Y12064D01*
X25508D01*
X25639Y11933D01*
Y11064D01*
X25615Y11027D01*
X25599Y10950D01*
X25615Y10873D01*
X25658Y10808D01*
X25723Y10765D01*
X25800Y10749D01*
X25877Y10765D01*
X25942Y10808D01*
X25985Y10873D01*
X26001Y10950D01*
X25985Y11027D01*
X25961Y11064D01*
Y12000D01*
X25961Y12000D01*
X25948Y12061D01*
X25914Y12114D01*
X25689Y12339D01*
X25636Y12373D01*
X25575Y12386D01*
X25575Y12386D01*
X24639D01*
X24602Y12410D01*
X24525Y12426D01*
D02*
G37*
G36*
X8939Y11089D02*
X8232D01*
Y10431D01*
X8415D01*
Y10053D01*
X8401Y10043D01*
X8359Y9982D01*
X8345Y9909D01*
Y9338D01*
X8359Y9265D01*
X8401Y9203D01*
X8462Y9162D01*
X8535Y9147D01*
X8608Y9162D01*
X8670Y9203D01*
X8712Y9265D01*
X8726Y9338D01*
Y9909D01*
X8712Y9982D01*
X8670Y10043D01*
X8656Y10053D01*
Y10431D01*
X8939D01*
Y10680D01*
X9130D01*
Y10664D01*
X9641D01*
Y11057D01*
X9130D01*
Y10920D01*
X8939D01*
Y11089D01*
D02*
G37*
G36*
X10589D02*
X9882D01*
Y10431D01*
X10115D01*
Y10294D01*
X9772D01*
X9721Y10345D01*
X9682Y10371D01*
X9635Y10381D01*
X9635Y10381D01*
X9085D01*
X9085Y10381D01*
X9039Y10371D01*
X9000Y10345D01*
X9000Y10345D01*
X8950Y10295D01*
X8924Y10256D01*
X8915Y10210D01*
X8915Y10210D01*
Y10053D01*
X8901Y10043D01*
X8859Y9982D01*
X8845Y9909D01*
Y9338D01*
X8859Y9265D01*
X8901Y9203D01*
X8962Y9162D01*
X9035Y9147D01*
X9108Y9162D01*
X9170Y9203D01*
X9212Y9265D01*
X9226Y9338D01*
Y9909D01*
X9212Y9982D01*
X9170Y10043D01*
X9156Y10053D01*
Y10140D01*
X9586D01*
X9636Y10089D01*
X9636Y10089D01*
X9676Y10063D01*
X9722Y10054D01*
X10272D01*
X10272Y10054D01*
X10272Y10054D01*
X11799D01*
X11799Y10054D01*
X11845Y10063D01*
X11884Y10089D01*
X12021Y10225D01*
X12047Y10264D01*
X12056Y10310D01*
Y10664D01*
X12191D01*
Y11057D01*
X11680D01*
Y10664D01*
X11815D01*
Y10360D01*
X11749Y10294D01*
X11332D01*
X11279Y10373D01*
X11286Y10410D01*
X11271Y10487D01*
X11227Y10552D01*
X11226Y10553D01*
Y10664D01*
X11341D01*
Y11057D01*
X10830D01*
Y10664D01*
X10945D01*
Y10553D01*
X10944Y10552D01*
X10900Y10487D01*
X10885Y10410D01*
X10892Y10373D01*
X10839Y10294D01*
X10356D01*
Y10431D01*
X10589D01*
Y11089D01*
D02*
G37*
G36*
X28855Y17139D02*
X26375D01*
X26315Y17114D01*
X26290Y17054D01*
Y9967D01*
X26315Y9907D01*
X26375Y9882D01*
X28855D01*
X28915Y9907D01*
X28940Y9967D01*
Y17054D01*
X28915Y17114D01*
X28855Y17139D01*
D02*
G37*
G36*
X4055Y10641D02*
X2913D01*
Y9696D01*
X4055D01*
Y10641D01*
D02*
G37*
G36*
X1890D02*
X748D01*
Y9696D01*
X1890D01*
Y10641D01*
D02*
G37*
G36*
X2500Y9543D02*
X2400Y9523D01*
X2315Y9467D01*
X2259Y9382D01*
X2239Y9282D01*
X2259Y9182D01*
X2315Y9098D01*
X2400Y9041D01*
X2500Y9021D01*
X2600Y9041D01*
X2684Y9098D01*
X2741Y9182D01*
X2761Y9282D01*
X2741Y9382D01*
X2684Y9467D01*
X2600Y9523D01*
X2500Y9543D01*
D02*
G37*
G36*
X4165Y9640D02*
X4088Y9625D01*
X4023Y9582D01*
X3979Y9517D01*
X3964Y9440D01*
X3979Y9363D01*
X4020Y9302D01*
X4003Y9223D01*
X3287D01*
Y8869D01*
Y8554D01*
Y8239D01*
X4350D01*
Y8313D01*
X4922D01*
X4958Y8258D01*
X5023Y8215D01*
X5100Y8199D01*
X5177Y8215D01*
X5242Y8258D01*
X5285Y8323D01*
X5301Y8400D01*
X5285Y8477D01*
X5242Y8542D01*
X5177Y8585D01*
X5100Y8601D01*
X5023Y8585D01*
X4975Y8553D01*
X4893D01*
X4890Y8557D01*
X4858Y8632D01*
X4885Y8673D01*
X4901Y8750D01*
X4885Y8827D01*
X4842Y8892D01*
X4777Y8935D01*
X4700Y8951D01*
X4623Y8935D01*
X4558Y8892D01*
X4350D01*
Y9223D01*
X4326D01*
X4309Y9302D01*
X4350Y9363D01*
X4365Y9440D01*
X4350Y9517D01*
X4306Y9582D01*
X4241Y9625D01*
X4165Y9640D01*
D02*
G37*
G36*
X2500Y7811D02*
X2400Y7791D01*
X2315Y7735D01*
X2259Y7650D01*
X2239Y7550D01*
X2259Y7450D01*
X2315Y7365D01*
X2400Y7309D01*
X2500Y7289D01*
X2600Y7309D01*
X2684Y7365D01*
X2741Y7450D01*
X2761Y7550D01*
X2741Y7650D01*
X2684Y7735D01*
X2600Y7791D01*
X2500Y7811D01*
D02*
G37*
G36*
X25954Y7806D02*
X25206D01*
Y7425D01*
X24788Y7007D01*
X20080D01*
X20050Y7079D01*
X20222Y7252D01*
X20305D01*
X20305Y7252D01*
X20316Y7254D01*
X20836D01*
Y7806D01*
X20088D01*
Y7458D01*
X20087Y7458D01*
X20087Y7458D01*
X19794Y7164D01*
X14243D01*
X14197Y7155D01*
X14158Y7129D01*
X14158Y7129D01*
X13575Y6546D01*
X12997D01*
Y5994D01*
X13745D01*
Y6375D01*
X14293Y6923D01*
X16161D01*
X16169Y6845D01*
X16156Y6842D01*
X16123Y6835D01*
X16058Y6792D01*
X16015Y6727D01*
X15999Y6650D01*
X16015Y6573D01*
X16058Y6508D01*
X16123Y6465D01*
X16200Y6449D01*
X16277Y6465D01*
X16342Y6508D01*
X16343Y6510D01*
X16818D01*
X16838Y6475D01*
X16851Y6431D01*
X16815Y6377D01*
X16799Y6300D01*
X16804Y6275D01*
X16244Y5714D01*
X14194D01*
X14194Y5714D01*
X14148Y5705D01*
X14109Y5679D01*
X14109Y5679D01*
X13749Y5320D01*
X13723Y5281D01*
X13714Y5235D01*
X13714Y5235D01*
Y5032D01*
X13588Y5007D01*
X13462Y4923D01*
X13379Y4798D01*
X13349Y4650D01*
X13379Y4502D01*
X13462Y4377D01*
X13588Y4293D01*
X13735Y4264D01*
X13883Y4293D01*
X14008Y4377D01*
X14092Y4502D01*
X14122Y4650D01*
X14092Y4798D01*
X14008Y4923D01*
X13955Y4959D01*
Y5185D01*
X14244Y5473D01*
X14700D01*
X14730Y5401D01*
X14615Y5285D01*
X14589Y5246D01*
X14580Y5200D01*
X14580Y5200D01*
Y5012D01*
X14552Y5007D01*
X14427Y4923D01*
X14343Y4798D01*
X14314Y4650D01*
X14343Y4502D01*
X14427Y4377D01*
X14552Y4293D01*
X14700Y4264D01*
X14848Y4293D01*
X14973Y4377D01*
X15057Y4502D01*
X15086Y4650D01*
X15057Y4798D01*
X14973Y4923D01*
X14848Y5007D01*
X14820Y5012D01*
Y5150D01*
X14980Y5310D01*
X15060Y5305D01*
X15107Y5237D01*
X15099Y5200D01*
X15115Y5123D01*
X15158Y5058D01*
X15223Y5015D01*
X15300Y4999D01*
X15377Y5015D01*
X15442Y5058D01*
X15443Y5059D01*
X16805D01*
X16871Y5029D01*
Y4271D01*
X17629D01*
Y5029D01*
X17541D01*
Y5200D01*
Y6457D01*
X17542Y6458D01*
X17585Y6523D01*
X17601Y6600D01*
X17585Y6677D01*
X17542Y6742D01*
X17477Y6785D01*
X17400Y6801D01*
X17349Y6790D01*
X16343D01*
X16342Y6792D01*
X16277Y6835D01*
X16244Y6842D01*
X16231Y6845D01*
X16239Y6923D01*
X19250D01*
X19280Y6851D01*
X18955Y6526D01*
X18907Y6546D01*
Y6546D01*
X18159D01*
Y5994D01*
X18907D01*
Y6181D01*
X18946Y6189D01*
X18985Y6215D01*
X19536Y6766D01*
X24838D01*
X24838Y6766D01*
X24884Y6775D01*
X24923Y6801D01*
X25377Y7254D01*
X25954D01*
Y7806D01*
D02*
G37*
G36*
X35031Y8446D02*
X34401D01*
Y8092D01*
X34401Y8013D01*
X34401Y7934D01*
Y7659D01*
X34401Y7580D01*
X34401D01*
Y7580D01*
X34401D01*
Y7226D01*
X34401Y7147D01*
X34401Y7068D01*
Y6714D01*
X34401D01*
X34401Y6635D01*
Y6281D01*
X35031D01*
Y6317D01*
X35070Y6378D01*
X35116Y6387D01*
X35156Y6413D01*
X35169Y6427D01*
X35189Y6423D01*
X35266Y6438D01*
X35331Y6481D01*
X35375Y6547D01*
X35390Y6623D01*
X35375Y6700D01*
X35359Y6724D01*
X35393Y6811D01*
X35451Y6850D01*
X35485Y6841D01*
X35530Y6820D01*
Y6328D01*
X35488Y6266D01*
X35473Y6189D01*
X35488Y6112D01*
X35531Y6047D01*
X35597Y6004D01*
X35673Y5989D01*
X35750Y6004D01*
X35815Y6047D01*
X35859Y6112D01*
X35874Y6189D01*
X35859Y6266D01*
X35815Y6331D01*
X35770Y6361D01*
Y6439D01*
X35849Y6481D01*
X35873Y6465D01*
X35950Y6449D01*
X36027Y6465D01*
X36092Y6508D01*
X36135Y6573D01*
X36151Y6650D01*
X36135Y6727D01*
X36092Y6792D01*
X36037Y6829D01*
Y7746D01*
X36037Y7746D01*
X36027Y7793D01*
X36001Y7832D01*
X36001Y7832D01*
X35951Y7882D01*
X35912Y7908D01*
X35866Y7917D01*
X35866Y7917D01*
X35087D01*
X35031Y7973D01*
Y8013D01*
X35031Y8092D01*
Y8446D01*
D02*
G37*
G36*
X19700Y6651D02*
X19623Y6635D01*
X19558Y6592D01*
X19515Y6527D01*
X19499Y6450D01*
X19504Y6425D01*
X19165Y6085D01*
X19139Y6046D01*
X19130Y6000D01*
X19130Y6000D01*
Y5012D01*
X19102Y5007D01*
X18977Y4923D01*
X18893Y4798D01*
X18864Y4650D01*
X18893Y4502D01*
X18977Y4377D01*
X19102Y4293D01*
X19250Y4264D01*
X19398Y4293D01*
X19523Y4377D01*
X19607Y4502D01*
X19636Y4650D01*
X19607Y4798D01*
X19523Y4923D01*
X19398Y5007D01*
X19370Y5012D01*
Y5950D01*
X19675Y6254D01*
X19700Y6249D01*
X19777Y6265D01*
X19842Y6308D01*
X19885Y6373D01*
X19901Y6450D01*
X19885Y6527D01*
X19842Y6592D01*
X19777Y6635D01*
X19700Y6651D01*
D02*
G37*
G36*
X4055Y7137D02*
X2913D01*
Y6192D01*
X4055D01*
Y7137D01*
D02*
G37*
G36*
X1890D02*
X748D01*
Y6192D01*
X1890D01*
Y7137D01*
D02*
G37*
G36*
X29143Y6546D02*
X28395D01*
Y5994D01*
X29143D01*
Y6546D01*
D02*
G37*
G36*
X35031Y5848D02*
X34401D01*
Y5493D01*
X34401Y5415D01*
X34401Y5336D01*
Y4981D01*
Y4607D01*
X34795D01*
X34808Y4588D01*
Y4287D01*
X34833Y4227D01*
X34893Y4202D01*
X36176D01*
X36236Y4227D01*
X36261Y4287D01*
Y4588D01*
X36236Y4648D01*
X36176Y4673D01*
X35031D01*
Y4981D01*
X35031Y5387D01*
X35106Y5424D01*
X35315Y5215D01*
X35324Y5208D01*
X35358Y5158D01*
X35423Y5115D01*
X35500Y5099D01*
X35577Y5115D01*
X35642Y5158D01*
X35685Y5223D01*
X35701Y5300D01*
X35685Y5377D01*
X35642Y5442D01*
X35577Y5485D01*
X35500Y5501D01*
X35423Y5485D01*
X35400Y5470D01*
X35154Y5716D01*
X35115Y5742D01*
X35069Y5752D01*
X35031Y5814D01*
Y5848D01*
D02*
G37*
G36*
X12079Y5029D02*
X11321D01*
Y4271D01*
X12079D01*
Y5029D01*
D02*
G37*
G36*
X22250Y5036D02*
X22102Y5007D01*
X21977Y4923D01*
X21893Y4798D01*
X21864Y4650D01*
X21893Y4502D01*
X21977Y4377D01*
X22102Y4293D01*
X22250Y4264D01*
X22398Y4293D01*
X22523Y4377D01*
X22607Y4502D01*
X22636Y4650D01*
X22607Y4798D01*
X22523Y4923D01*
X22398Y5007D01*
X22250Y5036D01*
D02*
G37*
G36*
X37316Y8512D02*
X36685D01*
X36624Y8487D01*
X36599Y8426D01*
Y5000D01*
X36624Y4940D01*
X36685Y4915D01*
X37111D01*
Y4723D01*
X37078Y4673D01*
X36645D01*
X36585Y4648D01*
X36560Y4588D01*
Y4291D01*
X36585Y4231D01*
X36645Y4206D01*
X38065D01*
X38125Y4231D01*
X38150Y4291D01*
Y4588D01*
X38183Y4638D01*
X38614D01*
Y4174D01*
X39086D01*
Y4638D01*
X40194D01*
X40255Y4663D01*
X40280Y4723D01*
Y5001D01*
X40255Y5061D01*
X40194Y5086D01*
X37401D01*
Y8426D01*
X37377Y8487D01*
X37316Y8512D01*
D02*
G37*
G36*
X36485Y3443D02*
X36367Y3427D01*
X36257Y3382D01*
X36162Y3309D01*
X36089Y3214D01*
X36043Y3104D01*
X36028Y2985D01*
Y2835D01*
X36043Y2717D01*
X36089Y2606D01*
X36162Y2512D01*
X36257Y2439D01*
X36367Y2393D01*
X36485Y2378D01*
X36604Y2393D01*
X36714Y2439D01*
X36809Y2512D01*
X36882Y2606D01*
X36927Y2717D01*
X36943Y2835D01*
Y2985D01*
X36927Y3104D01*
X36882Y3214D01*
X36809Y3309D01*
X36714Y3382D01*
X36604Y3427D01*
X36485Y3443D01*
D02*
G37*
G36*
X26485D02*
X26367Y3427D01*
X26257Y3382D01*
X26162Y3309D01*
X26089Y3214D01*
X26043Y3104D01*
X26028Y2985D01*
Y2835D01*
X26043Y2717D01*
X26089Y2606D01*
X26162Y2512D01*
X26257Y2439D01*
X26367Y2393D01*
X26485Y2378D01*
X26604Y2393D01*
X26714Y2439D01*
X26809Y2512D01*
X26882Y2606D01*
X26927Y2717D01*
X26943Y2835D01*
Y2985D01*
X26927Y3104D01*
X26882Y3214D01*
X26809Y3309D01*
X26714Y3382D01*
X26604Y3427D01*
X26485Y3443D01*
D02*
G37*
G36*
X21485D02*
X21367Y3427D01*
X21257Y3382D01*
X21162Y3309D01*
X21089Y3214D01*
X21043Y3104D01*
X21028Y2985D01*
Y2835D01*
X21043Y2717D01*
X21089Y2606D01*
X21162Y2512D01*
X21257Y2439D01*
X21367Y2393D01*
X21485Y2378D01*
X21604Y2393D01*
X21714Y2439D01*
X21809Y2512D01*
X21882Y2606D01*
X21927Y2717D01*
X21943Y2835D01*
Y2985D01*
X21927Y3104D01*
X21882Y3214D01*
X21809Y3309D01*
X21714Y3382D01*
X21604Y3427D01*
X21485Y3443D01*
D02*
G37*
G36*
X17485D02*
X17367Y3427D01*
X17257Y3382D01*
X17162Y3309D01*
X17089Y3214D01*
X17043Y3104D01*
X17028Y2985D01*
Y2835D01*
X17043Y2717D01*
X17089Y2606D01*
X17162Y2512D01*
X17257Y2439D01*
X17367Y2393D01*
X17485Y2378D01*
X17604Y2393D01*
X17714Y2439D01*
X17809Y2512D01*
X17882Y2606D01*
X17927Y2717D01*
X17943Y2835D01*
Y2985D01*
X17927Y3104D01*
X17882Y3214D01*
X17809Y3309D01*
X17714Y3382D01*
X17604Y3427D01*
X17485Y3443D01*
D02*
G37*
G36*
X16485D02*
X16367Y3427D01*
X16257Y3382D01*
X16162Y3309D01*
X16089Y3214D01*
X16043Y3104D01*
X16028Y2985D01*
Y2835D01*
X16043Y2717D01*
X16089Y2606D01*
X16162Y2512D01*
X16257Y2439D01*
X16367Y2393D01*
X16485Y2378D01*
X16604Y2393D01*
X16714Y2439D01*
X16809Y2512D01*
X16882Y2606D01*
X16927Y2717D01*
X16943Y2835D01*
Y2985D01*
X16927Y3104D01*
X16882Y3214D01*
X16809Y3309D01*
X16714Y3382D01*
X16604Y3427D01*
X16485Y3443D01*
D02*
G37*
G36*
X12485D02*
X12367Y3427D01*
X12257Y3382D01*
X12162Y3309D01*
X12089Y3214D01*
X12043Y3104D01*
X12028Y2985D01*
Y2835D01*
X12043Y2717D01*
X12089Y2606D01*
X12162Y2512D01*
X12257Y2439D01*
X12367Y2393D01*
X12485Y2378D01*
X12604Y2393D01*
X12714Y2439D01*
X12809Y2512D01*
X12882Y2606D01*
X12927Y2717D01*
X12943Y2835D01*
Y2985D01*
X12927Y3104D01*
X12882Y3214D01*
X12809Y3309D01*
X12714Y3382D01*
X12604Y3427D01*
X12485Y3443D01*
D02*
G37*
G36*
X11485D02*
X11367Y3427D01*
X11257Y3382D01*
X11162Y3309D01*
X11089Y3214D01*
X11043Y3104D01*
X11028Y2985D01*
Y2835D01*
X11043Y2717D01*
X11089Y2606D01*
X11162Y2512D01*
X11257Y2439D01*
X11367Y2393D01*
X11485Y2378D01*
X11604Y2393D01*
X11714Y2439D01*
X11809Y2512D01*
X11882Y2606D01*
X11927Y2717D01*
X11943Y2835D01*
Y2985D01*
X11927Y3104D01*
X11882Y3214D01*
X11809Y3309D01*
X11714Y3382D01*
X11604Y3427D01*
X11485Y3443D01*
D02*
G37*
G36*
X7485D02*
X7367Y3427D01*
X7257Y3382D01*
X7162Y3309D01*
X7089Y3214D01*
X7043Y3104D01*
X7028Y2985D01*
Y2835D01*
X7043Y2717D01*
X7089Y2606D01*
X7162Y2512D01*
X7257Y2439D01*
X7367Y2393D01*
X7485Y2378D01*
X7604Y2393D01*
X7714Y2439D01*
X7809Y2512D01*
X7882Y2606D01*
X7927Y2717D01*
X7943Y2835D01*
Y2985D01*
X7927Y3104D01*
X7882Y3214D01*
X7809Y3309D01*
X7714Y3382D01*
X7604Y3427D01*
X7485Y3443D01*
D02*
G37*
G36*
X6485D02*
X6367Y3427D01*
X6257Y3382D01*
X6162Y3309D01*
X6089Y3214D01*
X6043Y3104D01*
X6028Y2985D01*
Y2835D01*
X6043Y2717D01*
X6089Y2606D01*
X6162Y2512D01*
X6257Y2439D01*
X6367Y2393D01*
X6485Y2378D01*
X6604Y2393D01*
X6714Y2439D01*
X6809Y2512D01*
X6882Y2606D01*
X6927Y2717D01*
X6943Y2835D01*
Y2985D01*
X6927Y3104D01*
X6882Y3214D01*
X6809Y3309D01*
X6714Y3382D01*
X6604Y3427D01*
X6485Y3443D01*
D02*
G37*
G36*
X2485D02*
X2367Y3427D01*
X2257Y3382D01*
X2162Y3309D01*
X2089Y3214D01*
X2043Y3104D01*
X2028Y2985D01*
Y2835D01*
X2043Y2717D01*
X2089Y2606D01*
X2162Y2512D01*
X2257Y2439D01*
X2367Y2393D01*
X2485Y2378D01*
X2604Y2393D01*
X2714Y2439D01*
X2809Y2512D01*
X2882Y2606D01*
X2927Y2717D01*
X2943Y2835D01*
Y2985D01*
X2927Y3104D01*
X2882Y3214D01*
X2809Y3309D01*
X2714Y3382D01*
X2604Y3427D01*
X2485Y3443D01*
D02*
G37*
G36*
X1485D02*
X1367Y3427D01*
X1257Y3382D01*
X1162Y3309D01*
X1089Y3214D01*
X1043Y3104D01*
X1028Y2985D01*
Y2835D01*
X1043Y2717D01*
X1089Y2606D01*
X1162Y2512D01*
X1257Y2439D01*
X1367Y2393D01*
X1485Y2378D01*
X1604Y2393D01*
X1714Y2439D01*
X1809Y2512D01*
X1882Y2606D01*
X1927Y2717D01*
X1943Y2835D01*
Y2985D01*
X1927Y3104D01*
X1882Y3214D01*
X1809Y3309D01*
X1714Y3382D01*
X1604Y3427D01*
X1485Y3443D01*
D02*
G37*
%LPD*%
G36*
X6444Y8481D02*
X6444Y8481D01*
X6483Y8455D01*
X6529Y8446D01*
X7964D01*
X7997Y8367D01*
X7950Y8321D01*
X7924Y8282D01*
X7915Y8235D01*
X7915Y8235D01*
Y7927D01*
X7901Y7918D01*
X7859Y7856D01*
X7845Y7783D01*
Y7212D01*
X7859Y7139D01*
X7901Y7077D01*
X7915Y7067D01*
Y6685D01*
X7760Y6531D01*
X6485D01*
X6485Y6531D01*
X6439Y6521D01*
X6400Y6495D01*
X6400Y6495D01*
X6200Y6295D01*
X6174Y6256D01*
X6165Y6210D01*
X6090Y6207D01*
X6030D01*
Y5813D01*
X6434D01*
X6467Y5735D01*
X6338Y5606D01*
X6312Y5567D01*
X6303Y5521D01*
X6234Y5492D01*
X6030D01*
Y5131D01*
X5731D01*
X5717Y5140D01*
X5670Y5149D01*
X5670Y5149D01*
X5091D01*
X5026Y5185D01*
Y5736D01*
X5095Y5760D01*
X5450D01*
X5504Y5770D01*
X5549Y5801D01*
X5799Y6051D01*
X5830Y6096D01*
X5840Y6150D01*
Y7030D01*
X5855Y7041D01*
X5919Y7065D01*
X5962Y7036D01*
X6035Y7021D01*
X6108Y7036D01*
X6170Y7077D01*
X6212Y7139D01*
X6226Y7212D01*
Y7783D01*
X6212Y7856D01*
X6170Y7918D01*
X6108Y7959D01*
X6035Y7973D01*
X5962Y7959D01*
X5882Y8000D01*
X5876Y8023D01*
X5878Y8030D01*
X5899Y8051D01*
X5930Y8096D01*
X5940Y8150D01*
Y8874D01*
X6019Y8906D01*
X6444Y8481D01*
D02*
G37*
%LPC*%
G36*
X7535Y7973D02*
X7462Y7959D01*
X7401Y7918D01*
X7359Y7856D01*
X7345Y7783D01*
Y7212D01*
X7359Y7139D01*
X7401Y7077D01*
X7462Y7036D01*
X7535Y7021D01*
X7608Y7036D01*
X7670Y7077D01*
X7712Y7139D01*
X7726Y7212D01*
Y7783D01*
X7712Y7856D01*
X7670Y7918D01*
X7608Y7959D01*
X7535Y7973D01*
D02*
G37*
G36*
X7035D02*
X6962Y7959D01*
X6901Y7918D01*
X6859Y7856D01*
X6845Y7783D01*
Y7212D01*
X6859Y7139D01*
X6901Y7077D01*
X6962Y7036D01*
X7035Y7021D01*
X7108Y7036D01*
X7170Y7077D01*
X7212Y7139D01*
X7226Y7212D01*
Y7783D01*
X7212Y7856D01*
X7170Y7918D01*
X7108Y7959D01*
X7035Y7973D01*
D02*
G37*
G36*
X6535D02*
X6462Y7959D01*
X6401Y7918D01*
X6359Y7856D01*
X6345Y7783D01*
Y7212D01*
X6359Y7139D01*
X6401Y7077D01*
X6462Y7036D01*
X6535Y7021D01*
X6608Y7036D01*
X6670Y7077D01*
X6712Y7139D01*
X6726Y7212D01*
Y7783D01*
X6712Y7856D01*
X6670Y7918D01*
X6608Y7959D01*
X6535Y7973D01*
D02*
G37*
%LPD*%
G36*
X34582Y15657D02*
X33604D01*
Y15739D01*
X33749Y15884D01*
X33780Y15930D01*
X33784Y15953D01*
X33792Y15958D01*
X33835Y16023D01*
X33851Y16100D01*
X33835Y16177D01*
X33792Y16242D01*
X33727Y16285D01*
X33650Y16301D01*
X33573Y16285D01*
X33508Y16242D01*
X33465Y16177D01*
X33449Y16100D01*
X33465Y16023D01*
X33475Y16007D01*
X33364Y15896D01*
X33334Y15851D01*
X33323Y15797D01*
Y15657D01*
X33306D01*
Y15299D01*
X33303Y15283D01*
X33306Y15268D01*
Y14909D01*
X33679D01*
X33709Y14836D01*
X32762Y13890D01*
X32677Y13916D01*
X32674Y13930D01*
X33043Y14299D01*
X33074Y14345D01*
X33085Y14399D01*
Y14726D01*
X33092Y14763D01*
Y14909D01*
X33109D01*
Y15657D01*
X32089D01*
Y16611D01*
X34582D01*
Y15657D01*
D02*
G37*
D10*
X9325Y10800D02*
X9385Y10860D01*
X8625Y10800D02*
X9325D01*
X8535Y10710D02*
X8625Y10800D01*
X7735Y11575D02*
X7810Y11650D01*
X8575D02*
X8585Y11660D01*
X7810Y11650D02*
X8575D01*
X35069Y5631D02*
X35400Y5300D01*
X35189Y6617D02*
Y6623D01*
X35650Y6213D02*
Y7317D01*
X34717Y6498D02*
X35070D01*
X35604Y7363D02*
X35650Y7317D01*
X34716Y7796D02*
X35866D01*
X35916Y7746D01*
Y6684D02*
X35950Y6650D01*
X35400Y5300D02*
X35500D01*
X34716Y6497D02*
X34717Y6498D01*
X34716Y7363D02*
X35604D01*
X34716Y5631D02*
X35069D01*
X35070Y6498D02*
X35189Y6617D01*
X35650Y6213D02*
X35673Y6189D01*
X35916Y6684D02*
Y7746D01*
X3836Y8433D02*
X5067D01*
X5100Y8400D01*
X3859Y8772D02*
X4678D01*
X4700Y8750D01*
X3819Y8731D02*
X3859Y8772D01*
X3819Y8416D02*
X3836Y8433D01*
X24906Y16857D02*
X24918Y16845D01*
Y15960D02*
Y16845D01*
X19824Y20750D02*
X20364Y21290D01*
X17350Y19700D02*
X18400Y20750D01*
X19824D01*
X7810Y6410D02*
X8035Y6635D01*
X6485Y6410D02*
X7810D01*
X8035Y6635D02*
Y7497D01*
X10935Y9510D02*
X11346Y9100D01*
X11885D01*
X11985Y9200D01*
X14936Y5436D02*
X16486D01*
X14700Y5200D02*
X14936Y5436D01*
X14700Y4650D02*
Y5200D01*
X16294Y5594D02*
X17000Y6300D01*
X14194Y5594D02*
X16294D01*
X13835Y5235D02*
X14194Y5594D01*
X16486Y5436D02*
X16950Y5900D01*
X13835Y4749D02*
Y5235D01*
X13735Y4650D02*
X13835Y4749D01*
X10950Y5827D02*
X13620Y8497D01*
X10728Y5828D02*
X13554Y8654D01*
X10447Y5828D02*
X10728D01*
X10379Y5760D02*
X10447Y5828D01*
X13554Y8654D02*
X15554D01*
X10950Y5600D02*
Y5827D01*
X13620Y8497D02*
X15683D01*
X10035Y6351D02*
X10386Y6702D01*
X10035Y5830D02*
Y6351D01*
X10250Y7034D02*
Y8046D01*
Y7034D02*
X10386Y6898D01*
Y6702D02*
Y6898D01*
X9885Y8410D02*
X10250Y8046D01*
X8210Y8410D02*
X9885D01*
X8035Y8235D02*
X8210Y8410D01*
X8035Y7497D02*
Y8235D01*
X13469Y20030D02*
X13799Y19700D01*
X17350D01*
X16714Y20164D02*
X17414D01*
X17450Y20200D01*
X16478Y20400D02*
X16714Y20164D01*
X16620Y8894D02*
X16650Y8864D01*
X16531Y8894D02*
X16620D01*
X16525Y8900D02*
X16531Y8894D01*
X16086Y8900D02*
X16525D01*
X16000Y9100D02*
X17950D01*
X19000Y10150D01*
X15554Y8654D02*
X16000Y9100D01*
X15683Y8497D02*
X16086Y8900D01*
X5689Y5010D02*
X6589D01*
X5670Y5029D02*
X5689Y5010D01*
X4770Y5029D02*
X5670D01*
X6035Y9060D02*
Y9623D01*
Y9060D02*
X6529Y8567D01*
X8015D01*
X21900Y6200D02*
X22100D01*
X20250Y4650D02*
X20350D01*
X21900Y6200D01*
X21250Y4650D02*
Y5127D01*
X21573Y5450D02*
X24750D01*
X21250Y5127D02*
X21573Y5450D01*
X22157Y5743D02*
X24680D01*
X24750Y5450D02*
X25050Y5150D01*
X24680Y5743D02*
X25002Y5421D01*
X22150Y5750D02*
X22157Y5743D01*
X25002Y5421D02*
X26729D01*
X25050Y5150D02*
X31300D01*
X19250Y4650D02*
Y6000D01*
X19700Y6450D01*
X19486Y6886D02*
X24838D01*
X18533Y6270D02*
X18563Y6300D01*
X18900D01*
X19486Y6886D01*
X19906Y8906D02*
Y10164D01*
X14243Y7044D02*
X19844D01*
X13469Y6270D02*
X14243Y7044D01*
X19844D02*
X20172Y7372D01*
X24838Y6886D02*
X25482Y7530D01*
X20950Y8950D02*
Y10120D01*
Y8900D02*
Y8950D01*
X20406Y8906D02*
Y10164D01*
X31500Y4153D02*
Y4950D01*
X31300Y5150D02*
X31500Y4950D01*
X25477Y5664D02*
X26963D01*
X27000Y5701D01*
X22400Y5900D02*
X26650D01*
X22100Y6200D02*
X22400Y5900D01*
X19900Y8900D02*
X19906Y8906D01*
X20906Y10164D02*
X20950Y10120D01*
X20400Y8900D02*
X20406Y8906D01*
X21906Y16857D02*
X21950Y16900D01*
X22406Y8950D02*
Y10164D01*
X21906Y8906D02*
Y10164D01*
X25343Y6900D02*
X29970D01*
X30600Y7530D01*
X24714Y6270D02*
X25343Y6900D01*
X25406Y9156D02*
Y10164D01*
X25400Y9150D02*
X25406Y9156D01*
X21900Y8900D02*
X21906Y8906D01*
X21406Y8956D02*
Y10164D01*
X21400Y8950D02*
X21406Y8956D01*
X10681Y12150D02*
X10788Y12257D01*
X9385Y11675D02*
Y12104D01*
X9432Y12150D01*
X10681D01*
X24350Y10220D02*
Y11100D01*
X24150Y11300D02*
X24350Y11100D01*
X23650Y11345D02*
Y11350D01*
Y11345D02*
X23906Y11089D01*
X17500Y11400D02*
X17531Y11369D01*
X17500Y11400D02*
Y11700D01*
X17100Y12100D02*
X17500Y11700D01*
X19000Y10164D02*
X19406D01*
X10788Y12257D02*
X17193D01*
X17913Y11669D02*
X17935Y11646D01*
X17781Y11669D02*
X17913D01*
X17193Y12257D02*
X17781Y11669D01*
X12360Y12100D02*
X17100D01*
X11935Y11675D02*
X12360Y12100D01*
X22450Y16900D02*
Y17600D01*
X22406Y16857D02*
X22450Y16900D01*
X24406Y16857D02*
Y17550D01*
X24350Y10220D02*
X24406Y10164D01*
X9730Y5504D02*
Y5524D01*
X10035Y5830D01*
X9611Y5386D02*
X9730Y5504D01*
X9592Y5386D02*
X9611D01*
X23906Y10164D02*
Y11089D01*
X16400Y20400D02*
X16478D01*
X18835Y20250D02*
X18835D01*
X19135Y20550D02*
X23850D01*
X18835Y20250D02*
X19135Y20550D01*
X18789Y20204D02*
X18835Y20250D01*
X18533Y20030D02*
X18632D01*
X18789Y20187D01*
Y20204D01*
X20172Y7372D02*
X20305D01*
X20462Y7530D01*
X30600D02*
X30698D01*
X23651Y6270D02*
X24714D01*
X25482Y7530D02*
X25580D01*
X13371Y6270D02*
X13469D01*
X24590Y21290D02*
X25580D01*
X23850Y20550D02*
X24590Y21290D01*
X23750Y20030D02*
X24420Y20700D01*
X29400D02*
X29990Y21290D01*
X24420Y20700D02*
X29400D01*
X29990Y21290D02*
X30698D01*
X23651Y20030D02*
X23750D01*
X20364Y21290D02*
X20462D01*
X13371Y20030D02*
X13469D01*
X15300Y21290D02*
X16390D01*
X16400Y21300D01*
X10360Y5010D02*
X10950Y5600D01*
X6589Y5010D02*
X10360D01*
X11246Y8121D02*
Y8346D01*
X11500Y8600D02*
X11985D01*
X11246Y8346D02*
X11500Y8600D01*
X10835Y7810D02*
X10885D01*
X10935D01*
X10835Y9510D02*
X10935D01*
Y7810D02*
X11246Y8121D01*
X10250Y21793D02*
Y22410D01*
X10300Y20771D02*
Y21160D01*
Y20771D02*
X10661Y20410D01*
X10250Y21210D02*
Y21793D01*
X7625Y20910D02*
Y22261D01*
X10661Y20410D02*
X10898D01*
X10250Y21210D02*
X10300Y21160D01*
X9285Y19956D02*
Y20760D01*
X8673Y19910D02*
X9239D01*
X9285Y19956D01*
X9135Y20910D02*
X9285Y20760D01*
X7625Y20910D02*
X9135D01*
X7285Y22601D02*
X7625Y22261D01*
X7285Y22601D02*
Y22660D01*
X5700Y19760D02*
Y19819D01*
X5779Y19898D01*
X5838D01*
X6100Y20160D01*
X7985D01*
X8235Y20410D02*
X8673D01*
X7985Y20160D02*
X8235Y20410D01*
X8626Y5801D02*
Y6025D01*
X8111Y5286D02*
X8626Y5801D01*
Y6025D02*
X8685D01*
X6635Y5510D02*
X6785Y5660D01*
X6635Y5056D02*
Y5510D01*
X6785Y5660D02*
X7829D01*
X6423Y5521D02*
X6819Y5916D01*
X6924D02*
X7042Y6034D01*
X6819Y5916D02*
X6924D01*
X6423Y5374D02*
Y5521D01*
X6285Y5295D02*
X6345D01*
X6423Y5374D01*
X6589Y5010D02*
X6635Y5056D01*
X9722Y10174D02*
X10272D01*
X10229Y10217D02*
X10272Y10174D01*
X10235Y10224D02*
Y10760D01*
X10229Y10217D02*
X10235Y10224D01*
X9085Y10260D02*
X9635D01*
X9722Y10174D01*
X10272D02*
X11799D01*
X11935Y10310D01*
Y10775D01*
X9035Y10210D02*
X9085Y10260D01*
X9035Y9623D02*
Y10210D01*
X10235Y11660D02*
X11070D01*
X8535Y9623D02*
Y10710D01*
X10050Y8725D02*
X10835Y9510D01*
X7950Y8724D02*
X7951Y8725D01*
X10078Y8568D02*
X10835Y7810D01*
X6535Y8910D02*
X6722Y8724D01*
X8016Y8568D02*
X10078D01*
X7951Y8725D02*
X10050D01*
X6722Y8724D02*
X7950D01*
X8015Y8567D02*
X8016Y8568D01*
X7535Y8960D02*
Y9623D01*
X7035Y9010D02*
Y9623D01*
X6535Y8910D02*
Y9623D01*
X6285Y6010D02*
Y6210D01*
X6485Y6410D01*
X3913Y5060D02*
X3963Y5010D01*
X4770D01*
Y4545D02*
Y5029D01*
Y5460D01*
X7042Y5286D02*
X8111D01*
X4735Y4510D02*
X4770Y4545D01*
X8685Y5310D02*
X8744D01*
X9450Y6016D01*
X9474D01*
X9592Y6134D01*
X8535Y7175D02*
Y7497D01*
X8585Y6066D02*
X8626Y6025D01*
X8585Y6066D02*
Y7125D01*
X8535Y7175D02*
X8585Y7125D01*
D16*
X1688Y22660D02*
X4262D01*
X4400Y22522D01*
Y21232D02*
Y22522D01*
X1550D02*
X1688Y22660D01*
X1550Y21146D02*
Y22522D01*
Y21146D02*
X2635Y20060D01*
X500Y15200D02*
Y15900D01*
Y14550D02*
Y15200D01*
X1235Y18260D02*
X1285D01*
X500Y17525D02*
X1235Y18260D01*
X500Y15900D02*
Y17525D01*
X29450Y1550D02*
X34500D01*
X34485Y1565D02*
Y2910D01*
X29485Y1585D02*
Y2910D01*
X29450Y1550D02*
X29485Y1585D01*
X19450Y1550D02*
X24500D01*
X24485Y1565D02*
Y2910D01*
X19485Y1585D02*
Y2910D01*
X19450Y1550D02*
X19485Y1585D01*
X14485D02*
Y2910D01*
X14450Y1550D02*
X14485Y1585D01*
X9537Y1550D02*
X14450D01*
X4624D02*
X9537D01*
X9485Y1601D02*
Y2910D01*
Y1601D02*
X9537Y1550D01*
X4485Y1688D02*
Y2910D01*
Y1688D02*
X4624Y1550D01*
X39485Y1835D02*
Y2910D01*
X34500Y1550D02*
X39200D01*
X39485Y1835D01*
X24500Y1550D02*
X29450D01*
X14450D02*
X19450D01*
X1521Y24810D02*
Y25871D01*
X1700Y26050D02*
X6521D01*
X1521Y25871D02*
X1700Y26050D01*
X6521Y24810D02*
Y26050D01*
X11521Y24810D02*
Y26050D01*
X16521Y24810D02*
Y26050D01*
X21521Y24910D02*
Y26050D01*
X26486D01*
X31450D01*
X26486Y24896D02*
X26521Y24860D01*
X26486Y24896D02*
Y26050D01*
X31450Y24881D02*
X31521Y24810D01*
X31450Y24881D02*
Y26050D01*
X36383D01*
X36521Y24810D02*
Y25912D01*
X36383Y26050D02*
X36521Y25912D01*
X16521Y26050D02*
X21521D01*
X11521D02*
X16521D01*
X6521D02*
X11521D01*
X4910Y12650D02*
Y14535D01*
Y12235D02*
Y12650D01*
X4835Y12160D02*
X4910Y12235D01*
X8950Y17660D02*
Y18225D01*
X8985Y18260D01*
X7227Y15302D02*
X7830D01*
X7035Y15110D02*
X7227Y15302D01*
X9641D02*
Y15578D01*
X8950Y17660D02*
Y17660D01*
Y17660D02*
X9835D01*
X9835Y17660D01*
X4910Y14535D02*
X4985Y14610D01*
X2635Y18399D02*
Y20060D01*
X1285Y18260D02*
X2497D01*
X2635Y18399D01*
D25*
X16400Y20500D02*
D03*
X16400Y21215D02*
D03*
X11935Y11575D02*
D03*
X11935Y10860D02*
D03*
X9385Y11575D02*
D03*
X9385Y10860D02*
D03*
X11085Y11575D02*
D03*
X11085Y10860D02*
D03*
X7735Y11575D02*
D03*
X7735Y10860D02*
D03*
X17600Y18650D02*
D03*
X17600Y17935D02*
D03*
X17600Y10650D02*
D03*
X17600Y9935D02*
D03*
X6585Y16395D02*
D03*
X6585Y17110D02*
D03*
X7385Y17125D02*
D03*
X7385Y16410D02*
D03*
X6285Y5295D02*
D03*
X6285Y6010D02*
D03*
X8685Y6025D02*
D03*
X8685Y5310D02*
D03*
D26*
X34716Y8230D02*
D03*
Y7796D02*
D03*
Y7363D02*
D03*
Y6930D02*
D03*
Y6497D02*
D03*
Y6064D02*
D03*
Y5631D02*
D03*
Y5198D02*
D03*
Y4824D02*
D03*
D27*
Y8840D02*
D03*
X36409Y4450D02*
D03*
D28*
X38850D02*
D03*
D29*
X40484D02*
D03*
D30*
X40661Y9765D02*
D03*
D31*
X4835Y4510D02*
D03*
X5550Y4510D02*
D03*
X21200Y23650D02*
D03*
X20485Y23650D02*
D03*
X23400Y23650D02*
D03*
X22685Y23650D02*
D03*
X10570Y17510D02*
D03*
X11285Y17510D02*
D03*
X11300Y16860D02*
D03*
X10585Y16860D02*
D03*
X11885Y16200D02*
D03*
X12600Y16200D02*
D03*
X8950Y17660D02*
D03*
X8235Y17660D02*
D03*
X11300Y18160D02*
D03*
X10585Y18160D02*
D03*
X10885Y21160D02*
D03*
X11600Y21160D02*
D03*
X9571Y21793D02*
D03*
X10285Y21793D02*
D03*
X10300Y21160D02*
D03*
X9585Y21160D02*
D03*
X6571Y22660D02*
D03*
X7285Y22660D02*
D03*
X5700Y19760D02*
D03*
X4985Y19760D02*
D03*
X4971Y17610D02*
D03*
X5685Y17610D02*
D03*
D32*
X1319Y6664D02*
D03*
Y10168D02*
D03*
X3484D02*
D03*
Y6664D02*
D03*
D33*
X3819Y9046D02*
D03*
Y8731D02*
D03*
Y8416D02*
D03*
Y8101D02*
D03*
Y7786D02*
D03*
D34*
X10700Y14750D02*
D03*
Y13450D02*
D03*
X36350Y10700D02*
D03*
Y12000D02*
D03*
Y13150D02*
D03*
Y14450D02*
D03*
Y17310D02*
D03*
Y18610D02*
D03*
X12350Y21050D02*
D03*
Y19750D02*
D03*
D35*
X11215Y16200D02*
D03*
X10585D02*
D03*
X5400Y5460D02*
D03*
X4770D02*
D03*
X11985Y8600D02*
D03*
X12615D02*
D03*
X11985Y9200D02*
D03*
X12615D02*
D03*
X9620Y22410D02*
D03*
X10250D02*
D03*
D36*
X11908Y15206D02*
D03*
Y14300D02*
D03*
Y13394D02*
D03*
D37*
X14192Y14300D02*
D03*
D38*
X7829Y5660D02*
D03*
X7042Y6034D02*
D03*
Y5286D02*
D03*
X10379Y5760D02*
D03*
X9592Y6134D02*
D03*
Y5386D02*
D03*
D39*
X36290Y15506D02*
D03*
Y16294D02*
D03*
D40*
X31928Y15283D02*
D03*
X32184D02*
D03*
X34743D02*
D03*
X34487D02*
D03*
X34231D02*
D03*
X33975D02*
D03*
X33719D02*
D03*
X33463D02*
D03*
X33207D02*
D03*
X32952D02*
D03*
X32696D02*
D03*
X32440D02*
D03*
X31928Y18137D02*
D03*
X32184D02*
D03*
X32440D02*
D03*
X32696D02*
D03*
X32952D02*
D03*
X33207D02*
D03*
X33463D02*
D03*
X33719D02*
D03*
X33975D02*
D03*
X34231D02*
D03*
X34487D02*
D03*
X34743D02*
D03*
D41*
X35045Y13160D02*
D03*
X34795D02*
D03*
X34535D02*
D03*
X34285D02*
D03*
X34025D02*
D03*
X33765D02*
D03*
X33515D02*
D03*
X33255D02*
D03*
X33005D02*
D03*
X32745D02*
D03*
X32485D02*
D03*
X32235D02*
D03*
X31975D02*
D03*
X31725D02*
D03*
Y10860D02*
D03*
X31975D02*
D03*
X32235D02*
D03*
X32485D02*
D03*
X32745D02*
D03*
X33005D02*
D03*
X33255D02*
D03*
X33515D02*
D03*
X33765D02*
D03*
X34025D02*
D03*
X34285D02*
D03*
X34535D02*
D03*
X34795D02*
D03*
X35045D02*
D03*
D42*
X25906Y16857D02*
D03*
X25406D02*
D03*
X24906D02*
D03*
X24406D02*
D03*
X23906D02*
D03*
X23406D02*
D03*
X22906D02*
D03*
X22406D02*
D03*
X21906D02*
D03*
X21406D02*
D03*
X20906D02*
D03*
X20406D02*
D03*
X19906D02*
D03*
X19406D02*
D03*
Y10164D02*
D03*
X19906D02*
D03*
X20406D02*
D03*
X20906D02*
D03*
X21406D02*
D03*
X21906D02*
D03*
X22406D02*
D03*
X22906D02*
D03*
X23406D02*
D03*
X23906D02*
D03*
X24406D02*
D03*
X24906D02*
D03*
X25406D02*
D03*
X25906D02*
D03*
D43*
X19013Y15760D02*
D03*
Y15260D02*
D03*
Y14760D02*
D03*
Y14260D02*
D03*
Y13760D02*
D03*
Y13260D02*
D03*
Y12760D02*
D03*
Y12260D02*
D03*
Y11760D02*
D03*
Y11260D02*
D03*
D44*
X23676Y14626D02*
D03*
Y13904D02*
D03*
Y13182D02*
D03*
X22954Y14626D02*
D03*
Y13904D02*
D03*
Y13182D02*
D03*
X22231Y14626D02*
D03*
Y13904D02*
D03*
Y13182D02*
D03*
D45*
X18533Y21290D02*
D03*
X20462D02*
D03*
X18533Y20030D02*
D03*
X20462D02*
D03*
X30698D02*
D03*
X28769D02*
D03*
X30698Y21290D02*
D03*
X28769D02*
D03*
X25580Y20030D02*
D03*
X23651D02*
D03*
X25580Y21290D02*
D03*
X23651D02*
D03*
X28769Y7530D02*
D03*
X30698D02*
D03*
X28769Y6270D02*
D03*
X30698D02*
D03*
X23651Y7530D02*
D03*
X25580D02*
D03*
X23651Y6270D02*
D03*
X25580D02*
D03*
X20462D02*
D03*
X18533D02*
D03*
X20462Y7530D02*
D03*
X18533D02*
D03*
X13371D02*
D03*
X15300D02*
D03*
X13371Y6270D02*
D03*
X15300D02*
D03*
Y20030D02*
D03*
X13371D02*
D03*
X15300Y21290D02*
D03*
X13371D02*
D03*
D46*
X16615Y9614D02*
D03*
Y11386D02*
D03*
X13485Y9614D02*
D03*
Y11386D02*
D03*
X16615Y17300D02*
D03*
Y19072D02*
D03*
X13485Y17300D02*
D03*
Y19072D02*
D03*
D47*
X12700Y10270D02*
D03*
Y10900D02*
D03*
X8235Y16245D02*
D03*
Y16875D02*
D03*
X8985Y16875D02*
D03*
Y16245D02*
D03*
X12600Y17935D02*
D03*
Y18565D02*
D03*
X3335Y15575D02*
D03*
Y14945D02*
D03*
D48*
X10885Y9510D02*
D03*
Y7810D02*
D03*
X1285Y19260D02*
D03*
D49*
X10235Y10760D02*
D03*
Y11660D02*
D03*
X8585Y10760D02*
D03*
Y11660D02*
D03*
X9835Y16760D02*
D03*
Y17660D02*
D03*
D50*
X9641Y15302D02*
D03*
X8735D02*
D03*
X7830D02*
D03*
D51*
X8735Y13018D02*
D03*
D52*
X13660Y22400D02*
D03*
X12360D02*
D03*
X6325Y20910D02*
D03*
X7625D02*
D03*
X15760Y13550D02*
D03*
X17060D02*
D03*
D53*
X11250Y22683D02*
D03*
X11624Y21856D02*
D03*
X10876D02*
D03*
X5335Y16127D02*
D03*
X4961Y16954D02*
D03*
X5709D02*
D03*
D54*
X10898Y18910D02*
D03*
Y19410D02*
D03*
Y19910D02*
D03*
Y20410D02*
D03*
X8673Y18910D02*
D03*
Y19410D02*
D03*
Y19910D02*
D03*
Y20410D02*
D03*
D55*
X7085Y19510D02*
D03*
X1785Y14610D02*
D03*
D56*
X7085Y18110D02*
D03*
X1785Y16010D02*
D03*
D57*
X7585Y21810D02*
D03*
D58*
X6385D02*
D03*
D59*
X4837Y18286D02*
D03*
X5822Y18660D02*
D03*
X4837Y19034D02*
D03*
D60*
X6127Y14610D02*
D03*
X4985D02*
D03*
D61*
X4835Y12160D02*
D03*
X6536D02*
D03*
D62*
X1338Y13610D02*
D03*
Y13110D02*
D03*
Y12110D02*
D03*
X3385Y13610D02*
D03*
Y13110D02*
D03*
Y12110D02*
D03*
X1338Y12610D02*
D03*
X3385D02*
D03*
D63*
X9535Y9623D02*
D03*
X9035D02*
D03*
X8535D02*
D03*
X8035D02*
D03*
X7535D02*
D03*
X7035D02*
D03*
X6535D02*
D03*
X6035D02*
D03*
X9535Y7497D02*
D03*
X9035D02*
D03*
X8535D02*
D03*
X8035D02*
D03*
X7535D02*
D03*
X7035D02*
D03*
X6535D02*
D03*
X6035D02*
D03*
D64*
X1072Y5350D02*
D03*
X3828D02*
D03*
D65*
X14250Y16200D02*
D03*
X13350D02*
D03*
D122*
X35190Y8840D02*
X35200Y8850D01*
X34716Y6930D02*
X34760Y6974D01*
X35294D02*
X35316Y6996D01*
X34716Y8840D02*
X35190D01*
X35198Y6064D02*
X35373Y5889D01*
X39865Y9765D02*
X40661D01*
X34716Y6064D02*
X35198D01*
X39850Y9750D02*
X39865Y9765D01*
X34760Y6974D02*
X35294D01*
X3819Y9046D02*
X4125D01*
X4165Y9085D02*
Y9440D01*
X4125Y9046D02*
X4165Y9085D01*
X33650Y15983D02*
Y16100D01*
X33463Y15797D02*
X33650Y15983D01*
X3350Y4200D02*
X3600Y3950D01*
X3350Y5700D02*
X3550Y5900D01*
X3350Y4200D02*
Y5700D01*
X33207Y14893D02*
Y15283D01*
Y14893D02*
X33400Y14700D01*
X33950Y13900D02*
X34350Y14300D01*
X33950Y13850D02*
Y13900D01*
X34488Y13800D02*
X34850Y14162D01*
X34450Y13800D02*
X34488D01*
X33255Y13567D02*
X34487Y14799D01*
Y15283D01*
X33255Y13160D02*
Y13567D01*
X33005Y13656D02*
X34231Y14881D01*
Y15283D01*
X32745Y13674D02*
X33975Y14904D01*
Y15283D01*
X10898Y19910D02*
X11490D01*
X11500Y19900D01*
X11739Y20420D02*
X11756Y20403D01*
Y19794D02*
Y20403D01*
X11750Y19788D02*
X11756Y19794D01*
X11750Y16892D02*
Y19788D01*
X5700Y8050D02*
X5800Y8150D01*
X5700Y9100D02*
X5800Y9000D01*
Y8150D02*
Y9000D01*
X5700Y9100D02*
Y10250D01*
X5900Y10450D02*
X7000D01*
X5700Y10250D02*
X5900Y10450D01*
X7762Y10437D02*
X7954D01*
X7013D02*
X7762D01*
X7735Y10464D02*
Y10775D01*
Y10464D02*
X7762Y10437D01*
X7000Y10450D02*
X7013Y10437D01*
X8023Y9636D02*
X8035Y9623D01*
X8023Y9636D02*
Y10368D01*
X7954Y10437D02*
X8023Y10368D01*
X17400Y5200D02*
Y6600D01*
Y4800D02*
Y5200D01*
X15300D02*
X17400D01*
X17250Y4650D02*
X17400Y4800D01*
X33255Y10860D02*
Y12195D01*
X33123Y12327D02*
Y12377D01*
Y12327D02*
X33255Y12195D01*
X33100Y12400D02*
X33123Y12377D01*
X32128Y21150D02*
X32328Y21350D01*
X36150D02*
X38521Y23721D01*
X32328Y21350D02*
X36150D01*
X32123Y21573D02*
X34081D01*
X34150Y21642D01*
Y23500D01*
X32100Y21150D02*
X32128D01*
X32100Y21550D02*
X32123Y21573D01*
X11739Y20439D02*
X12104Y20804D01*
X11739Y20420D02*
Y20439D01*
X35800Y10700D02*
X36350D01*
X35750Y10750D02*
X35800Y10700D01*
X33003Y10862D02*
Y11299D01*
X32185Y12118D02*
X32185D01*
X33003Y11299D01*
X31725Y13160D02*
X31736Y13149D01*
Y12844D02*
Y13149D01*
Y12844D02*
X32181Y12400D01*
X32400D01*
X31197Y12827D02*
Y22453D01*
X32734Y10871D02*
Y11290D01*
X31197Y12827D02*
X32734Y11290D01*
X33003Y10862D02*
X33005Y10860D01*
X31394Y12908D02*
X32185Y12118D01*
X31394Y12908D02*
Y22534D01*
X34025Y12425D02*
Y13160D01*
X34000Y12400D02*
X34025Y12425D01*
X24906Y10164D02*
Y11444D01*
X30597Y15200D02*
X30600Y15197D01*
Y9300D02*
Y15197D01*
X24906Y8888D02*
Y10164D01*
X30644Y15600D02*
X30700D01*
X36350Y13150D02*
X36375D01*
X36875Y12650D01*
X37150D01*
X18360Y15760D02*
X19013D01*
X18350Y15750D02*
X18360Y15760D01*
X19013D02*
X19073Y15700D01*
X19800D01*
X16615Y17300D02*
X16650Y17335D01*
Y17800D01*
X16615Y16615D02*
Y17300D01*
X16600Y16600D02*
X16615Y16615D01*
X12600Y18565D02*
X12974D01*
X13239Y18830D01*
Y18875D01*
X13436Y19072D01*
X13485D01*
X9711Y6800D02*
X10150D01*
X9535Y6975D02*
X9711Y6800D01*
X9535Y6975D02*
Y7497D01*
X32952Y14763D02*
Y15283D01*
X32944Y14756D02*
X32952Y14763D01*
X32485Y13940D02*
X32944Y14399D01*
Y14756D01*
X1338Y11838D02*
Y12110D01*
X1100Y11600D02*
X1338Y11838D01*
X500Y11550D02*
X550Y11600D01*
X1100D01*
X22150Y19100D02*
X23700D01*
X21250Y18750D02*
X30188D01*
X21503Y18553D02*
X30353D01*
X21706Y18356D02*
X30469D01*
X21909Y18159D02*
X30602D01*
X21406Y17656D02*
X21909Y18159D01*
X20906Y17556D02*
X21706Y18356D01*
X20406Y17456D02*
X21503Y18553D01*
X19900Y17400D02*
X21250Y18750D01*
X21406Y16857D02*
Y17656D01*
X13300Y18400D02*
X16500D01*
X11300Y18160D02*
X11316Y18176D01*
X11102Y18910D02*
X11316Y18696D01*
Y18176D02*
Y18696D01*
X10898Y18910D02*
X11102D01*
X17600Y10750D02*
X18150D01*
X18300Y10900D01*
Y11650D01*
X18410Y11760D02*
X19013D01*
X18300Y11650D02*
X18410Y11760D01*
X17600Y18750D02*
X18950D01*
X19406Y18294D01*
Y16857D02*
Y18294D01*
X16615Y19072D02*
X17200D01*
X17522Y18750D01*
X17600D01*
X13485Y19072D02*
X16615D01*
X17550Y9800D02*
X17600Y9850D01*
X17550Y9350D02*
Y9800D01*
X16615Y11386D02*
X16664D01*
X17162Y10888D01*
X17462D01*
X17600Y10750D01*
X13485Y11386D02*
X16615D01*
X12700Y10900D02*
X12720D01*
X13009Y11189D01*
X13288D01*
X13485Y11386D01*
X5450Y5900D02*
X5700Y6150D01*
X3550Y5900D02*
X5450D01*
X5700Y6150D02*
Y8050D01*
X3600Y3950D02*
X5450D01*
X5627Y4127D01*
Y4502D02*
X5635Y4510D01*
X5627Y4127D02*
Y4502D01*
X33521Y24129D02*
Y24810D01*
Y24129D02*
X34150Y23500D01*
X28066Y19966D02*
X28100Y20000D01*
X28739D01*
X17350Y6650D02*
X17400Y6600D01*
X16200Y6650D02*
X17350D01*
X21450Y12900D02*
Y13950D01*
Y12900D02*
X23406Y10944D01*
X20262Y23512D02*
X20400Y23650D01*
X20262Y22612D02*
Y23512D01*
X20250Y22600D02*
X20262Y22612D01*
X22050Y23650D02*
X22600D01*
X21300Y23572D02*
Y23650D01*
Y23572D02*
X22250Y22622D01*
Y22600D02*
Y22622D01*
X23250Y22600D02*
Y22900D01*
X23500Y23150D02*
Y23650D01*
X23250Y22900D02*
X23500Y23150D01*
X29750Y23900D02*
X31197Y22453D01*
X24456Y23900D02*
X29750D01*
X23521Y24835D02*
X24456Y23900D01*
X28521Y24233D02*
Y24860D01*
Y24233D02*
X28657Y24097D01*
X29832D01*
X31394Y22534D01*
X35045Y10860D02*
Y11541D01*
X35500Y11995D01*
X36495D01*
X35500D02*
Y13600D01*
X37950Y11950D02*
X38150Y11750D01*
X36495Y11995D02*
X36541Y11950D01*
X37950D01*
X22740Y3792D02*
X31642D01*
X31756Y3906D01*
Y10610D01*
X28090Y3590D02*
X31790D01*
X31975Y3775D02*
Y10860D01*
X31790Y3590D02*
X31975Y3775D01*
X37123Y3900D02*
X37485Y3537D01*
X32485Y4773D02*
X33359Y3900D01*
X37123D01*
X22485Y2910D02*
Y3537D01*
X27485Y2985D02*
X28090Y3590D01*
X31736Y10629D02*
X31756Y10610D01*
X22485Y3537D02*
X22740Y3792D01*
X31736Y10629D02*
Y10849D01*
X31725Y10860D02*
X31736Y10849D01*
X27485Y2910D02*
Y2985D01*
X32485Y2910D02*
Y4495D01*
X32235Y4745D02*
X32485Y4495D01*
Y4773D02*
Y10860D01*
X32235Y4745D02*
Y10860D01*
X24906Y8888D02*
X24975Y8819D01*
X30119D01*
X35045Y10750D02*
Y10860D01*
X35034Y10739D02*
X35045Y10750D01*
X35034Y10544D02*
Y10739D01*
X34590Y10100D02*
X35034Y10544D01*
X33950Y10100D02*
X34590D01*
X23203Y11650D02*
X24700D01*
X24906Y11444D01*
X37485Y2910D02*
Y3537D01*
X36325Y14450D02*
X36350D01*
X36084Y14209D02*
X36325Y14450D01*
X36084Y14184D02*
Y14209D01*
X35500Y13600D02*
X36084Y14184D01*
X36760Y19790D02*
X37078Y19472D01*
X32534Y19790D02*
X36760D01*
X37078Y16972D02*
Y19472D01*
X37275Y17075D02*
Y19575D01*
X32331Y19987D02*
X36863D01*
X37275Y19575D01*
X38224Y15636D02*
X38300Y15560D01*
X38224Y15636D02*
Y15826D01*
X37078Y16972D02*
X38224Y15826D01*
X38261Y16389D02*
X38300Y16350D01*
X37275Y17075D02*
X37961Y16389D01*
X38261D01*
X31926Y20000D02*
X32116Y20190D01*
X31894Y20406D02*
X31906Y20394D01*
X36494D02*
X38300Y22200D01*
X31894Y20000D02*
X31926D01*
X31906Y20394D02*
X36494D01*
X32116Y20190D02*
X37080D01*
X38300Y21410D01*
X34900Y12350D02*
Y12550D01*
X34795Y12245D02*
X34900Y12350D01*
X22353Y12500D02*
X23203Y11650D01*
X30119Y8819D02*
X30600Y9300D01*
X23406Y10164D02*
Y10944D01*
X38521Y23721D02*
Y24810D01*
X15050Y14550D02*
X18100D01*
X14950Y13800D02*
Y14450D01*
X15050Y14550D01*
X11215Y16200D02*
X11885D01*
X34003Y18803D02*
X34250Y19050D01*
X34487Y18737D02*
X34543Y18793D01*
X34487Y18137D02*
Y18737D01*
X33700Y19000D02*
X34000Y19300D01*
X33382Y19000D02*
X33700D01*
X32952Y18569D02*
X33382Y19000D01*
X33463Y18595D02*
X33672Y18803D01*
X34003D01*
X32952Y18137D02*
Y18569D01*
X33463Y18137D02*
Y18595D01*
X30856Y9278D02*
Y15444D01*
X30128Y8550D02*
X30856Y9278D01*
X30700Y15600D02*
X30856Y15444D01*
X23550Y8550D02*
X30128D01*
X23406Y8694D02*
Y10164D01*
X34500Y12400D02*
X34535Y12365D01*
Y10860D02*
Y12365D01*
X33505Y10871D02*
Y12383D01*
Y10871D02*
X33515Y10860D01*
X33494Y12394D02*
X33505Y12383D01*
X34795Y10860D02*
Y12245D01*
X23406Y8694D02*
X23550Y8550D01*
X34795Y10860D02*
X34806Y10849D01*
X15550Y14200D02*
X17850D01*
X30353Y18553D02*
X30832Y19032D01*
X30469Y18356D02*
X30789Y18676D01*
X30838D01*
X30188Y18750D02*
X30813Y19375D01*
X19900Y16863D02*
Y17400D01*
X20406Y16857D02*
Y17456D01*
X20906Y16857D02*
Y17556D01*
X30787Y18344D02*
X30819D01*
X19900Y16863D02*
X19906Y16857D01*
X30602Y18159D02*
X30787Y18344D01*
X31894Y19150D02*
X32534Y19790D01*
X31894Y19550D02*
X32331Y19987D01*
X32634Y19534D02*
X33766D01*
X32734Y10871D02*
X32745Y10860D01*
X32184Y19084D02*
X32634Y19534D01*
X18500Y10450D02*
X18950Y10900D01*
Y11198D01*
X19013Y11260D01*
X28739Y20000D02*
X28769Y20030D01*
X8673Y19410D02*
X9575D01*
X9585Y18710D02*
Y19400D01*
X9575Y19410D02*
X9585Y19400D01*
Y21160D01*
X32184Y18137D02*
Y19084D01*
X34487Y18137D02*
X34743D01*
X33463D02*
X33719D01*
X32952D02*
X33207D01*
X31928D02*
X32184D01*
X33463Y15283D02*
Y15797D01*
X23521Y24835D02*
Y24910D01*
X10898Y19410D02*
Y19910D01*
X10135Y18160D02*
X10585D01*
X9585Y18710D02*
X10135Y18160D01*
X10570Y17510D02*
X10578Y17503D01*
Y16868D02*
Y17503D01*
Y16868D02*
X10585Y16860D01*
X11293Y18153D02*
X11300Y18160D01*
X11293Y17518D02*
Y18153D01*
X11285Y17510D02*
X11293Y17518D01*
X8135Y21360D02*
Y23041D01*
X8335Y21160D02*
X9585D01*
X8135Y21360D02*
X8335Y21160D01*
X6640Y23110D02*
X8066D01*
X6571Y22660D02*
Y23041D01*
X6640Y23110D01*
X8066D02*
X8135Y23041D01*
X11085Y10410D02*
Y10775D01*
X9535Y7497D02*
Y8160D01*
X33005Y13160D02*
Y13656D01*
X32745Y13160D02*
Y13674D01*
X32485Y13160D02*
Y13940D01*
X32235Y13968D02*
X32696Y14429D01*
Y15283D01*
X32235Y13160D02*
Y13968D01*
X32440Y14451D02*
Y15283D01*
X31975Y13160D02*
Y13987D01*
X32440Y14451D01*
D123*
X31800Y22050D02*
X33439D01*
X33489Y22100D02*
X33500D01*
X33439Y22050D02*
X33489Y22100D01*
X25406Y17606D02*
X25430Y17630D01*
X36979Y23521D02*
X37821D01*
X36521Y23979D02*
Y24810D01*
Y23979D02*
X36979Y23521D01*
X37821D02*
X37850Y23550D01*
X11128Y12500D02*
X17850D01*
X37610Y20088D02*
Y20092D01*
X37609Y20087D02*
X37610Y20088D01*
X35350Y15425D02*
X36325Y14450D01*
X35350Y15425D02*
Y16150D01*
X36350Y14450D02*
X36375D01*
X36577Y14248D01*
Y14223D02*
Y14248D01*
Y14223D02*
X36820Y13980D01*
X38300D01*
X6127Y14610D02*
Y15024D01*
X6485Y15382D02*
X6557D01*
X6127Y15024D02*
X6485Y15382D01*
X6557D02*
X6885Y15710D01*
X12184Y14300D02*
X12282Y14398D01*
X15100Y15500D02*
X15350Y15750D01*
X11885Y16200D02*
Y16200D01*
X12282Y14398D02*
Y14432D01*
X11885Y15815D02*
Y16200D01*
X12000Y15700D02*
X12585D01*
X12900Y15385D01*
X13015Y15500D02*
X15100D01*
X12900Y14365D02*
Y15385D01*
X13015Y15500D01*
X12184Y14250D02*
X12785D01*
X12900Y14365D01*
X11885Y15815D02*
X12000Y15700D01*
X11908Y14300D02*
X12184D01*
X25406Y16857D02*
Y17606D01*
X37609Y18941D02*
Y20087D01*
Y18941D02*
X38300Y18250D01*
X17850Y12500D02*
X17875Y12475D01*
X36290Y16772D02*
Y17250D01*
Y16294D02*
Y16772D01*
Y17250D02*
X36350Y17310D01*
D124*
X13332Y21251D02*
X13371Y21290D01*
X12341Y21251D02*
X13332D01*
X8110Y19410D02*
X8673D01*
X8100Y19400D02*
X8110Y19410D01*
X12522Y6828D02*
X13105Y7412D01*
X13371Y7530D02*
X13469D01*
X13105Y7412D02*
X13253D01*
X13371Y7530D01*
X14239Y8300D02*
X18600D01*
X30250Y14300D02*
Y15850D01*
X30500Y16100D01*
X17050Y16050D02*
X17600Y16600D01*
X16400Y16050D02*
X17050D01*
X17600Y16600D02*
Y17850D01*
X12104Y20804D02*
Y20829D01*
X12325Y21050D01*
X12350D01*
X11842Y16800D02*
X15708D01*
X11750Y16892D02*
X11842Y16800D01*
X15800Y15292D02*
Y16708D01*
X15708Y16800D02*
X15800Y16708D01*
X8811Y14689D02*
X10100Y13400D01*
X12778Y12800D02*
X13350D01*
X16312Y8588D02*
X17538D01*
X17554Y8604D01*
X16300Y8600D02*
X16312Y8588D01*
X13469Y7530D02*
X14239Y8300D01*
X15300Y7530D02*
X16330D01*
X16800Y8000D02*
X16800D01*
X16330Y7530D02*
X16800Y8000D01*
X25800Y10950D02*
Y12000D01*
X25575Y12225D02*
X25800Y12000D01*
X31928Y16772D02*
X34835D01*
X31928Y16772D02*
X31928Y16772D01*
X31928Y15283D02*
Y17078D01*
X24525Y12225D02*
X25575D01*
X31928Y17078D02*
X31950Y17100D01*
X11117Y16102D02*
X11215Y16200D01*
X11117Y15788D02*
Y16102D01*
X11050Y15721D02*
X11117Y15788D01*
X11050Y15700D02*
Y15721D01*
X8811Y14689D02*
Y15226D01*
X8735Y15302D02*
X8811Y15226D01*
X7800Y16875D02*
X8235D01*
X11624Y22428D02*
Y24707D01*
Y21856D02*
Y22428D01*
X12332D02*
X12360Y22400D01*
X11624Y22428D02*
X12332D01*
X13350Y12800D02*
X15668D01*
X15760Y12892D01*
Y13550D01*
X15708Y15200D02*
X15800Y15292D01*
X13350Y15200D02*
X15708D01*
X13275Y15125D02*
X13350Y15200D01*
X13275Y12875D02*
Y15125D01*
Y12875D02*
X13350Y12800D01*
X11908Y13394D02*
X12184D01*
X12778Y12800D01*
X11885Y16200D02*
X11885D01*
X11885Y16200D01*
X10100Y13400D02*
X10750D01*
X27901Y8300D02*
X28671Y7530D01*
X23700Y8300D02*
X27901D01*
X23651Y8251D02*
X23700Y8300D01*
X18600D02*
X23700D01*
X18533Y7530D02*
Y8233D01*
X18600Y8300D01*
X23651Y7530D02*
Y8251D01*
X28671Y7530D02*
X28769D01*
X10750Y13400D02*
X10756Y13394D01*
X11908D01*
X12600Y16200D02*
X13350D01*
X24485Y1565D02*
X24500Y1550D01*
X34485Y1565D02*
X34500Y1550D01*
X11250Y22683D02*
Y23100D01*
X11521Y24810D02*
X11624Y24707D01*
X10876Y21856D02*
X10881Y21852D01*
Y21165D02*
Y21852D01*
Y21165D02*
X10885Y21160D01*
X18550Y21800D02*
X23750D01*
X13980D02*
X18550D01*
X18533Y21290D02*
X18550Y21307D01*
Y21800D01*
X23750D02*
X28161D01*
X23651Y21290D02*
X23750Y21389D01*
Y21800D01*
X28671Y21290D02*
X28769D01*
X28161Y21800D02*
X28671Y21290D01*
X13371D02*
X13469D01*
X13980Y21800D01*
X3385Y12610D02*
X4870D01*
X4910Y12650D01*
X31928Y15283D02*
X32184D01*
X34835Y16772D02*
X36290D01*
X34743Y15283D02*
Y16680D01*
X34835Y16772D01*
X33463Y15283D02*
X33719D01*
X4966Y16939D02*
Y17606D01*
X4485Y17610D02*
X4970D01*
X4971Y17610D01*
X4537Y16510D02*
X4966Y16939D01*
X3085Y16510D02*
X4537D01*
X1285Y17260D02*
X2335D01*
X3085Y16510D01*
X1338Y13965D02*
X1705Y14332D01*
X1338Y13610D02*
Y13965D01*
X1705Y14332D02*
X1731D01*
X1785Y14386D01*
Y14610D01*
X1338Y13110D02*
Y13610D01*
Y12610D02*
Y13110D01*
Y12110D02*
Y12610D01*
X2535Y16010D02*
X3385D01*
X2535Y12202D02*
Y16010D01*
Y12202D02*
X2628Y12110D01*
X1785Y16010D02*
X2535D01*
X2628Y12110D02*
X3385D01*
Y13110D02*
X4114D01*
X4214Y13210D01*
X4235D01*
X6526Y16395D02*
X6585D01*
X6091Y15960D02*
X6526Y16395D01*
X6085Y15960D02*
X6091D01*
X7085Y17854D02*
Y18110D01*
Y17854D02*
X7385Y17554D01*
Y17125D02*
Y17554D01*
X8235Y16875D02*
Y17660D01*
X8235Y17660D02*
X8235Y17660D01*
Y16875D02*
X8235Y16875D01*
X7444Y17125D02*
X7694Y16875D01*
X7385Y17125D02*
X7444D01*
X8235Y16875D02*
X8985D01*
X7385Y16410D02*
X8051D01*
X8216Y16245D01*
X8235D01*
X6585Y16395D02*
X6593Y16403D01*
X7378D01*
X7385Y16410D01*
X8985Y16875D02*
X8985Y16875D01*
X3385Y16010D02*
X5218D01*
X5335Y16107D02*
Y16127D01*
X5257Y16029D02*
X5335Y16107D01*
X5237Y16029D02*
X5257D01*
X5218Y16010D02*
X5237Y16029D01*
X3335Y15575D02*
Y15960D01*
X3385Y16010D01*
X4966Y17606D02*
X4971Y17610D01*
X5685Y17610D02*
X5697Y17598D01*
Y16966D02*
Y17598D01*
Y16966D02*
X5709Y16954D01*
X5822Y17806D02*
Y18660D01*
X5685Y17669D02*
X5822Y17806D01*
X5685Y17610D02*
Y17669D01*
X4985Y19701D02*
Y19760D01*
X4837Y19553D02*
X4985Y19701D01*
X4837Y19034D02*
Y19553D01*
D125*
X2500Y7550D02*
D03*
Y9282D02*
D03*
X35200Y8850D02*
D03*
X35500Y5300D02*
D03*
X35673Y6189D02*
D03*
X35373Y5889D02*
D03*
X39850Y9750D02*
D03*
X35316Y6996D02*
D03*
X35950Y6650D02*
D03*
X35189Y6623D02*
D03*
X5100Y8400D02*
D03*
X4700Y8750D02*
D03*
X4165Y9440D02*
D03*
X33650Y16100D02*
D03*
X33500Y22100D02*
D03*
X24918Y15960D02*
D03*
X25430Y17630D02*
D03*
X33400Y14700D02*
D03*
X33950Y13850D02*
D03*
X34450Y13800D02*
D03*
X11500Y19900D02*
D03*
X8100Y19400D02*
D03*
X7000Y10450D02*
D03*
X15300Y5200D02*
D03*
X12522Y6828D02*
D03*
X11128Y12500D02*
D03*
X11739Y20420D02*
D03*
X5150Y6700D02*
D03*
X6100D02*
D03*
X33050Y9000D02*
D03*
X35750Y10750D02*
D03*
X32400Y12400D02*
D03*
X34000D02*
D03*
X30597Y15200D02*
D03*
X30850Y16500D02*
D03*
X30644Y15600D02*
D03*
X37150Y12650D02*
D03*
X18350Y15750D02*
D03*
X19800Y15700D02*
D03*
X16650Y17800D02*
D03*
X16600Y16600D02*
D03*
X16400Y16050D02*
D03*
X34350Y14300D02*
D03*
X10150Y6800D02*
D03*
X34850Y14162D02*
D03*
X37850Y23550D02*
D03*
X23700Y19100D02*
D03*
X22150D02*
D03*
X16500Y18400D02*
D03*
X13300D02*
D03*
X17450Y20200D02*
D03*
X17550Y9350D02*
D03*
X17554Y8604D02*
D03*
X16300Y8600D02*
D03*
X17100Y8864D02*
D03*
X16650D02*
D03*
X16800Y8000D02*
D03*
X31800Y22050D02*
D03*
X28066Y19966D02*
D03*
X25800Y10950D02*
D03*
X17400Y6600D02*
D03*
X16200Y6650D02*
D03*
X25050Y5150D02*
D03*
X19700Y6450D02*
D03*
X16950Y5900D02*
D03*
X17000Y6300D02*
D03*
X26729Y5421D02*
D03*
X27000Y5701D02*
D03*
X22100Y6200D02*
D03*
X25477Y5664D02*
D03*
X22150Y5750D02*
D03*
X19900Y8950D02*
D03*
X20950D02*
D03*
X20400D02*
D03*
X21425Y13950D02*
D03*
X22450Y17600D02*
D03*
X22050Y23650D02*
D03*
X31500Y4153D02*
D03*
X26650Y5900D02*
D03*
X25400Y9150D02*
D03*
X22406Y8950D02*
D03*
X21900D02*
D03*
X21400D02*
D03*
X38150Y11750D02*
D03*
X33950Y10100D02*
D03*
X37610Y20092D02*
D03*
X34900Y12550D02*
D03*
X24150Y11300D02*
D03*
X23650Y11350D02*
D03*
X30250Y14300D02*
D03*
X30500Y16100D02*
D03*
X31950Y17100D02*
D03*
X24525Y12225D02*
D03*
X22353Y12500D02*
D03*
X21425Y12950D02*
D03*
X17531Y11369D02*
D03*
X9500Y14050D02*
D03*
X11050Y15700D02*
D03*
X7800Y16900D02*
D03*
X15350Y15750D02*
D03*
X34250Y19050D02*
D03*
X34543Y18793D02*
D03*
X34000Y19300D02*
D03*
X33100Y12400D02*
D03*
X34500D02*
D03*
X33494Y12394D02*
D03*
X14950Y13800D02*
D03*
X15550Y14200D02*
D03*
X18100Y14550D02*
D03*
X17850Y14200D02*
D03*
X30838Y18676D02*
D03*
X30832Y19032D02*
D03*
X30819Y18344D02*
D03*
X24406Y17550D02*
D03*
X30813Y19375D02*
D03*
X31894Y20000D02*
D03*
Y19550D02*
D03*
Y20406D02*
D03*
Y19150D02*
D03*
X33766Y19534D02*
D03*
X32100Y21550D02*
D03*
Y21150D02*
D03*
X17875Y12475D02*
D03*
X18500Y10450D02*
D03*
X19000Y10150D02*
D03*
X11250Y23100D02*
D03*
X35350Y16150D02*
D03*
X17935Y11646D02*
D03*
X11085Y10410D02*
D03*
X7535Y8960D02*
D03*
X7035Y9010D02*
D03*
X9535Y8160D02*
D03*
X8985Y18260D02*
D03*
X7035Y15110D02*
D03*
X4485Y17610D02*
D03*
X4235Y13210D02*
D03*
X6085Y15960D02*
D03*
X6885Y15710D02*
D03*
D126*
X600Y4400D02*
D03*
X850Y23500D02*
D03*
X40200Y11000D02*
D03*
Y23600D02*
D03*
D127*
X36521Y24810D02*
D03*
X31521D02*
D03*
X26550D02*
D03*
X21500D02*
D03*
X16521D02*
D03*
X11521D02*
D03*
X6521D02*
D03*
X1521D02*
D03*
X39485Y2910D02*
D03*
X34485D02*
D03*
X29485D02*
D03*
X24485D02*
D03*
X19485D02*
D03*
X14485D02*
D03*
X9485D02*
D03*
X4485D02*
D03*
D128*
X37521Y24810D02*
D03*
X38521D02*
D03*
X39521D02*
D03*
X32521D02*
D03*
X33521D02*
D03*
X34521D02*
D03*
X29550D02*
D03*
X28550D02*
D03*
X27550D02*
D03*
X24500D02*
D03*
X23500D02*
D03*
X22500D02*
D03*
X19521D02*
D03*
X18521D02*
D03*
X17521D02*
D03*
X14521D02*
D03*
X13521D02*
D03*
X12521D02*
D03*
X9521D02*
D03*
X8521D02*
D03*
X7521D02*
D03*
X4521D02*
D03*
X3521D02*
D03*
X2521D02*
D03*
X36485Y2910D02*
D03*
X37485D02*
D03*
X38485D02*
D03*
X31485D02*
D03*
X32485D02*
D03*
X33485D02*
D03*
X28485D02*
D03*
X27485D02*
D03*
X26485D02*
D03*
X23485D02*
D03*
X22485D02*
D03*
X21485D02*
D03*
X18485D02*
D03*
X17485D02*
D03*
X16485D02*
D03*
X13485D02*
D03*
X12485D02*
D03*
X11485D02*
D03*
X6485D02*
D03*
X7485D02*
D03*
X8485D02*
D03*
X1485D02*
D03*
X2485D02*
D03*
X3485D02*
D03*
D129*
X20250Y22600D02*
D03*
X21250D02*
D03*
X22250D02*
D03*
D130*
X23250D02*
D03*
D131*
X38300Y16350D02*
D03*
Y15560D02*
D03*
Y14770D02*
D03*
Y13980D02*
D03*
Y13190D02*
D03*
Y22200D02*
D03*
Y21410D02*
D03*
Y20620D02*
D03*
Y19830D02*
D03*
Y19040D02*
D03*
D132*
Y12400D02*
D03*
Y18250D02*
D03*
D133*
X23676Y14265D02*
D03*
Y13543D02*
D03*
X23315Y14626D02*
D03*
Y13904D02*
D03*
Y13182D02*
D03*
X22954Y14265D02*
D03*
Y13543D02*
D03*
X22592Y14626D02*
D03*
Y13904D02*
D03*
Y13182D02*
D03*
X22231Y14265D02*
D03*
Y13543D02*
D03*
D134*
X3785Y19260D02*
D03*
Y18260D02*
D03*
Y17260D02*
D03*
X1285D02*
D03*
Y18260D02*
D03*
D135*
X500Y11550D02*
D03*
Y14550D02*
D03*
Y15200D02*
D03*
Y15900D02*
D03*
D136*
X11700Y4650D02*
D03*
X17250D02*
D03*
D137*
X12700D02*
D03*
X13735D02*
D03*
X22250D02*
D03*
X14700D02*
D03*
X18250D02*
D03*
X19250D02*
D03*
X20250D02*
D03*
X21250D02*
D03*
D138*
X3306Y20398D02*
D03*
D139*
X4329Y21500D02*
D03*
X2400D02*
D03*
M02*
