G04*
G04 #@! TF.GenerationSoftware,Altium Limited,Altium Designer,20.2.6 (244)*
G04*
G04 Layer_Color=16711935*
%FSLAX24Y24*%
%MOIN*%
G70*
G04*
G04 #@! TF.SameCoordinates,3AFE1146-FA95-4E81-A996-3AB7B898703E*
G04*
G04*
G04 #@! TF.FilePolarity,Positive*
G04*
G01*
G75*
%ADD18C,0.0039*%
G36*
X641Y9850D02*
X641Y9842D01*
X640Y9832D01*
X640Y9823D01*
X638Y9813D01*
X637Y9805D01*
Y9804D01*
X636Y9801D01*
X635Y9796D01*
X633Y9789D01*
X631Y9782D01*
X628Y9774D01*
X624Y9766D01*
X619Y9759D01*
X619Y9758D01*
X617Y9755D01*
X614Y9752D01*
X610Y9748D01*
X605Y9743D01*
X599Y9738D01*
X592Y9733D01*
X583Y9728D01*
X582Y9728D01*
X579Y9726D01*
X575Y9725D01*
X568Y9722D01*
X561Y9720D01*
X552Y9718D01*
X542Y9717D01*
X532Y9717D01*
X531D01*
X530D01*
X527D01*
X524Y9717D01*
X520Y9718D01*
X515Y9718D01*
X509Y9719D01*
X504Y9721D01*
X490Y9724D01*
X477Y9730D01*
X470Y9733D01*
X463Y9737D01*
X456Y9742D01*
X450Y9748D01*
X450Y9748D01*
X449Y9750D01*
X447Y9751D01*
X445Y9754D01*
X443Y9758D01*
X440Y9762D01*
X437Y9767D01*
X434Y9773D01*
X431Y9780D01*
X428Y9788D01*
X425Y9797D01*
X422Y9807D01*
X420Y9819D01*
X418Y9831D01*
X418Y9844D01*
X417Y9858D01*
Y9955D01*
X263D01*
Y10005D01*
X641D01*
Y9850D01*
D02*
G37*
G36*
X465Y9667D02*
X470D01*
X476Y9666D01*
X482Y9665D01*
X490Y9664D01*
X506Y9661D01*
X523Y9658D01*
X541Y9652D01*
X558Y9645D01*
X558D01*
X560Y9644D01*
X562Y9642D01*
X565Y9641D01*
X569Y9638D01*
X573Y9635D01*
X583Y9628D01*
X594Y9619D01*
X604Y9608D01*
X615Y9595D01*
X625Y9581D01*
Y9580D01*
X626Y9579D01*
X627Y9577D01*
X628Y9573D01*
X630Y9570D01*
X632Y9565D01*
X634Y9559D01*
X636Y9554D01*
X638Y9547D01*
X640Y9540D01*
X644Y9525D01*
X647Y9508D01*
X648Y9489D01*
Y9483D01*
X647Y9479D01*
X647Y9475D01*
X646Y9469D01*
X645Y9463D01*
X644Y9456D01*
X641Y9441D01*
X636Y9425D01*
X632Y9417D01*
X628Y9409D01*
X623Y9401D01*
X618Y9394D01*
X618Y9393D01*
X617Y9392D01*
X615Y9390D01*
X613Y9387D01*
X610Y9384D01*
X606Y9380D01*
X602Y9376D01*
X598Y9372D01*
X592Y9368D01*
X586Y9364D01*
X579Y9359D01*
X572Y9354D01*
X564Y9350D01*
X556Y9346D01*
X537Y9339D01*
X526Y9389D01*
X526D01*
X527Y9390D01*
X530Y9390D01*
X532Y9391D01*
X536Y9393D01*
X540Y9395D01*
X549Y9399D01*
X558Y9404D01*
X569Y9411D01*
X578Y9418D01*
X586Y9428D01*
X587Y9429D01*
X589Y9432D01*
X592Y9437D01*
X596Y9445D01*
X599Y9453D01*
X602Y9464D01*
X604Y9476D01*
X605Y9490D01*
Y9494D01*
X604Y9497D01*
Y9501D01*
X604Y9505D01*
X602Y9516D01*
X600Y9527D01*
X596Y9539D01*
X591Y9551D01*
X584Y9563D01*
Y9563D01*
X583Y9564D01*
X580Y9567D01*
X575Y9573D01*
X569Y9579D01*
X561Y9585D01*
X551Y9592D01*
X540Y9599D01*
X527Y9604D01*
X527D01*
X526Y9604D01*
X524Y9605D01*
X521Y9606D01*
X518Y9607D01*
X514Y9607D01*
X505Y9610D01*
X494Y9612D01*
X482Y9614D01*
X469Y9615D01*
X455Y9615D01*
X454D01*
X452D01*
X450D01*
X447D01*
X443Y9615D01*
X437D01*
X432Y9614D01*
X426Y9614D01*
X413Y9612D01*
X399Y9610D01*
X384Y9606D01*
X371Y9601D01*
X370D01*
X369Y9601D01*
X367Y9600D01*
X365Y9599D01*
X358Y9596D01*
X350Y9591D01*
X341Y9585D01*
X333Y9577D01*
X324Y9569D01*
X316Y9558D01*
Y9558D01*
X316Y9557D01*
X315Y9555D01*
X314Y9553D01*
X311Y9547D01*
X308Y9539D01*
X305Y9529D01*
X302Y9519D01*
X300Y9506D01*
X299Y9494D01*
Y9490D01*
X300Y9487D01*
Y9483D01*
X300Y9479D01*
X302Y9469D01*
X305Y9458D01*
X310Y9446D01*
X315Y9434D01*
X323Y9423D01*
X324Y9422D01*
X325Y9422D01*
X328Y9418D01*
X334Y9413D01*
X341Y9407D01*
X352Y9400D01*
X364Y9394D01*
X379Y9388D01*
X395Y9383D01*
X383Y9333D01*
X382D01*
X380Y9334D01*
X377Y9335D01*
X372Y9336D01*
X368Y9338D01*
X361Y9341D01*
X355Y9343D01*
X348Y9346D01*
X333Y9354D01*
X317Y9364D01*
X302Y9376D01*
X295Y9383D01*
X289Y9390D01*
X288Y9391D01*
X288Y9392D01*
X286Y9394D01*
X284Y9398D01*
X281Y9402D01*
X278Y9406D01*
X276Y9411D01*
X273Y9418D01*
X270Y9425D01*
X267Y9432D01*
X264Y9441D01*
X262Y9449D01*
X258Y9468D01*
X257Y9479D01*
X257Y9490D01*
Y9495D01*
X257Y9500D01*
Y9505D01*
X258Y9511D01*
X259Y9518D01*
X259Y9525D01*
X263Y9541D01*
X267Y9558D01*
X273Y9574D01*
X277Y9582D01*
X281Y9589D01*
X282Y9590D01*
X282Y9591D01*
X284Y9593D01*
X286Y9596D01*
X292Y9603D01*
X300Y9611D01*
X310Y9620D01*
X322Y9630D01*
X337Y9639D01*
X353Y9648D01*
X354D01*
X356Y9648D01*
X358Y9649D01*
X361Y9650D01*
X366Y9652D01*
X371Y9654D01*
X377Y9656D01*
X384Y9657D01*
X391Y9659D01*
X399Y9661D01*
X416Y9664D01*
X435Y9667D01*
X455Y9667D01*
X455D01*
X458D01*
X460D01*
X465Y9667D01*
D02*
G37*
G36*
X641Y9125D02*
X641Y9121D01*
Y9117D01*
X640Y9107D01*
X638Y9096D01*
X637Y9085D01*
X634Y9073D01*
X630Y9063D01*
Y9062D01*
X629Y9062D01*
X628Y9058D01*
X625Y9054D01*
X621Y9048D01*
X616Y9041D01*
X610Y9034D01*
X603Y9028D01*
X594Y9021D01*
X593Y9021D01*
X590Y9019D01*
X585Y9017D01*
X579Y9014D01*
X571Y9011D01*
X563Y9009D01*
X554Y9007D01*
X544Y9006D01*
X543D01*
X540D01*
X535Y9007D01*
X529Y9008D01*
X522Y9010D01*
X515Y9012D01*
X506Y9015D01*
X498Y9020D01*
X497Y9020D01*
X494Y9022D01*
X490Y9025D01*
X486Y9030D01*
X480Y9035D01*
X475Y9042D01*
X469Y9050D01*
X464Y9060D01*
Y9059D01*
X463Y9058D01*
X463Y9057D01*
X462Y9054D01*
X459Y9048D01*
X456Y9040D01*
X451Y9032D01*
X445Y9023D01*
X438Y9015D01*
X429Y9007D01*
X428Y9006D01*
X425Y9004D01*
X420Y9001D01*
X413Y8997D01*
X405Y8994D01*
X395Y8991D01*
X384Y8989D01*
X372Y8988D01*
X371D01*
X368D01*
X363Y8989D01*
X356Y8989D01*
X349Y8991D01*
X340Y8993D01*
X331Y8996D01*
X323Y9000D01*
X322Y9000D01*
X319Y9001D01*
X315Y9004D01*
X310Y9007D01*
X304Y9011D01*
X298Y9016D01*
X292Y9021D01*
X287Y9027D01*
X287Y9028D01*
X285Y9030D01*
X283Y9034D01*
X280Y9039D01*
X277Y9044D01*
X274Y9052D01*
X272Y9060D01*
X269Y9069D01*
Y9070D01*
X268Y9073D01*
X267Y9078D01*
X266Y9085D01*
X265Y9095D01*
X264Y9105D01*
X263Y9116D01*
Y9274D01*
X641D01*
Y9125D01*
D02*
G37*
G36*
Y8497D02*
X597D01*
Y8721D01*
X481D01*
Y8512D01*
X436D01*
Y8721D01*
X307D01*
Y8489D01*
X263D01*
Y8771D01*
X641D01*
Y8497D01*
D02*
G37*
G36*
X410Y8442D02*
X414D01*
X424Y8441D01*
X436Y8439D01*
X448Y8437D01*
X461Y8434D01*
X474Y8429D01*
X474D01*
X475Y8429D01*
X477Y8428D01*
X479Y8426D01*
X485Y8424D01*
X493Y8419D01*
X501Y8413D01*
X510Y8406D01*
X518Y8398D01*
X526Y8388D01*
Y8388D01*
X526Y8387D01*
X528Y8384D01*
X531Y8378D01*
X535Y8371D01*
X538Y8361D01*
X541Y8351D01*
X543Y8339D01*
X543Y8327D01*
Y8323D01*
X543Y8319D01*
X542Y8312D01*
X541Y8306D01*
X539Y8299D01*
X536Y8291D01*
X532Y8284D01*
X532Y8282D01*
X531Y8280D01*
X528Y8277D01*
X525Y8272D01*
X522Y8267D01*
X517Y8262D01*
X511Y8257D01*
X505Y8252D01*
X641D01*
Y8205D01*
X263D01*
Y8248D01*
X297D01*
X296Y8249D01*
X295Y8250D01*
X293Y8251D01*
X291Y8254D01*
X288Y8256D01*
X284Y8259D01*
X281Y8263D01*
X277Y8268D01*
X273Y8273D01*
X269Y8279D01*
X266Y8285D01*
X263Y8292D01*
X260Y8299D01*
X258Y8307D01*
X257Y8316D01*
X257Y8325D01*
Y8329D01*
X257Y8331D01*
X258Y8337D01*
X259Y8345D01*
X261Y8354D01*
X264Y8364D01*
X269Y8375D01*
X274Y8386D01*
Y8386D01*
X275Y8387D01*
X278Y8390D01*
X282Y8395D01*
X288Y8401D01*
X295Y8407D01*
X303Y8415D01*
X313Y8421D01*
X325Y8428D01*
X325D01*
X326Y8428D01*
X328Y8429D01*
X330Y8430D01*
X333Y8431D01*
X337Y8432D01*
X346Y8435D01*
X357Y8438D01*
X370Y8440D01*
X384Y8442D01*
X399Y8443D01*
X400D01*
X401D01*
X403D01*
X406D01*
X410Y8442D01*
D02*
G37*
G36*
X412Y8149D02*
X416D01*
X425Y8148D01*
X436Y8146D01*
X448Y8144D01*
X461Y8141D01*
X474Y8136D01*
X474D01*
X475Y8136D01*
X477Y8134D01*
X479Y8133D01*
X485Y8130D01*
X493Y8126D01*
X501Y8119D01*
X509Y8113D01*
X517Y8104D01*
X525Y8095D01*
Y8094D01*
X526Y8094D01*
X527Y8092D01*
X528Y8090D01*
X531Y8084D01*
X534Y8077D01*
X538Y8067D01*
X541Y8057D01*
X543Y8045D01*
X543Y8031D01*
Y8027D01*
X543Y8023D01*
X542Y8019D01*
X541Y8014D01*
X538Y8003D01*
X536Y7997D01*
X534Y7990D01*
X531Y7983D01*
X527Y7977D01*
X522Y7970D01*
X517Y7963D01*
X511Y7957D01*
X504Y7951D01*
X537D01*
Y7909D01*
X300D01*
X299D01*
X297D01*
X294D01*
X289D01*
X284Y7909D01*
X278D01*
X272Y7910D01*
X265Y7910D01*
X250Y7912D01*
X235Y7914D01*
X221Y7917D01*
X215Y7920D01*
X210Y7922D01*
X209D01*
X209Y7922D01*
X205Y7924D01*
X201Y7928D01*
X194Y7932D01*
X187Y7937D01*
X181Y7944D01*
X174Y7953D01*
X167Y7963D01*
Y7963D01*
X167Y7964D01*
X166Y7966D01*
X165Y7968D01*
X162Y7974D01*
X160Y7982D01*
X157Y7992D01*
X154Y8004D01*
X152Y8017D01*
X152Y8032D01*
Y8037D01*
X152Y8041D01*
Y8045D01*
X153Y8050D01*
X155Y8061D01*
X157Y8073D01*
X161Y8087D01*
X167Y8100D01*
X174Y8112D01*
Y8113D01*
X175Y8113D01*
X178Y8117D01*
X183Y8121D01*
X191Y8127D01*
X200Y8132D01*
X212Y8137D01*
X225Y8140D01*
X232Y8141D01*
X240D01*
X234Y8096D01*
X233D01*
X231Y8095D01*
X227Y8094D01*
X223Y8093D01*
X217Y8091D01*
X212Y8088D01*
X208Y8084D01*
X204Y8080D01*
X203Y8079D01*
X201Y8076D01*
X200Y8073D01*
X197Y8067D01*
X194Y8061D01*
X193Y8053D01*
X191Y8043D01*
X190Y8032D01*
Y8027D01*
X191Y8022D01*
X192Y8014D01*
X194Y8006D01*
X196Y7998D01*
X199Y7990D01*
X204Y7983D01*
X204Y7982D01*
X206Y7980D01*
X209Y7977D01*
X213Y7973D01*
X218Y7969D01*
X224Y7966D01*
X231Y7962D01*
X239Y7959D01*
X240D01*
X242Y7959D01*
X246Y7958D01*
X252Y7958D01*
X260Y7956D01*
X265D01*
X270Y7956D01*
X277D01*
X283D01*
X291D01*
X299D01*
X298Y7956D01*
X297Y7957D01*
X295Y7959D01*
X293Y7961D01*
X291Y7964D01*
X287Y7968D01*
X281Y7977D01*
X274Y7988D01*
X269Y8001D01*
X266Y8008D01*
X265Y8015D01*
X263Y8023D01*
X263Y8031D01*
Y8036D01*
X263Y8041D01*
X264Y8045D01*
X265Y8051D01*
X266Y8057D01*
X268Y8064D01*
X270Y8070D01*
X273Y8077D01*
X276Y8085D01*
X280Y8092D01*
X285Y8099D01*
X290Y8106D01*
X296Y8113D01*
X303Y8119D01*
X304Y8119D01*
X305Y8120D01*
X307Y8122D01*
X311Y8123D01*
X315Y8126D01*
X319Y8129D01*
X325Y8132D01*
X331Y8134D01*
X338Y8137D01*
X345Y8140D01*
X353Y8142D01*
X362Y8145D01*
X380Y8149D01*
X391Y8149D01*
X401Y8150D01*
X402D01*
X403D01*
X405D01*
X408D01*
X412Y8149D01*
D02*
G37*
G36*
X409Y7853D02*
X414Y7852D01*
X421Y7852D01*
X429Y7850D01*
X437Y7849D01*
X454Y7845D01*
X463Y7842D01*
X472Y7838D01*
X481Y7834D01*
X489Y7830D01*
X497Y7825D01*
X505Y7818D01*
X505Y7818D01*
X507Y7816D01*
X508Y7815D01*
X511Y7812D01*
X514Y7808D01*
X517Y7804D01*
X520Y7799D01*
X524Y7793D01*
X528Y7787D01*
X531Y7780D01*
X534Y7773D01*
X538Y7764D01*
X540Y7755D01*
X542Y7746D01*
X543Y7736D01*
X543Y7726D01*
Y7721D01*
X543Y7717D01*
X542Y7712D01*
X542Y7706D01*
X541Y7701D01*
X539Y7694D01*
X534Y7680D01*
X531Y7672D01*
X527Y7665D01*
X523Y7657D01*
X518Y7650D01*
X512Y7643D01*
X505Y7636D01*
X505Y7636D01*
X504Y7634D01*
X501Y7633D01*
X498Y7630D01*
X494Y7628D01*
X490Y7625D01*
X485Y7622D01*
X478Y7618D01*
X471Y7615D01*
X463Y7612D01*
X455Y7609D01*
X445Y7606D01*
X435Y7604D01*
X424Y7603D01*
X413Y7602D01*
X400Y7601D01*
X399D01*
X397D01*
X393D01*
X388Y7602D01*
Y7806D01*
X387D01*
X386D01*
X383Y7805D01*
X380D01*
X376Y7804D01*
X372Y7804D01*
X362Y7801D01*
X351Y7798D01*
X340Y7794D01*
X328Y7788D01*
X318Y7780D01*
X317Y7779D01*
X315Y7776D01*
X311Y7771D01*
X307Y7765D01*
X302Y7756D01*
X298Y7746D01*
X296Y7735D01*
X295Y7723D01*
Y7719D01*
X295Y7714D01*
X296Y7708D01*
X298Y7701D01*
X300Y7694D01*
X303Y7686D01*
X308Y7679D01*
X308Y7679D01*
X311Y7676D01*
X314Y7673D01*
X319Y7669D01*
X325Y7664D01*
X332Y7660D01*
X341Y7655D01*
X352Y7651D01*
X345Y7603D01*
X345D01*
X344Y7603D01*
X341Y7604D01*
X338Y7605D01*
X335Y7606D01*
X331Y7608D01*
X321Y7613D01*
X311Y7618D01*
X300Y7625D01*
X289Y7634D01*
X280Y7645D01*
Y7645D01*
X278Y7646D01*
X277Y7648D01*
X276Y7651D01*
X274Y7653D01*
X272Y7657D01*
X270Y7661D01*
X268Y7666D01*
X264Y7677D01*
X260Y7691D01*
X258Y7706D01*
X257Y7723D01*
Y7729D01*
X257Y7733D01*
X258Y7738D01*
X258Y7744D01*
X259Y7750D01*
X261Y7758D01*
X266Y7773D01*
X269Y7781D01*
X272Y7788D01*
X276Y7796D01*
X281Y7804D01*
X287Y7811D01*
X293Y7818D01*
X294Y7819D01*
X295Y7820D01*
X297Y7822D01*
X300Y7823D01*
X304Y7826D01*
X308Y7829D01*
X314Y7833D01*
X320Y7835D01*
X327Y7839D01*
X335Y7842D01*
X344Y7845D01*
X353Y7848D01*
X363Y7850D01*
X373Y7852D01*
X385Y7853D01*
X397Y7853D01*
X398D01*
X400D01*
X404D01*
X409Y7853D01*
D02*
G37*
%LPC*%
G36*
X597Y9955D02*
X462D01*
Y9853D01*
X462Y9850D01*
Y9846D01*
X463Y9842D01*
X464Y9831D01*
X466Y9820D01*
X469Y9808D01*
X474Y9798D01*
X477Y9793D01*
X479Y9789D01*
X480Y9788D01*
X483Y9786D01*
X487Y9783D01*
X493Y9779D01*
X500Y9775D01*
X508Y9772D01*
X519Y9770D01*
X530Y9769D01*
X531D01*
X534D01*
X539Y9769D01*
X545Y9770D01*
X551Y9771D01*
X558Y9774D01*
X565Y9777D01*
X571Y9781D01*
X572Y9781D01*
X574Y9783D01*
X577Y9785D01*
X580Y9789D01*
X584Y9794D01*
X588Y9799D01*
X591Y9805D01*
X594Y9812D01*
Y9813D01*
X594Y9815D01*
X595Y9818D01*
X595Y9823D01*
X596Y9829D01*
X596Y9837D01*
X597Y9847D01*
Y9955D01*
D02*
G37*
G36*
Y9224D02*
X482D01*
Y9131D01*
X482Y9124D01*
X483Y9116D01*
X484Y9108D01*
X485Y9101D01*
X486Y9095D01*
X486Y9094D01*
X487Y9092D01*
X488Y9088D01*
X490Y9084D01*
X493Y9079D01*
X496Y9074D01*
X500Y9070D01*
X505Y9066D01*
X505Y9065D01*
X507Y9064D01*
X510Y9063D01*
X514Y9061D01*
X519Y9059D01*
X524Y9058D01*
X531Y9057D01*
X538Y9056D01*
X539D01*
X542D01*
X545Y9057D01*
X550Y9057D01*
X555Y9058D01*
X560Y9060D01*
X566Y9062D01*
X572Y9065D01*
X572Y9066D01*
X574Y9067D01*
X576Y9069D01*
X580Y9072D01*
X583Y9076D01*
X586Y9080D01*
X589Y9085D01*
X591Y9091D01*
Y9092D01*
X592Y9095D01*
X593Y9099D01*
X594Y9104D01*
X595Y9112D01*
X596Y9122D01*
X597Y9134D01*
Y9224D01*
D02*
G37*
G36*
X437D02*
X307D01*
Y9116D01*
X308Y9105D01*
X308Y9100D01*
X309Y9096D01*
Y9095D01*
X310Y9093D01*
X310Y9089D01*
X311Y9085D01*
X314Y9076D01*
X319Y9067D01*
X319Y9066D01*
X320Y9065D01*
X322Y9063D01*
X325Y9060D01*
X327Y9057D01*
X331Y9054D01*
X335Y9050D01*
X340Y9047D01*
X341Y9047D01*
X342Y9046D01*
X345Y9045D01*
X349Y9043D01*
X354Y9042D01*
X360Y9041D01*
X365Y9040D01*
X372Y9040D01*
X373D01*
X376D01*
X380Y9040D01*
X384Y9041D01*
X390Y9043D01*
X397Y9044D01*
X403Y9047D01*
X409Y9051D01*
X409Y9052D01*
X412Y9053D01*
X414Y9056D01*
X417Y9059D01*
X421Y9063D01*
X425Y9069D01*
X428Y9074D01*
X431Y9081D01*
X432Y9082D01*
X432Y9085D01*
X433Y9089D01*
X435Y9095D01*
X436Y9103D01*
X436Y9112D01*
X437Y9124D01*
Y9224D01*
D02*
G37*
G36*
X409Y8395D02*
X399D01*
X399D01*
X397D01*
X394D01*
X391Y8394D01*
X386D01*
X382Y8394D01*
X369Y8392D01*
X357Y8390D01*
X344Y8386D01*
X331Y8380D01*
X326Y8377D01*
X320Y8373D01*
X319Y8372D01*
X316Y8369D01*
X312Y8364D01*
X308Y8358D01*
X303Y8350D01*
X299Y8342D01*
X296Y8331D01*
X295Y8326D01*
X295Y8320D01*
Y8318D01*
X295Y8315D01*
X296Y8310D01*
X297Y8303D01*
X301Y8295D01*
X305Y8286D01*
X311Y8277D01*
X315Y8273D01*
X319Y8269D01*
X320D01*
X320Y8267D01*
X322Y8267D01*
X324Y8265D01*
X327Y8263D01*
X330Y8262D01*
X334Y8260D01*
X338Y8258D01*
X343Y8256D01*
X349Y8254D01*
X355Y8252D01*
X362Y8251D01*
X369Y8249D01*
X378Y8248D01*
X386Y8247D01*
X395D01*
X396D01*
X398D01*
X401D01*
X405Y8248D01*
X409D01*
X414Y8248D01*
X427Y8250D01*
X440Y8252D01*
X454Y8257D01*
X467Y8262D01*
X473Y8265D01*
X478Y8269D01*
X479D01*
X479Y8270D01*
X482Y8273D01*
X487Y8278D01*
X492Y8284D01*
X496Y8292D01*
X501Y8301D01*
X504Y8311D01*
X505Y8317D01*
Y8326D01*
X504Y8328D01*
X504Y8334D01*
X502Y8341D01*
X498Y8349D01*
X494Y8357D01*
X488Y8366D01*
X484Y8370D01*
X479Y8374D01*
X478Y8375D01*
X477Y8376D01*
X475Y8377D01*
X472Y8379D01*
X469Y8380D01*
X465Y8383D01*
X460Y8384D01*
X455Y8386D01*
X449Y8388D01*
X442Y8390D01*
X435Y8391D01*
X427Y8393D01*
X418Y8394D01*
X409Y8395D01*
D02*
G37*
G36*
X405Y8102D02*
X404D01*
X402D01*
X399D01*
X396Y8102D01*
X391D01*
X386Y8101D01*
X375Y8099D01*
X362Y8097D01*
X349Y8093D01*
X337Y8088D01*
X331Y8084D01*
X326Y8081D01*
X325Y8080D01*
X322Y8077D01*
X318Y8072D01*
X314Y8066D01*
X310Y8058D01*
X306Y8049D01*
X303Y8039D01*
X302Y8033D01*
X301Y8027D01*
Y8024D01*
X302Y8022D01*
X303Y8016D01*
X304Y8008D01*
X307Y8000D01*
X312Y7991D01*
X318Y7982D01*
X326Y7974D01*
X326D01*
X327Y7973D01*
X329Y7971D01*
X330Y7970D01*
X333Y7969D01*
X336Y7967D01*
X340Y7965D01*
X345Y7963D01*
X350Y7960D01*
X356Y7959D01*
X362Y7957D01*
X369Y7955D01*
X376Y7954D01*
X384Y7953D01*
X394Y7952D01*
X403D01*
X403D01*
X405D01*
X407D01*
X411Y7952D01*
X416D01*
X420Y7953D01*
X432Y7955D01*
X444Y7957D01*
X456Y7961D01*
X469Y7967D01*
X474Y7970D01*
X479Y7974D01*
X479D01*
X480Y7975D01*
X483Y7978D01*
X487Y7983D01*
X492Y7989D01*
X497Y7997D01*
X501Y8006D01*
X504Y8016D01*
X505Y8022D01*
Y8031D01*
X504Y8033D01*
X504Y8039D01*
X502Y8046D01*
X498Y8054D01*
X494Y8064D01*
X488Y8072D01*
X484Y8077D01*
X479Y8081D01*
X478Y8082D01*
X477Y8083D01*
X475Y8084D01*
X472Y8086D01*
X469Y8088D01*
X465Y8089D01*
X460Y8091D01*
X456Y8094D01*
X450Y8095D01*
X444Y8097D01*
X437Y8099D01*
X422Y8101D01*
X405Y8102D01*
D02*
G37*
G36*
X426Y7803D02*
Y7650D01*
X426D01*
X428D01*
X429Y7651D01*
X432D01*
X438Y7652D01*
X445Y7653D01*
X454Y7656D01*
X462Y7659D01*
X471Y7663D01*
X478Y7668D01*
X478D01*
X479Y7669D01*
X482Y7672D01*
X486Y7677D01*
X492Y7683D01*
X497Y7692D01*
X501Y7702D01*
X504Y7713D01*
X505Y7719D01*
X505Y7725D01*
Y7728D01*
X505Y7731D01*
X504Y7737D01*
X503Y7744D01*
X500Y7753D01*
X496Y7762D01*
X491Y7771D01*
X484Y7780D01*
X482Y7781D01*
X479Y7783D01*
X475Y7786D01*
X468Y7791D01*
X460Y7795D01*
X450Y7799D01*
X439Y7801D01*
X426Y7803D01*
D02*
G37*
%LPD*%
D18*
X433Y6467D02*
Y10365D01*
M02*
