G04*
G04 #@! TF.GenerationSoftware,Altium Limited,Altium Designer,20.2.6 (244)*
G04*
G04 Layer_Color=16711935*
%FSLAX24Y24*%
%MOIN*%
G70*
G04*
G04 #@! TF.SameCoordinates,3AFE1146-FA95-4E81-A996-3AB7B898703E*
G04*
G04*
G04 #@! TF.FilePolarity,Positive*
G04*
G01*
G75*
%ADD19C,0.0100*%
G36*
X36176Y4588D02*
Y4287D01*
X34893D01*
Y4588D01*
X36176D01*
D02*
G37*
G36*
X28855Y9967D02*
X26375D01*
Y17054D01*
X28855D01*
Y9967D01*
D02*
G37*
G36*
X41038Y8289D02*
X40504D01*
Y9293D01*
X41038D01*
Y8289D01*
D02*
G37*
G36*
X37316Y5001D02*
X40194D01*
Y4723D01*
X37196D01*
Y5000D01*
X36685D01*
Y8426D01*
X37316D01*
Y5001D01*
D02*
G37*
G36*
X38065Y4291D02*
X36645D01*
Y4588D01*
X38065D01*
Y4291D01*
D02*
G37*
D19*
X41050Y10700D02*
X41050Y24100D01*
X500Y-50D02*
Y3000D01*
X-165Y3665D02*
X500Y3000D01*
X-165Y3665D02*
X-165Y23635D01*
X550Y24350D01*
Y27650D01*
X41050Y10700D02*
X41300Y10450D01*
Y3950D02*
Y10450D01*
X40450Y3100D02*
X41300Y3950D01*
X40450Y2950D02*
Y3100D01*
Y-50D02*
Y2950D01*
X40500Y24650D02*
X41050Y24100D01*
X40500Y24650D02*
Y27700D01*
X500Y-50D02*
X40450Y-50D01*
X550Y27700D02*
X40500Y27700D01*
M02*
