G04*
G04 #@! TF.GenerationSoftware,Altium Limited,Altium Designer,20.2.6 (244)*
G04*
G04 Layer_Color=32768*
%FSLAX24Y24*%
%MOIN*%
G70*
G04*
G04 #@! TF.SameCoordinates,3AFE1146-FA95-4E81-A996-3AB7B898703E*
G04*
G04*
G04 #@! TF.FilePolarity,Positive*
G04*
G01*
G75*
%ADD18C,0.0039*%
%ADD148R,0.0098X0.0236*%
G36*
X5823Y19132D02*
X5828D01*
X5834Y19132D01*
X5840Y19131D01*
X5847Y19130D01*
X5863Y19127D01*
X5880Y19123D01*
X5898Y19118D01*
X5915Y19110D01*
X5916D01*
X5917Y19109D01*
X5920Y19108D01*
X5923Y19106D01*
X5927Y19104D01*
X5931Y19101D01*
X5941Y19094D01*
X5953Y19084D01*
X5964Y19073D01*
X5976Y19061D01*
X5985Y19046D01*
X5986Y19045D01*
X5987Y19044D01*
X5988Y19042D01*
X5989Y19038D01*
X5991Y19034D01*
X5993Y19030D01*
X5995Y19024D01*
X5998Y19018D01*
X6000Y19012D01*
X6002Y19004D01*
X6006Y18989D01*
X6008Y18971D01*
X6010Y18952D01*
Y18947D01*
X6009Y18944D01*
Y18939D01*
X6008Y18933D01*
X6007Y18928D01*
X6007Y18921D01*
X6003Y18906D01*
X5999Y18890D01*
X5993Y18874D01*
X5989Y18866D01*
X5984Y18858D01*
Y18857D01*
X5983Y18856D01*
X5982Y18854D01*
X5980Y18851D01*
X5977Y18848D01*
X5974Y18844D01*
X5966Y18834D01*
X5957Y18824D01*
X5945Y18813D01*
X5931Y18803D01*
X5915Y18794D01*
X5914D01*
X5913Y18793D01*
X5910Y18792D01*
X5907Y18791D01*
X5902Y18789D01*
X5898Y18787D01*
X5892Y18785D01*
X5885Y18782D01*
X5878Y18781D01*
X5870Y18778D01*
X5854Y18775D01*
X5835Y18773D01*
X5818Y18772D01*
X5824Y18763D01*
X5829Y18752D01*
Y18751D01*
X5830Y18751D01*
X5830Y18749D01*
X5831Y18746D01*
X5832Y18743D01*
X5833Y18740D01*
X5836Y18732D01*
X5838Y18721D01*
X5840Y18710D01*
X5842Y18697D01*
X5842Y18683D01*
Y18676D01*
X5842Y18672D01*
Y18668D01*
X5841Y18658D01*
X5839Y18647D01*
X5837Y18634D01*
X5833Y18621D01*
X5828Y18609D01*
Y18609D01*
X5828Y18608D01*
X5827Y18606D01*
X5826Y18604D01*
X5823Y18598D01*
X5821Y18594D01*
X5921D01*
X5920Y18595D01*
X5918Y18597D01*
X5915Y18601D01*
X5911Y18606D01*
X5906Y18613D01*
X5901Y18620D01*
X5894Y18629D01*
X5889Y18638D01*
Y18639D01*
X5888Y18640D01*
X5886Y18643D01*
X5883Y18648D01*
X5879Y18655D01*
X5875Y18662D01*
X5872Y18670D01*
X5868Y18679D01*
X5864Y18687D01*
X5910D01*
Y18686D01*
X5911Y18685D01*
X5912Y18683D01*
X5913Y18681D01*
X5915Y18677D01*
X5917Y18673D01*
X5922Y18664D01*
X5928Y18653D01*
X5936Y18642D01*
X5945Y18630D01*
X5954Y18619D01*
X5954Y18619D01*
X5955Y18618D01*
X5958Y18615D01*
X5964Y18610D01*
X5970Y18603D01*
X5978Y18596D01*
X5987Y18590D01*
X5996Y18583D01*
X6005Y18578D01*
Y18547D01*
X5763D01*
X5752Y18544D01*
X5741Y18542D01*
X5729Y18541D01*
X5729Y18547D01*
X5625D01*
Y18551D01*
X5618Y18545D01*
X5616Y18545D01*
X5614Y18543D01*
X5609Y18540D01*
X5602Y18537D01*
X5595Y18534D01*
X5585Y18531D01*
X5575Y18530D01*
X5564Y18529D01*
X5563D01*
X5563D01*
X5561D01*
X5559D01*
X5553Y18530D01*
X5546Y18531D01*
X5537Y18533D01*
X5527Y18537D01*
X5517Y18541D01*
X5507Y18546D01*
X5506Y18547D01*
X5502Y18550D01*
X5498Y18553D01*
X5492Y18559D01*
X5485Y18566D01*
X5478Y18575D01*
X5472Y18585D01*
X5466Y18596D01*
Y18597D01*
X5465Y18598D01*
X5464Y18600D01*
X5463Y18602D01*
X5462Y18605D01*
X5461Y18609D01*
X5459Y18618D01*
X5456Y18628D01*
X5453Y18641D01*
X5452Y18654D01*
X5451Y18669D01*
Y18678D01*
X5452Y18682D01*
Y18687D01*
X5452Y18693D01*
X5453Y18699D01*
X5455Y18712D01*
X5458Y18727D01*
X5461Y18741D01*
X5466Y18755D01*
Y18755D01*
X5466Y18757D01*
X5467Y18758D01*
X5468Y18761D01*
X5472Y18767D01*
X5477Y18774D01*
X5483Y18784D01*
X5491Y18792D01*
X5500Y18801D01*
X5511Y18810D01*
X5511D01*
X5512Y18810D01*
X5513Y18811D01*
X5516Y18812D01*
X5519Y18814D01*
X5522Y18816D01*
X5531Y18819D01*
X5540Y18823D01*
X5553Y18826D01*
X5565Y18829D01*
X5579Y18830D01*
X5583Y18782D01*
X5583D01*
X5582D01*
X5578Y18782D01*
X5573Y18781D01*
X5566Y18780D01*
X5559Y18777D01*
X5551Y18775D01*
X5543Y18772D01*
X5536Y18767D01*
X5535Y18767D01*
X5533Y18765D01*
X5530Y18762D01*
X5525Y18758D01*
X5521Y18753D01*
X5516Y18746D01*
X5511Y18738D01*
X5506Y18729D01*
Y18729D01*
X5506Y18728D01*
X5505Y18725D01*
X5503Y18720D01*
X5501Y18712D01*
X5499Y18704D01*
X5497Y18694D01*
X5496Y18683D01*
X5496Y18671D01*
Y18667D01*
X5496Y18661D01*
X5497Y18655D01*
X5497Y18647D01*
X5499Y18638D01*
X5501Y18630D01*
X5504Y18621D01*
X5504Y18620D01*
X5505Y18618D01*
X5507Y18614D01*
X5510Y18609D01*
X5513Y18603D01*
X5517Y18598D01*
X5522Y18593D01*
X5527Y18588D01*
X5528Y18588D01*
X5530Y18587D01*
X5533Y18585D01*
X5537Y18583D01*
X5542Y18581D01*
X5547Y18579D01*
X5553Y18578D01*
X5559Y18577D01*
X5560D01*
X5562D01*
X5566Y18578D01*
X5570Y18579D01*
X5575Y18580D01*
X5580Y18582D01*
X5585Y18584D01*
X5591Y18588D01*
X5591Y18588D01*
X5593Y18590D01*
X5595Y18592D01*
X5599Y18596D01*
X5602Y18600D01*
X5606Y18606D01*
X5610Y18614D01*
X5613Y18622D01*
X5614Y18622D01*
X5614Y18625D01*
X5615Y18629D01*
X5616Y18632D01*
X5618Y18636D01*
X5619Y18640D01*
X5620Y18645D01*
X5622Y18651D01*
X5623Y18656D01*
X5625Y18663D01*
X5627Y18671D01*
X5629Y18680D01*
X5631Y18689D01*
Y18690D01*
X5632Y18691D01*
X5633Y18694D01*
X5634Y18698D01*
X5635Y18702D01*
X5636Y18706D01*
X5639Y18717D01*
X5643Y18729D01*
X5647Y18742D01*
X5651Y18753D01*
X5653Y18758D01*
X5655Y18762D01*
Y18762D01*
X5656Y18763D01*
X5658Y18766D01*
X5661Y18771D01*
X5665Y18777D01*
X5670Y18784D01*
X5676Y18790D01*
X5683Y18796D01*
X5690Y18802D01*
X5691Y18803D01*
X5694Y18804D01*
X5695Y18805D01*
X5687Y18810D01*
X5676Y18819D01*
X5665Y18829D01*
Y18829D01*
X5664Y18827D01*
X5663Y18826D01*
X5661Y18823D01*
X5659Y18820D01*
X5657Y18816D01*
X5652Y18808D01*
X5646Y18798D01*
X5640Y18787D01*
X5635Y18776D01*
X5630Y18764D01*
X5596Y18780D01*
Y18780D01*
X5597Y18781D01*
X5598Y18784D01*
X5599Y18786D01*
X5600Y18790D01*
X5602Y18795D01*
X5605Y18799D01*
X5607Y18805D01*
X5613Y18817D01*
X5621Y18831D01*
X5631Y18846D01*
X5642Y18861D01*
Y18861D01*
X5640Y18863D01*
X5639Y18865D01*
X5638Y18868D01*
X5636Y18872D01*
X5634Y18877D01*
X5632Y18882D01*
X5630Y18888D01*
X5628Y18895D01*
X5626Y18902D01*
X5622Y18918D01*
X5620Y18935D01*
X5619Y18945D01*
X5614Y18950D01*
X5609Y18956D01*
X5603Y18962D01*
X5596Y18969D01*
X5589Y18977D01*
X5583Y18985D01*
X5574Y18994D01*
X5574Y18995D01*
X5573Y18996D01*
X5571Y18998D01*
X5569Y19001D01*
X5563Y19008D01*
X5555Y19017D01*
X5547Y19026D01*
X5539Y19035D01*
X5532Y19042D01*
X5530Y19045D01*
X5527Y19048D01*
X5526Y19049D01*
X5524Y19050D01*
X5522Y19052D01*
X5519Y19055D01*
X5511Y19061D01*
X5502Y19068D01*
Y18882D01*
X5458D01*
Y19132D01*
X5458D01*
X5460D01*
X5464D01*
X5468Y19132D01*
X5472Y19131D01*
X5478Y19130D01*
X5483Y19129D01*
X5489Y19127D01*
X5490D01*
X5490Y19126D01*
X5494Y19125D01*
X5498Y19123D01*
X5505Y19119D01*
X5513Y19115D01*
X5521Y19110D01*
X5530Y19104D01*
X5539Y19096D01*
X5540D01*
X5540Y19095D01*
X5544Y19092D01*
X5549Y19088D01*
X5556Y19081D01*
X5564Y19072D01*
X5574Y19062D01*
X5585Y19049D01*
X5597Y19035D01*
X5597Y19035D01*
X5599Y19032D01*
X5602Y19030D01*
X5606Y19026D01*
X5610Y19020D01*
X5615Y19015D01*
X5625Y19002D01*
X5629Y19014D01*
X5635Y19030D01*
X5643Y19046D01*
X5643Y19047D01*
X5644Y19048D01*
X5646Y19050D01*
X5647Y19053D01*
X5650Y19057D01*
X5653Y19061D01*
X5661Y19070D01*
X5670Y19080D01*
X5682Y19091D01*
X5696Y19101D01*
X5712Y19110D01*
X5713D01*
X5715Y19111D01*
X5717Y19113D01*
X5720Y19114D01*
X5724Y19115D01*
X5727Y19116D01*
X5728Y19123D01*
X5729D01*
X5731D01*
X5733Y19123D01*
X5737Y19122D01*
X5741Y19121D01*
X5742Y19121D01*
X5742Y19121D01*
X5749Y19123D01*
X5757Y19126D01*
X5774Y19129D01*
X5793Y19132D01*
X5814Y19133D01*
X5814D01*
X5816D01*
X5820D01*
X5823Y19132D01*
D02*
G37*
G36*
X5659Y18474D02*
X5664D01*
X5671Y18474D01*
X5677Y18473D01*
X5684Y18472D01*
X5701Y18469D01*
X5718Y18466D01*
X5736Y18460D01*
X5752Y18452D01*
X5753D01*
X5754Y18451D01*
X5756Y18450D01*
X5760Y18448D01*
X5763Y18446D01*
X5767Y18443D01*
X5777Y18436D01*
X5788Y18427D01*
X5799Y18416D01*
X5810Y18403D01*
X5819Y18388D01*
Y18388D01*
X5820Y18387D01*
X5822Y18384D01*
X5823Y18381D01*
X5824Y18378D01*
X5827Y18373D01*
X5828Y18367D01*
X5831Y18361D01*
X5833Y18355D01*
X5835Y18348D01*
X5839Y18333D01*
X5841Y18315D01*
X5842Y18297D01*
Y18291D01*
X5842Y18287D01*
X5841Y18283D01*
X5841Y18277D01*
X5840Y18270D01*
X5839Y18263D01*
X5835Y18249D01*
X5830Y18232D01*
X5827Y18224D01*
X5823Y18216D01*
X5818Y18209D01*
X5813Y18201D01*
X5812Y18201D01*
X5812Y18200D01*
X5810Y18198D01*
X5808Y18195D01*
X5805Y18192D01*
X5801Y18188D01*
X5797Y18184D01*
X5792Y18180D01*
X5786Y18175D01*
X5781Y18171D01*
X5774Y18167D01*
X5766Y18162D01*
X5759Y18158D01*
X5750Y18154D01*
X5732Y18147D01*
X5720Y18197D01*
X5721D01*
X5722Y18197D01*
X5724Y18198D01*
X5727Y18199D01*
X5731Y18201D01*
X5735Y18202D01*
X5743Y18206D01*
X5753Y18212D01*
X5763Y18219D01*
X5773Y18226D01*
X5781Y18235D01*
X5781Y18236D01*
X5784Y18240D01*
X5786Y18245D01*
X5790Y18253D01*
X5794Y18261D01*
X5797Y18272D01*
X5799Y18284D01*
X5800Y18298D01*
Y18302D01*
X5799Y18305D01*
Y18309D01*
X5799Y18313D01*
X5797Y18323D01*
X5794Y18335D01*
X5790Y18347D01*
X5785Y18359D01*
X5778Y18371D01*
Y18371D01*
X5777Y18372D01*
X5774Y18375D01*
X5770Y18380D01*
X5763Y18387D01*
X5755Y18393D01*
X5746Y18400D01*
X5735Y18406D01*
X5722Y18412D01*
X5721D01*
X5720Y18412D01*
X5718Y18413D01*
X5716Y18413D01*
X5713Y18414D01*
X5709Y18415D01*
X5699Y18417D01*
X5688Y18420D01*
X5676Y18421D01*
X5663Y18422D01*
X5649Y18423D01*
X5649D01*
X5647D01*
X5645D01*
X5641D01*
X5637Y18422D01*
X5632D01*
X5627Y18422D01*
X5621Y18421D01*
X5608Y18420D01*
X5593Y18417D01*
X5579Y18414D01*
X5565Y18409D01*
X5565D01*
X5563Y18409D01*
X5562Y18407D01*
X5559Y18406D01*
X5553Y18403D01*
X5545Y18399D01*
X5536Y18393D01*
X5527Y18385D01*
X5519Y18376D01*
X5511Y18366D01*
Y18365D01*
X5511Y18365D01*
X5509Y18363D01*
X5508Y18361D01*
X5506Y18355D01*
X5502Y18346D01*
X5500Y18337D01*
X5497Y18326D01*
X5494Y18314D01*
X5494Y18302D01*
Y18297D01*
X5494Y18295D01*
Y18291D01*
X5495Y18287D01*
X5497Y18277D01*
X5500Y18266D01*
X5504Y18254D01*
X5510Y18242D01*
X5518Y18231D01*
X5519Y18230D01*
X5519Y18230D01*
X5523Y18226D01*
X5528Y18221D01*
X5536Y18215D01*
X5546Y18208D01*
X5558Y18201D01*
X5573Y18196D01*
X5590Y18191D01*
X5577Y18141D01*
X5577D01*
X5574Y18141D01*
X5572Y18143D01*
X5567Y18144D01*
X5562Y18146D01*
X5556Y18148D01*
X5550Y18151D01*
X5543Y18154D01*
X5527Y18162D01*
X5512Y18172D01*
X5497Y18183D01*
X5490Y18190D01*
X5483Y18198D01*
X5483Y18198D01*
X5482Y18200D01*
X5481Y18202D01*
X5478Y18205D01*
X5476Y18209D01*
X5473Y18214D01*
X5470Y18219D01*
X5467Y18225D01*
X5464Y18232D01*
X5462Y18240D01*
X5459Y18249D01*
X5456Y18257D01*
X5452Y18276D01*
X5452Y18287D01*
X5451Y18297D01*
Y18303D01*
X5452Y18308D01*
Y18313D01*
X5452Y18319D01*
X5453Y18326D01*
X5454Y18333D01*
X5458Y18349D01*
X5462Y18365D01*
X5468Y18382D01*
X5471Y18390D01*
X5476Y18397D01*
X5477Y18398D01*
X5477Y18399D01*
X5479Y18401D01*
X5481Y18403D01*
X5486Y18410D01*
X5494Y18418D01*
X5504Y18428D01*
X5517Y18437D01*
X5531Y18447D01*
X5548Y18455D01*
X5549D01*
X5550Y18456D01*
X5553Y18457D01*
X5556Y18458D01*
X5561Y18460D01*
X5566Y18462D01*
X5572Y18463D01*
X5578Y18465D01*
X5585Y18467D01*
X5593Y18469D01*
X5611Y18472D01*
X5629Y18474D01*
X5649Y18475D01*
X5650D01*
X5652D01*
X5655D01*
X5659Y18474D01*
D02*
G37*
G36*
X5743Y18062D02*
X5743Y18061D01*
X5744Y18058D01*
X5746Y18056D01*
X5748Y18053D01*
X5750Y18049D01*
X5755Y18039D01*
X5761Y18029D01*
X5769Y18018D01*
X5777Y18006D01*
X5786Y17995D01*
X5787Y17995D01*
X5788Y17994D01*
X5791Y17990D01*
X5796Y17985D01*
X5803Y17979D01*
X5811Y17972D01*
X5819Y17965D01*
X5828Y17959D01*
X5838Y17954D01*
Y17923D01*
X5458D01*
Y17970D01*
X5754D01*
X5753Y17970D01*
X5751Y17973D01*
X5748Y17977D01*
X5744Y17982D01*
X5739Y17988D01*
X5733Y17996D01*
X5727Y18004D01*
X5721Y18014D01*
Y18015D01*
X5721Y18015D01*
X5718Y18019D01*
X5716Y18024D01*
X5712Y18030D01*
X5708Y18038D01*
X5705Y18046D01*
X5701Y18054D01*
X5697Y18062D01*
X5743D01*
Y18062D01*
D02*
G37*
G36*
X5573Y17804D02*
X5576D01*
X5580Y17804D01*
X5588Y17803D01*
X5598Y17800D01*
X5608Y17797D01*
X5619Y17793D01*
X5629Y17787D01*
X5629D01*
X5630Y17785D01*
X5633Y17783D01*
X5637Y17779D01*
X5642Y17773D01*
X5648Y17765D01*
X5654Y17756D01*
X5659Y17745D01*
X5663Y17733D01*
Y17734D01*
X5664Y17734D01*
X5665Y17738D01*
X5668Y17743D01*
X5671Y17749D01*
X5675Y17757D01*
X5680Y17764D01*
X5686Y17770D01*
X5693Y17776D01*
X5694Y17777D01*
X5697Y17779D01*
X5701Y17781D01*
X5706Y17783D01*
X5713Y17785D01*
X5721Y17788D01*
X5730Y17789D01*
X5740Y17790D01*
X5740D01*
X5741D01*
X5744D01*
X5747Y17789D01*
X5750Y17789D01*
X5754Y17788D01*
X5764Y17787D01*
X5775Y17783D01*
X5786Y17777D01*
X5793Y17774D01*
X5799Y17770D01*
X5804Y17766D01*
X5809Y17761D01*
X5810Y17760D01*
X5811Y17759D01*
X5812Y17758D01*
X5814Y17755D01*
X5816Y17752D01*
X5819Y17749D01*
X5821Y17745D01*
X5824Y17739D01*
X5829Y17728D01*
X5833Y17715D01*
X5837Y17699D01*
X5837Y17691D01*
X5838Y17682D01*
Y17677D01*
X5837Y17674D01*
Y17669D01*
X5836Y17664D01*
X5834Y17653D01*
X5831Y17640D01*
X5826Y17627D01*
X5822Y17620D01*
X5819Y17614D01*
X5814Y17607D01*
X5809Y17602D01*
X5808Y17601D01*
X5808Y17601D01*
X5806Y17599D01*
X5804Y17597D01*
X5801Y17595D01*
X5797Y17592D01*
X5789Y17586D01*
X5779Y17581D01*
X5767Y17576D01*
X5754Y17572D01*
X5746Y17572D01*
X5739Y17571D01*
X5737D01*
X5734D01*
X5729Y17572D01*
X5723Y17573D01*
X5716Y17575D01*
X5708Y17577D01*
X5700Y17580D01*
X5693Y17585D01*
X5692Y17586D01*
X5690Y17587D01*
X5686Y17591D01*
X5682Y17595D01*
X5677Y17601D01*
X5672Y17609D01*
X5667Y17617D01*
X5663Y17627D01*
Y17626D01*
X5663Y17625D01*
X5662Y17624D01*
X5661Y17621D01*
X5658Y17615D01*
X5655Y17607D01*
X5649Y17599D01*
X5643Y17590D01*
X5635Y17582D01*
X5626Y17574D01*
X5625Y17573D01*
X5622Y17571D01*
X5616Y17568D01*
X5609Y17565D01*
X5600Y17561D01*
X5590Y17558D01*
X5578Y17556D01*
X5566Y17556D01*
X5565D01*
X5563D01*
X5561D01*
X5558Y17556D01*
X5554Y17557D01*
X5549Y17557D01*
X5537Y17560D01*
X5524Y17564D01*
X5517Y17567D01*
X5511Y17570D01*
X5504Y17574D01*
X5497Y17579D01*
X5490Y17584D01*
X5484Y17590D01*
X5483Y17591D01*
X5483Y17592D01*
X5481Y17594D01*
X5479Y17596D01*
X5477Y17600D01*
X5474Y17604D01*
X5471Y17609D01*
X5468Y17614D01*
X5464Y17621D01*
X5462Y17628D01*
X5459Y17635D01*
X5456Y17643D01*
X5454Y17651D01*
X5452Y17660D01*
X5452Y17670D01*
X5451Y17681D01*
Y17686D01*
X5452Y17690D01*
X5452Y17694D01*
X5453Y17700D01*
X5454Y17706D01*
X5455Y17713D01*
X5459Y17727D01*
X5462Y17735D01*
X5465Y17742D01*
X5469Y17750D01*
X5473Y17757D01*
X5478Y17764D01*
X5484Y17771D01*
X5485Y17772D01*
X5486Y17773D01*
X5487Y17774D01*
X5490Y17776D01*
X5493Y17779D01*
X5497Y17782D01*
X5502Y17785D01*
X5507Y17788D01*
X5513Y17791D01*
X5519Y17794D01*
X5533Y17800D01*
X5541Y17802D01*
X5549Y17803D01*
X5558Y17804D01*
X5567Y17805D01*
X5568D01*
X5569D01*
X5570D01*
X5573Y17804D01*
D02*
G37*
G36*
X5743Y17474D02*
X5743Y17473D01*
X5744Y17471D01*
X5746Y17469D01*
X5748Y17465D01*
X5750Y17461D01*
X5755Y17452D01*
X5761Y17442D01*
X5769Y17430D01*
X5777Y17419D01*
X5786Y17408D01*
X5787Y17407D01*
X5788Y17406D01*
X5791Y17403D01*
X5796Y17398D01*
X5803Y17391D01*
X5811Y17385D01*
X5819Y17378D01*
X5828Y17371D01*
X5838Y17366D01*
Y17336D01*
X5458D01*
Y17382D01*
X5754D01*
X5753Y17383D01*
X5751Y17385D01*
X5748Y17389D01*
X5744Y17394D01*
X5739Y17401D01*
X5733Y17408D01*
X5727Y17417D01*
X5721Y17427D01*
Y17427D01*
X5721Y17428D01*
X5718Y17431D01*
X5716Y17436D01*
X5712Y17443D01*
X5708Y17450D01*
X5705Y17458D01*
X5701Y17467D01*
X5697Y17475D01*
X5743D01*
Y17474D01*
D02*
G37*
G36*
X5560Y17168D02*
X5559D01*
X5558D01*
X5557Y17167D01*
X5554Y17167D01*
X5548Y17165D01*
X5540Y17163D01*
X5531Y17160D01*
X5523Y17155D01*
X5514Y17150D01*
X5506Y17143D01*
X5506Y17142D01*
X5504Y17140D01*
X5501Y17136D01*
X5498Y17130D01*
X5495Y17123D01*
X5492Y17115D01*
X5490Y17106D01*
X5489Y17096D01*
Y17092D01*
X5490Y17090D01*
X5490Y17084D01*
X5492Y17076D01*
X5496Y17067D01*
X5500Y17057D01*
X5506Y17048D01*
X5509Y17044D01*
X5514Y17039D01*
X5515D01*
X5515Y17038D01*
X5519Y17035D01*
X5524Y17031D01*
X5532Y17027D01*
X5542Y17023D01*
X5553Y17019D01*
X5566Y17017D01*
X5581Y17016D01*
X5582D01*
X5583D01*
X5585D01*
X5588Y17016D01*
X5591D01*
X5595Y17017D01*
X5604Y17019D01*
X5614Y17021D01*
X5625Y17025D01*
X5635Y17031D01*
X5644Y17038D01*
X5645Y17039D01*
X5648Y17042D01*
X5652Y17047D01*
X5656Y17054D01*
X5660Y17062D01*
X5664Y17072D01*
X5666Y17084D01*
X5667Y17097D01*
Y17101D01*
X5667Y17105D01*
X5666Y17110D01*
X5664Y17117D01*
X5663Y17124D01*
X5660Y17131D01*
X5656Y17137D01*
X5656Y17138D01*
X5655Y17140D01*
X5652Y17144D01*
X5649Y17148D01*
X5645Y17152D01*
X5641Y17156D01*
X5635Y17161D01*
X5630Y17165D01*
X5636Y17209D01*
X5830Y17172D01*
Y16984D01*
X5786D01*
Y17135D01*
X5684Y17156D01*
X5684Y17155D01*
X5685Y17154D01*
X5686Y17152D01*
X5688Y17150D01*
X5690Y17147D01*
X5691Y17143D01*
X5696Y17134D01*
X5701Y17124D01*
X5704Y17111D01*
X5707Y17098D01*
X5708Y17084D01*
Y17080D01*
X5707Y17076D01*
X5707Y17072D01*
X5706Y17067D01*
X5705Y17061D01*
X5704Y17056D01*
X5699Y17042D01*
X5697Y17035D01*
X5694Y17029D01*
X5690Y17021D01*
X5685Y17014D01*
X5680Y17007D01*
X5674Y17001D01*
X5673Y17000D01*
X5672Y16999D01*
X5670Y16997D01*
X5667Y16996D01*
X5664Y16993D01*
X5660Y16990D01*
X5655Y16987D01*
X5650Y16984D01*
X5644Y16980D01*
X5637Y16977D01*
X5630Y16974D01*
X5622Y16972D01*
X5614Y16970D01*
X5605Y16968D01*
X5595Y16967D01*
X5585Y16966D01*
X5585D01*
X5583D01*
X5580D01*
X5577Y16967D01*
X5572Y16967D01*
X5567Y16968D01*
X5561Y16969D01*
X5555Y16970D01*
X5541Y16974D01*
X5527Y16979D01*
X5519Y16982D01*
X5511Y16987D01*
X5504Y16991D01*
X5497Y16996D01*
X5496Y16997D01*
X5495Y16998D01*
X5493Y17000D01*
X5490Y17003D01*
X5486Y17007D01*
X5482Y17011D01*
X5478Y17016D01*
X5474Y17023D01*
X5470Y17029D01*
X5466Y17037D01*
X5462Y17045D01*
X5458Y17054D01*
X5455Y17064D01*
X5453Y17073D01*
X5452Y17084D01*
X5451Y17096D01*
Y17101D01*
X5452Y17105D01*
X5452Y17109D01*
X5453Y17114D01*
X5453Y17120D01*
X5455Y17126D01*
X5458Y17139D01*
X5463Y17153D01*
X5467Y17160D01*
X5471Y17167D01*
X5475Y17174D01*
X5480Y17180D01*
X5481Y17181D01*
X5481Y17181D01*
X5483Y17183D01*
X5485Y17185D01*
X5488Y17188D01*
X5491Y17190D01*
X5496Y17193D01*
X5500Y17197D01*
X5511Y17203D01*
X5524Y17209D01*
X5539Y17214D01*
X5548Y17216D01*
X5557Y17217D01*
X5560Y17168D01*
D02*
G37*
%LPC*%
G36*
X5750Y19071D02*
X5744Y19069D01*
X5735Y19065D01*
X5725Y19061D01*
X5716Y19057D01*
X5708Y19051D01*
X5700Y19045D01*
X5700Y19044D01*
X5699Y19043D01*
X5697Y19041D01*
X5694Y19038D01*
X5691Y19034D01*
X5688Y19030D01*
X5684Y19025D01*
X5681Y19019D01*
X5677Y19013D01*
X5674Y19006D01*
X5670Y18998D01*
X5667Y18990D01*
X5665Y18981D01*
X5663Y18972D01*
X5662Y18964D01*
X5665Y18962D01*
X5671Y18956D01*
X5677Y18952D01*
X5678D01*
X5678Y18951D01*
X5680Y18950D01*
X5682Y18948D01*
X5688Y18945D01*
X5691Y18943D01*
X5693Y18951D01*
X5729Y18939D01*
Y18938D01*
X5729Y18937D01*
X5728Y18935D01*
X5727Y18931D01*
X5727Y18931D01*
X5733Y18930D01*
X5734D01*
X5735D01*
X5738Y18930D01*
X5743Y18931D01*
X5750Y18932D01*
X5757Y18935D01*
X5765Y18939D01*
X5773Y18943D01*
X5780Y18950D01*
X5781Y18951D01*
X5783Y18954D01*
X5786Y18958D01*
X5790Y18964D01*
X5793Y18971D01*
X5796Y18980D01*
X5799Y18990D01*
X5799Y19002D01*
Y19005D01*
X5799Y19008D01*
X5798Y19013D01*
X5797Y19021D01*
X5794Y19030D01*
X5790Y19039D01*
X5785Y19047D01*
X5778Y19055D01*
X5777Y19056D01*
X5775Y19058D01*
X5770Y19062D01*
X5764Y19065D01*
X5756Y19069D01*
X5750Y19071D01*
D02*
G37*
G36*
X5814Y19081D02*
X5816Y19078D01*
X5819Y19074D01*
X5821Y19069D01*
X5824Y19064D01*
X5826Y19058D01*
X5829Y19052D01*
X5831Y19045D01*
X5833Y19037D01*
X5837Y19020D01*
X5837Y19011D01*
X5838Y19001D01*
Y18996D01*
X5837Y18992D01*
X5837Y18987D01*
X5836Y18982D01*
X5835Y18976D01*
X5834Y18970D01*
X5830Y18956D01*
X5825Y18941D01*
X5822Y18934D01*
X5818Y18927D01*
X5812Y18921D01*
X5807Y18914D01*
X5807Y18914D01*
X5806Y18913D01*
X5804Y18911D01*
X5802Y18909D01*
X5799Y18907D01*
X5795Y18904D01*
X5786Y18898D01*
X5775Y18892D01*
X5763Y18887D01*
X5748Y18883D01*
X5740Y18883D01*
X5732Y18882D01*
X5731D01*
X5728D01*
X5724Y18883D01*
X5718Y18883D01*
X5711Y18884D01*
X5706Y18886D01*
X5701Y18879D01*
X5693Y18868D01*
X5693Y18867D01*
X5695Y18866D01*
X5697Y18864D01*
X5700Y18861D01*
X5705Y18857D01*
X5710Y18854D01*
X5716Y18850D01*
X5723Y18845D01*
X5731Y18841D01*
X5740Y18837D01*
X5750Y18834D01*
X5761Y18830D01*
X5773Y18827D01*
X5786Y18825D01*
X5799Y18824D01*
X5814Y18823D01*
X5814D01*
X5816D01*
X5818D01*
X5821D01*
X5825Y18824D01*
X5830D01*
X5841Y18825D01*
X5854Y18827D01*
X5867Y18830D01*
X5881Y18834D01*
X5894Y18839D01*
X5894D01*
X5896Y18839D01*
X5897Y18841D01*
X5900Y18842D01*
X5906Y18845D01*
X5913Y18850D01*
X5922Y18857D01*
X5931Y18865D01*
X5940Y18874D01*
X5947Y18884D01*
Y18885D01*
X5948Y18886D01*
X5949Y18887D01*
X5950Y18890D01*
X5953Y18896D01*
X5957Y18904D01*
X5961Y18914D01*
X5964Y18925D01*
X5966Y18938D01*
X5966Y18952D01*
Y18957D01*
X5966Y18961D01*
X5965Y18966D01*
X5964Y18971D01*
X5963Y18978D01*
X5962Y18984D01*
X5957Y18999D01*
X5954Y19007D01*
X5950Y19015D01*
X5946Y19022D01*
X5940Y19030D01*
X5935Y19038D01*
X5928Y19045D01*
X5927Y19045D01*
X5926Y19046D01*
X5924Y19048D01*
X5921Y19050D01*
X5917Y19053D01*
X5912Y19056D01*
X5906Y19060D01*
X5900Y19062D01*
X5892Y19066D01*
X5883Y19069D01*
X5874Y19072D01*
X5864Y19075D01*
X5852Y19077D01*
X5840Y19079D01*
X5828Y19080D01*
X5814Y19081D01*
D02*
G37*
G36*
X5741Y18767D02*
X5740D01*
X5737D01*
X5733Y18766D01*
X5729Y18765D01*
X5724Y18763D01*
X5718Y18761D01*
X5713Y18757D01*
X5707Y18753D01*
X5707Y18752D01*
X5705Y18749D01*
X5704Y18747D01*
X5702Y18745D01*
X5701Y18742D01*
X5699Y18738D01*
X5697Y18733D01*
X5695Y18728D01*
X5693Y18722D01*
X5691Y18715D01*
X5688Y18707D01*
X5686Y18698D01*
X5683Y18689D01*
X5680Y18678D01*
Y18677D01*
X5680Y18675D01*
X5679Y18672D01*
X5678Y18668D01*
X5677Y18663D01*
X5675Y18657D01*
X5672Y18644D01*
X5668Y18630D01*
X5664Y18617D01*
X5663Y18610D01*
X5660Y18604D01*
X5658Y18598D01*
X5656Y18594D01*
X5749D01*
X5755Y18596D01*
X5763Y18601D01*
X5772Y18607D01*
X5780Y18615D01*
X5780Y18616D01*
X5782Y18619D01*
X5785Y18624D01*
X5789Y18631D01*
X5792Y18640D01*
X5795Y18652D01*
X5797Y18665D01*
X5798Y18681D01*
Y18688D01*
X5797Y18691D01*
Y18696D01*
X5796Y18706D01*
X5794Y18717D01*
X5791Y18728D01*
X5787Y18738D01*
X5784Y18743D01*
X5781Y18747D01*
X5781Y18747D01*
X5778Y18750D01*
X5775Y18753D01*
X5770Y18757D01*
X5764Y18761D01*
X5757Y18763D01*
X5750Y18766D01*
X5741Y18767D01*
D02*
G37*
G36*
X5741Y17742D02*
X5740D01*
X5737D01*
X5732Y17741D01*
X5726Y17740D01*
X5719Y17738D01*
X5712Y17735D01*
X5705Y17731D01*
X5698Y17726D01*
X5697Y17725D01*
X5695Y17723D01*
X5693Y17719D01*
X5690Y17713D01*
X5686Y17707D01*
X5684Y17699D01*
X5682Y17690D01*
X5681Y17681D01*
Y17676D01*
X5682Y17671D01*
X5683Y17665D01*
X5685Y17658D01*
X5688Y17651D01*
X5692Y17643D01*
X5698Y17636D01*
X5698Y17636D01*
X5701Y17633D01*
X5704Y17630D01*
X5709Y17628D01*
X5715Y17624D01*
X5722Y17622D01*
X5731Y17620D01*
X5739Y17619D01*
X5740D01*
X5740D01*
X5743D01*
X5748Y17620D01*
X5754Y17621D01*
X5760Y17624D01*
X5768Y17626D01*
X5775Y17631D01*
X5782Y17637D01*
X5782Y17637D01*
X5785Y17640D01*
X5788Y17644D01*
X5791Y17649D01*
X5794Y17655D01*
X5797Y17663D01*
X5799Y17671D01*
X5800Y17681D01*
Y17685D01*
X5799Y17690D01*
X5797Y17696D01*
X5796Y17703D01*
X5792Y17711D01*
X5788Y17718D01*
X5782Y17725D01*
X5782Y17726D01*
X5780Y17728D01*
X5775Y17730D01*
X5771Y17734D01*
X5765Y17736D01*
X5758Y17739D01*
X5750Y17742D01*
X5741Y17742D01*
D02*
G37*
G36*
X5566Y17757D02*
X5566D01*
X5563D01*
X5559Y17757D01*
X5554Y17756D01*
X5549Y17755D01*
X5542Y17753D01*
X5535Y17751D01*
X5528Y17748D01*
X5527Y17747D01*
X5525Y17746D01*
X5521Y17744D01*
X5517Y17741D01*
X5513Y17737D01*
X5508Y17732D01*
X5503Y17727D01*
X5499Y17720D01*
X5498Y17719D01*
X5497Y17717D01*
X5496Y17713D01*
X5494Y17708D01*
X5492Y17702D01*
X5491Y17696D01*
X5490Y17688D01*
X5489Y17680D01*
Y17677D01*
X5490Y17674D01*
X5490Y17668D01*
X5492Y17660D01*
X5494Y17652D01*
X5498Y17643D01*
X5504Y17634D01*
X5511Y17625D01*
X5512Y17624D01*
X5515Y17622D01*
X5519Y17618D01*
X5525Y17614D01*
X5533Y17610D01*
X5543Y17607D01*
X5553Y17605D01*
X5565Y17603D01*
X5566D01*
X5567D01*
X5569D01*
X5571Y17604D01*
X5577Y17605D01*
X5585Y17606D01*
X5593Y17609D01*
X5603Y17613D01*
X5612Y17618D01*
X5621Y17626D01*
X5622Y17627D01*
X5624Y17630D01*
X5627Y17635D01*
X5632Y17641D01*
X5636Y17649D01*
X5640Y17659D01*
X5642Y17670D01*
X5643Y17682D01*
Y17685D01*
X5642Y17687D01*
X5642Y17693D01*
X5640Y17701D01*
X5638Y17709D01*
X5634Y17719D01*
X5629Y17727D01*
X5621Y17736D01*
X5620Y17737D01*
X5617Y17739D01*
X5612Y17743D01*
X5606Y17746D01*
X5598Y17750D01*
X5589Y17754D01*
X5578Y17756D01*
X5566Y17757D01*
D02*
G37*
%LPD*%
D18*
X4818Y18148D02*
X5822D01*
X4818Y19172D02*
X5822D01*
Y18148D02*
Y19172D01*
X4818Y18148D02*
Y19172D01*
D148*
X5871Y18660D02*
D03*
X4778Y19024D02*
D03*
Y18296D02*
D03*
M02*
