G04*
G04 #@! TF.GenerationSoftware,Altium Limited,Altium Designer,20.2.6 (244)*
G04*
G04 Layer_Color=128*
%FSLAX24Y24*%
%MOIN*%
G70*
G04*
G04 #@! TF.SameCoordinates,3AFE1146-FA95-4E81-A996-3AB7B898703E*
G04*
G04*
G04 #@! TF.FilePolarity,Positive*
G04*
G01*
G75*
%ADD25R,0.0354X0.0236*%
%ADD31R,0.0236X0.0354*%
%ADD34R,0.0650X0.0600*%
%ADD39R,0.0550X0.0433*%
%ADD47R,0.0394X0.0354*%
%ADD52R,0.0600X0.0650*%
%ADD140O,0.0217X0.0800*%
G04:AMPARAMS|DCode=141|XSize=61.8mil|YSize=16.1mil|CornerRadius=2mil|HoleSize=0mil|Usage=FLASHONLY|Rotation=90.000|XOffset=0mil|YOffset=0mil|HoleType=Round|Shape=RoundedRectangle|*
%AMROUNDEDRECTD141*
21,1,0.0618,0.0121,0,0,90.0*
21,1,0.0578,0.0161,0,0,90.0*
1,1,0.0040,0.0061,0.0289*
1,1,0.0040,0.0061,-0.0289*
1,1,0.0040,-0.0061,-0.0289*
1,1,0.0040,-0.0061,0.0289*
%
%ADD141ROUNDEDRECTD141*%
%ADD142R,0.3201X0.2000*%
%ADD143R,0.0670X0.0210*%
D25*
X34250Y17050D02*
D03*
X34250Y17765D02*
D03*
X35150Y17050D02*
D03*
X35150Y17765D02*
D03*
D31*
X36650Y10950D02*
D03*
X37365Y10950D02*
D03*
X36650Y11700D02*
D03*
X37365Y11700D02*
D03*
X16385Y14410D02*
D03*
X17100Y14410D02*
D03*
X16385Y13510D02*
D03*
X17100Y13510D02*
D03*
X16385Y12610D02*
D03*
X17100Y12610D02*
D03*
X18165Y10500D02*
D03*
X17450Y10500D02*
D03*
X17435Y9750D02*
D03*
X18150Y9750D02*
D03*
D34*
X36150Y18350D02*
D03*
Y17050D02*
D03*
X33850Y7650D02*
D03*
Y8950D02*
D03*
D39*
X39100Y18206D02*
D03*
Y18994D02*
D03*
Y12406D02*
D03*
Y13194D02*
D03*
D47*
X24450Y18565D02*
D03*
Y17935D02*
D03*
D52*
X27590Y18000D02*
D03*
X26290D02*
D03*
X17675Y15360D02*
D03*
X16375D02*
D03*
X4640Y4250D02*
D03*
X3340D02*
D03*
D140*
X35350Y11640D02*
D03*
X34850D02*
D03*
X34350D02*
D03*
X33850D02*
D03*
X33350D02*
D03*
X32850D02*
D03*
X32350D02*
D03*
X31850D02*
D03*
X35350Y15360D02*
D03*
X34850D02*
D03*
X34350D02*
D03*
X33850D02*
D03*
X33350D02*
D03*
X32850D02*
D03*
X32350D02*
D03*
X31850D02*
D03*
D141*
X15383Y12610D02*
D03*
X15127D02*
D03*
X14871D02*
D03*
X14615D02*
D03*
X14359D02*
D03*
X14103D02*
D03*
X13847D02*
D03*
X13591D02*
D03*
X13335D02*
D03*
X13080D02*
D03*
X12824D02*
D03*
X12568D02*
D03*
Y14870D02*
D03*
X12824D02*
D03*
X13080D02*
D03*
X13335D02*
D03*
X13591D02*
D03*
X13847D02*
D03*
X14103D02*
D03*
X14359D02*
D03*
X14615D02*
D03*
X14871D02*
D03*
X15127D02*
D03*
X15383D02*
D03*
D142*
X1850Y12500D02*
D03*
Y15200D02*
D03*
D143*
X31050Y8100D02*
D03*
Y7600D02*
D03*
Y7100D02*
D03*
Y6600D02*
D03*
Y6100D02*
D03*
Y5600D02*
D03*
Y5100D02*
D03*
Y4600D02*
D03*
X29010D02*
D03*
Y5100D02*
D03*
Y5600D02*
D03*
Y6100D02*
D03*
Y6600D02*
D03*
Y7100D02*
D03*
Y7600D02*
D03*
Y8100D02*
D03*
M02*
