G04*
G04 #@! TF.GenerationSoftware,Altium Limited,Altium Designer,20.2.6 (244)*
G04*
G04 Layer_Color=32768*
%FSLAX24Y24*%
%MOIN*%
G70*
G04*
G04 #@! TF.SameCoordinates,3AFE1146-FA95-4E81-A996-3AB7B898703E*
G04*
G04*
G04 #@! TF.FilePolarity,Positive*
G04*
G01*
G75*
%ADD11C,0.0050*%
%ADD18C,0.0039*%
%ADD149C,0.0020*%
%ADD150C,0.0079*%
G36*
X11537Y9660D02*
Y7658D01*
X10235D01*
Y9660D01*
X11537D01*
D02*
G37*
D11*
X31564Y18580D02*
X35107D01*
X31564Y14840D02*
Y18580D01*
Y14840D02*
X35107D01*
Y18580D01*
X13081Y9260D02*
Y11740D01*
X17019D01*
Y9260D02*
Y11740D01*
X13081Y9260D02*
X17019D01*
X13081Y16946D02*
Y19426D01*
X17019D01*
Y16946D02*
Y19426D01*
X13081Y16946D02*
X17019D01*
D18*
X11337Y12883D02*
Y15717D01*
X14763Y12883D02*
Y15717D01*
X11337D02*
X14763D01*
X11337Y12883D02*
X14763D01*
X12853Y14300D02*
X13247D01*
X13050Y14103D02*
Y14497D01*
X33600Y13303D02*
Y13697D01*
X33403Y13500D02*
X33797D01*
X7318Y15873D02*
X10153D01*
X7318Y12448D02*
X10153D01*
Y15873D01*
X7318Y12448D02*
Y15873D01*
X8735Y13963D02*
Y14357D01*
X8539Y14160D02*
X8932D01*
X9785Y19463D02*
Y19857D01*
X9589Y19660D02*
X9982D01*
X7785Y8363D02*
Y8757D01*
X7589Y8560D02*
X7982D01*
D149*
X34322Y4115D02*
Y10168D01*
X41133D01*
Y9233D02*
Y10168D01*
Y9233D02*
X43181D01*
Y4706D02*
Y9233D01*
X41133Y4706D02*
X43181D01*
X41133Y4115D02*
Y4706D01*
X34322Y4115D02*
X41133D01*
X10900Y16013D02*
Y16387D01*
X10713Y16200D02*
X11087D01*
X10350Y15905D02*
X11450D01*
X10350Y16495D02*
X11450D01*
Y15905D02*
Y16495D01*
X10350Y15905D02*
Y16495D01*
X24155Y18800D02*
X24745D01*
X24155Y17700D02*
X24745D01*
X24155D02*
Y18800D01*
X24745Y17700D02*
Y18800D01*
X24450Y18063D02*
Y18437D01*
X24263Y18250D02*
X24637D01*
X31474Y11167D02*
X35726D01*
X31474Y15833D02*
X35726D01*
Y11167D02*
Y15833D01*
X31474Y11167D02*
Y15833D01*
X15609Y12203D02*
Y15278D01*
X12341Y12203D02*
Y15278D01*
Y12203D02*
X15609D01*
X12341Y15278D02*
X15609D01*
X5635Y5165D02*
Y5756D01*
X4535Y5165D02*
Y5756D01*
Y5165D02*
X5635D01*
X4535Y5756D02*
X5635D01*
X4898Y5460D02*
X5272D01*
X5085Y5273D02*
Y5647D01*
X6766Y6357D02*
X8105D01*
Y4963D02*
Y6357D01*
X6766Y4963D02*
X8105D01*
X6766D02*
Y6357D01*
X9316Y6457D02*
X10655D01*
Y5063D02*
Y6457D01*
X9316Y5063D02*
X10655D01*
X9316D02*
Y6457D01*
X37308Y11515D02*
Y17236D01*
Y11515D02*
X39552D01*
Y17236D01*
X37308D02*
X39552D01*
X37308Y17364D02*
Y23085D01*
Y17364D02*
X39552D01*
Y23085D01*
X37308D02*
X39552D01*
X28954Y9869D02*
Y17152D01*
X26198Y9869D02*
X28954D01*
X26198Y9672D02*
Y9869D01*
X18520Y9672D02*
X26198D01*
X18520D02*
Y17349D01*
X26198D01*
Y17152D02*
Y17349D01*
Y17152D02*
X28954D01*
X18139Y21743D02*
X20856D01*
Y19577D02*
Y21743D01*
X18139Y19577D02*
X20856D01*
X18139D02*
Y21743D01*
X28376Y19577D02*
Y21743D01*
Y19577D02*
X31092D01*
Y21743D01*
X28376D02*
X31092D01*
X23257Y19577D02*
Y21743D01*
Y19577D02*
X25974D01*
Y21743D01*
X23257D02*
X25974D01*
X28376Y7983D02*
X31092D01*
Y5817D02*
Y7983D01*
X28376Y5817D02*
X31092D01*
X28376D02*
Y7983D01*
X23257D02*
X25974D01*
Y5817D02*
Y7983D01*
X23257Y5817D02*
X25974D01*
X23257D02*
Y7983D01*
X18139Y5817D02*
Y7983D01*
Y5817D02*
X20856D01*
Y7983D01*
X18139D02*
X20856D01*
X12405Y10035D02*
X12995D01*
X12405Y11135D02*
X12995D01*
X12405Y10035D02*
Y11135D01*
X12995Y10035D02*
Y11135D01*
X12700Y10398D02*
Y10772D01*
X12513Y10585D02*
X12887D01*
X12977Y7983D02*
X15694D01*
Y5817D02*
Y7983D01*
X12977Y5817D02*
X15694D01*
X12977D02*
Y7983D01*
X11750Y8305D02*
Y8895D01*
X12850Y8305D02*
Y8895D01*
X11750D02*
X12850D01*
X11750Y8305D02*
X12850D01*
X12113Y8600D02*
X12487D01*
X12300Y8413D02*
Y8787D01*
X11750Y8905D02*
Y9495D01*
X12850Y8905D02*
Y9495D01*
X11750D02*
X12850D01*
X11750Y8905D02*
X12850D01*
X12113Y9200D02*
X12487D01*
X12300Y9013D02*
Y9387D01*
X8048Y16560D02*
X8422D01*
X8235Y16373D02*
Y16747D01*
X7940Y16010D02*
Y17110D01*
X8531Y16010D02*
Y17110D01*
X7940Y16010D02*
X8531D01*
X7940Y17110D02*
X8531D01*
X8798Y16560D02*
X9172D01*
X8985Y16373D02*
Y16747D01*
X9281Y16010D02*
Y17110D01*
X8690Y16010D02*
Y17110D01*
X9281D01*
X8690Y16010D02*
X9281D01*
X12305Y17700D02*
X12895D01*
X12305Y18800D02*
X12895D01*
X12305Y17700D02*
Y18800D01*
X12895Y17700D02*
Y18800D01*
X12600Y18063D02*
Y18437D01*
X12413Y18250D02*
X12787D01*
X12977Y19577D02*
Y21743D01*
Y19577D02*
X15694D01*
Y21743D01*
X12977D02*
X15694D01*
X8235Y18538D02*
X11335D01*
X8235Y20782D02*
X11335D01*
Y18538D02*
Y20782D01*
X8235Y18538D02*
Y20782D01*
X4286Y11348D02*
X7085D01*
Y12972D01*
X4286D02*
X7085D01*
X4286Y11348D02*
Y12972D01*
X3549Y11402D02*
Y13598D01*
X-1748D02*
X3549D01*
X-1748Y11402D02*
Y13598D01*
Y11402D02*
X3549D01*
Y14102D02*
Y16298D01*
X-1748D02*
X3549D01*
X-1748Y14102D02*
Y16298D01*
Y14102D02*
X3549D01*
X3148Y15260D02*
X3522D01*
X3335Y15073D02*
Y15447D01*
X3631Y14710D02*
Y15810D01*
X3040Y14710D02*
Y15810D01*
X3631D01*
X3040Y14710D02*
X3631D01*
X5738Y10060D02*
X9833D01*
X5738Y7060D02*
X9833D01*
Y10060D01*
X5738Y7060D02*
Y10060D01*
X9385Y22115D02*
Y22706D01*
X10485Y22115D02*
Y22706D01*
X9385D02*
X10485D01*
X9385Y22115D02*
X10485D01*
X9748Y22410D02*
X10122D01*
X9935Y22223D02*
Y22597D01*
D150*
X826Y11719D02*
X3897D01*
Y14002D01*
X826D02*
X3897D01*
X826Y11719D02*
Y14002D01*
M02*
