G04*
G04 #@! TF.GenerationSoftware,Altium Limited,Altium Designer,20.2.6 (244)*
G04*
G04 Layer_Physical_Order=2*
G04 Layer_Color=16711680*
%FSLAX24Y24*%
%MOIN*%
G70*
G04*
G04 #@! TF.SameCoordinates,3AFE1146-FA95-4E81-A996-3AB7B898703E*
G04*
G04*
G04 #@! TF.FilePolarity,Positive*
G04*
G01*
G75*
%ADD10C,0.0079*%
%ADD16C,0.0236*%
%ADD25R,0.0354X0.0236*%
%ADD31R,0.0236X0.0354*%
%ADD34R,0.0650X0.0600*%
%ADD39R,0.0550X0.0433*%
%ADD47R,0.0394X0.0354*%
%ADD48R,0.0800X0.0700*%
%ADD52R,0.0600X0.0650*%
%ADD122C,0.0118*%
%ADD123C,0.0197*%
%ADD124C,0.0157*%
%ADD125C,0.0236*%
%ADD126C,0.1260*%
%ADD127R,0.0750X0.0900*%
%ADD128O,0.0750X0.0900*%
%ADD129C,0.0598*%
%ADD130R,0.0598X0.0598*%
%ADD131C,0.0515*%
%ADD132R,0.0515X0.0515*%
%ADD133C,0.0118*%
%ADD134O,0.0800X0.0700*%
%ADD135C,0.0394*%
%ADD136R,0.0600X0.0600*%
%ADD137C,0.0600*%
%ADD138O,0.0984X0.0787*%
%ADD139O,0.0787X0.0984*%
%ADD140O,0.0217X0.0800*%
G04:AMPARAMS|DCode=141|XSize=61.8mil|YSize=16.1mil|CornerRadius=2mil|HoleSize=0mil|Usage=FLASHONLY|Rotation=90.000|XOffset=0mil|YOffset=0mil|HoleType=Round|Shape=RoundedRectangle|*
%AMROUNDEDRECTD141*
21,1,0.0618,0.0121,0,0,90.0*
21,1,0.0578,0.0161,0,0,90.0*
1,1,0.0040,0.0061,0.0289*
1,1,0.0040,0.0061,-0.0289*
1,1,0.0040,-0.0061,-0.0289*
1,1,0.0040,-0.0061,0.0289*
%
%ADD141ROUNDEDRECTD141*%
%ADD142R,0.3201X0.2000*%
%ADD143R,0.0670X0.0210*%
G36*
X40369Y27569D02*
Y24650D01*
X40379Y24600D01*
X40407Y24557D01*
X40919Y24046D01*
Y23922D01*
X40840Y23907D01*
X40819Y23957D01*
X40705Y24105D01*
X40557Y24219D01*
X40385Y24290D01*
X40200Y24315D01*
X40015Y24290D01*
X39843Y24219D01*
X39695Y24105D01*
X39581Y23957D01*
X39510Y23785D01*
X39485Y23600D01*
X39510Y23415D01*
X39581Y23243D01*
X39695Y23095D01*
X39843Y22981D01*
X40015Y22910D01*
X40200Y22885D01*
X40385Y22910D01*
X40557Y22981D01*
X40705Y23095D01*
X40819Y23243D01*
X40840Y23293D01*
X40919Y23278D01*
X40919Y11322D01*
X40840Y11307D01*
X40819Y11357D01*
X40705Y11505D01*
X40557Y11619D01*
X40385Y11690D01*
X40200Y11715D01*
X40015Y11690D01*
X39843Y11619D01*
X39695Y11505D01*
X39581Y11357D01*
X39510Y11185D01*
X39485Y11000D01*
X39510Y10815D01*
X39581Y10643D01*
X39695Y10495D01*
X39843Y10381D01*
X40015Y10310D01*
X40200Y10285D01*
X40385Y10310D01*
X40557Y10381D01*
X40705Y10495D01*
X40819Y10643D01*
X40841Y10697D01*
X40879Y10698D01*
X40922Y10685D01*
X40929Y10650D01*
X40957Y10607D01*
X40957Y10607D01*
X41169Y10396D01*
Y9385D01*
X41090Y9356D01*
X41038Y9378D01*
X40504D01*
X40443Y9353D01*
X40418Y9293D01*
Y8289D01*
X40443Y8229D01*
X40504Y8204D01*
X41038D01*
X41090Y8226D01*
X41169Y8197D01*
Y4004D01*
X40357Y3193D01*
X40329Y3150D01*
X40319Y3100D01*
Y2950D01*
Y81D01*
X631Y81D01*
Y3000D01*
X621Y3050D01*
X593Y3093D01*
X-33Y3719D01*
Y3932D01*
X45Y3959D01*
X95Y3895D01*
X243Y3781D01*
X415Y3710D01*
X600Y3685D01*
X785Y3710D01*
X957Y3781D01*
X1105Y3895D01*
X1219Y4043D01*
X1290Y4215D01*
X1315Y4400D01*
X1290Y4585D01*
X1219Y4757D01*
X1105Y4905D01*
X957Y5019D01*
X785Y5090D01*
X600Y5115D01*
X415Y5090D01*
X243Y5019D01*
X95Y4905D01*
X45Y4841D01*
X-33Y4868D01*
X-33Y23581D01*
X82Y23697D01*
X156Y23659D01*
X135Y23500D01*
X160Y23315D01*
X231Y23143D01*
X345Y22995D01*
X493Y22881D01*
X665Y22810D01*
X850Y22785D01*
X1035Y22810D01*
X1207Y22881D01*
X1355Y22995D01*
X1469Y23143D01*
X1540Y23315D01*
X1565Y23500D01*
X1540Y23685D01*
X1469Y23857D01*
X1355Y24005D01*
X1207Y24119D01*
X1035Y24190D01*
X850Y24215D01*
X691Y24194D01*
X659Y24236D01*
X648Y24264D01*
X671Y24300D01*
X681Y24350D01*
Y27569D01*
X40369Y27569D01*
D02*
G37*
%LPC*%
G36*
X19521Y25343D02*
X19403Y25327D01*
X19292Y25282D01*
X19198Y25209D01*
X19125Y25114D01*
X19079Y25004D01*
X19064Y24885D01*
Y24735D01*
X19079Y24617D01*
X19102Y24561D01*
X19066Y24526D01*
X18974Y24530D01*
X18944Y24571D01*
X18963Y24617D01*
X18979Y24735D01*
Y24885D01*
X18963Y25004D01*
X18918Y25114D01*
X18845Y25209D01*
X18750Y25282D01*
X18640Y25327D01*
X18521Y25343D01*
X18403Y25327D01*
X18292Y25282D01*
X18198Y25209D01*
X18125Y25114D01*
X18079Y25004D01*
X18064Y24885D01*
Y24735D01*
X18079Y24617D01*
X18125Y24506D01*
X18198Y24412D01*
X18292Y24339D01*
X18403Y24293D01*
X18521Y24278D01*
X18640Y24293D01*
X18748Y24338D01*
X18808Y24279D01*
Y22448D01*
X14046Y17687D01*
X13968Y17720D01*
Y24011D01*
X14294Y24338D01*
X14403Y24293D01*
X14521Y24278D01*
X14640Y24293D01*
X14750Y24339D01*
X14845Y24412D01*
X14918Y24506D01*
X14963Y24617D01*
X14979Y24735D01*
Y24885D01*
X14963Y25004D01*
X14918Y25114D01*
X14845Y25209D01*
X14750Y25282D01*
X14640Y25327D01*
X14521Y25343D01*
X14403Y25327D01*
X14292Y25282D01*
X14198Y25209D01*
X14125Y25114D01*
X14079Y25004D01*
X14064Y24885D01*
Y24735D01*
X14079Y24617D01*
X14124Y24508D01*
X13791Y24175D01*
X13712Y24207D01*
Y24323D01*
X13750Y24339D01*
X13845Y24412D01*
X13918Y24506D01*
X13963Y24617D01*
X13979Y24735D01*
Y24885D01*
X13963Y25004D01*
X13918Y25114D01*
X13845Y25209D01*
X13750Y25282D01*
X13640Y25327D01*
X13521Y25343D01*
X13403Y25327D01*
X13292Y25282D01*
X13198Y25209D01*
X13125Y25114D01*
X13079Y25004D01*
X13064Y24885D01*
Y24735D01*
X13079Y24617D01*
X13125Y24506D01*
X13198Y24412D01*
X13292Y24339D01*
X13403Y24293D01*
X13471Y24284D01*
Y18617D01*
X13392Y18575D01*
X13377Y18585D01*
X13300Y18601D01*
X13223Y18585D01*
X13158Y18542D01*
X13157Y18541D01*
X12808D01*
X11662Y19687D01*
X11642Y19758D01*
X11685Y19823D01*
X11701Y19900D01*
X11685Y19977D01*
X11642Y20042D01*
X11577Y20085D01*
X11500Y20101D01*
X11423Y20085D01*
X11358Y20042D01*
X11315Y19977D01*
X11299Y19900D01*
X11305Y19873D01*
X11232Y19834D01*
X9306Y21760D01*
Y24262D01*
X9371Y24306D01*
X9403Y24293D01*
X9521Y24278D01*
X9640Y24293D01*
X9750Y24339D01*
X9845Y24412D01*
X9918Y24506D01*
X9963Y24617D01*
X9979Y24735D01*
Y24885D01*
X9963Y25004D01*
X9918Y25114D01*
X9845Y25209D01*
X9750Y25282D01*
X9640Y25327D01*
X9521Y25343D01*
X9403Y25327D01*
X9292Y25282D01*
X9198Y25209D01*
X9125Y25114D01*
X9079Y25004D01*
X9064Y24885D01*
Y24735D01*
X9079Y24617D01*
X9089Y24593D01*
X9061Y24543D01*
X8970Y24532D01*
X8940Y24561D01*
X8963Y24617D01*
X8979Y24735D01*
Y24885D01*
X8963Y25004D01*
X8918Y25114D01*
X8845Y25209D01*
X8750Y25282D01*
X8640Y25327D01*
X8521Y25343D01*
X8403Y25327D01*
X8292Y25282D01*
X8198Y25209D01*
X8125Y25114D01*
X8079Y25004D01*
X8064Y24885D01*
Y24735D01*
X8079Y24617D01*
X8125Y24506D01*
X8198Y24412D01*
X8292Y24339D01*
X8403Y24293D01*
X8521Y24278D01*
X8640Y24293D01*
X8750Y24339D01*
X8791Y24370D01*
X8865Y24296D01*
Y21758D01*
X8792Y21728D01*
X6485Y24035D01*
X6446Y24061D01*
X6400Y24070D01*
X6400Y24070D01*
X5431D01*
X4940Y24561D01*
X4963Y24617D01*
X4979Y24735D01*
Y24885D01*
X4963Y25004D01*
X4918Y25114D01*
X4845Y25209D01*
X4750Y25282D01*
X4640Y25327D01*
X4521Y25343D01*
X4403Y25327D01*
X4292Y25282D01*
X4198Y25209D01*
X4125Y25114D01*
X4079Y25004D01*
X4064Y24885D01*
Y24735D01*
X4079Y24617D01*
X4125Y24506D01*
X4198Y24412D01*
X4292Y24339D01*
X4403Y24293D01*
X4521Y24278D01*
X4640Y24293D01*
X4750Y24339D01*
X4791Y24370D01*
X5218Y23943D01*
X5188Y23870D01*
X4556D01*
X3918Y24508D01*
X3963Y24617D01*
X3979Y24735D01*
Y24885D01*
X3963Y25004D01*
X3918Y25114D01*
X3845Y25209D01*
X3750Y25282D01*
X3640Y25327D01*
X3521Y25343D01*
X3403Y25327D01*
X3292Y25282D01*
X3198Y25209D01*
X3125Y25114D01*
X3079Y25004D01*
X3064Y24885D01*
Y24735D01*
X3079Y24617D01*
X3125Y24506D01*
X3198Y24412D01*
X3292Y24339D01*
X3403Y24293D01*
X3521Y24278D01*
X3640Y24293D01*
X3748Y24338D01*
X4421Y23665D01*
X4421Y23665D01*
X4460Y23639D01*
X4506Y23630D01*
X4506Y23630D01*
X6300D01*
X12447Y17482D01*
Y15238D01*
X12436Y15230D01*
X12414Y15198D01*
X12406Y15159D01*
Y14581D01*
X12414Y14543D01*
X12436Y14510D01*
X12469Y14488D01*
X12507Y14480D01*
X12628D01*
X12667Y14488D01*
X12696Y14507D01*
X12724Y14488D01*
X12763Y14480D01*
X12884D01*
X12923Y14488D01*
X12952Y14507D01*
X12980Y14488D01*
X13019Y14480D01*
X13140D01*
X13179Y14488D01*
X13207Y14507D01*
X13236Y14488D01*
X13275Y14480D01*
X13396D01*
X13435Y14488D01*
X13463Y14507D01*
X13492Y14488D01*
X13531Y14480D01*
X13652D01*
X13690Y14488D01*
X13719Y14507D01*
X13748Y14488D01*
X13787Y14480D01*
X13908D01*
X13946Y14488D01*
X13975Y14507D01*
X14004Y14488D01*
X14043Y14480D01*
X14164D01*
X14202Y14488D01*
X14231Y14507D01*
X14260Y14488D01*
X14299Y14480D01*
X14420D01*
X14458Y14488D01*
X14491Y14510D01*
X14513Y14543D01*
X14520Y14581D01*
Y15159D01*
X14513Y15198D01*
X14491Y15230D01*
X14479Y15238D01*
Y17534D01*
X17175Y20229D01*
X17226Y20209D01*
X17251Y20194D01*
X17265Y20123D01*
X17308Y20058D01*
X17373Y20015D01*
X17450Y19999D01*
X17527Y20015D01*
X17592Y20058D01*
X17606Y20080D01*
X22150D01*
X22330Y19900D01*
Y19311D01*
X22251Y19269D01*
X22227Y19285D01*
X22150Y19301D01*
X22073Y19285D01*
X22008Y19242D01*
X22007Y19240D01*
X21800D01*
X21746Y19230D01*
X21701Y19199D01*
X21042Y18541D01*
X16643D01*
X16642Y18542D01*
X16577Y18585D01*
X16500Y18601D01*
X16423Y18585D01*
X16358Y18542D01*
X16315Y18477D01*
X16299Y18400D01*
X16315Y18323D01*
X16358Y18258D01*
X16423Y18215D01*
X16500Y18199D01*
X16577Y18215D01*
X16642Y18258D01*
X16643Y18260D01*
X21100D01*
X21154Y18270D01*
X21199Y18301D01*
X21858Y18959D01*
X22007D01*
X22008Y18958D01*
X22073Y18915D01*
X22150Y18899D01*
X22227Y18915D01*
X22251Y18931D01*
X22330Y18889D01*
Y17756D01*
X22308Y17742D01*
X22265Y17677D01*
X22249Y17600D01*
X22265Y17523D01*
X22308Y17458D01*
X22373Y17415D01*
X22450Y17399D01*
X22527Y17415D01*
X22592Y17458D01*
X22635Y17523D01*
X22651Y17600D01*
X22635Y17677D01*
X22592Y17742D01*
X22570Y17756D01*
Y19950D01*
X22561Y19996D01*
X22535Y20035D01*
X22535Y20035D01*
X22285Y20285D01*
X22246Y20311D01*
X22200Y20320D01*
X22200Y20320D01*
X17606D01*
X17592Y20342D01*
X17527Y20385D01*
X17456Y20399D01*
X17441Y20424D01*
X17421Y20475D01*
X19171Y22225D01*
X19197Y22264D01*
X19206Y22310D01*
X19206Y22310D01*
Y24306D01*
X19272Y24354D01*
X19292Y24339D01*
X19403Y24293D01*
X19521Y24278D01*
X19640Y24293D01*
X19750Y24339D01*
X19845Y24412D01*
X19918Y24506D01*
X19963Y24617D01*
X19979Y24735D01*
Y24885D01*
X19963Y25004D01*
X19918Y25114D01*
X19845Y25209D01*
X19750Y25282D01*
X19640Y25327D01*
X19521Y25343D01*
D02*
G37*
G36*
X39521D02*
X39403Y25327D01*
X39292Y25282D01*
X39198Y25209D01*
X39125Y25114D01*
X39079Y25004D01*
X39064Y24885D01*
Y24735D01*
X39079Y24617D01*
X39102Y24561D01*
X38917Y24376D01*
X38858Y24428D01*
X38878Y24455D01*
X38918Y24506D01*
X38963Y24617D01*
X38979Y24735D01*
Y24885D01*
X38963Y25004D01*
X38918Y25114D01*
X38845Y25209D01*
X38750Y25282D01*
X38640Y25327D01*
X38521Y25343D01*
X38403Y25327D01*
X38292Y25282D01*
X38198Y25209D01*
X38125Y25114D01*
X38079Y25004D01*
X38064Y24885D01*
Y24735D01*
X38079Y24617D01*
X38125Y24506D01*
X38198Y24412D01*
X38292Y24339D01*
X38403Y24293D01*
X38521Y24278D01*
X38640Y24293D01*
X38750Y24339D01*
X38801Y24378D01*
X38828Y24399D01*
X38880Y24339D01*
X38461Y23920D01*
X33980D01*
X33949Y23993D01*
X34294Y24338D01*
X34403Y24293D01*
X34521Y24278D01*
X34640Y24293D01*
X34750Y24339D01*
X34845Y24412D01*
X34918Y24506D01*
X34963Y24617D01*
X34979Y24735D01*
Y24885D01*
X34963Y25004D01*
X34918Y25114D01*
X34845Y25209D01*
X34750Y25282D01*
X34640Y25327D01*
X34521Y25343D01*
X34403Y25327D01*
X34292Y25282D01*
X34198Y25209D01*
X34125Y25114D01*
X34079Y25004D01*
X34064Y24885D01*
Y24735D01*
X34079Y24617D01*
X34124Y24508D01*
X33676Y24060D01*
X33650Y24043D01*
X32965Y23358D01*
X32939Y23319D01*
X32930Y23273D01*
X32930Y23273D01*
Y21862D01*
X32851Y21838D01*
X32843Y21850D01*
X30450Y24243D01*
X30411Y24269D01*
X30365Y24278D01*
X30365Y24278D01*
X30199D01*
X29953Y24523D01*
X29992Y24617D01*
X30008Y24735D01*
Y24885D01*
X29992Y25004D01*
X29946Y25114D01*
X29874Y25209D01*
X29779Y25282D01*
X29668Y25327D01*
X29550Y25343D01*
X29432Y25327D01*
X29321Y25282D01*
X29226Y25209D01*
X29154Y25114D01*
X29108Y25004D01*
X29092Y24885D01*
Y24735D01*
X29108Y24617D01*
X29154Y24506D01*
X29226Y24412D01*
X29321Y24339D01*
X29432Y24293D01*
X29550Y24278D01*
X29668Y24293D01*
X29779Y24339D01*
X29789Y24347D01*
X29943Y24193D01*
X29913Y24120D01*
X25250D01*
X24882Y24488D01*
X24896Y24506D01*
X24942Y24617D01*
X24958Y24735D01*
Y24885D01*
X24942Y25004D01*
X24896Y25114D01*
X24824Y25209D01*
X24729Y25282D01*
X24618Y25327D01*
X24500Y25343D01*
X24382Y25327D01*
X24271Y25282D01*
X24176Y25209D01*
X24104Y25114D01*
X24058Y25004D01*
X24042Y24885D01*
Y24735D01*
X24058Y24617D01*
X24104Y24506D01*
X24176Y24412D01*
X24271Y24339D01*
X24382Y24293D01*
X24500Y24278D01*
X24618Y24293D01*
X24702Y24328D01*
X25115Y23915D01*
X25115Y23915D01*
X25123Y23909D01*
X25115Y23858D01*
X25099Y23831D01*
X22134D01*
X22127Y23835D01*
X22050Y23851D01*
X21973Y23835D01*
X21966Y23831D01*
X21300D01*
X21231Y23817D01*
X21172Y23778D01*
X20358Y22964D01*
X20250Y22985D01*
X20103Y22956D01*
X19978Y22872D01*
X19894Y22747D01*
X19865Y22600D01*
X19894Y22453D01*
X19978Y22328D01*
X20103Y22244D01*
X20250Y22215D01*
X20397Y22244D01*
X20522Y22328D01*
X20606Y22453D01*
X20635Y22600D01*
X20614Y22708D01*
X21375Y23469D01*
X21966D01*
X21973Y23465D01*
X22050Y23449D01*
X22127Y23465D01*
X22134Y23469D01*
X28310D01*
X28319Y23460D01*
Y22050D01*
Y20075D01*
X28241Y20059D01*
X28208Y20108D01*
X28143Y20152D01*
X28066Y20167D01*
X27989Y20152D01*
X27967Y20137D01*
X27949Y20141D01*
X26000D01*
X25946Y20130D01*
X25901Y20099D01*
X25074Y19273D01*
X25044Y19228D01*
X25033Y19174D01*
Y16207D01*
X24955Y16154D01*
X24918Y16161D01*
X24841Y16146D01*
X24776Y16102D01*
X24732Y16037D01*
X24717Y15960D01*
X24732Y15883D01*
X24776Y15818D01*
X24815Y15792D01*
Y12135D01*
X24759Y12080D01*
X24698Y12130D01*
X24710Y12148D01*
X24726Y12225D01*
X24710Y12302D01*
X24667Y12367D01*
X24602Y12410D01*
X24525Y12426D01*
X24448Y12410D01*
X24410Y12385D01*
X22600D01*
X22546Y12464D01*
X22554Y12500D01*
X22538Y12577D01*
X22495Y12642D01*
X22430Y12685D01*
X22353Y12701D01*
X22312Y12693D01*
X21314Y13691D01*
X21347Y13760D01*
X21352Y13764D01*
X21425Y13749D01*
X21502Y13765D01*
X21567Y13808D01*
X21610Y13873D01*
X21626Y13950D01*
X21610Y14027D01*
X21590Y14057D01*
Y15192D01*
X23349Y16951D01*
X23380Y16996D01*
X23391Y17050D01*
Y22222D01*
X23628D01*
Y22978D01*
X22872D01*
Y22222D01*
X23110D01*
Y21792D01*
X23037Y21762D01*
X22518Y22281D01*
X22522Y22328D01*
X22606Y22453D01*
X22635Y22600D01*
X22606Y22747D01*
X22522Y22872D01*
X22397Y22956D01*
X22250Y22985D01*
X22103Y22956D01*
X21978Y22872D01*
X21894Y22747D01*
X21865Y22600D01*
X21894Y22453D01*
X21978Y22328D01*
X22103Y22244D01*
X22208Y22223D01*
X22212Y22204D01*
X22243Y22159D01*
X22910Y21492D01*
Y17187D01*
X20936Y15214D01*
X20906Y15168D01*
X20895Y15114D01*
Y14212D01*
X20823Y14182D01*
X20355Y14649D01*
X20310Y14680D01*
X20256Y14691D01*
X18243D01*
X18242Y14692D01*
X18177Y14735D01*
X18100Y14751D01*
X18023Y14735D01*
X17958Y14692D01*
X17915Y14627D01*
X17899Y14550D01*
X17915Y14473D01*
X17918Y14467D01*
X17871Y14397D01*
X17850Y14401D01*
X17773Y14385D01*
X17708Y14342D01*
X17665Y14277D01*
X17649Y14200D01*
X17665Y14123D01*
X17708Y14058D01*
X17773Y14015D01*
X17850Y13999D01*
X17927Y14015D01*
X17992Y14058D01*
X17993Y14059D01*
X20092D01*
X21230Y12921D01*
X21240Y12873D01*
X21283Y12808D01*
X21348Y12765D01*
X21425Y12749D01*
X21502Y12765D01*
X21567Y12808D01*
X21610Y12873D01*
X21612Y12883D01*
X21698Y12909D01*
X22144Y12464D01*
X22121Y12401D01*
X22106Y12385D01*
X18192D01*
X18069Y12508D01*
X18060Y12552D01*
X18017Y12617D01*
X17952Y12660D01*
X17875Y12676D01*
X17798Y12660D01*
X17733Y12617D01*
X17690Y12552D01*
X17674Y12475D01*
X17690Y12398D01*
X17733Y12333D01*
X17798Y12290D01*
X17842Y12281D01*
X18012Y12111D01*
X18012Y12111D01*
X18010Y12018D01*
X17998Y12003D01*
X17711D01*
X17665Y11994D01*
X17626Y11968D01*
X17419Y11761D01*
X17346Y11791D01*
Y12610D01*
X17334Y12672D01*
X17326Y12683D01*
Y13510D01*
Y14410D01*
X17315Y14464D01*
X17297Y14491D01*
Y14666D01*
X17187D01*
X17177Y14717D01*
X17147Y14762D01*
X16754Y15155D01*
Y15764D01*
X16561D01*
Y15936D01*
X16585Y15973D01*
X16601Y16050D01*
X16585Y16127D01*
X16542Y16192D01*
X16477Y16235D01*
X16400Y16251D01*
X16323Y16235D01*
X16258Y16192D01*
X16215Y16127D01*
X16199Y16050D01*
X16215Y15973D01*
X16239Y15936D01*
Y15863D01*
X16161Y15830D01*
X16113Y15878D01*
X16055Y15917D01*
X15986Y15931D01*
X15434D01*
X15427Y15935D01*
X15350Y15951D01*
X15273Y15935D01*
X15208Y15892D01*
X15165Y15827D01*
X15149Y15750D01*
X15165Y15673D01*
X15208Y15608D01*
X15273Y15565D01*
X15350Y15549D01*
X15427Y15565D01*
X15434Y15569D01*
X15911D01*
X15997Y15484D01*
Y15155D01*
X15852Y15011D01*
X15544D01*
Y15159D01*
X15536Y15198D01*
X15515Y15230D01*
X15482Y15252D01*
X15443Y15260D01*
X15322D01*
X15284Y15252D01*
X15255Y15233D01*
X15226Y15252D01*
X15187Y15260D01*
X15066D01*
X15028Y15252D01*
X14999Y15233D01*
X14970Y15252D01*
X14931Y15260D01*
X14810D01*
X14772Y15252D01*
X14739Y15230D01*
X14717Y15198D01*
X14709Y15159D01*
Y14581D01*
X14717Y14543D01*
X14730Y14523D01*
Y13879D01*
X14741Y13825D01*
X14751Y13810D01*
X14749Y13800D01*
X14765Y13723D01*
X14808Y13658D01*
X14873Y13615D01*
X14950Y13599D01*
X14956Y13600D01*
X14986Y13580D01*
X15040Y13570D01*
X16089D01*
X16145Y13514D01*
Y13510D01*
X16156Y13456D01*
X16186Y13411D01*
X16189Y13409D01*
Y13254D01*
X16582D01*
Y13766D01*
X16290D01*
X16247Y13810D01*
X16201Y13840D01*
X16148Y13851D01*
X15141D01*
X15135Y13877D01*
X15092Y13942D01*
X15027Y13985D01*
X15011Y13988D01*
Y14140D01*
X15090Y14173D01*
X15155Y14108D01*
X15201Y14077D01*
X15255Y14067D01*
X15402D01*
X15408Y14058D01*
X15473Y14015D01*
X15550Y13999D01*
X15627Y14015D01*
X15692Y14058D01*
X15693Y14059D01*
X16148D01*
X16201Y14070D01*
X16247Y14101D01*
X16301Y14154D01*
X16582D01*
Y14666D01*
X16189D01*
Y14511D01*
X16186Y14510D01*
X16156Y14464D01*
X16145Y14410D01*
Y14396D01*
X16089Y14340D01*
X15693D01*
X15692Y14342D01*
X15627Y14385D01*
X15550Y14401D01*
X15473Y14385D01*
X15417Y14348D01*
X15313D01*
X15267Y14393D01*
Y14411D01*
X15322Y14480D01*
X15443D01*
X15482Y14488D01*
X15515Y14510D01*
X15536Y14543D01*
X15544Y14581D01*
Y14730D01*
X15910D01*
X15964Y14740D01*
X16010Y14771D01*
X16195Y14957D01*
X16555D01*
X16903Y14609D01*
Y14154D01*
X17045D01*
Y13766D01*
X16903D01*
Y13254D01*
X17045D01*
Y12866D01*
X16903D01*
Y12354D01*
X17025D01*
Y11702D01*
X16261Y10938D01*
X16226Y10886D01*
X16214Y10824D01*
X16214Y10824D01*
Y8779D01*
X16158Y8742D01*
X16115Y8677D01*
X16099Y8600D01*
X16115Y8523D01*
X16158Y8458D01*
X16223Y8415D01*
X16300Y8399D01*
X16377Y8415D01*
X16442Y8458D01*
X16485Y8523D01*
X16495Y8571D01*
X16523Y8613D01*
X16525Y8623D01*
X16536Y8635D01*
X16583Y8628D01*
X16639Y8564D01*
X16639Y8564D01*
Y8114D01*
X16615Y8077D01*
X16599Y8000D01*
X16615Y7923D01*
X16658Y7858D01*
X16723Y7815D01*
X16800Y7799D01*
X16877Y7815D01*
X16942Y7858D01*
X16985Y7923D01*
X17001Y8000D01*
X16985Y8077D01*
X16961Y8114D01*
Y8497D01*
X17133Y8670D01*
X17177Y8678D01*
X17242Y8722D01*
X17285Y8787D01*
X17301Y8864D01*
X17285Y8941D01*
X17242Y9006D01*
X17218Y9022D01*
Y9123D01*
X17207Y9176D01*
X17177Y9222D01*
X17091Y9308D01*
Y10432D01*
X17562Y10904D01*
X20545D01*
X20575Y10831D01*
X18529Y8784D01*
X17714D01*
Y9241D01*
X17735Y9273D01*
X17751Y9350D01*
X17735Y9427D01*
X17714Y9459D01*
Y9561D01*
X17714Y9561D01*
X17702Y9623D01*
X17667Y9675D01*
X17632Y9710D01*
Y10006D01*
X17238D01*
Y9494D01*
X17315D01*
X17349Y9448D01*
X17362Y9415D01*
X17349Y9350D01*
X17365Y9273D01*
X17393Y9231D01*
Y8718D01*
X17368Y8680D01*
X17353Y8604D01*
X17368Y8527D01*
X17412Y8462D01*
X17413Y8461D01*
Y6877D01*
X17400Y6801D01*
X17323Y6785D01*
X17258Y6742D01*
X17215Y6677D01*
X17199Y6600D01*
X17215Y6523D01*
X17258Y6458D01*
X17323Y6415D01*
X17400Y6399D01*
X17477Y6415D01*
X17542Y6458D01*
X17585Y6523D01*
X17601Y6600D01*
X17600Y6602D01*
X17653Y6654D01*
X17683Y6700D01*
X17694Y6754D01*
Y8423D01*
X18604D01*
X18673Y8437D01*
X18731Y8476D01*
X20875Y10619D01*
X24500D01*
X24569Y10633D01*
X24628Y10672D01*
X25557Y11602D01*
X25597Y11661D01*
X25610Y11730D01*
Y17449D01*
X25920D01*
X25989Y17463D01*
X26047Y17502D01*
X26142Y17596D01*
X26669D01*
Y18404D01*
X26471D01*
Y19460D01*
X26480Y19469D01*
X28364D01*
X28434Y19483D01*
X28492Y19522D01*
X28628Y19658D01*
X28667Y19716D01*
X28681Y19786D01*
Y21869D01*
X31716D01*
X31723Y21865D01*
X31800Y21849D01*
X31877Y21865D01*
X31942Y21908D01*
X31985Y21973D01*
X31995Y22023D01*
X32068Y22054D01*
X32076Y22054D01*
X32480Y21650D01*
Y17223D01*
X31765Y16508D01*
X31739Y16469D01*
X31730Y16423D01*
X31730Y16423D01*
Y15796D01*
X31715Y15787D01*
X31674Y15725D01*
X31659Y15652D01*
Y15069D01*
X31674Y14996D01*
X31715Y14934D01*
X31777Y14892D01*
X31850Y14878D01*
X31923Y14892D01*
X31985Y14934D01*
X32026Y14996D01*
X32041Y15069D01*
Y15652D01*
X32026Y15725D01*
X31985Y15787D01*
X31970Y15796D01*
Y16373D01*
X32157Y16559D01*
X32230Y16529D01*
Y15796D01*
X32215Y15787D01*
X32174Y15725D01*
X32159Y15652D01*
Y15069D01*
X32174Y14996D01*
X32215Y14934D01*
X32277Y14892D01*
X32350Y14878D01*
X32423Y14892D01*
X32485Y14934D01*
X32526Y14996D01*
X32541Y15069D01*
Y15652D01*
X32526Y15725D01*
X32485Y15787D01*
X32470Y15796D01*
Y16650D01*
X32843Y17022D01*
X32843Y17022D01*
X32851Y17035D01*
X32930Y17011D01*
Y16100D01*
X32765Y15935D01*
X32739Y15896D01*
X32730Y15850D01*
X32730Y15850D01*
Y15796D01*
X32715Y15787D01*
X32674Y15725D01*
X32659Y15652D01*
Y15069D01*
X32674Y14996D01*
X32715Y14934D01*
X32777Y14892D01*
X32850Y14878D01*
X32923Y14892D01*
X32985Y14934D01*
X33026Y14996D01*
X33041Y15069D01*
Y15652D01*
X33026Y15725D01*
X32985Y15787D01*
X33025Y15855D01*
X33135Y15965D01*
X33135Y15965D01*
X33162Y15968D01*
X33230Y15900D01*
Y15796D01*
X33215Y15787D01*
X33174Y15725D01*
X33159Y15652D01*
Y15069D01*
X33174Y14996D01*
X33215Y14934D01*
X33277Y14892D01*
X33350Y14878D01*
X33423Y14892D01*
X33485Y14934D01*
X33526Y14996D01*
X33541Y15069D01*
Y15652D01*
X33526Y15725D01*
X33485Y15787D01*
X33470Y15796D01*
Y15889D01*
X33549Y15931D01*
X33573Y15915D01*
X33650Y15899D01*
X33727Y15915D01*
X33792Y15958D01*
X33835Y16023D01*
X33851Y16100D01*
X33835Y16177D01*
X33792Y16242D01*
X33727Y16285D01*
X33678Y16295D01*
X33540Y16433D01*
Y17709D01*
X33994D01*
Y17568D01*
X34506D01*
Y17709D01*
X34894D01*
Y17568D01*
X35406D01*
X35470Y17532D01*
X35746Y17255D01*
Y16671D01*
X35984D01*
Y16291D01*
X35493D01*
X35492Y16292D01*
X35427Y16335D01*
X35350Y16351D01*
X35273Y16335D01*
X35208Y16292D01*
X35165Y16227D01*
X35149Y16150D01*
X35165Y16073D01*
X35208Y16008D01*
X35210Y16007D01*
Y15778D01*
X35174Y15725D01*
X35159Y15652D01*
Y15069D01*
X35174Y14996D01*
X35215Y14934D01*
X35277Y14892D01*
X35350Y14878D01*
X35423Y14892D01*
X35485Y14934D01*
X35526Y14996D01*
X35541Y15069D01*
Y15652D01*
X35526Y15725D01*
X35491Y15778D01*
Y16007D01*
X35492Y16008D01*
X35493Y16010D01*
X36056D01*
X36110Y16020D01*
X36155Y16051D01*
X36224Y16120D01*
X36255Y16165D01*
X36265Y16219D01*
Y16671D01*
X36554D01*
Y17429D01*
X35970D01*
X35587Y17812D01*
X35542Y17842D01*
X35488Y17853D01*
X35406D01*
Y17962D01*
X35231D01*
X35204Y17980D01*
X35150Y17990D01*
X33540D01*
Y19376D01*
X33619Y19399D01*
X33624Y19392D01*
X33689Y19348D01*
X33727Y19341D01*
X33778Y19312D01*
X33807Y19261D01*
X33815Y19223D01*
X33858Y19158D01*
X33923Y19115D01*
X33980Y19103D01*
X34021Y19071D01*
X34053Y19030D01*
X34065Y18973D01*
X34108Y18908D01*
X34173Y18865D01*
X34250Y18849D01*
X34275Y18854D01*
X34343Y18793D01*
X34358Y18717D01*
X34402Y18652D01*
X34467Y18608D01*
X34543Y18593D01*
X34620Y18608D01*
X34685Y18652D01*
X34729Y18717D01*
X34731Y18725D01*
X34992Y18986D01*
X37134D01*
X37144Y18977D01*
Y13376D01*
X37158Y13307D01*
X37197Y13248D01*
X37964Y12481D01*
Y12064D01*
X38636D01*
Y12223D01*
X38746D01*
Y12111D01*
X39454D01*
Y12702D01*
X38746D01*
Y12584D01*
X38636D01*
Y12737D01*
X38219D01*
X38161Y12795D01*
X38200Y12867D01*
X38300Y12847D01*
X38431Y12873D01*
X38542Y12948D01*
X38585Y13011D01*
X38746D01*
Y12898D01*
X39454D01*
Y13489D01*
X38746D01*
Y13373D01*
X38582D01*
X38542Y13433D01*
X38431Y13507D01*
X38300Y13533D01*
X38227Y13518D01*
X38161Y13585D01*
X38199Y13658D01*
X38300Y13638D01*
X38431Y13664D01*
X38542Y13738D01*
X38617Y13849D01*
X38643Y13980D01*
X38617Y14111D01*
X38542Y14223D01*
X38431Y14297D01*
X38300Y14323D01*
X38169Y14297D01*
X38058Y14223D01*
X37983Y14111D01*
X37957Y13980D01*
X37977Y13880D01*
X37905Y13841D01*
X37831Y13915D01*
Y19178D01*
X37903Y19208D01*
X37976Y19135D01*
X37957Y19040D01*
X37983Y18909D01*
X38058Y18797D01*
X38169Y18723D01*
X38300Y18697D01*
X38431Y18723D01*
X38542Y18797D01*
X38568Y18836D01*
X38746D01*
Y18698D01*
X39454D01*
Y19289D01*
X38746D01*
Y19197D01*
X38599D01*
X38542Y19282D01*
X38431Y19356D01*
X38300Y19383D01*
X38250Y19373D01*
X38194Y19428D01*
X38233Y19500D01*
X38300Y19487D01*
X38431Y19513D01*
X38542Y19588D01*
X38617Y19699D01*
X38643Y19830D01*
X38617Y19961D01*
X38542Y20072D01*
X38431Y20147D01*
X38300Y20173D01*
X38238Y20160D01*
X37899Y20499D01*
X37854Y20530D01*
X37800Y20540D01*
X33540D01*
Y21592D01*
X33599Y21651D01*
X33630Y21696D01*
X33640Y21750D01*
Y21957D01*
X33642Y21958D01*
X33685Y22023D01*
X33701Y22100D01*
X33685Y22177D01*
X33642Y22242D01*
X33577Y22285D01*
X33500Y22301D01*
X33423Y22285D01*
X33407Y22274D01*
X33328Y22316D01*
Y23158D01*
X33850Y23680D01*
X37612D01*
X37659Y23601D01*
X37649Y23550D01*
X37665Y23473D01*
X37708Y23408D01*
X37773Y23365D01*
X37850Y23349D01*
X37927Y23365D01*
X37934Y23369D01*
X38775D01*
X39069Y23075D01*
Y20250D01*
X39083Y20181D01*
X39122Y20122D01*
X39719Y19525D01*
Y12175D01*
X38972Y11428D01*
X38933Y11369D01*
X38919Y11300D01*
Y7100D01*
X38933Y7031D01*
X38972Y6972D01*
X40519Y5425D01*
Y4275D01*
X39684Y3439D01*
X39032D01*
Y2382D01*
X39939D01*
Y3184D01*
X40828Y4072D01*
X40867Y4131D01*
X40881Y4200D01*
Y5478D01*
X40878Y5489D01*
X40881Y5500D01*
X40867Y5569D01*
X40828Y5628D01*
X39281Y7175D01*
Y11225D01*
X40028Y11972D01*
X40067Y12031D01*
X40081Y12100D01*
Y19600D01*
X40067Y19669D01*
X40028Y19728D01*
X39431Y20325D01*
Y23150D01*
X39417Y23219D01*
X39378Y23278D01*
X38978Y23678D01*
X38919Y23717D01*
X38850Y23731D01*
X38715D01*
X38685Y23803D01*
X39252Y24370D01*
X39292Y24339D01*
X39403Y24293D01*
X39521Y24278D01*
X39640Y24293D01*
X39750Y24339D01*
X39845Y24412D01*
X39918Y24506D01*
X39963Y24617D01*
X39979Y24735D01*
Y24885D01*
X39963Y25004D01*
X39918Y25114D01*
X39845Y25209D01*
X39750Y25282D01*
X39640Y25327D01*
X39521Y25343D01*
D02*
G37*
G36*
X36975Y25339D02*
X36067D01*
Y24281D01*
X36975D01*
Y25339D01*
D02*
G37*
G36*
X31975D02*
X31067D01*
Y24281D01*
X31975D01*
Y25339D01*
D02*
G37*
G36*
X27004D02*
X26096D01*
Y24281D01*
X27004D01*
Y25339D01*
D02*
G37*
G36*
X21954D02*
X21046D01*
Y24281D01*
X21954D01*
Y25339D01*
D02*
G37*
G36*
X16975D02*
X16067D01*
Y24281D01*
X16975D01*
Y25339D01*
D02*
G37*
G36*
X11975D02*
X11067D01*
Y24281D01*
X11975D01*
Y25339D01*
D02*
G37*
G36*
X6975D02*
X6068D01*
Y24281D01*
X6975D01*
Y25339D01*
D02*
G37*
G36*
X1975D02*
X1067D01*
Y24281D01*
X1975D01*
Y25339D01*
D02*
G37*
G36*
X33521Y25343D02*
X33403Y25327D01*
X33292Y25282D01*
X33198Y25209D01*
X33125Y25114D01*
X33079Y25004D01*
X33064Y24885D01*
Y24735D01*
X33079Y24617D01*
X33125Y24506D01*
X33198Y24412D01*
X33292Y24339D01*
X33403Y24293D01*
X33521Y24278D01*
X33640Y24293D01*
X33750Y24339D01*
X33845Y24412D01*
X33918Y24506D01*
X33963Y24617D01*
X33979Y24735D01*
Y24885D01*
X33963Y25004D01*
X33918Y25114D01*
X33845Y25209D01*
X33750Y25282D01*
X33640Y25327D01*
X33521Y25343D01*
D02*
G37*
G36*
X28550D02*
X28432Y25327D01*
X28321Y25282D01*
X28226Y25209D01*
X28154Y25114D01*
X28108Y25004D01*
X28092Y24885D01*
Y24735D01*
X28108Y24617D01*
X28154Y24506D01*
X28226Y24412D01*
X28321Y24339D01*
X28432Y24293D01*
X28550Y24278D01*
X28668Y24293D01*
X28779Y24339D01*
X28874Y24412D01*
X28946Y24506D01*
X28992Y24617D01*
X29008Y24735D01*
Y24885D01*
X28992Y25004D01*
X28946Y25114D01*
X28874Y25209D01*
X28779Y25282D01*
X28668Y25327D01*
X28550Y25343D01*
D02*
G37*
G36*
X23500D02*
X23382Y25327D01*
X23271Y25282D01*
X23176Y25209D01*
X23104Y25114D01*
X23058Y25004D01*
X23042Y24885D01*
Y24735D01*
X23058Y24617D01*
X23104Y24506D01*
X23176Y24412D01*
X23271Y24339D01*
X23382Y24293D01*
X23500Y24278D01*
X23618Y24293D01*
X23729Y24339D01*
X23824Y24412D01*
X23896Y24506D01*
X23942Y24617D01*
X23958Y24735D01*
Y24885D01*
X23942Y25004D01*
X23896Y25114D01*
X23824Y25209D01*
X23729Y25282D01*
X23618Y25327D01*
X23500Y25343D01*
D02*
G37*
G36*
X38300Y22542D02*
X38169Y22516D01*
X38058Y22442D01*
X37983Y22331D01*
X37957Y22200D01*
X37983Y22068D01*
X38058Y21957D01*
X38169Y21883D01*
X38300Y21857D01*
X38431Y21883D01*
X38542Y21957D01*
X38617Y22068D01*
X38643Y22200D01*
X38617Y22331D01*
X38542Y22442D01*
X38431Y22516D01*
X38300Y22542D01*
D02*
G37*
G36*
Y21753D02*
X38169Y21727D01*
X38058Y21652D01*
X37983Y21541D01*
X37957Y21410D01*
X37983Y21279D01*
X38058Y21167D01*
X38169Y21093D01*
X38300Y21067D01*
X38431Y21093D01*
X38542Y21167D01*
X38617Y21279D01*
X38643Y21410D01*
X38617Y21541D01*
X38542Y21652D01*
X38431Y21727D01*
X38300Y21753D01*
D02*
G37*
G36*
X32100Y21751D02*
X32023Y21735D01*
X31958Y21692D01*
X31915Y21627D01*
X31899Y21550D01*
X31900Y21548D01*
X29904Y19552D01*
X29873Y19507D01*
X29863Y19453D01*
Y15001D01*
X29873Y14947D01*
X29904Y14901D01*
X30228Y14577D01*
X30203Y14491D01*
X30173Y14485D01*
X30108Y14442D01*
X30065Y14377D01*
X30049Y14300D01*
X30065Y14223D01*
X30089Y14186D01*
Y14150D01*
X30089Y14150D01*
X30102Y14089D01*
X30136Y14036D01*
X30189Y13983D01*
Y10068D01*
X29882Y9761D01*
X25961D01*
Y10836D01*
X25985Y10873D01*
X26001Y10950D01*
X25985Y11027D01*
X25942Y11092D01*
X25877Y11135D01*
X25800Y11151D01*
X25723Y11135D01*
X25658Y11092D01*
X25615Y11027D01*
X25599Y10950D01*
X25615Y10873D01*
X25639Y10836D01*
Y9692D01*
X25639Y9692D01*
X25652Y9631D01*
X25686Y9579D01*
X25779Y9486D01*
X25779Y9486D01*
X25831Y9452D01*
X25892Y9439D01*
X27098D01*
X27128Y9367D01*
X25965Y8203D01*
X25939Y8164D01*
X25930Y8118D01*
X25930Y8118D01*
Y4050D01*
X25780Y3900D01*
X22280D01*
X22280Y3900D01*
X22234Y3891D01*
X22195Y3865D01*
X22195Y3865D01*
X21712Y3382D01*
X21604Y3427D01*
X21485Y3443D01*
X21367Y3427D01*
X21257Y3382D01*
X21162Y3309D01*
X21089Y3214D01*
X21043Y3104D01*
X21028Y2985D01*
Y2835D01*
X21043Y2717D01*
X21089Y2606D01*
X21162Y2512D01*
X21257Y2439D01*
X21367Y2393D01*
X21485Y2378D01*
X21604Y2393D01*
X21714Y2439D01*
X21809Y2512D01*
X21882Y2606D01*
X21927Y2717D01*
X21943Y2835D01*
Y2985D01*
X21927Y3104D01*
X21883Y3212D01*
X22330Y3659D01*
X25830D01*
X25830Y3659D01*
X25876Y3669D01*
X25915Y3695D01*
X26135Y3915D01*
X26151Y3938D01*
X26230Y3924D01*
Y3367D01*
X26230Y3367D01*
X26231Y3362D01*
X26162Y3309D01*
X26089Y3214D01*
X26043Y3104D01*
X26028Y2985D01*
Y2835D01*
X26043Y2717D01*
X26089Y2606D01*
X26162Y2512D01*
X26257Y2439D01*
X26367Y2393D01*
X26485Y2378D01*
X26604Y2393D01*
X26714Y2439D01*
X26809Y2512D01*
X26882Y2606D01*
X26927Y2717D01*
X26943Y2835D01*
Y2985D01*
X26927Y3104D01*
X26882Y3214D01*
X26809Y3309D01*
X26714Y3382D01*
X26604Y3427D01*
X26485Y3443D01*
X26470Y3456D01*
Y5281D01*
X26484Y5292D01*
X26587Y5279D01*
X26653Y5235D01*
X26729Y5220D01*
X26806Y5235D01*
X26829Y5251D01*
X27915Y4165D01*
X27915Y4165D01*
X27954Y4139D01*
X28000Y4130D01*
X29970D01*
X29970Y4130D01*
X30016Y4139D01*
X30055Y4165D01*
X30807Y4916D01*
X31464D01*
Y5284D01*
X30636D01*
Y5087D01*
X29920Y4370D01*
X29483D01*
X29424Y4416D01*
X29424Y4449D01*
Y4784D01*
X28596D01*
Y4449D01*
X28596Y4416D01*
X28537Y4370D01*
X28050D01*
X26995Y5425D01*
X26996Y5435D01*
X27026Y5506D01*
X27077Y5516D01*
X27142Y5559D01*
X27185Y5624D01*
X27201Y5701D01*
X27185Y5778D01*
X27142Y5843D01*
X27120Y5857D01*
Y5950D01*
X27111Y5996D01*
X27085Y6035D01*
X26670Y6450D01*
Y7900D01*
X27581Y8810D01*
X29919D01*
X30080Y8650D01*
Y6350D01*
X30080Y6350D01*
X30089Y6304D01*
X30115Y6265D01*
X30365Y6015D01*
X30365Y6015D01*
X30404Y5989D01*
X30450Y5980D01*
X30636D01*
Y5916D01*
X31464D01*
Y6284D01*
X30636D01*
Y6220D01*
X30500D01*
X30320Y6400D01*
Y7006D01*
X30393Y7037D01*
X30415Y7015D01*
X30415Y7015D01*
X30454Y6989D01*
X30500Y6980D01*
X30500Y6980D01*
X30636D01*
Y6916D01*
X31464D01*
Y7284D01*
X30636D01*
Y7220D01*
X30550D01*
X30478Y7292D01*
Y8765D01*
X30469Y8811D01*
X30443Y8850D01*
X30443Y8850D01*
X30176Y9117D01*
X30181Y9161D01*
X30858Y9837D01*
X30919Y9787D01*
X30902Y9761D01*
X30889Y9700D01*
X30889Y9700D01*
Y8284D01*
X30636D01*
Y7916D01*
X31464D01*
Y7939D01*
X33308D01*
X33446Y7802D01*
Y7271D01*
X34027D01*
X34415Y6883D01*
X34415Y6883D01*
X34467Y6848D01*
X34529Y6836D01*
X35011D01*
X35033Y6794D01*
X35042Y6757D01*
X35004Y6700D01*
X34989Y6623D01*
X34925Y6570D01*
X33400D01*
X32285Y7685D01*
X32246Y7711D01*
X32200Y7720D01*
X32200Y7720D01*
X31464D01*
Y7784D01*
X30636D01*
Y7416D01*
X31464D01*
Y7480D01*
X32150D01*
X32837Y6793D01*
X32806Y6720D01*
X31464D01*
Y6784D01*
X30636D01*
Y6416D01*
X31464D01*
Y6480D01*
X32900D01*
X33276Y6104D01*
X33315Y6078D01*
X33361Y6069D01*
X35517D01*
X35531Y6047D01*
X35597Y6004D01*
X35673Y5989D01*
X35750Y6004D01*
X35751Y6004D01*
X35830Y5962D01*
Y5750D01*
X35786Y5707D01*
X31464D01*
Y5784D01*
X30636D01*
Y5416D01*
X31464D01*
Y5466D01*
X32944D01*
X32968Y5387D01*
X32965Y5385D01*
X32965Y5385D01*
X31853Y4273D01*
X31656D01*
X31642Y4295D01*
X31577Y4338D01*
X31500Y4353D01*
X31423Y4338D01*
X31358Y4295D01*
X31315Y4230D01*
X31299Y4153D01*
X31315Y4076D01*
X31358Y4011D01*
X31423Y3967D01*
X31500Y3952D01*
X31577Y3967D01*
X31642Y4011D01*
X31656Y4032D01*
X31903D01*
X31903Y4032D01*
X31949Y4042D01*
X31988Y4068D01*
X33100Y5180D01*
X33398D01*
X33431Y5101D01*
X31712Y3382D01*
X31604Y3427D01*
X31485Y3443D01*
X31367Y3427D01*
X31257Y3382D01*
X31162Y3309D01*
X31089Y3214D01*
X31043Y3104D01*
X31028Y2985D01*
Y2835D01*
X31043Y2717D01*
X31089Y2606D01*
X31162Y2512D01*
X31257Y2439D01*
X31367Y2393D01*
X31485Y2378D01*
X31604Y2393D01*
X31714Y2439D01*
X31809Y2512D01*
X31882Y2606D01*
X31927Y2717D01*
X31943Y2835D01*
Y2985D01*
X31927Y3104D01*
X31883Y3212D01*
X33608Y4937D01*
X34376D01*
X34430Y4858D01*
X34430Y4854D01*
X34430Y4854D01*
Y3796D01*
X34430Y3796D01*
X34439Y3750D01*
X34465Y3711D01*
X34511Y3665D01*
X34511Y3665D01*
X34550Y3639D01*
X34596Y3630D01*
X34596Y3630D01*
X36250D01*
X36347Y3532D01*
Y3419D01*
X36257Y3382D01*
X36162Y3309D01*
X36089Y3214D01*
X36043Y3104D01*
X36028Y2985D01*
Y2835D01*
X36043Y2717D01*
X36089Y2606D01*
X36162Y2512D01*
X36257Y2439D01*
X36367Y2393D01*
X36485Y2378D01*
X36604Y2393D01*
X36714Y2439D01*
X36809Y2512D01*
X36882Y2606D01*
X36927Y2717D01*
X36943Y2835D01*
Y2985D01*
X36927Y3104D01*
X36882Y3214D01*
X36809Y3309D01*
X36714Y3382D01*
X36604Y3427D01*
X36588Y3429D01*
Y3582D01*
X36588Y3582D01*
X36579Y3628D01*
X36553Y3667D01*
X36385Y3835D01*
X36346Y3861D01*
X36300Y3870D01*
X36300Y3870D01*
X34670D01*
Y4780D01*
X35823D01*
X35823Y4780D01*
X35869Y4789D01*
X35908Y4815D01*
X36235Y5142D01*
X36493Y5400D01*
X36493Y5400D01*
X36519Y5439D01*
X36521Y5448D01*
X36599Y5441D01*
Y5000D01*
X36624Y4940D01*
X36685Y4915D01*
X37111D01*
Y4723D01*
X37078Y4673D01*
X36645D01*
X36585Y4648D01*
X36560Y4588D01*
Y4291D01*
X36585Y4231D01*
X36645Y4206D01*
X38065D01*
X38125Y4231D01*
X38150Y4291D01*
Y4588D01*
X38183Y4638D01*
X40194D01*
X40255Y4663D01*
X40280Y4723D01*
Y5001D01*
X40255Y5061D01*
X40194Y5086D01*
X37401D01*
Y8426D01*
X37377Y8487D01*
X37316Y8512D01*
X36685D01*
X36624Y8487D01*
X36599Y8426D01*
Y8359D01*
X36521Y8352D01*
X36519Y8361D01*
X36493Y8400D01*
X36493Y8400D01*
X36235Y8658D01*
X36235Y8658D01*
X33970Y10923D01*
Y11204D01*
X33985Y11213D01*
X34026Y11275D01*
X34041Y11348D01*
Y11932D01*
X34026Y12004D01*
X33985Y12066D01*
X33923Y12108D01*
X33850Y12122D01*
X33777Y12108D01*
X33715Y12066D01*
X33674Y12004D01*
X33659Y11932D01*
Y11348D01*
X33674Y11275D01*
X33715Y11213D01*
X33730Y11204D01*
Y11044D01*
X33657Y11013D01*
X33525Y11145D01*
X33485Y11213D01*
X33526Y11275D01*
X33541Y11348D01*
Y11932D01*
X33526Y12004D01*
X33485Y12066D01*
X33423Y12108D01*
X33350Y12122D01*
X33277Y12108D01*
X33215Y12066D01*
X33174Y12004D01*
X33159Y11932D01*
Y11348D01*
X33174Y11275D01*
X33215Y11213D01*
X33230Y11204D01*
Y11150D01*
X33230Y11150D01*
X33239Y11104D01*
X33265Y11065D01*
X33954Y10376D01*
X33954Y10368D01*
X33923Y10295D01*
X33873Y10285D01*
X33836Y10261D01*
X31450D01*
X31389Y10248D01*
X31363Y10231D01*
X31313Y10292D01*
X31589Y10569D01*
X32191D01*
X32191Y10569D01*
X32237Y10578D01*
X32276Y10604D01*
X32833Y11161D01*
X32850Y11157D01*
X32923Y11172D01*
X32985Y11213D01*
X33026Y11275D01*
X33041Y11348D01*
Y11932D01*
X33026Y12004D01*
X32985Y12066D01*
X32923Y12108D01*
X32850Y12122D01*
X32777Y12108D01*
X32715Y12066D01*
X32674Y12004D01*
X32659Y11932D01*
Y11348D01*
X32663Y11331D01*
X32606Y11275D01*
X32534Y11313D01*
X32541Y11348D01*
Y11932D01*
X32526Y12004D01*
X32485Y12066D01*
X32423Y12108D01*
X32350Y12122D01*
X32277Y12108D01*
X32215Y12066D01*
X32174Y12004D01*
X32159Y11932D01*
Y11348D01*
X32163Y11331D01*
X31799Y10967D01*
X31474D01*
X31428Y10958D01*
X31389Y10932D01*
X31389Y10932D01*
X30583Y10126D01*
X30511Y10156D01*
Y14050D01*
X30498Y14111D01*
X30464Y14164D01*
X30457Y14178D01*
X30474Y14220D01*
X30567Y14238D01*
X32154Y12651D01*
X32200Y12620D01*
X32254Y12609D01*
X32692D01*
X32900Y12402D01*
X32899Y12400D01*
X32915Y12323D01*
X32958Y12258D01*
X33023Y12215D01*
X33100Y12199D01*
X33177Y12215D01*
X33242Y12258D01*
X33248Y12267D01*
X33342D01*
X33352Y12252D01*
X33417Y12209D01*
X33494Y12193D01*
X33571Y12209D01*
X33636Y12252D01*
X33679Y12317D01*
X33695Y12394D01*
X33679Y12471D01*
X33636Y12536D01*
X33571Y12579D01*
X33494Y12595D01*
X33492Y12594D01*
X33041Y13046D01*
X32995Y13077D01*
X32941Y13087D01*
X32394D01*
X31694Y13787D01*
X31724Y13859D01*
X33673D01*
X33749Y13850D01*
X33765Y13773D01*
X33808Y13708D01*
X33873Y13665D01*
X33950Y13649D01*
X33952Y13650D01*
X34360Y13242D01*
Y12543D01*
X34358Y12542D01*
X34315Y12477D01*
X34299Y12400D01*
X34315Y12323D01*
X34358Y12258D01*
X34423Y12215D01*
X34500Y12199D01*
X34577Y12215D01*
X34642Y12258D01*
X34685Y12323D01*
X34693Y12364D01*
X34713Y12377D01*
X34776Y12396D01*
X34823Y12365D01*
X34900Y12349D01*
X34977Y12365D01*
X35042Y12408D01*
X35085Y12473D01*
X35101Y12550D01*
X35085Y12627D01*
X35042Y12692D01*
X35025Y12703D01*
Y13315D01*
X35027Y13317D01*
X35098Y13353D01*
X35710Y12741D01*
Y11728D01*
X35720Y11674D01*
X35751Y11629D01*
X36409Y10970D01*
Y10950D01*
X36420Y10896D01*
X36451Y10851D01*
X36453Y10849D01*
Y10694D01*
X36847D01*
Y11206D01*
X36571D01*
X35991Y11786D01*
Y12008D01*
X36063Y12038D01*
X36453Y11648D01*
Y11444D01*
X36847D01*
Y11956D01*
X36543D01*
X36191Y12308D01*
Y12962D01*
X36180Y13015D01*
X36149Y13061D01*
X35050Y14160D01*
X35051Y14162D01*
X35035Y14238D01*
X34992Y14303D01*
X34990Y14304D01*
Y14942D01*
X35026Y14996D01*
X35041Y15069D01*
Y15652D01*
X35026Y15725D01*
X34990Y15778D01*
Y16670D01*
X35130Y16810D01*
X35150D01*
X35204Y16820D01*
X35249Y16851D01*
X35251Y16853D01*
X35406D01*
Y17247D01*
X34894D01*
Y16971D01*
X34751Y16827D01*
X34720Y16782D01*
X34709Y16728D01*
Y15778D01*
X34674Y15725D01*
X34659Y15652D01*
Y15069D01*
X34674Y14996D01*
X34709Y14942D01*
Y14304D01*
X34708Y14303D01*
X34688Y14273D01*
X34610Y14259D01*
X34551Y14300D01*
X34535Y14376D01*
X34492Y14442D01*
X34490Y14442D01*
Y14942D01*
X34526Y14996D01*
X34541Y15069D01*
Y15652D01*
X34526Y15725D01*
X34490Y15778D01*
Y16850D01*
X34493Y16853D01*
X34506D01*
Y17247D01*
X33994D01*
Y16853D01*
X34149D01*
X34151Y16851D01*
X34209Y16792D01*
Y15778D01*
X34174Y15725D01*
X34159Y15652D01*
Y15069D01*
X34174Y14996D01*
X34209Y14942D01*
Y14442D01*
X34208Y14442D01*
X34165Y14376D01*
X34159Y14351D01*
X34150Y14341D01*
X34072Y14316D01*
X34057Y14327D01*
X34003Y14337D01*
X31761D01*
X30994Y15105D01*
Y15391D01*
X30983Y15445D01*
X30952Y15490D01*
X30844Y15598D01*
X30845Y15600D01*
X30830Y15677D01*
X30786Y15742D01*
X30721Y15785D01*
X30644Y15801D01*
X30567Y15785D01*
X30502Y15742D01*
X30459Y15677D01*
X30443Y15600D01*
X30459Y15523D01*
X30502Y15458D01*
X30504Y15451D01*
X30495Y15368D01*
X30455Y15342D01*
X30419Y15288D01*
X30374Y15290D01*
X30340Y15301D01*
Y15875D01*
X30419Y15917D01*
X30423Y15915D01*
X30500Y15899D01*
X30577Y15915D01*
X30642Y15958D01*
X30685Y16023D01*
X30701Y16100D01*
X30685Y16177D01*
X30661Y16214D01*
Y16683D01*
X30917Y16939D01*
X31836D01*
X31873Y16915D01*
X31950Y16899D01*
X32027Y16915D01*
X32092Y16958D01*
X32135Y17023D01*
X32151Y17100D01*
X32135Y17177D01*
X32092Y17242D01*
X32027Y17285D01*
X31950Y17301D01*
X31873Y17285D01*
X31836Y17261D01*
X30850D01*
X30850Y17261D01*
X30789Y17248D01*
X30736Y17214D01*
X30736Y17214D01*
X30419Y16896D01*
X30340Y16929D01*
Y19192D01*
X30536Y19387D01*
X30562Y19383D01*
X30616Y19356D01*
X30628Y19298D01*
X30671Y19233D01*
X30690Y19221D01*
Y19173D01*
X30646Y19108D01*
X30631Y19032D01*
X30646Y18955D01*
X30681Y18902D01*
X30688Y18863D01*
X30683Y18799D01*
X30652Y18752D01*
X30637Y18676D01*
X30652Y18599D01*
X30668Y18575D01*
X30677Y18486D01*
X30634Y18421D01*
X30618Y18344D01*
X30634Y18267D01*
X30677Y18202D01*
X30742Y18159D01*
X30819Y18143D01*
X30896Y18159D01*
X30961Y18202D01*
X30966Y18210D01*
X31050D01*
X31104Y18220D01*
X31149Y18251D01*
X31856Y18957D01*
X31894Y18949D01*
X31971Y18965D01*
X32036Y19008D01*
X32079Y19073D01*
X32095Y19150D01*
X32079Y19227D01*
X32036Y19292D01*
X32020Y19303D01*
Y19397D01*
X32036Y19408D01*
X32079Y19473D01*
X32095Y19550D01*
X32079Y19627D01*
X32036Y19692D01*
X31972Y19735D01*
X31971Y19742D01*
Y19808D01*
X31972Y19815D01*
X32036Y19858D01*
X32079Y19923D01*
X32095Y20000D01*
X32079Y20077D01*
X32036Y20142D01*
X32015Y20156D01*
Y20250D01*
X32036Y20264D01*
X32079Y20329D01*
X32095Y20406D01*
X32079Y20483D01*
X32036Y20548D01*
X31971Y20591D01*
X31894Y20607D01*
X31860Y20600D01*
X31821Y20672D01*
X32098Y20950D01*
X32100Y20949D01*
X32177Y20965D01*
X32242Y21008D01*
X32285Y21073D01*
X32301Y21150D01*
X32285Y21227D01*
X32242Y21292D01*
X32226Y21303D01*
Y21397D01*
X32242Y21408D01*
X32285Y21473D01*
X32301Y21550D01*
X32285Y21627D01*
X32242Y21692D01*
X32177Y21735D01*
X32100Y21751D01*
D02*
G37*
G36*
X4329Y22075D02*
X4206Y22059D01*
X4091Y22011D01*
X3992Y21935D01*
X3916Y21837D01*
X3869Y21722D01*
X3853Y21598D01*
Y21402D01*
X3869Y21278D01*
X3916Y21163D01*
X3992Y21065D01*
X4091Y20989D01*
X4206Y20941D01*
X4329Y20925D01*
X4452Y20941D01*
X4567Y20989D01*
X4666Y21065D01*
X4742Y21163D01*
X4789Y21278D01*
X4806Y21402D01*
Y21598D01*
X4789Y21722D01*
X4742Y21837D01*
X4666Y21935D01*
X4567Y22011D01*
X4452Y22059D01*
X4329Y22075D01*
D02*
G37*
G36*
X11250Y23301D02*
X11173Y23285D01*
X11108Y23242D01*
X11065Y23177D01*
X11049Y23100D01*
X11065Y23023D01*
X11089Y22986D01*
Y21300D01*
X11089Y21300D01*
X11102Y21239D01*
X11136Y21186D01*
X11579Y20744D01*
Y20534D01*
X11554Y20497D01*
X11539Y20420D01*
X11554Y20343D01*
X11597Y20278D01*
X11663Y20234D01*
X11739Y20219D01*
X11816Y20234D01*
X11881Y20278D01*
X11925Y20343D01*
X11940Y20420D01*
X11925Y20497D01*
X11900Y20534D01*
Y20811D01*
X11900Y20811D01*
X11888Y20872D01*
X11853Y20924D01*
X11853Y20924D01*
X11411Y21367D01*
Y22986D01*
X11435Y23023D01*
X11451Y23100D01*
X11435Y23177D01*
X11392Y23242D01*
X11327Y23285D01*
X11250Y23301D01*
D02*
G37*
G36*
X3404Y20874D02*
X3207D01*
X3084Y20858D01*
X2969Y20810D01*
X2870Y20735D01*
X2794Y20636D01*
X2747Y20521D01*
X2731Y20398D01*
X2747Y20274D01*
X2794Y20159D01*
X2870Y20061D01*
X2969Y19985D01*
X3084Y19937D01*
X3207Y19921D01*
X3404D01*
X3527Y19937D01*
X3642Y19985D01*
X3741Y20061D01*
X3817Y20159D01*
X3864Y20274D01*
X3880Y20398D01*
X3864Y20521D01*
X3817Y20636D01*
X3741Y20735D01*
X3642Y20810D01*
X3527Y20858D01*
X3404Y20874D01*
D02*
G37*
G36*
X1764Y19689D02*
X807D01*
Y18831D01*
X1764D01*
Y19689D01*
D02*
G37*
G36*
X3835Y19693D02*
X3735D01*
X3624Y19678D01*
X3519Y19635D01*
X3430Y19566D01*
X3361Y19476D01*
X3318Y19372D01*
X3303Y19260D01*
X3318Y19148D01*
X3361Y19044D01*
X3430Y18954D01*
X3519Y18886D01*
X3624Y18843D01*
X3735Y18828D01*
X3835D01*
X3947Y18843D01*
X4052Y18886D01*
X4141Y18954D01*
X4210Y19044D01*
X4253Y19148D01*
X4268Y19260D01*
X4253Y19372D01*
X4210Y19476D01*
X4141Y19566D01*
X4052Y19635D01*
X3947Y19678D01*
X3835Y19693D01*
D02*
G37*
G36*
X38636Y18586D02*
X37964D01*
Y17914D01*
X38636D01*
Y18048D01*
X38746D01*
Y17911D01*
X39454D01*
Y18502D01*
X38746D01*
Y18409D01*
X38636D01*
Y18586D01*
D02*
G37*
G36*
X3835Y18693D02*
X3735D01*
X3624Y18678D01*
X3519Y18635D01*
X3430Y18566D01*
X3361Y18476D01*
X3318Y18372D01*
X3303Y18260D01*
X3318Y18148D01*
X3361Y18044D01*
X3430Y17954D01*
X3519Y17886D01*
X3624Y17843D01*
X3735Y17828D01*
X3835D01*
X3947Y17843D01*
X4052Y17886D01*
X4141Y17954D01*
X4210Y18044D01*
X4253Y18148D01*
X4268Y18260D01*
X4253Y18372D01*
X4210Y18476D01*
X4141Y18566D01*
X4052Y18635D01*
X3947Y18678D01*
X3835Y18693D01*
D02*
G37*
G36*
X8100Y19601D02*
X8023Y19585D01*
X7958Y19542D01*
X7915Y19477D01*
X7899Y19400D01*
X7915Y19323D01*
X7939Y19286D01*
Y17771D01*
X4599D01*
X4562Y17796D01*
X4485Y17811D01*
X4409Y17796D01*
X4344Y17752D01*
X4300Y17687D01*
X4285Y17610D01*
X4300Y17533D01*
X4344Y17468D01*
X4409Y17425D01*
X4485Y17410D01*
X4562Y17425D01*
X4599Y17450D01*
X8008D01*
X8008Y17450D01*
X8069Y17462D01*
X8121Y17497D01*
X8214Y17589D01*
X8214Y17589D01*
X8248Y17641D01*
X8261Y17702D01*
Y19286D01*
X8285Y19323D01*
X8301Y19400D01*
X8285Y19477D01*
X8242Y19542D01*
X8177Y19585D01*
X8100Y19601D01*
D02*
G37*
G36*
X1335Y18693D02*
X1235D01*
X1124Y18678D01*
X1019Y18635D01*
X930Y18566D01*
X861Y18476D01*
X818Y18372D01*
X803Y18260D01*
X818Y18148D01*
X861Y18044D01*
X930Y17954D01*
X1019Y17886D01*
X1124Y17843D01*
X1235Y17828D01*
X1335D01*
X1447Y17843D01*
X1463Y17849D01*
X1664Y17648D01*
X1612Y17588D01*
X1609Y17591D01*
X1552Y17635D01*
X1447Y17678D01*
X1335Y17693D01*
X1235D01*
X1124Y17678D01*
X1019Y17635D01*
X930Y17566D01*
X861Y17476D01*
X818Y17372D01*
X803Y17260D01*
X818Y17148D01*
X861Y17044D01*
X930Y16954D01*
X1019Y16886D01*
X1124Y16843D01*
X1235Y16828D01*
X1335D01*
X1447Y16843D01*
X1552Y16886D01*
X1641Y16954D01*
X1710Y17044D01*
X1753Y17148D01*
X1768Y17260D01*
X1753Y17372D01*
X1710Y17476D01*
X1666Y17534D01*
X1664Y17537D01*
X1723Y17589D01*
X2299Y17013D01*
Y16279D01*
X171D01*
Y14121D01*
X3529D01*
Y16279D01*
X2701D01*
Y17096D01*
X2685Y17172D01*
X2642Y17238D01*
X1747Y18133D01*
X1753Y18148D01*
X1768Y18260D01*
X1753Y18372D01*
X1710Y18476D01*
X1641Y18566D01*
X1552Y18635D01*
X1447Y18678D01*
X1335Y18693D01*
D02*
G37*
G36*
X23700Y19301D02*
X23623Y19285D01*
X23558Y19242D01*
X23515Y19177D01*
X23499Y19100D01*
X23515Y19023D01*
X23558Y18958D01*
X23560Y18957D01*
Y17850D01*
X23570Y17796D01*
X23601Y17751D01*
X23901Y17451D01*
X23946Y17420D01*
X24000Y17409D01*
X24263D01*
X24264Y17408D01*
X24329Y17365D01*
X24406Y17349D01*
X24483Y17365D01*
X24548Y17408D01*
X24592Y17473D01*
X24607Y17550D01*
X24597Y17600D01*
X24644Y17679D01*
X24726D01*
Y18191D01*
X24174D01*
Y17691D01*
X24058D01*
X23840Y17908D01*
Y18957D01*
X23842Y18958D01*
X23885Y19023D01*
X23901Y19100D01*
X23885Y19177D01*
X23842Y19242D01*
X23777Y19285D01*
X23700Y19301D01*
D02*
G37*
G36*
X3835Y17693D02*
X3735D01*
X3624Y17678D01*
X3519Y17635D01*
X3430Y17566D01*
X3361Y17476D01*
X3318Y17372D01*
X3303Y17260D01*
X3318Y17148D01*
X3361Y17044D01*
X3430Y16954D01*
X3519Y16886D01*
X3624Y16843D01*
X3735Y16828D01*
X3835D01*
X3947Y16843D01*
X4052Y16886D01*
X4141Y16954D01*
X4210Y17044D01*
X4253Y17148D01*
X4268Y17260D01*
X4253Y17372D01*
X4210Y17476D01*
X4141Y17566D01*
X4052Y17635D01*
X3947Y17678D01*
X3835Y17693D01*
D02*
G37*
G36*
X38300Y16693D02*
X38169Y16667D01*
X38058Y16592D01*
X37983Y16481D01*
X37957Y16350D01*
X37983Y16219D01*
X38058Y16108D01*
X38169Y16033D01*
X38300Y16007D01*
X38431Y16033D01*
X38542Y16108D01*
X38617Y16219D01*
X38643Y16350D01*
X38617Y16481D01*
X38542Y16592D01*
X38431Y16667D01*
X38300Y16693D01*
D02*
G37*
G36*
X6085Y16161D02*
X6009Y16146D01*
X5971Y16121D01*
X4835D01*
X4774Y16109D01*
X4722Y16074D01*
X4122Y15474D01*
X4087Y15422D01*
X4075Y15360D01*
X4075Y15360D01*
Y13324D01*
X4050Y13287D01*
X4035Y13210D01*
X4050Y13133D01*
X4094Y13068D01*
X4159Y13025D01*
X4235Y13010D01*
X4312Y13025D01*
X4377Y13068D01*
X4421Y13133D01*
X4436Y13210D01*
X4421Y13287D01*
X4396Y13324D01*
Y15294D01*
X4902Y15800D01*
X5971D01*
X6009Y15775D01*
X6085Y15760D01*
X6162Y15775D01*
X6227Y15818D01*
X6271Y15883D01*
X6286Y15960D01*
X6271Y16037D01*
X6227Y16102D01*
X6162Y16146D01*
X6085Y16161D01*
D02*
G37*
G36*
X7800Y17101D02*
X7723Y17085D01*
X7658Y17042D01*
X7615Y16977D01*
X7599Y16900D01*
X7615Y16823D01*
X7639Y16786D01*
Y16691D01*
X6853Y15904D01*
X6809Y15896D01*
X6744Y15852D01*
X6700Y15787D01*
X6685Y15710D01*
X6700Y15633D01*
X6744Y15568D01*
X6809Y15525D01*
X6885Y15510D01*
X6962Y15525D01*
X7027Y15568D01*
X7071Y15633D01*
X7080Y15677D01*
X7914Y16511D01*
X7948Y16563D01*
X7961Y16625D01*
X7961Y16625D01*
Y16786D01*
X7985Y16823D01*
X8001Y16900D01*
X7985Y16977D01*
X7942Y17042D01*
X7877Y17085D01*
X7800Y17101D01*
D02*
G37*
G36*
X8985Y18461D02*
X8909Y18446D01*
X8844Y18402D01*
X8800Y18337D01*
X8785Y18260D01*
X8800Y18183D01*
X8805Y18176D01*
Y17135D01*
X6967Y15297D01*
X6959Y15296D01*
X6894Y15252D01*
X6850Y15187D01*
X6835Y15110D01*
X6850Y15033D01*
X6855Y15026D01*
Y12915D01*
X6869Y12845D01*
X6908Y12787D01*
X7322Y12372D01*
X7381Y12333D01*
X7450Y12319D01*
X8481D01*
X8509Y12271D01*
X8516Y12241D01*
X8487Y12196D01*
X8474Y12135D01*
X8487Y12073D01*
X8521Y12021D01*
X8573Y11987D01*
X8635Y11974D01*
X8696Y11987D01*
X8748Y12021D01*
X8764Y12036D01*
X8798Y12089D01*
X8811Y12150D01*
X8798Y12211D01*
X8779Y12241D01*
X8809Y12314D01*
X8814Y12319D01*
X11044D01*
X11051Y12315D01*
X11128Y12299D01*
X11164Y12307D01*
X11243Y12253D01*
Y10766D01*
X11087Y10611D01*
X11085Y10611D01*
X11009Y10596D01*
X11001Y10590D01*
X7143D01*
X7142Y10592D01*
X7077Y10635D01*
X7000Y10651D01*
X6923Y10635D01*
X6858Y10592D01*
X6815Y10527D01*
X6799Y10450D01*
X6815Y10373D01*
X6858Y10308D01*
X6923Y10265D01*
X7000Y10249D01*
X7077Y10265D01*
X7142Y10308D01*
X7143Y10309D01*
X10916D01*
X10944Y10268D01*
X11009Y10225D01*
X11085Y10210D01*
X11162Y10225D01*
X11227Y10268D01*
X11271Y10333D01*
X11286Y10410D01*
X11286Y10412D01*
X11367Y10493D01*
X11439Y10463D01*
Y9717D01*
X10044Y8321D01*
X9649D01*
X9612Y8346D01*
X9535Y8361D01*
X9459Y8346D01*
X9394Y8302D01*
X9382Y8285D01*
X7141D01*
X7109Y8363D01*
X7510Y8765D01*
X7535Y8760D01*
X7612Y8775D01*
X7677Y8818D01*
X7721Y8883D01*
X7736Y8960D01*
X7721Y9037D01*
X7677Y9102D01*
X7612Y9146D01*
X7535Y9161D01*
X7459Y9146D01*
X7394Y9102D01*
X7350Y9037D01*
X7335Y8960D01*
X7340Y8935D01*
X7270Y8865D01*
X7209Y8915D01*
X7221Y8933D01*
X7236Y9010D01*
X7221Y9087D01*
X7177Y9152D01*
X7112Y9196D01*
X7035Y9211D01*
X6959Y9196D01*
X6894Y9152D01*
X6850Y9087D01*
X6835Y9010D01*
X6840Y8985D01*
X6725Y8870D01*
X4856D01*
X4842Y8892D01*
X4777Y8935D01*
X4700Y8951D01*
X4623Y8935D01*
X4558Y8892D01*
X4515Y8827D01*
X4499Y8750D01*
X4515Y8673D01*
X4558Y8608D01*
X4623Y8565D01*
X4700Y8549D01*
X4777Y8565D01*
X4842Y8608D01*
X4856Y8630D01*
X4948D01*
X4971Y8551D01*
X4958Y8542D01*
X4915Y8477D01*
X4899Y8400D01*
X4907Y8363D01*
X4853Y8285D01*
X4364D01*
X4290Y8358D01*
Y9287D01*
X4306Y9298D01*
X4350Y9363D01*
X4365Y9440D01*
X4350Y9517D01*
X4306Y9582D01*
X4241Y9625D01*
X4211Y9631D01*
X4204Y9636D01*
X4150Y9647D01*
X4096Y9636D01*
X4051Y9606D01*
X4044Y9596D01*
X4023Y9582D01*
X3979Y9517D01*
X3964Y9440D01*
X3979Y9363D01*
X4010Y9318D01*
Y8300D01*
X4020Y8246D01*
X4051Y8201D01*
X4207Y8045D01*
X4252Y8014D01*
X4306Y8004D01*
X9416D01*
X9459Y7975D01*
X9535Y7960D01*
X9612Y7975D01*
X9649Y8000D01*
X9955D01*
X9985Y7927D01*
X7329Y5270D01*
X2850D01*
X2804Y5261D01*
X2765Y5235D01*
X2765Y5235D01*
X1934Y4404D01*
X1908Y4365D01*
X1899Y4319D01*
X1899Y4319D01*
Y3494D01*
X1755Y3350D01*
X1714Y3382D01*
X1604Y3427D01*
X1485Y3443D01*
X1367Y3427D01*
X1257Y3382D01*
X1162Y3309D01*
X1089Y3214D01*
X1043Y3104D01*
X1028Y2985D01*
Y2835D01*
X1043Y2717D01*
X1089Y2606D01*
X1162Y2512D01*
X1257Y2439D01*
X1367Y2393D01*
X1485Y2378D01*
X1604Y2393D01*
X1714Y2439D01*
X1809Y2512D01*
X1882Y2606D01*
X1927Y2717D01*
X1943Y2835D01*
Y2985D01*
X1927Y3104D01*
X1905Y3159D01*
X2000Y3255D01*
X2103Y3253D01*
X2111Y3243D01*
X2089Y3214D01*
X2043Y3104D01*
X2028Y2985D01*
Y2835D01*
X2043Y2717D01*
X2089Y2606D01*
X2162Y2512D01*
X2257Y2439D01*
X2367Y2393D01*
X2485Y2378D01*
X2604Y2393D01*
X2714Y2439D01*
X2809Y2512D01*
X2882Y2606D01*
X2927Y2717D01*
X2943Y2835D01*
Y2985D01*
X2927Y3104D01*
X2882Y3214D01*
X2809Y3309D01*
X2714Y3382D01*
X2604Y3427D01*
X2485Y3443D01*
X2384Y3429D01*
X2326Y3480D01*
X2320Y3487D01*
Y4200D01*
X2950Y4830D01*
X7230D01*
X7260Y4757D01*
X6865Y4361D01*
X6839Y4322D01*
X6830Y4276D01*
X6830Y4276D01*
Y3425D01*
X6755Y3350D01*
X6714Y3382D01*
X6604Y3427D01*
X6485Y3443D01*
X6367Y3427D01*
X6257Y3382D01*
X6162Y3309D01*
X6089Y3214D01*
X6043Y3104D01*
X6028Y2985D01*
Y2835D01*
X6043Y2717D01*
X6089Y2606D01*
X6162Y2512D01*
X6257Y2439D01*
X6367Y2393D01*
X6485Y2378D01*
X6604Y2393D01*
X6714Y2439D01*
X6809Y2512D01*
X6882Y2606D01*
X6927Y2717D01*
X6943Y2835D01*
Y2985D01*
X6927Y3104D01*
X6905Y3159D01*
X7023Y3277D01*
X7088Y3212D01*
X7043Y3104D01*
X7028Y2985D01*
Y2835D01*
X7043Y2717D01*
X7089Y2606D01*
X7162Y2512D01*
X7257Y2439D01*
X7367Y2393D01*
X7485Y2378D01*
X7604Y2393D01*
X7714Y2439D01*
X7809Y2512D01*
X7882Y2606D01*
X7927Y2717D01*
X7943Y2835D01*
Y2985D01*
X7927Y3104D01*
X7882Y3214D01*
X7809Y3309D01*
X7714Y3382D01*
X7604Y3427D01*
X7485Y3443D01*
X7367Y3427D01*
X7301Y3400D01*
X7228Y3455D01*
Y4161D01*
X9874Y6807D01*
X9888Y6806D01*
X9954Y6776D01*
X9965Y6723D01*
X10008Y6658D01*
X10073Y6615D01*
X10150Y6599D01*
X10227Y6615D01*
X10292Y6658D01*
X10299Y6668D01*
X11847D01*
X11871Y6589D01*
X11865Y6585D01*
X11865Y6585D01*
X10715Y5435D01*
X10689Y5396D01*
X10680Y5350D01*
X10680Y5350D01*
Y4400D01*
X10680Y4400D01*
X10689Y4354D01*
X10715Y4315D01*
X11365Y3665D01*
Y3426D01*
X11257Y3382D01*
X11162Y3309D01*
X11089Y3214D01*
X11043Y3104D01*
X11028Y2985D01*
Y2835D01*
X11043Y2717D01*
X11089Y2606D01*
X11162Y2512D01*
X11257Y2439D01*
X11367Y2393D01*
X11485Y2378D01*
X11604Y2393D01*
X11714Y2439D01*
X11809Y2512D01*
X11882Y2606D01*
X11927Y2717D01*
X11943Y2835D01*
Y2985D01*
X11927Y3104D01*
X11882Y3214D01*
X11809Y3309D01*
X11714Y3382D01*
X11606Y3426D01*
Y3544D01*
X11679Y3574D01*
X12074Y3178D01*
X12043Y3104D01*
X12028Y2985D01*
Y2835D01*
X12043Y2717D01*
X12089Y2606D01*
X12162Y2512D01*
X12257Y2439D01*
X12367Y2393D01*
X12485Y2378D01*
X12604Y2393D01*
X12714Y2439D01*
X12809Y2512D01*
X12882Y2606D01*
X12927Y2717D01*
X12943Y2835D01*
Y2985D01*
X12927Y3104D01*
X12882Y3214D01*
X12809Y3309D01*
X12714Y3382D01*
X12604Y3427D01*
X12485Y3443D01*
X12367Y3427D01*
X12257Y3382D01*
X12231Y3362D01*
X11394Y4199D01*
X11425Y4271D01*
X12079D01*
Y4830D01*
X12308Y5059D01*
X13525D01*
X13549Y4981D01*
X13462Y4923D01*
X13379Y4798D01*
X13349Y4650D01*
X13379Y4502D01*
X13462Y4377D01*
X13588Y4293D01*
X13735Y4264D01*
X13883Y4293D01*
X14008Y4377D01*
X14092Y4502D01*
X14122Y4650D01*
X14092Y4798D01*
X14008Y4923D01*
X13922Y4981D01*
X13946Y5059D01*
X14489D01*
X14513Y4981D01*
X14427Y4923D01*
X14343Y4798D01*
X14314Y4650D01*
X14343Y4502D01*
X14427Y4377D01*
X14552Y4293D01*
X14700Y4264D01*
X14848Y4293D01*
X14973Y4377D01*
X15057Y4502D01*
X15086Y4650D01*
X15057Y4798D01*
X14973Y4923D01*
X14887Y4981D01*
X14911Y5059D01*
X15157D01*
X15158Y5058D01*
X15223Y5015D01*
X15300Y4999D01*
X15377Y5015D01*
X15442Y5058D01*
X15485Y5123D01*
X15501Y5200D01*
X15485Y5277D01*
X15442Y5342D01*
X15377Y5385D01*
X15300Y5401D01*
X15223Y5385D01*
X15158Y5342D01*
X15157Y5340D01*
X12250D01*
X12196Y5330D01*
X12151Y5299D01*
X11880Y5029D01*
X11321D01*
Y4375D01*
X11249Y4345D01*
X11078Y4515D01*
Y5208D01*
X12092Y6222D01*
X12665D01*
X12665Y6222D01*
X12711Y6231D01*
X12750Y6257D01*
X14188Y7695D01*
X14214Y7734D01*
X14224Y7780D01*
X14224Y7780D01*
Y9040D01*
X14302Y9073D01*
X16365Y7010D01*
Y6871D01*
X16286Y6829D01*
X16277Y6835D01*
X16200Y6851D01*
X16123Y6835D01*
X16058Y6792D01*
X16015Y6727D01*
X15999Y6650D01*
X16015Y6573D01*
X16058Y6508D01*
X16123Y6465D01*
X16200Y6449D01*
X16277Y6465D01*
X16286Y6471D01*
X16365Y6429D01*
Y3426D01*
X16257Y3382D01*
X16162Y3309D01*
X16089Y3214D01*
X16043Y3104D01*
X16028Y2985D01*
Y2835D01*
X16043Y2717D01*
X16089Y2606D01*
X16162Y2512D01*
X16257Y2439D01*
X16367Y2393D01*
X16485Y2378D01*
X16604Y2393D01*
X16714Y2439D01*
X16809Y2512D01*
X16882Y2606D01*
X16927Y2717D01*
X16943Y2835D01*
Y2985D01*
X16927Y3104D01*
X16882Y3214D01*
X16809Y3309D01*
X16714Y3382D01*
X16606Y3426D01*
Y3617D01*
X16679Y3647D01*
X17099Y3227D01*
X17089Y3214D01*
X17043Y3104D01*
X17028Y2985D01*
Y2835D01*
X17043Y2717D01*
X17089Y2606D01*
X17162Y2512D01*
X17257Y2439D01*
X17367Y2393D01*
X17485Y2378D01*
X17604Y2393D01*
X17714Y2439D01*
X17809Y2512D01*
X17882Y2606D01*
X17927Y2717D01*
X17943Y2835D01*
Y2985D01*
X17927Y3104D01*
X17882Y3214D01*
X17809Y3309D01*
X17714Y3382D01*
X17604Y3427D01*
X17485Y3443D01*
X17367Y3427D01*
X17276Y3390D01*
X16763Y3903D01*
Y5694D01*
X16842Y5735D01*
X16873Y5715D01*
X16950Y5699D01*
X17027Y5715D01*
X17092Y5758D01*
X17101Y5772D01*
X19993D01*
X19993Y5772D01*
X20039Y5781D01*
X20078Y5807D01*
X21035Y6765D01*
X21035Y6765D01*
X21061Y6804D01*
X21070Y6850D01*
Y8794D01*
X21092Y8808D01*
X21135Y8872D01*
X21142Y8873D01*
X21208D01*
X21215Y8872D01*
X21258Y8808D01*
X21280Y8794D01*
Y6500D01*
X21280Y6500D01*
X21289Y6454D01*
X21315Y6415D01*
X21954Y5775D01*
X21949Y5750D01*
X21965Y5673D01*
X22008Y5608D01*
X22073Y5565D01*
X22150Y5549D01*
X22227Y5565D01*
X22292Y5608D01*
X22335Y5673D01*
X22351Y5750D01*
X22335Y5827D01*
X22292Y5892D01*
X22227Y5935D01*
X22198Y5941D01*
X22189Y5971D01*
X22190Y6023D01*
X22242Y6058D01*
X22251Y6072D01*
X22263Y6078D01*
X22351Y6079D01*
X23365Y5065D01*
X23404Y5039D01*
X23450Y5030D01*
X24894D01*
X24908Y5008D01*
X24973Y4965D01*
X25050Y4949D01*
X25127Y4965D01*
X25192Y5008D01*
X25235Y5073D01*
X25251Y5150D01*
X25235Y5227D01*
X25192Y5292D01*
X25127Y5335D01*
X25050Y5351D01*
X24973Y5335D01*
X24908Y5292D01*
X24894Y5270D01*
X23500D01*
X22527Y6244D01*
Y8794D01*
X22548Y8808D01*
X22592Y8873D01*
X22607Y8950D01*
X22592Y9027D01*
X22548Y9092D01*
X22483Y9135D01*
X22406Y9151D01*
X22329Y9135D01*
X22264Y9092D01*
X22221Y9027D01*
X22206Y8950D01*
X22221Y8873D01*
X22264Y8808D01*
X22286Y8794D01*
Y6407D01*
X22207Y6365D01*
X22177Y6385D01*
X22100Y6401D01*
X22075Y6396D01*
X22020Y6450D01*
Y8794D01*
X22042Y8808D01*
X22085Y8873D01*
X22101Y8950D01*
X22085Y9027D01*
X22042Y9092D01*
X21977Y9135D01*
X21900Y9151D01*
X21823Y9135D01*
X21758Y9092D01*
X21715Y9027D01*
X21699Y8950D01*
X21715Y8873D01*
X21758Y8808D01*
X21780Y8794D01*
Y6402D01*
X21775Y6398D01*
X21706Y6364D01*
X21520Y6550D01*
Y8794D01*
X21542Y8808D01*
X21585Y8873D01*
X21601Y8950D01*
X21585Y9027D01*
X21542Y9092D01*
X21477Y9135D01*
X21400Y9151D01*
X21323Y9135D01*
X21258Y9092D01*
X21215Y9028D01*
X21208Y9027D01*
X21142D01*
X21135Y9028D01*
X21092Y9092D01*
X21027Y9135D01*
X20950Y9151D01*
X20873Y9135D01*
X20808Y9092D01*
X20765Y9027D01*
X20749Y8950D01*
X20765Y8873D01*
X20808Y8808D01*
X20830Y8794D01*
Y6900D01*
X20599Y6669D01*
X20520Y6702D01*
Y8794D01*
X20542Y8808D01*
X20585Y8873D01*
X20601Y8950D01*
X20585Y9027D01*
X20542Y9092D01*
X20477Y9135D01*
X20400Y9151D01*
X20323Y9135D01*
X20258Y9092D01*
X20215Y9027D01*
X20199Y8950D01*
X20215Y8873D01*
X20258Y8808D01*
X20280Y8794D01*
Y6650D01*
X19934Y6305D01*
X19873Y6355D01*
X19885Y6373D01*
X19901Y6450D01*
X19896Y6475D01*
X19985Y6565D01*
X19985Y6565D01*
X20011Y6604D01*
X20020Y6650D01*
X20020Y6650D01*
Y8794D01*
X20042Y8808D01*
X20085Y8873D01*
X20101Y8950D01*
X20085Y9027D01*
X20042Y9092D01*
X19977Y9135D01*
X19900Y9151D01*
X19823Y9135D01*
X19758Y9092D01*
X19715Y9027D01*
X19699Y8950D01*
X19715Y8873D01*
X19758Y8808D01*
X19780Y8794D01*
Y6700D01*
X19725Y6646D01*
X19700Y6651D01*
X19623Y6635D01*
X19558Y6592D01*
X19515Y6527D01*
X19499Y6450D01*
X19515Y6373D01*
X19558Y6308D01*
X19623Y6265D01*
X19700Y6249D01*
X19746Y6258D01*
X19792Y6188D01*
X19781Y6170D01*
X17300D01*
X17196Y6275D01*
X17201Y6300D01*
X17185Y6377D01*
X17142Y6442D01*
X17077Y6485D01*
X17000Y6501D01*
X16923Y6485D01*
X16858Y6442D01*
X16842Y6418D01*
X16763Y6442D01*
Y7175D01*
X16754Y7222D01*
X16728Y7261D01*
X16728Y7261D01*
X14735Y9253D01*
Y12161D01*
X14739Y12168D01*
X14810Y12220D01*
X14931D01*
X14970Y12228D01*
X15003Y12250D01*
X15025Y12283D01*
X15032Y12321D01*
Y12899D01*
X15025Y12938D01*
X15003Y12970D01*
X15014Y13043D01*
X15059Y13090D01*
X15536D01*
X15931Y12694D01*
X15970Y12668D01*
X16017Y12659D01*
X16078D01*
X16177Y12559D01*
X16189Y12543D01*
Y12354D01*
X16582D01*
Y12866D01*
X16210D01*
X16174Y12890D01*
X16128Y12900D01*
X16128Y12900D01*
X16066D01*
X15671Y13295D01*
X15632Y13321D01*
X15585Y13331D01*
X15585Y13331D01*
X14985D01*
X14939Y13321D01*
X14900Y13295D01*
X14900Y13295D01*
X14786Y13181D01*
X14760Y13142D01*
X14750Y13096D01*
X14750Y13096D01*
Y13059D01*
X14747Y13053D01*
X14675Y13000D01*
X14554D01*
X14516Y12992D01*
X14487Y12973D01*
X14458Y12992D01*
X14420Y13000D01*
X14299D01*
X14260Y12992D01*
X14231Y12973D01*
X14202Y12992D01*
X14164Y13000D01*
X14043D01*
X14004Y12992D01*
X13975Y12973D01*
X13946Y12992D01*
X13908Y13000D01*
X13787D01*
X13748Y12992D01*
X13719Y12973D01*
X13690Y12992D01*
X13652Y13000D01*
X13531D01*
X13492Y12992D01*
X13463Y12973D01*
X13435Y12992D01*
X13396Y13000D01*
X13275D01*
X13236Y12992D01*
X13207Y12973D01*
X13179Y12992D01*
X13140Y13000D01*
X13019D01*
X12980Y12992D01*
X12952Y12973D01*
X12923Y12992D01*
X12884Y13000D01*
X12763D01*
X12724Y12992D01*
X12692Y12970D01*
X12670Y12938D01*
X12662Y12899D01*
Y12321D01*
X12670Y12283D01*
X12692Y12250D01*
X12703Y12242D01*
Y10645D01*
X11833Y9775D01*
X11761Y9805D01*
Y13608D01*
X11748Y13669D01*
X11714Y13721D01*
X11714Y13721D01*
X11621Y13814D01*
X11569Y13848D01*
X11508Y13861D01*
X11508Y13861D01*
X9679D01*
X9663Y13939D01*
X9685Y13973D01*
X9701Y14050D01*
X9685Y14127D01*
X9642Y14192D01*
X9577Y14235D01*
X9500Y14251D01*
X9423Y14235D01*
X9419Y14233D01*
X9340Y14275D01*
Y14442D01*
X10458Y15560D01*
X10907D01*
X10908Y15558D01*
X10973Y15515D01*
X11050Y15499D01*
X11127Y15515D01*
X11192Y15558D01*
X11235Y15623D01*
X11251Y15700D01*
X11235Y15777D01*
X11192Y15842D01*
X11127Y15885D01*
X11050Y15901D01*
X10973Y15885D01*
X10908Y15842D01*
X10907Y15841D01*
X10400D01*
X10346Y15830D01*
X10301Y15799D01*
X9101Y14599D01*
X9070Y14554D01*
X9060Y14500D01*
Y13550D01*
X9070Y13496D01*
X9101Y13451D01*
X9201Y13351D01*
X9246Y13320D01*
X9300Y13310D01*
X11243D01*
Y12747D01*
X11164Y12693D01*
X11128Y12701D01*
X11051Y12685D01*
X11044Y12681D01*
X7525D01*
X7216Y12989D01*
Y15026D01*
X7221Y15033D01*
X7223Y15042D01*
X9113Y16933D01*
X9152Y16991D01*
X9166Y17060D01*
Y18176D01*
X9171Y18183D01*
X9186Y18260D01*
X9171Y18337D01*
X9127Y18402D01*
X9062Y18446D01*
X8985Y18461D01*
D02*
G37*
G36*
X38300Y15903D02*
X38169Y15877D01*
X38058Y15803D01*
X37983Y15691D01*
X37957Y15560D01*
X37983Y15429D01*
X38058Y15318D01*
X38169Y15244D01*
X38300Y15217D01*
X38431Y15244D01*
X38542Y15318D01*
X38617Y15429D01*
X38643Y15560D01*
X38617Y15691D01*
X38542Y15803D01*
X38431Y15877D01*
X38300Y15903D01*
D02*
G37*
G36*
X33850Y15843D02*
X33777Y15828D01*
X33715Y15787D01*
X33674Y15725D01*
X33659Y15652D01*
Y15069D01*
X33674Y14996D01*
X33715Y14934D01*
X33777Y14892D01*
X33850Y14878D01*
X33923Y14892D01*
X33985Y14934D01*
X34026Y14996D01*
X34041Y15069D01*
Y15652D01*
X34026Y15725D01*
X33985Y15787D01*
X33923Y15828D01*
X33850Y15843D01*
D02*
G37*
G36*
X37562Y11956D02*
X37168D01*
Y11444D01*
X37309D01*
Y11206D01*
X37168D01*
Y10694D01*
X37562D01*
Y10869D01*
X37580Y10896D01*
X37590Y10950D01*
Y11559D01*
X38068D01*
X38083Y11563D01*
X38150Y11549D01*
X38227Y11565D01*
X38292Y11608D01*
X38335Y11673D01*
X38351Y11750D01*
X38335Y11827D01*
X38292Y11892D01*
X38227Y11935D01*
X38150Y11951D01*
X38073Y11935D01*
X38008Y11892D01*
X37974Y11840D01*
X37562D01*
Y11956D01*
D02*
G37*
G36*
X18362Y10756D02*
X17968D01*
Y10244D01*
X18362D01*
X18362Y10244D01*
X18441Y10261D01*
X18500Y10249D01*
X18577Y10265D01*
X18642Y10308D01*
X18685Y10373D01*
X18701Y10450D01*
X18685Y10527D01*
X18642Y10592D01*
X18577Y10635D01*
X18500Y10651D01*
X18441Y10639D01*
X18362Y10682D01*
Y10756D01*
D02*
G37*
G36*
X28855Y17139D02*
X26375D01*
X26315Y17114D01*
X26290Y17054D01*
Y9967D01*
X26315Y9907D01*
X26375Y9882D01*
X28855D01*
X28915Y9907D01*
X28940Y9967D01*
Y17054D01*
X28915Y17114D01*
X28855Y17139D01*
D02*
G37*
G36*
X19000Y10351D02*
X18923Y10335D01*
X18858Y10292D01*
X18815Y10227D01*
X18799Y10150D01*
X18815Y10073D01*
X18858Y10008D01*
X18861Y9981D01*
X18750Y9870D01*
X18347D01*
Y10006D01*
X17953D01*
Y9494D01*
X18347D01*
Y9630D01*
X18800D01*
X18800Y9630D01*
X18846Y9639D01*
X18885Y9665D01*
X19085Y9865D01*
X19085Y9865D01*
X19111Y9904D01*
X19120Y9950D01*
X19120Y9950D01*
Y9994D01*
X19142Y10008D01*
X19185Y10073D01*
X19201Y10150D01*
X19185Y10227D01*
X19142Y10292D01*
X19077Y10335D01*
X19000Y10351D01*
D02*
G37*
G36*
X2500Y9543D02*
X2400Y9523D01*
X2315Y9467D01*
X2259Y9382D01*
X2239Y9282D01*
X2259Y9182D01*
X2315Y9098D01*
X2400Y9041D01*
X2500Y9021D01*
X2600Y9041D01*
X2684Y9098D01*
X2741Y9182D01*
X2761Y9282D01*
X2741Y9382D01*
X2684Y9467D01*
X2600Y9523D01*
X2500Y9543D01*
D02*
G37*
G36*
X29424Y8284D02*
X28596D01*
Y7916D01*
X29424D01*
Y8284D01*
D02*
G37*
G36*
Y7784D02*
X28596D01*
Y7416D01*
X29424D01*
Y7784D01*
D02*
G37*
G36*
X2500Y7811D02*
X2400Y7791D01*
X2315Y7735D01*
X2259Y7650D01*
X2239Y7550D01*
X2259Y7450D01*
X2315Y7365D01*
X2400Y7309D01*
X2500Y7289D01*
X2600Y7309D01*
X2684Y7365D01*
X2741Y7450D01*
X2761Y7550D01*
X2741Y7650D01*
X2684Y7735D01*
X2600Y7791D01*
X2500Y7811D01*
D02*
G37*
G36*
X29424Y7284D02*
X28596D01*
Y6916D01*
X29424D01*
Y7284D01*
D02*
G37*
G36*
Y6784D02*
X28596D01*
Y6416D01*
X29424D01*
Y6784D01*
D02*
G37*
G36*
Y6284D02*
X28596D01*
Y5916D01*
X29424D01*
Y6284D01*
D02*
G37*
G36*
Y5784D02*
X28596D01*
Y5416D01*
X29424D01*
Y5784D01*
D02*
G37*
G36*
Y5284D02*
X28596D01*
Y4916D01*
X29424D01*
Y5284D01*
D02*
G37*
G36*
X25400Y9351D02*
X25323Y9335D01*
X25258Y9292D01*
X25215Y9227D01*
X25199Y9150D01*
X25215Y9073D01*
X25258Y9008D01*
X25323Y8965D01*
X25330Y8963D01*
Y5797D01*
X25292Y5741D01*
X25276Y5664D01*
X25292Y5587D01*
X25335Y5522D01*
X25380Y5492D01*
Y4796D01*
X25354Y4770D01*
X22612D01*
X22607Y4798D01*
X22523Y4923D01*
X22398Y5007D01*
X22250Y5036D01*
X22102Y5007D01*
X21977Y4923D01*
X21893Y4798D01*
X21864Y4650D01*
X21893Y4502D01*
X21977Y4377D01*
X22102Y4293D01*
X22250Y4264D01*
X22398Y4293D01*
X22523Y4377D01*
X22607Y4502D01*
X22612Y4530D01*
X25404D01*
X25404Y4530D01*
X25450Y4539D01*
X25489Y4565D01*
X25585Y4661D01*
X25585Y4661D01*
X25611Y4700D01*
X25620Y4746D01*
Y5524D01*
X25663Y5587D01*
X25678Y5664D01*
X25663Y5741D01*
X25619Y5806D01*
X25570Y5838D01*
Y9051D01*
X25585Y9073D01*
X25601Y9150D01*
X25585Y9227D01*
X25542Y9292D01*
X25477Y9335D01*
X25400Y9351D01*
D02*
G37*
G36*
X17629Y5029D02*
X16871D01*
Y4271D01*
X17629D01*
Y5029D01*
D02*
G37*
G36*
X21250Y5036D02*
X21102Y5007D01*
X20977Y4923D01*
X20893Y4798D01*
X20864Y4650D01*
X20893Y4502D01*
X20977Y4377D01*
X21102Y4293D01*
X21250Y4264D01*
X21398Y4293D01*
X21523Y4377D01*
X21607Y4502D01*
X21636Y4650D01*
X21607Y4798D01*
X21523Y4923D01*
X21398Y5007D01*
X21250Y5036D01*
D02*
G37*
G36*
X20250D02*
X20102Y5007D01*
X19977Y4923D01*
X19893Y4798D01*
X19864Y4650D01*
X19893Y4502D01*
X19977Y4377D01*
X20102Y4293D01*
X20250Y4264D01*
X20398Y4293D01*
X20523Y4377D01*
X20607Y4502D01*
X20636Y4650D01*
X20607Y4798D01*
X20523Y4923D01*
X20398Y5007D01*
X20250Y5036D01*
D02*
G37*
G36*
X19250D02*
X19102Y5007D01*
X18977Y4923D01*
X18893Y4798D01*
X18864Y4650D01*
X18893Y4502D01*
X18977Y4377D01*
X19102Y4293D01*
X19250Y4264D01*
X19398Y4293D01*
X19523Y4377D01*
X19607Y4502D01*
X19636Y4650D01*
X19607Y4798D01*
X19523Y4923D01*
X19398Y5007D01*
X19250Y5036D01*
D02*
G37*
G36*
X36176Y4673D02*
X34893D01*
X34833Y4648D01*
X34808Y4588D01*
Y4287D01*
X34833Y4227D01*
X34893Y4202D01*
X36176D01*
X36236Y4227D01*
X36261Y4287D01*
Y4588D01*
X36236Y4648D01*
X36176Y4673D01*
D02*
G37*
G36*
X34939Y3439D02*
X34032D01*
Y2382D01*
X34939D01*
Y3439D01*
D02*
G37*
G36*
X29939D02*
X29032D01*
Y2382D01*
X29939D01*
Y3439D01*
D02*
G37*
G36*
X24939D02*
X24032D01*
Y2382D01*
X24939D01*
Y3439D01*
D02*
G37*
G36*
X19939D02*
X19032D01*
Y2382D01*
X19939D01*
Y3439D01*
D02*
G37*
G36*
X14939D02*
X14032D01*
Y2382D01*
X14939D01*
Y3439D01*
D02*
G37*
G36*
X9939D02*
X9032D01*
Y2382D01*
X9939D01*
Y3439D01*
D02*
G37*
G36*
X5019Y4654D02*
X4261D01*
Y3846D01*
X4479D01*
Y3439D01*
X4032D01*
Y2382D01*
X4939D01*
Y3439D01*
X4801D01*
Y3846D01*
X5019D01*
Y4654D01*
D02*
G37*
G36*
X37485Y3443D02*
X37367Y3427D01*
X37257Y3382D01*
X37162Y3309D01*
X37089Y3214D01*
X37043Y3104D01*
X37028Y2985D01*
Y2835D01*
X37043Y2717D01*
X37089Y2606D01*
X37162Y2512D01*
X37257Y2439D01*
X37367Y2393D01*
X37485Y2378D01*
X37604Y2393D01*
X37714Y2439D01*
X37809Y2512D01*
X37882Y2606D01*
X37927Y2717D01*
X37943Y2835D01*
Y2985D01*
X37927Y3104D01*
X37882Y3214D01*
X37809Y3309D01*
X37714Y3382D01*
X37604Y3427D01*
X37485Y3443D01*
D02*
G37*
G36*
X32485D02*
X32367Y3427D01*
X32257Y3382D01*
X32162Y3309D01*
X32089Y3214D01*
X32043Y3104D01*
X32028Y2985D01*
Y2835D01*
X32043Y2717D01*
X32089Y2606D01*
X32162Y2512D01*
X32257Y2439D01*
X32367Y2393D01*
X32485Y2378D01*
X32604Y2393D01*
X32714Y2439D01*
X32809Y2512D01*
X32882Y2606D01*
X32927Y2717D01*
X32943Y2835D01*
Y2985D01*
X32927Y3104D01*
X32882Y3214D01*
X32809Y3309D01*
X32714Y3382D01*
X32604Y3427D01*
X32485Y3443D01*
D02*
G37*
G36*
X27485D02*
X27367Y3427D01*
X27257Y3382D01*
X27162Y3309D01*
X27089Y3214D01*
X27043Y3104D01*
X27028Y2985D01*
Y2835D01*
X27043Y2717D01*
X27089Y2606D01*
X27162Y2512D01*
X27257Y2439D01*
X27367Y2393D01*
X27485Y2378D01*
X27604Y2393D01*
X27714Y2439D01*
X27809Y2512D01*
X27882Y2606D01*
X27927Y2717D01*
X27943Y2835D01*
Y2985D01*
X27927Y3104D01*
X27882Y3214D01*
X27809Y3309D01*
X27714Y3382D01*
X27604Y3427D01*
X27485Y3443D01*
D02*
G37*
G36*
X22485D02*
X22367Y3427D01*
X22257Y3382D01*
X22162Y3309D01*
X22089Y3214D01*
X22043Y3104D01*
X22028Y2985D01*
Y2835D01*
X22043Y2717D01*
X22089Y2606D01*
X22162Y2512D01*
X22257Y2439D01*
X22367Y2393D01*
X22485Y2378D01*
X22604Y2393D01*
X22714Y2439D01*
X22809Y2512D01*
X22882Y2606D01*
X22927Y2717D01*
X22943Y2835D01*
Y2985D01*
X22927Y3104D01*
X22882Y3214D01*
X22809Y3309D01*
X22714Y3382D01*
X22604Y3427D01*
X22485Y3443D01*
D02*
G37*
%LPD*%
G36*
X36130Y8200D02*
Y6861D01*
X36051Y6819D01*
X36027Y6835D01*
X35950Y6851D01*
X35873Y6835D01*
X35808Y6792D01*
X35765Y6727D01*
X35749Y6650D01*
X35765Y6573D01*
X35808Y6508D01*
X35830Y6494D01*
Y6416D01*
X35751Y6374D01*
X35750Y6375D01*
X35673Y6390D01*
X35597Y6375D01*
X35531Y6331D01*
X35517Y6310D01*
X35200D01*
X35162Y6388D01*
X35188Y6421D01*
X35193Y6423D01*
X35266Y6438D01*
X35331Y6481D01*
X35375Y6547D01*
X35390Y6623D01*
X35375Y6700D01*
X35359Y6724D01*
X35393Y6811D01*
X35458Y6855D01*
X35502Y6920D01*
X35517Y6996D01*
X35502Y7073D01*
X35458Y7138D01*
X35393Y7182D01*
X35316Y7197D01*
X35239Y7182D01*
X35202Y7157D01*
X34595D01*
X34254Y7498D01*
Y8029D01*
X33673D01*
X33489Y8214D01*
X33436Y8248D01*
X33375Y8261D01*
X33375Y8261D01*
X31464D01*
Y8284D01*
X31211D01*
Y9633D01*
X31517Y9939D01*
X33836D01*
X33873Y9915D01*
X33950Y9899D01*
X34027Y9915D01*
X34092Y9958D01*
X34135Y10023D01*
X34145Y10073D01*
X34218Y10104D01*
X34226Y10104D01*
X36130Y8200D01*
D02*
G37*
D10*
X6775Y8750D02*
X7035Y9010D01*
X4700Y8750D02*
X6775D01*
X6975Y8400D02*
X7535Y8960D01*
X5100Y8400D02*
X6975D01*
X33350Y15360D02*
Y15950D01*
X33207Y16093D02*
Y23207D01*
Y16093D02*
X33350Y15950D01*
X24500Y24700D02*
Y24810D01*
X25200Y24000D02*
X30300D01*
X24500Y24700D02*
X25200Y24000D01*
X29521Y24785D02*
Y24785D01*
Y24785D02*
X30149Y24157D01*
X30365D02*
X32757Y21765D01*
X30300Y24000D02*
X32600Y21700D01*
X30149Y24157D02*
X30365D01*
X17711Y11883D02*
X24733D01*
X24935Y12085D02*
Y15943D01*
X24733Y11883D02*
X24935Y12085D01*
X24918Y15960D02*
X24935Y15943D01*
X17450Y20200D02*
X22200D01*
X22450Y17600D02*
Y19950D01*
X22200Y20200D02*
X22450Y19950D01*
X10957Y4465D02*
Y5257D01*
X12043Y6343D02*
X12665D01*
X10957Y5257D02*
X12043Y6343D01*
X10800Y4400D02*
Y5350D01*
X11950Y6500D02*
X12600D01*
X10800Y5350D02*
X11950Y6500D01*
X10800Y4400D02*
X11485Y3715D01*
X10957Y4465D02*
X12485Y2937D01*
X13847Y7747D02*
Y12610D01*
X12600Y6500D02*
X12750Y6650D01*
Y6650D01*
X13847Y7747D01*
X12665Y6343D02*
X14103Y7780D01*
Y12610D01*
X11485Y2910D02*
Y3715D01*
X12485Y2910D02*
Y2937D01*
X35950Y5700D02*
Y6650D01*
X34596Y4900D02*
X35823D01*
X34550Y3796D02*
Y4854D01*
X35823Y4900D02*
X36150Y5227D01*
X34550Y4854D02*
X34596Y4900D01*
X31485Y2985D02*
X33558Y5057D01*
X35757D02*
X36250Y5550D01*
X33558Y5057D02*
X35757D01*
X31903Y4153D02*
X33050Y5300D01*
X35500D01*
X31064Y5586D02*
X35836D01*
X35950Y5700D01*
X31050Y5600D02*
X31064Y5586D01*
X31485Y2910D02*
Y2985D01*
X32950Y6600D02*
X33361Y6189D01*
X35673D01*
X32200Y7600D02*
X33350Y6450D01*
X31050Y7600D02*
X32200D01*
X35016Y6450D02*
X35189Y6623D01*
X33350Y6450D02*
X35016D01*
X34596Y3750D02*
X36300D01*
X34550Y3796D02*
X34596Y3750D01*
X36407Y5485D02*
Y8315D01*
X36150Y5227D02*
X36407Y5485D01*
X36250Y5550D02*
Y8250D01*
X33350Y11150D02*
X36250Y8250D01*
X36150Y8573D02*
X36407Y8315D01*
X33850Y10873D02*
X36150Y8573D01*
X13591Y14870D02*
Y24740D01*
X13521Y24810D02*
X13591Y24740D01*
X9185Y21710D02*
X13335Y17560D01*
X9185Y21710D02*
Y24439D01*
X13335Y14870D02*
Y17560D01*
X16650Y8864D02*
Y10822D01*
X17711Y11883D01*
X25450Y5691D02*
Y9057D01*
Y5691D02*
X25500Y5641D01*
X25400Y9107D02*
X25450Y9057D01*
X25400Y9107D02*
Y9150D01*
X25500Y4746D02*
Y5641D01*
X22250Y4650D02*
X25404D01*
X25500Y4746D01*
X23450Y5150D02*
X25050D01*
X19700Y6450D02*
X19900Y6650D01*
Y8950D01*
X17250Y6050D02*
X19850D01*
X20400Y6600D02*
Y8950D01*
X19850Y6050D02*
X20400Y6600D01*
X19993Y5893D02*
X20950Y6850D01*
X16957Y5893D02*
X19993D01*
X20950Y6850D02*
Y8950D01*
X17000Y6300D02*
X17250Y6050D01*
X16950Y5900D02*
X16957Y5893D01*
X16643Y3853D02*
Y7175D01*
X16485Y2910D02*
Y7060D01*
X14359Y9187D02*
X16485Y7060D01*
X14615Y9203D02*
X16643Y7175D01*
X26235Y5981D02*
X26350Y5866D01*
X26357Y3039D02*
X26485Y2910D01*
X26357Y3039D02*
Y3360D01*
X26350Y3367D02*
X26357Y3360D01*
X26350Y3367D02*
Y5866D01*
X26829Y5421D02*
X28000Y4250D01*
X26729Y5421D02*
X26829D01*
X28000Y4250D02*
X29970D01*
X27000Y5701D02*
Y5950D01*
X22406Y6194D02*
X23450Y5150D01*
X21900Y6400D02*
X22100Y6200D01*
X21900Y6400D02*
Y8950D01*
X22406Y6194D02*
Y8950D01*
X21400Y6500D02*
X22150Y5750D01*
X21400Y6500D02*
Y8950D01*
X12568Y14870D02*
Y17532D01*
X4506Y23750D02*
X6350D01*
X12568Y17532D01*
X13080Y14870D02*
Y17503D01*
X8985Y21597D02*
X13080Y17503D01*
X12824Y14870D02*
Y17526D01*
X5381Y23950D02*
X6400D01*
X12824Y17526D01*
X8985Y21597D02*
Y24346D01*
X3521Y24735D02*
X4506Y23750D01*
X4521Y24810D02*
X5381Y23950D01*
X3521Y24735D02*
Y24810D01*
X17531Y11369D02*
X17541Y11359D01*
X25830Y3780D02*
X26050Y4000D01*
X22280Y3780D02*
X25830D01*
X26050Y4000D02*
Y8118D01*
X29970Y4250D02*
X30820Y5100D01*
X31500Y4153D02*
X31903D01*
X31050Y6600D02*
X32950D01*
X26393Y6157D02*
X26650Y5900D01*
X26550Y6400D02*
X27000Y5950D01*
X27531Y8931D02*
X29969D01*
X30200Y6350D02*
Y8700D01*
X29969Y8931D02*
X30200Y8700D01*
X30035Y9088D02*
X30357Y8765D01*
Y7243D02*
Y8765D01*
X27465Y9088D02*
X30035D01*
X26550Y6400D02*
Y7950D01*
X26050Y8118D02*
X27335Y9403D01*
X21485Y2910D02*
Y2985D01*
X22280Y3780D01*
X30500Y7100D02*
X31050D01*
X30357Y7243D02*
X30500Y7100D01*
X26550Y7950D02*
X27531Y8931D01*
X26393Y8015D02*
X27465Y9088D01*
X30030Y9403D02*
X31474Y10846D01*
X27400Y9246D02*
X30096D01*
X31539Y10689D01*
X26235Y8080D02*
X27400Y9246D01*
X27335Y9403D02*
X30030D01*
X26393Y6157D02*
Y8015D01*
X26235Y5981D02*
Y8080D01*
X30450Y6100D02*
X31050D01*
X30200Y6350D02*
X30450Y6100D01*
X36468Y2928D02*
Y3582D01*
X36300Y3750D02*
X36468Y3582D01*
X30820Y5100D02*
X31050D01*
X31474Y10846D02*
X31848D01*
X31539Y10689D02*
X32191D01*
X32350Y11348D02*
Y11640D01*
X31848Y10846D02*
X32350Y11348D01*
X33350Y11150D02*
Y11640D01*
X33850Y10873D02*
Y11640D01*
X36468Y2928D02*
X36485Y2910D01*
X32850Y11348D02*
Y11640D01*
X32191Y10689D02*
X32850Y11348D01*
X2200Y3417D02*
Y4250D01*
X2900Y4950D02*
X7401D01*
X2200Y4250D02*
X2900Y4950D01*
X2019Y3444D02*
Y4319D01*
X2850Y5150D02*
X7378D01*
X2019Y4319D02*
X2850Y5150D01*
X7401Y4950D02*
X13080Y10628D01*
X7378Y5150D02*
X12824Y10595D01*
X2485Y2910D02*
Y3132D01*
X2200Y3417D02*
X2485Y3132D01*
X23804Y11646D02*
X24150Y11300D01*
X17935Y11646D02*
X23804D01*
X23641Y11359D02*
X23650Y11350D01*
X17541Y11359D02*
X23641D01*
X7107Y3363D02*
Y4211D01*
X12824Y10595D02*
Y12610D01*
X13080Y10628D02*
Y12610D01*
X13335Y10662D02*
Y12610D01*
X6950Y3375D02*
Y4276D01*
X13335Y10662D01*
X13534Y10638D02*
Y12294D01*
X7107Y4211D02*
X13534Y10638D01*
X24406Y17891D02*
X24450Y17935D01*
X24406Y17550D02*
Y17891D01*
X32600Y17173D02*
Y21700D01*
X31850Y16423D02*
X32600Y17173D01*
X32757Y17107D02*
Y21765D01*
X32350Y16700D02*
X32757Y17107D01*
X32350Y15360D02*
Y16700D01*
X31850Y15360D02*
Y16423D01*
X33050Y16050D02*
Y23273D01*
X33207Y23207D02*
X33800Y23800D01*
X33050Y23273D02*
X33735Y23957D01*
X32850Y15850D02*
X33050Y16050D01*
X32850Y15360D02*
Y15850D01*
X33743Y23957D02*
X34521Y24735D01*
X33800Y23800D02*
X38511D01*
X33735Y23957D02*
X33743D01*
X38511Y23800D02*
X39521Y24810D01*
X34521Y24735D02*
Y24810D01*
X13847Y14870D02*
Y24061D01*
X14521Y24735D01*
Y24810D01*
X18521Y24735D02*
Y24810D01*
X18928Y22398D02*
Y24329D01*
X14359Y14870D02*
Y17584D01*
X19085Y22310D02*
Y24374D01*
X19521Y24810D01*
X18521Y24735D02*
X18928Y24329D01*
X14103Y14870D02*
Y17573D01*
X18928Y22398D01*
X8521Y24810D02*
X8985Y24346D01*
X9521Y24775D02*
Y24810D01*
X9185Y24439D02*
X9521Y24775D01*
X14359Y17584D02*
X19085Y22310D01*
X1485Y2910D02*
X2019Y3444D01*
X6485Y2910D02*
X6950Y3375D01*
X7485Y2910D02*
Y2985D01*
X7107Y3363D02*
X7485Y2985D01*
X19000Y9950D02*
Y10150D01*
X18800Y9750D02*
X19000Y9950D01*
X18150Y9750D02*
X18800D01*
X14871Y12610D02*
Y13096D01*
X14985Y13210D02*
X15585D01*
X14871Y13096D02*
X14985Y13210D01*
X16285Y12610D02*
Y12622D01*
X16128Y12779D02*
X16285Y12622D01*
X15585Y13210D02*
X16017Y12779D01*
X16128D01*
X14359Y9187D02*
Y12610D01*
X16643Y3853D02*
X17485Y3010D01*
X14615Y9203D02*
Y12610D01*
X17485Y2910D02*
Y3010D01*
X13550Y12310D02*
Y12569D01*
X13534Y12294D02*
X13550Y12310D01*
Y12569D02*
X13591Y12610D01*
D16*
X1335Y18260D02*
X2500Y17096D01*
X1850Y15200D02*
X2500Y15850D01*
Y17096D01*
X1285Y18260D02*
X1335D01*
D25*
X34250Y17050D02*
D03*
X34250Y17765D02*
D03*
X35150Y17050D02*
D03*
X35150Y17765D02*
D03*
D31*
X36650Y10950D02*
D03*
X37365Y10950D02*
D03*
X36650Y11700D02*
D03*
X37365Y11700D02*
D03*
X16385Y14410D02*
D03*
X17100Y14410D02*
D03*
X16385Y13510D02*
D03*
X17100Y13510D02*
D03*
X16385Y12610D02*
D03*
X17100Y12610D02*
D03*
X18165Y10500D02*
D03*
X17450Y10500D02*
D03*
X17435Y9750D02*
D03*
X18150Y9750D02*
D03*
D34*
X36150Y18350D02*
D03*
Y17050D02*
D03*
X33850Y7650D02*
D03*
Y8950D02*
D03*
D39*
X39100Y18206D02*
D03*
Y18994D02*
D03*
Y12406D02*
D03*
Y13194D02*
D03*
D47*
X24450Y18565D02*
D03*
Y17935D02*
D03*
D48*
X1285Y19260D02*
D03*
D52*
X27590Y18000D02*
D03*
X26290D02*
D03*
X17675Y15360D02*
D03*
X16375D02*
D03*
X4640Y4250D02*
D03*
X3340D02*
D03*
D122*
X4150Y8300D02*
Y9506D01*
X4306Y8144D02*
X9519D01*
X4150Y8300D02*
X4306Y8144D01*
X9519D02*
X9535Y8160D01*
X35288Y17712D02*
X35488D01*
X35884Y17291D02*
Y17316D01*
X35488Y17712D02*
X35884Y17316D01*
X33400Y20400D02*
Y21650D01*
Y17850D02*
Y20400D01*
X35350Y16150D02*
X36056D01*
X36125Y16219D01*
Y17050D01*
X33650Y16100D02*
Y16124D01*
X33400Y16374D02*
X33650Y16124D01*
X33400Y16374D02*
Y17850D01*
X33500Y21750D02*
Y22100D01*
X33400Y21650D02*
X33500Y21750D01*
X24256Y11044D02*
X25174Y11962D01*
Y19174D01*
X26000Y20000D01*
X34509Y13691D02*
Y13709D01*
X34884Y12566D02*
Y13316D01*
X34509Y13691D02*
X34884Y13316D01*
X34418Y13800D02*
X34450D01*
X34359Y13859D02*
X34418Y13800D01*
X34341Y13859D02*
X34359D01*
X34003Y14197D02*
X34341Y13859D01*
X34434Y13784D02*
X34509Y13709D01*
X31703Y14197D02*
X34003D01*
X31800Y14400D02*
X33100D01*
X33400Y14700D01*
X33400D01*
X31600Y14000D02*
X33800D01*
X33941Y13859D02*
X33941D01*
X33800Y14000D02*
X33941Y13859D01*
X33941D02*
X34500Y13300D01*
Y12400D02*
Y13300D01*
X11500Y19650D02*
Y19900D01*
X12750Y18400D02*
X13300D01*
X11500Y19650D02*
X12750Y18400D01*
X7000Y10450D02*
X11046D01*
X11085Y10410D01*
X11700Y4650D02*
X12250Y5200D01*
X15300D01*
X17250Y4650D02*
X17400Y4800D01*
X10159Y6809D02*
X12502D01*
X12522Y6828D01*
X10150Y6800D02*
X10159Y6809D01*
X33424Y20400D02*
X37800D01*
X11314Y13450D02*
X11383Y13381D01*
X11085Y10410D02*
X11383Y10708D01*
X9300Y13450D02*
X11314D01*
X11383Y10708D02*
Y13381D01*
X16950Y9250D02*
Y10490D01*
X17077Y8886D02*
X17100Y8864D01*
X17077Y8886D02*
Y9123D01*
X16950Y9250D02*
X17077Y9123D01*
X16950Y10490D02*
X17504Y11044D01*
X33100Y8950D02*
X33850D01*
X33050Y9000D02*
X33100Y8950D01*
X31050Y15150D02*
Y16150D01*
X30597Y15200D02*
X30600Y15197D01*
X30853Y15047D02*
Y15391D01*
X30866Y16334D02*
Y16484D01*
X30644Y15600D02*
X30853Y15391D01*
X30850Y16500D02*
X30866Y16484D01*
X31050Y15150D02*
X31800Y14400D01*
X30853Y15047D02*
X31703Y14197D01*
X30600Y15000D02*
Y15197D01*
X30866Y16334D02*
X31050Y16150D01*
X30600Y15000D02*
X31600Y14000D01*
X32254Y12750D02*
X32750D01*
X32335Y12947D02*
X32941D01*
X30200Y15082D02*
X32335Y12947D01*
X30003Y19453D02*
X32100Y21550D01*
X30003Y15001D02*
Y19453D01*
X30200Y15082D02*
Y19250D01*
X32100Y21150D01*
X30003Y15001D02*
X32254Y12750D01*
X17675Y15360D02*
X17750Y15435D01*
X34884Y12566D02*
X34900Y12550D01*
X34850Y14162D02*
Y15360D01*
Y14162D02*
X36050Y12962D01*
X35850Y11728D02*
Y12800D01*
X34350Y14300D02*
X35850Y12800D01*
X34350Y14300D02*
Y15360D01*
X24000Y17550D02*
X24406D01*
X23700Y17850D02*
Y19100D01*
Y17850D02*
X24000Y17550D01*
X21800Y19100D02*
X22150D01*
X21100Y18400D02*
X21800Y19100D01*
X16500Y18400D02*
X21100D01*
X17400Y6600D02*
X17554Y6754D01*
Y8604D01*
X17504Y11044D02*
X24256D01*
X28044Y19989D02*
X28066Y19966D01*
X27960Y19989D02*
X28044D01*
X27949Y20000D02*
X27960Y19989D01*
X26000Y20000D02*
X27949D01*
X21036Y15114D02*
X23050Y17128D01*
X21036Y13770D02*
X22306Y12500D01*
X21036Y13770D02*
Y15114D01*
X23050Y17128D02*
Y21550D01*
X21450Y13950D02*
Y15250D01*
X23250Y17050D01*
Y22600D01*
X22342Y22258D02*
X23050Y21550D01*
X22250Y22600D02*
X22342Y22508D01*
Y22258D02*
Y22508D01*
X20256Y14550D02*
X21036Y13770D01*
X35150Y17850D02*
X35288Y17712D01*
X35884Y17291D02*
X36125Y17050D01*
X36150D01*
X34250Y17850D02*
X35150D01*
X33400D02*
X34250D01*
X37450Y11700D02*
X38068D01*
X38118Y11750D01*
X38150D01*
X37450Y10950D02*
Y11700D01*
X35850Y11728D02*
X36550Y11028D01*
Y10950D02*
Y11028D01*
X36050Y12250D02*
X36600Y11700D01*
X37800Y20400D02*
X38300Y19900D01*
Y19830D02*
Y19900D01*
X22306Y12500D02*
X22353D01*
X18100Y14550D02*
X20256D01*
X21400Y12950D02*
X21425D01*
X20150Y14200D02*
X21400Y12950D01*
X9200Y13550D02*
Y14500D01*
Y13550D02*
X9300Y13450D01*
X9200Y14500D02*
X10400Y15700D01*
X11050D01*
X32750Y12750D02*
X33100Y12400D01*
X32941Y12947D02*
X33494Y12394D01*
X36050Y12250D02*
Y12962D01*
X34850Y15360D02*
Y16728D01*
X15040Y13710D02*
X16148D01*
X14871Y13879D02*
Y14870D01*
X15127Y14335D02*
Y14870D01*
X15255Y14207D02*
X15547D01*
X15127Y14335D02*
X15255Y14207D01*
X16285Y14338D02*
Y14410D01*
X16148Y14200D02*
X16285Y14338D01*
X15560Y14200D02*
X16148D01*
X17850D02*
X20150D01*
X30815Y18698D02*
X30838Y18676D01*
X30948Y19054D02*
X31894Y20000D01*
X30854Y19054D02*
X30948D01*
X30832Y19032D02*
X30854Y19054D01*
X30825Y18350D02*
X31050D01*
X30819Y18344D02*
X30825Y18350D01*
X30813Y18700D02*
X31000D01*
X31894Y20000D02*
X31894D01*
X30863Y19375D02*
X31894Y20406D01*
X30813Y19375D02*
X30863D01*
X31000Y18700D02*
X31791Y19491D01*
X31050Y18350D02*
X31850Y19150D01*
Y19538D02*
Y19550D01*
X31803Y19491D02*
X31850Y19538D01*
X31791Y19491D02*
X31803D01*
X18215Y10450D02*
X18500D01*
X18165Y10500D02*
X18215Y10450D01*
X35350Y15652D02*
Y16150D01*
X34350Y15360D02*
Y16850D01*
X34250Y16950D02*
X34350Y16850D01*
X34850Y16728D02*
X35072Y16950D01*
X35150D01*
X16285Y13510D02*
Y13572D01*
X16148Y13710D02*
X16285Y13572D01*
X17185Y13510D02*
Y14410D01*
Y12610D02*
Y13510D01*
X16375Y15335D02*
Y15360D01*
Y15335D02*
X17048Y14663D01*
Y14548D02*
Y14663D01*
Y14548D02*
X17185Y14410D01*
X15383Y14870D02*
X15910D01*
X16375Y15335D01*
D123*
X8985Y17060D02*
Y18260D01*
X7035Y15110D02*
X7035D01*
X8985Y17060D01*
X7450Y12500D02*
X11128D01*
X7035Y12915D02*
X7450Y12500D01*
X7035Y12915D02*
Y15110D01*
X25430Y11730D02*
Y17630D01*
X24500Y10800D02*
X25430Y11730D01*
X25920Y17630D02*
X26290Y18000D01*
X25430Y17630D02*
X25920D01*
X28500Y22050D02*
Y23535D01*
Y19786D02*
Y22050D01*
X31800D01*
X39485Y2985D02*
X40700Y4200D01*
Y5478D01*
X39100Y7100D02*
Y11300D01*
X39485Y2910D02*
Y2985D01*
X39250Y20250D02*
Y23150D01*
X39900Y12100D02*
Y19600D01*
X39250Y20250D02*
X39900Y19600D01*
X39100Y11300D02*
X39900Y12100D01*
X39100Y7100D02*
X40700Y5500D01*
X38850Y23550D02*
X39250Y23150D01*
X37850Y23550D02*
X38850D01*
X18604Y8604D02*
X20800Y10800D01*
X17554Y8604D02*
X18604D01*
X28364Y19650D02*
X28500Y19786D01*
X26290Y19535D02*
X26405Y19650D01*
X26290Y18000D02*
Y19535D01*
X26405Y19650D02*
X28364D01*
X28385Y23650D02*
X28500Y23535D01*
X22050Y23650D02*
X28385D01*
X20250Y22600D02*
X21300Y23650D01*
X22050D01*
X20800Y10800D02*
X24500D01*
X37605Y20087D02*
X37610Y20092D01*
X37567Y19800D02*
X38300Y19067D01*
X34500Y19800D02*
X37567D01*
X34319Y20087D02*
X37605D01*
X34000Y19300D02*
X34500Y19800D01*
X37535Y19442D02*
X37650Y19327D01*
Y13840D02*
Y19327D01*
X34250Y19050D02*
X34642Y19442D01*
X37324Y13376D02*
Y19051D01*
X34917Y19167D02*
X37209D01*
X37324Y19051D01*
X34543Y18793D02*
X34917Y19167D01*
X34642Y19442D02*
X37535D01*
X38300Y19040D02*
Y19067D01*
X37650Y13840D02*
X38300Y13190D01*
X37324Y13376D02*
X38141Y12559D01*
X33766Y19534D02*
X34319Y20087D01*
X39077Y19017D02*
X39100Y18994D01*
X38323Y19017D02*
X39077D01*
X38300Y19040D02*
X38323Y19017D01*
X39078Y18228D02*
X39100Y18206D01*
X38322Y18228D02*
X39078D01*
X38300Y18250D02*
X38322Y18228D01*
X39098Y13192D02*
X39100Y13194D01*
X38302Y13192D02*
X39098D01*
X38300Y13190D02*
X38302Y13192D01*
X39097Y12403D02*
X39100Y12406D01*
X38303Y12403D02*
X39097D01*
X38300Y12400D02*
X38303Y12403D01*
X38141Y12559D02*
X38300Y12400D01*
X38141Y12559D02*
X38141D01*
X16375Y15360D02*
Y15385D01*
X16174Y15587D02*
X16375Y15385D01*
X16149Y15587D02*
X16174D01*
X15986Y15750D02*
X16149Y15587D01*
X15350Y15750D02*
X15986D01*
D124*
X17554Y8604D02*
Y9561D01*
X4485Y17610D02*
X8008D01*
X8100Y17702D01*
Y19400D01*
X10110Y8160D02*
X11600Y9650D01*
X9592Y13700D02*
X11508D01*
X11600Y9650D02*
Y13608D01*
X11508Y13700D02*
X11600Y13608D01*
X9500Y13792D02*
Y14050D01*
Y13792D02*
X9592Y13700D01*
X11250Y21300D02*
Y23100D01*
X11739Y20420D02*
Y20811D01*
X11250Y21300D02*
X11739Y20811D01*
X16375Y15360D02*
X16400Y15385D01*
Y16050D01*
X31050Y8100D02*
Y9700D01*
X31450Y10100D02*
X33950D01*
X31050Y9700D02*
X31450Y10100D01*
X31050Y8100D02*
X33375D01*
X33825Y7650D02*
X33850D01*
X33375Y8100D02*
X33825Y7650D01*
X33850D02*
X33875D01*
X34529Y6996D01*
X35316D01*
X17400Y9715D02*
X17554Y9561D01*
X16300Y8600D02*
X16374Y8674D01*
Y10824D01*
X17185Y11635D01*
X16800Y8564D02*
X17100Y8864D01*
X16800Y8000D02*
Y8564D01*
X17400Y9715D02*
X17435Y9750D01*
X25800Y9692D02*
Y10950D01*
Y9692D02*
X25892Y9600D01*
X29949D01*
X30350Y10001D01*
Y14050D01*
X3340Y4250D02*
X3485Y4105D01*
Y2910D02*
Y4105D01*
X4640Y3065D02*
Y4250D01*
X4485Y2910D02*
X4640Y3065D01*
X30250Y14150D02*
Y14300D01*
Y14150D02*
X30350Y14050D01*
X30500Y16100D02*
Y16750D01*
X30850Y17100D02*
X31950D01*
X30500Y16750D02*
X30850Y17100D01*
X17875Y12475D02*
X18126Y12224D01*
X24524D01*
X24525Y12225D01*
X17185Y11635D02*
Y12610D01*
X7800Y16625D02*
Y16900D01*
X6885Y15710D02*
X7800Y16625D01*
X9535Y8160D02*
X10110D01*
X8635Y12135D02*
X8650Y12150D01*
X35350Y15360D02*
Y15652D01*
X4235Y13210D02*
Y15360D01*
X4835Y15960D02*
X6085D01*
X4235Y15360D02*
X4835Y15960D01*
D125*
X2500Y7550D02*
D03*
Y9282D02*
D03*
X35200Y8850D02*
D03*
X35500Y5300D02*
D03*
X35673Y6189D02*
D03*
X35373Y5889D02*
D03*
X39850Y9750D02*
D03*
X35316Y6996D02*
D03*
X35950Y6650D02*
D03*
X35189Y6623D02*
D03*
X5100Y8400D02*
D03*
X4700Y8750D02*
D03*
X4165Y9440D02*
D03*
X33650Y16100D02*
D03*
X33500Y22100D02*
D03*
X24918Y15960D02*
D03*
X25430Y17630D02*
D03*
X33400Y14700D02*
D03*
X33950Y13850D02*
D03*
X34450Y13800D02*
D03*
X11500Y19900D02*
D03*
X8100Y19400D02*
D03*
X7000Y10450D02*
D03*
X15300Y5200D02*
D03*
X12522Y6828D02*
D03*
X11128Y12500D02*
D03*
X11739Y20420D02*
D03*
X5150Y6700D02*
D03*
X6100D02*
D03*
X33050Y9000D02*
D03*
X35750Y10750D02*
D03*
X32400Y12400D02*
D03*
X34000D02*
D03*
X30597Y15200D02*
D03*
X30850Y16500D02*
D03*
X30644Y15600D02*
D03*
X37150Y12650D02*
D03*
X18350Y15750D02*
D03*
X19800Y15700D02*
D03*
X16650Y17800D02*
D03*
X16600Y16600D02*
D03*
X16400Y16050D02*
D03*
X34350Y14300D02*
D03*
X10150Y6800D02*
D03*
X34850Y14162D02*
D03*
X37850Y23550D02*
D03*
X23700Y19100D02*
D03*
X22150D02*
D03*
X16500Y18400D02*
D03*
X13300D02*
D03*
X17450Y20200D02*
D03*
X17550Y9350D02*
D03*
X17554Y8604D02*
D03*
X16300Y8600D02*
D03*
X17100Y8864D02*
D03*
X16650D02*
D03*
X16800Y8000D02*
D03*
X31800Y22050D02*
D03*
X28066Y19966D02*
D03*
X25800Y10950D02*
D03*
X17400Y6600D02*
D03*
X16200Y6650D02*
D03*
X25050Y5150D02*
D03*
X19700Y6450D02*
D03*
X16950Y5900D02*
D03*
X17000Y6300D02*
D03*
X26729Y5421D02*
D03*
X27000Y5701D02*
D03*
X22100Y6200D02*
D03*
X25477Y5664D02*
D03*
X22150Y5750D02*
D03*
X19900Y8950D02*
D03*
X20950D02*
D03*
X20400D02*
D03*
X21425Y13950D02*
D03*
X22450Y17600D02*
D03*
X22050Y23650D02*
D03*
X31500Y4153D02*
D03*
X26650Y5900D02*
D03*
X25400Y9150D02*
D03*
X22406Y8950D02*
D03*
X21900D02*
D03*
X21400D02*
D03*
X38150Y11750D02*
D03*
X33950Y10100D02*
D03*
X37610Y20092D02*
D03*
X34900Y12550D02*
D03*
X24150Y11300D02*
D03*
X23650Y11350D02*
D03*
X30250Y14300D02*
D03*
X30500Y16100D02*
D03*
X31950Y17100D02*
D03*
X24525Y12225D02*
D03*
X22353Y12500D02*
D03*
X21425Y12950D02*
D03*
X17531Y11369D02*
D03*
X9500Y14050D02*
D03*
X11050Y15700D02*
D03*
X7800Y16900D02*
D03*
X15350Y15750D02*
D03*
X34250Y19050D02*
D03*
X34543Y18793D02*
D03*
X34000Y19300D02*
D03*
X33100Y12400D02*
D03*
X34500D02*
D03*
X33494Y12394D02*
D03*
X14950Y13800D02*
D03*
X15550Y14200D02*
D03*
X18100Y14550D02*
D03*
X17850Y14200D02*
D03*
X30838Y18676D02*
D03*
X30832Y19032D02*
D03*
X30819Y18344D02*
D03*
X24406Y17550D02*
D03*
X30813Y19375D02*
D03*
X31894Y20000D02*
D03*
Y19550D02*
D03*
Y20406D02*
D03*
Y19150D02*
D03*
X33766Y19534D02*
D03*
X32100Y21550D02*
D03*
Y21150D02*
D03*
X17875Y12475D02*
D03*
X18500Y10450D02*
D03*
X19000Y10150D02*
D03*
X11250Y23100D02*
D03*
X35350Y16150D02*
D03*
X17935Y11646D02*
D03*
X11085Y10410D02*
D03*
X7535Y8960D02*
D03*
X7035Y9010D02*
D03*
X9535Y8160D02*
D03*
X8985Y18260D02*
D03*
X7035Y15110D02*
D03*
X4485Y17610D02*
D03*
X4235Y13210D02*
D03*
X6085Y15960D02*
D03*
X6885Y15710D02*
D03*
D126*
X600Y4400D02*
D03*
X850Y23500D02*
D03*
X40200Y11000D02*
D03*
Y23600D02*
D03*
D127*
X36521Y24810D02*
D03*
X31521D02*
D03*
X26550D02*
D03*
X21500D02*
D03*
X16521D02*
D03*
X11521D02*
D03*
X6521D02*
D03*
X1521D02*
D03*
X39485Y2910D02*
D03*
X34485D02*
D03*
X29485D02*
D03*
X24485D02*
D03*
X19485D02*
D03*
X14485D02*
D03*
X9485D02*
D03*
X4485D02*
D03*
D128*
X37521Y24810D02*
D03*
X38521D02*
D03*
X39521D02*
D03*
X32521D02*
D03*
X33521D02*
D03*
X34521D02*
D03*
X29550D02*
D03*
X28550D02*
D03*
X27550D02*
D03*
X24500D02*
D03*
X23500D02*
D03*
X22500D02*
D03*
X19521D02*
D03*
X18521D02*
D03*
X17521D02*
D03*
X14521D02*
D03*
X13521D02*
D03*
X12521D02*
D03*
X9521D02*
D03*
X8521D02*
D03*
X7521D02*
D03*
X4521D02*
D03*
X3521D02*
D03*
X2521D02*
D03*
X36485Y2910D02*
D03*
X37485D02*
D03*
X38485D02*
D03*
X31485D02*
D03*
X32485D02*
D03*
X33485D02*
D03*
X28485D02*
D03*
X27485D02*
D03*
X26485D02*
D03*
X23485D02*
D03*
X22485D02*
D03*
X21485D02*
D03*
X18485D02*
D03*
X17485D02*
D03*
X16485D02*
D03*
X13485D02*
D03*
X12485D02*
D03*
X11485D02*
D03*
X6485D02*
D03*
X7485D02*
D03*
X8485D02*
D03*
X1485D02*
D03*
X2485D02*
D03*
X3485D02*
D03*
D129*
X20250Y22600D02*
D03*
X21250D02*
D03*
X22250D02*
D03*
D130*
X23250D02*
D03*
D131*
X38300Y16350D02*
D03*
Y15560D02*
D03*
Y14770D02*
D03*
Y13980D02*
D03*
Y13190D02*
D03*
Y22200D02*
D03*
Y21410D02*
D03*
Y20620D02*
D03*
Y19830D02*
D03*
Y19040D02*
D03*
D132*
Y12400D02*
D03*
Y18250D02*
D03*
D133*
X23676Y14265D02*
D03*
Y13543D02*
D03*
X23315Y14626D02*
D03*
Y13904D02*
D03*
Y13182D02*
D03*
X22954Y14265D02*
D03*
Y13543D02*
D03*
X22592Y14626D02*
D03*
Y13904D02*
D03*
Y13182D02*
D03*
X22231Y14265D02*
D03*
Y13543D02*
D03*
D134*
X3785Y19260D02*
D03*
Y18260D02*
D03*
Y17260D02*
D03*
X1285D02*
D03*
Y18260D02*
D03*
D135*
X500Y11550D02*
D03*
Y14550D02*
D03*
Y15200D02*
D03*
Y15900D02*
D03*
D136*
X11700Y4650D02*
D03*
X17250D02*
D03*
D137*
X12700D02*
D03*
X13735D02*
D03*
X22250D02*
D03*
X14700D02*
D03*
X18250D02*
D03*
X19250D02*
D03*
X20250D02*
D03*
X21250D02*
D03*
D138*
X3306Y20398D02*
D03*
D139*
X4329Y21500D02*
D03*
X2400D02*
D03*
D140*
X35350Y11640D02*
D03*
X34850D02*
D03*
X34350D02*
D03*
X33850D02*
D03*
X33350D02*
D03*
X32850D02*
D03*
X32350D02*
D03*
X31850D02*
D03*
X35350Y15360D02*
D03*
X34850D02*
D03*
X34350D02*
D03*
X33850D02*
D03*
X33350D02*
D03*
X32850D02*
D03*
X32350D02*
D03*
X31850D02*
D03*
D141*
X15383Y12610D02*
D03*
X15127D02*
D03*
X14871D02*
D03*
X14615D02*
D03*
X14359D02*
D03*
X14103D02*
D03*
X13847D02*
D03*
X13591D02*
D03*
X13335D02*
D03*
X13080D02*
D03*
X12824D02*
D03*
X12568D02*
D03*
Y14870D02*
D03*
X12824D02*
D03*
X13080D02*
D03*
X13335D02*
D03*
X13591D02*
D03*
X13847D02*
D03*
X14103D02*
D03*
X14359D02*
D03*
X14615D02*
D03*
X14871D02*
D03*
X15127D02*
D03*
X15383D02*
D03*
D142*
X1850Y12500D02*
D03*
Y15200D02*
D03*
D143*
X31050Y8100D02*
D03*
Y7600D02*
D03*
Y7100D02*
D03*
Y6600D02*
D03*
Y6100D02*
D03*
Y5600D02*
D03*
Y5100D02*
D03*
Y4600D02*
D03*
X29010D02*
D03*
Y5100D02*
D03*
Y5600D02*
D03*
Y6100D02*
D03*
Y6600D02*
D03*
Y7100D02*
D03*
Y7600D02*
D03*
Y8100D02*
D03*
M02*
